<?xml version="1.0" encoding="UTF-8" standalone="no"?>
<!DOCTYPE svg PUBLIC "-//W3C//DTD SVG 1.1//EN"
 "http://www.w3.org/Graphics/SVG/1.1/DTD/svg11.dtd">
<!-- Generated by graphviz version 2.40.1 (20161225.0304)
 -->
<!-- Title: oneDegreeRelationshipsDiagram Pages: 1 -->
<svg width="624pt" height="378pt"
 viewBox="0.00 0.00 624.00 377.70" xmlns="http://www.w3.org/2000/svg" xmlns:xlink="http://www.w3.org/1999/xlink">
<g id="graph0" class="graph" transform="scale(1 1) rotate(0) translate(4 373.7)">
<title>oneDegreeRelationshipsDiagram</title>
<polygon fill="#ffffff" stroke="transparent" points="-4,4 -4,-373.7 620,-373.7 620,4 -4,4"/>
<text text-anchor="middle" x="101.8088" y="-8.8" font-family="Helvetica,sans-Serif" font-size="16.00" fill="#000000">Generated by SchemaSpy</text>
<!-- timers -->
<g id="node1" class="node">
<title>timers</title>
<g id="a_node1"><a xlink:href="../../tables/timers.html" xlink:title="timers" target="_top">
<polygon fill="#ffffff" stroke="transparent" points="375,-110.7 375,-365.7 608,-365.7 608,-110.7 375,-110.7"/>
<polygon fill="#f5f5f5" stroke="transparent" points="375.5,-336.2 375.5,-365.2 608.5,-365.2 608.5,-336.2 375.5,-336.2"/>
<polygon fill="none" stroke="#000000" points="375.5,-336.2 375.5,-365.2 608.5,-365.2 608.5,-336.2 375.5,-336.2"/>
<text text-anchor="start" x="380.5" y="-343.3" font-family="Helvetica,sans-Serif" font-weight="bold" font-size="16.00" fill="#000000">timers</text>
<text text-anchor="start" x="559.9272" y="-345.8" font-family="Helvetica,sans-Serif" font-size="16.00" fill="#000000">[table]</text>
<polygon fill="none" stroke="#000000" points="375.5,-314.2 375.5,-336.2 608.5,-336.2 608.5,-314.2 375.5,-314.2"/>
<image xlink:href="../../images/primaryKeys.png" width="11px" height="12px" preserveAspectRatio="xMinYMin meet" x="380.5" y="-331.2"/>
<text text-anchor="start" x="395.5" y="-316.8" font-family="Helvetica,sans-Serif" font-size="16.00" fill="#000000">id</text>
<polygon fill="#ffffff" stroke="transparent" points="375.5,-292.2 375.5,-314.2 608.5,-314.2 608.5,-292.2 375.5,-292.2"/>
<polygon fill="none" stroke="#000000" points="375.5,-292.2 375.5,-314.2 608.5,-314.2 608.5,-292.2 375.5,-292.2"/>
<text text-anchor="start" x="395.5" y="-294.8" font-family="Helvetica,sans-Serif" font-size="16.00" fill="#000000">start_stamp</text>
<polygon fill="#ffffff" stroke="transparent" points="375.5,-270.2 375.5,-292.2 608.5,-292.2 608.5,-270.2 375.5,-270.2"/>
<polygon fill="none" stroke="#000000" points="375.5,-270.2 375.5,-292.2 608.5,-292.2 608.5,-270.2 375.5,-270.2"/>
<text text-anchor="start" x="395.5" y="-272.8" font-family="Helvetica,sans-Serif" font-size="16.00" fill="#000000">end_stamp</text>
<polygon fill="#ffffff" stroke="transparent" points="375.5,-248.2 375.5,-270.2 608.5,-270.2 608.5,-248.2 375.5,-248.2"/>
<polygon fill="none" stroke="#000000" points="375.5,-248.2 375.5,-270.2 608.5,-270.2 608.5,-248.2 375.5,-248.2"/>
<text text-anchor="start" x="395.5" y="-250.8" font-family="Helvetica,sans-Serif" font-size="16.00" fill="#000000">billable</text>
<polygon fill="#ffffff" stroke="transparent" points="375.5,-226.2 375.5,-248.2 608.5,-248.2 608.5,-226.2 375.5,-226.2"/>
<polygon fill="none" stroke="#000000" points="375.5,-226.2 375.5,-248.2 608.5,-248.2 608.5,-226.2 375.5,-226.2"/>
<image xlink:href="../../images/foreignKeys.png" width="11px" height="12px" preserveAspectRatio="xMinYMin meet" x="380.5" y="-243.2"/>
<text text-anchor="start" x="395.5" y="-228.8" font-family="Helvetica,sans-Serif" font-size="16.00" fill="#000000">business_partner_id</text>
<polygon fill="none" stroke="#000000" points="375.5,-204.2 375.5,-226.2 608.5,-226.2 608.5,-204.2 375.5,-204.2"/>
<image xlink:href="../../images/foreignKeys.png" width="11px" height="12px" preserveAspectRatio="xMinYMin meet" x="380.5" y="-221.2"/>
<text text-anchor="start" x="395.5" y="-206.8" font-family="Helvetica,sans-Serif" font-size="16.00" fill="#000000">activity_type_id</text>
<polygon fill="#ffffff" stroke="transparent" points="375.5,-182.2 375.5,-204.2 608.5,-204.2 608.5,-182.2 375.5,-182.2"/>
<polygon fill="none" stroke="#000000" points="375.5,-182.2 375.5,-204.2 608.5,-204.2 608.5,-182.2 375.5,-182.2"/>
<image xlink:href="../../images/foreignKeys.png" width="11px" height="12px" preserveAspectRatio="xMinYMin meet" x="380.5" y="-199.2"/>
<text text-anchor="start" x="395.5" y="-184.8" font-family="Helvetica,sans-Serif" font-size="16.00" fill="#000000">project_id</text>
<polygon fill="#ffffff" stroke="transparent" points="375.5,-160.2 375.5,-182.2 608.5,-182.2 608.5,-160.2 375.5,-160.2"/>
<polygon fill="none" stroke="#000000" points="375.5,-160.2 375.5,-182.2 608.5,-182.2 608.5,-160.2 375.5,-160.2"/>
<text text-anchor="start" x="395.5" y="-162.8" font-family="Helvetica,sans-Serif" font-size="16.00" fill="#000000">inserted_at</text>
<polygon fill="none" stroke="#000000" points="375.5,-135.2 375.5,-160.2 608.5,-160.2 608.5,-135.2 375.5,-135.2"/>
<text text-anchor="start" x="378.5" y="-142.8" font-family="Helvetica,sans-Serif" font-size="16.00" fill="#000000">...</text>
<polygon fill="#ffffff" stroke="transparent" points="375.5,-110.2 375.5,-135.2 460.5,-135.2 460.5,-110.2 375.5,-110.2"/>
<polygon fill="none" stroke="#000000" points="375.5,-110.2 375.5,-135.2 460.5,-135.2 460.5,-110.2 375.5,-110.2"/>
<text text-anchor="start" x="378.5" y="-117.8" font-family="Helvetica,sans-Serif" font-size="16.00" fill="#000000">&lt; 3</text>
<polygon fill="#ffffff" stroke="transparent" points="460.5,-110.2 460.5,-135.2 551.5,-135.2 551.5,-110.2 460.5,-110.2"/>
<polygon fill="none" stroke="#000000" points="460.5,-110.2 460.5,-135.2 551.5,-135.2 551.5,-110.2 460.5,-110.2"/>
<text text-anchor="start" x="492.4936" y="-117.8" font-family="Helvetica,sans-Serif" font-size="16.00" fill="#000000">65 rows</text>
<polygon fill="#ffffff" stroke="transparent" points="551.5,-110.2 551.5,-135.2 608.5,-135.2 608.5,-110.2 551.5,-110.2"/>
<polygon fill="none" stroke="#000000" points="551.5,-110.2 551.5,-135.2 608.5,-135.2 608.5,-110.2 551.5,-110.2"/>
<text text-anchor="start" x="582.8168" y="-117.8" font-family="Helvetica,sans-Serif" font-size="16.00" fill="#000000">2 &gt;</text>
</a>
</g>
</g>
<!-- activity_types -->
<g id="node2" class="node">
<title>activity_types</title>
<g id="a_node2"><a xlink:href="../../tables/activity_types.html" xlink:title="activity_types" target="_top">
<polygon fill="#ffffff" stroke="transparent" points="8,-50.2 8,-258.2 326,-258.2 326,-50.2 8,-50.2"/>
<polygon fill="#f5f5f5" stroke="transparent" points="10,-227.2 10,-256.2 324,-256.2 324,-227.2 10,-227.2"/>
<polygon fill="none" stroke="#000000" points="10,-227.2 10,-256.2 324,-256.2 324,-227.2 10,-227.2"/>
<text text-anchor="start" x="15" y="-234.3" font-family="Helvetica,sans-Serif" font-weight="bold" font-size="16.00" fill="#000000">activity_types</text>
<text text-anchor="start" x="275.4272" y="-236.8" font-family="Helvetica,sans-Serif" font-size="16.00" fill="#000000">[table]</text>
<polygon fill="none" stroke="#000000" points="10,-202.2 10,-227.2 143,-227.2 143,-202.2 10,-202.2"/>
<image xlink:href="../../images/primaryKeys.png" width="11px" height="12px" preserveAspectRatio="xMinYMin meet" x="15" y="-220.7"/>
<text text-anchor="start" x="30" y="-206.3" font-family="Helvetica,sans-Serif" font-size="16.00" fill="#000000">id</text>
<polygon fill="none" stroke="#000000" points="143,-202.2 143,-227.2 324,-227.2 324,-202.2 143,-202.2"/>
<text text-anchor="start" x="146" y="-209.8" font-family="Helvetica,sans-Serif" font-size="16.00" fill="#000000">text[2000000000]</text>
<polygon fill="#ffffff" stroke="transparent" points="10,-177.2 10,-202.2 143,-202.2 143,-177.2 10,-177.2"/>
<polygon fill="none" stroke="#000000" points="10,-177.2 10,-202.2 143,-202.2 143,-177.2 10,-177.2"/>
<text text-anchor="start" x="30" y="-181.3" font-family="Helvetica,sans-Serif" font-size="16.00" fill="#000000">name</text>
<polygon fill="none" stroke="#000000" points="143,-177.2 143,-202.2 324,-202.2 324,-177.2 143,-177.2"/>
<text text-anchor="start" x="146" y="-184.8" font-family="Helvetica,sans-Serif" font-size="16.00" fill="#000000">text[2000000000]</text>
<polygon fill="none" stroke="#000000" points="10,-152.2 10,-177.2 143,-177.2 143,-152.2 10,-152.2"/>
<text text-anchor="start" x="30" y="-156.3" font-family="Helvetica,sans-Serif" font-size="16.00" fill="#000000">billing_rate</text>
<polygon fill="none" stroke="#000000" points="143,-152.2 143,-177.2 324,-177.2 324,-152.2 143,-152.2"/>
<text text-anchor="start" x="145.9088" y="-159.8" font-family="Helvetica,sans-Serif" font-size="16.00" fill="#000000">decimal[2000000000,10]</text>
<polygon fill="#ffffff" stroke="transparent" points="10,-127.2 10,-152.2 143,-152.2 143,-127.2 10,-127.2"/>
<polygon fill="none" stroke="#000000" points="10,-127.2 10,-152.2 143,-152.2 143,-127.2 10,-127.2"/>
<text text-anchor="start" x="30" y="-131.3" font-family="Helvetica,sans-Serif" font-size="16.00" fill="#000000">active</text>
<polygon fill="none" stroke="#000000" points="143,-127.2 143,-152.2 324,-152.2 324,-127.2 143,-127.2"/>
<text text-anchor="start" x="146" y="-134.8" font-family="Helvetica,sans-Serif" font-size="16.00" fill="#000000">integer[2000000000]</text>
<polygon fill="none" stroke="#000000" points="10,-102.2 10,-127.2 143,-127.2 143,-102.2 10,-102.2"/>
<text text-anchor="start" x="30" y="-106.3" font-family="Helvetica,sans-Serif" font-size="16.00" fill="#000000">inserted_at</text>
<polygon fill="none" stroke="#000000" points="143,-102.2 143,-127.2 324,-127.2 324,-102.2 143,-102.2"/>
<text text-anchor="start" x="146" y="-109.8" font-family="Helvetica,sans-Serif" font-size="16.00" fill="#000000">text[2000000000]</text>
<polygon fill="none" stroke="#000000" points="10,-77.2 10,-102.2 143,-102.2 143,-77.2 10,-77.2"/>
<text text-anchor="start" x="30" y="-81.3" font-family="Helvetica,sans-Serif" font-size="16.00" fill="#000000">updated_at</text>
<polygon fill="none" stroke="#000000" points="143,-77.2 143,-102.2 324,-102.2 324,-77.2 143,-77.2"/>
<text text-anchor="start" x="146" y="-84.8" font-family="Helvetica,sans-Serif" font-size="16.00" fill="#000000">text[2000000000]</text>
<polygon fill="#ffffff" stroke="transparent" points="10,-52.2 10,-77.2 64,-77.2 64,-52.2 10,-52.2"/>
<polygon fill="none" stroke="#000000" points="10,-52.2 10,-77.2 64,-77.2 64,-52.2 10,-52.2"/>
<text text-anchor="start" x="13" y="-59.8" font-family="Helvetica,sans-Serif" font-size="16.00" fill="#000000">&lt; 0</text>
<polygon fill="#ffffff" stroke="transparent" points="64,-52.2 64,-77.2 143,-77.2 143,-52.2 64,-52.2"/>
<polygon fill="none" stroke="#000000" points="64,-52.2 64,-77.2 143,-77.2 143,-52.2 64,-52.2"/>
<text text-anchor="start" x="92.888" y="-59.8" font-family="Helvetica,sans-Serif" font-size="16.00" fill="#000000">5 rows</text>
<polygon fill="#ffffff" stroke="transparent" points="143,-52.2 143,-77.2 324,-77.2 324,-52.2 143,-52.2"/>
<polygon fill="none" stroke="#000000" points="143,-52.2 143,-77.2 324,-77.2 324,-52.2 143,-52.2"/>
<text text-anchor="start" x="298.3168" y="-59.8" font-family="Helvetica,sans-Serif" font-size="16.00" fill="#000000">1 &gt;</text>
<polygon fill="none" stroke="#000000" stroke-width="2" points="9,-51.2 9,-257.2 325,-257.2 325,-51.2 9,-51.2"/>
</a>
</g>
</g>
<!-- timers&#45;&gt;activity_types -->
<g id="edge1" class="edge">
<title>timers:w&#45;&gt;activity_types:e</title>
<path fill="none" stroke="#000000" d="M361.0156,-215.2C348.6771,-215.2 341.1667,-215.2 324,-215.2"/>
<polygon fill="#000000" stroke="#000000" points="367.5,-215.2001 375.5,-218.8 371.5,-215.2 375.5,-215.2 375.5,-215.2 375.5,-215.2 371.5,-215.2 375.5,-211.6 367.5,-215.2001 367.5,-215.2001"/>
<ellipse fill="none" stroke="#000000" cx="364.3" cy="-215.2001" rx="3.2" ry="3.2"/>
</g>
</g>
</svg>
