<?xml version="1.0" encoding="UTF-8" standalone="no"?>
<!DOCTYPE svg PUBLIC "-//W3C//DTD SVG 1.1//EN"
 "http://www.w3.org/Graphics/SVG/1.1/DTD/svg11.dtd">
<!-- Generated by graphviz version 2.40.1 (20161225.0304)
 -->
<!-- Title: twoDegreesRelationshipsDiagram Pages: 1 -->
<svg width="1075pt" height="530pt"
 viewBox="0.00 0.00 1075.00 530.20" xmlns="http://www.w3.org/2000/svg" xmlns:xlink="http://www.w3.org/1999/xlink">
<g id="graph0" class="graph" transform="scale(1 1) rotate(0) translate(4 526.2)">
<title>twoDegreesRelationshipsDiagram</title>
<polygon fill="#ffffff" stroke="transparent" points="-4,4 -4,-526.2 1071,-526.2 1071,4 -4,4"/>
<text text-anchor="middle" x="101.8088" y="-8.8" font-family="Helvetica,sans-Serif" font-size="16.00" fill="#000000">Generated by SchemaSpy</text>
<!-- projects -->
<g id="node1" class="node">
<title>projects</title>
<g id="a_node1"><a xlink:href="../../tables/projects.html" xlink:title="projects" target="_top">
<polygon fill="#ffffff" stroke="transparent" points="360.5,-50.2 360.5,-129.2 479.5,-129.2 479.5,-50.2 360.5,-50.2"/>
<polygon fill="#f5f5f5" stroke="transparent" points="361,-99.7 361,-128.7 480,-128.7 480,-99.7 361,-99.7"/>
<polygon fill="none" stroke="#000000" points="361,-99.7 361,-128.7 480,-128.7 480,-99.7 361,-99.7"/>
<text text-anchor="start" x="366" y="-106.8" font-family="Helvetica,sans-Serif" font-weight="bold" font-size="16.00" fill="#000000">projects</text>
<text text-anchor="start" x="431.7136" y="-109.3" font-family="Helvetica,sans-Serif" font-size="16.00" fill="#000000">[table]</text>
<polygon fill="none" stroke="#000000" points="361,-74.7 361,-99.7 480,-99.7 480,-74.7 361,-74.7"/>
<text text-anchor="start" x="364" y="-82.3" font-family="Helvetica,sans-Serif" font-size="16.00" fill="#000000">...</text>
<polygon fill="#ffffff" stroke="transparent" points="361,-49.7 361,-74.7 394,-74.7 394,-49.7 361,-49.7"/>
<polygon fill="none" stroke="#000000" points="361,-49.7 361,-74.7 394,-74.7 394,-49.7 361,-49.7"/>
<text text-anchor="start" x="364" y="-57.3" font-family="Helvetica,sans-Serif" font-size="16.00" fill="#000000">&lt; 1</text>
<polygon fill="#ffffff" stroke="transparent" points="394,-49.7 394,-74.7 449,-74.7 449,-49.7 394,-49.7"/>
<polygon fill="none" stroke="#000000" points="394,-49.7 394,-74.7 449,-74.7 449,-49.7 394,-49.7"/>
<text text-anchor="start" x="398.888" y="-57.3" font-family="Helvetica,sans-Serif" font-size="16.00" fill="#000000">5 rows</text>
<polygon fill="#ffffff" stroke="transparent" points="449,-49.7 449,-74.7 480,-74.7 480,-49.7 449,-49.7"/>
<polygon fill="none" stroke="#000000" points="449,-49.7 449,-74.7 480,-74.7 480,-49.7 449,-49.7"/>
<text text-anchor="start" x="454.3168" y="-57.3" font-family="Helvetica,sans-Serif" font-size="16.00" fill="#000000">3 &gt;</text>
</a>
</g>
</g>
<!-- business_partners -->
<g id="node2" class="node">
<title>business_partners</title>
<g id="a_node2"><a xlink:href="../../tables/business_partners.html" xlink:title="business_partners" target="_top">
<polygon fill="#ffffff" stroke="transparent" points="8,-198.2 8,-277.2 212,-277.2 212,-198.2 8,-198.2"/>
<polygon fill="#f5f5f5" stroke="transparent" points="8,-247.7 8,-276.7 212,-276.7 212,-247.7 8,-247.7"/>
<polygon fill="none" stroke="#000000" points="8,-247.7 8,-276.7 212,-276.7 212,-247.7 8,-247.7"/>
<text text-anchor="start" x="13" y="-254.8" font-family="Helvetica,sans-Serif" font-weight="bold" font-size="16.00" fill="#000000">business_partners</text>
<text text-anchor="start" x="163.7136" y="-257.3" font-family="Helvetica,sans-Serif" font-size="16.00" fill="#000000">[table]</text>
<polygon fill="none" stroke="#000000" points="8,-222.7 8,-247.7 212,-247.7 212,-222.7 8,-222.7"/>
<text text-anchor="start" x="11" y="-230.3" font-family="Helvetica,sans-Serif" font-size="16.00" fill="#000000">...</text>
<polygon fill="#ffffff" stroke="transparent" points="8,-197.7 8,-222.7 76,-222.7 76,-197.7 8,-197.7"/>
<polygon fill="none" stroke="#000000" points="8,-197.7 8,-222.7 76,-222.7 76,-197.7 8,-197.7"/>
<text text-anchor="start" x="11" y="-205.3" font-family="Helvetica,sans-Serif" font-size="16.00" fill="#000000"> &#160;</text>
<polygon fill="#ffffff" stroke="transparent" points="76,-197.7 76,-222.7 156,-222.7 156,-197.7 76,-197.7"/>
<polygon fill="none" stroke="#000000" points="76,-197.7 76,-222.7 156,-222.7 156,-197.7 76,-197.7"/>
<text text-anchor="start" x="105.888" y="-205.3" font-family="Helvetica,sans-Serif" font-size="16.00" fill="#000000">4 rows</text>
<polygon fill="#ffffff" stroke="transparent" points="156,-197.7 156,-222.7 212,-222.7 212,-197.7 156,-197.7"/>
<polygon fill="none" stroke="#000000" points="156,-197.7 156,-222.7 212,-222.7 212,-197.7 156,-197.7"/>
<text text-anchor="start" x="186.3168" y="-205.3" font-family="Helvetica,sans-Serif" font-size="16.00" fill="#000000">3 &gt;</text>
</a>
</g>
</g>
<!-- projects&#45;&gt;business_partners -->
<g id="edge1" class="edge">
<title>projects:w&#45;&gt;business_partners:e</title>
<path fill="none" stroke="#000000" d="M346.5845,-87.1013C303.9759,-89.6574 286.3455,-104.6868 253,-139.7 221.2853,-173.0008 257.9866,-234.7 212,-234.7"/>
<polygon fill="#000000" stroke="#000000" points="353.0031,-86.9227 361.1002,-90.2986 357.0015,-86.8113 361,-86.7 361,-86.7 361,-86.7 357.0015,-86.8113 360.8998,-83.1014 353.0031,-86.9227 353.0031,-86.9227"/>
<ellipse fill="none" stroke="#000000" cx="349.8043" cy="-87.0118" rx="3.2" ry="3.2"/>
</g>
<!-- timer_notes -->
<g id="node3" class="node">
<title>timer_notes</title>
<g id="a_node3"><a xlink:href="../../tables/timer_notes.html" xlink:title="timer_notes" target="_top">
<polygon fill="#ffffff" stroke="transparent" points="910,-439.2 910,-518.2 1059,-518.2 1059,-439.2 910,-439.2"/>
<polygon fill="#f5f5f5" stroke="transparent" points="910.5,-488.7 910.5,-517.7 1059.5,-517.7 1059.5,-488.7 910.5,-488.7"/>
<polygon fill="none" stroke="#000000" points="910.5,-488.7 910.5,-517.7 1059.5,-517.7 1059.5,-488.7 910.5,-488.7"/>
<text text-anchor="start" x="915.5" y="-495.8" font-family="Helvetica,sans-Serif" font-weight="bold" font-size="16.00" fill="#000000">timer_notes</text>
<text text-anchor="start" x="1011.2136" y="-498.3" font-family="Helvetica,sans-Serif" font-size="16.00" fill="#000000">[table]</text>
<polygon fill="none" stroke="#000000" points="910.5,-463.7 910.5,-488.7 1059.5,-488.7 1059.5,-463.7 910.5,-463.7"/>
<text text-anchor="start" x="913.5" y="-471.3" font-family="Helvetica,sans-Serif" font-size="16.00" fill="#000000">...</text>
<polygon fill="#ffffff" stroke="transparent" points="910.5,-438.7 910.5,-463.7 960.5,-463.7 960.5,-438.7 910.5,-438.7"/>
<polygon fill="none" stroke="#000000" points="910.5,-438.7 910.5,-463.7 960.5,-463.7 960.5,-438.7 910.5,-438.7"/>
<text text-anchor="start" x="913.5" y="-446.3" font-family="Helvetica,sans-Serif" font-size="16.00" fill="#000000">&lt; 1</text>
<polygon fill="#ffffff" stroke="transparent" points="960.5,-438.7 960.5,-463.7 1033.5,-463.7 1033.5,-438.7 960.5,-438.7"/>
<polygon fill="none" stroke="#000000" points="960.5,-438.7 960.5,-463.7 1033.5,-463.7 1033.5,-438.7 960.5,-438.7"/>
<text text-anchor="start" x="974.4936" y="-446.3" font-family="Helvetica,sans-Serif" font-size="16.00" fill="#000000">29 rows</text>
<polygon fill="#ffffff" stroke="transparent" points="1033.5,-438.7 1033.5,-463.7 1059.5,-463.7 1059.5,-438.7 1033.5,-438.7"/>
<polygon fill="none" stroke="#000000" points="1033.5,-438.7 1033.5,-463.7 1059.5,-463.7 1059.5,-438.7 1033.5,-438.7"/>
<text text-anchor="start" x="1047.6072" y="-446.3" font-family="Helvetica,sans-Serif" font-size="16.00" fill="#000000"> &#160;</text>
</a>
</g>
</g>
<!-- timers -->
<g id="node4" class="node">
<title>timers</title>
<g id="a_node4"><a xlink:href="../../tables/timers.html" xlink:title="timers" target="_top">
<polygon fill="#ffffff" stroke="transparent" points="628,-211.2 628,-466.2 861,-466.2 861,-211.2 628,-211.2"/>
<polygon fill="#f5f5f5" stroke="transparent" points="628.5,-436.7 628.5,-465.7 861.5,-465.7 861.5,-436.7 628.5,-436.7"/>
<polygon fill="none" stroke="#000000" points="628.5,-436.7 628.5,-465.7 861.5,-465.7 861.5,-436.7 628.5,-436.7"/>
<text text-anchor="start" x="633.5" y="-443.8" font-family="Helvetica,sans-Serif" font-weight="bold" font-size="16.00" fill="#000000">timers</text>
<text text-anchor="start" x="812.9272" y="-446.3" font-family="Helvetica,sans-Serif" font-size="16.00" fill="#000000">[table]</text>
<polygon fill="none" stroke="#000000" points="628.5,-414.7 628.5,-436.7 861.5,-436.7 861.5,-414.7 628.5,-414.7"/>
<image xlink:href="../../images/primaryKeys.png" width="11px" height="12px" preserveAspectRatio="xMinYMin meet" x="633.5" y="-431.7"/>
<text text-anchor="start" x="648.5" y="-417.3" font-family="Helvetica,sans-Serif" font-size="16.00" fill="#000000">id</text>
<polygon fill="#ffffff" stroke="transparent" points="628.5,-392.7 628.5,-414.7 861.5,-414.7 861.5,-392.7 628.5,-392.7"/>
<polygon fill="none" stroke="#000000" points="628.5,-392.7 628.5,-414.7 861.5,-414.7 861.5,-392.7 628.5,-392.7"/>
<text text-anchor="start" x="648.5" y="-395.3" font-family="Helvetica,sans-Serif" font-size="16.00" fill="#000000">start_stamp</text>
<polygon fill="#ffffff" stroke="transparent" points="628.5,-370.7 628.5,-392.7 861.5,-392.7 861.5,-370.7 628.5,-370.7"/>
<polygon fill="none" stroke="#000000" points="628.5,-370.7 628.5,-392.7 861.5,-392.7 861.5,-370.7 628.5,-370.7"/>
<text text-anchor="start" x="648.5" y="-373.3" font-family="Helvetica,sans-Serif" font-size="16.00" fill="#000000">end_stamp</text>
<polygon fill="#ffffff" stroke="transparent" points="628.5,-348.7 628.5,-370.7 861.5,-370.7 861.5,-348.7 628.5,-348.7"/>
<polygon fill="none" stroke="#000000" points="628.5,-348.7 628.5,-370.7 861.5,-370.7 861.5,-348.7 628.5,-348.7"/>
<text text-anchor="start" x="648.5" y="-351.3" font-family="Helvetica,sans-Serif" font-size="16.00" fill="#000000">billable</text>
<polygon fill="#ffffff" stroke="transparent" points="628.5,-326.7 628.5,-348.7 861.5,-348.7 861.5,-326.7 628.5,-326.7"/>
<polygon fill="none" stroke="#000000" points="628.5,-326.7 628.5,-348.7 861.5,-348.7 861.5,-326.7 628.5,-326.7"/>
<image xlink:href="../../images/foreignKeys.png" width="11px" height="12px" preserveAspectRatio="xMinYMin meet" x="633.5" y="-343.7"/>
<text text-anchor="start" x="648.5" y="-329.3" font-family="Helvetica,sans-Serif" font-size="16.00" fill="#000000">business_partner_id</text>
<polygon fill="none" stroke="#000000" points="628.5,-304.7 628.5,-326.7 861.5,-326.7 861.5,-304.7 628.5,-304.7"/>
<image xlink:href="../../images/foreignKeys.png" width="11px" height="12px" preserveAspectRatio="xMinYMin meet" x="633.5" y="-321.7"/>
<text text-anchor="start" x="648.5" y="-307.3" font-family="Helvetica,sans-Serif" font-size="16.00" fill="#000000">activity_type_id</text>
<polygon fill="#ffffff" stroke="transparent" points="628.5,-282.7 628.5,-304.7 861.5,-304.7 861.5,-282.7 628.5,-282.7"/>
<polygon fill="none" stroke="#000000" points="628.5,-282.7 628.5,-304.7 861.5,-304.7 861.5,-282.7 628.5,-282.7"/>
<image xlink:href="../../images/foreignKeys.png" width="11px" height="12px" preserveAspectRatio="xMinYMin meet" x="633.5" y="-299.7"/>
<text text-anchor="start" x="648.5" y="-285.3" font-family="Helvetica,sans-Serif" font-size="16.00" fill="#000000">project_id</text>
<polygon fill="#ffffff" stroke="transparent" points="628.5,-260.7 628.5,-282.7 861.5,-282.7 861.5,-260.7 628.5,-260.7"/>
<polygon fill="none" stroke="#000000" points="628.5,-260.7 628.5,-282.7 861.5,-282.7 861.5,-260.7 628.5,-260.7"/>
<text text-anchor="start" x="648.5" y="-263.3" font-family="Helvetica,sans-Serif" font-size="16.00" fill="#000000">inserted_at</text>
<polygon fill="none" stroke="#000000" points="628.5,-235.7 628.5,-260.7 861.5,-260.7 861.5,-235.7 628.5,-235.7"/>
<text text-anchor="start" x="631.5" y="-243.3" font-family="Helvetica,sans-Serif" font-size="16.00" fill="#000000">...</text>
<polygon fill="#ffffff" stroke="transparent" points="628.5,-210.7 628.5,-235.7 713.5,-235.7 713.5,-210.7 628.5,-210.7"/>
<polygon fill="none" stroke="#000000" points="628.5,-210.7 628.5,-235.7 713.5,-235.7 713.5,-210.7 628.5,-210.7"/>
<text text-anchor="start" x="631.5" y="-218.3" font-family="Helvetica,sans-Serif" font-size="16.00" fill="#000000">&lt; 3</text>
<polygon fill="#ffffff" stroke="transparent" points="713.5,-210.7 713.5,-235.7 804.5,-235.7 804.5,-210.7 713.5,-210.7"/>
<polygon fill="none" stroke="#000000" points="713.5,-210.7 713.5,-235.7 804.5,-235.7 804.5,-210.7 713.5,-210.7"/>
<text text-anchor="start" x="745.4936" y="-218.3" font-family="Helvetica,sans-Serif" font-size="16.00" fill="#000000">65 rows</text>
<polygon fill="#ffffff" stroke="transparent" points="804.5,-210.7 804.5,-235.7 861.5,-235.7 861.5,-210.7 804.5,-210.7"/>
<polygon fill="none" stroke="#000000" points="804.5,-210.7 804.5,-235.7 861.5,-235.7 861.5,-210.7 804.5,-210.7"/>
<text text-anchor="start" x="835.8168" y="-218.3" font-family="Helvetica,sans-Serif" font-size="16.00" fill="#000000">2 &gt;</text>
</a>
</g>
</g>
<!-- timer_notes&#45;&gt;timers -->
<g id="edge2" class="edge">
<title>timer_notes:w&#45;&gt;timers:e</title>
<path fill="none" stroke="#000000" d="M896.6829,-470.723C882.8616,-458.0761 886.5373,-425.7 861.5,-425.7"/>
<polygon fill="#000000" stroke="#000000" points="902.9734,-472.9889 909.28,-479.087 906.7367,-474.3444 910.5,-475.7 910.5,-475.7 910.5,-475.7 906.7367,-474.3444 911.72,-472.313 902.9734,-472.9889 902.9734,-472.9889"/>
<ellipse fill="none" stroke="#000000" cx="899.9627" cy="-471.9044" rx="3.2" ry="3.2"/>
</g>
<!-- timers&#45;&gt;projects -->
<g id="edge6" class="edge">
<title>timers:w&#45;&gt;projects:e</title>
<path fill="none" stroke="#000000" d="M614.1288,-291.8654C568.756,-278.0977 628.3604,-190.1145 587,-139.7 553.3396,-98.6711 533.0697,-86.7 480,-86.7"/>
<polygon fill="#000000" stroke="#000000" points="620.5644,-292.6869 628.0441,-297.271 624.5322,-293.1935 628.5,-293.7 628.5,-293.7 628.5,-293.7 624.5322,-293.1935 628.9559,-290.129 620.5644,-292.6869 620.5644,-292.6869"/>
<ellipse fill="none" stroke="#000000" cx="617.3902" cy="-292.2817" rx="3.2" ry="3.2"/>
</g>
<!-- timers&#45;&gt;business_partners -->
<g id="edge5" class="edge">
<title>timers:w&#45;&gt;business_partners:e</title>
<path fill="none" stroke="#000000" d="M614.6887,-342.1062C605.4212,-349.5112 603.1901,-364.1829 587,-369.7 446.4899,-417.5818 372.2461,-458.1088 253,-369.7 202.6279,-332.3543 274.7061,-234.7 212,-234.7"/>
<polygon fill="#000000" stroke="#000000" points="620.8785,-340.1315 629.5942,-341.1297 624.6892,-338.9158 628.5,-337.7 628.5,-337.7 628.5,-337.7 624.6892,-338.9158 627.4058,-334.2703 620.8785,-340.1315 620.8785,-340.1315"/>
<ellipse fill="none" stroke="#000000" cx="617.8298" cy="-341.1041" rx="3.2" ry="3.2"/>
</g>
<!-- activity_types -->
<g id="node6" class="node">
<title>activity_types</title>
<g id="a_node6"><a xlink:href="../../tables/activity_types.html" xlink:title="activity_types" target="_top">
<polygon fill="#ffffff" stroke="transparent" points="261,-150.7 261,-358.7 579,-358.7 579,-150.7 261,-150.7"/>
<polygon fill="#f5f5f5" stroke="transparent" points="263,-327.7 263,-356.7 577,-356.7 577,-327.7 263,-327.7"/>
<polygon fill="none" stroke="#000000" points="263,-327.7 263,-356.7 577,-356.7 577,-327.7 263,-327.7"/>
<text text-anchor="start" x="268" y="-334.8" font-family="Helvetica,sans-Serif" font-weight="bold" font-size="16.00" fill="#000000">activity_types</text>
<text text-anchor="start" x="528.4272" y="-337.3" font-family="Helvetica,sans-Serif" font-size="16.00" fill="#000000">[table]</text>
<polygon fill="none" stroke="#000000" points="263,-302.7 263,-327.7 396,-327.7 396,-302.7 263,-302.7"/>
<image xlink:href="../../images/primaryKeys.png" width="11px" height="12px" preserveAspectRatio="xMinYMin meet" x="268" y="-321.2"/>
<text text-anchor="start" x="283" y="-306.8" font-family="Helvetica,sans-Serif" font-size="16.00" fill="#000000">id</text>
<polygon fill="none" stroke="#000000" points="396,-302.7 396,-327.7 577,-327.7 577,-302.7 396,-302.7"/>
<text text-anchor="start" x="399" y="-310.3" font-family="Helvetica,sans-Serif" font-size="16.00" fill="#000000">text[2000000000]</text>
<polygon fill="#ffffff" stroke="transparent" points="263,-277.7 263,-302.7 396,-302.7 396,-277.7 263,-277.7"/>
<polygon fill="none" stroke="#000000" points="263,-277.7 263,-302.7 396,-302.7 396,-277.7 263,-277.7"/>
<text text-anchor="start" x="283" y="-281.8" font-family="Helvetica,sans-Serif" font-size="16.00" fill="#000000">name</text>
<polygon fill="none" stroke="#000000" points="396,-277.7 396,-302.7 577,-302.7 577,-277.7 396,-277.7"/>
<text text-anchor="start" x="399" y="-285.3" font-family="Helvetica,sans-Serif" font-size="16.00" fill="#000000">text[2000000000]</text>
<polygon fill="none" stroke="#000000" points="263,-252.7 263,-277.7 396,-277.7 396,-252.7 263,-252.7"/>
<text text-anchor="start" x="283" y="-256.8" font-family="Helvetica,sans-Serif" font-size="16.00" fill="#000000">billing_rate</text>
<polygon fill="none" stroke="#000000" points="396,-252.7 396,-277.7 577,-277.7 577,-252.7 396,-252.7"/>
<text text-anchor="start" x="398.9088" y="-260.3" font-family="Helvetica,sans-Serif" font-size="16.00" fill="#000000">decimal[2000000000,10]</text>
<polygon fill="#ffffff" stroke="transparent" points="263,-227.7 263,-252.7 396,-252.7 396,-227.7 263,-227.7"/>
<polygon fill="none" stroke="#000000" points="263,-227.7 263,-252.7 396,-252.7 396,-227.7 263,-227.7"/>
<text text-anchor="start" x="283" y="-231.8" font-family="Helvetica,sans-Serif" font-size="16.00" fill="#000000">active</text>
<polygon fill="none" stroke="#000000" points="396,-227.7 396,-252.7 577,-252.7 577,-227.7 396,-227.7"/>
<text text-anchor="start" x="399" y="-235.3" font-family="Helvetica,sans-Serif" font-size="16.00" fill="#000000">integer[2000000000]</text>
<polygon fill="none" stroke="#000000" points="263,-202.7 263,-227.7 396,-227.7 396,-202.7 263,-202.7"/>
<text text-anchor="start" x="283" y="-206.8" font-family="Helvetica,sans-Serif" font-size="16.00" fill="#000000">inserted_at</text>
<polygon fill="none" stroke="#000000" points="396,-202.7 396,-227.7 577,-227.7 577,-202.7 396,-202.7"/>
<text text-anchor="start" x="399" y="-210.3" font-family="Helvetica,sans-Serif" font-size="16.00" fill="#000000">text[2000000000]</text>
<polygon fill="none" stroke="#000000" points="263,-177.7 263,-202.7 396,-202.7 396,-177.7 263,-177.7"/>
<text text-anchor="start" x="283" y="-181.8" font-family="Helvetica,sans-Serif" font-size="16.00" fill="#000000">updated_at</text>
<polygon fill="none" stroke="#000000" points="396,-177.7 396,-202.7 577,-202.7 577,-177.7 396,-177.7"/>
<text text-anchor="start" x="399" y="-185.3" font-family="Helvetica,sans-Serif" font-size="16.00" fill="#000000">text[2000000000]</text>
<polygon fill="#ffffff" stroke="transparent" points="263,-152.7 263,-177.7 317,-177.7 317,-152.7 263,-152.7"/>
<polygon fill="none" stroke="#000000" points="263,-152.7 263,-177.7 317,-177.7 317,-152.7 263,-152.7"/>
<text text-anchor="start" x="266" y="-160.3" font-family="Helvetica,sans-Serif" font-size="16.00" fill="#000000">&lt; 0</text>
<polygon fill="#ffffff" stroke="transparent" points="317,-152.7 317,-177.7 396,-177.7 396,-152.7 317,-152.7"/>
<polygon fill="none" stroke="#000000" points="317,-152.7 317,-177.7 396,-177.7 396,-152.7 317,-152.7"/>
<text text-anchor="start" x="345.888" y="-160.3" font-family="Helvetica,sans-Serif" font-size="16.00" fill="#000000">5 rows</text>
<polygon fill="#ffffff" stroke="transparent" points="396,-152.7 396,-177.7 577,-177.7 577,-152.7 396,-152.7"/>
<polygon fill="none" stroke="#000000" points="396,-152.7 396,-177.7 577,-177.7 577,-152.7 396,-152.7"/>
<text text-anchor="start" x="551.3168" y="-160.3" font-family="Helvetica,sans-Serif" font-size="16.00" fill="#000000">1 &gt;</text>
<polygon fill="none" stroke="#000000" stroke-width="2" points="262,-151.7 262,-357.7 578,-357.7 578,-151.7 262,-151.7"/>
</a>
</g>
</g>
<!-- timers&#45;&gt;activity_types -->
<g id="edge4" class="edge">
<title>timers:w&#45;&gt;activity_types:e</title>
<path fill="none" stroke="#000000" d="M614.0156,-315.7C601.6771,-315.7 594.1667,-315.7 577,-315.7"/>
<polygon fill="#000000" stroke="#000000" points="620.5,-315.7001 628.5,-319.3 624.5,-315.7 628.5,-315.7 628.5,-315.7 628.5,-315.7 624.5,-315.7 628.5,-312.1 620.5,-315.7001 620.5,-315.7001"/>
<ellipse fill="none" stroke="#000000" cx="617.3" cy="-315.7001" rx="3.2" ry="3.2"/>
</g>
<!-- timer_tags -->
<g id="node5" class="node">
<title>timer_tags</title>
<g id="a_node5"><a xlink:href="../../tables/timer_tags.html" xlink:title="timer_tags" target="_top">
<polygon fill="#ffffff" stroke="transparent" points="915.5,-339.2 915.5,-418.2 1053.5,-418.2 1053.5,-339.2 915.5,-339.2"/>
<polygon fill="#f5f5f5" stroke="transparent" points="915.5,-388.7 915.5,-417.7 1053.5,-417.7 1053.5,-388.7 915.5,-388.7"/>
<polygon fill="none" stroke="#000000" points="915.5,-388.7 915.5,-417.7 1053.5,-417.7 1053.5,-388.7 915.5,-388.7"/>
<text text-anchor="start" x="920.5" y="-395.8" font-family="Helvetica,sans-Serif" font-weight="bold" font-size="16.00" fill="#000000">timer_tags</text>
<text text-anchor="start" x="1005.2136" y="-398.3" font-family="Helvetica,sans-Serif" font-size="16.00" fill="#000000">[table]</text>
<polygon fill="none" stroke="#000000" points="915.5,-363.7 915.5,-388.7 1053.5,-388.7 1053.5,-363.7 915.5,-363.7"/>
<text text-anchor="start" x="918.5" y="-371.3" font-family="Helvetica,sans-Serif" font-size="16.00" fill="#000000">...</text>
<polygon fill="#ffffff" stroke="transparent" points="915.5,-338.7 915.5,-363.7 964.5,-363.7 964.5,-338.7 915.5,-338.7"/>
<polygon fill="none" stroke="#000000" points="915.5,-338.7 915.5,-363.7 964.5,-363.7 964.5,-338.7 915.5,-338.7"/>
<text text-anchor="start" x="918.5" y="-346.3" font-family="Helvetica,sans-Serif" font-size="16.00" fill="#000000">&lt; 2</text>
<polygon fill="#ffffff" stroke="transparent" points="964.5,-338.7 964.5,-363.7 1028.5,-363.7 1028.5,-338.7 964.5,-338.7"/>
<polygon fill="none" stroke="#000000" points="964.5,-338.7 964.5,-363.7 1028.5,-363.7 1028.5,-338.7 964.5,-338.7"/>
<text text-anchor="start" x="978.388" y="-346.3" font-family="Helvetica,sans-Serif" font-size="16.00" fill="#000000">2 rows</text>
<polygon fill="#ffffff" stroke="transparent" points="1028.5,-338.7 1028.5,-363.7 1053.5,-363.7 1053.5,-338.7 1028.5,-338.7"/>
<polygon fill="none" stroke="#000000" points="1028.5,-338.7 1028.5,-363.7 1053.5,-363.7 1053.5,-338.7 1028.5,-338.7"/>
<text text-anchor="start" x="1041.6072" y="-346.3" font-family="Helvetica,sans-Serif" font-size="16.00" fill="#000000"> &#160;</text>
</a>
</g>
</g>
<!-- timer_tags&#45;&gt;timers -->
<g id="edge3" class="edge">
<title>timer_tags:w&#45;&gt;timers:e</title>
<path fill="none" stroke="#000000" d="M901.6303,-379.963C885.4699,-392.0544 888.331,-425.7 861.5,-425.7"/>
<polygon fill="#000000" stroke="#000000" points="907.853,-378.0504 916.5577,-379.1411 911.6765,-376.8752 915.5,-375.7 915.5,-375.7 915.5,-375.7 911.6765,-376.8752 914.4423,-372.2589 907.853,-378.0504 907.853,-378.0504"/>
<ellipse fill="none" stroke="#000000" cx="904.7943" cy="-378.9905" rx="3.2" ry="3.2"/>
</g>
</g>
</svg>
