<?xml version="1.0" encoding="UTF-8" standalone="no"?>
<!DOCTYPE svg PUBLIC "-//W3C//DTD SVG 1.1//EN"
 "http://www.w3.org/Graphics/SVG/1.1/DTD/svg11.dtd">
<!-- Generated by graphviz version 2.40.1 (20161225.0304)
 -->
<!-- Title: oneDegreeRelationshipsDiagram Pages: 1 -->
<svg width="627pt" height="327pt"
 viewBox="0.00 0.00 627.00 327.20" xmlns="http://www.w3.org/2000/svg" xmlns:xlink="http://www.w3.org/1999/xlink">
<g id="graph0" class="graph" transform="scale(1 1) rotate(0) translate(4 323.2)">
<title>oneDegreeRelationshipsDiagram</title>
<polygon fill="#ffffff" stroke="transparent" points="-4,4 -4,-323.2 623,-323.2 623,4 -4,4"/>
<text text-anchor="middle" x="101.8088" y="-8.8" font-family="Helvetica,sans-Serif" font-size="16.00" fill="#000000">Generated by SchemaSpy</text>
<!-- business_partner_notes -->
<g id="node1" class="node">
<title>business_partner_notes</title>
<g id="a_node1"><a xlink:href="../../tables/business_partner_notes.html" xlink:title="business_partner_notes" target="_top">
<polygon fill="#ffffff" stroke="transparent" points="261,-132.2 261,-315.2 611,-315.2 611,-132.2 261,-132.2"/>
<polygon fill="#f5f5f5" stroke="transparent" points="263,-283.7 263,-312.7 609,-312.7 609,-283.7 263,-283.7"/>
<polygon fill="none" stroke="#000000" points="263,-283.7 263,-312.7 609,-312.7 609,-283.7 263,-283.7"/>
<text text-anchor="start" x="268" y="-290.8" font-family="Helvetica,sans-Serif" font-weight="bold" font-size="16.00" fill="#000000">business_partner_notes</text>
<text text-anchor="start" x="560.4272" y="-293.3" font-family="Helvetica,sans-Serif" font-size="16.00" fill="#000000">[table]</text>
<polygon fill="none" stroke="#000000" points="263,-258.7 263,-283.7 480,-283.7 480,-258.7 263,-258.7"/>
<image xlink:href="../../images/primaryKeys.png" width="11px" height="12px" preserveAspectRatio="xMinYMin meet" x="268" y="-277.2"/>
<text text-anchor="start" x="283" y="-262.8" font-family="Helvetica,sans-Serif" font-size="16.00" fill="#000000">id</text>
<polygon fill="none" stroke="#000000" points="480,-258.7 480,-283.7 609,-283.7 609,-258.7 480,-258.7"/>
<text text-anchor="start" x="482.688" y="-266.3" font-family="Helvetica,sans-Serif" font-size="16.00" fill="#000000">text[2000000000]</text>
<polygon fill="none" stroke="#000000" points="263,-233.7 263,-258.7 480,-258.7 480,-233.7 263,-233.7"/>
<text text-anchor="start" x="283" y="-237.8" font-family="Helvetica,sans-Serif" font-size="16.00" fill="#000000">note</text>
<polygon fill="none" stroke="#000000" points="480,-233.7 480,-258.7 609,-258.7 609,-233.7 480,-233.7"/>
<text text-anchor="start" x="482.688" y="-241.3" font-family="Helvetica,sans-Serif" font-size="16.00" fill="#000000">text[2000000000]</text>
<polygon fill="#ffffff" stroke="transparent" points="263,-208.7 263,-233.7 480,-233.7 480,-208.7 263,-208.7"/>
<polygon fill="none" stroke="#000000" points="263,-208.7 263,-233.7 480,-233.7 480,-208.7 263,-208.7"/>
<image xlink:href="../../images/foreignKeys.png" width="11px" height="12px" preserveAspectRatio="xMinYMin meet" x="268" y="-227.2"/>
<text text-anchor="start" x="283" y="-212.8" font-family="Helvetica,sans-Serif" font-size="16.00" fill="#000000">business_partner_id</text>
<polygon fill="none" stroke="#000000" points="480,-208.7 480,-233.7 609,-233.7 609,-208.7 480,-208.7"/>
<text text-anchor="start" x="482.688" y="-216.3" font-family="Helvetica,sans-Serif" font-size="16.00" fill="#000000">text[2000000000]</text>
<polygon fill="#ffffff" stroke="transparent" points="263,-183.7 263,-208.7 480,-208.7 480,-183.7 263,-183.7"/>
<polygon fill="none" stroke="#000000" points="263,-183.7 263,-208.7 480,-208.7 480,-183.7 263,-183.7"/>
<text text-anchor="start" x="283" y="-187.8" font-family="Helvetica,sans-Serif" font-size="16.00" fill="#000000">inserted_at</text>
<polygon fill="none" stroke="#000000" points="480,-183.7 480,-208.7 609,-208.7 609,-183.7 480,-183.7"/>
<text text-anchor="start" x="482.688" y="-191.3" font-family="Helvetica,sans-Serif" font-size="16.00" fill="#000000">text[2000000000]</text>
<polygon fill="#ffffff" stroke="transparent" points="263,-158.7 263,-183.7 480,-183.7 480,-158.7 263,-158.7"/>
<polygon fill="none" stroke="#000000" points="263,-158.7 263,-183.7 480,-183.7 480,-158.7 263,-158.7"/>
<text text-anchor="start" x="283" y="-162.8" font-family="Helvetica,sans-Serif" font-size="16.00" fill="#000000">updated_at</text>
<polygon fill="none" stroke="#000000" points="480,-158.7 480,-183.7 609,-183.7 609,-158.7 480,-158.7"/>
<text text-anchor="start" x="482.688" y="-166.3" font-family="Helvetica,sans-Serif" font-size="16.00" fill="#000000">text[2000000000]</text>
<polygon fill="#ffffff" stroke="transparent" points="263,-133.7 263,-158.7 359,-158.7 359,-133.7 263,-133.7"/>
<polygon fill="none" stroke="#000000" points="263,-133.7 263,-158.7 359,-158.7 359,-133.7 263,-133.7"/>
<text text-anchor="start" x="266" y="-141.3" font-family="Helvetica,sans-Serif" font-size="16.00" fill="#000000">&lt; 1</text>
<polygon fill="#ffffff" stroke="transparent" points="359,-133.7 359,-158.7 480,-158.7 480,-133.7 359,-133.7"/>
<polygon fill="none" stroke="#000000" points="359,-133.7 359,-158.7 480,-158.7 480,-133.7 359,-133.7"/>
<text text-anchor="start" x="429.888" y="-141.3" font-family="Helvetica,sans-Serif" font-size="16.00" fill="#000000">0 rows</text>
<polygon fill="#ffffff" stroke="transparent" points="480,-133.7 480,-158.7 609,-158.7 609,-133.7 480,-133.7"/>
<polygon fill="none" stroke="#000000" points="480,-133.7 480,-158.7 609,-158.7 609,-133.7 480,-133.7"/>
<text text-anchor="start" x="583.3168" y="-141.3" font-family="Helvetica,sans-Serif" font-size="16.00" fill="#000000">0 &gt;</text>
<polygon fill="none" stroke="#000000" stroke-width="2" points="262,-133.2 262,-314.2 610,-314.2 610,-133.2 262,-133.2"/>
</a>
</g>
</g>
<!-- business_partners -->
<g id="node2" class="node">
<title>business_partners</title>
<g id="a_node2"><a xlink:href="../../tables/business_partners.html" xlink:title="business_partners" target="_top">
<polygon fill="#ffffff" stroke="transparent" points="8,-50.2 8,-261.2 212,-261.2 212,-50.2 8,-50.2"/>
<polygon fill="#f5f5f5" stroke="transparent" points="8,-231.7 8,-260.7 212,-260.7 212,-231.7 8,-231.7"/>
<polygon fill="none" stroke="#000000" points="8,-231.7 8,-260.7 212,-260.7 212,-231.7 8,-231.7"/>
<text text-anchor="start" x="13" y="-238.8" font-family="Helvetica,sans-Serif" font-weight="bold" font-size="16.00" fill="#000000">business_partners</text>
<text text-anchor="start" x="163.7136" y="-241.3" font-family="Helvetica,sans-Serif" font-size="16.00" fill="#000000">[table]</text>
<polygon fill="none" stroke="#000000" points="8,-209.7 8,-231.7 212,-231.7 212,-209.7 8,-209.7"/>
<image xlink:href="../../images/primaryKeys.png" width="11px" height="12px" preserveAspectRatio="xMinYMin meet" x="13" y="-226.7"/>
<text text-anchor="start" x="44" y="-212.3" font-family="Helvetica,sans-Serif" font-size="16.00" fill="#000000">id</text>
<polygon fill="#ffffff" stroke="transparent" points="8,-187.7 8,-209.7 212,-209.7 212,-187.7 8,-187.7"/>
<polygon fill="none" stroke="#000000" points="8,-187.7 8,-209.7 212,-209.7 212,-187.7 8,-187.7"/>
<text text-anchor="start" x="44" y="-190.3" font-family="Helvetica,sans-Serif" font-size="16.00" fill="#000000">name</text>
<polygon fill="#ffffff" stroke="transparent" points="8,-165.7 8,-187.7 212,-187.7 212,-165.7 8,-165.7"/>
<polygon fill="none" stroke="#000000" points="8,-165.7 8,-187.7 212,-187.7 212,-165.7 8,-165.7"/>
<text text-anchor="start" x="44" y="-168.3" font-family="Helvetica,sans-Serif" font-size="16.00" fill="#000000">customer</text>
<polygon fill="#ffffff" stroke="transparent" points="8,-143.7 8,-165.7 212,-165.7 212,-143.7 8,-143.7"/>
<polygon fill="none" stroke="#000000" points="8,-143.7 8,-165.7 212,-165.7 212,-143.7 8,-143.7"/>
<text text-anchor="start" x="44" y="-146.3" font-family="Helvetica,sans-Serif" font-size="16.00" fill="#000000">supplier</text>
<polygon fill="#ffffff" stroke="transparent" points="8,-121.7 8,-143.7 212,-143.7 212,-121.7 8,-121.7"/>
<polygon fill="none" stroke="#000000" points="8,-121.7 8,-143.7 212,-143.7 212,-121.7 8,-121.7"/>
<text text-anchor="start" x="44" y="-124.3" font-family="Helvetica,sans-Serif" font-size="16.00" fill="#000000">frozen</text>
<polygon fill="#ffffff" stroke="transparent" points="8,-99.7 8,-121.7 212,-121.7 212,-99.7 8,-99.7"/>
<polygon fill="none" stroke="#000000" points="8,-99.7 8,-121.7 212,-121.7 212,-99.7 8,-99.7"/>
<text text-anchor="start" x="44" y="-102.3" font-family="Helvetica,sans-Serif" font-size="16.00" fill="#000000">active</text>
<polygon fill="none" stroke="#000000" points="8,-74.7 8,-99.7 212,-99.7 212,-74.7 8,-74.7"/>
<text text-anchor="start" x="11" y="-82.3" font-family="Helvetica,sans-Serif" font-size="16.00" fill="#000000">...</text>
<polygon fill="#ffffff" stroke="transparent" points="8,-49.7 8,-74.7 76,-74.7 76,-49.7 8,-49.7"/>
<polygon fill="none" stroke="#000000" points="8,-49.7 8,-74.7 76,-74.7 76,-49.7 8,-49.7"/>
<text text-anchor="start" x="11" y="-57.3" font-family="Helvetica,sans-Serif" font-size="16.00" fill="#000000"> &#160;</text>
<polygon fill="#ffffff" stroke="transparent" points="76,-49.7 76,-74.7 156,-74.7 156,-49.7 76,-49.7"/>
<polygon fill="none" stroke="#000000" points="76,-49.7 76,-74.7 156,-74.7 156,-49.7 76,-49.7"/>
<text text-anchor="start" x="105.888" y="-57.3" font-family="Helvetica,sans-Serif" font-size="16.00" fill="#000000">0 rows</text>
<polygon fill="#ffffff" stroke="transparent" points="156,-49.7 156,-74.7 212,-74.7 212,-49.7 156,-49.7"/>
<polygon fill="none" stroke="#000000" points="156,-49.7 156,-74.7 212,-74.7 212,-49.7 156,-49.7"/>
<text text-anchor="start" x="186.3168" y="-57.3" font-family="Helvetica,sans-Serif" font-size="16.00" fill="#000000">3 &gt;</text>
</a>
</g>
</g>
<!-- business_partner_notes&#45;&gt;business_partners -->
<g id="edge1" class="edge">
<title>business_partner_notes:w&#45;&gt;business_partners:e</title>
<path fill="none" stroke="#000000" d="M248.276,-220.7C236.2815,-220.7 228.8229,-220.7 212,-220.7"/>
<polygon fill="#000000" stroke="#000000" points="255,-220.7001 263,-224.3 259,-220.7 263,-220.7 263,-220.7 263,-220.7 259,-220.7 263,-217.1 255,-220.7001 255,-220.7001"/>
<ellipse fill="none" stroke="#000000" cx="251.8" cy="-220.7001" rx="3.2" ry="3.2"/>
</g>
</g>
</svg>
