<?xml version="1.0" encoding="UTF-8" standalone="no"?>
<!DOCTYPE svg PUBLIC "-//W3C//DTD SVG 1.1//EN"
 "http://www.w3.org/Graphics/SVG/1.1/DTD/svg11.dtd">
<!-- Generated by graphviz version 2.40.1 (20161225.0304)
 -->
<!-- Title: twoDegreesRelationshipsDiagram Pages: 1 -->
<svg width="1061pt" height="555pt"
 viewBox="0.00 0.00 1061.00 554.70" xmlns="http://www.w3.org/2000/svg" xmlns:xlink="http://www.w3.org/1999/xlink">
<g id="graph0" class="graph" transform="scale(1 1) rotate(0) translate(4 550.7)">
<title>twoDegreesRelationshipsDiagram</title>
<polygon fill="#ffffff" stroke="transparent" points="-4,4 -4,-550.7 1057,-550.7 1057,4 -4,4"/>
<text text-anchor="middle" x="101.8088" y="-8.8" font-family="Helvetica,sans-Serif" font-size="16.00" fill="#000000">Generated by SchemaSpy</text>
<!-- business_partner_notes -->
<g id="node1" class="node">
<title>business_partner_notes</title>
<g id="a_node1"><a xlink:href="../../tables/business_partner_notes.html" xlink:title="business_partner_notes" target="_top">
<polygon fill="#ffffff" stroke="transparent" points="385,-375.7 385,-542.7 634,-542.7 634,-375.7 385,-375.7"/>
<polygon fill="#f5f5f5" stroke="transparent" points="385.5,-513.2 385.5,-542.2 634.5,-542.2 634.5,-513.2 385.5,-513.2"/>
<polygon fill="none" stroke="#000000" points="385.5,-513.2 385.5,-542.2 634.5,-542.2 634.5,-513.2 385.5,-513.2"/>
<text text-anchor="start" x="390.5" y="-520.3" font-family="Helvetica,sans-Serif" font-weight="bold" font-size="16.00" fill="#000000">business_partner_notes</text>
<text text-anchor="start" x="586.2136" y="-522.8" font-family="Helvetica,sans-Serif" font-size="16.00" fill="#000000">[table]</text>
<polygon fill="none" stroke="#000000" points="385.5,-491.2 385.5,-513.2 634.5,-513.2 634.5,-491.2 385.5,-491.2"/>
<image xlink:href="../../images/primaryKeys.png" width="11px" height="12px" preserveAspectRatio="xMinYMin meet" x="390.5" y="-508.2"/>
<text text-anchor="start" x="421.5" y="-493.8" font-family="Helvetica,sans-Serif" font-size="16.00" fill="#000000">id</text>
<polygon fill="#ffffff" stroke="transparent" points="385.5,-469.2 385.5,-491.2 634.5,-491.2 634.5,-469.2 385.5,-469.2"/>
<polygon fill="none" stroke="#000000" points="385.5,-469.2 385.5,-491.2 634.5,-491.2 634.5,-469.2 385.5,-469.2"/>
<image xlink:href="../../images/foreignKeys.png" width="11px" height="12px" preserveAspectRatio="xMinYMin meet" x="390.5" y="-486.2"/>
<text text-anchor="start" x="421.5" y="-471.8" font-family="Helvetica,sans-Serif" font-size="16.00" fill="#000000">business_partner_id</text>
<polygon fill="#ffffff" stroke="transparent" points="385.5,-447.2 385.5,-469.2 634.5,-469.2 634.5,-447.2 385.5,-447.2"/>
<polygon fill="none" stroke="#000000" points="385.5,-447.2 385.5,-469.2 634.5,-469.2 634.5,-447.2 385.5,-447.2"/>
<text text-anchor="start" x="421.5" y="-449.8" font-family="Helvetica,sans-Serif" font-size="16.00" fill="#000000">inserted_at</text>
<polygon fill="#ffffff" stroke="transparent" points="385.5,-425.2 385.5,-447.2 634.5,-447.2 634.5,-425.2 385.5,-425.2"/>
<polygon fill="none" stroke="#000000" points="385.5,-425.2 385.5,-447.2 634.5,-447.2 634.5,-425.2 385.5,-425.2"/>
<text text-anchor="start" x="421.5" y="-427.8" font-family="Helvetica,sans-Serif" font-size="16.00" fill="#000000">updated_at</text>
<polygon fill="none" stroke="#000000" points="385.5,-400.2 385.5,-425.2 634.5,-425.2 634.5,-400.2 385.5,-400.2"/>
<text text-anchor="start" x="388.5" y="-407.8" font-family="Helvetica,sans-Serif" font-size="16.00" fill="#000000">...</text>
<polygon fill="#ffffff" stroke="transparent" points="385.5,-375.2 385.5,-400.2 490.5,-400.2 490.5,-375.2 385.5,-375.2"/>
<polygon fill="none" stroke="#000000" points="385.5,-375.2 385.5,-400.2 490.5,-400.2 490.5,-375.2 385.5,-375.2"/>
<text text-anchor="start" x="388.5" y="-382.8" font-family="Helvetica,sans-Serif" font-size="16.00" fill="#000000">&lt; 1</text>
<polygon fill="#ffffff" stroke="transparent" points="490.5,-375.2 490.5,-400.2 581.5,-400.2 581.5,-375.2 490.5,-375.2"/>
<polygon fill="none" stroke="#000000" points="490.5,-375.2 490.5,-400.2 581.5,-400.2 581.5,-375.2 490.5,-375.2"/>
<text text-anchor="start" x="531.388" y="-382.8" font-family="Helvetica,sans-Serif" font-size="16.00" fill="#000000">0 rows</text>
<polygon fill="#ffffff" stroke="transparent" points="581.5,-375.2 581.5,-400.2 634.5,-400.2 634.5,-375.2 581.5,-375.2"/>
<polygon fill="none" stroke="#000000" points="581.5,-375.2 581.5,-400.2 634.5,-400.2 634.5,-375.2 581.5,-375.2"/>
<text text-anchor="start" x="622.6072" y="-382.8" font-family="Helvetica,sans-Serif" font-size="16.00" fill="#000000"> &#160;</text>
</a>
</g>
</g>
<!-- business_partners -->
<g id="node2" class="node">
<title>business_partners</title>
<g id="a_node2"><a xlink:href="../../tables/business_partners.html" xlink:title="business_partners" target="_top">
<polygon fill="#ffffff" stroke="transparent" points="8,-50.2 8,-358.2 336,-358.2 336,-50.2 8,-50.2"/>
<polygon fill="#f5f5f5" stroke="transparent" points="10,-327.2 10,-356.2 334,-356.2 334,-327.2 10,-327.2"/>
<polygon fill="none" stroke="#000000" points="10,-327.2 10,-356.2 334,-356.2 334,-327.2 10,-327.2"/>
<text text-anchor="start" x="15" y="-334.3" font-family="Helvetica,sans-Serif" font-weight="bold" font-size="16.00" fill="#000000">business_partners</text>
<text text-anchor="start" x="285.4272" y="-336.8" font-family="Helvetica,sans-Serif" font-size="16.00" fill="#000000">[table]</text>
<polygon fill="none" stroke="#000000" points="10,-302.2 10,-327.2 182,-327.2 182,-302.2 10,-302.2"/>
<image xlink:href="../../images/primaryKeys.png" width="11px" height="12px" preserveAspectRatio="xMinYMin meet" x="15" y="-320.7"/>
<text text-anchor="start" x="30" y="-306.3" font-family="Helvetica,sans-Serif" font-size="16.00" fill="#000000">id</text>
<polygon fill="none" stroke="#000000" points="182,-302.2 182,-327.2 334,-327.2 334,-302.2 182,-302.2"/>
<text text-anchor="start" x="185" y="-309.8" font-family="Helvetica,sans-Serif" font-size="16.00" fill="#000000">text[2000000000]</text>
<polygon fill="#ffffff" stroke="transparent" points="10,-277.2 10,-302.2 182,-302.2 182,-277.2 10,-277.2"/>
<polygon fill="none" stroke="#000000" points="10,-277.2 10,-302.2 182,-302.2 182,-277.2 10,-277.2"/>
<text text-anchor="start" x="30" y="-281.3" font-family="Helvetica,sans-Serif" font-size="16.00" fill="#000000">name</text>
<polygon fill="none" stroke="#000000" points="182,-277.2 182,-302.2 334,-302.2 334,-277.2 182,-277.2"/>
<text text-anchor="start" x="185" y="-284.8" font-family="Helvetica,sans-Serif" font-size="16.00" fill="#000000">text[2000000000]</text>
<polygon fill="none" stroke="#000000" points="10,-252.2 10,-277.2 182,-277.2 182,-252.2 10,-252.2"/>
<text text-anchor="start" x="30" y="-256.3" font-family="Helvetica,sans-Serif" font-size="16.00" fill="#000000">description</text>
<polygon fill="none" stroke="#000000" points="182,-252.2 182,-277.2 334,-277.2 334,-252.2 182,-252.2"/>
<text text-anchor="start" x="185" y="-259.8" font-family="Helvetica,sans-Serif" font-size="16.00" fill="#000000">text[2000000000]</text>
<polygon fill="none" stroke="#000000" points="10,-227.2 10,-252.2 182,-252.2 182,-227.2 10,-227.2"/>
<text text-anchor="start" x="30" y="-231.3" font-family="Helvetica,sans-Serif" font-size="16.00" fill="#000000">default_currency</text>
<polygon fill="none" stroke="#000000" points="182,-227.2 182,-252.2 334,-252.2 334,-227.2 182,-227.2"/>
<text text-anchor="start" x="185" y="-234.8" font-family="Helvetica,sans-Serif" font-size="16.00" fill="#000000">text[2000000000]</text>
<polygon fill="#ffffff" stroke="transparent" points="10,-202.2 10,-227.2 182,-227.2 182,-202.2 10,-202.2"/>
<polygon fill="none" stroke="#000000" points="10,-202.2 10,-227.2 182,-227.2 182,-202.2 10,-202.2"/>
<text text-anchor="start" x="30" y="-206.3" font-family="Helvetica,sans-Serif" font-size="16.00" fill="#000000">customer</text>
<polygon fill="none" stroke="#000000" points="182,-202.2 182,-227.2 334,-227.2 334,-202.2 182,-202.2"/>
<text text-anchor="start" x="184.6312" y="-209.8" font-family="Helvetica,sans-Serif" font-size="16.00" fill="#000000">integer[2000000000]</text>
<polygon fill="#ffffff" stroke="transparent" points="10,-177.2 10,-202.2 182,-202.2 182,-177.2 10,-177.2"/>
<polygon fill="none" stroke="#000000" points="10,-177.2 10,-202.2 182,-202.2 182,-177.2 10,-177.2"/>
<text text-anchor="start" x="30" y="-181.3" font-family="Helvetica,sans-Serif" font-size="16.00" fill="#000000">supplier</text>
<polygon fill="none" stroke="#000000" points="182,-177.2 182,-202.2 334,-202.2 334,-177.2 182,-177.2"/>
<text text-anchor="start" x="184.6312" y="-184.8" font-family="Helvetica,sans-Serif" font-size="16.00" fill="#000000">integer[2000000000]</text>
<polygon fill="#ffffff" stroke="transparent" points="10,-152.2 10,-177.2 182,-177.2 182,-152.2 10,-152.2"/>
<polygon fill="none" stroke="#000000" points="10,-152.2 10,-177.2 182,-177.2 182,-152.2 10,-152.2"/>
<text text-anchor="start" x="30" y="-156.3" font-family="Helvetica,sans-Serif" font-size="16.00" fill="#000000">frozen</text>
<polygon fill="none" stroke="#000000" points="182,-152.2 182,-177.2 334,-177.2 334,-152.2 182,-152.2"/>
<text text-anchor="start" x="184.6312" y="-159.8" font-family="Helvetica,sans-Serif" font-size="16.00" fill="#000000">integer[2000000000]</text>
<polygon fill="#ffffff" stroke="transparent" points="10,-127.2 10,-152.2 182,-152.2 182,-127.2 10,-127.2"/>
<polygon fill="none" stroke="#000000" points="10,-127.2 10,-152.2 182,-152.2 182,-127.2 10,-127.2"/>
<text text-anchor="start" x="30" y="-131.3" font-family="Helvetica,sans-Serif" font-size="16.00" fill="#000000">active</text>
<polygon fill="none" stroke="#000000" points="182,-127.2 182,-152.2 334,-152.2 334,-127.2 182,-127.2"/>
<text text-anchor="start" x="184.6312" y="-134.8" font-family="Helvetica,sans-Serif" font-size="16.00" fill="#000000">integer[2000000000]</text>
<polygon fill="none" stroke="#000000" points="10,-102.2 10,-127.2 182,-127.2 182,-102.2 10,-102.2"/>
<text text-anchor="start" x="30" y="-106.3" font-family="Helvetica,sans-Serif" font-size="16.00" fill="#000000">inserted_at</text>
<polygon fill="none" stroke="#000000" points="182,-102.2 182,-127.2 334,-127.2 334,-102.2 182,-102.2"/>
<text text-anchor="start" x="185" y="-109.8" font-family="Helvetica,sans-Serif" font-size="16.00" fill="#000000">text[2000000000]</text>
<polygon fill="none" stroke="#000000" points="10,-77.2 10,-102.2 182,-102.2 182,-77.2 10,-77.2"/>
<text text-anchor="start" x="30" y="-81.3" font-family="Helvetica,sans-Serif" font-size="16.00" fill="#000000">updated_at</text>
<polygon fill="none" stroke="#000000" points="182,-77.2 182,-102.2 334,-102.2 334,-77.2 182,-77.2"/>
<text text-anchor="start" x="185" y="-84.8" font-family="Helvetica,sans-Serif" font-size="16.00" fill="#000000">text[2000000000]</text>
<polygon fill="#ffffff" stroke="transparent" points="10,-52.2 10,-77.2 83,-77.2 83,-52.2 10,-52.2"/>
<polygon fill="none" stroke="#000000" points="10,-52.2 10,-77.2 83,-77.2 83,-52.2 10,-52.2"/>
<text text-anchor="start" x="13" y="-59.8" font-family="Helvetica,sans-Serif" font-size="16.00" fill="#000000">&lt; 0</text>
<polygon fill="#ffffff" stroke="transparent" points="83,-52.2 83,-77.2 182,-77.2 182,-52.2 83,-52.2"/>
<polygon fill="none" stroke="#000000" points="83,-52.2 83,-77.2 182,-77.2 182,-52.2 83,-52.2"/>
<text text-anchor="start" x="131.888" y="-59.8" font-family="Helvetica,sans-Serif" font-size="16.00" fill="#000000">4 rows</text>
<polygon fill="#ffffff" stroke="transparent" points="182,-52.2 182,-77.2 334,-77.2 334,-52.2 182,-52.2"/>
<polygon fill="none" stroke="#000000" points="182,-52.2 182,-77.2 334,-77.2 334,-52.2 182,-52.2"/>
<text text-anchor="start" x="308.3168" y="-59.8" font-family="Helvetica,sans-Serif" font-size="16.00" fill="#000000">3 &gt;</text>
<polygon fill="none" stroke="#000000" stroke-width="2" points="9,-51.2 9,-357.2 335,-357.2 335,-51.2 9,-51.2"/>
</a>
</g>
</g>
<!-- business_partner_notes&#45;&gt;business_partners -->
<g id="edge1" class="edge">
<title>business_partner_notes:w&#45;&gt;business_partners:e</title>
<path fill="none" stroke="#000000" d="M371.2062,-477.6082C322.8539,-456.6167 405.1207,-315.2 334,-315.2"/>
<polygon fill="#000000" stroke="#000000" points="377.6284,-478.7727 384.8577,-483.7422 381.5642,-479.4863 385.5,-480.2 385.5,-480.2 385.5,-480.2 381.5642,-479.4863 386.1423,-476.6578 377.6284,-478.7727 377.6284,-478.7727"/>
<ellipse fill="none" stroke="#000000" cx="374.4797" cy="-478.2017" rx="3.2" ry="3.2"/>
</g>
<!-- project_notes -->
<g id="node3" class="node">
<title>project_notes</title>
<g id="a_node3"><a xlink:href="../../tables/project_notes.html" xlink:title="project_notes" target="_top">
<polygon fill="#ffffff" stroke="transparent" points="683,-378.7 683,-457.7 847,-457.7 847,-378.7 683,-378.7"/>
<polygon fill="#f5f5f5" stroke="transparent" points="683,-428.2 683,-457.2 847,-457.2 847,-428.2 683,-428.2"/>
<polygon fill="none" stroke="#000000" points="683,-428.2 683,-457.2 847,-457.2 847,-428.2 683,-428.2"/>
<text text-anchor="start" x="688" y="-435.3" font-family="Helvetica,sans-Serif" font-weight="bold" font-size="16.00" fill="#000000">project_notes</text>
<text text-anchor="start" x="798.7136" y="-437.8" font-family="Helvetica,sans-Serif" font-size="16.00" fill="#000000">[table]</text>
<polygon fill="none" stroke="#000000" points="683,-403.2 683,-428.2 847,-428.2 847,-403.2 683,-403.2"/>
<text text-anchor="start" x="686" y="-410.8" font-family="Helvetica,sans-Serif" font-size="16.00" fill="#000000">...</text>
<polygon fill="#ffffff" stroke="transparent" points="683,-378.2 683,-403.2 745,-403.2 745,-378.2 683,-378.2"/>
<polygon fill="none" stroke="#000000" points="683,-378.2 683,-403.2 745,-403.2 745,-378.2 683,-378.2"/>
<text text-anchor="start" x="686" y="-385.8" font-family="Helvetica,sans-Serif" font-size="16.00" fill="#000000">&lt; 1</text>
<polygon fill="#ffffff" stroke="transparent" points="745,-378.2 745,-403.2 815,-403.2 815,-378.2 745,-378.2"/>
<polygon fill="none" stroke="#000000" points="745,-378.2 745,-403.2 815,-403.2 815,-378.2 745,-378.2"/>
<text text-anchor="start" x="764.888" y="-385.8" font-family="Helvetica,sans-Serif" font-size="16.00" fill="#000000">0 rows</text>
<polygon fill="#ffffff" stroke="transparent" points="815,-378.2 815,-403.2 847,-403.2 847,-378.2 815,-378.2"/>
<polygon fill="none" stroke="#000000" points="815,-378.2 815,-403.2 847,-403.2 847,-378.2 815,-378.2"/>
<text text-anchor="start" x="835.1072" y="-385.8" font-family="Helvetica,sans-Serif" font-size="16.00" fill="#000000"> &#160;</text>
</a>
</g>
</g>
<!-- projects -->
<g id="node4" class="node">
<title>projects</title>
<g id="a_node4"><a xlink:href="../../tables/projects.html" xlink:title="projects" target="_top">
<polygon fill="#ffffff" stroke="transparent" points="450,-275.7 450,-354.7 569,-354.7 569,-275.7 450,-275.7"/>
<polygon fill="#f5f5f5" stroke="transparent" points="450.5,-325.2 450.5,-354.2 569.5,-354.2 569.5,-325.2 450.5,-325.2"/>
<polygon fill="none" stroke="#000000" points="450.5,-325.2 450.5,-354.2 569.5,-354.2 569.5,-325.2 450.5,-325.2"/>
<text text-anchor="start" x="455.5" y="-332.3" font-family="Helvetica,sans-Serif" font-weight="bold" font-size="16.00" fill="#000000">projects</text>
<text text-anchor="start" x="521.2136" y="-334.8" font-family="Helvetica,sans-Serif" font-size="16.00" fill="#000000">[table]</text>
<polygon fill="none" stroke="#000000" points="450.5,-300.2 450.5,-325.2 569.5,-325.2 569.5,-300.2 450.5,-300.2"/>
<text text-anchor="start" x="453.5" y="-307.8" font-family="Helvetica,sans-Serif" font-size="16.00" fill="#000000">...</text>
<polygon fill="#ffffff" stroke="transparent" points="450.5,-275.2 450.5,-300.2 483.5,-300.2 483.5,-275.2 450.5,-275.2"/>
<polygon fill="none" stroke="#000000" points="450.5,-275.2 450.5,-300.2 483.5,-300.2 483.5,-275.2 450.5,-275.2"/>
<text text-anchor="start" x="453.5" y="-282.8" font-family="Helvetica,sans-Serif" font-size="16.00" fill="#000000">&lt; 1</text>
<polygon fill="#ffffff" stroke="transparent" points="483.5,-275.2 483.5,-300.2 538.5,-300.2 538.5,-275.2 483.5,-275.2"/>
<polygon fill="none" stroke="#000000" points="483.5,-275.2 483.5,-300.2 538.5,-300.2 538.5,-275.2 483.5,-275.2"/>
<text text-anchor="start" x="488.388" y="-282.8" font-family="Helvetica,sans-Serif" font-size="16.00" fill="#000000">5 rows</text>
<polygon fill="#ffffff" stroke="transparent" points="538.5,-275.2 538.5,-300.2 569.5,-300.2 569.5,-275.2 538.5,-275.2"/>
<polygon fill="none" stroke="#000000" points="538.5,-275.2 538.5,-300.2 569.5,-300.2 569.5,-275.2 538.5,-275.2"/>
<text text-anchor="start" x="543.8168" y="-282.8" font-family="Helvetica,sans-Serif" font-size="16.00" fill="#000000">3 &gt;</text>
</a>
</g>
</g>
<!-- project_notes&#45;&gt;projects -->
<g id="edge2" class="edge">
<title>project_notes:w&#45;&gt;projects:e</title>
<path fill="none" stroke="#000000" d="M669.0804,-410.948C657.4647,-401.4441 660.2414,-378.2891 642,-365.2 622.7229,-351.3677 599.1516,-340.859 577.2625,-333.1337"/>
<polygon fill="#000000" stroke="#000000" points="675.349,-412.8628 681.9483,-418.643 679.1745,-414.0314 683,-415.2 683,-415.2 683,-415.2 679.1745,-414.0314 684.0517,-411.757 675.349,-412.8628 675.349,-412.8628"/>
<ellipse fill="none" stroke="#000000" cx="672.2886" cy="-411.928" rx="3.2" ry="3.2"/>
</g>
<!-- projects&#45;&gt;business_partners -->
<g id="edge4" class="edge">
<title>projects:w&#45;&gt;business_partners:e</title>
<path fill="none" stroke="#000000" d="M427.4383,-315.2C397.9731,-315.2 364.4961,-315.2 334,-315.2"/>
<polygon fill="#000000" stroke="#000000" points="433.9954,-315.2001 441.9954,-318.8 437.9954,-315.2 441.9954,-315.2 441.9954,-315.2 441.9954,-315.2 437.9954,-315.2 441.9954,-311.6 433.9954,-315.2001 433.9954,-315.2001"/>
<ellipse fill="none" stroke="#000000" cx="430.7954" cy="-315.2001" rx="3.2" ry="3.2"/>
</g>
<!-- project_tags -->
<g id="node5" class="node">
<title>project_tags</title>
<g id="a_node5"><a xlink:href="../../tables/project_tags.html" xlink:title="project_tags" target="_top">
<polygon fill="#ffffff" stroke="transparent" points="688,-278.7 688,-357.7 842,-357.7 842,-278.7 688,-278.7"/>
<polygon fill="#f5f5f5" stroke="transparent" points="688,-328.2 688,-357.2 842,-357.2 842,-328.2 688,-328.2"/>
<polygon fill="none" stroke="#000000" points="688,-328.2 688,-357.2 842,-357.2 842,-328.2 688,-328.2"/>
<text text-anchor="start" x="693" y="-335.3" font-family="Helvetica,sans-Serif" font-weight="bold" font-size="16.00" fill="#000000">project_tags</text>
<text text-anchor="start" x="793.7136" y="-337.8" font-family="Helvetica,sans-Serif" font-size="16.00" fill="#000000">[table]</text>
<polygon fill="none" stroke="#000000" points="688,-303.2 688,-328.2 842,-328.2 842,-303.2 688,-303.2"/>
<text text-anchor="start" x="691" y="-310.8" font-family="Helvetica,sans-Serif" font-size="16.00" fill="#000000">...</text>
<polygon fill="#ffffff" stroke="transparent" points="688,-278.2 688,-303.2 745,-303.2 745,-278.2 688,-278.2"/>
<polygon fill="none" stroke="#000000" points="688,-278.2 688,-303.2 745,-303.2 745,-278.2 688,-278.2"/>
<text text-anchor="start" x="691" y="-285.8" font-family="Helvetica,sans-Serif" font-size="16.00" fill="#000000">&lt; 2</text>
<polygon fill="#ffffff" stroke="transparent" points="745,-278.2 745,-303.2 813,-303.2 813,-278.2 745,-278.2"/>
<polygon fill="none" stroke="#000000" points="745,-278.2 745,-303.2 813,-303.2 813,-278.2 745,-278.2"/>
<text text-anchor="start" x="762.888" y="-285.8" font-family="Helvetica,sans-Serif" font-size="16.00" fill="#000000">0 rows</text>
<polygon fill="#ffffff" stroke="transparent" points="813,-278.2 813,-303.2 842,-303.2 842,-278.2 813,-278.2"/>
<polygon fill="none" stroke="#000000" points="813,-278.2 813,-303.2 842,-303.2 842,-278.2 813,-278.2"/>
<text text-anchor="start" x="830.1072" y="-285.8" font-family="Helvetica,sans-Serif" font-size="16.00" fill="#000000"> &#160;</text>
</a>
</g>
</g>
<!-- project_tags&#45;&gt;projects -->
<g id="edge3" class="edge">
<title>project_tags:w&#45;&gt;projects:e</title>
<path fill="none" stroke="#000000" d="M673.2344,-315.2C640.7309,-315.2 606.2226,-315.2 577.3093,-315.2"/>
<polygon fill="#000000" stroke="#000000" points="680,-315.2001 688,-318.8 684,-315.2 688,-315.2 688,-315.2 688,-315.2 684,-315.2 688,-311.6 680,-315.2001 680,-315.2001"/>
<ellipse fill="none" stroke="#000000" cx="676.8" cy="-315.2001" rx="3.2" ry="3.2"/>
</g>
<!-- timer_notes -->
<g id="node6" class="node">
<title>timer_notes</title>
<g id="a_node6"><a xlink:href="../../tables/timer_notes.html" xlink:title="timer_notes" target="_top">
<polygon fill="#ffffff" stroke="transparent" points="896,-231.7 896,-310.7 1045,-310.7 1045,-231.7 896,-231.7"/>
<polygon fill="#f5f5f5" stroke="transparent" points="896.5,-281.2 896.5,-310.2 1045.5,-310.2 1045.5,-281.2 896.5,-281.2"/>
<polygon fill="none" stroke="#000000" points="896.5,-281.2 896.5,-310.2 1045.5,-310.2 1045.5,-281.2 896.5,-281.2"/>
<text text-anchor="start" x="901.5" y="-288.3" font-family="Helvetica,sans-Serif" font-weight="bold" font-size="16.00" fill="#000000">timer_notes</text>
<text text-anchor="start" x="997.2136" y="-290.8" font-family="Helvetica,sans-Serif" font-size="16.00" fill="#000000">[table]</text>
<polygon fill="none" stroke="#000000" points="896.5,-256.2 896.5,-281.2 1045.5,-281.2 1045.5,-256.2 896.5,-256.2"/>
<text text-anchor="start" x="899.5" y="-263.8" font-family="Helvetica,sans-Serif" font-size="16.00" fill="#000000">...</text>
<polygon fill="#ffffff" stroke="transparent" points="896.5,-231.2 896.5,-256.2 946.5,-256.2 946.5,-231.2 896.5,-231.2"/>
<polygon fill="none" stroke="#000000" points="896.5,-231.2 896.5,-256.2 946.5,-256.2 946.5,-231.2 896.5,-231.2"/>
<text text-anchor="start" x="899.5" y="-238.8" font-family="Helvetica,sans-Serif" font-size="16.00" fill="#000000">&lt; 1</text>
<polygon fill="#ffffff" stroke="transparent" points="946.5,-231.2 946.5,-256.2 1019.5,-256.2 1019.5,-231.2 946.5,-231.2"/>
<polygon fill="none" stroke="#000000" points="946.5,-231.2 946.5,-256.2 1019.5,-256.2 1019.5,-231.2 946.5,-231.2"/>
<text text-anchor="start" x="960.4936" y="-238.8" font-family="Helvetica,sans-Serif" font-size="16.00" fill="#000000">29 rows</text>
<polygon fill="#ffffff" stroke="transparent" points="1019.5,-231.2 1019.5,-256.2 1045.5,-256.2 1045.5,-231.2 1019.5,-231.2"/>
<polygon fill="none" stroke="#000000" points="1019.5,-231.2 1019.5,-256.2 1045.5,-256.2 1045.5,-231.2 1019.5,-231.2"/>
<text text-anchor="start" x="1033.6072" y="-238.8" font-family="Helvetica,sans-Serif" font-size="16.00" fill="#000000"> &#160;</text>
</a>
</g>
</g>
<!-- timers -->
<g id="node7" class="node">
<title>timers</title>
<g id="a_node7"><a xlink:href="../../tables/timers.html" xlink:title="timers" target="_top">
<polygon fill="#ffffff" stroke="transparent" points="706,-178.7 706,-257.7 824,-257.7 824,-178.7 706,-178.7"/>
<polygon fill="#f5f5f5" stroke="transparent" points="706,-228.2 706,-257.2 824,-257.2 824,-228.2 706,-228.2"/>
<polygon fill="none" stroke="#000000" points="706,-228.2 706,-257.2 824,-257.2 824,-228.2 706,-228.2"/>
<text text-anchor="start" x="711" y="-235.3" font-family="Helvetica,sans-Serif" font-weight="bold" font-size="16.00" fill="#000000">timers</text>
<text text-anchor="start" x="775.4272" y="-237.8" font-family="Helvetica,sans-Serif" font-size="16.00" fill="#000000">[table]</text>
<polygon fill="none" stroke="#000000" points="706,-203.2 706,-228.2 824,-228.2 824,-203.2 706,-203.2"/>
<text text-anchor="start" x="709" y="-210.8" font-family="Helvetica,sans-Serif" font-size="16.00" fill="#000000">...</text>
<polygon fill="#ffffff" stroke="transparent" points="706,-178.2 706,-203.2 734,-203.2 734,-178.2 706,-178.2"/>
<polygon fill="none" stroke="#000000" points="706,-178.2 706,-203.2 734,-203.2 734,-178.2 706,-178.2"/>
<text text-anchor="start" x="708.6584" y="-185.8" font-family="Helvetica,sans-Serif" font-size="16.00" fill="#000000">&lt; 3</text>
<polygon fill="#ffffff" stroke="transparent" points="734,-178.2 734,-203.2 796,-203.2 796,-178.2 734,-178.2"/>
<polygon fill="none" stroke="#000000" points="734,-178.2 734,-203.2 796,-203.2 796,-178.2 734,-178.2"/>
<text text-anchor="start" x="736.9968" y="-185.8" font-family="Helvetica,sans-Serif" font-size="16.00" fill="#000000">65 rows</text>
<polygon fill="#ffffff" stroke="transparent" points="796,-178.2 796,-203.2 824,-203.2 824,-178.2 796,-178.2"/>
<polygon fill="none" stroke="#000000" points="796,-178.2 796,-203.2 824,-203.2 824,-178.2 796,-178.2"/>
<text text-anchor="start" x="798.6584" y="-185.8" font-family="Helvetica,sans-Serif" font-size="16.00" fill="#000000">2 &gt;</text>
</a>
</g>
</g>
<!-- timer_notes&#45;&gt;timers -->
<g id="edge5" class="edge">
<title>timer_notes:w&#45;&gt;timers:e</title>
<path fill="none" stroke="#000000" d="M881.8989,-267.3476C864.8536,-265.4176 847.7639,-260.4012 832.1182,-254.2722"/>
<polygon fill="#000000" stroke="#000000" points="888.5136,-267.7337 896.2902,-271.7939 892.5068,-267.9669 896.5,-268.2 896.5,-268.2 896.5,-268.2 892.5068,-267.9669 896.7098,-264.6061 888.5136,-267.7337 888.5136,-267.7337"/>
<ellipse fill="none" stroke="#000000" cx="885.319" cy="-267.5472" rx="3.2" ry="3.2"/>
</g>
<!-- timers&#45;&gt;business_partners -->
<g id="edge8" class="edge">
<title>timers:w&#45;&gt;business_partners:e</title>
<path fill="none" stroke="#000000" d="M683.0729,-231.4159C669.3742,-233.4647 655.2966,-235.4716 642,-237.2 583.2774,-244.8333 429.4455,-237.7029 377,-265.2 351.0417,-278.8099 363.3098,-315.2 334,-315.2"/>
<polygon fill="#000000" stroke="#000000" points="689.8248,-230.3897 698.2749,-232.7466 693.7794,-229.7886 697.7339,-229.1875 697.7339,-229.1875 697.7339,-229.1875 693.7794,-229.7886 697.193,-225.6284 689.8248,-230.3897 689.8248,-230.3897"/>
<ellipse fill="none" stroke="#000000" cx="686.6611" cy="-230.8706" rx="3.2" ry="3.2"/>
</g>
<!-- timers&#45;&gt;projects -->
<g id="edge9" class="edge">
<title>timers:w&#45;&gt;projects:e</title>
<path fill="none" stroke="#000000" d="M683.9727,-248.9618C649.5494,-262.0306 609.8768,-277.0922 577.0684,-289.5478"/>
<polygon fill="#000000" stroke="#000000" points="690.3912,-246.5251 699.1481,-247.0512 694.1308,-245.1053 697.8704,-243.6856 697.8704,-243.6856 697.8704,-243.6856 694.1308,-245.1053 696.5926,-240.32 690.3912,-246.5251 690.3912,-246.5251"/>
<ellipse fill="none" stroke="#000000" cx="687.3996" cy="-247.6609" rx="3.2" ry="3.2"/>
</g>
<!-- activity_types -->
<g id="node9" class="node">
<title>activity_types</title>
<g id="a_node9"><a xlink:href="../../tables/activity_types.html" xlink:title="activity_types" target="_top">
<polygon fill="#ffffff" stroke="transparent" points="427,-147.7 427,-226.7 592,-226.7 592,-147.7 427,-147.7"/>
<polygon fill="#f5f5f5" stroke="transparent" points="427.5,-197.2 427.5,-226.2 592.5,-226.2 592.5,-197.2 427.5,-197.2"/>
<polygon fill="none" stroke="#000000" points="427.5,-197.2 427.5,-226.2 592.5,-226.2 592.5,-197.2 427.5,-197.2"/>
<text text-anchor="start" x="432.5" y="-204.3" font-family="Helvetica,sans-Serif" font-weight="bold" font-size="16.00" fill="#000000">activity_types</text>
<text text-anchor="start" x="544.2136" y="-206.8" font-family="Helvetica,sans-Serif" font-size="16.00" fill="#000000">[table]</text>
<polygon fill="none" stroke="#000000" points="427.5,-172.2 427.5,-197.2 592.5,-197.2 592.5,-172.2 427.5,-172.2"/>
<text text-anchor="start" x="430.5" y="-179.8" font-family="Helvetica,sans-Serif" font-size="16.00" fill="#000000">...</text>
<polygon fill="#ffffff" stroke="transparent" points="427.5,-147.2 427.5,-172.2 476.5,-172.2 476.5,-147.2 427.5,-147.2"/>
<polygon fill="none" stroke="#000000" points="427.5,-147.2 427.5,-172.2 476.5,-172.2 476.5,-147.2 427.5,-147.2"/>
<text text-anchor="start" x="430.5" y="-154.8" font-family="Helvetica,sans-Serif" font-size="16.00" fill="#000000"> &#160;</text>
<polygon fill="#ffffff" stroke="transparent" points="476.5,-147.2 476.5,-172.2 546.5,-172.2 546.5,-147.2 476.5,-147.2"/>
<polygon fill="none" stroke="#000000" points="476.5,-147.2 476.5,-172.2 546.5,-172.2 546.5,-147.2 476.5,-147.2"/>
<text text-anchor="start" x="496.388" y="-154.8" font-family="Helvetica,sans-Serif" font-size="16.00" fill="#000000">5 rows</text>
<polygon fill="#ffffff" stroke="transparent" points="546.5,-147.2 546.5,-172.2 592.5,-172.2 592.5,-147.2 546.5,-147.2"/>
<polygon fill="none" stroke="#000000" points="546.5,-147.2 546.5,-172.2 592.5,-172.2 592.5,-147.2 546.5,-147.2"/>
<text text-anchor="start" x="566.8168" y="-154.8" font-family="Helvetica,sans-Serif" font-size="16.00" fill="#000000">1 &gt;</text>
</a>
</g>
</g>
<!-- timers&#45;&gt;activity_types -->
<g id="edge7" class="edge">
<title>timers:w&#45;&gt;activity_types:e</title>
<path fill="none" stroke="#000000" d="M683.4971,-195.4043C654.9534,-189.2211 622.5293,-184.2 592.5,-184.2"/>
<polygon fill="#000000" stroke="#000000" points="689.8018,-196.8412 696.8018,-202.129 693.7018,-197.7301 697.6018,-198.6191 697.6018,-198.6191 697.6018,-198.6191 693.7018,-197.7301 698.4018,-195.1091 689.8018,-196.8412 689.8018,-196.8412"/>
<ellipse fill="none" stroke="#000000" cx="686.6819" cy="-196.1301" rx="3.2" ry="3.2"/>
</g>
<!-- timer_tags -->
<g id="node8" class="node">
<title>timer_tags</title>
<g id="a_node8"><a xlink:href="../../tables/timer_tags.html" xlink:title="timer_tags" target="_top">
<polygon fill="#ffffff" stroke="transparent" points="901.5,-131.7 901.5,-210.7 1039.5,-210.7 1039.5,-131.7 901.5,-131.7"/>
<polygon fill="#f5f5f5" stroke="transparent" points="901.5,-181.2 901.5,-210.2 1039.5,-210.2 1039.5,-181.2 901.5,-181.2"/>
<polygon fill="none" stroke="#000000" points="901.5,-181.2 901.5,-210.2 1039.5,-210.2 1039.5,-181.2 901.5,-181.2"/>
<text text-anchor="start" x="906.5" y="-188.3" font-family="Helvetica,sans-Serif" font-weight="bold" font-size="16.00" fill="#000000">timer_tags</text>
<text text-anchor="start" x="991.2136" y="-190.8" font-family="Helvetica,sans-Serif" font-size="16.00" fill="#000000">[table]</text>
<polygon fill="none" stroke="#000000" points="901.5,-156.2 901.5,-181.2 1039.5,-181.2 1039.5,-156.2 901.5,-156.2"/>
<text text-anchor="start" x="904.5" y="-163.8" font-family="Helvetica,sans-Serif" font-size="16.00" fill="#000000">...</text>
<polygon fill="#ffffff" stroke="transparent" points="901.5,-131.2 901.5,-156.2 950.5,-156.2 950.5,-131.2 901.5,-131.2"/>
<polygon fill="none" stroke="#000000" points="901.5,-131.2 901.5,-156.2 950.5,-156.2 950.5,-131.2 901.5,-131.2"/>
<text text-anchor="start" x="904.5" y="-138.8" font-family="Helvetica,sans-Serif" font-size="16.00" fill="#000000">&lt; 2</text>
<polygon fill="#ffffff" stroke="transparent" points="950.5,-131.2 950.5,-156.2 1014.5,-156.2 1014.5,-131.2 950.5,-131.2"/>
<polygon fill="none" stroke="#000000" points="950.5,-131.2 950.5,-156.2 1014.5,-156.2 1014.5,-131.2 950.5,-131.2"/>
<text text-anchor="start" x="964.388" y="-138.8" font-family="Helvetica,sans-Serif" font-size="16.00" fill="#000000">2 rows</text>
<polygon fill="#ffffff" stroke="transparent" points="1014.5,-131.2 1014.5,-156.2 1039.5,-156.2 1039.5,-131.2 1014.5,-131.2"/>
<polygon fill="none" stroke="#000000" points="1014.5,-131.2 1014.5,-156.2 1039.5,-156.2 1039.5,-131.2 1014.5,-131.2"/>
<text text-anchor="start" x="1027.6072" y="-138.8" font-family="Helvetica,sans-Serif" font-size="16.00" fill="#000000"> &#160;</text>
</a>
</g>
</g>
<!-- timer_tags&#45;&gt;timers -->
<g id="edge6" class="edge">
<title>timer_tags:w&#45;&gt;timers:e</title>
<path fill="none" stroke="#000000" d="M886.9115,-168.9975C868.2145,-170.9806 849.4058,-176.4542 832.3478,-183.0663"/>
<polygon fill="#000000" stroke="#000000" points="893.5119,-168.6367 901.6965,-171.7946 897.506,-168.4184 901.5,-168.2 901.5,-168.2 901.5,-168.2 897.506,-168.4184 901.3035,-164.6054 893.5119,-168.6367 893.5119,-168.6367"/>
<ellipse fill="none" stroke="#000000" cx="890.3167" cy="-168.8114" rx="3.2" ry="3.2"/>
</g>
</g>
</svg>
