<?xml version="1.0" encoding="UTF-8" standalone="no"?>
<!DOCTYPE svg PUBLIC "-//W3C//DTD SVG 1.1//EN"
 "http://www.w3.org/Graphics/SVG/1.1/DTD/svg11.dtd">
<!-- Generated by graphviz version 2.40.1 (20161225.0304)
 -->
<!-- Title: twoDegreesRelationshipsDiagram Pages: 1 -->
<svg width="794pt" height="440pt"
 viewBox="0.00 0.00 794.00 440.20" xmlns="http://www.w3.org/2000/svg" xmlns:xlink="http://www.w3.org/1999/xlink">
<g id="graph0" class="graph" transform="scale(1 1) rotate(0) translate(4 436.2)">
<title>twoDegreesRelationshipsDiagram</title>
<polygon fill="#ffffff" stroke="transparent" points="-4,4 -4,-436.2 790,-436.2 790,4 -4,4"/>
<text text-anchor="middle" x="101.8088" y="-8.8" font-family="Helvetica,sans-Serif" font-size="16.00" fill="#000000">Generated by SchemaSpy</text>
<!-- business_partner_notes -->
<g id="node1" class="node">
<title>business_partner_notes</title>
<g id="a_node1"><a xlink:href="../../tables/business_partner_notes.html" xlink:title="business_partner_notes" target="_top">
<polygon fill="#ffffff" stroke="transparent" points="261,-245.2 261,-428.2 611,-428.2 611,-245.2 261,-245.2"/>
<polygon fill="#f5f5f5" stroke="transparent" points="263,-396.7 263,-425.7 609,-425.7 609,-396.7 263,-396.7"/>
<polygon fill="none" stroke="#000000" points="263,-396.7 263,-425.7 609,-425.7 609,-396.7 263,-396.7"/>
<text text-anchor="start" x="268" y="-403.8" font-family="Helvetica,sans-Serif" font-weight="bold" font-size="16.00" fill="#000000">business_partner_notes</text>
<text text-anchor="start" x="560.4272" y="-406.3" font-family="Helvetica,sans-Serif" font-size="16.00" fill="#000000">[table]</text>
<polygon fill="none" stroke="#000000" points="263,-371.7 263,-396.7 480,-396.7 480,-371.7 263,-371.7"/>
<image xlink:href="../../images/primaryKeys.png" width="11px" height="12px" preserveAspectRatio="xMinYMin meet" x="268" y="-390.2"/>
<text text-anchor="start" x="283" y="-375.8" font-family="Helvetica,sans-Serif" font-size="16.00" fill="#000000">id</text>
<polygon fill="none" stroke="#000000" points="480,-371.7 480,-396.7 609,-396.7 609,-371.7 480,-371.7"/>
<text text-anchor="start" x="482.688" y="-379.3" font-family="Helvetica,sans-Serif" font-size="16.00" fill="#000000">text[2000000000]</text>
<polygon fill="none" stroke="#000000" points="263,-346.7 263,-371.7 480,-371.7 480,-346.7 263,-346.7"/>
<text text-anchor="start" x="283" y="-350.8" font-family="Helvetica,sans-Serif" font-size="16.00" fill="#000000">note</text>
<polygon fill="none" stroke="#000000" points="480,-346.7 480,-371.7 609,-371.7 609,-346.7 480,-346.7"/>
<text text-anchor="start" x="482.688" y="-354.3" font-family="Helvetica,sans-Serif" font-size="16.00" fill="#000000">text[2000000000]</text>
<polygon fill="#ffffff" stroke="transparent" points="263,-321.7 263,-346.7 480,-346.7 480,-321.7 263,-321.7"/>
<polygon fill="none" stroke="#000000" points="263,-321.7 263,-346.7 480,-346.7 480,-321.7 263,-321.7"/>
<image xlink:href="../../images/foreignKeys.png" width="11px" height="12px" preserveAspectRatio="xMinYMin meet" x="268" y="-340.2"/>
<text text-anchor="start" x="283" y="-325.8" font-family="Helvetica,sans-Serif" font-size="16.00" fill="#000000">business_partner_id</text>
<polygon fill="none" stroke="#000000" points="480,-321.7 480,-346.7 609,-346.7 609,-321.7 480,-321.7"/>
<text text-anchor="start" x="482.688" y="-329.3" font-family="Helvetica,sans-Serif" font-size="16.00" fill="#000000">text[2000000000]</text>
<polygon fill="#ffffff" stroke="transparent" points="263,-296.7 263,-321.7 480,-321.7 480,-296.7 263,-296.7"/>
<polygon fill="none" stroke="#000000" points="263,-296.7 263,-321.7 480,-321.7 480,-296.7 263,-296.7"/>
<text text-anchor="start" x="283" y="-300.8" font-family="Helvetica,sans-Serif" font-size="16.00" fill="#000000">inserted_at</text>
<polygon fill="none" stroke="#000000" points="480,-296.7 480,-321.7 609,-321.7 609,-296.7 480,-296.7"/>
<text text-anchor="start" x="482.688" y="-304.3" font-family="Helvetica,sans-Serif" font-size="16.00" fill="#000000">text[2000000000]</text>
<polygon fill="#ffffff" stroke="transparent" points="263,-271.7 263,-296.7 480,-296.7 480,-271.7 263,-271.7"/>
<polygon fill="none" stroke="#000000" points="263,-271.7 263,-296.7 480,-296.7 480,-271.7 263,-271.7"/>
<text text-anchor="start" x="283" y="-275.8" font-family="Helvetica,sans-Serif" font-size="16.00" fill="#000000">updated_at</text>
<polygon fill="none" stroke="#000000" points="480,-271.7 480,-296.7 609,-296.7 609,-271.7 480,-271.7"/>
<text text-anchor="start" x="482.688" y="-279.3" font-family="Helvetica,sans-Serif" font-size="16.00" fill="#000000">text[2000000000]</text>
<polygon fill="#ffffff" stroke="transparent" points="263,-246.7 263,-271.7 359,-271.7 359,-246.7 263,-246.7"/>
<polygon fill="none" stroke="#000000" points="263,-246.7 263,-271.7 359,-271.7 359,-246.7 263,-246.7"/>
<text text-anchor="start" x="266" y="-254.3" font-family="Helvetica,sans-Serif" font-size="16.00" fill="#000000">&lt; 1</text>
<polygon fill="#ffffff" stroke="transparent" points="359,-246.7 359,-271.7 480,-271.7 480,-246.7 359,-246.7"/>
<polygon fill="none" stroke="#000000" points="359,-246.7 359,-271.7 480,-271.7 480,-246.7 359,-246.7"/>
<text text-anchor="start" x="429.888" y="-254.3" font-family="Helvetica,sans-Serif" font-size="16.00" fill="#000000">0 rows</text>
<polygon fill="#ffffff" stroke="transparent" points="480,-246.7 480,-271.7 609,-271.7 609,-246.7 480,-246.7"/>
<polygon fill="none" stroke="#000000" points="480,-246.7 480,-271.7 609,-271.7 609,-246.7 480,-246.7"/>
<text text-anchor="start" x="583.3168" y="-254.3" font-family="Helvetica,sans-Serif" font-size="16.00" fill="#000000">0 &gt;</text>
<polygon fill="none" stroke="#000000" stroke-width="2" points="262,-246.2 262,-427.2 610,-427.2 610,-246.2 262,-246.2"/>
</a>
</g>
</g>
<!-- business_partners -->
<g id="node2" class="node">
<title>business_partners</title>
<g id="a_node2"><a xlink:href="../../tables/business_partners.html" xlink:title="business_partners" target="_top">
<polygon fill="#ffffff" stroke="transparent" points="8,-50.2 8,-261.2 212,-261.2 212,-50.2 8,-50.2"/>
<polygon fill="#f5f5f5" stroke="transparent" points="8,-231.7 8,-260.7 212,-260.7 212,-231.7 8,-231.7"/>
<polygon fill="none" stroke="#000000" points="8,-231.7 8,-260.7 212,-260.7 212,-231.7 8,-231.7"/>
<text text-anchor="start" x="13" y="-238.8" font-family="Helvetica,sans-Serif" font-weight="bold" font-size="16.00" fill="#000000">business_partners</text>
<text text-anchor="start" x="163.7136" y="-241.3" font-family="Helvetica,sans-Serif" font-size="16.00" fill="#000000">[table]</text>
<polygon fill="none" stroke="#000000" points="8,-209.7 8,-231.7 212,-231.7 212,-209.7 8,-209.7"/>
<image xlink:href="../../images/primaryKeys.png" width="11px" height="12px" preserveAspectRatio="xMinYMin meet" x="13" y="-226.7"/>
<text text-anchor="start" x="44" y="-212.3" font-family="Helvetica,sans-Serif" font-size="16.00" fill="#000000">id</text>
<polygon fill="#ffffff" stroke="transparent" points="8,-187.7 8,-209.7 212,-209.7 212,-187.7 8,-187.7"/>
<polygon fill="none" stroke="#000000" points="8,-187.7 8,-209.7 212,-209.7 212,-187.7 8,-187.7"/>
<text text-anchor="start" x="44" y="-190.3" font-family="Helvetica,sans-Serif" font-size="16.00" fill="#000000">name</text>
<polygon fill="#ffffff" stroke="transparent" points="8,-165.7 8,-187.7 212,-187.7 212,-165.7 8,-165.7"/>
<polygon fill="none" stroke="#000000" points="8,-165.7 8,-187.7 212,-187.7 212,-165.7 8,-165.7"/>
<text text-anchor="start" x="44" y="-168.3" font-family="Helvetica,sans-Serif" font-size="16.00" fill="#000000">customer</text>
<polygon fill="#ffffff" stroke="transparent" points="8,-143.7 8,-165.7 212,-165.7 212,-143.7 8,-143.7"/>
<polygon fill="none" stroke="#000000" points="8,-143.7 8,-165.7 212,-165.7 212,-143.7 8,-143.7"/>
<text text-anchor="start" x="44" y="-146.3" font-family="Helvetica,sans-Serif" font-size="16.00" fill="#000000">supplier</text>
<polygon fill="#ffffff" stroke="transparent" points="8,-121.7 8,-143.7 212,-143.7 212,-121.7 8,-121.7"/>
<polygon fill="none" stroke="#000000" points="8,-121.7 8,-143.7 212,-143.7 212,-121.7 8,-121.7"/>
<text text-anchor="start" x="44" y="-124.3" font-family="Helvetica,sans-Serif" font-size="16.00" fill="#000000">frozen</text>
<polygon fill="#ffffff" stroke="transparent" points="8,-99.7 8,-121.7 212,-121.7 212,-99.7 8,-99.7"/>
<polygon fill="none" stroke="#000000" points="8,-99.7 8,-121.7 212,-121.7 212,-99.7 8,-99.7"/>
<text text-anchor="start" x="44" y="-102.3" font-family="Helvetica,sans-Serif" font-size="16.00" fill="#000000">active</text>
<polygon fill="none" stroke="#000000" points="8,-74.7 8,-99.7 212,-99.7 212,-74.7 8,-74.7"/>
<text text-anchor="start" x="11" y="-82.3" font-family="Helvetica,sans-Serif" font-size="16.00" fill="#000000">...</text>
<polygon fill="#ffffff" stroke="transparent" points="8,-49.7 8,-74.7 76,-74.7 76,-49.7 8,-49.7"/>
<polygon fill="none" stroke="#000000" points="8,-49.7 8,-74.7 76,-74.7 76,-49.7 8,-49.7"/>
<text text-anchor="start" x="11" y="-57.3" font-family="Helvetica,sans-Serif" font-size="16.00" fill="#000000"> &#160;</text>
<polygon fill="#ffffff" stroke="transparent" points="76,-49.7 76,-74.7 156,-74.7 156,-49.7 76,-49.7"/>
<polygon fill="none" stroke="#000000" points="76,-49.7 76,-74.7 156,-74.7 156,-49.7 76,-49.7"/>
<text text-anchor="start" x="105.888" y="-57.3" font-family="Helvetica,sans-Serif" font-size="16.00" fill="#000000">4 rows</text>
<polygon fill="#ffffff" stroke="transparent" points="156,-49.7 156,-74.7 212,-74.7 212,-49.7 156,-49.7"/>
<polygon fill="none" stroke="#000000" points="156,-49.7 156,-74.7 212,-74.7 212,-49.7 156,-49.7"/>
<text text-anchor="start" x="186.3168" y="-57.3" font-family="Helvetica,sans-Serif" font-size="16.00" fill="#000000">3 &gt;</text>
</a>
</g>
</g>
<!-- business_partner_notes&#45;&gt;business_partners -->
<g id="edge1" class="edge">
<title>business_partner_notes:w&#45;&gt;business_partners:e</title>
<path fill="none" stroke="#000000" d="M248.7232,-329.9403C219.4824,-310.3331 261.0738,-220.7 212,-220.7"/>
<polygon fill="#000000" stroke="#000000" points="255.2638,-331.6627 262.0832,-337.1813 259.1319,-332.6813 263,-333.7 263,-333.7 263,-333.7 259.1319,-332.6813 263.9168,-330.2187 255.2638,-331.6627 255.2638,-331.6627"/>
<ellipse fill="none" stroke="#000000" cx="252.1693" cy="-330.8477" rx="3.2" ry="3.2"/>
</g>
<!-- projects -->
<g id="node3" class="node">
<title>projects</title>
<g id="a_node3"><a xlink:href="../../tables/projects.html" xlink:title="projects" target="_top">
<polygon fill="#ffffff" stroke="transparent" points="376.5,-117.2 376.5,-196.2 495.5,-196.2 495.5,-117.2 376.5,-117.2"/>
<polygon fill="#f5f5f5" stroke="transparent" points="377,-166.7 377,-195.7 496,-195.7 496,-166.7 377,-166.7"/>
<polygon fill="none" stroke="#000000" points="377,-166.7 377,-195.7 496,-195.7 496,-166.7 377,-166.7"/>
<text text-anchor="start" x="382" y="-173.8" font-family="Helvetica,sans-Serif" font-weight="bold" font-size="16.00" fill="#000000">projects</text>
<text text-anchor="start" x="447.7136" y="-176.3" font-family="Helvetica,sans-Serif" font-size="16.00" fill="#000000">[table]</text>
<polygon fill="none" stroke="#000000" points="377,-141.7 377,-166.7 496,-166.7 496,-141.7 377,-141.7"/>
<text text-anchor="start" x="380" y="-149.3" font-family="Helvetica,sans-Serif" font-size="16.00" fill="#000000">...</text>
<polygon fill="#ffffff" stroke="transparent" points="377,-116.7 377,-141.7 410,-141.7 410,-116.7 377,-116.7"/>
<polygon fill="none" stroke="#000000" points="377,-116.7 377,-141.7 410,-141.7 410,-116.7 377,-116.7"/>
<text text-anchor="start" x="380" y="-124.3" font-family="Helvetica,sans-Serif" font-size="16.00" fill="#000000">&lt; 1</text>
<polygon fill="#ffffff" stroke="transparent" points="410,-116.7 410,-141.7 465,-141.7 465,-116.7 410,-116.7"/>
<polygon fill="none" stroke="#000000" points="410,-116.7 410,-141.7 465,-141.7 465,-116.7 410,-116.7"/>
<text text-anchor="start" x="414.888" y="-124.3" font-family="Helvetica,sans-Serif" font-size="16.00" fill="#000000">5 rows</text>
<polygon fill="#ffffff" stroke="transparent" points="465,-116.7 465,-141.7 496,-141.7 496,-116.7 465,-116.7"/>
<polygon fill="none" stroke="#000000" points="465,-116.7 465,-141.7 496,-141.7 496,-116.7 465,-116.7"/>
<text text-anchor="start" x="470.3168" y="-124.3" font-family="Helvetica,sans-Serif" font-size="16.00" fill="#000000">3 &gt;</text>
</a>
</g>
</g>
<!-- projects&#45;&gt;business_partners -->
<g id="edge2" class="edge">
<title>projects:w&#45;&gt;business_partners:e</title>
<path fill="none" stroke="#000000" d="M362.7593,-155.8533C319.5151,-167.3214 247.3231,-220.7 212,-220.7"/>
<polygon fill="#000000" stroke="#000000" points="369.0899,-154.8961 377.5383,-157.2595 373.045,-154.2981 377,-153.7 377,-153.7 377,-153.7 373.045,-154.2981 376.4617,-150.1405 369.0899,-154.8961 369.0899,-154.8961"/>
<ellipse fill="none" stroke="#000000" cx="365.9259" cy="-155.3746" rx="3.2" ry="3.2"/>
</g>
<!-- timers -->
<g id="node4" class="node">
<title>timers</title>
<g id="a_node4"><a xlink:href="../../tables/timers.html" xlink:title="timers" target="_top">
<polygon fill="#ffffff" stroke="transparent" points="660,-150.2 660,-229.2 778,-229.2 778,-150.2 660,-150.2"/>
<polygon fill="#f5f5f5" stroke="transparent" points="660,-199.7 660,-228.7 778,-228.7 778,-199.7 660,-199.7"/>
<polygon fill="none" stroke="#000000" points="660,-199.7 660,-228.7 778,-228.7 778,-199.7 660,-199.7"/>
<text text-anchor="start" x="665" y="-206.8" font-family="Helvetica,sans-Serif" font-weight="bold" font-size="16.00" fill="#000000">timers</text>
<text text-anchor="start" x="729.4272" y="-209.3" font-family="Helvetica,sans-Serif" font-size="16.00" fill="#000000">[table]</text>
<polygon fill="none" stroke="#000000" points="660,-174.7 660,-199.7 778,-199.7 778,-174.7 660,-174.7"/>
<text text-anchor="start" x="663" y="-182.3" font-family="Helvetica,sans-Serif" font-size="16.00" fill="#000000">...</text>
<polygon fill="#ffffff" stroke="transparent" points="660,-149.7 660,-174.7 688,-174.7 688,-149.7 660,-149.7"/>
<polygon fill="none" stroke="#000000" points="660,-149.7 660,-174.7 688,-174.7 688,-149.7 660,-149.7"/>
<text text-anchor="start" x="662.6584" y="-157.3" font-family="Helvetica,sans-Serif" font-size="16.00" fill="#000000">&lt; 3</text>
<polygon fill="#ffffff" stroke="transparent" points="688,-149.7 688,-174.7 750,-174.7 750,-149.7 688,-149.7"/>
<polygon fill="none" stroke="#000000" points="688,-149.7 688,-174.7 750,-174.7 750,-149.7 688,-149.7"/>
<text text-anchor="start" x="690.9968" y="-157.3" font-family="Helvetica,sans-Serif" font-size="16.00" fill="#000000">65 rows</text>
<polygon fill="#ffffff" stroke="transparent" points="750,-149.7 750,-174.7 778,-174.7 778,-149.7 750,-149.7"/>
<polygon fill="none" stroke="#000000" points="750,-149.7 750,-174.7 778,-174.7 778,-149.7 750,-149.7"/>
<text text-anchor="start" x="752.6584" y="-157.3" font-family="Helvetica,sans-Serif" font-size="16.00" fill="#000000">2 &gt;</text>
</a>
</g>
</g>
<!-- timers&#45;&gt;business_partners -->
<g id="edge3" class="edge">
<title>timers:w&#45;&gt;business_partners:e</title>
<path fill="none" stroke="#000000" d="M645.7509,-190.1897C637.3557,-194.9545 632.6793,-203.2927 619,-206.7 443.3703,-250.4461 392.9959,-220.7 212,-220.7"/>
<polygon fill="#000000" stroke="#000000" points="652.2296,-188.6031 660.8564,-190.1967 656.1148,-187.6515 660,-186.7 660,-186.7 660,-186.7 656.1148,-187.6515 659.1436,-183.2033 652.2296,-188.6031 652.2296,-188.6031"/>
<ellipse fill="none" stroke="#000000" cx="649.1215" cy="-189.3643" rx="3.2" ry="3.2"/>
</g>
<!-- timers&#45;&gt;projects -->
<g id="edge4" class="edge">
<title>timers:w&#45;&gt;projects:e</title>
<path fill="none" stroke="#000000" d="M645.5426,-186.2585C583.2824,-182.3425 565.2673,-153.7 496,-153.7"/>
<polygon fill="#000000" stroke="#000000" points="652.0037,-186.4557 659.8901,-190.2983 656.0019,-186.5779 660,-186.7 660,-186.7 660,-186.7 656.0019,-186.5779 660.1099,-183.1017 652.0037,-186.4557 652.0037,-186.4557"/>
<ellipse fill="none" stroke="#000000" cx="648.8052" cy="-186.358" rx="3.2" ry="3.2"/>
</g>
</g>
</svg>
