<?xml version="1.0" encoding="UTF-8" standalone="no"?>
<!DOCTYPE svg PUBLIC "-//W3C//DTD SVG 1.1//EN"
 "http://www.w3.org/Graphics/SVG/1.1/DTD/svg11.dtd">
<!-- Generated by graphviz version 2.40.1 (20161225.0304)
 -->
<!-- Title: oneDegreeRelationshipsDiagram Pages: 1 -->
<svg width="967pt" height="555pt"
 viewBox="0.00 0.00 967.00 555.20" xmlns="http://www.w3.org/2000/svg" xmlns:xlink="http://www.w3.org/1999/xlink">
<g id="graph0" class="graph" transform="scale(1 1) rotate(0) translate(4 551.2)">
<title>oneDegreeRelationshipsDiagram</title>
<polygon fill="#ffffff" stroke="transparent" points="-4,4 -4,-551.2 963,-551.2 963,4 -4,4"/>
<text text-anchor="middle" x="101.8088" y="-8.8" font-family="Helvetica,sans-Serif" font-size="16.00" fill="#000000">Generated by SchemaSpy</text>
<!-- business_partner_notes -->
<g id="node1" class="node">
<title>business_partner_notes</title>
<g id="a_node1"><a xlink:href="../../tables/business_partner_notes.html" xlink:title="business_partner_notes" target="_top">
<polygon fill="#ffffff" stroke="transparent" points="402.5,-376.2 402.5,-543.2 651.5,-543.2 651.5,-376.2 402.5,-376.2"/>
<polygon fill="#f5f5f5" stroke="transparent" points="403,-513.7 403,-542.7 652,-542.7 652,-513.7 403,-513.7"/>
<polygon fill="none" stroke="#000000" points="403,-513.7 403,-542.7 652,-542.7 652,-513.7 403,-513.7"/>
<text text-anchor="start" x="408" y="-520.8" font-family="Helvetica,sans-Serif" font-weight="bold" font-size="16.00" fill="#000000">business_partner_notes</text>
<text text-anchor="start" x="603.7136" y="-523.3" font-family="Helvetica,sans-Serif" font-size="16.00" fill="#000000">[table]</text>
<polygon fill="none" stroke="#000000" points="403,-491.7 403,-513.7 652,-513.7 652,-491.7 403,-491.7"/>
<image xlink:href="../../images/primaryKeys.png" width="11px" height="12px" preserveAspectRatio="xMinYMin meet" x="408" y="-508.7"/>
<text text-anchor="start" x="439" y="-494.3" font-family="Helvetica,sans-Serif" font-size="16.00" fill="#000000">id</text>
<polygon fill="#ffffff" stroke="transparent" points="403,-469.7 403,-491.7 652,-491.7 652,-469.7 403,-469.7"/>
<polygon fill="none" stroke="#000000" points="403,-469.7 403,-491.7 652,-491.7 652,-469.7 403,-469.7"/>
<image xlink:href="../../images/foreignKeys.png" width="11px" height="12px" preserveAspectRatio="xMinYMin meet" x="408" y="-486.7"/>
<text text-anchor="start" x="439" y="-472.3" font-family="Helvetica,sans-Serif" font-size="16.00" fill="#000000">business_partner_id</text>
<polygon fill="#ffffff" stroke="transparent" points="403,-447.7 403,-469.7 652,-469.7 652,-447.7 403,-447.7"/>
<polygon fill="none" stroke="#000000" points="403,-447.7 403,-469.7 652,-469.7 652,-447.7 403,-447.7"/>
<text text-anchor="start" x="439" y="-450.3" font-family="Helvetica,sans-Serif" font-size="16.00" fill="#000000">inserted_at</text>
<polygon fill="#ffffff" stroke="transparent" points="403,-425.7 403,-447.7 652,-447.7 652,-425.7 403,-425.7"/>
<polygon fill="none" stroke="#000000" points="403,-425.7 403,-447.7 652,-447.7 652,-425.7 403,-425.7"/>
<text text-anchor="start" x="439" y="-428.3" font-family="Helvetica,sans-Serif" font-size="16.00" fill="#000000">updated_at</text>
<polygon fill="none" stroke="#000000" points="403,-400.7 403,-425.7 652,-425.7 652,-400.7 403,-400.7"/>
<text text-anchor="start" x="406" y="-408.3" font-family="Helvetica,sans-Serif" font-size="16.00" fill="#000000">...</text>
<polygon fill="#ffffff" stroke="transparent" points="403,-375.7 403,-400.7 508,-400.7 508,-375.7 403,-375.7"/>
<polygon fill="none" stroke="#000000" points="403,-375.7 403,-400.7 508,-400.7 508,-375.7 403,-375.7"/>
<text text-anchor="start" x="406" y="-383.3" font-family="Helvetica,sans-Serif" font-size="16.00" fill="#000000">&lt; 1</text>
<polygon fill="#ffffff" stroke="transparent" points="508,-375.7 508,-400.7 599,-400.7 599,-375.7 508,-375.7"/>
<polygon fill="none" stroke="#000000" points="508,-375.7 508,-400.7 599,-400.7 599,-375.7 508,-375.7"/>
<text text-anchor="start" x="548.888" y="-383.3" font-family="Helvetica,sans-Serif" font-size="16.00" fill="#000000">0 rows</text>
<polygon fill="#ffffff" stroke="transparent" points="599,-375.7 599,-400.7 652,-400.7 652,-375.7 599,-375.7"/>
<polygon fill="none" stroke="#000000" points="599,-375.7 599,-400.7 652,-400.7 652,-375.7 599,-375.7"/>
<text text-anchor="start" x="640.1072" y="-383.3" font-family="Helvetica,sans-Serif" font-size="16.00" fill="#000000"> &#160;</text>
</a>
</g>
</g>
<!-- business_partners -->
<g id="node2" class="node">
<title>business_partners</title>
<g id="a_node2"><a xlink:href="../../tables/business_partners.html" xlink:title="business_partners" target="_top">
<polygon fill="#ffffff" stroke="transparent" points="8,-86.7 8,-394.7 336,-394.7 336,-86.7 8,-86.7"/>
<polygon fill="#f5f5f5" stroke="transparent" points="10,-363.7 10,-392.7 334,-392.7 334,-363.7 10,-363.7"/>
<polygon fill="none" stroke="#000000" points="10,-363.7 10,-392.7 334,-392.7 334,-363.7 10,-363.7"/>
<text text-anchor="start" x="15" y="-370.8" font-family="Helvetica,sans-Serif" font-weight="bold" font-size="16.00" fill="#000000">business_partners</text>
<text text-anchor="start" x="285.4272" y="-373.3" font-family="Helvetica,sans-Serif" font-size="16.00" fill="#000000">[table]</text>
<polygon fill="none" stroke="#000000" points="10,-338.7 10,-363.7 182,-363.7 182,-338.7 10,-338.7"/>
<image xlink:href="../../images/primaryKeys.png" width="11px" height="12px" preserveAspectRatio="xMinYMin meet" x="15" y="-357.2"/>
<text text-anchor="start" x="30" y="-342.8" font-family="Helvetica,sans-Serif" font-size="16.00" fill="#000000">id</text>
<polygon fill="none" stroke="#000000" points="182,-338.7 182,-363.7 334,-363.7 334,-338.7 182,-338.7"/>
<text text-anchor="start" x="185" y="-346.3" font-family="Helvetica,sans-Serif" font-size="16.00" fill="#000000">text[2000000000]</text>
<polygon fill="#ffffff" stroke="transparent" points="10,-313.7 10,-338.7 182,-338.7 182,-313.7 10,-313.7"/>
<polygon fill="none" stroke="#000000" points="10,-313.7 10,-338.7 182,-338.7 182,-313.7 10,-313.7"/>
<text text-anchor="start" x="30" y="-317.8" font-family="Helvetica,sans-Serif" font-size="16.00" fill="#000000">name</text>
<polygon fill="none" stroke="#000000" points="182,-313.7 182,-338.7 334,-338.7 334,-313.7 182,-313.7"/>
<text text-anchor="start" x="185" y="-321.3" font-family="Helvetica,sans-Serif" font-size="16.00" fill="#000000">text[2000000000]</text>
<polygon fill="none" stroke="#000000" points="10,-288.7 10,-313.7 182,-313.7 182,-288.7 10,-288.7"/>
<text text-anchor="start" x="30" y="-292.8" font-family="Helvetica,sans-Serif" font-size="16.00" fill="#000000">description</text>
<polygon fill="none" stroke="#000000" points="182,-288.7 182,-313.7 334,-313.7 334,-288.7 182,-288.7"/>
<text text-anchor="start" x="185" y="-296.3" font-family="Helvetica,sans-Serif" font-size="16.00" fill="#000000">text[2000000000]</text>
<polygon fill="none" stroke="#000000" points="10,-263.7 10,-288.7 182,-288.7 182,-263.7 10,-263.7"/>
<text text-anchor="start" x="30" y="-267.8" font-family="Helvetica,sans-Serif" font-size="16.00" fill="#000000">default_currency</text>
<polygon fill="none" stroke="#000000" points="182,-263.7 182,-288.7 334,-288.7 334,-263.7 182,-263.7"/>
<text text-anchor="start" x="185" y="-271.3" font-family="Helvetica,sans-Serif" font-size="16.00" fill="#000000">text[2000000000]</text>
<polygon fill="#ffffff" stroke="transparent" points="10,-238.7 10,-263.7 182,-263.7 182,-238.7 10,-238.7"/>
<polygon fill="none" stroke="#000000" points="10,-238.7 10,-263.7 182,-263.7 182,-238.7 10,-238.7"/>
<text text-anchor="start" x="30" y="-242.8" font-family="Helvetica,sans-Serif" font-size="16.00" fill="#000000">customer</text>
<polygon fill="none" stroke="#000000" points="182,-238.7 182,-263.7 334,-263.7 334,-238.7 182,-238.7"/>
<text text-anchor="start" x="184.6312" y="-246.3" font-family="Helvetica,sans-Serif" font-size="16.00" fill="#000000">integer[2000000000]</text>
<polygon fill="#ffffff" stroke="transparent" points="10,-213.7 10,-238.7 182,-238.7 182,-213.7 10,-213.7"/>
<polygon fill="none" stroke="#000000" points="10,-213.7 10,-238.7 182,-238.7 182,-213.7 10,-213.7"/>
<text text-anchor="start" x="30" y="-217.8" font-family="Helvetica,sans-Serif" font-size="16.00" fill="#000000">supplier</text>
<polygon fill="none" stroke="#000000" points="182,-213.7 182,-238.7 334,-238.7 334,-213.7 182,-213.7"/>
<text text-anchor="start" x="184.6312" y="-221.3" font-family="Helvetica,sans-Serif" font-size="16.00" fill="#000000">integer[2000000000]</text>
<polygon fill="#ffffff" stroke="transparent" points="10,-188.7 10,-213.7 182,-213.7 182,-188.7 10,-188.7"/>
<polygon fill="none" stroke="#000000" points="10,-188.7 10,-213.7 182,-213.7 182,-188.7 10,-188.7"/>
<text text-anchor="start" x="30" y="-192.8" font-family="Helvetica,sans-Serif" font-size="16.00" fill="#000000">frozen</text>
<polygon fill="none" stroke="#000000" points="182,-188.7 182,-213.7 334,-213.7 334,-188.7 182,-188.7"/>
<text text-anchor="start" x="184.6312" y="-196.3" font-family="Helvetica,sans-Serif" font-size="16.00" fill="#000000">integer[2000000000]</text>
<polygon fill="#ffffff" stroke="transparent" points="10,-163.7 10,-188.7 182,-188.7 182,-163.7 10,-163.7"/>
<polygon fill="none" stroke="#000000" points="10,-163.7 10,-188.7 182,-188.7 182,-163.7 10,-163.7"/>
<text text-anchor="start" x="30" y="-167.8" font-family="Helvetica,sans-Serif" font-size="16.00" fill="#000000">active</text>
<polygon fill="none" stroke="#000000" points="182,-163.7 182,-188.7 334,-188.7 334,-163.7 182,-163.7"/>
<text text-anchor="start" x="184.6312" y="-171.3" font-family="Helvetica,sans-Serif" font-size="16.00" fill="#000000">integer[2000000000]</text>
<polygon fill="none" stroke="#000000" points="10,-138.7 10,-163.7 182,-163.7 182,-138.7 10,-138.7"/>
<text text-anchor="start" x="30" y="-142.8" font-family="Helvetica,sans-Serif" font-size="16.00" fill="#000000">inserted_at</text>
<polygon fill="none" stroke="#000000" points="182,-138.7 182,-163.7 334,-163.7 334,-138.7 182,-138.7"/>
<text text-anchor="start" x="185" y="-146.3" font-family="Helvetica,sans-Serif" font-size="16.00" fill="#000000">text[2000000000]</text>
<polygon fill="none" stroke="#000000" points="10,-113.7 10,-138.7 182,-138.7 182,-113.7 10,-113.7"/>
<text text-anchor="start" x="30" y="-117.8" font-family="Helvetica,sans-Serif" font-size="16.00" fill="#000000">updated_at</text>
<polygon fill="none" stroke="#000000" points="182,-113.7 182,-138.7 334,-138.7 334,-113.7 182,-113.7"/>
<text text-anchor="start" x="185" y="-121.3" font-family="Helvetica,sans-Serif" font-size="16.00" fill="#000000">text[2000000000]</text>
<polygon fill="#ffffff" stroke="transparent" points="10,-88.7 10,-113.7 83,-113.7 83,-88.7 10,-88.7"/>
<polygon fill="none" stroke="#000000" points="10,-88.7 10,-113.7 83,-113.7 83,-88.7 10,-88.7"/>
<text text-anchor="start" x="13" y="-96.3" font-family="Helvetica,sans-Serif" font-size="16.00" fill="#000000">&lt; 0</text>
<polygon fill="#ffffff" stroke="transparent" points="83,-88.7 83,-113.7 182,-113.7 182,-88.7 83,-88.7"/>
<polygon fill="none" stroke="#000000" points="83,-88.7 83,-113.7 182,-113.7 182,-88.7 83,-88.7"/>
<text text-anchor="start" x="131.888" y="-96.3" font-family="Helvetica,sans-Serif" font-size="16.00" fill="#000000">4 rows</text>
<polygon fill="#ffffff" stroke="transparent" points="182,-88.7 182,-113.7 334,-113.7 334,-88.7 182,-88.7"/>
<polygon fill="none" stroke="#000000" points="182,-88.7 182,-113.7 334,-113.7 334,-88.7 182,-88.7"/>
<text text-anchor="start" x="308.3168" y="-96.3" font-family="Helvetica,sans-Serif" font-size="16.00" fill="#000000">3 &gt;</text>
<polygon fill="none" stroke="#000000" stroke-width="2" points="9,-87.7 9,-393.7 335,-393.7 335,-87.7 9,-87.7"/>
</a>
</g>
</g>
<!-- business_partner_notes&#45;&gt;business_partners -->
<g id="edge1" class="edge">
<title>business_partner_notes:w&#45;&gt;business_partners:e</title>
<path fill="none" stroke="#000000" d="M388.6063,-477.8857C347.7361,-459.0207 393.305,-351.7 334,-351.7"/>
<polygon fill="#000000" stroke="#000000" points="395.1487,-479.1648 402.3092,-484.2331 399.0743,-479.9324 403,-480.7 403,-480.7 403,-480.7 399.0743,-479.9324 403.6908,-477.1669 395.1487,-479.1648 395.1487,-479.1648"/>
<ellipse fill="none" stroke="#000000" cx="392.0081" cy="-478.5508" rx="3.2" ry="3.2"/>
</g>
<!-- projects -->
<g id="node3" class="node">
<title>projects</title>
<g id="a_node3"><a xlink:href="../../tables/projects.html" xlink:title="projects" target="_top">
<polygon fill="#ffffff" stroke="transparent" points="385,-50.2 385,-327.2 669,-327.2 669,-50.2 385,-50.2"/>
<polygon fill="#f5f5f5" stroke="transparent" points="385,-297.7 385,-326.7 669,-326.7 669,-297.7 385,-297.7"/>
<polygon fill="none" stroke="#000000" points="385,-297.7 385,-326.7 669,-326.7 669,-297.7 385,-297.7"/>
<text text-anchor="start" x="390" y="-304.8" font-family="Helvetica,sans-Serif" font-weight="bold" font-size="16.00" fill="#000000">projects</text>
<text text-anchor="start" x="620.4272" y="-307.3" font-family="Helvetica,sans-Serif" font-size="16.00" fill="#000000">[table]</text>
<polygon fill="none" stroke="#000000" points="385,-275.7 385,-297.7 669,-297.7 669,-275.7 385,-275.7"/>
<image xlink:href="../../images/primaryKeys.png" width="11px" height="12px" preserveAspectRatio="xMinYMin meet" x="390" y="-292.7"/>
<text text-anchor="start" x="405" y="-278.3" font-family="Helvetica,sans-Serif" font-size="16.00" fill="#000000">id</text>
<polygon fill="#ffffff" stroke="transparent" points="385,-253.7 385,-275.7 669,-275.7 669,-253.7 385,-253.7"/>
<polygon fill="none" stroke="#000000" points="385,-253.7 385,-275.7 669,-275.7 669,-253.7 385,-253.7"/>
<text text-anchor="start" x="405" y="-256.3" font-family="Helvetica,sans-Serif" font-size="16.00" fill="#000000">name</text>
<polygon fill="#ffffff" stroke="transparent" points="385,-231.7 385,-253.7 669,-253.7 669,-231.7 385,-231.7"/>
<polygon fill="none" stroke="#000000" points="385,-231.7 385,-253.7 669,-253.7 669,-231.7 385,-231.7"/>
<text text-anchor="start" x="405" y="-234.3" font-family="Helvetica,sans-Serif" font-size="16.00" fill="#000000">status</text>
<polygon fill="#ffffff" stroke="transparent" points="385,-209.7 385,-231.7 669,-231.7 669,-209.7 385,-209.7"/>
<polygon fill="none" stroke="#000000" points="385,-209.7 385,-231.7 669,-231.7 669,-209.7 385,-209.7"/>
<text text-anchor="start" x="405" y="-212.3" font-family="Helvetica,sans-Serif" font-size="16.00" fill="#000000">project_type</text>
<polygon fill="#ffffff" stroke="transparent" points="385,-187.7 385,-209.7 669,-209.7 669,-187.7 385,-187.7"/>
<polygon fill="none" stroke="#000000" points="385,-187.7 385,-209.7 669,-209.7 669,-187.7 385,-187.7"/>
<text text-anchor="start" x="405" y="-190.3" font-family="Helvetica,sans-Serif" font-size="16.00" fill="#000000">priority</text>
<polygon fill="#ffffff" stroke="transparent" points="385,-165.7 385,-187.7 669,-187.7 669,-165.7 385,-165.7"/>
<polygon fill="none" stroke="#000000" points="385,-165.7 385,-187.7 669,-187.7 669,-165.7 385,-165.7"/>
<image xlink:href="../../images/foreignKeys.png" width="11px" height="12px" preserveAspectRatio="xMinYMin meet" x="390" y="-182.7"/>
<text text-anchor="start" x="405" y="-168.3" font-family="Helvetica,sans-Serif" font-size="16.00" fill="#000000">business_partner_id</text>
<polygon fill="#ffffff" stroke="transparent" points="385,-143.7 385,-165.7 669,-165.7 669,-143.7 385,-143.7"/>
<polygon fill="none" stroke="#000000" points="385,-143.7 385,-165.7 669,-165.7 669,-143.7 385,-143.7"/>
<text text-anchor="start" x="405" y="-146.3" font-family="Helvetica,sans-Serif" font-size="16.00" fill="#000000">billable</text>
<polygon fill="#ffffff" stroke="transparent" points="385,-121.7 385,-143.7 669,-143.7 669,-121.7 385,-121.7"/>
<polygon fill="none" stroke="#000000" points="385,-121.7 385,-143.7 669,-143.7 669,-121.7 385,-121.7"/>
<text text-anchor="start" x="405" y="-124.3" font-family="Helvetica,sans-Serif" font-size="16.00" fill="#000000">active</text>
<polygon fill="#ffffff" stroke="transparent" points="385,-99.7 385,-121.7 669,-121.7 669,-99.7 385,-99.7"/>
<polygon fill="none" stroke="#000000" points="385,-99.7 385,-121.7 669,-121.7 669,-99.7 385,-99.7"/>
<text text-anchor="start" x="405" y="-102.3" font-family="Helvetica,sans-Serif" font-size="16.00" fill="#000000">inserted_at</text>
<polygon fill="none" stroke="#000000" points="385,-74.7 385,-99.7 669,-99.7 669,-74.7 385,-74.7"/>
<text text-anchor="start" x="388" y="-82.3" font-family="Helvetica,sans-Serif" font-size="16.00" fill="#000000">...</text>
<polygon fill="#ffffff" stroke="transparent" points="385,-49.7 385,-74.7 500,-74.7 500,-49.7 385,-49.7"/>
<polygon fill="none" stroke="#000000" points="385,-49.7 385,-74.7 500,-74.7 500,-49.7 385,-49.7"/>
<text text-anchor="start" x="388" y="-57.3" font-family="Helvetica,sans-Serif" font-size="16.00" fill="#000000">&lt; 1</text>
<polygon fill="#ffffff" stroke="transparent" points="500,-49.7 500,-74.7 597,-74.7 597,-49.7 500,-49.7"/>
<polygon fill="none" stroke="#000000" points="500,-49.7 500,-74.7 597,-74.7 597,-49.7 500,-49.7"/>
<text text-anchor="start" x="546.888" y="-57.3" font-family="Helvetica,sans-Serif" font-size="16.00" fill="#000000">5 rows</text>
<polygon fill="#ffffff" stroke="transparent" points="597,-49.7 597,-74.7 669,-74.7 669,-49.7 597,-49.7"/>
<polygon fill="none" stroke="#000000" points="597,-49.7 597,-74.7 669,-74.7 669,-49.7 597,-49.7"/>
<text text-anchor="start" x="643.3168" y="-57.3" font-family="Helvetica,sans-Serif" font-size="16.00" fill="#000000">3 &gt;</text>
</a>
</g>
</g>
<!-- projects&#45;&gt;business_partners -->
<g id="edge2" class="edge">
<title>projects:w&#45;&gt;business_partners:e</title>
<path fill="none" stroke="#000000" d="M370.626,-179.1739C318.6504,-200.4442 409.3171,-351.7 334,-351.7"/>
<polygon fill="#000000" stroke="#000000" points="377.1159,-178.0569 385.6106,-180.2478 381.058,-177.3785 385,-176.7 385,-176.7 385,-176.7 381.058,-177.3785 384.3894,-173.1522 377.1159,-178.0569 377.1159,-178.0569"/>
<ellipse fill="none" stroke="#000000" cx="373.9623" cy="-178.5997" rx="3.2" ry="3.2"/>
</g>
<!-- timers -->
<g id="node4" class="node">
<title>timers</title>
<g id="a_node4"><a xlink:href="../../tables/timers.html" xlink:title="timers" target="_top">
<polygon fill="#ffffff" stroke="transparent" points="718,-214.2 718,-469.2 951,-469.2 951,-214.2 718,-214.2"/>
<polygon fill="#f5f5f5" stroke="transparent" points="718.5,-439.7 718.5,-468.7 951.5,-468.7 951.5,-439.7 718.5,-439.7"/>
<polygon fill="none" stroke="#000000" points="718.5,-439.7 718.5,-468.7 951.5,-468.7 951.5,-439.7 718.5,-439.7"/>
<text text-anchor="start" x="723.5" y="-446.8" font-family="Helvetica,sans-Serif" font-weight="bold" font-size="16.00" fill="#000000">timers</text>
<text text-anchor="start" x="902.9272" y="-449.3" font-family="Helvetica,sans-Serif" font-size="16.00" fill="#000000">[table]</text>
<polygon fill="none" stroke="#000000" points="718.5,-417.7 718.5,-439.7 951.5,-439.7 951.5,-417.7 718.5,-417.7"/>
<image xlink:href="../../images/primaryKeys.png" width="11px" height="12px" preserveAspectRatio="xMinYMin meet" x="723.5" y="-434.7"/>
<text text-anchor="start" x="738.5" y="-420.3" font-family="Helvetica,sans-Serif" font-size="16.00" fill="#000000">id</text>
<polygon fill="#ffffff" stroke="transparent" points="718.5,-395.7 718.5,-417.7 951.5,-417.7 951.5,-395.7 718.5,-395.7"/>
<polygon fill="none" stroke="#000000" points="718.5,-395.7 718.5,-417.7 951.5,-417.7 951.5,-395.7 718.5,-395.7"/>
<text text-anchor="start" x="738.5" y="-398.3" font-family="Helvetica,sans-Serif" font-size="16.00" fill="#000000">start_stamp</text>
<polygon fill="#ffffff" stroke="transparent" points="718.5,-373.7 718.5,-395.7 951.5,-395.7 951.5,-373.7 718.5,-373.7"/>
<polygon fill="none" stroke="#000000" points="718.5,-373.7 718.5,-395.7 951.5,-395.7 951.5,-373.7 718.5,-373.7"/>
<text text-anchor="start" x="738.5" y="-376.3" font-family="Helvetica,sans-Serif" font-size="16.00" fill="#000000">end_stamp</text>
<polygon fill="#ffffff" stroke="transparent" points="718.5,-351.7 718.5,-373.7 951.5,-373.7 951.5,-351.7 718.5,-351.7"/>
<polygon fill="none" stroke="#000000" points="718.5,-351.7 718.5,-373.7 951.5,-373.7 951.5,-351.7 718.5,-351.7"/>
<text text-anchor="start" x="738.5" y="-354.3" font-family="Helvetica,sans-Serif" font-size="16.00" fill="#000000">billable</text>
<polygon fill="#ffffff" stroke="transparent" points="718.5,-329.7 718.5,-351.7 951.5,-351.7 951.5,-329.7 718.5,-329.7"/>
<polygon fill="none" stroke="#000000" points="718.5,-329.7 718.5,-351.7 951.5,-351.7 951.5,-329.7 718.5,-329.7"/>
<image xlink:href="../../images/foreignKeys.png" width="11px" height="12px" preserveAspectRatio="xMinYMin meet" x="723.5" y="-346.7"/>
<text text-anchor="start" x="738.5" y="-332.3" font-family="Helvetica,sans-Serif" font-size="16.00" fill="#000000">business_partner_id</text>
<polygon fill="none" stroke="#000000" points="718.5,-307.7 718.5,-329.7 951.5,-329.7 951.5,-307.7 718.5,-307.7"/>
<image xlink:href="../../images/foreignKeys.png" width="11px" height="12px" preserveAspectRatio="xMinYMin meet" x="723.5" y="-324.7"/>
<text text-anchor="start" x="738.5" y="-310.3" font-family="Helvetica,sans-Serif" font-size="16.00" fill="#000000">activity_type_id</text>
<polygon fill="#ffffff" stroke="transparent" points="718.5,-285.7 718.5,-307.7 951.5,-307.7 951.5,-285.7 718.5,-285.7"/>
<polygon fill="none" stroke="#000000" points="718.5,-285.7 718.5,-307.7 951.5,-307.7 951.5,-285.7 718.5,-285.7"/>
<image xlink:href="../../images/foreignKeys.png" width="11px" height="12px" preserveAspectRatio="xMinYMin meet" x="723.5" y="-302.7"/>
<text text-anchor="start" x="738.5" y="-288.3" font-family="Helvetica,sans-Serif" font-size="16.00" fill="#000000">project_id</text>
<polygon fill="#ffffff" stroke="transparent" points="718.5,-263.7 718.5,-285.7 951.5,-285.7 951.5,-263.7 718.5,-263.7"/>
<polygon fill="none" stroke="#000000" points="718.5,-263.7 718.5,-285.7 951.5,-285.7 951.5,-263.7 718.5,-263.7"/>
<text text-anchor="start" x="738.5" y="-266.3" font-family="Helvetica,sans-Serif" font-size="16.00" fill="#000000">inserted_at</text>
<polygon fill="none" stroke="#000000" points="718.5,-238.7 718.5,-263.7 951.5,-263.7 951.5,-238.7 718.5,-238.7"/>
<text text-anchor="start" x="721.5" y="-246.3" font-family="Helvetica,sans-Serif" font-size="16.00" fill="#000000">...</text>
<polygon fill="#ffffff" stroke="transparent" points="718.5,-213.7 718.5,-238.7 803.5,-238.7 803.5,-213.7 718.5,-213.7"/>
<polygon fill="none" stroke="#000000" points="718.5,-213.7 718.5,-238.7 803.5,-238.7 803.5,-213.7 718.5,-213.7"/>
<text text-anchor="start" x="721.5" y="-221.3" font-family="Helvetica,sans-Serif" font-size="16.00" fill="#000000">&lt; 3</text>
<polygon fill="#ffffff" stroke="transparent" points="803.5,-213.7 803.5,-238.7 894.5,-238.7 894.5,-213.7 803.5,-213.7"/>
<polygon fill="none" stroke="#000000" points="803.5,-213.7 803.5,-238.7 894.5,-238.7 894.5,-213.7 803.5,-213.7"/>
<text text-anchor="start" x="835.4936" y="-221.3" font-family="Helvetica,sans-Serif" font-size="16.00" fill="#000000">65 rows</text>
<polygon fill="#ffffff" stroke="transparent" points="894.5,-213.7 894.5,-238.7 951.5,-238.7 951.5,-213.7 894.5,-213.7"/>
<polygon fill="none" stroke="#000000" points="894.5,-213.7 894.5,-238.7 951.5,-238.7 951.5,-213.7 894.5,-213.7"/>
<text text-anchor="start" x="925.8168" y="-221.3" font-family="Helvetica,sans-Serif" font-size="16.00" fill="#000000">2 &gt;</text>
</a>
</g>
</g>
<!-- timers&#45;&gt;business_partners -->
<g id="edge3" class="edge">
<title>timers:w&#45;&gt;business_partners:e</title>
<path fill="none" stroke="#000000" d="M703.7984,-340.7278C544.9359,-341.3351 499.9502,-351.7 334,-351.7"/>
<polygon fill="#000000" stroke="#000000" points="710.5,-340.7152 718.5068,-344.3 714.5,-340.7076 718.5,-340.7 718.5,-340.7 718.5,-340.7 714.5,-340.7076 718.4932,-337.1 710.5,-340.7152 710.5,-340.7152"/>
<ellipse fill="none" stroke="#000000" cx="707.3" cy="-340.7212" rx="3.2" ry="3.2"/>
</g>
<!-- timers&#45;&gt;projects -->
<g id="edge4" class="edge">
<title>timers:w&#45;&gt;projects:e</title>
<path fill="none" stroke="#000000" d="M704.0854,-295.0487C692.4926,-292.2084 685.658,-286.7 669,-286.7"/>
<polygon fill="#000000" stroke="#000000" points="710.552,-295.7894 718.0903,-300.2766 714.526,-296.2447 718.5,-296.7 718.5,-296.7 718.5,-296.7 714.526,-296.2447 718.9097,-293.1234 710.552,-295.7894 710.552,-295.7894"/>
<ellipse fill="none" stroke="#000000" cx="707.3728" cy="-295.4252" rx="3.2" ry="3.2"/>
</g>
</g>
</svg>
