<?xml version="1.0" encoding="UTF-8" standalone="no"?>
<!DOCTYPE svg PUBLIC "-//W3C//DTD SVG 1.1//EN"
 "http://www.w3.org/Graphics/SVG/1.1/DTD/svg11.dtd">
<!-- Generated by graphviz version 2.40.1 (20161225.0304)
 -->
<!-- Title: twoDegreesRelationshipsDiagram Pages: 1 -->
<svg width="1702pt" height="914pt"
 viewBox="0.00 0.00 1702.00 913.70" xmlns="http://www.w3.org/2000/svg" xmlns:xlink="http://www.w3.org/1999/xlink">
<g id="graph0" class="graph" transform="scale(1 1) rotate(0) translate(4 909.7)">
<title>twoDegreesRelationshipsDiagram</title>
<polygon fill="#ffffff" stroke="transparent" points="-4,4 -4,-909.7 1698,-909.7 1698,4 -4,4"/>
<text text-anchor="middle" x="101.8088" y="-8.8" font-family="Helvetica,sans-Serif" font-size="16.00" fill="#000000">Generated by SchemaSpy</text>
<!-- journal_entries -->
<g id="node1" class="node">
<title>journal_entries</title>
<g id="a_node1"><a xlink:href="../../tables/journal_entries.html" xlink:title="journal_entries" target="_top">
<polygon fill="#ffffff" stroke="transparent" points="1050,-443.7 1050,-901.7 1432,-901.7 1432,-443.7 1050,-443.7"/>
<polygon fill="#f5f5f5" stroke="transparent" points="1052,-870.7 1052,-899.7 1430,-899.7 1430,-870.7 1052,-870.7"/>
<polygon fill="none" stroke="#000000" points="1052,-870.7 1052,-899.7 1430,-899.7 1430,-870.7 1052,-870.7"/>
<text text-anchor="start" x="1057" y="-877.8" font-family="Helvetica,sans-Serif" font-weight="bold" font-size="16.00" fill="#000000">journal_entries</text>
<text text-anchor="start" x="1381.4272" y="-880.3" font-family="Helvetica,sans-Serif" font-size="16.00" fill="#000000">[table]</text>
<polygon fill="none" stroke="#000000" points="1052,-845.7 1052,-870.7 1248,-870.7 1248,-845.7 1052,-845.7"/>
<image xlink:href="../../images/primaryKeys.png" width="11px" height="12px" preserveAspectRatio="xMinYMin meet" x="1057" y="-864.2"/>
<text text-anchor="start" x="1072" y="-849.8" font-family="Helvetica,sans-Serif" font-size="16.00" fill="#000000">id</text>
<polygon fill="none" stroke="#000000" points="1248,-845.7 1248,-870.7 1430,-870.7 1430,-845.7 1248,-845.7"/>
<text text-anchor="start" x="1251" y="-853.3" font-family="Helvetica,sans-Serif" font-size="16.00" fill="#000000">text[2000000000]</text>
<polygon fill="#ffffff" stroke="transparent" points="1052,-820.7 1052,-845.7 1248,-845.7 1248,-820.7 1052,-820.7"/>
<polygon fill="none" stroke="#000000" points="1052,-820.7 1052,-845.7 1248,-845.7 1248,-820.7 1052,-820.7"/>
<text text-anchor="start" x="1072" y="-824.8" font-family="Helvetica,sans-Serif" font-size="16.00" fill="#000000">journal_for</text>
<polygon fill="none" stroke="#000000" points="1248,-820.7 1248,-845.7 1430,-845.7 1430,-820.7 1248,-820.7"/>
<text text-anchor="start" x="1251" y="-828.3" font-family="Helvetica,sans-Serif" font-size="16.00" fill="#000000">text[2000000000]</text>
<polygon fill="none" stroke="#000000" points="1052,-795.7 1052,-820.7 1248,-820.7 1248,-795.7 1052,-795.7"/>
<text text-anchor="start" x="1072" y="-799.8" font-family="Helvetica,sans-Serif" font-size="16.00" fill="#000000">entry_text_markdown</text>
<polygon fill="none" stroke="#000000" points="1248,-795.7 1248,-820.7 1430,-820.7 1430,-795.7 1248,-795.7"/>
<text text-anchor="start" x="1251" y="-803.3" font-family="Helvetica,sans-Serif" font-size="16.00" fill="#000000">text[2000000000]</text>
<polygon fill="none" stroke="#000000" points="1052,-770.7 1052,-795.7 1248,-795.7 1248,-770.7 1052,-770.7"/>
<text text-anchor="start" x="1072" y="-774.8" font-family="Helvetica,sans-Serif" font-size="16.00" fill="#000000">entry_text_html</text>
<polygon fill="none" stroke="#000000" points="1248,-770.7 1248,-795.7 1430,-795.7 1430,-770.7 1248,-770.7"/>
<text text-anchor="start" x="1251" y="-778.3" font-family="Helvetica,sans-Serif" font-size="16.00" fill="#000000">text[2000000000]</text>
<polygon fill="none" stroke="#000000" points="1052,-745.7 1052,-770.7 1248,-770.7 1248,-745.7 1052,-745.7"/>
<text text-anchor="start" x="1072" y="-749.8" font-family="Helvetica,sans-Serif" font-size="16.00" fill="#000000">highlights</text>
<polygon fill="none" stroke="#000000" points="1248,-745.7 1248,-770.7 1430,-770.7 1430,-745.7 1248,-745.7"/>
<text text-anchor="start" x="1251" y="-753.3" font-family="Helvetica,sans-Serif" font-size="16.00" fill="#000000">text[2000000000]</text>
<polygon fill="#ffffff" stroke="transparent" points="1052,-720.7 1052,-745.7 1248,-745.7 1248,-720.7 1052,-720.7"/>
<polygon fill="none" stroke="#000000" points="1052,-720.7 1052,-745.7 1248,-745.7 1248,-720.7 1052,-720.7"/>
<image xlink:href="../../images/foreignKeys.png" width="11px" height="12px" preserveAspectRatio="xMinYMin meet" x="1057" y="-739.2"/>
<text text-anchor="start" x="1072" y="-724.8" font-family="Helvetica,sans-Serif" font-size="16.00" fill="#000000">entry_type_id</text>
<polygon fill="none" stroke="#000000" points="1248,-720.7 1248,-745.7 1430,-745.7 1430,-720.7 1248,-720.7"/>
<text text-anchor="start" x="1251" y="-728.3" font-family="Helvetica,sans-Serif" font-size="16.00" fill="#000000">text[2000000000]</text>
<polygon fill="none" stroke="#000000" points="1052,-695.7 1052,-720.7 1248,-720.7 1248,-695.7 1052,-695.7"/>
<text text-anchor="start" x="1072" y="-699.8" font-family="Helvetica,sans-Serif" font-size="16.00" fill="#000000">latitude</text>
<polygon fill="none" stroke="#000000" points="1248,-695.7 1248,-720.7 1430,-720.7 1430,-695.7 1248,-695.7"/>
<text text-anchor="start" x="1250.5208" y="-703.3" font-family="Helvetica,sans-Serif" font-size="16.00" fill="#000000">numeric[2000000000,10]</text>
<polygon fill="none" stroke="#000000" points="1052,-670.7 1052,-695.7 1248,-695.7 1248,-670.7 1052,-670.7"/>
<text text-anchor="start" x="1072" y="-674.8" font-family="Helvetica,sans-Serif" font-size="16.00" fill="#000000">longitude</text>
<polygon fill="none" stroke="#000000" points="1248,-670.7 1248,-695.7 1430,-695.7 1430,-670.7 1248,-670.7"/>
<text text-anchor="start" x="1250.5208" y="-678.3" font-family="Helvetica,sans-Serif" font-size="16.00" fill="#000000">numeric[2000000000,10]</text>
<polygon fill="none" stroke="#000000" points="1052,-645.7 1052,-670.7 1248,-670.7 1248,-645.7 1052,-645.7"/>
<text text-anchor="start" x="1072" y="-649.8" font-family="Helvetica,sans-Serif" font-size="16.00" fill="#000000">mood</text>
<polygon fill="none" stroke="#000000" points="1248,-645.7 1248,-670.7 1430,-670.7 1430,-645.7 1248,-645.7"/>
<text text-anchor="start" x="1251" y="-653.3" font-family="Helvetica,sans-Serif" font-size="16.00" fill="#000000">text[2000000000]</text>
<polygon fill="#ffffff" stroke="transparent" points="1052,-620.7 1052,-645.7 1248,-645.7 1248,-620.7 1052,-620.7"/>
<polygon fill="none" stroke="#000000" points="1052,-620.7 1052,-645.7 1248,-645.7 1248,-620.7 1052,-620.7"/>
<text text-anchor="start" x="1072" y="-624.8" font-family="Helvetica,sans-Serif" font-size="16.00" fill="#000000">is_private</text>
<polygon fill="none" stroke="#000000" points="1248,-620.7 1248,-645.7 1430,-645.7 1430,-620.7 1248,-620.7"/>
<text text-anchor="start" x="1251" y="-628.3" font-family="Helvetica,sans-Serif" font-size="16.00" fill="#000000">integer[2000000000]</text>
<polygon fill="none" stroke="#000000" points="1052,-595.7 1052,-620.7 1248,-620.7 1248,-595.7 1052,-595.7"/>
<text text-anchor="start" x="1072" y="-599.8" font-family="Helvetica,sans-Serif" font-size="16.00" fill="#000000">is_short_entry</text>
<polygon fill="none" stroke="#000000" points="1248,-595.7 1248,-620.7 1430,-620.7 1430,-595.7 1248,-595.7"/>
<text text-anchor="start" x="1251" y="-603.3" font-family="Helvetica,sans-Serif" font-size="16.00" fill="#000000">integer[2000000000]</text>
<polygon fill="none" stroke="#000000" points="1052,-570.7 1052,-595.7 1248,-595.7 1248,-570.7 1052,-570.7"/>
<text text-anchor="start" x="1072" y="-574.8" font-family="Helvetica,sans-Serif" font-size="16.00" fill="#000000">is_scheduled</text>
<polygon fill="none" stroke="#000000" points="1248,-570.7 1248,-595.7 1430,-595.7 1430,-570.7 1248,-570.7"/>
<text text-anchor="start" x="1251" y="-578.3" font-family="Helvetica,sans-Serif" font-size="16.00" fill="#000000">integer[2000000000]</text>
<polygon fill="#ffffff" stroke="transparent" points="1052,-545.7 1052,-570.7 1248,-570.7 1248,-545.7 1052,-545.7"/>
<polygon fill="none" stroke="#000000" points="1052,-545.7 1052,-570.7 1248,-570.7 1248,-545.7 1052,-545.7"/>
<image xlink:href="../../images/foreignKeys.png" width="11px" height="12px" preserveAspectRatio="xMinYMin meet" x="1057" y="-564.2"/>
<text text-anchor="start" x="1072" y="-549.8" font-family="Helvetica,sans-Serif" font-size="16.00" fill="#000000">user_id</text>
<polygon fill="none" stroke="#000000" points="1248,-545.7 1248,-570.7 1430,-570.7 1430,-545.7 1248,-545.7"/>
<text text-anchor="start" x="1251" y="-553.3" font-family="Helvetica,sans-Serif" font-size="16.00" fill="#000000">text[2000000000]</text>
<polygon fill="#ffffff" stroke="transparent" points="1052,-520.7 1052,-545.7 1248,-545.7 1248,-520.7 1052,-520.7"/>
<polygon fill="none" stroke="#000000" points="1052,-520.7 1052,-545.7 1248,-545.7 1248,-520.7 1052,-520.7"/>
<text text-anchor="start" x="1072" y="-524.8" font-family="Helvetica,sans-Serif" font-size="16.00" fill="#000000">inserted_at</text>
<polygon fill="none" stroke="#000000" points="1248,-520.7 1248,-545.7 1430,-545.7 1430,-520.7 1248,-520.7"/>
<text text-anchor="start" x="1251" y="-528.3" font-family="Helvetica,sans-Serif" font-size="16.00" fill="#000000">text[2000000000]</text>
<polygon fill="none" stroke="#000000" points="1052,-495.7 1052,-520.7 1248,-520.7 1248,-495.7 1052,-495.7"/>
<text text-anchor="start" x="1072" y="-499.8" font-family="Helvetica,sans-Serif" font-size="16.00" fill="#000000">updated_at</text>
<polygon fill="none" stroke="#000000" points="1248,-495.7 1248,-520.7 1430,-520.7 1430,-495.7 1248,-495.7"/>
<text text-anchor="start" x="1251" y="-503.3" font-family="Helvetica,sans-Serif" font-size="16.00" fill="#000000">text[2000000000]</text>
<polygon fill="none" stroke="#000000" points="1052,-470.7 1052,-495.7 1248,-495.7 1248,-470.7 1052,-470.7"/>
<image xlink:href="../../images/foreignKeys.png" width="11px" height="12px" preserveAspectRatio="xMinYMin meet" x="1057" y="-489.2"/>
<text text-anchor="start" x="1072" y="-474.8" font-family="Helvetica,sans-Serif" font-size="16.00" fill="#000000">location_id</text>
<polygon fill="none" stroke="#000000" points="1248,-470.7 1248,-495.7 1430,-495.7 1430,-470.7 1248,-470.7"/>
<text text-anchor="start" x="1251" y="-478.3" font-family="Helvetica,sans-Serif" font-size="16.00" fill="#000000">text[2000000000]</text>
<polygon fill="#ffffff" stroke="transparent" points="1052,-445.7 1052,-470.7 1137,-470.7 1137,-445.7 1052,-445.7"/>
<polygon fill="none" stroke="#000000" points="1052,-445.7 1052,-470.7 1137,-470.7 1137,-445.7 1052,-445.7"/>
<text text-anchor="start" x="1055" y="-453.3" font-family="Helvetica,sans-Serif" font-size="16.00" fill="#000000">&lt; 3</text>
<polygon fill="#ffffff" stroke="transparent" points="1137,-445.7 1137,-470.7 1248,-470.7 1248,-445.7 1137,-445.7"/>
<polygon fill="none" stroke="#000000" points="1137,-445.7 1137,-470.7 1248,-470.7 1248,-445.7 1137,-445.7"/>
<text text-anchor="start" x="1197.888" y="-453.3" font-family="Helvetica,sans-Serif" font-size="16.00" fill="#000000">2 rows</text>
<polygon fill="#ffffff" stroke="transparent" points="1248,-445.7 1248,-470.7 1430,-470.7 1430,-445.7 1248,-445.7"/>
<polygon fill="none" stroke="#000000" points="1248,-445.7 1248,-470.7 1430,-470.7 1430,-445.7 1248,-445.7"/>
<text text-anchor="start" x="1404.3168" y="-453.3" font-family="Helvetica,sans-Serif" font-size="16.00" fill="#000000">1 &gt;</text>
<polygon fill="none" stroke="#000000" stroke-width="2" points="1051,-444.7 1051,-900.7 1431,-900.7 1431,-444.7 1051,-444.7"/>
</a>
</g>
</g>
<!-- journal_entry_types -->
<g id="node2" class="node">
<title>journal_entry_types</title>
<g id="a_node2"><a xlink:href="../../tables/journal_entry_types.html" xlink:title="journal_entry_types" target="_top">
<polygon fill="#ffffff" stroke="transparent" points="755.5,-629.2 755.5,-774.2 969.5,-774.2 969.5,-629.2 755.5,-629.2"/>
<polygon fill="#f5f5f5" stroke="transparent" points="755.5,-744.7 755.5,-773.7 969.5,-773.7 969.5,-744.7 755.5,-744.7"/>
<polygon fill="none" stroke="#000000" points="755.5,-744.7 755.5,-773.7 969.5,-773.7 969.5,-744.7 755.5,-744.7"/>
<text text-anchor="start" x="760.5" y="-751.8" font-family="Helvetica,sans-Serif" font-weight="bold" font-size="16.00" fill="#000000">journal_entry_types</text>
<text text-anchor="start" x="921.2136" y="-754.3" font-family="Helvetica,sans-Serif" font-size="16.00" fill="#000000">[table]</text>
<polygon fill="none" stroke="#000000" points="755.5,-722.7 755.5,-744.7 969.5,-744.7 969.5,-722.7 755.5,-722.7"/>
<image xlink:href="../../images/primaryKeys.png" width="11px" height="12px" preserveAspectRatio="xMinYMin meet" x="760.5" y="-739.7"/>
<text text-anchor="start" x="791.5" y="-725.3" font-family="Helvetica,sans-Serif" font-size="16.00" fill="#000000">id</text>
<polygon fill="#ffffff" stroke="transparent" points="755.5,-700.7 755.5,-722.7 969.5,-722.7 969.5,-700.7 755.5,-700.7"/>
<polygon fill="none" stroke="#000000" points="755.5,-700.7 755.5,-722.7 969.5,-722.7 969.5,-700.7 755.5,-700.7"/>
<text text-anchor="start" x="791.5" y="-703.3" font-family="Helvetica,sans-Serif" font-size="16.00" fill="#000000">name</text>
<polygon fill="#ffffff" stroke="transparent" points="755.5,-678.7 755.5,-700.7 969.5,-700.7 969.5,-678.7 755.5,-678.7"/>
<polygon fill="none" stroke="#000000" points="755.5,-678.7 755.5,-700.7 969.5,-700.7 969.5,-678.7 755.5,-678.7"/>
<text text-anchor="start" x="791.5" y="-681.3" font-family="Helvetica,sans-Serif" font-size="16.00" fill="#000000">active</text>
<polygon fill="none" stroke="#000000" points="755.5,-653.7 755.5,-678.7 969.5,-678.7 969.5,-653.7 755.5,-653.7"/>
<text text-anchor="start" x="758.5" y="-661.3" font-family="Helvetica,sans-Serif" font-size="16.00" fill="#000000">...</text>
<polygon fill="#ffffff" stroke="transparent" points="755.5,-628.7 755.5,-653.7 828.5,-653.7 828.5,-628.7 755.5,-628.7"/>
<polygon fill="none" stroke="#000000" points="755.5,-628.7 755.5,-653.7 828.5,-653.7 828.5,-628.7 755.5,-628.7"/>
<text text-anchor="start" x="758.5" y="-636.3" font-family="Helvetica,sans-Serif" font-size="16.00" fill="#000000"> &#160;</text>
<polygon fill="#ffffff" stroke="transparent" points="828.5,-628.7 828.5,-653.7 911.5,-653.7 911.5,-628.7 828.5,-628.7"/>
<polygon fill="none" stroke="#000000" points="828.5,-628.7 828.5,-653.7 911.5,-653.7 911.5,-628.7 828.5,-628.7"/>
<text text-anchor="start" x="861.388" y="-636.3" font-family="Helvetica,sans-Serif" font-size="16.00" fill="#000000">2 rows</text>
<polygon fill="#ffffff" stroke="transparent" points="911.5,-628.7 911.5,-653.7 969.5,-653.7 969.5,-628.7 911.5,-628.7"/>
<polygon fill="none" stroke="#000000" points="911.5,-628.7 911.5,-653.7 969.5,-653.7 969.5,-628.7 911.5,-628.7"/>
<text text-anchor="start" x="943.8168" y="-636.3" font-family="Helvetica,sans-Serif" font-size="16.00" fill="#000000">1 &gt;</text>
</a>
</g>
</g>
<!-- journal_entries&#45;&gt;journal_entry_types -->
<g id="edge1" class="edge">
<title>journal_entries:w&#45;&gt;journal_entry_types:e</title>
<path fill="none" stroke="#000000" d="M1037.3098,-733.7C1012.0061,-733.7 1000.724,-733.7 969.5,-733.7"/>
<polygon fill="#000000" stroke="#000000" points="1044,-733.7001 1052,-737.3 1048,-733.7 1052,-733.7 1052,-733.7 1052,-733.7 1048,-733.7 1052,-730.1 1044,-733.7001 1044,-733.7001"/>
<ellipse fill="none" stroke="#000000" cx="1040.8" cy="-733.7001" rx="3.2" ry="3.2"/>
</g>
<!-- locations_cities -->
<g id="node3" class="node">
<title>locations_cities</title>
<g id="a_node3"><a xlink:href="../../tables/locations_cities.html" xlink:title="locations_cities" target="_top">
<polygon fill="#ffffff" stroke="transparent" points="724,-50.2 724,-393.2 1001,-393.2 1001,-50.2 724,-50.2"/>
<polygon fill="#f5f5f5" stroke="transparent" points="724.5,-363.7 724.5,-392.7 1001.5,-392.7 1001.5,-363.7 724.5,-363.7"/>
<polygon fill="none" stroke="#000000" points="724.5,-363.7 724.5,-392.7 1001.5,-392.7 1001.5,-363.7 724.5,-363.7"/>
<text text-anchor="start" x="729.5" y="-370.8" font-family="Helvetica,sans-Serif" font-weight="bold" font-size="16.00" fill="#000000">locations_cities</text>
<text text-anchor="start" x="952.9272" y="-373.3" font-family="Helvetica,sans-Serif" font-size="16.00" fill="#000000">[table]</text>
<polygon fill="none" stroke="#000000" points="724.5,-341.7 724.5,-363.7 1001.5,-363.7 1001.5,-341.7 724.5,-341.7"/>
<image xlink:href="../../images/primaryKeys.png" width="11px" height="12px" preserveAspectRatio="xMinYMin meet" x="729.5" y="-358.7"/>
<text text-anchor="start" x="744.5" y="-344.3" font-family="Helvetica,sans-Serif" font-size="16.00" fill="#000000">id</text>
<polygon fill="#ffffff" stroke="transparent" points="724.5,-319.7 724.5,-341.7 1001.5,-341.7 1001.5,-319.7 724.5,-319.7"/>
<polygon fill="none" stroke="#000000" points="724.5,-319.7 724.5,-341.7 1001.5,-341.7 1001.5,-319.7 724.5,-319.7"/>
<text text-anchor="start" x="744.5" y="-322.3" font-family="Helvetica,sans-Serif" font-size="16.00" fill="#000000">geoname_id</text>
<polygon fill="#ffffff" stroke="transparent" points="724.5,-297.7 724.5,-319.7 1001.5,-319.7 1001.5,-297.7 724.5,-297.7"/>
<polygon fill="none" stroke="#000000" points="724.5,-297.7 724.5,-319.7 1001.5,-319.7 1001.5,-297.7 724.5,-297.7"/>
<text text-anchor="start" x="744.5" y="-300.3" font-family="Helvetica,sans-Serif" font-size="16.00" fill="#000000">name</text>
<polygon fill="#ffffff" stroke="transparent" points="724.5,-275.7 724.5,-297.7 1001.5,-297.7 1001.5,-275.7 724.5,-275.7"/>
<polygon fill="none" stroke="#000000" points="724.5,-275.7 724.5,-297.7 1001.5,-297.7 1001.5,-275.7 724.5,-275.7"/>
<text text-anchor="start" x="744.5" y="-278.3" font-family="Helvetica,sans-Serif" font-size="16.00" fill="#000000">latitude</text>
<polygon fill="#ffffff" stroke="transparent" points="724.5,-253.7 724.5,-275.7 1001.5,-275.7 1001.5,-253.7 724.5,-253.7"/>
<polygon fill="none" stroke="#000000" points="724.5,-253.7 724.5,-275.7 1001.5,-275.7 1001.5,-253.7 724.5,-253.7"/>
<text text-anchor="start" x="744.5" y="-256.3" font-family="Helvetica,sans-Serif" font-size="16.00" fill="#000000">longitude</text>
<polygon fill="none" stroke="#000000" points="724.5,-231.7 724.5,-253.7 1001.5,-253.7 1001.5,-231.7 724.5,-231.7"/>
<image xlink:href="../../images/foreignKeys.png" width="11px" height="12px" preserveAspectRatio="xMinYMin meet" x="729.5" y="-248.7"/>
<text text-anchor="start" x="744.5" y="-234.3" font-family="Helvetica,sans-Serif" font-size="16.00" fill="#000000">feature_class</text>
<polygon fill="#ffffff" stroke="transparent" points="724.5,-209.7 724.5,-231.7 1001.5,-231.7 1001.5,-209.7 724.5,-209.7"/>
<polygon fill="none" stroke="#000000" points="724.5,-209.7 724.5,-231.7 1001.5,-231.7 1001.5,-209.7 724.5,-209.7"/>
<image xlink:href="../../images/foreignKeys.png" width="11px" height="12px" preserveAspectRatio="xMinYMin meet" x="729.5" y="-226.7"/>
<text text-anchor="start" x="744.5" y="-212.3" font-family="Helvetica,sans-Serif" font-size="16.00" fill="#000000">feature_code</text>
<polygon fill="#ffffff" stroke="transparent" points="724.5,-187.7 724.5,-209.7 1001.5,-209.7 1001.5,-187.7 724.5,-187.7"/>
<polygon fill="none" stroke="#000000" points="724.5,-187.7 724.5,-209.7 1001.5,-209.7 1001.5,-187.7 724.5,-187.7"/>
<image xlink:href="../../images/foreignKeys.png" width="11px" height="12px" preserveAspectRatio="xMinYMin meet" x="729.5" y="-204.7"/>
<text text-anchor="start" x="744.5" y="-190.3" font-family="Helvetica,sans-Serif" font-size="16.00" fill="#000000">country_code</text>
<polygon fill="#ffffff" stroke="transparent" points="724.5,-165.7 724.5,-187.7 1001.5,-187.7 1001.5,-165.7 724.5,-165.7"/>
<polygon fill="none" stroke="#000000" points="724.5,-165.7 724.5,-187.7 1001.5,-187.7 1001.5,-165.7 724.5,-165.7"/>
<image xlink:href="../../images/foreignKeys.png" width="11px" height="12px" preserveAspectRatio="xMinYMin meet" x="729.5" y="-182.7"/>
<text text-anchor="start" x="744.5" y="-168.3" font-family="Helvetica,sans-Serif" font-size="16.00" fill="#000000">administrative_division_1_code</text>
<polygon fill="#ffffff" stroke="transparent" points="724.5,-143.7 724.5,-165.7 1001.5,-165.7 1001.5,-143.7 724.5,-143.7"/>
<polygon fill="none" stroke="#000000" points="724.5,-143.7 724.5,-165.7 1001.5,-165.7 1001.5,-143.7 724.5,-143.7"/>
<image xlink:href="../../images/foreignKeys.png" width="11px" height="12px" preserveAspectRatio="xMinYMin meet" x="729.5" y="-160.7"/>
<text text-anchor="start" x="744.5" y="-146.3" font-family="Helvetica,sans-Serif" font-size="16.00" fill="#000000">administrative_division_2_code</text>
<polygon fill="#ffffff" stroke="transparent" points="724.5,-121.7 724.5,-143.7 1001.5,-143.7 1001.5,-121.7 724.5,-121.7"/>
<polygon fill="none" stroke="#000000" points="724.5,-121.7 724.5,-143.7 1001.5,-143.7 1001.5,-121.7 724.5,-121.7"/>
<text text-anchor="start" x="744.5" y="-124.3" font-family="Helvetica,sans-Serif" font-size="16.00" fill="#000000">population</text>
<polygon fill="#ffffff" stroke="transparent" points="724.5,-99.7 724.5,-121.7 1001.5,-121.7 1001.5,-99.7 724.5,-99.7"/>
<polygon fill="none" stroke="#000000" points="724.5,-99.7 724.5,-121.7 1001.5,-121.7 1001.5,-99.7 724.5,-99.7"/>
<text text-anchor="start" x="744.5" y="-102.3" font-family="Helvetica,sans-Serif" font-size="16.00" fill="#000000">timezone</text>
<polygon fill="none" stroke="#000000" points="724.5,-74.7 724.5,-99.7 1001.5,-99.7 1001.5,-74.7 724.5,-74.7"/>
<text text-anchor="start" x="727.5" y="-82.3" font-family="Helvetica,sans-Serif" font-size="16.00" fill="#000000">...</text>
<polygon fill="#ffffff" stroke="transparent" points="724.5,-49.7 724.5,-74.7 811.5,-74.7 811.5,-49.7 724.5,-49.7"/>
<polygon fill="none" stroke="#000000" points="724.5,-49.7 724.5,-74.7 811.5,-74.7 811.5,-49.7 724.5,-49.7"/>
<text text-anchor="start" x="727.5" y="-57.3" font-family="Helvetica,sans-Serif" font-size="16.00" fill="#000000">&lt; 4</text>
<polygon fill="#ffffff" stroke="transparent" points="811.5,-49.7 811.5,-74.7 943.5,-74.7 943.5,-49.7 811.5,-49.7"/>
<polygon fill="none" stroke="#000000" points="811.5,-49.7 811.5,-74.7 943.5,-74.7 943.5,-49.7 811.5,-49.7"/>
<text text-anchor="start" x="844.4696" y="-57.3" font-family="Helvetica,sans-Serif" font-size="16.00" fill="#000000">210,698 rows</text>
<polygon fill="#ffffff" stroke="transparent" points="943.5,-49.7 943.5,-74.7 1001.5,-74.7 1001.5,-49.7 943.5,-49.7"/>
<polygon fill="none" stroke="#000000" points="943.5,-49.7 943.5,-74.7 1001.5,-74.7 1001.5,-49.7 943.5,-49.7"/>
<text text-anchor="start" x="975.8168" y="-57.3" font-family="Helvetica,sans-Serif" font-size="16.00" fill="#000000">1 &gt;</text>
</a>
</g>
</g>
<!-- journal_entries&#45;&gt;locations_cities -->
<g id="edge2" class="edge">
<title>journal_entries:w&#45;&gt;locations_cities:e</title>
<path fill="none" stroke="#000000" d="M1037.9153,-479.4865C1002.6007,-459.4676 1057.6731,-352.7 1001.5,-352.7"/>
<polygon fill="#000000" stroke="#000000" points="1044.2004,-480.9204 1051.1992,-486.2098 1048.1002,-481.8102 1052,-482.7 1052,-482.7 1052,-482.7 1048.1002,-481.8102 1052.8008,-479.1902 1044.2004,-480.9204 1044.2004,-480.9204"/>
<ellipse fill="none" stroke="#000000" cx="1041.0806" cy="-480.2086" rx="3.2" ry="3.2"/>
</g>
<!-- users -->
<g id="node4" class="node">
<title>users</title>
<g id="a_node4"><a xlink:href="../../tables/users.html" xlink:title="users" target="_top">
<polygon fill="#ffffff" stroke="transparent" points="788,-414.2 788,-603.2 937,-603.2 937,-414.2 788,-414.2"/>
<polygon fill="#f5f5f5" stroke="transparent" points="788.5,-573.7 788.5,-602.7 937.5,-602.7 937.5,-573.7 788.5,-573.7"/>
<polygon fill="none" stroke="#000000" points="788.5,-573.7 788.5,-602.7 937.5,-602.7 937.5,-573.7 788.5,-573.7"/>
<text text-anchor="start" x="793.5" y="-580.8" font-family="Helvetica,sans-Serif" font-weight="bold" font-size="16.00" fill="#000000">users</text>
<text text-anchor="start" x="888.9272" y="-583.3" font-family="Helvetica,sans-Serif" font-size="16.00" fill="#000000">[table]</text>
<polygon fill="none" stroke="#000000" points="788.5,-551.7 788.5,-573.7 937.5,-573.7 937.5,-551.7 788.5,-551.7"/>
<image xlink:href="../../images/primaryKeys.png" width="11px" height="12px" preserveAspectRatio="xMinYMin meet" x="793.5" y="-568.7"/>
<text text-anchor="start" x="808.5" y="-554.3" font-family="Helvetica,sans-Serif" font-size="16.00" fill="#000000">id</text>
<polygon fill="#ffffff" stroke="transparent" points="788.5,-529.7 788.5,-551.7 937.5,-551.7 937.5,-529.7 788.5,-529.7"/>
<polygon fill="none" stroke="#000000" points="788.5,-529.7 788.5,-551.7 937.5,-551.7 937.5,-529.7 788.5,-529.7"/>
<text text-anchor="start" x="808.5" y="-532.3" font-family="Helvetica,sans-Serif" font-size="16.00" fill="#000000">user_name</text>
<polygon fill="#ffffff" stroke="transparent" points="788.5,-507.7 788.5,-529.7 937.5,-529.7 937.5,-507.7 788.5,-507.7"/>
<polygon fill="none" stroke="#000000" points="788.5,-507.7 788.5,-529.7 937.5,-529.7 937.5,-507.7 788.5,-507.7"/>
<text text-anchor="start" x="808.5" y="-510.3" font-family="Helvetica,sans-Serif" font-size="16.00" fill="#000000">login_email</text>
<polygon fill="#ffffff" stroke="transparent" points="788.5,-485.7 788.5,-507.7 937.5,-507.7 937.5,-485.7 788.5,-485.7"/>
<polygon fill="none" stroke="#000000" points="788.5,-485.7 788.5,-507.7 937.5,-507.7 937.5,-485.7 788.5,-485.7"/>
<text text-anchor="start" x="808.5" y="-488.3" font-family="Helvetica,sans-Serif" font-size="16.00" fill="#000000">frozen</text>
<polygon fill="#ffffff" stroke="transparent" points="788.5,-463.7 788.5,-485.7 937.5,-485.7 937.5,-463.7 788.5,-463.7"/>
<polygon fill="none" stroke="#000000" points="788.5,-463.7 788.5,-485.7 937.5,-485.7 937.5,-463.7 788.5,-463.7"/>
<text text-anchor="start" x="808.5" y="-466.3" font-family="Helvetica,sans-Serif" font-size="16.00" fill="#000000">active</text>
<polygon fill="none" stroke="#000000" points="788.5,-438.7 788.5,-463.7 937.5,-463.7 937.5,-438.7 788.5,-438.7"/>
<text text-anchor="start" x="791.5" y="-446.3" font-family="Helvetica,sans-Serif" font-size="16.00" fill="#000000">...</text>
<polygon fill="#ffffff" stroke="transparent" points="788.5,-413.7 788.5,-438.7 829.5,-438.7 829.5,-413.7 788.5,-413.7"/>
<polygon fill="none" stroke="#000000" points="788.5,-413.7 788.5,-438.7 829.5,-438.7 829.5,-413.7 788.5,-413.7"/>
<text text-anchor="start" x="791.5" y="-421.3" font-family="Helvetica,sans-Serif" font-size="16.00" fill="#000000"> &#160;</text>
<polygon fill="#ffffff" stroke="transparent" points="829.5,-413.7 829.5,-438.7 895.5,-438.7 895.5,-413.7 829.5,-413.7"/>
<polygon fill="none" stroke="#000000" points="829.5,-413.7 829.5,-438.7 895.5,-438.7 895.5,-413.7 829.5,-413.7"/>
<text text-anchor="start" x="845.388" y="-421.3" font-family="Helvetica,sans-Serif" font-size="16.00" fill="#000000">0 rows</text>
<polygon fill="#ffffff" stroke="transparent" points="895.5,-413.7 895.5,-438.7 937.5,-438.7 937.5,-413.7 895.5,-413.7"/>
<polygon fill="none" stroke="#000000" points="895.5,-413.7 895.5,-438.7 937.5,-438.7 937.5,-413.7 895.5,-413.7"/>
<text text-anchor="start" x="911.8168" y="-421.3" font-family="Helvetica,sans-Serif" font-size="16.00" fill="#000000">1 &gt;</text>
</a>
</g>
</g>
<!-- journal_entries&#45;&gt;users -->
<g id="edge3" class="edge">
<title>journal_entries:w&#45;&gt;users:e</title>
<path fill="none" stroke="#000000" d="M1037.5853,-557.8442C998.1029,-558.6641 983.2641,-562.7 937.5,-562.7"/>
<polygon fill="#000000" stroke="#000000" points="1044.0004,-557.7801 1052.036,-561.2998 1048.0002,-557.7401 1052,-557.7 1052,-557.7 1052,-557.7 1048.0002,-557.7401 1051.964,-554.1002 1044.0004,-557.7801 1044.0004,-557.7801"/>
<ellipse fill="none" stroke="#000000" cx="1040.8006" cy="-557.8121" rx="3.2" ry="3.2"/>
</g>
<!-- locations_administrative_divisions_1 -->
<g id="node7" class="node">
<title>locations_administrative_divisions_1</title>
<g id="a_node7"><a xlink:href="../../tables/locations_administrative_divisions_1.html" xlink:title="locations_administrative_divisions_1" target="_top">
<polygon fill="#ffffff" stroke="transparent" points="321,-76.2 321,-155.2 675,-155.2 675,-76.2 321,-76.2"/>
<polygon fill="#f5f5f5" stroke="transparent" points="321,-125.7 321,-154.7 675,-154.7 675,-125.7 321,-125.7"/>
<polygon fill="none" stroke="#000000" points="321,-125.7 321,-154.7 675,-154.7 675,-125.7 321,-125.7"/>
<text text-anchor="start" x="326" y="-132.8" font-family="Helvetica,sans-Serif" font-weight="bold" font-size="16.00" fill="#000000">locations_administrative_divisions_1</text>
<text text-anchor="start" x="626.7136" y="-135.3" font-family="Helvetica,sans-Serif" font-size="16.00" fill="#000000">[table]</text>
<polygon fill="none" stroke="#000000" points="321,-100.7 321,-125.7 675,-125.7 675,-100.7 321,-100.7"/>
<text text-anchor="start" x="324" y="-108.3" font-family="Helvetica,sans-Serif" font-size="16.00" fill="#000000">...</text>
<polygon fill="#ffffff" stroke="transparent" points="321,-75.7 321,-100.7 456,-100.7 456,-75.7 321,-75.7"/>
<polygon fill="none" stroke="#000000" points="321,-75.7 321,-100.7 456,-100.7 456,-75.7 321,-75.7"/>
<text text-anchor="start" x="324" y="-83.3" font-family="Helvetica,sans-Serif" font-size="16.00" fill="#000000">&lt; 1</text>
<polygon fill="#ffffff" stroke="transparent" points="456,-75.7 456,-100.7 593,-100.7 593,-75.7 456,-75.7"/>
<polygon fill="none" stroke="#000000" points="456,-75.7 456,-100.7 593,-100.7 593,-75.7 456,-75.7"/>
<text text-anchor="start" x="511.7584" y="-83.3" font-family="Helvetica,sans-Serif" font-size="16.00" fill="#000000">3,893 rows</text>
<polygon fill="#ffffff" stroke="transparent" points="593,-75.7 593,-100.7 675,-100.7 675,-75.7 593,-75.7"/>
<polygon fill="none" stroke="#000000" points="593,-75.7 593,-100.7 675,-100.7 675,-75.7 593,-75.7"/>
<text text-anchor="start" x="649.3168" y="-83.3" font-family="Helvetica,sans-Serif" font-size="16.00" fill="#000000">2 &gt;</text>
</a>
</g>
</g>
<!-- locations_cities&#45;&gt;locations_administrative_divisions_1 -->
<g id="edge7" class="edge">
<title>locations_cities:w&#45;&gt;locations_administrative_divisions_1:e</title>
<path fill="none" stroke="#000000" d="M710.5392,-171.678C694.5225,-156.5906 704.779,-112.7 675,-112.7"/>
<polygon fill="#000000" stroke="#000000" points="716.9722,-173.9921 723.2814,-180.0875 720.7361,-175.346 724.5,-176.7 724.5,-176.7 724.5,-176.7 720.7361,-175.346 725.7186,-173.3125 716.9722,-173.9921 716.9722,-173.9921"/>
<ellipse fill="none" stroke="#000000" cx="713.9611" cy="-172.9089" rx="3.2" ry="3.2"/>
</g>
<!-- locations_countries -->
<g id="node8" class="node">
<title>locations_countries</title>
<g id="a_node8"><a xlink:href="../../tables/locations_countries.html" xlink:title="locations_countries" target="_top">
<polygon fill="#ffffff" stroke="transparent" points="33.5,-106.2 33.5,-185.2 246.5,-185.2 246.5,-106.2 33.5,-106.2"/>
<polygon fill="#f5f5f5" stroke="transparent" points="34,-155.7 34,-184.7 247,-184.7 247,-155.7 34,-155.7"/>
<polygon fill="none" stroke="#000000" points="34,-155.7 34,-184.7 247,-184.7 247,-155.7 34,-155.7"/>
<text text-anchor="start" x="39" y="-162.8" font-family="Helvetica,sans-Serif" font-weight="bold" font-size="16.00" fill="#000000">locations_countries</text>
<text text-anchor="start" x="198.7136" y="-165.3" font-family="Helvetica,sans-Serif" font-size="16.00" fill="#000000">[table]</text>
<polygon fill="none" stroke="#000000" points="34,-130.7 34,-155.7 247,-155.7 247,-130.7 34,-130.7"/>
<text text-anchor="start" x="37" y="-138.3" font-family="Helvetica,sans-Serif" font-size="16.00" fill="#000000">...</text>
<polygon fill="#ffffff" stroke="transparent" points="34,-105.7 34,-130.7 105,-130.7 105,-105.7 34,-105.7"/>
<polygon fill="none" stroke="#000000" points="34,-105.7 34,-130.7 105,-130.7 105,-105.7 34,-105.7"/>
<text text-anchor="start" x="37" y="-113.3" font-family="Helvetica,sans-Serif" font-size="16.00" fill="#000000">&lt; 1</text>
<polygon fill="#ffffff" stroke="transparent" points="105,-105.7 105,-130.7 197,-130.7 197,-105.7 105,-105.7"/>
<polygon fill="none" stroke="#000000" points="105,-105.7 105,-130.7 197,-130.7 197,-105.7 105,-105.7"/>
<text text-anchor="start" x="129.0992" y="-113.3" font-family="Helvetica,sans-Serif" font-size="16.00" fill="#000000">252 rows</text>
<polygon fill="#ffffff" stroke="transparent" points="197,-105.7 197,-130.7 247,-130.7 247,-105.7 197,-105.7"/>
<polygon fill="none" stroke="#000000" points="197,-105.7 197,-130.7 247,-130.7 247,-105.7 197,-105.7"/>
<text text-anchor="start" x="221.3168" y="-113.3" font-family="Helvetica,sans-Serif" font-size="16.00" fill="#000000">3 &gt;</text>
</a>
</g>
</g>
<!-- locations_cities&#45;&gt;locations_countries -->
<g id="edge8" class="edge">
<title>locations_cities:w&#45;&gt;locations_countries:e</title>
<path fill="none" stroke="#000000" d="M710.0749,-197.8688C701.6401,-196.7991 695.5669,-194.9319 683,-193.7 518.8721,-177.6105 474.4471,-199.3403 313,-165.7 282.5897,-159.3635 278.0635,-142.7 247,-142.7"/>
<polygon fill="#000000" stroke="#000000" points="716.5132,-198.2398 724.2929,-202.294 720.5066,-198.4699 724.5,-198.7 724.5,-198.7 724.5,-198.7 720.5066,-198.4699 724.7071,-195.106 716.5132,-198.2398 716.5132,-198.2398"/>
<ellipse fill="none" stroke="#000000" cx="713.3185" cy="-198.0557" rx="3.2" ry="3.2"/>
</g>
<!-- locations_feature_classes -->
<g id="node9" class="node">
<title>locations_feature_classes</title>
<g id="a_node9"><a xlink:href="../../tables/locations_feature_classes.html" xlink:title="locations_feature_classes" target="_top">
<polygon fill="#ffffff" stroke="transparent" points="8,-237.2 8,-316.2 272,-316.2 272,-237.2 8,-237.2"/>
<polygon fill="#f5f5f5" stroke="transparent" points="8,-286.7 8,-315.7 272,-315.7 272,-286.7 8,-286.7"/>
<polygon fill="none" stroke="#000000" points="8,-286.7 8,-315.7 272,-315.7 272,-286.7 8,-286.7"/>
<text text-anchor="start" x="13" y="-293.8" font-family="Helvetica,sans-Serif" font-weight="bold" font-size="16.00" fill="#000000">locations_feature_classes</text>
<text text-anchor="start" x="223.7136" y="-296.3" font-family="Helvetica,sans-Serif" font-size="16.00" fill="#000000">[table]</text>
<polygon fill="none" stroke="#000000" points="8,-261.7 8,-286.7 272,-286.7 272,-261.7 8,-261.7"/>
<text text-anchor="start" x="11" y="-269.3" font-family="Helvetica,sans-Serif" font-size="16.00" fill="#000000">...</text>
<polygon fill="#ffffff" stroke="transparent" points="8,-236.7 8,-261.7 106,-261.7 106,-236.7 8,-236.7"/>
<polygon fill="none" stroke="#000000" points="8,-236.7 8,-261.7 106,-261.7 106,-236.7 8,-236.7"/>
<text text-anchor="start" x="11" y="-244.3" font-family="Helvetica,sans-Serif" font-size="16.00" fill="#000000"> &#160;</text>
<polygon fill="#ffffff" stroke="transparent" points="106,-236.7 106,-261.7 201,-261.7 201,-236.7 106,-236.7"/>
<polygon fill="none" stroke="#000000" points="106,-236.7 106,-261.7 201,-261.7 201,-236.7 106,-236.7"/>
<text text-anchor="start" x="150.888" y="-244.3" font-family="Helvetica,sans-Serif" font-size="16.00" fill="#000000">9 rows</text>
<polygon fill="#ffffff" stroke="transparent" points="201,-236.7 201,-261.7 272,-261.7 272,-236.7 201,-236.7"/>
<polygon fill="none" stroke="#000000" points="201,-236.7 201,-261.7 272,-261.7 272,-236.7 201,-236.7"/>
<text text-anchor="start" x="246.3168" y="-244.3" font-family="Helvetica,sans-Serif" font-size="16.00" fill="#000000">2 &gt;</text>
</a>
</g>
</g>
<!-- locations_cities&#45;&gt;locations_feature_classes -->
<g id="edge9" class="edge">
<title>locations_cities:w&#45;&gt;locations_feature_classes:e</title>
<path fill="none" stroke="#000000" d="M710.6661,-247.5462C699.5138,-258.2827 703.618,-283.8958 683,-293.7 534.4909,-364.3188 473.2287,-330.6966 313,-293.7 293.2451,-289.1386 292.2747,-273.7 272,-273.7"/>
<polygon fill="#000000" stroke="#000000" points="716.9499,-245.3449 725.6902,-246.0976 720.7249,-244.0225 724.5,-242.7 724.5,-242.7 724.5,-242.7 720.7249,-244.0225 723.3098,-239.3024 716.9499,-245.3449 716.9499,-245.3449"/>
<ellipse fill="none" stroke="#000000" cx="713.9298" cy="-246.4029" rx="3.2" ry="3.2"/>
</g>
<!-- locations_feature_codes -->
<g id="node10" class="node">
<title>locations_feature_codes</title>
<g id="a_node10"><a xlink:href="../../tables/locations_feature_codes.html" xlink:title="locations_feature_codes" target="_top">
<polygon fill="#ffffff" stroke="transparent" points="372,-204.2 372,-283.2 624,-283.2 624,-204.2 372,-204.2"/>
<polygon fill="#f5f5f5" stroke="transparent" points="372,-253.7 372,-282.7 624,-282.7 624,-253.7 372,-253.7"/>
<polygon fill="none" stroke="#000000" points="372,-253.7 372,-282.7 624,-282.7 624,-253.7 372,-253.7"/>
<text text-anchor="start" x="377" y="-260.8" font-family="Helvetica,sans-Serif" font-weight="bold" font-size="16.00" fill="#000000">locations_feature_codes</text>
<text text-anchor="start" x="575.7136" y="-263.3" font-family="Helvetica,sans-Serif" font-size="16.00" fill="#000000">[table]</text>
<polygon fill="none" stroke="#000000" points="372,-228.7 372,-253.7 624,-253.7 624,-228.7 372,-228.7"/>
<text text-anchor="start" x="375" y="-236.3" font-family="Helvetica,sans-Serif" font-size="16.00" fill="#000000">...</text>
<polygon fill="#ffffff" stroke="transparent" points="372,-203.7 372,-228.7 463,-228.7 463,-203.7 372,-203.7"/>
<polygon fill="none" stroke="#000000" points="372,-203.7 372,-228.7 463,-228.7 463,-203.7 372,-203.7"/>
<text text-anchor="start" x="375" y="-211.3" font-family="Helvetica,sans-Serif" font-size="16.00" fill="#000000">&lt; 1</text>
<polygon fill="#ffffff" stroke="transparent" points="463,-203.7 463,-228.7 564,-228.7 564,-203.7 463,-203.7"/>
<polygon fill="none" stroke="#000000" points="463,-203.7 463,-228.7 564,-228.7 564,-203.7 463,-203.7"/>
<text text-anchor="start" x="496.0992" y="-211.3" font-family="Helvetica,sans-Serif" font-size="16.00" fill="#000000">684 rows</text>
<polygon fill="#ffffff" stroke="transparent" points="564,-203.7 564,-228.7 624,-228.7 624,-203.7 564,-203.7"/>
<polygon fill="none" stroke="#000000" points="564,-203.7 564,-228.7 624,-228.7 624,-203.7 564,-203.7"/>
<text text-anchor="start" x="598.3168" y="-211.3" font-family="Helvetica,sans-Serif" font-size="16.00" fill="#000000">1 &gt;</text>
</a>
</g>
</g>
<!-- locations_cities&#45;&gt;locations_feature_codes -->
<g id="edge10" class="edge">
<title>locations_cities:w&#45;&gt;locations_feature_codes:e</title>
<path fill="none" stroke="#000000" d="M709.8611,-221.4596C676.2547,-225.1128 664.2055,-240.7 624,-240.7"/>
<polygon fill="#000000" stroke="#000000" points="716.5107,-221.1146 724.6866,-224.2952 720.5054,-220.9073 724.5,-220.7 724.5,-220.7 724.5,-220.7 720.5054,-220.9073 724.3134,-217.1048 716.5107,-221.1146 716.5107,-221.1146"/>
<ellipse fill="none" stroke="#000000" cx="713.315" cy="-221.2805" rx="3.2" ry="3.2"/>
</g>
<!-- journal_entry_tags -->
<g id="node5" class="node">
<title>journal_entry_tags</title>
<g id="a_node5"><a xlink:href="../../tables/journal_entry_tags.html" xlink:title="journal_entry_tags" target="_top">
<polygon fill="#ffffff" stroke="transparent" points="1481,-547.2 1481,-670.2 1686,-670.2 1686,-547.2 1481,-547.2"/>
<polygon fill="#f5f5f5" stroke="transparent" points="1481.5,-640.7 1481.5,-669.7 1686.5,-669.7 1686.5,-640.7 1481.5,-640.7"/>
<polygon fill="none" stroke="#000000" points="1481.5,-640.7 1481.5,-669.7 1686.5,-669.7 1686.5,-640.7 1481.5,-640.7"/>
<text text-anchor="start" x="1486.5" y="-647.8" font-family="Helvetica,sans-Serif" font-weight="bold" font-size="16.00" fill="#000000">journal_entry_tags</text>
<text text-anchor="start" x="1638.2136" y="-650.3" font-family="Helvetica,sans-Serif" font-size="16.00" fill="#000000">[table]</text>
<polygon fill="#ffffff" stroke="transparent" points="1481.5,-618.7 1481.5,-640.7 1686.5,-640.7 1686.5,-618.7 1481.5,-618.7"/>
<polygon fill="none" stroke="#000000" points="1481.5,-618.7 1481.5,-640.7 1686.5,-640.7 1686.5,-618.7 1481.5,-618.7"/>
<image xlink:href="../../images/foreignKeys.png" width="11px" height="12px" preserveAspectRatio="xMinYMin meet" x="1486.5" y="-635.7"/>
<text text-anchor="start" x="1517.5" y="-621.3" font-family="Helvetica,sans-Serif" font-size="16.00" fill="#000000">journal_entry_id</text>
<polygon fill="#ffffff" stroke="transparent" points="1481.5,-596.7 1481.5,-618.7 1686.5,-618.7 1686.5,-596.7 1481.5,-596.7"/>
<polygon fill="none" stroke="#000000" points="1481.5,-596.7 1481.5,-618.7 1686.5,-618.7 1686.5,-596.7 1481.5,-596.7"/>
<image xlink:href="../../images/foreignKeys.png" width="11px" height="12px" preserveAspectRatio="xMinYMin meet" x="1486.5" y="-613.7"/>
<text text-anchor="start" x="1517.5" y="-599.3" font-family="Helvetica,sans-Serif" font-size="16.00" fill="#000000">tag_id</text>
<polygon fill="none" stroke="#000000" points="1481.5,-571.7 1481.5,-596.7 1686.5,-596.7 1686.5,-571.7 1481.5,-571.7"/>
<text text-anchor="start" x="1484.5" y="-579.3" font-family="Helvetica,sans-Serif" font-size="16.00" fill="#000000">...</text>
<polygon fill="#ffffff" stroke="transparent" points="1481.5,-546.7 1481.5,-571.7 1564.5,-571.7 1564.5,-546.7 1481.5,-546.7"/>
<polygon fill="none" stroke="#000000" points="1481.5,-546.7 1481.5,-571.7 1564.5,-571.7 1564.5,-546.7 1481.5,-546.7"/>
<text text-anchor="start" x="1484.5" y="-554.3" font-family="Helvetica,sans-Serif" font-size="16.00" fill="#000000">&lt; 2</text>
<polygon fill="#ffffff" stroke="transparent" points="1564.5,-546.7 1564.5,-571.7 1644.5,-571.7 1644.5,-546.7 1564.5,-546.7"/>
<polygon fill="none" stroke="#000000" points="1564.5,-546.7 1564.5,-571.7 1644.5,-571.7 1644.5,-546.7 1564.5,-546.7"/>
<text text-anchor="start" x="1594.388" y="-554.3" font-family="Helvetica,sans-Serif" font-size="16.00" fill="#000000">2 rows</text>
<polygon fill="#ffffff" stroke="transparent" points="1644.5,-546.7 1644.5,-571.7 1686.5,-571.7 1686.5,-546.7 1644.5,-546.7"/>
<polygon fill="none" stroke="#000000" points="1644.5,-546.7 1644.5,-571.7 1686.5,-571.7 1686.5,-546.7 1644.5,-546.7"/>
<text text-anchor="start" x="1674.6072" y="-554.3" font-family="Helvetica,sans-Serif" font-size="16.00" fill="#000000"> &#160;</text>
</a>
</g>
</g>
<!-- journal_entry_tags&#45;&gt;journal_entries -->
<g id="edge4" class="edge">
<title>journal_entry_tags:w&#45;&gt;journal_entries:e</title>
<path fill="none" stroke="#000000" d="M1467.1009,-631.5433C1393.0264,-653.2155 1528.8185,-858.7 1430,-858.7"/>
<polygon fill="#000000" stroke="#000000" points="1473.5648,-630.7159 1481.9572,-633.2709 1477.5324,-630.2079 1481.5,-629.7 1481.5,-629.7 1481.5,-629.7 1477.5324,-630.2079 1481.0428,-626.1291 1473.5648,-630.7159 1473.5648,-630.7159"/>
<ellipse fill="none" stroke="#000000" cx="1470.3907" cy="-631.1222" rx="3.2" ry="3.2"/>
</g>
<!-- tags -->
<g id="node6" class="node">
<title>tags</title>
<g id="a_node6"><a xlink:href="../../tables/tags.html" xlink:title="tags" target="_top">
<polygon fill="#ffffff" stroke="transparent" points="1185,-343.2 1185,-422.2 1297,-422.2 1297,-343.2 1185,-343.2"/>
<polygon fill="#f5f5f5" stroke="transparent" points="1185,-392.7 1185,-421.7 1297,-421.7 1297,-392.7 1185,-392.7"/>
<polygon fill="none" stroke="#000000" points="1185,-392.7 1185,-421.7 1297,-421.7 1297,-392.7 1185,-392.7"/>
<text text-anchor="start" x="1189.8824" y="-399.8" font-family="Helvetica,sans-Serif" font-weight="bold" font-size="16.00" fill="#000000">tags</text>
<text text-anchor="start" x="1248.4272" y="-402.3" font-family="Helvetica,sans-Serif" font-size="16.00" fill="#000000">[table]</text>
<polygon fill="none" stroke="#000000" points="1185,-367.7 1185,-392.7 1297,-392.7 1297,-367.7 1185,-367.7"/>
<text text-anchor="start" x="1188" y="-375.3" font-family="Helvetica,sans-Serif" font-size="16.00" fill="#000000">...</text>
<polygon fill="#ffffff" stroke="transparent" points="1185,-342.7 1185,-367.7 1199,-367.7 1199,-342.7 1185,-342.7"/>
<polygon fill="none" stroke="#000000" points="1185,-342.7 1185,-367.7 1199,-367.7 1199,-342.7 1185,-342.7"/>
<text text-anchor="start" x="1187.5536" y="-350.3" font-family="Helvetica,sans-Serif" font-size="16.00" fill="#000000"> &#160;</text>
<polygon fill="#ffffff" stroke="transparent" points="1199,-342.7 1199,-367.7 1269,-367.7 1269,-342.7 1199,-342.7"/>
<polygon fill="none" stroke="#000000" points="1199,-342.7 1199,-367.7 1269,-367.7 1269,-342.7 1199,-342.7"/>
<text text-anchor="start" x="1201.5496" y="-350.3" font-family="Helvetica,sans-Serif" font-size="16.00" fill="#000000">167 rows</text>
<polygon fill="#ffffff" stroke="transparent" points="1269,-342.7 1269,-367.7 1297,-367.7 1297,-342.7 1269,-342.7"/>
<polygon fill="none" stroke="#000000" points="1269,-342.7 1269,-367.7 1297,-367.7 1297,-342.7 1269,-342.7"/>
<text text-anchor="start" x="1271.6584" y="-350.3" font-family="Helvetica,sans-Serif" font-size="16.00" fill="#000000">3 &gt;</text>
</a>
</g>
</g>
<!-- journal_entry_tags&#45;&gt;tags -->
<g id="edge5" class="edge">
<title>journal_entry_tags:w&#45;&gt;tags:e</title>
<path fill="none" stroke="#000000" d="M1467.1431,-606.063C1414.0224,-591.8925 1488.8439,-489.1736 1440,-433.7 1395.1055,-382.7118 1364.9361,-379.7 1297,-379.7"/>
<polygon fill="#000000" stroke="#000000" points="1473.5515,-606.7937 1481.0922,-611.2768 1477.5257,-607.2468 1481.5,-607.7 1481.5,-607.7 1481.5,-607.7 1477.5257,-607.2468 1481.9078,-604.1232 1473.5515,-606.7937 1473.5515,-606.7937"/>
<ellipse fill="none" stroke="#000000" cx="1470.3721" cy="-606.4311" rx="3.2" ry="3.2"/>
</g>
<!-- locations_administrative_divisions_1&#45;&gt;locations_countries -->
<g id="edge6" class="edge">
<title>locations_administrative_divisions_1:w&#45;&gt;locations_countries:e</title>
<path fill="none" stroke="#000000" d="M306.4948,-114.6684C283.7741,-121.3426 276.9437,-142.7 247,-142.7"/>
<polygon fill="#000000" stroke="#000000" points="313.0727,-113.7758 321.4841,-116.2673 317.0363,-113.2379 321,-112.7 321,-112.7 321,-112.7 317.0363,-113.2379 320.5159,-109.1327 313.0727,-113.7758 313.0727,-113.7758"/>
<ellipse fill="none" stroke="#000000" cx="309.9017" cy="-114.2061" rx="3.2" ry="3.2"/>
</g>
<!-- locations_feature_codes&#45;&gt;locations_feature_classes -->
<g id="edge11" class="edge">
<title>locations_feature_codes:w&#45;&gt;locations_feature_classes:e</title>
<path fill="none" stroke="#000000" d="M357.5327,-241.8745C323.2304,-247.7531 313.5001,-273.7 272,-273.7"/>
<polygon fill="#000000" stroke="#000000" points="364.0262,-241.3474 372.2913,-244.2882 368.0131,-241.0237 372,-240.7 372,-240.7 372,-240.7 368.0131,-241.0237 371.7087,-237.1118 364.0262,-241.3474 364.0262,-241.3474"/>
<ellipse fill="none" stroke="#000000" cx="360.8367" cy="-241.6063" rx="3.2" ry="3.2"/>
</g>
</g>
</svg>
