<?xml version="1.0" encoding="UTF-8" standalone="no"?>
<!DOCTYPE svg PUBLIC "-//W3C//DTD SVG 1.1//EN"
 "http://www.w3.org/Graphics/SVG/1.1/DTD/svg11.dtd">
<!-- Generated by graphviz version 2.40.1 (20161225.0304)
 -->
<!-- Title: oneDegreeRelationshipsDiagram Pages: 1 -->
<svg width="986pt" height="914pt"
 viewBox="0.00 0.00 986.00 913.70" xmlns="http://www.w3.org/2000/svg" xmlns:xlink="http://www.w3.org/1999/xlink">
<g id="graph0" class="graph" transform="scale(1 1) rotate(0) translate(4 909.7)">
<title>oneDegreeRelationshipsDiagram</title>
<polygon fill="#ffffff" stroke="transparent" points="-4,4 -4,-909.7 982,-909.7 982,4 -4,4"/>
<text text-anchor="middle" x="101.8088" y="-8.8" font-family="Helvetica,sans-Serif" font-size="16.00" fill="#000000">Generated by SchemaSpy</text>
<!-- journal_entries -->
<g id="node1" class="node">
<title>journal_entries</title>
<g id="a_node1"><a xlink:href="../../tables/journal_entries.html" xlink:title="journal_entries" target="_top">
<polygon fill="#ffffff" stroke="transparent" points="334,-443.7 334,-901.7 716,-901.7 716,-443.7 334,-443.7"/>
<polygon fill="#f5f5f5" stroke="transparent" points="336,-870.7 336,-899.7 714,-899.7 714,-870.7 336,-870.7"/>
<polygon fill="none" stroke="#000000" points="336,-870.7 336,-899.7 714,-899.7 714,-870.7 336,-870.7"/>
<text text-anchor="start" x="341" y="-877.8" font-family="Helvetica,sans-Serif" font-weight="bold" font-size="16.00" fill="#000000">journal_entries</text>
<text text-anchor="start" x="665.4272" y="-880.3" font-family="Helvetica,sans-Serif" font-size="16.00" fill="#000000">[table]</text>
<polygon fill="none" stroke="#000000" points="336,-845.7 336,-870.7 532,-870.7 532,-845.7 336,-845.7"/>
<image xlink:href="../../images/primaryKeys.png" width="11px" height="12px" preserveAspectRatio="xMinYMin meet" x="341" y="-864.2"/>
<text text-anchor="start" x="356" y="-849.8" font-family="Helvetica,sans-Serif" font-size="16.00" fill="#000000">id</text>
<polygon fill="none" stroke="#000000" points="532,-845.7 532,-870.7 714,-870.7 714,-845.7 532,-845.7"/>
<text text-anchor="start" x="535" y="-853.3" font-family="Helvetica,sans-Serif" font-size="16.00" fill="#000000">text[2000000000]</text>
<polygon fill="#ffffff" stroke="transparent" points="336,-820.7 336,-845.7 532,-845.7 532,-820.7 336,-820.7"/>
<polygon fill="none" stroke="#000000" points="336,-820.7 336,-845.7 532,-845.7 532,-820.7 336,-820.7"/>
<text text-anchor="start" x="356" y="-824.8" font-family="Helvetica,sans-Serif" font-size="16.00" fill="#000000">journal_for</text>
<polygon fill="none" stroke="#000000" points="532,-820.7 532,-845.7 714,-845.7 714,-820.7 532,-820.7"/>
<text text-anchor="start" x="535" y="-828.3" font-family="Helvetica,sans-Serif" font-size="16.00" fill="#000000">text[2000000000]</text>
<polygon fill="none" stroke="#000000" points="336,-795.7 336,-820.7 532,-820.7 532,-795.7 336,-795.7"/>
<text text-anchor="start" x="356" y="-799.8" font-family="Helvetica,sans-Serif" font-size="16.00" fill="#000000">entry_text_markdown</text>
<polygon fill="none" stroke="#000000" points="532,-795.7 532,-820.7 714,-820.7 714,-795.7 532,-795.7"/>
<text text-anchor="start" x="535" y="-803.3" font-family="Helvetica,sans-Serif" font-size="16.00" fill="#000000">text[2000000000]</text>
<polygon fill="none" stroke="#000000" points="336,-770.7 336,-795.7 532,-795.7 532,-770.7 336,-770.7"/>
<text text-anchor="start" x="356" y="-774.8" font-family="Helvetica,sans-Serif" font-size="16.00" fill="#000000">entry_text_html</text>
<polygon fill="none" stroke="#000000" points="532,-770.7 532,-795.7 714,-795.7 714,-770.7 532,-770.7"/>
<text text-anchor="start" x="535" y="-778.3" font-family="Helvetica,sans-Serif" font-size="16.00" fill="#000000">text[2000000000]</text>
<polygon fill="none" stroke="#000000" points="336,-745.7 336,-770.7 532,-770.7 532,-745.7 336,-745.7"/>
<text text-anchor="start" x="356" y="-749.8" font-family="Helvetica,sans-Serif" font-size="16.00" fill="#000000">highlights</text>
<polygon fill="none" stroke="#000000" points="532,-745.7 532,-770.7 714,-770.7 714,-745.7 532,-745.7"/>
<text text-anchor="start" x="535" y="-753.3" font-family="Helvetica,sans-Serif" font-size="16.00" fill="#000000">text[2000000000]</text>
<polygon fill="#ffffff" stroke="transparent" points="336,-720.7 336,-745.7 532,-745.7 532,-720.7 336,-720.7"/>
<polygon fill="none" stroke="#000000" points="336,-720.7 336,-745.7 532,-745.7 532,-720.7 336,-720.7"/>
<image xlink:href="../../images/foreignKeys.png" width="11px" height="12px" preserveAspectRatio="xMinYMin meet" x="341" y="-739.2"/>
<text text-anchor="start" x="356" y="-724.8" font-family="Helvetica,sans-Serif" font-size="16.00" fill="#000000">entry_type_id</text>
<polygon fill="none" stroke="#000000" points="532,-720.7 532,-745.7 714,-745.7 714,-720.7 532,-720.7"/>
<text text-anchor="start" x="535" y="-728.3" font-family="Helvetica,sans-Serif" font-size="16.00" fill="#000000">text[2000000000]</text>
<polygon fill="none" stroke="#000000" points="336,-695.7 336,-720.7 532,-720.7 532,-695.7 336,-695.7"/>
<text text-anchor="start" x="356" y="-699.8" font-family="Helvetica,sans-Serif" font-size="16.00" fill="#000000">latitude</text>
<polygon fill="none" stroke="#000000" points="532,-695.7 532,-720.7 714,-720.7 714,-695.7 532,-695.7"/>
<text text-anchor="start" x="534.5208" y="-703.3" font-family="Helvetica,sans-Serif" font-size="16.00" fill="#000000">numeric[2000000000,10]</text>
<polygon fill="none" stroke="#000000" points="336,-670.7 336,-695.7 532,-695.7 532,-670.7 336,-670.7"/>
<text text-anchor="start" x="356" y="-674.8" font-family="Helvetica,sans-Serif" font-size="16.00" fill="#000000">longitude</text>
<polygon fill="none" stroke="#000000" points="532,-670.7 532,-695.7 714,-695.7 714,-670.7 532,-670.7"/>
<text text-anchor="start" x="534.5208" y="-678.3" font-family="Helvetica,sans-Serif" font-size="16.00" fill="#000000">numeric[2000000000,10]</text>
<polygon fill="none" stroke="#000000" points="336,-645.7 336,-670.7 532,-670.7 532,-645.7 336,-645.7"/>
<text text-anchor="start" x="356" y="-649.8" font-family="Helvetica,sans-Serif" font-size="16.00" fill="#000000">mood</text>
<polygon fill="none" stroke="#000000" points="532,-645.7 532,-670.7 714,-670.7 714,-645.7 532,-645.7"/>
<text text-anchor="start" x="535" y="-653.3" font-family="Helvetica,sans-Serif" font-size="16.00" fill="#000000">text[2000000000]</text>
<polygon fill="#ffffff" stroke="transparent" points="336,-620.7 336,-645.7 532,-645.7 532,-620.7 336,-620.7"/>
<polygon fill="none" stroke="#000000" points="336,-620.7 336,-645.7 532,-645.7 532,-620.7 336,-620.7"/>
<text text-anchor="start" x="356" y="-624.8" font-family="Helvetica,sans-Serif" font-size="16.00" fill="#000000">is_private</text>
<polygon fill="none" stroke="#000000" points="532,-620.7 532,-645.7 714,-645.7 714,-620.7 532,-620.7"/>
<text text-anchor="start" x="535" y="-628.3" font-family="Helvetica,sans-Serif" font-size="16.00" fill="#000000">integer[2000000000]</text>
<polygon fill="none" stroke="#000000" points="336,-595.7 336,-620.7 532,-620.7 532,-595.7 336,-595.7"/>
<text text-anchor="start" x="356" y="-599.8" font-family="Helvetica,sans-Serif" font-size="16.00" fill="#000000">is_short_entry</text>
<polygon fill="none" stroke="#000000" points="532,-595.7 532,-620.7 714,-620.7 714,-595.7 532,-595.7"/>
<text text-anchor="start" x="535" y="-603.3" font-family="Helvetica,sans-Serif" font-size="16.00" fill="#000000">integer[2000000000]</text>
<polygon fill="none" stroke="#000000" points="336,-570.7 336,-595.7 532,-595.7 532,-570.7 336,-570.7"/>
<text text-anchor="start" x="356" y="-574.8" font-family="Helvetica,sans-Serif" font-size="16.00" fill="#000000">is_scheduled</text>
<polygon fill="none" stroke="#000000" points="532,-570.7 532,-595.7 714,-595.7 714,-570.7 532,-570.7"/>
<text text-anchor="start" x="535" y="-578.3" font-family="Helvetica,sans-Serif" font-size="16.00" fill="#000000">integer[2000000000]</text>
<polygon fill="#ffffff" stroke="transparent" points="336,-545.7 336,-570.7 532,-570.7 532,-545.7 336,-545.7"/>
<polygon fill="none" stroke="#000000" points="336,-545.7 336,-570.7 532,-570.7 532,-545.7 336,-545.7"/>
<image xlink:href="../../images/foreignKeys.png" width="11px" height="12px" preserveAspectRatio="xMinYMin meet" x="341" y="-564.2"/>
<text text-anchor="start" x="356" y="-549.8" font-family="Helvetica,sans-Serif" font-size="16.00" fill="#000000">user_id</text>
<polygon fill="none" stroke="#000000" points="532,-545.7 532,-570.7 714,-570.7 714,-545.7 532,-545.7"/>
<text text-anchor="start" x="535" y="-553.3" font-family="Helvetica,sans-Serif" font-size="16.00" fill="#000000">text[2000000000]</text>
<polygon fill="#ffffff" stroke="transparent" points="336,-520.7 336,-545.7 532,-545.7 532,-520.7 336,-520.7"/>
<polygon fill="none" stroke="#000000" points="336,-520.7 336,-545.7 532,-545.7 532,-520.7 336,-520.7"/>
<text text-anchor="start" x="356" y="-524.8" font-family="Helvetica,sans-Serif" font-size="16.00" fill="#000000">inserted_at</text>
<polygon fill="none" stroke="#000000" points="532,-520.7 532,-545.7 714,-545.7 714,-520.7 532,-520.7"/>
<text text-anchor="start" x="535" y="-528.3" font-family="Helvetica,sans-Serif" font-size="16.00" fill="#000000">text[2000000000]</text>
<polygon fill="none" stroke="#000000" points="336,-495.7 336,-520.7 532,-520.7 532,-495.7 336,-495.7"/>
<text text-anchor="start" x="356" y="-499.8" font-family="Helvetica,sans-Serif" font-size="16.00" fill="#000000">updated_at</text>
<polygon fill="none" stroke="#000000" points="532,-495.7 532,-520.7 714,-520.7 714,-495.7 532,-495.7"/>
<text text-anchor="start" x="535" y="-503.3" font-family="Helvetica,sans-Serif" font-size="16.00" fill="#000000">text[2000000000]</text>
<polygon fill="none" stroke="#000000" points="336,-470.7 336,-495.7 532,-495.7 532,-470.7 336,-470.7"/>
<image xlink:href="../../images/foreignKeys.png" width="11px" height="12px" preserveAspectRatio="xMinYMin meet" x="341" y="-489.2"/>
<text text-anchor="start" x="356" y="-474.8" font-family="Helvetica,sans-Serif" font-size="16.00" fill="#000000">location_id</text>
<polygon fill="none" stroke="#000000" points="532,-470.7 532,-495.7 714,-495.7 714,-470.7 532,-470.7"/>
<text text-anchor="start" x="535" y="-478.3" font-family="Helvetica,sans-Serif" font-size="16.00" fill="#000000">text[2000000000]</text>
<polygon fill="#ffffff" stroke="transparent" points="336,-445.7 336,-470.7 421,-470.7 421,-445.7 336,-445.7"/>
<polygon fill="none" stroke="#000000" points="336,-445.7 336,-470.7 421,-470.7 421,-445.7 336,-445.7"/>
<text text-anchor="start" x="339" y="-453.3" font-family="Helvetica,sans-Serif" font-size="16.00" fill="#000000">&lt; 3</text>
<polygon fill="#ffffff" stroke="transparent" points="421,-445.7 421,-470.7 532,-470.7 532,-445.7 421,-445.7"/>
<polygon fill="none" stroke="#000000" points="421,-445.7 421,-470.7 532,-470.7 532,-445.7 421,-445.7"/>
<text text-anchor="start" x="481.888" y="-453.3" font-family="Helvetica,sans-Serif" font-size="16.00" fill="#000000">2 rows</text>
<polygon fill="#ffffff" stroke="transparent" points="532,-445.7 532,-470.7 714,-470.7 714,-445.7 532,-445.7"/>
<polygon fill="none" stroke="#000000" points="532,-445.7 532,-470.7 714,-470.7 714,-445.7 532,-445.7"/>
<text text-anchor="start" x="688.3168" y="-453.3" font-family="Helvetica,sans-Serif" font-size="16.00" fill="#000000">1 &gt;</text>
<polygon fill="none" stroke="#000000" stroke-width="2" points="335,-444.7 335,-900.7 715,-900.7 715,-444.7 335,-444.7"/>
</a>
</g>
</g>
<!-- journal_entry_types -->
<g id="node2" class="node">
<title>journal_entry_types</title>
<g id="a_node2"><a xlink:href="../../tables/journal_entry_types.html" xlink:title="journal_entry_types" target="_top">
<polygon fill="#ffffff" stroke="transparent" points="39.5,-629.2 39.5,-774.2 253.5,-774.2 253.5,-629.2 39.5,-629.2"/>
<polygon fill="#f5f5f5" stroke="transparent" points="39.5,-744.7 39.5,-773.7 253.5,-773.7 253.5,-744.7 39.5,-744.7"/>
<polygon fill="none" stroke="#000000" points="39.5,-744.7 39.5,-773.7 253.5,-773.7 253.5,-744.7 39.5,-744.7"/>
<text text-anchor="start" x="44.5" y="-751.8" font-family="Helvetica,sans-Serif" font-weight="bold" font-size="16.00" fill="#000000">journal_entry_types</text>
<text text-anchor="start" x="205.2136" y="-754.3" font-family="Helvetica,sans-Serif" font-size="16.00" fill="#000000">[table]</text>
<polygon fill="none" stroke="#000000" points="39.5,-722.7 39.5,-744.7 253.5,-744.7 253.5,-722.7 39.5,-722.7"/>
<image xlink:href="../../images/primaryKeys.png" width="11px" height="12px" preserveAspectRatio="xMinYMin meet" x="44.5" y="-739.7"/>
<text text-anchor="start" x="75.5" y="-725.3" font-family="Helvetica,sans-Serif" font-size="16.00" fill="#000000">id</text>
<polygon fill="#ffffff" stroke="transparent" points="39.5,-700.7 39.5,-722.7 253.5,-722.7 253.5,-700.7 39.5,-700.7"/>
<polygon fill="none" stroke="#000000" points="39.5,-700.7 39.5,-722.7 253.5,-722.7 253.5,-700.7 39.5,-700.7"/>
<text text-anchor="start" x="75.5" y="-703.3" font-family="Helvetica,sans-Serif" font-size="16.00" fill="#000000">name</text>
<polygon fill="#ffffff" stroke="transparent" points="39.5,-678.7 39.5,-700.7 253.5,-700.7 253.5,-678.7 39.5,-678.7"/>
<polygon fill="none" stroke="#000000" points="39.5,-678.7 39.5,-700.7 253.5,-700.7 253.5,-678.7 39.5,-678.7"/>
<text text-anchor="start" x="75.5" y="-681.3" font-family="Helvetica,sans-Serif" font-size="16.00" fill="#000000">active</text>
<polygon fill="none" stroke="#000000" points="39.5,-653.7 39.5,-678.7 253.5,-678.7 253.5,-653.7 39.5,-653.7"/>
<text text-anchor="start" x="42.5" y="-661.3" font-family="Helvetica,sans-Serif" font-size="16.00" fill="#000000">...</text>
<polygon fill="#ffffff" stroke="transparent" points="39.5,-628.7 39.5,-653.7 112.5,-653.7 112.5,-628.7 39.5,-628.7"/>
<polygon fill="none" stroke="#000000" points="39.5,-628.7 39.5,-653.7 112.5,-653.7 112.5,-628.7 39.5,-628.7"/>
<text text-anchor="start" x="42.5" y="-636.3" font-family="Helvetica,sans-Serif" font-size="16.00" fill="#000000"> &#160;</text>
<polygon fill="#ffffff" stroke="transparent" points="112.5,-628.7 112.5,-653.7 195.5,-653.7 195.5,-628.7 112.5,-628.7"/>
<polygon fill="none" stroke="#000000" points="112.5,-628.7 112.5,-653.7 195.5,-653.7 195.5,-628.7 112.5,-628.7"/>
<text text-anchor="start" x="145.388" y="-636.3" font-family="Helvetica,sans-Serif" font-size="16.00" fill="#000000">2 rows</text>
<polygon fill="#ffffff" stroke="transparent" points="195.5,-628.7 195.5,-653.7 253.5,-653.7 253.5,-628.7 195.5,-628.7"/>
<polygon fill="none" stroke="#000000" points="195.5,-628.7 195.5,-653.7 253.5,-653.7 253.5,-628.7 195.5,-628.7"/>
<text text-anchor="start" x="227.8168" y="-636.3" font-family="Helvetica,sans-Serif" font-size="16.00" fill="#000000">1 &gt;</text>
</a>
</g>
</g>
<!-- journal_entries&#45;&gt;journal_entry_types -->
<g id="edge1" class="edge">
<title>journal_entries:w&#45;&gt;journal_entry_types:e</title>
<path fill="none" stroke="#000000" d="M321.3098,-733.7C296.0061,-733.7 284.724,-733.7 253.5,-733.7"/>
<polygon fill="#000000" stroke="#000000" points="328,-733.7001 336,-737.3 332,-733.7 336,-733.7 336,-733.7 336,-733.7 332,-733.7 336,-730.1 328,-733.7001 328,-733.7001"/>
<ellipse fill="none" stroke="#000000" cx="324.8" cy="-733.7001" rx="3.2" ry="3.2"/>
</g>
<!-- locations_cities -->
<g id="node3" class="node">
<title>locations_cities</title>
<g id="a_node3"><a xlink:href="../../tables/locations_cities.html" xlink:title="locations_cities" target="_top">
<polygon fill="#ffffff" stroke="transparent" points="8,-50.2 8,-393.2 285,-393.2 285,-50.2 8,-50.2"/>
<polygon fill="#f5f5f5" stroke="transparent" points="8.5,-363.7 8.5,-392.7 285.5,-392.7 285.5,-363.7 8.5,-363.7"/>
<polygon fill="none" stroke="#000000" points="8.5,-363.7 8.5,-392.7 285.5,-392.7 285.5,-363.7 8.5,-363.7"/>
<text text-anchor="start" x="13.5" y="-370.8" font-family="Helvetica,sans-Serif" font-weight="bold" font-size="16.00" fill="#000000">locations_cities</text>
<text text-anchor="start" x="236.9272" y="-373.3" font-family="Helvetica,sans-Serif" font-size="16.00" fill="#000000">[table]</text>
<polygon fill="none" stroke="#000000" points="8.5,-341.7 8.5,-363.7 285.5,-363.7 285.5,-341.7 8.5,-341.7"/>
<image xlink:href="../../images/primaryKeys.png" width="11px" height="12px" preserveAspectRatio="xMinYMin meet" x="13.5" y="-358.7"/>
<text text-anchor="start" x="28.5" y="-344.3" font-family="Helvetica,sans-Serif" font-size="16.00" fill="#000000">id</text>
<polygon fill="#ffffff" stroke="transparent" points="8.5,-319.7 8.5,-341.7 285.5,-341.7 285.5,-319.7 8.5,-319.7"/>
<polygon fill="none" stroke="#000000" points="8.5,-319.7 8.5,-341.7 285.5,-341.7 285.5,-319.7 8.5,-319.7"/>
<text text-anchor="start" x="28.5" y="-322.3" font-family="Helvetica,sans-Serif" font-size="16.00" fill="#000000">geoname_id</text>
<polygon fill="#ffffff" stroke="transparent" points="8.5,-297.7 8.5,-319.7 285.5,-319.7 285.5,-297.7 8.5,-297.7"/>
<polygon fill="none" stroke="#000000" points="8.5,-297.7 8.5,-319.7 285.5,-319.7 285.5,-297.7 8.5,-297.7"/>
<text text-anchor="start" x="28.5" y="-300.3" font-family="Helvetica,sans-Serif" font-size="16.00" fill="#000000">name</text>
<polygon fill="#ffffff" stroke="transparent" points="8.5,-275.7 8.5,-297.7 285.5,-297.7 285.5,-275.7 8.5,-275.7"/>
<polygon fill="none" stroke="#000000" points="8.5,-275.7 8.5,-297.7 285.5,-297.7 285.5,-275.7 8.5,-275.7"/>
<text text-anchor="start" x="28.5" y="-278.3" font-family="Helvetica,sans-Serif" font-size="16.00" fill="#000000">latitude</text>
<polygon fill="#ffffff" stroke="transparent" points="8.5,-253.7 8.5,-275.7 285.5,-275.7 285.5,-253.7 8.5,-253.7"/>
<polygon fill="none" stroke="#000000" points="8.5,-253.7 8.5,-275.7 285.5,-275.7 285.5,-253.7 8.5,-253.7"/>
<text text-anchor="start" x="28.5" y="-256.3" font-family="Helvetica,sans-Serif" font-size="16.00" fill="#000000">longitude</text>
<polygon fill="none" stroke="#000000" points="8.5,-231.7 8.5,-253.7 285.5,-253.7 285.5,-231.7 8.5,-231.7"/>
<image xlink:href="../../images/foreignKeys.png" width="11px" height="12px" preserveAspectRatio="xMinYMin meet" x="13.5" y="-248.7"/>
<text text-anchor="start" x="28.5" y="-234.3" font-family="Helvetica,sans-Serif" font-size="16.00" fill="#000000">feature_class</text>
<polygon fill="#ffffff" stroke="transparent" points="8.5,-209.7 8.5,-231.7 285.5,-231.7 285.5,-209.7 8.5,-209.7"/>
<polygon fill="none" stroke="#000000" points="8.5,-209.7 8.5,-231.7 285.5,-231.7 285.5,-209.7 8.5,-209.7"/>
<image xlink:href="../../images/foreignKeys.png" width="11px" height="12px" preserveAspectRatio="xMinYMin meet" x="13.5" y="-226.7"/>
<text text-anchor="start" x="28.5" y="-212.3" font-family="Helvetica,sans-Serif" font-size="16.00" fill="#000000">feature_code</text>
<polygon fill="#ffffff" stroke="transparent" points="8.5,-187.7 8.5,-209.7 285.5,-209.7 285.5,-187.7 8.5,-187.7"/>
<polygon fill="none" stroke="#000000" points="8.5,-187.7 8.5,-209.7 285.5,-209.7 285.5,-187.7 8.5,-187.7"/>
<image xlink:href="../../images/foreignKeys.png" width="11px" height="12px" preserveAspectRatio="xMinYMin meet" x="13.5" y="-204.7"/>
<text text-anchor="start" x="28.5" y="-190.3" font-family="Helvetica,sans-Serif" font-size="16.00" fill="#000000">country_code</text>
<polygon fill="#ffffff" stroke="transparent" points="8.5,-165.7 8.5,-187.7 285.5,-187.7 285.5,-165.7 8.5,-165.7"/>
<polygon fill="none" stroke="#000000" points="8.5,-165.7 8.5,-187.7 285.5,-187.7 285.5,-165.7 8.5,-165.7"/>
<image xlink:href="../../images/foreignKeys.png" width="11px" height="12px" preserveAspectRatio="xMinYMin meet" x="13.5" y="-182.7"/>
<text text-anchor="start" x="28.5" y="-168.3" font-family="Helvetica,sans-Serif" font-size="16.00" fill="#000000">administrative_division_1_code</text>
<polygon fill="#ffffff" stroke="transparent" points="8.5,-143.7 8.5,-165.7 285.5,-165.7 285.5,-143.7 8.5,-143.7"/>
<polygon fill="none" stroke="#000000" points="8.5,-143.7 8.5,-165.7 285.5,-165.7 285.5,-143.7 8.5,-143.7"/>
<image xlink:href="../../images/foreignKeys.png" width="11px" height="12px" preserveAspectRatio="xMinYMin meet" x="13.5" y="-160.7"/>
<text text-anchor="start" x="28.5" y="-146.3" font-family="Helvetica,sans-Serif" font-size="16.00" fill="#000000">administrative_division_2_code</text>
<polygon fill="#ffffff" stroke="transparent" points="8.5,-121.7 8.5,-143.7 285.5,-143.7 285.5,-121.7 8.5,-121.7"/>
<polygon fill="none" stroke="#000000" points="8.5,-121.7 8.5,-143.7 285.5,-143.7 285.5,-121.7 8.5,-121.7"/>
<text text-anchor="start" x="28.5" y="-124.3" font-family="Helvetica,sans-Serif" font-size="16.00" fill="#000000">population</text>
<polygon fill="#ffffff" stroke="transparent" points="8.5,-99.7 8.5,-121.7 285.5,-121.7 285.5,-99.7 8.5,-99.7"/>
<polygon fill="none" stroke="#000000" points="8.5,-99.7 8.5,-121.7 285.5,-121.7 285.5,-99.7 8.5,-99.7"/>
<text text-anchor="start" x="28.5" y="-102.3" font-family="Helvetica,sans-Serif" font-size="16.00" fill="#000000">timezone</text>
<polygon fill="none" stroke="#000000" points="8.5,-74.7 8.5,-99.7 285.5,-99.7 285.5,-74.7 8.5,-74.7"/>
<text text-anchor="start" x="11.5" y="-82.3" font-family="Helvetica,sans-Serif" font-size="16.00" fill="#000000">...</text>
<polygon fill="#ffffff" stroke="transparent" points="8.5,-49.7 8.5,-74.7 95.5,-74.7 95.5,-49.7 8.5,-49.7"/>
<polygon fill="none" stroke="#000000" points="8.5,-49.7 8.5,-74.7 95.5,-74.7 95.5,-49.7 8.5,-49.7"/>
<text text-anchor="start" x="11.5" y="-57.3" font-family="Helvetica,sans-Serif" font-size="16.00" fill="#000000">&lt; 4</text>
<polygon fill="#ffffff" stroke="transparent" points="95.5,-49.7 95.5,-74.7 227.5,-74.7 227.5,-49.7 95.5,-49.7"/>
<polygon fill="none" stroke="#000000" points="95.5,-49.7 95.5,-74.7 227.5,-74.7 227.5,-49.7 95.5,-49.7"/>
<text text-anchor="start" x="128.4696" y="-57.3" font-family="Helvetica,sans-Serif" font-size="16.00" fill="#000000">210,698 rows</text>
<polygon fill="#ffffff" stroke="transparent" points="227.5,-49.7 227.5,-74.7 285.5,-74.7 285.5,-49.7 227.5,-49.7"/>
<polygon fill="none" stroke="#000000" points="227.5,-49.7 227.5,-74.7 285.5,-74.7 285.5,-49.7 227.5,-49.7"/>
<text text-anchor="start" x="259.8168" y="-57.3" font-family="Helvetica,sans-Serif" font-size="16.00" fill="#000000">1 &gt;</text>
</a>
</g>
</g>
<!-- journal_entries&#45;&gt;locations_cities -->
<g id="edge2" class="edge">
<title>journal_entries:w&#45;&gt;locations_cities:e</title>
<path fill="none" stroke="#000000" d="M321.9153,-479.4865C286.6007,-459.4676 341.6731,-352.7 285.5,-352.7"/>
<polygon fill="#000000" stroke="#000000" points="328.2004,-480.9204 335.1992,-486.2098 332.1002,-481.8102 336,-482.7 336,-482.7 336,-482.7 332.1002,-481.8102 336.8008,-479.1902 328.2004,-480.9204 328.2004,-480.9204"/>
<ellipse fill="none" stroke="#000000" cx="325.0806" cy="-480.2086" rx="3.2" ry="3.2"/>
</g>
<!-- users -->
<g id="node4" class="node">
<title>users</title>
<g id="a_node4"><a xlink:href="../../tables/users.html" xlink:title="users" target="_top">
<polygon fill="#ffffff" stroke="transparent" points="72,-414.2 72,-603.2 221,-603.2 221,-414.2 72,-414.2"/>
<polygon fill="#f5f5f5" stroke="transparent" points="72.5,-573.7 72.5,-602.7 221.5,-602.7 221.5,-573.7 72.5,-573.7"/>
<polygon fill="none" stroke="#000000" points="72.5,-573.7 72.5,-602.7 221.5,-602.7 221.5,-573.7 72.5,-573.7"/>
<text text-anchor="start" x="77.5" y="-580.8" font-family="Helvetica,sans-Serif" font-weight="bold" font-size="16.00" fill="#000000">users</text>
<text text-anchor="start" x="172.9272" y="-583.3" font-family="Helvetica,sans-Serif" font-size="16.00" fill="#000000">[table]</text>
<polygon fill="none" stroke="#000000" points="72.5,-551.7 72.5,-573.7 221.5,-573.7 221.5,-551.7 72.5,-551.7"/>
<image xlink:href="../../images/primaryKeys.png" width="11px" height="12px" preserveAspectRatio="xMinYMin meet" x="77.5" y="-568.7"/>
<text text-anchor="start" x="92.5" y="-554.3" font-family="Helvetica,sans-Serif" font-size="16.00" fill="#000000">id</text>
<polygon fill="#ffffff" stroke="transparent" points="72.5,-529.7 72.5,-551.7 221.5,-551.7 221.5,-529.7 72.5,-529.7"/>
<polygon fill="none" stroke="#000000" points="72.5,-529.7 72.5,-551.7 221.5,-551.7 221.5,-529.7 72.5,-529.7"/>
<text text-anchor="start" x="92.5" y="-532.3" font-family="Helvetica,sans-Serif" font-size="16.00" fill="#000000">user_name</text>
<polygon fill="#ffffff" stroke="transparent" points="72.5,-507.7 72.5,-529.7 221.5,-529.7 221.5,-507.7 72.5,-507.7"/>
<polygon fill="none" stroke="#000000" points="72.5,-507.7 72.5,-529.7 221.5,-529.7 221.5,-507.7 72.5,-507.7"/>
<text text-anchor="start" x="92.5" y="-510.3" font-family="Helvetica,sans-Serif" font-size="16.00" fill="#000000">login_email</text>
<polygon fill="#ffffff" stroke="transparent" points="72.5,-485.7 72.5,-507.7 221.5,-507.7 221.5,-485.7 72.5,-485.7"/>
<polygon fill="none" stroke="#000000" points="72.5,-485.7 72.5,-507.7 221.5,-507.7 221.5,-485.7 72.5,-485.7"/>
<text text-anchor="start" x="92.5" y="-488.3" font-family="Helvetica,sans-Serif" font-size="16.00" fill="#000000">frozen</text>
<polygon fill="#ffffff" stroke="transparent" points="72.5,-463.7 72.5,-485.7 221.5,-485.7 221.5,-463.7 72.5,-463.7"/>
<polygon fill="none" stroke="#000000" points="72.5,-463.7 72.5,-485.7 221.5,-485.7 221.5,-463.7 72.5,-463.7"/>
<text text-anchor="start" x="92.5" y="-466.3" font-family="Helvetica,sans-Serif" font-size="16.00" fill="#000000">active</text>
<polygon fill="none" stroke="#000000" points="72.5,-438.7 72.5,-463.7 221.5,-463.7 221.5,-438.7 72.5,-438.7"/>
<text text-anchor="start" x="75.5" y="-446.3" font-family="Helvetica,sans-Serif" font-size="16.00" fill="#000000">...</text>
<polygon fill="#ffffff" stroke="transparent" points="72.5,-413.7 72.5,-438.7 113.5,-438.7 113.5,-413.7 72.5,-413.7"/>
<polygon fill="none" stroke="#000000" points="72.5,-413.7 72.5,-438.7 113.5,-438.7 113.5,-413.7 72.5,-413.7"/>
<text text-anchor="start" x="75.5" y="-421.3" font-family="Helvetica,sans-Serif" font-size="16.00" fill="#000000"> &#160;</text>
<polygon fill="#ffffff" stroke="transparent" points="113.5,-413.7 113.5,-438.7 179.5,-438.7 179.5,-413.7 113.5,-413.7"/>
<polygon fill="none" stroke="#000000" points="113.5,-413.7 113.5,-438.7 179.5,-438.7 179.5,-413.7 113.5,-413.7"/>
<text text-anchor="start" x="129.388" y="-421.3" font-family="Helvetica,sans-Serif" font-size="16.00" fill="#000000">0 rows</text>
<polygon fill="#ffffff" stroke="transparent" points="179.5,-413.7 179.5,-438.7 221.5,-438.7 221.5,-413.7 179.5,-413.7"/>
<polygon fill="none" stroke="#000000" points="179.5,-413.7 179.5,-438.7 221.5,-438.7 221.5,-413.7 179.5,-413.7"/>
<text text-anchor="start" x="195.8168" y="-421.3" font-family="Helvetica,sans-Serif" font-size="16.00" fill="#000000">1 &gt;</text>
</a>
</g>
</g>
<!-- journal_entries&#45;&gt;users -->
<g id="edge3" class="edge">
<title>journal_entries:w&#45;&gt;users:e</title>
<path fill="none" stroke="#000000" d="M321.5853,-557.8442C282.1029,-558.6641 267.2641,-562.7 221.5,-562.7"/>
<polygon fill="#000000" stroke="#000000" points="328.0004,-557.7801 336.036,-561.2998 332.0002,-557.7401 336,-557.7 336,-557.7 336,-557.7 332.0002,-557.7401 335.964,-554.1002 328.0004,-557.7801 328.0004,-557.7801"/>
<ellipse fill="none" stroke="#000000" cx="324.8006" cy="-557.8121" rx="3.2" ry="3.2"/>
</g>
<!-- journal_entry_tags -->
<g id="node5" class="node">
<title>journal_entry_tags</title>
<g id="a_node5"><a xlink:href="../../tables/journal_entry_tags.html" xlink:title="journal_entry_tags" target="_top">
<polygon fill="#ffffff" stroke="transparent" points="765,-776.2 765,-899.2 970,-899.2 970,-776.2 765,-776.2"/>
<polygon fill="#f5f5f5" stroke="transparent" points="765.5,-869.7 765.5,-898.7 970.5,-898.7 970.5,-869.7 765.5,-869.7"/>
<polygon fill="none" stroke="#000000" points="765.5,-869.7 765.5,-898.7 970.5,-898.7 970.5,-869.7 765.5,-869.7"/>
<text text-anchor="start" x="770.5" y="-876.8" font-family="Helvetica,sans-Serif" font-weight="bold" font-size="16.00" fill="#000000">journal_entry_tags</text>
<text text-anchor="start" x="922.2136" y="-879.3" font-family="Helvetica,sans-Serif" font-size="16.00" fill="#000000">[table]</text>
<polygon fill="#ffffff" stroke="transparent" points="765.5,-847.7 765.5,-869.7 970.5,-869.7 970.5,-847.7 765.5,-847.7"/>
<polygon fill="none" stroke="#000000" points="765.5,-847.7 765.5,-869.7 970.5,-869.7 970.5,-847.7 765.5,-847.7"/>
<image xlink:href="../../images/foreignKeys.png" width="11px" height="12px" preserveAspectRatio="xMinYMin meet" x="770.5" y="-864.7"/>
<text text-anchor="start" x="801.5" y="-850.3" font-family="Helvetica,sans-Serif" font-size="16.00" fill="#000000">journal_entry_id</text>
<polygon fill="#ffffff" stroke="transparent" points="765.5,-825.7 765.5,-847.7 970.5,-847.7 970.5,-825.7 765.5,-825.7"/>
<polygon fill="none" stroke="#000000" points="765.5,-825.7 765.5,-847.7 970.5,-847.7 970.5,-825.7 765.5,-825.7"/>
<image xlink:href="../../images/foreignKeys.png" width="11px" height="12px" preserveAspectRatio="xMinYMin meet" x="770.5" y="-842.7"/>
<text text-anchor="start" x="801.5" y="-828.3" font-family="Helvetica,sans-Serif" font-size="16.00" fill="#000000">tag_id</text>
<polygon fill="none" stroke="#000000" points="765.5,-800.7 765.5,-825.7 970.5,-825.7 970.5,-800.7 765.5,-800.7"/>
<text text-anchor="start" x="768.5" y="-808.3" font-family="Helvetica,sans-Serif" font-size="16.00" fill="#000000">...</text>
<polygon fill="#ffffff" stroke="transparent" points="765.5,-775.7 765.5,-800.7 848.5,-800.7 848.5,-775.7 765.5,-775.7"/>
<polygon fill="none" stroke="#000000" points="765.5,-775.7 765.5,-800.7 848.5,-800.7 848.5,-775.7 765.5,-775.7"/>
<text text-anchor="start" x="768.5" y="-783.3" font-family="Helvetica,sans-Serif" font-size="16.00" fill="#000000">&lt; 2</text>
<polygon fill="#ffffff" stroke="transparent" points="848.5,-775.7 848.5,-800.7 928.5,-800.7 928.5,-775.7 848.5,-775.7"/>
<polygon fill="none" stroke="#000000" points="848.5,-775.7 848.5,-800.7 928.5,-800.7 928.5,-775.7 848.5,-775.7"/>
<text text-anchor="start" x="878.388" y="-783.3" font-family="Helvetica,sans-Serif" font-size="16.00" fill="#000000">2 rows</text>
<polygon fill="#ffffff" stroke="transparent" points="928.5,-775.7 928.5,-800.7 970.5,-800.7 970.5,-775.7 928.5,-775.7"/>
<polygon fill="none" stroke="#000000" points="928.5,-775.7 928.5,-800.7 970.5,-800.7 970.5,-775.7 928.5,-775.7"/>
<text text-anchor="start" x="958.6072" y="-783.3" font-family="Helvetica,sans-Serif" font-size="16.00" fill="#000000"> &#160;</text>
</a>
</g>
</g>
<!-- journal_entry_tags&#45;&gt;journal_entries -->
<g id="edge4" class="edge">
<title>journal_entry_tags:w&#45;&gt;journal_entries:e</title>
<path fill="none" stroke="#000000" d="M751.0156,-858.7C738.6771,-858.7 731.1667,-858.7 714,-858.7"/>
<polygon fill="#000000" stroke="#000000" points="757.5,-858.7001 765.5,-862.3 761.5,-858.7 765.5,-858.7 765.5,-858.7 765.5,-858.7 761.5,-858.7 765.5,-855.1 757.5,-858.7001 757.5,-858.7001"/>
<ellipse fill="none" stroke="#000000" cx="754.3" cy="-858.7001" rx="3.2" ry="3.2"/>
</g>
</g>
</svg>
