<?xml version="1.0" encoding="UTF-8" standalone="no"?>
<!DOCTYPE svg PUBLIC "-//W3C//DTD SVG 1.1//EN"
 "http://www.w3.org/Graphics/SVG/1.1/DTD/svg11.dtd">
<!-- Generated by graphviz version 2.40.1 (20161225.0304)
 -->
<!-- Title: twoDegreesRelationshipsDiagram Pages: 1 -->
<svg width="838pt" height="488pt"
 viewBox="0.00 0.00 838.00 488.20" xmlns="http://www.w3.org/2000/svg" xmlns:xlink="http://www.w3.org/1999/xlink">
<g id="graph0" class="graph" transform="scale(1 1) rotate(0) translate(4 484.2)">
<title>twoDegreesRelationshipsDiagram</title>
<polygon fill="#ffffff" stroke="transparent" points="-4,4 -4,-484.2 834,-484.2 834,4 -4,4"/>
<text text-anchor="middle" x="101.8088" y="-8.8" font-family="Helvetica,sans-Serif" font-size="16.00" fill="#000000">Generated by SchemaSpy</text>
<!-- journal_entries -->
<g id="node1" class="node">
<title>journal_entries</title>
<g id="a_node1"><a xlink:href="../../tables/journal_entries.html" xlink:title="journal_entries" target="_top">
<polygon fill="#ffffff" stroke="transparent" points="271,-229.2 271,-462.2 467,-462.2 467,-229.2 271,-229.2"/>
<polygon fill="#f5f5f5" stroke="transparent" points="271,-432.7 271,-461.7 467,-461.7 467,-432.7 271,-432.7"/>
<polygon fill="none" stroke="#000000" points="271,-432.7 271,-461.7 467,-461.7 467,-432.7 271,-432.7"/>
<text text-anchor="start" x="276" y="-439.8" font-family="Helvetica,sans-Serif" font-weight="bold" font-size="16.00" fill="#000000">journal_entries</text>
<text text-anchor="start" x="418.4272" y="-442.3" font-family="Helvetica,sans-Serif" font-size="16.00" fill="#000000">[table]</text>
<polygon fill="none" stroke="#000000" points="271,-410.7 271,-432.7 467,-432.7 467,-410.7 271,-410.7"/>
<image xlink:href="../../images/primaryKeys.png" width="11px" height="12px" preserveAspectRatio="xMinYMin meet" x="276" y="-427.7"/>
<text text-anchor="start" x="291" y="-413.3" font-family="Helvetica,sans-Serif" font-size="16.00" fill="#000000">id</text>
<polygon fill="#ffffff" stroke="transparent" points="271,-388.7 271,-410.7 467,-410.7 467,-388.7 271,-388.7"/>
<polygon fill="none" stroke="#000000" points="271,-388.7 271,-410.7 467,-410.7 467,-388.7 271,-388.7"/>
<text text-anchor="start" x="291" y="-391.3" font-family="Helvetica,sans-Serif" font-size="16.00" fill="#000000">journal_for</text>
<polygon fill="#ffffff" stroke="transparent" points="271,-366.7 271,-388.7 467,-388.7 467,-366.7 271,-366.7"/>
<polygon fill="none" stroke="#000000" points="271,-366.7 271,-388.7 467,-388.7 467,-366.7 271,-366.7"/>
<image xlink:href="../../images/foreignKeys.png" width="11px" height="12px" preserveAspectRatio="xMinYMin meet" x="276" y="-383.7"/>
<text text-anchor="start" x="291" y="-369.3" font-family="Helvetica,sans-Serif" font-size="16.00" fill="#000000">entry_type_id</text>
<polygon fill="#ffffff" stroke="transparent" points="271,-344.7 271,-366.7 467,-366.7 467,-344.7 271,-344.7"/>
<polygon fill="none" stroke="#000000" points="271,-344.7 271,-366.7 467,-366.7 467,-344.7 271,-344.7"/>
<text text-anchor="start" x="291" y="-347.3" font-family="Helvetica,sans-Serif" font-size="16.00" fill="#000000">is_private</text>
<polygon fill="#ffffff" stroke="transparent" points="271,-322.7 271,-344.7 467,-344.7 467,-322.7 271,-322.7"/>
<polygon fill="none" stroke="#000000" points="271,-322.7 271,-344.7 467,-344.7 467,-322.7 271,-322.7"/>
<image xlink:href="../../images/foreignKeys.png" width="11px" height="12px" preserveAspectRatio="xMinYMin meet" x="276" y="-339.7"/>
<text text-anchor="start" x="291" y="-325.3" font-family="Helvetica,sans-Serif" font-size="16.00" fill="#000000">user_id</text>
<polygon fill="#ffffff" stroke="transparent" points="271,-300.7 271,-322.7 467,-322.7 467,-300.7 271,-300.7"/>
<polygon fill="none" stroke="#000000" points="271,-300.7 271,-322.7 467,-322.7 467,-300.7 271,-300.7"/>
<text text-anchor="start" x="291" y="-303.3" font-family="Helvetica,sans-Serif" font-size="16.00" fill="#000000">inserted_at</text>
<polygon fill="none" stroke="#000000" points="271,-278.7 271,-300.7 467,-300.7 467,-278.7 271,-278.7"/>
<image xlink:href="../../images/foreignKeys.png" width="11px" height="12px" preserveAspectRatio="xMinYMin meet" x="276" y="-295.7"/>
<text text-anchor="start" x="291" y="-281.3" font-family="Helvetica,sans-Serif" font-size="16.00" fill="#000000">location_id</text>
<polygon fill="none" stroke="#000000" points="271,-253.7 271,-278.7 467,-278.7 467,-253.7 271,-253.7"/>
<text text-anchor="start" x="274" y="-261.3" font-family="Helvetica,sans-Serif" font-size="16.00" fill="#000000">...</text>
<polygon fill="#ffffff" stroke="transparent" points="271,-228.7 271,-253.7 342,-253.7 342,-228.7 271,-228.7"/>
<polygon fill="none" stroke="#000000" points="271,-228.7 271,-253.7 342,-253.7 342,-228.7 271,-228.7"/>
<text text-anchor="start" x="274" y="-236.3" font-family="Helvetica,sans-Serif" font-size="16.00" fill="#000000">&lt; 3</text>
<polygon fill="#ffffff" stroke="transparent" points="342,-228.7 342,-253.7 417,-253.7 417,-228.7 342,-228.7"/>
<polygon fill="none" stroke="#000000" points="342,-228.7 342,-253.7 417,-253.7 417,-228.7 342,-228.7"/>
<text text-anchor="start" x="366.888" y="-236.3" font-family="Helvetica,sans-Serif" font-size="16.00" fill="#000000">2 rows</text>
<polygon fill="#ffffff" stroke="transparent" points="417,-228.7 417,-253.7 467,-253.7 467,-228.7 417,-228.7"/>
<polygon fill="none" stroke="#000000" points="417,-228.7 417,-253.7 467,-253.7 467,-228.7 417,-228.7"/>
<text text-anchor="start" x="441.3168" y="-236.3" font-family="Helvetica,sans-Serif" font-size="16.00" fill="#000000">1 &gt;</text>
</a>
</g>
</g>
<!-- journal_entry_types -->
<g id="node2" class="node">
<title>journal_entry_types</title>
<g id="a_node2"><a xlink:href="../../tables/journal_entry_types.html" xlink:title="journal_entry_types" target="_top">
<polygon fill="#ffffff" stroke="transparent" points="8,-397.2 8,-476.2 222,-476.2 222,-397.2 8,-397.2"/>
<polygon fill="#f5f5f5" stroke="transparent" points="8,-446.7 8,-475.7 222,-475.7 222,-446.7 8,-446.7"/>
<polygon fill="none" stroke="#000000" points="8,-446.7 8,-475.7 222,-475.7 222,-446.7 8,-446.7"/>
<text text-anchor="start" x="13" y="-453.8" font-family="Helvetica,sans-Serif" font-weight="bold" font-size="16.00" fill="#000000">journal_entry_types</text>
<text text-anchor="start" x="173.7136" y="-456.3" font-family="Helvetica,sans-Serif" font-size="16.00" fill="#000000">[table]</text>
<polygon fill="none" stroke="#000000" points="8,-421.7 8,-446.7 222,-446.7 222,-421.7 8,-421.7"/>
<text text-anchor="start" x="11" y="-429.3" font-family="Helvetica,sans-Serif" font-size="16.00" fill="#000000">...</text>
<polygon fill="#ffffff" stroke="transparent" points="8,-396.7 8,-421.7 81,-421.7 81,-396.7 8,-396.7"/>
<polygon fill="none" stroke="#000000" points="8,-396.7 8,-421.7 81,-421.7 81,-396.7 8,-396.7"/>
<text text-anchor="start" x="11" y="-404.3" font-family="Helvetica,sans-Serif" font-size="16.00" fill="#000000"> &#160;</text>
<polygon fill="#ffffff" stroke="transparent" points="81,-396.7 81,-421.7 164,-421.7 164,-396.7 81,-396.7"/>
<polygon fill="none" stroke="#000000" points="81,-396.7 81,-421.7 164,-421.7 164,-396.7 81,-396.7"/>
<text text-anchor="start" x="113.888" y="-404.3" font-family="Helvetica,sans-Serif" font-size="16.00" fill="#000000">2 rows</text>
<polygon fill="#ffffff" stroke="transparent" points="164,-396.7 164,-421.7 222,-421.7 222,-396.7 164,-396.7"/>
<polygon fill="none" stroke="#000000" points="164,-396.7 164,-421.7 222,-421.7 222,-396.7 164,-396.7"/>
<text text-anchor="start" x="196.3168" y="-404.3" font-family="Helvetica,sans-Serif" font-size="16.00" fill="#000000">1 &gt;</text>
</a>
</g>
</g>
<!-- journal_entries&#45;&gt;journal_entry_types -->
<g id="edge1" class="edge">
<title>journal_entries:w&#45;&gt;journal_entry_types:e</title>
<path fill="none" stroke="#000000" d="M257.0313,-382.868C242.5917,-396.7313 248.8706,-433.7 222,-433.7"/>
<polygon fill="#000000" stroke="#000000" points="263.497,-380.4759 272.2492,-381.0763 267.2485,-379.0879 271,-377.7 271,-377.7 271,-377.7 267.2485,-379.0879 269.7508,-374.3237 263.497,-380.4759 263.497,-380.4759"/>
<ellipse fill="none" stroke="#000000" cx="260.4958" cy="-381.5863" rx="3.2" ry="3.2"/>
</g>
<!-- locations_cities -->
<g id="node3" class="node">
<title>locations_cities</title>
<g id="a_node3"><a xlink:href="../../tables/locations_cities.html" xlink:title="locations_cities" target="_top">
<polygon fill="#ffffff" stroke="transparent" points="25,-197.2 25,-276.2 205,-276.2 205,-197.2 25,-197.2"/>
<polygon fill="#f5f5f5" stroke="transparent" points="25,-246.7 25,-275.7 205,-275.7 205,-246.7 25,-246.7"/>
<polygon fill="none" stroke="#000000" points="25,-246.7 25,-275.7 205,-275.7 205,-246.7 25,-246.7"/>
<text text-anchor="start" x="30" y="-253.8" font-family="Helvetica,sans-Serif" font-weight="bold" font-size="16.00" fill="#000000">locations_cities</text>
<text text-anchor="start" x="156.7136" y="-256.3" font-family="Helvetica,sans-Serif" font-size="16.00" fill="#000000">[table]</text>
<polygon fill="none" stroke="#000000" points="25,-221.7 25,-246.7 205,-246.7 205,-221.7 25,-221.7"/>
<text text-anchor="start" x="28" y="-229.3" font-family="Helvetica,sans-Serif" font-size="16.00" fill="#000000">...</text>
<polygon fill="#ffffff" stroke="transparent" points="25,-196.7 25,-221.7 64,-221.7 64,-196.7 25,-196.7"/>
<polygon fill="none" stroke="#000000" points="25,-196.7 25,-221.7 64,-221.7 64,-196.7 25,-196.7"/>
<text text-anchor="start" x="28" y="-204.3" font-family="Helvetica,sans-Serif" font-size="16.00" fill="#000000">&lt; 4</text>
<polygon fill="#ffffff" stroke="transparent" points="64,-196.7 64,-221.7 171,-221.7 171,-196.7 64,-196.7"/>
<polygon fill="none" stroke="#000000" points="64,-196.7 64,-221.7 171,-221.7 171,-196.7 64,-196.7"/>
<text text-anchor="start" x="71.9696" y="-204.3" font-family="Helvetica,sans-Serif" font-size="16.00" fill="#000000">210,698 rows</text>
<polygon fill="#ffffff" stroke="transparent" points="171,-196.7 171,-221.7 205,-221.7 205,-196.7 171,-196.7"/>
<polygon fill="none" stroke="#000000" points="171,-196.7 171,-221.7 205,-221.7 205,-196.7 171,-196.7"/>
<text text-anchor="start" x="179.3168" y="-204.3" font-family="Helvetica,sans-Serif" font-size="16.00" fill="#000000">1 &gt;</text>
</a>
</g>
</g>
<!-- journal_entries&#45;&gt;locations_cities -->
<g id="edge2" class="edge">
<title>journal_entries:w&#45;&gt;locations_cities:e</title>
<path fill="none" stroke="#000000" d="M256.8118,-286.3646C234.6894,-274.3089 237.7592,-233.7 205,-233.7"/>
<polygon fill="#000000" stroke="#000000" points="263.2123,-287.8692 270.1762,-293.2045 267.1061,-288.7846 271,-289.7 271,-289.7 271,-289.7 267.1061,-288.7846 271.8238,-286.1955 263.2123,-287.8692 263.2123,-287.8692"/>
<ellipse fill="none" stroke="#000000" cx="260.0972" cy="-287.1369" rx="3.2" ry="3.2"/>
</g>
<!-- users -->
<g id="node4" class="node">
<title>users</title>
<g id="a_node4"><a xlink:href="../../tables/users.html" xlink:title="users" target="_top">
<polygon fill="#ffffff" stroke="transparent" points="66,-297.2 66,-376.2 164,-376.2 164,-297.2 66,-297.2"/>
<polygon fill="#f5f5f5" stroke="transparent" points="66,-346.7 66,-375.7 164,-375.7 164,-346.7 66,-346.7"/>
<polygon fill="none" stroke="#000000" points="66,-346.7 66,-375.7 164,-375.7 164,-346.7 66,-346.7"/>
<text text-anchor="start" x="71" y="-353.8" font-family="Helvetica,sans-Serif" font-weight="bold" font-size="16.00" fill="#000000">users</text>
<text text-anchor="start" x="115.7136" y="-356.3" font-family="Helvetica,sans-Serif" font-size="16.00" fill="#000000">[table]</text>
<polygon fill="none" stroke="#000000" points="66,-321.7 66,-346.7 164,-346.7 164,-321.7 66,-321.7"/>
<text text-anchor="start" x="69" y="-329.3" font-family="Helvetica,sans-Serif" font-size="16.00" fill="#000000">...</text>
<polygon fill="#ffffff" stroke="transparent" points="66,-296.7 66,-321.7 81,-321.7 81,-296.7 66,-296.7"/>
<polygon fill="none" stroke="#000000" points="66,-296.7 66,-321.7 81,-321.7 81,-296.7 66,-296.7"/>
<text text-anchor="start" x="69" y="-304.3" font-family="Helvetica,sans-Serif" font-size="16.00" fill="#000000"> &#160;</text>
<polygon fill="#ffffff" stroke="transparent" points="81,-296.7 81,-321.7 135,-321.7 135,-296.7 81,-296.7"/>
<polygon fill="none" stroke="#000000" points="81,-296.7 81,-321.7 135,-321.7 135,-296.7 81,-296.7"/>
<text text-anchor="start" x="84.888" y="-304.3" font-family="Helvetica,sans-Serif" font-size="16.00" fill="#000000">0 rows</text>
<polygon fill="#ffffff" stroke="transparent" points="135,-296.7 135,-321.7 164,-321.7 164,-296.7 135,-296.7"/>
<polygon fill="none" stroke="#000000" points="135,-296.7 135,-321.7 164,-321.7 164,-296.7 135,-296.7"/>
<text text-anchor="start" x="138.3168" y="-304.3" font-family="Helvetica,sans-Serif" font-size="16.00" fill="#000000">1 &gt;</text>
</a>
</g>
</g>
<!-- journal_entries&#45;&gt;users -->
<g id="edge3" class="edge">
<title>journal_entries:w&#45;&gt;users:e</title>
<path fill="none" stroke="#000000" d="M256.5825,-333.7C220.4171,-333.7 206.3542,-333.7 164,-333.7"/>
<polygon fill="#000000" stroke="#000000" points="263,-333.7001 271,-337.3 267,-333.7 271,-333.7 271,-333.7 271,-333.7 267,-333.7 271,-330.1 263,-333.7001 263,-333.7001"/>
<ellipse fill="none" stroke="#000000" cx="259.8" cy="-333.7001" rx="3.2" ry="3.2"/>
</g>
<!-- journal_entry_tags -->
<g id="node5" class="node">
<title>journal_entry_tags</title>
<g id="a_node5"><a xlink:href="../../tables/journal_entry_tags.html" xlink:title="journal_entry_tags" target="_top">
<polygon fill="#ffffff" stroke="transparent" points="516,-287.7 516,-445.7 822,-445.7 822,-287.7 516,-287.7"/>
<polygon fill="#f5f5f5" stroke="transparent" points="518,-414.7 518,-443.7 820,-443.7 820,-414.7 518,-414.7"/>
<polygon fill="none" stroke="#000000" points="518,-414.7 518,-443.7 820,-443.7 820,-414.7 518,-414.7"/>
<text text-anchor="start" x="523" y="-421.8" font-family="Helvetica,sans-Serif" font-weight="bold" font-size="16.00" fill="#000000">journal_entry_tags</text>
<text text-anchor="start" x="771.4272" y="-424.3" font-family="Helvetica,sans-Serif" font-size="16.00" fill="#000000">[table]</text>
<polygon fill="#ffffff" stroke="transparent" points="518,-389.7 518,-414.7 691,-414.7 691,-389.7 518,-389.7"/>
<polygon fill="none" stroke="#000000" points="518,-389.7 518,-414.7 691,-414.7 691,-389.7 518,-389.7"/>
<image xlink:href="../../images/foreignKeys.png" width="11px" height="12px" preserveAspectRatio="xMinYMin meet" x="523" y="-408.2"/>
<text text-anchor="start" x="538" y="-393.8" font-family="Helvetica,sans-Serif" font-size="16.00" fill="#000000">journal_entry_id</text>
<polygon fill="none" stroke="#000000" points="691,-389.7 691,-414.7 820,-414.7 820,-389.7 691,-389.7"/>
<text text-anchor="start" x="693.688" y="-397.3" font-family="Helvetica,sans-Serif" font-size="16.00" fill="#000000">text[2000000000]</text>
<polygon fill="#ffffff" stroke="transparent" points="518,-364.7 518,-389.7 691,-389.7 691,-364.7 518,-364.7"/>
<polygon fill="none" stroke="#000000" points="518,-364.7 518,-389.7 691,-389.7 691,-364.7 518,-364.7"/>
<image xlink:href="../../images/foreignKeys.png" width="11px" height="12px" preserveAspectRatio="xMinYMin meet" x="523" y="-383.2"/>
<text text-anchor="start" x="538" y="-368.8" font-family="Helvetica,sans-Serif" font-size="16.00" fill="#000000">tag_id</text>
<polygon fill="none" stroke="#000000" points="691,-364.7 691,-389.7 820,-389.7 820,-364.7 691,-364.7"/>
<text text-anchor="start" x="693.688" y="-372.3" font-family="Helvetica,sans-Serif" font-size="16.00" fill="#000000">text[2000000000]</text>
<polygon fill="none" stroke="#000000" points="518,-339.7 518,-364.7 691,-364.7 691,-339.7 518,-339.7"/>
<text text-anchor="start" x="538" y="-343.8" font-family="Helvetica,sans-Serif" font-size="16.00" fill="#000000">inserted_at</text>
<polygon fill="none" stroke="#000000" points="691,-339.7 691,-364.7 820,-364.7 820,-339.7 691,-339.7"/>
<text text-anchor="start" x="693.688" y="-347.3" font-family="Helvetica,sans-Serif" font-size="16.00" fill="#000000">text[2000000000]</text>
<polygon fill="none" stroke="#000000" points="518,-314.7 518,-339.7 691,-339.7 691,-314.7 518,-314.7"/>
<text text-anchor="start" x="538" y="-318.8" font-family="Helvetica,sans-Serif" font-size="16.00" fill="#000000">updated_at</text>
<polygon fill="none" stroke="#000000" points="691,-314.7 691,-339.7 820,-339.7 820,-314.7 691,-314.7"/>
<text text-anchor="start" x="693.688" y="-322.3" font-family="Helvetica,sans-Serif" font-size="16.00" fill="#000000">text[2000000000]</text>
<polygon fill="#ffffff" stroke="transparent" points="518,-289.7 518,-314.7 592,-314.7 592,-289.7 518,-289.7"/>
<polygon fill="none" stroke="#000000" points="518,-289.7 518,-314.7 592,-314.7 592,-289.7 518,-289.7"/>
<text text-anchor="start" x="521" y="-297.3" font-family="Helvetica,sans-Serif" font-size="16.00" fill="#000000">&lt; 2</text>
<polygon fill="#ffffff" stroke="transparent" points="592,-289.7 592,-314.7 691,-314.7 691,-289.7 592,-289.7"/>
<polygon fill="none" stroke="#000000" points="592,-289.7 592,-314.7 691,-314.7 691,-289.7 592,-289.7"/>
<text text-anchor="start" x="640.888" y="-297.3" font-family="Helvetica,sans-Serif" font-size="16.00" fill="#000000">2 rows</text>
<polygon fill="#ffffff" stroke="transparent" points="691,-289.7 691,-314.7 820,-314.7 820,-289.7 691,-289.7"/>
<polygon fill="none" stroke="#000000" points="691,-289.7 691,-314.7 820,-314.7 820,-289.7 691,-289.7"/>
<text text-anchor="start" x="794.3168" y="-297.3" font-family="Helvetica,sans-Serif" font-size="16.00" fill="#000000">0 &gt;</text>
<polygon fill="none" stroke="#000000" stroke-width="2" points="517,-288.7 517,-444.7 821,-444.7 821,-288.7 517,-288.7"/>
</a>
</g>
</g>
<!-- journal_entry_tags&#45;&gt;journal_entries -->
<g id="edge4" class="edge">
<title>journal_entry_tags:w&#45;&gt;journal_entries:e</title>
<path fill="none" stroke="#000000" d="M503.6076,-405.5035C491.2761,-410.7887 485.3304,-421.7 467,-421.7"/>
<polygon fill="#000000" stroke="#000000" points="510.1476,-404.2296 518.6883,-406.2336 514.0738,-403.4648 518,-402.7 518,-402.7 518,-402.7 514.0738,-403.4648 517.3117,-399.1664 510.1476,-404.2296 510.1476,-404.2296"/>
<ellipse fill="none" stroke="#000000" cx="507.0066" cy="-404.8415" rx="3.2" ry="3.2"/>
</g>
<!-- tags -->
<g id="node6" class="node">
<title>tags</title>
<g id="a_node6"><a xlink:href="../../tables/tags.html" xlink:title="tags" target="_top">
<polygon fill="#ffffff" stroke="transparent" points="313,-85.2 313,-208.2 425,-208.2 425,-85.2 313,-85.2"/>
<polygon fill="#f5f5f5" stroke="transparent" points="313,-178.7 313,-207.7 425,-207.7 425,-178.7 313,-178.7"/>
<polygon fill="none" stroke="#000000" points="313,-178.7 313,-207.7 425,-207.7 425,-178.7 313,-178.7"/>
<text text-anchor="start" x="317.8824" y="-185.8" font-family="Helvetica,sans-Serif" font-weight="bold" font-size="16.00" fill="#000000">tags</text>
<text text-anchor="start" x="376.4272" y="-188.3" font-family="Helvetica,sans-Serif" font-size="16.00" fill="#000000">[table]</text>
<polygon fill="none" stroke="#000000" points="313,-156.7 313,-178.7 425,-178.7 425,-156.7 313,-156.7"/>
<image xlink:href="../../images/primaryKeys.png" width="11px" height="12px" preserveAspectRatio="xMinYMin meet" x="318" y="-173.7"/>
<text text-anchor="start" x="333" y="-159.3" font-family="Helvetica,sans-Serif" font-size="16.00" fill="#000000">id</text>
<polygon fill="#ffffff" stroke="transparent" points="313,-134.7 313,-156.7 425,-156.7 425,-134.7 313,-134.7"/>
<polygon fill="none" stroke="#000000" points="313,-134.7 313,-156.7 425,-156.7 425,-134.7 313,-134.7"/>
<text text-anchor="start" x="333" y="-137.3" font-family="Helvetica,sans-Serif" font-size="16.00" fill="#000000">name</text>
<polygon fill="none" stroke="#000000" points="313,-109.7 313,-134.7 425,-134.7 425,-109.7 313,-109.7"/>
<text text-anchor="start" x="316" y="-117.3" font-family="Helvetica,sans-Serif" font-size="16.00" fill="#000000">...</text>
<polygon fill="#ffffff" stroke="transparent" points="313,-84.7 313,-109.7 327,-109.7 327,-84.7 313,-84.7"/>
<polygon fill="none" stroke="#000000" points="313,-84.7 313,-109.7 327,-109.7 327,-84.7 313,-84.7"/>
<text text-anchor="start" x="315.5536" y="-92.3" font-family="Helvetica,sans-Serif" font-size="16.00" fill="#000000"> &#160;</text>
<polygon fill="#ffffff" stroke="transparent" points="327,-84.7 327,-109.7 397,-109.7 397,-84.7 327,-84.7"/>
<polygon fill="none" stroke="#000000" points="327,-84.7 327,-109.7 397,-109.7 397,-84.7 327,-84.7"/>
<text text-anchor="start" x="329.5496" y="-92.3" font-family="Helvetica,sans-Serif" font-size="16.00" fill="#000000">167 rows</text>
<polygon fill="#ffffff" stroke="transparent" points="397,-84.7 397,-109.7 425,-109.7 425,-84.7 397,-84.7"/>
<polygon fill="none" stroke="#000000" points="397,-84.7 397,-109.7 425,-109.7 425,-84.7 397,-84.7"/>
<text text-anchor="start" x="399.6584" y="-92.3" font-family="Helvetica,sans-Serif" font-size="16.00" fill="#000000">3 &gt;</text>
</a>
</g>
</g>
<!-- journal_entry_tags&#45;&gt;tags -->
<g id="edge5" class="edge">
<title>journal_entry_tags:w&#45;&gt;tags:e</title>
<path fill="none" stroke="#000000" d="M503.5971,-376.0946C454.3386,-363.3419 508.5924,-277.3962 475,-218.7 459.2329,-191.15 456.7428,-167.7 425,-167.7"/>
<polygon fill="#000000" stroke="#000000" points="510.0492,-376.8137 517.6012,-381.2778 514.0246,-377.2569 518,-377.7 518,-377.7 518,-377.7 514.0246,-377.2569 518.3988,-374.1222 510.0492,-376.8137 510.0492,-376.8137"/>
<ellipse fill="none" stroke="#000000" cx="506.8689" cy="-376.4592" rx="3.2" ry="3.2"/>
</g>
<!-- project_tags -->
<g id="node7" class="node">
<title>project_tags</title>
<g id="a_node7"><a xlink:href="../../tables/project_tags.html" xlink:title="project_tags" target="_top">
<polygon fill="#ffffff" stroke="transparent" points="592,-150.2 592,-229.2 746,-229.2 746,-150.2 592,-150.2"/>
<polygon fill="#f5f5f5" stroke="transparent" points="592,-199.7 592,-228.7 746,-228.7 746,-199.7 592,-199.7"/>
<polygon fill="none" stroke="#000000" points="592,-199.7 592,-228.7 746,-228.7 746,-199.7 592,-199.7"/>
<text text-anchor="start" x="597" y="-206.8" font-family="Helvetica,sans-Serif" font-weight="bold" font-size="16.00" fill="#000000">project_tags</text>
<text text-anchor="start" x="697.7136" y="-209.3" font-family="Helvetica,sans-Serif" font-size="16.00" fill="#000000">[table]</text>
<polygon fill="none" stroke="#000000" points="592,-174.7 592,-199.7 746,-199.7 746,-174.7 592,-174.7"/>
<text text-anchor="start" x="595" y="-182.3" font-family="Helvetica,sans-Serif" font-size="16.00" fill="#000000">...</text>
<polygon fill="#ffffff" stroke="transparent" points="592,-149.7 592,-174.7 649,-174.7 649,-149.7 592,-149.7"/>
<polygon fill="none" stroke="#000000" points="592,-149.7 592,-174.7 649,-174.7 649,-149.7 592,-149.7"/>
<text text-anchor="start" x="595" y="-157.3" font-family="Helvetica,sans-Serif" font-size="16.00" fill="#000000">&lt; 2</text>
<polygon fill="#ffffff" stroke="transparent" points="649,-149.7 649,-174.7 717,-174.7 717,-149.7 649,-149.7"/>
<polygon fill="none" stroke="#000000" points="649,-149.7 649,-174.7 717,-174.7 717,-149.7 649,-149.7"/>
<text text-anchor="start" x="666.888" y="-157.3" font-family="Helvetica,sans-Serif" font-size="16.00" fill="#000000">0 rows</text>
<polygon fill="#ffffff" stroke="transparent" points="717,-149.7 717,-174.7 746,-174.7 746,-149.7 717,-149.7"/>
<polygon fill="none" stroke="#000000" points="717,-149.7 717,-174.7 746,-174.7 746,-149.7 717,-149.7"/>
<text text-anchor="start" x="734.1072" y="-157.3" font-family="Helvetica,sans-Serif" font-size="16.00" fill="#000000"> &#160;</text>
</a>
</g>
</g>
<!-- project_tags&#45;&gt;tags -->
<g id="edge6" class="edge">
<title>project_tags:w&#45;&gt;tags:e</title>
<path fill="none" stroke="#000000" d="M577.4445,-186.4458C514.6261,-184.1911 494.5945,-167.7 425,-167.7"/>
<polygon fill="#000000" stroke="#000000" points="584.0012,-186.5602 591.9371,-190.2995 588.0006,-186.6301 592,-186.7 592,-186.7 592,-186.7 588.0006,-186.6301 592.0629,-183.1005 584.0012,-186.5602 584.0012,-186.5602"/>
<ellipse fill="none" stroke="#000000" cx="580.8017" cy="-186.5043" rx="3.2" ry="3.2"/>
</g>
<!-- timer_tags -->
<g id="node8" class="node">
<title>timer_tags</title>
<g id="a_node8"><a xlink:href="../../tables/timer_tags.html" xlink:title="timer_tags" target="_top">
<polygon fill="#ffffff" stroke="transparent" points="600,-50.2 600,-129.2 738,-129.2 738,-50.2 600,-50.2"/>
<polygon fill="#f5f5f5" stroke="transparent" points="600,-99.7 600,-128.7 738,-128.7 738,-99.7 600,-99.7"/>
<polygon fill="none" stroke="#000000" points="600,-99.7 600,-128.7 738,-128.7 738,-99.7 600,-99.7"/>
<text text-anchor="start" x="605" y="-106.8" font-family="Helvetica,sans-Serif" font-weight="bold" font-size="16.00" fill="#000000">timer_tags</text>
<text text-anchor="start" x="689.7136" y="-109.3" font-family="Helvetica,sans-Serif" font-size="16.00" fill="#000000">[table]</text>
<polygon fill="none" stroke="#000000" points="600,-74.7 600,-99.7 738,-99.7 738,-74.7 600,-74.7"/>
<text text-anchor="start" x="603" y="-82.3" font-family="Helvetica,sans-Serif" font-size="16.00" fill="#000000">...</text>
<polygon fill="#ffffff" stroke="transparent" points="600,-49.7 600,-74.7 641,-74.7 641,-49.7 600,-49.7"/>
<polygon fill="none" stroke="#000000" points="600,-49.7 600,-74.7 641,-74.7 641,-49.7 600,-49.7"/>
<text text-anchor="start" x="603" y="-57.3" font-family="Helvetica,sans-Serif" font-size="16.00" fill="#000000">&lt; 2</text>
<polygon fill="#ffffff" stroke="transparent" points="641,-49.7 641,-74.7 717,-74.7 717,-49.7 641,-49.7"/>
<polygon fill="none" stroke="#000000" points="641,-49.7 641,-74.7 717,-74.7 717,-49.7 641,-49.7"/>
<text text-anchor="start" x="649.0992" y="-57.3" font-family="Helvetica,sans-Serif" font-size="16.00" fill="#000000">629 rows</text>
<polygon fill="#ffffff" stroke="transparent" points="717,-49.7 717,-74.7 738,-74.7 738,-49.7 717,-49.7"/>
<polygon fill="none" stroke="#000000" points="717,-49.7 717,-74.7 738,-74.7 738,-49.7 717,-49.7"/>
<text text-anchor="start" x="726.1072" y="-57.3" font-family="Helvetica,sans-Serif" font-size="16.00" fill="#000000"> &#160;</text>
</a>
</g>
</g>
<!-- timer_tags&#45;&gt;tags -->
<g id="edge7" class="edge">
<title>timer_tags:w&#45;&gt;tags:e</title>
<path fill="none" stroke="#000000" d="M585.2991,-87.5549C513.5591,-96.2117 505.516,-167.7 425,-167.7"/>
<polygon fill="#000000" stroke="#000000" points="592.0135,-87.1645 600.209,-90.2939 596.0067,-86.9322 600,-86.7 600,-86.7 600,-86.7 596.0067,-86.9322 599.791,-83.1061 592.0135,-87.1645 592.0135,-87.1645"/>
<ellipse fill="none" stroke="#000000" cx="588.8189" cy="-87.3503" rx="3.2" ry="3.2"/>
</g>
</g>
</svg>
