<?xml version="1.0" encoding="UTF-8" standalone="no"?>
<!DOCTYPE svg PUBLIC "-//W3C//DTD SVG 1.1//EN"
 "http://www.w3.org/Graphics/SVG/1.1/DTD/svg11.dtd">
<!-- Generated by graphviz version 2.40.1 (20161225.0304)
 -->
<!-- Title: twoDegreesRelationshipsDiagram Pages: 1 -->
<svg width="861pt" height="471pt"
 viewBox="0.00 0.00 861.00 470.70" xmlns="http://www.w3.org/2000/svg" xmlns:xlink="http://www.w3.org/1999/xlink">
<g id="graph0" class="graph" transform="scale(1 1) rotate(0) translate(4 466.7)">
<title>twoDegreesRelationshipsDiagram</title>
<polygon fill="#ffffff" stroke="transparent" points="-4,4 -4,-466.7 857,-466.7 857,4 -4,4"/>
<text text-anchor="middle" x="101.8088" y="-8.8" font-family="Helvetica,sans-Serif" font-size="16.00" fill="#000000">Generated by SchemaSpy</text>
<!-- journal_entries -->
<g id="node1" class="node">
<title>journal_entries</title>
<g id="a_node1"><a xlink:href="../../tables/journal_entries.html" xlink:title="journal_entries" target="_top">
<polygon fill="#ffffff" stroke="transparent" points="395,-82.2 395,-315.2 591,-315.2 591,-82.2 395,-82.2"/>
<polygon fill="#f5f5f5" stroke="transparent" points="395,-285.7 395,-314.7 591,-314.7 591,-285.7 395,-285.7"/>
<polygon fill="none" stroke="#000000" points="395,-285.7 395,-314.7 591,-314.7 591,-285.7 395,-285.7"/>
<text text-anchor="start" x="400" y="-292.8" font-family="Helvetica,sans-Serif" font-weight="bold" font-size="16.00" fill="#000000">journal_entries</text>
<text text-anchor="start" x="542.4272" y="-295.3" font-family="Helvetica,sans-Serif" font-size="16.00" fill="#000000">[table]</text>
<polygon fill="none" stroke="#000000" points="395,-263.7 395,-285.7 591,-285.7 591,-263.7 395,-263.7"/>
<image xlink:href="../../images/primaryKeys.png" width="11px" height="12px" preserveAspectRatio="xMinYMin meet" x="400" y="-280.7"/>
<text text-anchor="start" x="415" y="-266.3" font-family="Helvetica,sans-Serif" font-size="16.00" fill="#000000">id</text>
<polygon fill="#ffffff" stroke="transparent" points="395,-241.7 395,-263.7 591,-263.7 591,-241.7 395,-241.7"/>
<polygon fill="none" stroke="#000000" points="395,-241.7 395,-263.7 591,-263.7 591,-241.7 395,-241.7"/>
<text text-anchor="start" x="415" y="-244.3" font-family="Helvetica,sans-Serif" font-size="16.00" fill="#000000">journal_for</text>
<polygon fill="#ffffff" stroke="transparent" points="395,-219.7 395,-241.7 591,-241.7 591,-219.7 395,-219.7"/>
<polygon fill="none" stroke="#000000" points="395,-219.7 395,-241.7 591,-241.7 591,-219.7 395,-219.7"/>
<image xlink:href="../../images/foreignKeys.png" width="11px" height="12px" preserveAspectRatio="xMinYMin meet" x="400" y="-236.7"/>
<text text-anchor="start" x="415" y="-222.3" font-family="Helvetica,sans-Serif" font-size="16.00" fill="#000000">entry_type_id</text>
<polygon fill="#ffffff" stroke="transparent" points="395,-197.7 395,-219.7 591,-219.7 591,-197.7 395,-197.7"/>
<polygon fill="none" stroke="#000000" points="395,-197.7 395,-219.7 591,-219.7 591,-197.7 395,-197.7"/>
<text text-anchor="start" x="415" y="-200.3" font-family="Helvetica,sans-Serif" font-size="16.00" fill="#000000">is_private</text>
<polygon fill="#ffffff" stroke="transparent" points="395,-175.7 395,-197.7 591,-197.7 591,-175.7 395,-175.7"/>
<polygon fill="none" stroke="#000000" points="395,-175.7 395,-197.7 591,-197.7 591,-175.7 395,-175.7"/>
<image xlink:href="../../images/foreignKeys.png" width="11px" height="12px" preserveAspectRatio="xMinYMin meet" x="400" y="-192.7"/>
<text text-anchor="start" x="415" y="-178.3" font-family="Helvetica,sans-Serif" font-size="16.00" fill="#000000">user_id</text>
<polygon fill="#ffffff" stroke="transparent" points="395,-153.7 395,-175.7 591,-175.7 591,-153.7 395,-153.7"/>
<polygon fill="none" stroke="#000000" points="395,-153.7 395,-175.7 591,-175.7 591,-153.7 395,-153.7"/>
<text text-anchor="start" x="415" y="-156.3" font-family="Helvetica,sans-Serif" font-size="16.00" fill="#000000">inserted_at</text>
<polygon fill="none" stroke="#000000" points="395,-131.7 395,-153.7 591,-153.7 591,-131.7 395,-131.7"/>
<image xlink:href="../../images/foreignKeys.png" width="11px" height="12px" preserveAspectRatio="xMinYMin meet" x="400" y="-148.7"/>
<text text-anchor="start" x="415" y="-134.3" font-family="Helvetica,sans-Serif" font-size="16.00" fill="#000000">location_id</text>
<polygon fill="none" stroke="#000000" points="395,-106.7 395,-131.7 591,-131.7 591,-106.7 395,-106.7"/>
<text text-anchor="start" x="398" y="-114.3" font-family="Helvetica,sans-Serif" font-size="16.00" fill="#000000">...</text>
<polygon fill="#ffffff" stroke="transparent" points="395,-81.7 395,-106.7 466,-106.7 466,-81.7 395,-81.7"/>
<polygon fill="none" stroke="#000000" points="395,-81.7 395,-106.7 466,-106.7 466,-81.7 395,-81.7"/>
<text text-anchor="start" x="398" y="-89.3" font-family="Helvetica,sans-Serif" font-size="16.00" fill="#000000">&lt; 3</text>
<polygon fill="#ffffff" stroke="transparent" points="466,-81.7 466,-106.7 541,-106.7 541,-81.7 466,-81.7"/>
<polygon fill="none" stroke="#000000" points="466,-81.7 466,-106.7 541,-106.7 541,-81.7 466,-81.7"/>
<text text-anchor="start" x="490.888" y="-89.3" font-family="Helvetica,sans-Serif" font-size="16.00" fill="#000000">2 rows</text>
<polygon fill="#ffffff" stroke="transparent" points="541,-81.7 541,-106.7 591,-106.7 591,-81.7 541,-81.7"/>
<polygon fill="none" stroke="#000000" points="541,-81.7 541,-106.7 591,-106.7 591,-81.7 541,-81.7"/>
<text text-anchor="start" x="565.3168" y="-89.3" font-family="Helvetica,sans-Serif" font-size="16.00" fill="#000000">1 &gt;</text>
</a>
</g>
</g>
<!-- journal_entry_types -->
<g id="node2" class="node">
<title>journal_entry_types</title>
<g id="a_node2"><a xlink:href="../../tables/journal_entry_types.html" xlink:title="journal_entry_types" target="_top">
<polygon fill="#ffffff" stroke="transparent" points="8,-250.7 8,-458.7 346,-458.7 346,-250.7 8,-250.7"/>
<polygon fill="#f5f5f5" stroke="transparent" points="10,-427.7 10,-456.7 344,-456.7 344,-427.7 10,-427.7"/>
<polygon fill="none" stroke="#000000" points="10,-427.7 10,-456.7 344,-456.7 344,-427.7 10,-427.7"/>
<text text-anchor="start" x="15" y="-434.8" font-family="Helvetica,sans-Serif" font-weight="bold" font-size="16.00" fill="#000000">journal_entry_types</text>
<text text-anchor="start" x="295.4272" y="-437.3" font-family="Helvetica,sans-Serif" font-size="16.00" fill="#000000">[table]</text>
<polygon fill="none" stroke="#000000" points="10,-402.7 10,-427.7 192,-427.7 192,-402.7 10,-402.7"/>
<image xlink:href="../../images/primaryKeys.png" width="11px" height="12px" preserveAspectRatio="xMinYMin meet" x="15" y="-421.2"/>
<text text-anchor="start" x="30" y="-406.8" font-family="Helvetica,sans-Serif" font-size="16.00" fill="#000000">id</text>
<polygon fill="none" stroke="#000000" points="192,-402.7 192,-427.7 344,-427.7 344,-402.7 192,-402.7"/>
<text text-anchor="start" x="195" y="-410.3" font-family="Helvetica,sans-Serif" font-size="16.00" fill="#000000">text[2000000000]</text>
<polygon fill="#ffffff" stroke="transparent" points="10,-377.7 10,-402.7 192,-402.7 192,-377.7 10,-377.7"/>
<polygon fill="none" stroke="#000000" points="10,-377.7 10,-402.7 192,-402.7 192,-377.7 10,-377.7"/>
<text text-anchor="start" x="30" y="-381.8" font-family="Helvetica,sans-Serif" font-size="16.00" fill="#000000">name</text>
<polygon fill="none" stroke="#000000" points="192,-377.7 192,-402.7 344,-402.7 344,-377.7 192,-377.7"/>
<text text-anchor="start" x="195" y="-385.3" font-family="Helvetica,sans-Serif" font-size="16.00" fill="#000000">text[2000000000]</text>
<polygon fill="none" stroke="#000000" points="10,-352.7 10,-377.7 192,-377.7 192,-352.7 10,-352.7"/>
<text text-anchor="start" x="30" y="-356.8" font-family="Helvetica,sans-Serif" font-size="16.00" fill="#000000">description</text>
<polygon fill="none" stroke="#000000" points="192,-352.7 192,-377.7 344,-377.7 344,-352.7 192,-352.7"/>
<text text-anchor="start" x="195" y="-360.3" font-family="Helvetica,sans-Serif" font-size="16.00" fill="#000000">text[2000000000]</text>
<polygon fill="#ffffff" stroke="transparent" points="10,-327.7 10,-352.7 192,-352.7 192,-327.7 10,-327.7"/>
<polygon fill="none" stroke="#000000" points="10,-327.7 10,-352.7 192,-352.7 192,-327.7 10,-327.7"/>
<text text-anchor="start" x="30" y="-331.8" font-family="Helvetica,sans-Serif" font-size="16.00" fill="#000000">active</text>
<polygon fill="none" stroke="#000000" points="192,-327.7 192,-352.7 344,-352.7 344,-327.7 192,-327.7"/>
<text text-anchor="start" x="194.6312" y="-335.3" font-family="Helvetica,sans-Serif" font-size="16.00" fill="#000000">integer[2000000000]</text>
<polygon fill="none" stroke="#000000" points="10,-302.7 10,-327.7 192,-327.7 192,-302.7 10,-302.7"/>
<text text-anchor="start" x="30" y="-306.8" font-family="Helvetica,sans-Serif" font-size="16.00" fill="#000000">inserted_at</text>
<polygon fill="none" stroke="#000000" points="192,-302.7 192,-327.7 344,-327.7 344,-302.7 192,-302.7"/>
<text text-anchor="start" x="195" y="-310.3" font-family="Helvetica,sans-Serif" font-size="16.00" fill="#000000">text[2000000000]</text>
<polygon fill="none" stroke="#000000" points="10,-277.7 10,-302.7 192,-302.7 192,-277.7 10,-277.7"/>
<text text-anchor="start" x="30" y="-281.8" font-family="Helvetica,sans-Serif" font-size="16.00" fill="#000000">updated_at</text>
<polygon fill="none" stroke="#000000" points="192,-277.7 192,-302.7 344,-302.7 344,-277.7 192,-277.7"/>
<text text-anchor="start" x="195" y="-285.3" font-family="Helvetica,sans-Serif" font-size="16.00" fill="#000000">text[2000000000]</text>
<polygon fill="#ffffff" stroke="transparent" points="10,-252.7 10,-277.7 88,-277.7 88,-252.7 10,-252.7"/>
<polygon fill="none" stroke="#000000" points="10,-252.7 10,-277.7 88,-277.7 88,-252.7 10,-252.7"/>
<text text-anchor="start" x="13" y="-260.3" font-family="Helvetica,sans-Serif" font-size="16.00" fill="#000000">&lt; 0</text>
<polygon fill="#ffffff" stroke="transparent" points="88,-252.7 88,-277.7 192,-277.7 192,-252.7 88,-252.7"/>
<polygon fill="none" stroke="#000000" points="88,-252.7 88,-277.7 192,-277.7 192,-252.7 88,-252.7"/>
<text text-anchor="start" x="141.888" y="-260.3" font-family="Helvetica,sans-Serif" font-size="16.00" fill="#000000">2 rows</text>
<polygon fill="#ffffff" stroke="transparent" points="192,-252.7 192,-277.7 344,-277.7 344,-252.7 192,-252.7"/>
<polygon fill="none" stroke="#000000" points="192,-252.7 192,-277.7 344,-277.7 344,-252.7 192,-252.7"/>
<text text-anchor="start" x="318.3168" y="-260.3" font-family="Helvetica,sans-Serif" font-size="16.00" fill="#000000">1 &gt;</text>
<polygon fill="none" stroke="#000000" stroke-width="2" points="9,-251.7 9,-457.7 345,-457.7 345,-251.7 9,-251.7"/>
</a>
</g>
</g>
<!-- journal_entries&#45;&gt;journal_entry_types -->
<g id="edge1" class="edge">
<title>journal_entries:w&#45;&gt;journal_entry_types:e</title>
<path fill="none" stroke="#000000" d="M380.5991,-233.0391C324.6888,-254.4545 423.6256,-415.7 344,-415.7"/>
<polygon fill="#000000" stroke="#000000" points="387.1035,-231.9826 395.5772,-234.2534 391.0517,-231.3413 395,-230.7 395,-230.7 395,-230.7 391.0517,-231.3413 394.4228,-227.1466 387.1035,-231.9826 387.1035,-231.9826"/>
<ellipse fill="none" stroke="#000000" cx="383.9449" cy="-232.4957" rx="3.2" ry="3.2"/>
</g>
<!-- locations_cities -->
<g id="node3" class="node">
<title>locations_cities</title>
<g id="a_node3"><a xlink:href="../../tables/locations_cities.html" xlink:title="locations_cities" target="_top">
<polygon fill="#ffffff" stroke="transparent" points="87,-50.2 87,-129.2 267,-129.2 267,-50.2 87,-50.2"/>
<polygon fill="#f5f5f5" stroke="transparent" points="87,-99.7 87,-128.7 267,-128.7 267,-99.7 87,-99.7"/>
<polygon fill="none" stroke="#000000" points="87,-99.7 87,-128.7 267,-128.7 267,-99.7 87,-99.7"/>
<text text-anchor="start" x="92" y="-106.8" font-family="Helvetica,sans-Serif" font-weight="bold" font-size="16.00" fill="#000000">locations_cities</text>
<text text-anchor="start" x="218.7136" y="-109.3" font-family="Helvetica,sans-Serif" font-size="16.00" fill="#000000">[table]</text>
<polygon fill="none" stroke="#000000" points="87,-74.7 87,-99.7 267,-99.7 267,-74.7 87,-74.7"/>
<text text-anchor="start" x="90" y="-82.3" font-family="Helvetica,sans-Serif" font-size="16.00" fill="#000000">...</text>
<polygon fill="#ffffff" stroke="transparent" points="87,-49.7 87,-74.7 126,-74.7 126,-49.7 87,-49.7"/>
<polygon fill="none" stroke="#000000" points="87,-49.7 87,-74.7 126,-74.7 126,-49.7 87,-49.7"/>
<text text-anchor="start" x="90" y="-57.3" font-family="Helvetica,sans-Serif" font-size="16.00" fill="#000000">&lt; 4</text>
<polygon fill="#ffffff" stroke="transparent" points="126,-49.7 126,-74.7 233,-74.7 233,-49.7 126,-49.7"/>
<polygon fill="none" stroke="#000000" points="126,-49.7 126,-74.7 233,-74.7 233,-49.7 126,-49.7"/>
<text text-anchor="start" x="133.9696" y="-57.3" font-family="Helvetica,sans-Serif" font-size="16.00" fill="#000000">210,698 rows</text>
<polygon fill="#ffffff" stroke="transparent" points="233,-49.7 233,-74.7 267,-74.7 267,-49.7 233,-49.7"/>
<polygon fill="none" stroke="#000000" points="233,-49.7 233,-74.7 267,-74.7 267,-49.7 233,-49.7"/>
<text text-anchor="start" x="241.3168" y="-57.3" font-family="Helvetica,sans-Serif" font-size="16.00" fill="#000000">1 &gt;</text>
</a>
</g>
</g>
<!-- journal_entries&#45;&gt;locations_cities -->
<g id="edge2" class="edge">
<title>journal_entries:w&#45;&gt;locations_cities:e</title>
<path fill="none" stroke="#000000" d="M380.5192,-141.5814C331.8539,-133.6887 323.8801,-86.7 267,-86.7"/>
<polygon fill="#000000" stroke="#000000" points="387.0238,-142.0838 394.7227,-146.2893 391.0119,-142.3919 395,-142.7 395,-142.7 395,-142.7 391.0119,-142.3919 395.2773,-139.1107 387.0238,-142.0838 387.0238,-142.0838"/>
<ellipse fill="none" stroke="#000000" cx="383.8333" cy="-141.8373" rx="3.2" ry="3.2"/>
</g>
<!-- users -->
<g id="node4" class="node">
<title>users</title>
<g id="a_node4"><a xlink:href="../../tables/users.html" xlink:title="users" target="_top">
<polygon fill="#ffffff" stroke="transparent" points="128,-150.2 128,-229.2 226,-229.2 226,-150.2 128,-150.2"/>
<polygon fill="#f5f5f5" stroke="transparent" points="128,-199.7 128,-228.7 226,-228.7 226,-199.7 128,-199.7"/>
<polygon fill="none" stroke="#000000" points="128,-199.7 128,-228.7 226,-228.7 226,-199.7 128,-199.7"/>
<text text-anchor="start" x="133" y="-206.8" font-family="Helvetica,sans-Serif" font-weight="bold" font-size="16.00" fill="#000000">users</text>
<text text-anchor="start" x="177.7136" y="-209.3" font-family="Helvetica,sans-Serif" font-size="16.00" fill="#000000">[table]</text>
<polygon fill="none" stroke="#000000" points="128,-174.7 128,-199.7 226,-199.7 226,-174.7 128,-174.7"/>
<text text-anchor="start" x="131" y="-182.3" font-family="Helvetica,sans-Serif" font-size="16.00" fill="#000000">...</text>
<polygon fill="#ffffff" stroke="transparent" points="128,-149.7 128,-174.7 143,-174.7 143,-149.7 128,-149.7"/>
<polygon fill="none" stroke="#000000" points="128,-149.7 128,-174.7 143,-174.7 143,-149.7 128,-149.7"/>
<text text-anchor="start" x="131" y="-157.3" font-family="Helvetica,sans-Serif" font-size="16.00" fill="#000000"> &#160;</text>
<polygon fill="#ffffff" stroke="transparent" points="143,-149.7 143,-174.7 197,-174.7 197,-149.7 143,-149.7"/>
<polygon fill="none" stroke="#000000" points="143,-149.7 143,-174.7 197,-174.7 197,-149.7 143,-149.7"/>
<text text-anchor="start" x="146.888" y="-157.3" font-family="Helvetica,sans-Serif" font-size="16.00" fill="#000000">0 rows</text>
<polygon fill="#ffffff" stroke="transparent" points="197,-149.7 197,-174.7 226,-174.7 226,-149.7 197,-149.7"/>
<polygon fill="none" stroke="#000000" points="197,-149.7 197,-174.7 226,-174.7 226,-149.7 197,-149.7"/>
<text text-anchor="start" x="200.3168" y="-157.3" font-family="Helvetica,sans-Serif" font-size="16.00" fill="#000000">1 &gt;</text>
</a>
</g>
</g>
<!-- journal_entries&#45;&gt;users -->
<g id="edge3" class="edge">
<title>journal_entries:w&#45;&gt;users:e</title>
<path fill="none" stroke="#000000" d="M380.3501,-186.7C317.0584,-186.7 295.9766,-186.7 226,-186.7"/>
<polygon fill="#000000" stroke="#000000" points="387,-186.7001 395,-190.3 391,-186.7 395,-186.7 395,-186.7 395,-186.7 391,-186.7 395,-183.1 387,-186.7001 387,-186.7001"/>
<ellipse fill="none" stroke="#000000" cx="383.8" cy="-186.7001" rx="3.2" ry="3.2"/>
</g>
<!-- journal_entry_tags -->
<g id="node5" class="node">
<title>journal_entry_tags</title>
<g id="a_node5"><a xlink:href="../../tables/journal_entry_tags.html" xlink:title="journal_entry_tags" target="_top">
<polygon fill="#ffffff" stroke="transparent" points="640,-238.2 640,-317.2 845,-317.2 845,-238.2 640,-238.2"/>
<polygon fill="#f5f5f5" stroke="transparent" points="640.5,-287.7 640.5,-316.7 845.5,-316.7 845.5,-287.7 640.5,-287.7"/>
<polygon fill="none" stroke="#000000" points="640.5,-287.7 640.5,-316.7 845.5,-316.7 845.5,-287.7 640.5,-287.7"/>
<text text-anchor="start" x="645.5" y="-294.8" font-family="Helvetica,sans-Serif" font-weight="bold" font-size="16.00" fill="#000000">journal_entry_tags</text>
<text text-anchor="start" x="797.2136" y="-297.3" font-family="Helvetica,sans-Serif" font-size="16.00" fill="#000000">[table]</text>
<polygon fill="none" stroke="#000000" points="640.5,-262.7 640.5,-287.7 845.5,-287.7 845.5,-262.7 640.5,-262.7"/>
<text text-anchor="start" x="643.5" y="-270.3" font-family="Helvetica,sans-Serif" font-size="16.00" fill="#000000">...</text>
<polygon fill="#ffffff" stroke="transparent" points="640.5,-237.7 640.5,-262.7 723.5,-262.7 723.5,-237.7 640.5,-237.7"/>
<polygon fill="none" stroke="#000000" points="640.5,-237.7 640.5,-262.7 723.5,-262.7 723.5,-237.7 640.5,-237.7"/>
<text text-anchor="start" x="643.5" y="-245.3" font-family="Helvetica,sans-Serif" font-size="16.00" fill="#000000">&lt; 2</text>
<polygon fill="#ffffff" stroke="transparent" points="723.5,-237.7 723.5,-262.7 803.5,-262.7 803.5,-237.7 723.5,-237.7"/>
<polygon fill="none" stroke="#000000" points="723.5,-237.7 723.5,-262.7 803.5,-262.7 803.5,-237.7 723.5,-237.7"/>
<text text-anchor="start" x="753.388" y="-245.3" font-family="Helvetica,sans-Serif" font-size="16.00" fill="#000000">2 rows</text>
<polygon fill="#ffffff" stroke="transparent" points="803.5,-237.7 803.5,-262.7 845.5,-262.7 845.5,-237.7 803.5,-237.7"/>
<polygon fill="none" stroke="#000000" points="803.5,-237.7 803.5,-262.7 845.5,-262.7 845.5,-237.7 803.5,-237.7"/>
<text text-anchor="start" x="833.6072" y="-245.3" font-family="Helvetica,sans-Serif" font-size="16.00" fill="#000000"> &#160;</text>
</a>
</g>
</g>
<!-- journal_entry_tags&#45;&gt;journal_entries -->
<g id="edge4" class="edge">
<title>journal_entry_tags:w&#45;&gt;journal_entries:e</title>
<path fill="none" stroke="#000000" d="M625.8428,-274.7C614.4139,-274.7 607.1563,-274.7 591,-274.7"/>
<polygon fill="#000000" stroke="#000000" points="632.5,-274.7001 640.5,-278.3 636.5,-274.7 640.5,-274.7 640.5,-274.7 640.5,-274.7 636.5,-274.7 640.5,-271.1 632.5,-274.7001 632.5,-274.7001"/>
<ellipse fill="none" stroke="#000000" cx="629.3" cy="-274.7001" rx="3.2" ry="3.2"/>
</g>
</g>
</svg>
