<?xml version="1.0" encoding="UTF-8" standalone="no"?>
<!DOCTYPE svg PUBLIC "-//W3C//DTD SVG 1.1//EN"
 "http://www.w3.org/Graphics/SVG/1.1/DTD/svg11.dtd">
<!-- Generated by graphviz version 2.40.1 (20161225.0304)
 -->
<!-- Title: oneDegreeRelationshipsDiagram Pages: 1 -->
<svg width="575pt" height="439pt"
 viewBox="0.00 0.00 575.00 439.20" xmlns="http://www.w3.org/2000/svg" xmlns:xlink="http://www.w3.org/1999/xlink">
<g id="graph0" class="graph" transform="scale(1 1) rotate(0) translate(4 435.2)">
<title>oneDegreeRelationshipsDiagram</title>
<polygon fill="#ffffff" stroke="transparent" points="-4,4 -4,-435.2 571,-435.2 571,4 -4,4"/>
<text text-anchor="middle" x="101.8088" y="-8.8" font-family="Helvetica,sans-Serif" font-size="16.00" fill="#000000">Generated by SchemaSpy</text>
<!-- journal_entry_tags -->
<g id="node1" class="node">
<title>journal_entry_tags</title>
<g id="a_node1"><a xlink:href="../../tables/journal_entry_tags.html" xlink:title="journal_entry_tags" target="_top">
<polygon fill="#ffffff" stroke="transparent" points="253,-156.7 253,-314.7 559,-314.7 559,-156.7 253,-156.7"/>
<polygon fill="#f5f5f5" stroke="transparent" points="255,-283.7 255,-312.7 557,-312.7 557,-283.7 255,-283.7"/>
<polygon fill="none" stroke="#000000" points="255,-283.7 255,-312.7 557,-312.7 557,-283.7 255,-283.7"/>
<text text-anchor="start" x="260" y="-290.8" font-family="Helvetica,sans-Serif" font-weight="bold" font-size="16.00" fill="#000000">journal_entry_tags</text>
<text text-anchor="start" x="508.4272" y="-293.3" font-family="Helvetica,sans-Serif" font-size="16.00" fill="#000000">[table]</text>
<polygon fill="#ffffff" stroke="transparent" points="255,-258.7 255,-283.7 428,-283.7 428,-258.7 255,-258.7"/>
<polygon fill="none" stroke="#000000" points="255,-258.7 255,-283.7 428,-283.7 428,-258.7 255,-258.7"/>
<image xlink:href="../../images/foreignKeys.png" width="11px" height="12px" preserveAspectRatio="xMinYMin meet" x="260" y="-277.2"/>
<text text-anchor="start" x="275" y="-262.8" font-family="Helvetica,sans-Serif" font-size="16.00" fill="#000000">journal_entry_id</text>
<polygon fill="none" stroke="#000000" points="428,-258.7 428,-283.7 557,-283.7 557,-258.7 428,-258.7"/>
<text text-anchor="start" x="430.688" y="-266.3" font-family="Helvetica,sans-Serif" font-size="16.00" fill="#000000">text[2000000000]</text>
<polygon fill="#ffffff" stroke="transparent" points="255,-233.7 255,-258.7 428,-258.7 428,-233.7 255,-233.7"/>
<polygon fill="none" stroke="#000000" points="255,-233.7 255,-258.7 428,-258.7 428,-233.7 255,-233.7"/>
<image xlink:href="../../images/foreignKeys.png" width="11px" height="12px" preserveAspectRatio="xMinYMin meet" x="260" y="-252.2"/>
<text text-anchor="start" x="275" y="-237.8" font-family="Helvetica,sans-Serif" font-size="16.00" fill="#000000">tag_id</text>
<polygon fill="none" stroke="#000000" points="428,-233.7 428,-258.7 557,-258.7 557,-233.7 428,-233.7"/>
<text text-anchor="start" x="430.688" y="-241.3" font-family="Helvetica,sans-Serif" font-size="16.00" fill="#000000">text[2000000000]</text>
<polygon fill="none" stroke="#000000" points="255,-208.7 255,-233.7 428,-233.7 428,-208.7 255,-208.7"/>
<text text-anchor="start" x="275" y="-212.8" font-family="Helvetica,sans-Serif" font-size="16.00" fill="#000000">inserted_at</text>
<polygon fill="none" stroke="#000000" points="428,-208.7 428,-233.7 557,-233.7 557,-208.7 428,-208.7"/>
<text text-anchor="start" x="430.688" y="-216.3" font-family="Helvetica,sans-Serif" font-size="16.00" fill="#000000">text[2000000000]</text>
<polygon fill="none" stroke="#000000" points="255,-183.7 255,-208.7 428,-208.7 428,-183.7 255,-183.7"/>
<text text-anchor="start" x="275" y="-187.8" font-family="Helvetica,sans-Serif" font-size="16.00" fill="#000000">updated_at</text>
<polygon fill="none" stroke="#000000" points="428,-183.7 428,-208.7 557,-208.7 557,-183.7 428,-183.7"/>
<text text-anchor="start" x="430.688" y="-191.3" font-family="Helvetica,sans-Serif" font-size="16.00" fill="#000000">text[2000000000]</text>
<polygon fill="#ffffff" stroke="transparent" points="255,-158.7 255,-183.7 329,-183.7 329,-158.7 255,-158.7"/>
<polygon fill="none" stroke="#000000" points="255,-158.7 255,-183.7 329,-183.7 329,-158.7 255,-158.7"/>
<text text-anchor="start" x="258" y="-166.3" font-family="Helvetica,sans-Serif" font-size="16.00" fill="#000000">&lt; 2</text>
<polygon fill="#ffffff" stroke="transparent" points="329,-158.7 329,-183.7 428,-183.7 428,-158.7 329,-158.7"/>
<polygon fill="none" stroke="#000000" points="329,-158.7 329,-183.7 428,-183.7 428,-158.7 329,-158.7"/>
<text text-anchor="start" x="377.888" y="-166.3" font-family="Helvetica,sans-Serif" font-size="16.00" fill="#000000">2 rows</text>
<polygon fill="#ffffff" stroke="transparent" points="428,-158.7 428,-183.7 557,-183.7 557,-158.7 428,-158.7"/>
<polygon fill="none" stroke="#000000" points="428,-158.7 428,-183.7 557,-183.7 557,-158.7 428,-158.7"/>
<text text-anchor="start" x="531.3168" y="-166.3" font-family="Helvetica,sans-Serif" font-size="16.00" fill="#000000">0 &gt;</text>
<polygon fill="none" stroke="#000000" stroke-width="2" points="254,-157.7 254,-313.7 558,-313.7 558,-157.7 254,-157.7"/>
</a>
</g>
</g>
<!-- journal_entries -->
<g id="node2" class="node">
<title>journal_entries</title>
<g id="a_node2"><a xlink:href="../../tables/journal_entries.html" xlink:title="journal_entries" target="_top">
<polygon fill="#ffffff" stroke="transparent" points="8,-194.2 8,-427.2 204,-427.2 204,-194.2 8,-194.2"/>
<polygon fill="#f5f5f5" stroke="transparent" points="8,-397.7 8,-426.7 204,-426.7 204,-397.7 8,-397.7"/>
<polygon fill="none" stroke="#000000" points="8,-397.7 8,-426.7 204,-426.7 204,-397.7 8,-397.7"/>
<text text-anchor="start" x="13" y="-404.8" font-family="Helvetica,sans-Serif" font-weight="bold" font-size="16.00" fill="#000000">journal_entries</text>
<text text-anchor="start" x="155.4272" y="-407.3" font-family="Helvetica,sans-Serif" font-size="16.00" fill="#000000">[table]</text>
<polygon fill="none" stroke="#000000" points="8,-375.7 8,-397.7 204,-397.7 204,-375.7 8,-375.7"/>
<image xlink:href="../../images/primaryKeys.png" width="11px" height="12px" preserveAspectRatio="xMinYMin meet" x="13" y="-392.7"/>
<text text-anchor="start" x="28" y="-378.3" font-family="Helvetica,sans-Serif" font-size="16.00" fill="#000000">id</text>
<polygon fill="#ffffff" stroke="transparent" points="8,-353.7 8,-375.7 204,-375.7 204,-353.7 8,-353.7"/>
<polygon fill="none" stroke="#000000" points="8,-353.7 8,-375.7 204,-375.7 204,-353.7 8,-353.7"/>
<text text-anchor="start" x="28" y="-356.3" font-family="Helvetica,sans-Serif" font-size="16.00" fill="#000000">journal_for</text>
<polygon fill="#ffffff" stroke="transparent" points="8,-331.7 8,-353.7 204,-353.7 204,-331.7 8,-331.7"/>
<polygon fill="none" stroke="#000000" points="8,-331.7 8,-353.7 204,-353.7 204,-331.7 8,-331.7"/>
<image xlink:href="../../images/foreignKeys.png" width="11px" height="12px" preserveAspectRatio="xMinYMin meet" x="13" y="-348.7"/>
<text text-anchor="start" x="28" y="-334.3" font-family="Helvetica,sans-Serif" font-size="16.00" fill="#000000">entry_type_id</text>
<polygon fill="#ffffff" stroke="transparent" points="8,-309.7 8,-331.7 204,-331.7 204,-309.7 8,-309.7"/>
<polygon fill="none" stroke="#000000" points="8,-309.7 8,-331.7 204,-331.7 204,-309.7 8,-309.7"/>
<text text-anchor="start" x="28" y="-312.3" font-family="Helvetica,sans-Serif" font-size="16.00" fill="#000000">is_private</text>
<polygon fill="#ffffff" stroke="transparent" points="8,-287.7 8,-309.7 204,-309.7 204,-287.7 8,-287.7"/>
<polygon fill="none" stroke="#000000" points="8,-287.7 8,-309.7 204,-309.7 204,-287.7 8,-287.7"/>
<image xlink:href="../../images/foreignKeys.png" width="11px" height="12px" preserveAspectRatio="xMinYMin meet" x="13" y="-304.7"/>
<text text-anchor="start" x="28" y="-290.3" font-family="Helvetica,sans-Serif" font-size="16.00" fill="#000000">user_id</text>
<polygon fill="#ffffff" stroke="transparent" points="8,-265.7 8,-287.7 204,-287.7 204,-265.7 8,-265.7"/>
<polygon fill="none" stroke="#000000" points="8,-265.7 8,-287.7 204,-287.7 204,-265.7 8,-265.7"/>
<text text-anchor="start" x="28" y="-268.3" font-family="Helvetica,sans-Serif" font-size="16.00" fill="#000000">inserted_at</text>
<polygon fill="none" stroke="#000000" points="8,-243.7 8,-265.7 204,-265.7 204,-243.7 8,-243.7"/>
<image xlink:href="../../images/foreignKeys.png" width="11px" height="12px" preserveAspectRatio="xMinYMin meet" x="13" y="-260.7"/>
<text text-anchor="start" x="28" y="-246.3" font-family="Helvetica,sans-Serif" font-size="16.00" fill="#000000">location_id</text>
<polygon fill="none" stroke="#000000" points="8,-218.7 8,-243.7 204,-243.7 204,-218.7 8,-218.7"/>
<text text-anchor="start" x="11" y="-226.3" font-family="Helvetica,sans-Serif" font-size="16.00" fill="#000000">...</text>
<polygon fill="#ffffff" stroke="transparent" points="8,-193.7 8,-218.7 79,-218.7 79,-193.7 8,-193.7"/>
<polygon fill="none" stroke="#000000" points="8,-193.7 8,-218.7 79,-218.7 79,-193.7 8,-193.7"/>
<text text-anchor="start" x="11" y="-201.3" font-family="Helvetica,sans-Serif" font-size="16.00" fill="#000000">&lt; 3</text>
<polygon fill="#ffffff" stroke="transparent" points="79,-193.7 79,-218.7 154,-218.7 154,-193.7 79,-193.7"/>
<polygon fill="none" stroke="#000000" points="79,-193.7 79,-218.7 154,-218.7 154,-193.7 79,-193.7"/>
<text text-anchor="start" x="103.888" y="-201.3" font-family="Helvetica,sans-Serif" font-size="16.00" fill="#000000">2 rows</text>
<polygon fill="#ffffff" stroke="transparent" points="154,-193.7 154,-218.7 204,-218.7 204,-193.7 154,-193.7"/>
<polygon fill="none" stroke="#000000" points="154,-193.7 154,-218.7 204,-218.7 204,-193.7 154,-193.7"/>
<text text-anchor="start" x="178.3168" y="-201.3" font-family="Helvetica,sans-Serif" font-size="16.00" fill="#000000">1 &gt;</text>
</a>
</g>
</g>
<!-- journal_entry_tags&#45;&gt;journal_entries -->
<g id="edge1" class="edge">
<title>journal_entry_tags:w&#45;&gt;journal_entries:e</title>
<path fill="none" stroke="#000000" d="M240.9308,-275.2678C210.6197,-294.6786 254.0148,-386.7 204,-386.7"/>
<polygon fill="#000000" stroke="#000000" points="247.2455,-273.6665 255.8849,-275.1895 251.1227,-272.6833 255,-271.7 255,-271.7 255,-271.7 251.1227,-272.6833 254.1151,-268.2105 247.2455,-273.6665 247.2455,-273.6665"/>
<ellipse fill="none" stroke="#000000" cx="244.1436" cy="-274.4531" rx="3.2" ry="3.2"/>
</g>
<!-- tags -->
<g id="node3" class="node">
<title>tags</title>
<g id="a_node3"><a xlink:href="../../tables/tags.html" xlink:title="tags" target="_top">
<polygon fill="#ffffff" stroke="transparent" points="50,-50.2 50,-173.2 162,-173.2 162,-50.2 50,-50.2"/>
<polygon fill="#f5f5f5" stroke="transparent" points="50,-143.7 50,-172.7 162,-172.7 162,-143.7 50,-143.7"/>
<polygon fill="none" stroke="#000000" points="50,-143.7 50,-172.7 162,-172.7 162,-143.7 50,-143.7"/>
<text text-anchor="start" x="54.8824" y="-150.8" font-family="Helvetica,sans-Serif" font-weight="bold" font-size="16.00" fill="#000000">tags</text>
<text text-anchor="start" x="113.4272" y="-153.3" font-family="Helvetica,sans-Serif" font-size="16.00" fill="#000000">[table]</text>
<polygon fill="none" stroke="#000000" points="50,-121.7 50,-143.7 162,-143.7 162,-121.7 50,-121.7"/>
<image xlink:href="../../images/primaryKeys.png" width="11px" height="12px" preserveAspectRatio="xMinYMin meet" x="55" y="-138.7"/>
<text text-anchor="start" x="70" y="-124.3" font-family="Helvetica,sans-Serif" font-size="16.00" fill="#000000">id</text>
<polygon fill="#ffffff" stroke="transparent" points="50,-99.7 50,-121.7 162,-121.7 162,-99.7 50,-99.7"/>
<polygon fill="none" stroke="#000000" points="50,-99.7 50,-121.7 162,-121.7 162,-99.7 50,-99.7"/>
<text text-anchor="start" x="70" y="-102.3" font-family="Helvetica,sans-Serif" font-size="16.00" fill="#000000">name</text>
<polygon fill="none" stroke="#000000" points="50,-74.7 50,-99.7 162,-99.7 162,-74.7 50,-74.7"/>
<text text-anchor="start" x="53" y="-82.3" font-family="Helvetica,sans-Serif" font-size="16.00" fill="#000000">...</text>
<polygon fill="#ffffff" stroke="transparent" points="50,-49.7 50,-74.7 64,-74.7 64,-49.7 50,-49.7"/>
<polygon fill="none" stroke="#000000" points="50,-49.7 50,-74.7 64,-74.7 64,-49.7 50,-49.7"/>
<text text-anchor="start" x="52.5536" y="-57.3" font-family="Helvetica,sans-Serif" font-size="16.00" fill="#000000"> &#160;</text>
<polygon fill="#ffffff" stroke="transparent" points="64,-49.7 64,-74.7 134,-74.7 134,-49.7 64,-49.7"/>
<polygon fill="none" stroke="#000000" points="64,-49.7 64,-74.7 134,-74.7 134,-49.7 64,-49.7"/>
<text text-anchor="start" x="66.5496" y="-57.3" font-family="Helvetica,sans-Serif" font-size="16.00" fill="#000000">167 rows</text>
<polygon fill="#ffffff" stroke="transparent" points="134,-49.7 134,-74.7 162,-74.7 162,-49.7 134,-49.7"/>
<polygon fill="none" stroke="#000000" points="134,-49.7 134,-74.7 162,-74.7 162,-49.7 134,-49.7"/>
<text text-anchor="start" x="136.6584" y="-57.3" font-family="Helvetica,sans-Serif" font-size="16.00" fill="#000000">3 &gt;</text>
</a>
</g>
</g>
<!-- journal_entry_tags&#45;&gt;tags -->
<g id="edge2" class="edge">
<title>journal_entry_tags:w&#45;&gt;tags:e</title>
<path fill="none" stroke="#000000" d="M240.7456,-243.4109C224.4631,-233.8189 229.6414,-205.1969 212,-183.7 191.8631,-159.1621 193.7428,-132.7 162,-132.7"/>
<polygon fill="#000000" stroke="#000000" points="247.2048,-244.9013 254.1906,-250.2078 251.1024,-245.8006 255,-246.7 255,-246.7 255,-246.7 251.1024,-245.8006 255.8094,-243.1922 247.2048,-244.9013 247.2048,-244.9013"/>
<ellipse fill="none" stroke="#000000" cx="244.0868" cy="-244.1818" rx="3.2" ry="3.2"/>
</g>
</g>
</svg>
