<?xml version="1.0" encoding="UTF-8" standalone="no"?>
<!DOCTYPE svg PUBLIC "-//W3C//DTD SVG 1.1//EN"
 "http://www.w3.org/Graphics/SVG/1.1/DTD/svg11.dtd">
<!-- Generated by graphviz version 2.40.1 (20161225.0304)
 -->
<!-- Title: oneDegreeRelationshipsDiagram Pages: 1 -->
<svg width="607pt" height="312pt"
 viewBox="0.00 0.00 607.00 311.70" xmlns="http://www.w3.org/2000/svg" xmlns:xlink="http://www.w3.org/1999/xlink">
<g id="graph0" class="graph" transform="scale(1 1) rotate(0) translate(4 307.7)">
<title>oneDegreeRelationshipsDiagram</title>
<polygon fill="#ffffff" stroke="transparent" points="-4,4 -4,-307.7 603,-307.7 603,4 -4,4"/>
<text text-anchor="middle" x="101.8088" y="-8.8" font-family="Helvetica,sans-Serif" font-size="16.00" fill="#000000">Generated by SchemaSpy</text>
<!-- journal_entries -->
<g id="node1" class="node">
<title>journal_entries</title>
<g id="a_node1"><a xlink:href="../../tables/journal_entries.html" xlink:title="journal_entries" target="_top">
<polygon fill="#ffffff" stroke="transparent" points="395,-66.7 395,-299.7 591,-299.7 591,-66.7 395,-66.7"/>
<polygon fill="#f5f5f5" stroke="transparent" points="395,-270.2 395,-299.2 591,-299.2 591,-270.2 395,-270.2"/>
<polygon fill="none" stroke="#000000" points="395,-270.2 395,-299.2 591,-299.2 591,-270.2 395,-270.2"/>
<text text-anchor="start" x="400" y="-277.3" font-family="Helvetica,sans-Serif" font-weight="bold" font-size="16.00" fill="#000000">journal_entries</text>
<text text-anchor="start" x="542.4272" y="-279.8" font-family="Helvetica,sans-Serif" font-size="16.00" fill="#000000">[table]</text>
<polygon fill="none" stroke="#000000" points="395,-248.2 395,-270.2 591,-270.2 591,-248.2 395,-248.2"/>
<image xlink:href="../../images/primaryKeys.png" width="11px" height="12px" preserveAspectRatio="xMinYMin meet" x="400" y="-265.2"/>
<text text-anchor="start" x="415" y="-250.8" font-family="Helvetica,sans-Serif" font-size="16.00" fill="#000000">id</text>
<polygon fill="#ffffff" stroke="transparent" points="395,-226.2 395,-248.2 591,-248.2 591,-226.2 395,-226.2"/>
<polygon fill="none" stroke="#000000" points="395,-226.2 395,-248.2 591,-248.2 591,-226.2 395,-226.2"/>
<text text-anchor="start" x="415" y="-228.8" font-family="Helvetica,sans-Serif" font-size="16.00" fill="#000000">journal_for</text>
<polygon fill="#ffffff" stroke="transparent" points="395,-204.2 395,-226.2 591,-226.2 591,-204.2 395,-204.2"/>
<polygon fill="none" stroke="#000000" points="395,-204.2 395,-226.2 591,-226.2 591,-204.2 395,-204.2"/>
<image xlink:href="../../images/foreignKeys.png" width="11px" height="12px" preserveAspectRatio="xMinYMin meet" x="400" y="-221.2"/>
<text text-anchor="start" x="415" y="-206.8" font-family="Helvetica,sans-Serif" font-size="16.00" fill="#000000">entry_type_id</text>
<polygon fill="#ffffff" stroke="transparent" points="395,-182.2 395,-204.2 591,-204.2 591,-182.2 395,-182.2"/>
<polygon fill="none" stroke="#000000" points="395,-182.2 395,-204.2 591,-204.2 591,-182.2 395,-182.2"/>
<text text-anchor="start" x="415" y="-184.8" font-family="Helvetica,sans-Serif" font-size="16.00" fill="#000000">is_private</text>
<polygon fill="#ffffff" stroke="transparent" points="395,-160.2 395,-182.2 591,-182.2 591,-160.2 395,-160.2"/>
<polygon fill="none" stroke="#000000" points="395,-160.2 395,-182.2 591,-182.2 591,-160.2 395,-160.2"/>
<image xlink:href="../../images/foreignKeys.png" width="11px" height="12px" preserveAspectRatio="xMinYMin meet" x="400" y="-177.2"/>
<text text-anchor="start" x="415" y="-162.8" font-family="Helvetica,sans-Serif" font-size="16.00" fill="#000000">user_id</text>
<polygon fill="#ffffff" stroke="transparent" points="395,-138.2 395,-160.2 591,-160.2 591,-138.2 395,-138.2"/>
<polygon fill="none" stroke="#000000" points="395,-138.2 395,-160.2 591,-160.2 591,-138.2 395,-138.2"/>
<text text-anchor="start" x="415" y="-140.8" font-family="Helvetica,sans-Serif" font-size="16.00" fill="#000000">inserted_at</text>
<polygon fill="none" stroke="#000000" points="395,-116.2 395,-138.2 591,-138.2 591,-116.2 395,-116.2"/>
<image xlink:href="../../images/foreignKeys.png" width="11px" height="12px" preserveAspectRatio="xMinYMin meet" x="400" y="-133.2"/>
<text text-anchor="start" x="415" y="-118.8" font-family="Helvetica,sans-Serif" font-size="16.00" fill="#000000">location_id</text>
<polygon fill="none" stroke="#000000" points="395,-91.2 395,-116.2 591,-116.2 591,-91.2 395,-91.2"/>
<text text-anchor="start" x="398" y="-98.8" font-family="Helvetica,sans-Serif" font-size="16.00" fill="#000000">...</text>
<polygon fill="#ffffff" stroke="transparent" points="395,-66.2 395,-91.2 466,-91.2 466,-66.2 395,-66.2"/>
<polygon fill="none" stroke="#000000" points="395,-66.2 395,-91.2 466,-91.2 466,-66.2 395,-66.2"/>
<text text-anchor="start" x="398" y="-73.8" font-family="Helvetica,sans-Serif" font-size="16.00" fill="#000000">&lt; 3</text>
<polygon fill="#ffffff" stroke="transparent" points="466,-66.2 466,-91.2 541,-91.2 541,-66.2 466,-66.2"/>
<polygon fill="none" stroke="#000000" points="466,-66.2 466,-91.2 541,-91.2 541,-66.2 466,-66.2"/>
<text text-anchor="start" x="490.888" y="-73.8" font-family="Helvetica,sans-Serif" font-size="16.00" fill="#000000">2 rows</text>
<polygon fill="#ffffff" stroke="transparent" points="541,-66.2 541,-91.2 591,-91.2 591,-66.2 541,-66.2"/>
<polygon fill="none" stroke="#000000" points="541,-66.2 541,-91.2 591,-91.2 591,-66.2 541,-66.2"/>
<text text-anchor="start" x="565.3168" y="-73.8" font-family="Helvetica,sans-Serif" font-size="16.00" fill="#000000">1 &gt;</text>
</a>
</g>
</g>
<!-- journal_entry_types -->
<g id="node2" class="node">
<title>journal_entry_types</title>
<g id="a_node2"><a xlink:href="../../tables/journal_entry_types.html" xlink:title="journal_entry_types" target="_top">
<polygon fill="#ffffff" stroke="transparent" points="8,-50.2 8,-258.2 346,-258.2 346,-50.2 8,-50.2"/>
<polygon fill="#f5f5f5" stroke="transparent" points="10,-227.2 10,-256.2 344,-256.2 344,-227.2 10,-227.2"/>
<polygon fill="none" stroke="#000000" points="10,-227.2 10,-256.2 344,-256.2 344,-227.2 10,-227.2"/>
<text text-anchor="start" x="15" y="-234.3" font-family="Helvetica,sans-Serif" font-weight="bold" font-size="16.00" fill="#000000">journal_entry_types</text>
<text text-anchor="start" x="295.4272" y="-236.8" font-family="Helvetica,sans-Serif" font-size="16.00" fill="#000000">[table]</text>
<polygon fill="none" stroke="#000000" points="10,-202.2 10,-227.2 192,-227.2 192,-202.2 10,-202.2"/>
<image xlink:href="../../images/primaryKeys.png" width="11px" height="12px" preserveAspectRatio="xMinYMin meet" x="15" y="-220.7"/>
<text text-anchor="start" x="30" y="-206.3" font-family="Helvetica,sans-Serif" font-size="16.00" fill="#000000">id</text>
<polygon fill="none" stroke="#000000" points="192,-202.2 192,-227.2 344,-227.2 344,-202.2 192,-202.2"/>
<text text-anchor="start" x="195" y="-209.8" font-family="Helvetica,sans-Serif" font-size="16.00" fill="#000000">text[2000000000]</text>
<polygon fill="#ffffff" stroke="transparent" points="10,-177.2 10,-202.2 192,-202.2 192,-177.2 10,-177.2"/>
<polygon fill="none" stroke="#000000" points="10,-177.2 10,-202.2 192,-202.2 192,-177.2 10,-177.2"/>
<text text-anchor="start" x="30" y="-181.3" font-family="Helvetica,sans-Serif" font-size="16.00" fill="#000000">name</text>
<polygon fill="none" stroke="#000000" points="192,-177.2 192,-202.2 344,-202.2 344,-177.2 192,-177.2"/>
<text text-anchor="start" x="195" y="-184.8" font-family="Helvetica,sans-Serif" font-size="16.00" fill="#000000">text[2000000000]</text>
<polygon fill="none" stroke="#000000" points="10,-152.2 10,-177.2 192,-177.2 192,-152.2 10,-152.2"/>
<text text-anchor="start" x="30" y="-156.3" font-family="Helvetica,sans-Serif" font-size="16.00" fill="#000000">description</text>
<polygon fill="none" stroke="#000000" points="192,-152.2 192,-177.2 344,-177.2 344,-152.2 192,-152.2"/>
<text text-anchor="start" x="195" y="-159.8" font-family="Helvetica,sans-Serif" font-size="16.00" fill="#000000">text[2000000000]</text>
<polygon fill="#ffffff" stroke="transparent" points="10,-127.2 10,-152.2 192,-152.2 192,-127.2 10,-127.2"/>
<polygon fill="none" stroke="#000000" points="10,-127.2 10,-152.2 192,-152.2 192,-127.2 10,-127.2"/>
<text text-anchor="start" x="30" y="-131.3" font-family="Helvetica,sans-Serif" font-size="16.00" fill="#000000">active</text>
<polygon fill="none" stroke="#000000" points="192,-127.2 192,-152.2 344,-152.2 344,-127.2 192,-127.2"/>
<text text-anchor="start" x="194.6312" y="-134.8" font-family="Helvetica,sans-Serif" font-size="16.00" fill="#000000">integer[2000000000]</text>
<polygon fill="none" stroke="#000000" points="10,-102.2 10,-127.2 192,-127.2 192,-102.2 10,-102.2"/>
<text text-anchor="start" x="30" y="-106.3" font-family="Helvetica,sans-Serif" font-size="16.00" fill="#000000">inserted_at</text>
<polygon fill="none" stroke="#000000" points="192,-102.2 192,-127.2 344,-127.2 344,-102.2 192,-102.2"/>
<text text-anchor="start" x="195" y="-109.8" font-family="Helvetica,sans-Serif" font-size="16.00" fill="#000000">text[2000000000]</text>
<polygon fill="none" stroke="#000000" points="10,-77.2 10,-102.2 192,-102.2 192,-77.2 10,-77.2"/>
<text text-anchor="start" x="30" y="-81.3" font-family="Helvetica,sans-Serif" font-size="16.00" fill="#000000">updated_at</text>
<polygon fill="none" stroke="#000000" points="192,-77.2 192,-102.2 344,-102.2 344,-77.2 192,-77.2"/>
<text text-anchor="start" x="195" y="-84.8" font-family="Helvetica,sans-Serif" font-size="16.00" fill="#000000">text[2000000000]</text>
<polygon fill="#ffffff" stroke="transparent" points="10,-52.2 10,-77.2 88,-77.2 88,-52.2 10,-52.2"/>
<polygon fill="none" stroke="#000000" points="10,-52.2 10,-77.2 88,-77.2 88,-52.2 10,-52.2"/>
<text text-anchor="start" x="13" y="-59.8" font-family="Helvetica,sans-Serif" font-size="16.00" fill="#000000">&lt; 0</text>
<polygon fill="#ffffff" stroke="transparent" points="88,-52.2 88,-77.2 192,-77.2 192,-52.2 88,-52.2"/>
<polygon fill="none" stroke="#000000" points="88,-52.2 88,-77.2 192,-77.2 192,-52.2 88,-52.2"/>
<text text-anchor="start" x="141.888" y="-59.8" font-family="Helvetica,sans-Serif" font-size="16.00" fill="#000000">2 rows</text>
<polygon fill="#ffffff" stroke="transparent" points="192,-52.2 192,-77.2 344,-77.2 344,-52.2 192,-52.2"/>
<polygon fill="none" stroke="#000000" points="192,-52.2 192,-77.2 344,-77.2 344,-52.2 192,-52.2"/>
<text text-anchor="start" x="318.3168" y="-59.8" font-family="Helvetica,sans-Serif" font-size="16.00" fill="#000000">1 &gt;</text>
<polygon fill="none" stroke="#000000" stroke-width="2" points="9,-51.2 9,-257.2 345,-257.2 345,-51.2 9,-51.2"/>
</a>
</g>
</g>
<!-- journal_entries&#45;&gt;journal_entry_types -->
<g id="edge1" class="edge">
<title>journal_entries:w&#45;&gt;journal_entry_types:e</title>
<path fill="none" stroke="#000000" d="M380.276,-215.2C368.2815,-215.2 360.8229,-215.2 344,-215.2"/>
<polygon fill="#000000" stroke="#000000" points="387,-215.2001 395,-218.8 391,-215.2 395,-215.2 395,-215.2 395,-215.2 391,-215.2 395,-211.6 387,-215.2001 387,-215.2001"/>
<ellipse fill="none" stroke="#000000" cx="383.8" cy="-215.2001" rx="3.2" ry="3.2"/>
</g>
</g>
</svg>
