<?xml version="1.0" encoding="UTF-8" standalone="no"?>
<!DOCTYPE svg PUBLIC "-//W3C//DTD SVG 1.1//EN"
 "http://www.w3.org/Graphics/SVG/1.1/DTD/svg11.dtd">
<!-- Generated by graphviz version 2.40.1 (20161225.0304)
 -->
<!-- Title: twoDegreesRelationshipsDiagramImplied Pages: 1 -->
<svg width="1982pt" height="680pt"
 viewBox="0.00 0.00 1982.00 680.44" xmlns="http://www.w3.org/2000/svg" xmlns:xlink="http://www.w3.org/1999/xlink">
<g id="graph0" class="graph" transform="scale(1 1) rotate(0) translate(4 676.436)">
<title>twoDegreesRelationshipsDiagramImplied</title>
<polygon fill="#ffffff" stroke="transparent" points="-4,4 -4,-676.436 1978,-676.436 1978,4 -4,4"/>
<text text-anchor="middle" x="101.8088" y="-8.8" font-family="Helvetica,sans-Serif" font-size="16.00" fill="#000000">Generated by SchemaSpy</text>
<!-- journal_entries -->
<g id="node1" class="node">
<title>journal_entries</title>
<g id="a_node1"><a xlink:href="../../tables/journal_entries.html" xlink:title="journal_entries" target="_top">
<polygon fill="#ffffff" stroke="transparent" points="1792,-489.2 1792,-568.2 1966,-568.2 1966,-489.2 1792,-489.2"/>
<polygon fill="#f5f5f5" stroke="transparent" points="1792,-538.7 1792,-567.7 1966,-567.7 1966,-538.7 1792,-538.7"/>
<polygon fill="none" stroke="#000000" points="1792,-538.7 1792,-567.7 1966,-567.7 1966,-538.7 1792,-538.7"/>
<text text-anchor="start" x="1797" y="-545.8" font-family="Helvetica,sans-Serif" font-weight="bold" font-size="16.00" fill="#000000">journal_entries</text>
<text text-anchor="start" x="1917.7136" y="-548.3" font-family="Helvetica,sans-Serif" font-size="16.00" fill="#000000">[table]</text>
<polygon fill="none" stroke="#000000" points="1792,-513.7 1792,-538.7 1966,-538.7 1966,-513.7 1792,-513.7"/>
<text text-anchor="start" x="1795" y="-521.3" font-family="Helvetica,sans-Serif" font-size="16.00" fill="#000000">...</text>
<polygon fill="#ffffff" stroke="transparent" points="1792,-488.7 1792,-513.7 1852,-513.7 1852,-488.7 1792,-488.7"/>
<polygon fill="none" stroke="#000000" points="1792,-488.7 1792,-513.7 1852,-513.7 1852,-488.7 1792,-488.7"/>
<text text-anchor="start" x="1795" y="-496.3" font-family="Helvetica,sans-Serif" font-size="16.00" fill="#000000">&lt; 3</text>
<polygon fill="#ffffff" stroke="transparent" points="1852,-488.7 1852,-513.7 1921,-513.7 1921,-488.7 1852,-488.7"/>
<polygon fill="none" stroke="#000000" points="1852,-488.7 1852,-513.7 1921,-513.7 1921,-488.7 1852,-488.7"/>
<text text-anchor="start" x="1870.888" y="-496.3" font-family="Helvetica,sans-Serif" font-size="16.00" fill="#000000">2 rows</text>
<polygon fill="#ffffff" stroke="transparent" points="1921,-488.7 1921,-513.7 1966,-513.7 1966,-488.7 1921,-488.7"/>
<polygon fill="none" stroke="#000000" points="1921,-488.7 1921,-513.7 1966,-513.7 1966,-488.7 1921,-488.7"/>
<text text-anchor="start" x="1940.3168" y="-496.3" font-family="Helvetica,sans-Serif" font-size="16.00" fill="#000000">1 &gt;</text>
</a>
</g>
</g>
<!-- locations_cities -->
<g id="node2" class="node">
<title>locations_cities</title>
<g id="a_node2"><a xlink:href="../../tables/locations_cities.html" xlink:title="locations_cities" target="_top">
<polygon fill="#ffffff" stroke="transparent" points="1563,-486.2 1563,-565.2 1743,-565.2 1743,-486.2 1563,-486.2"/>
<polygon fill="#f5f5f5" stroke="transparent" points="1563,-535.7 1563,-564.7 1743,-564.7 1743,-535.7 1563,-535.7"/>
<polygon fill="none" stroke="#000000" points="1563,-535.7 1563,-564.7 1743,-564.7 1743,-535.7 1563,-535.7"/>
<text text-anchor="start" x="1568" y="-542.8" font-family="Helvetica,sans-Serif" font-weight="bold" font-size="16.00" fill="#000000">locations_cities</text>
<text text-anchor="start" x="1694.7136" y="-545.3" font-family="Helvetica,sans-Serif" font-size="16.00" fill="#000000">[table]</text>
<polygon fill="none" stroke="#000000" points="1563,-510.7 1563,-535.7 1743,-535.7 1743,-510.7 1563,-510.7"/>
<text text-anchor="start" x="1566" y="-518.3" font-family="Helvetica,sans-Serif" font-size="16.00" fill="#000000">...</text>
<polygon fill="#ffffff" stroke="transparent" points="1563,-485.7 1563,-510.7 1602,-510.7 1602,-485.7 1563,-485.7"/>
<polygon fill="none" stroke="#000000" points="1563,-485.7 1563,-510.7 1602,-510.7 1602,-485.7 1563,-485.7"/>
<text text-anchor="start" x="1566" y="-493.3" font-family="Helvetica,sans-Serif" font-size="16.00" fill="#000000">&lt; 5</text>
<polygon fill="#ffffff" stroke="transparent" points="1602,-485.7 1602,-510.7 1709,-510.7 1709,-485.7 1602,-485.7"/>
<polygon fill="none" stroke="#000000" points="1602,-485.7 1602,-510.7 1709,-510.7 1709,-485.7 1602,-485.7"/>
<text text-anchor="start" x="1609.9696" y="-493.3" font-family="Helvetica,sans-Serif" font-size="16.00" fill="#000000">210,698 rows</text>
<polygon fill="#ffffff" stroke="transparent" points="1709,-485.7 1709,-510.7 1743,-510.7 1743,-485.7 1709,-485.7"/>
<polygon fill="none" stroke="#000000" points="1709,-485.7 1709,-510.7 1743,-510.7 1743,-485.7 1709,-485.7"/>
<text text-anchor="start" x="1717.3168" y="-493.3" font-family="Helvetica,sans-Serif" font-size="16.00" fill="#000000">1 &gt;</text>
</a>
</g>
</g>
<!-- journal_entries&#45;&gt;locations_cities -->
<g id="edge1" class="edge">
<title>journal_entries:w&#45;&gt;locations_cities:e</title>
<path fill="none" stroke="#000000" d="M1777.5909,-525.7C1768.9171,-525.7 1760.0879,-525.7 1751.3384,-525.7"/>
<polygon fill="#000000" stroke="#000000" points="1784,-525.7001 1792,-529.3 1788,-525.7 1792,-525.7 1792,-525.7 1792,-525.7 1788,-525.7 1792,-522.1 1784,-525.7001 1784,-525.7001"/>
<ellipse fill="none" stroke="#000000" cx="1780.8" cy="-525.7001" rx="3.2" ry="3.2"/>
</g>
<!-- locations_administrative_divisions_1 -->
<g id="node3" class="node">
<title>locations_administrative_divisions_1</title>
<g id="a_node3"><a xlink:href="../../tables/locations_administrative_divisions_1.html" xlink:title="locations_administrative_divisions_1" target="_top">
<polygon fill="#ffffff" stroke="transparent" points="757,-550.2 757,-629.2 1111,-629.2 1111,-550.2 757,-550.2"/>
<polygon fill="#f5f5f5" stroke="transparent" points="757,-599.7 757,-628.7 1111,-628.7 1111,-599.7 757,-599.7"/>
<polygon fill="none" stroke="#000000" points="757,-599.7 757,-628.7 1111,-628.7 1111,-599.7 757,-599.7"/>
<text text-anchor="start" x="762" y="-606.8" font-family="Helvetica,sans-Serif" font-weight="bold" font-size="16.00" fill="#000000">locations_administrative_divisions_1</text>
<text text-anchor="start" x="1062.7136" y="-609.3" font-family="Helvetica,sans-Serif" font-size="16.00" fill="#000000">[table]</text>
<polygon fill="none" stroke="#000000" points="757,-574.7 757,-599.7 1111,-599.7 1111,-574.7 757,-574.7"/>
<text text-anchor="start" x="760" y="-582.3" font-family="Helvetica,sans-Serif" font-size="16.00" fill="#000000">...</text>
<polygon fill="#ffffff" stroke="transparent" points="757,-549.7 757,-574.7 892,-574.7 892,-549.7 757,-549.7"/>
<polygon fill="none" stroke="#000000" points="757,-549.7 757,-574.7 892,-574.7 892,-549.7 757,-549.7"/>
<text text-anchor="start" x="760" y="-557.3" font-family="Helvetica,sans-Serif" font-size="16.00" fill="#000000">&lt; 1</text>
<polygon fill="#ffffff" stroke="transparent" points="892,-549.7 892,-574.7 1029,-574.7 1029,-549.7 892,-549.7"/>
<polygon fill="none" stroke="#000000" points="892,-549.7 892,-574.7 1029,-574.7 1029,-549.7 892,-549.7"/>
<text text-anchor="start" x="947.7584" y="-557.3" font-family="Helvetica,sans-Serif" font-size="16.00" fill="#000000">3,893 rows</text>
<polygon fill="#ffffff" stroke="transparent" points="1029,-549.7 1029,-574.7 1111,-574.7 1111,-549.7 1029,-549.7"/>
<polygon fill="none" stroke="#000000" points="1029,-549.7 1029,-574.7 1111,-574.7 1111,-549.7 1029,-549.7"/>
<text text-anchor="start" x="1085.3168" y="-557.3" font-family="Helvetica,sans-Serif" font-size="16.00" fill="#000000">2 &gt;</text>
</a>
</g>
</g>
<!-- locations_cities&#45;&gt;locations_administrative_divisions_1 -->
<g id="edge5" class="edge">
<title>locations_cities:w&#45;&gt;locations_administrative_divisions_1:e</title>
<path fill="none" stroke="#000000" d="M1540.5815,-534.5908C1416.503,-544.4589 1224.715,-559.8897 1152,-566.7 1141.2957,-567.7025 1130.2991,-568.7639 1119.2052,-569.8589"/>
<polygon fill="#000000" stroke="#000000" points="1547.0149,-534.0796 1555.275,-537.0344 1551.0023,-533.7627 1554.9897,-533.4457 1554.9897,-533.4457 1554.9897,-533.4457 1551.0023,-533.7627 1554.7045,-529.8571 1547.0149,-534.0796 1547.0149,-534.0796"/>
<ellipse fill="none" stroke="#000000" cx="1543.8249" cy="-534.3331" rx="3.2" ry="3.2"/>
</g>
<!-- locations_countries -->
<g id="node4" class="node">
<title>locations_countries</title>
<g id="a_node4"><a xlink:href="../../tables/locations_countries.html" xlink:title="locations_countries" target="_top">
<polygon fill="#ffffff" stroke="transparent" points="280,-50.2 280,-633.2 708,-633.2 708,-50.2 280,-50.2"/>
<polygon fill="#f5f5f5" stroke="transparent" points="282,-601.7 282,-630.7 706,-630.7 706,-601.7 282,-601.7"/>
<polygon fill="none" stroke="#000000" points="282,-601.7 282,-630.7 706,-630.7 706,-601.7 282,-601.7"/>
<text text-anchor="start" x="287" y="-608.8" font-family="Helvetica,sans-Serif" font-weight="bold" font-size="16.00" fill="#000000">locations_countries</text>
<text text-anchor="start" x="657.4272" y="-611.3" font-family="Helvetica,sans-Serif" font-size="16.00" fill="#000000">[table]</text>
<polygon fill="none" stroke="#000000" points="282,-576.7 282,-601.7 524,-601.7 524,-576.7 282,-576.7"/>
<image xlink:href="../../images/primaryKeys.png" width="11px" height="12px" preserveAspectRatio="xMinYMin meet" x="287" y="-595.2"/>
<text text-anchor="start" x="302" y="-580.8" font-family="Helvetica,sans-Serif" font-size="16.00" fill="#000000">iso_country_code</text>
<polygon fill="none" stroke="#000000" points="524,-576.7 524,-601.7 706,-601.7 706,-576.7 524,-576.7"/>
<text text-anchor="start" x="527" y="-584.3" font-family="Helvetica,sans-Serif" font-size="16.00" fill="#000000">text[2000000000]</text>
<polygon fill="#ffffff" stroke="transparent" points="282,-551.7 282,-576.7 524,-576.7 524,-551.7 282,-551.7"/>
<polygon fill="none" stroke="#000000" points="282,-551.7 282,-576.7 524,-576.7 524,-551.7 282,-551.7"/>
<text text-anchor="start" x="302" y="-555.8" font-family="Helvetica,sans-Serif" font-size="16.00" fill="#000000">iso_3_country_code</text>
<polygon fill="none" stroke="#000000" points="524,-551.7 524,-576.7 706,-576.7 706,-551.7 524,-551.7"/>
<text text-anchor="start" x="527" y="-559.3" font-family="Helvetica,sans-Serif" font-size="16.00" fill="#000000">text[2000000000]</text>
<polygon fill="#ffffff" stroke="transparent" points="282,-526.7 282,-551.7 524,-551.7 524,-526.7 282,-526.7"/>
<polygon fill="none" stroke="#000000" points="282,-526.7 282,-551.7 524,-551.7 524,-526.7 282,-526.7"/>
<text text-anchor="start" x="302" y="-530.8" font-family="Helvetica,sans-Serif" font-size="16.00" fill="#000000">iso_numeric_country_code</text>
<polygon fill="none" stroke="#000000" points="524,-526.7 524,-551.7 706,-551.7 706,-526.7 524,-526.7"/>
<text text-anchor="start" x="527" y="-534.3" font-family="Helvetica,sans-Serif" font-size="16.00" fill="#000000">integer[2000000000]</text>
<polygon fill="none" stroke="#000000" points="282,-501.7 282,-526.7 524,-526.7 524,-501.7 282,-501.7"/>
<text text-anchor="start" x="302" y="-505.8" font-family="Helvetica,sans-Serif" font-size="16.00" fill="#000000">fips_country_code</text>
<polygon fill="none" stroke="#000000" points="524,-501.7 524,-526.7 706,-526.7 706,-501.7 524,-501.7"/>
<text text-anchor="start" x="527" y="-509.3" font-family="Helvetica,sans-Serif" font-size="16.00" fill="#000000">text[2000000000]</text>
<polygon fill="#ffffff" stroke="transparent" points="282,-476.7 282,-501.7 524,-501.7 524,-476.7 282,-476.7"/>
<polygon fill="none" stroke="#000000" points="282,-476.7 282,-501.7 524,-501.7 524,-476.7 282,-476.7"/>
<text text-anchor="start" x="302" y="-480.8" font-family="Helvetica,sans-Serif" font-size="16.00" fill="#000000">country_name</text>
<polygon fill="none" stroke="#000000" points="524,-476.7 524,-501.7 706,-501.7 706,-476.7 524,-476.7"/>
<text text-anchor="start" x="527" y="-484.3" font-family="Helvetica,sans-Serif" font-size="16.00" fill="#000000">text[2000000000]</text>
<polygon fill="none" stroke="#000000" points="282,-451.7 282,-476.7 524,-476.7 524,-451.7 282,-451.7"/>
<text text-anchor="start" x="302" y="-455.8" font-family="Helvetica,sans-Serif" font-size="16.00" fill="#000000">capital</text>
<polygon fill="none" stroke="#000000" points="524,-451.7 524,-476.7 706,-476.7 706,-451.7 524,-451.7"/>
<text text-anchor="start" x="527" y="-459.3" font-family="Helvetica,sans-Serif" font-size="16.00" fill="#000000">text[2000000000]</text>
<polygon fill="#ffffff" stroke="transparent" points="282,-426.7 282,-451.7 524,-451.7 524,-426.7 282,-426.7"/>
<polygon fill="none" stroke="#000000" points="282,-426.7 282,-451.7 524,-451.7 524,-426.7 282,-426.7"/>
<text text-anchor="start" x="302" y="-430.8" font-family="Helvetica,sans-Serif" font-size="16.00" fill="#000000">area</text>
<polygon fill="none" stroke="#000000" points="524,-426.7 524,-451.7 706,-451.7 706,-426.7 524,-426.7"/>
<text text-anchor="start" x="526.5208" y="-434.3" font-family="Helvetica,sans-Serif" font-size="16.00" fill="#000000">numeric[2000000000,10]</text>
<polygon fill="#ffffff" stroke="transparent" points="282,-401.7 282,-426.7 524,-426.7 524,-401.7 282,-401.7"/>
<polygon fill="none" stroke="#000000" points="282,-401.7 282,-426.7 524,-426.7 524,-401.7 282,-401.7"/>
<text text-anchor="start" x="302" y="-405.8" font-family="Helvetica,sans-Serif" font-size="16.00" fill="#000000">population</text>
<polygon fill="none" stroke="#000000" points="524,-401.7 524,-426.7 706,-426.7 706,-401.7 524,-401.7"/>
<text text-anchor="start" x="527" y="-409.3" font-family="Helvetica,sans-Serif" font-size="16.00" fill="#000000">integer[2000000000]</text>
<polygon fill="#ffffff" stroke="transparent" points="282,-376.7 282,-401.7 524,-401.7 524,-376.7 282,-376.7"/>
<polygon fill="none" stroke="#000000" points="282,-376.7 282,-401.7 524,-401.7 524,-376.7 282,-376.7"/>
<image xlink:href="../../images/foreignKeys.png" width="11px" height="12px" preserveAspectRatio="xMinYMin meet" x="287" y="-395.2"/>
<text text-anchor="start" x="302" y="-380.8" font-family="Helvetica,sans-Serif" font-size="16.00" fill="#000000">continent_code</text>
<polygon fill="none" stroke="#000000" points="524,-376.7 524,-401.7 706,-401.7 706,-376.7 524,-376.7"/>
<text text-anchor="start" x="527" y="-384.3" font-family="Helvetica,sans-Serif" font-size="16.00" fill="#000000">text[2000000000]</text>
<polygon fill="#ffffff" stroke="transparent" points="282,-351.7 282,-376.7 524,-376.7 524,-351.7 282,-351.7"/>
<polygon fill="none" stroke="#000000" points="282,-351.7 282,-376.7 524,-376.7 524,-351.7 282,-351.7"/>
<text text-anchor="start" x="302" y="-355.8" font-family="Helvetica,sans-Serif" font-size="16.00" fill="#000000">tld</text>
<polygon fill="none" stroke="#000000" points="524,-351.7 524,-376.7 706,-376.7 706,-351.7 524,-351.7"/>
<text text-anchor="start" x="527" y="-359.3" font-family="Helvetica,sans-Serif" font-size="16.00" fill="#000000">text[2000000000]</text>
<polygon fill="#ffffff" stroke="transparent" points="282,-326.7 282,-351.7 524,-351.7 524,-326.7 282,-326.7"/>
<polygon fill="none" stroke="#000000" points="282,-326.7 282,-351.7 524,-351.7 524,-326.7 282,-326.7"/>
<text text-anchor="start" x="302" y="-330.8" font-family="Helvetica,sans-Serif" font-size="16.00" fill="#000000">currency_code</text>
<polygon fill="none" stroke="#000000" points="524,-326.7 524,-351.7 706,-351.7 706,-326.7 524,-326.7"/>
<text text-anchor="start" x="527" y="-334.3" font-family="Helvetica,sans-Serif" font-size="16.00" fill="#000000">text[2000000000]</text>
<polygon fill="none" stroke="#000000" points="282,-301.7 282,-326.7 524,-326.7 524,-301.7 282,-301.7"/>
<text text-anchor="start" x="302" y="-305.8" font-family="Helvetica,sans-Serif" font-size="16.00" fill="#000000">currency_name</text>
<polygon fill="none" stroke="#000000" points="524,-301.7 524,-326.7 706,-326.7 706,-301.7 524,-301.7"/>
<text text-anchor="start" x="527" y="-309.3" font-family="Helvetica,sans-Serif" font-size="16.00" fill="#000000">text[2000000000]</text>
<polygon fill="none" stroke="#000000" points="282,-276.7 282,-301.7 524,-301.7 524,-276.7 282,-276.7"/>
<text text-anchor="start" x="302" y="-280.8" font-family="Helvetica,sans-Serif" font-size="16.00" fill="#000000">phone</text>
<polygon fill="none" stroke="#000000" points="524,-276.7 524,-301.7 706,-301.7 706,-276.7 524,-276.7"/>
<text text-anchor="start" x="527" y="-284.3" font-family="Helvetica,sans-Serif" font-size="16.00" fill="#000000">text[2000000000]</text>
<polygon fill="none" stroke="#000000" points="282,-251.7 282,-276.7 524,-276.7 524,-251.7 282,-251.7"/>
<text text-anchor="start" x="302" y="-255.8" font-family="Helvetica,sans-Serif" font-size="16.00" fill="#000000">postal_code_format</text>
<polygon fill="none" stroke="#000000" points="524,-251.7 524,-276.7 706,-276.7 706,-251.7 524,-251.7"/>
<text text-anchor="start" x="527" y="-259.3" font-family="Helvetica,sans-Serif" font-size="16.00" fill="#000000">text[2000000000]</text>
<polygon fill="none" stroke="#000000" points="282,-226.7 282,-251.7 524,-251.7 524,-226.7 282,-226.7"/>
<text text-anchor="start" x="302" y="-230.8" font-family="Helvetica,sans-Serif" font-size="16.00" fill="#000000">postal_code_regex</text>
<polygon fill="none" stroke="#000000" points="524,-226.7 524,-251.7 706,-251.7 706,-226.7 524,-226.7"/>
<text text-anchor="start" x="527" y="-234.3" font-family="Helvetica,sans-Serif" font-size="16.00" fill="#000000">text[2000000000]</text>
<polygon fill="none" stroke="#000000" points="282,-201.7 282,-226.7 524,-226.7 524,-201.7 282,-201.7"/>
<text text-anchor="start" x="302" y="-205.8" font-family="Helvetica,sans-Serif" font-size="16.00" fill="#000000">languages</text>
<polygon fill="none" stroke="#000000" points="524,-201.7 524,-226.7 706,-226.7 706,-201.7 524,-201.7"/>
<text text-anchor="start" x="527" y="-209.3" font-family="Helvetica,sans-Serif" font-size="16.00" fill="#000000">text[2000000000]</text>
<polygon fill="#ffffff" stroke="transparent" points="282,-176.7 282,-201.7 524,-201.7 524,-176.7 282,-176.7"/>
<polygon fill="none" stroke="#000000" points="282,-176.7 282,-201.7 524,-201.7 524,-176.7 282,-176.7"/>
<text text-anchor="start" x="302" y="-180.8" font-family="Helvetica,sans-Serif" font-size="16.00" fill="#000000">geoname_id</text>
<polygon fill="none" stroke="#000000" points="524,-176.7 524,-201.7 706,-201.7 706,-176.7 524,-176.7"/>
<text text-anchor="start" x="527" y="-184.3" font-family="Helvetica,sans-Serif" font-size="16.00" fill="#000000">integer[2000000000]</text>
<polygon fill="none" stroke="#000000" points="282,-151.7 282,-176.7 524,-176.7 524,-151.7 282,-151.7"/>
<text text-anchor="start" x="302" y="-155.8" font-family="Helvetica,sans-Serif" font-size="16.00" fill="#000000">neighbours</text>
<polygon fill="none" stroke="#000000" points="524,-151.7 524,-176.7 706,-176.7 706,-151.7 524,-151.7"/>
<text text-anchor="start" x="527" y="-159.3" font-family="Helvetica,sans-Serif" font-size="16.00" fill="#000000">text[2000000000]</text>
<polygon fill="none" stroke="#000000" points="282,-126.7 282,-151.7 524,-151.7 524,-126.7 282,-126.7"/>
<text text-anchor="start" x="302" y="-130.8" font-family="Helvetica,sans-Serif" font-size="16.00" fill="#000000">equivalent_fips_code</text>
<polygon fill="none" stroke="#000000" points="524,-126.7 524,-151.7 706,-151.7 706,-126.7 524,-126.7"/>
<text text-anchor="start" x="527" y="-134.3" font-family="Helvetica,sans-Serif" font-size="16.00" fill="#000000">text[2000000000]</text>
<polygon fill="none" stroke="#000000" points="282,-101.7 282,-126.7 524,-126.7 524,-101.7 282,-101.7"/>
<text text-anchor="start" x="302" y="-105.8" font-family="Helvetica,sans-Serif" font-size="16.00" fill="#000000">inserted_at</text>
<polygon fill="none" stroke="#000000" points="524,-101.7 524,-126.7 706,-126.7 706,-101.7 524,-101.7"/>
<text text-anchor="start" x="527" y="-109.3" font-family="Helvetica,sans-Serif" font-size="16.00" fill="#000000">text[2000000000]</text>
<polygon fill="none" stroke="#000000" points="282,-76.7 282,-101.7 524,-101.7 524,-76.7 282,-76.7"/>
<text text-anchor="start" x="302" y="-80.8" font-family="Helvetica,sans-Serif" font-size="16.00" fill="#000000">updated_at</text>
<polygon fill="none" stroke="#000000" points="524,-76.7 524,-101.7 706,-101.7 706,-76.7 524,-76.7"/>
<text text-anchor="start" x="527" y="-84.3" font-family="Helvetica,sans-Serif" font-size="16.00" fill="#000000">text[2000000000]</text>
<polygon fill="#ffffff" stroke="transparent" points="282,-51.7 282,-76.7 382,-76.7 382,-51.7 282,-51.7"/>
<polygon fill="none" stroke="#000000" points="282,-51.7 282,-76.7 382,-76.7 382,-51.7 282,-51.7"/>
<text text-anchor="start" x="285" y="-59.3" font-family="Helvetica,sans-Serif" font-size="16.00" fill="#000000">&lt; 1</text>
<polygon fill="#ffffff" stroke="transparent" points="382,-51.7 382,-76.7 524,-76.7 524,-51.7 382,-51.7"/>
<polygon fill="none" stroke="#000000" points="382,-51.7 382,-76.7 524,-76.7 524,-51.7 382,-51.7"/>
<text text-anchor="start" x="456.0992" y="-59.3" font-family="Helvetica,sans-Serif" font-size="16.00" fill="#000000">252 rows</text>
<polygon fill="#ffffff" stroke="transparent" points="524,-51.7 524,-76.7 706,-76.7 706,-51.7 524,-51.7"/>
<polygon fill="none" stroke="#000000" points="524,-51.7 524,-76.7 706,-76.7 706,-51.7 524,-51.7"/>
<text text-anchor="start" x="680.3168" y="-59.3" font-family="Helvetica,sans-Serif" font-size="16.00" fill="#000000">3 &gt;</text>
<polygon fill="none" stroke="#000000" stroke-width="2" points="281,-51.2 281,-632.2 707,-632.2 707,-51.2 281,-51.2"/>
</a>
</g>
</g>
<!-- locations_cities&#45;&gt;locations_countries -->
<g id="edge7" class="edge">
<title>locations_cities:w&#45;&gt;locations_countries:e</title>
<path fill="none" stroke="#000000" d="M1540.2968,-522.3114C1313.7574,-516.2433 818.8068,-507.0063 749,-539.7 722.4571,-552.1313 735.3098,-589.7 706,-589.7"/>
<polygon fill="#000000" stroke="#000000" points="1546.826,-522.4887 1554.7252,-526.3047 1550.8245,-522.5974 1554.823,-522.7061 1554.823,-522.7061 1554.823,-522.7061 1550.8245,-522.5974 1554.9208,-519.1074 1546.826,-522.4887 1546.826,-522.4887"/>
<ellipse fill="none" stroke="#000000" cx="1543.6272" cy="-522.4018" rx="3.2" ry="3.2"/>
</g>
<!-- locations_administrative_divisions_2 -->
<g id="node5" class="node">
<title>locations_administrative_divisions_2</title>
<g id="a_node5"><a xlink:href="../../tables/locations_administrative_divisions_2.html" xlink:title="locations_administrative_divisions_2" target="_top">
<polygon fill="#ffffff" stroke="transparent" points="1160,-577.2 1160,-656.2 1514,-656.2 1514,-577.2 1160,-577.2"/>
<polygon fill="#f5f5f5" stroke="transparent" points="1160,-626.7 1160,-655.7 1514,-655.7 1514,-626.7 1160,-626.7"/>
<polygon fill="none" stroke="#000000" points="1160,-626.7 1160,-655.7 1514,-655.7 1514,-626.7 1160,-626.7"/>
<text text-anchor="start" x="1165" y="-633.8" font-family="Helvetica,sans-Serif" font-weight="bold" font-size="16.00" fill="#000000">locations_administrative_divisions_2</text>
<text text-anchor="start" x="1465.7136" y="-636.3" font-family="Helvetica,sans-Serif" font-size="16.00" fill="#000000">[table]</text>
<polygon fill="none" stroke="#000000" points="1160,-601.7 1160,-626.7 1514,-626.7 1514,-601.7 1160,-601.7"/>
<text text-anchor="start" x="1163" y="-609.3" font-family="Helvetica,sans-Serif" font-size="16.00" fill="#000000">...</text>
<polygon fill="#ffffff" stroke="transparent" points="1160,-576.7 1160,-601.7 1290,-601.7 1290,-576.7 1160,-576.7"/>
<polygon fill="none" stroke="#000000" points="1160,-576.7 1160,-601.7 1290,-601.7 1290,-576.7 1160,-576.7"/>
<text text-anchor="start" x="1163" y="-584.3" font-family="Helvetica,sans-Serif" font-size="16.00" fill="#000000">&lt; 2</text>
<polygon fill="#ffffff" stroke="transparent" points="1290,-576.7 1290,-601.7 1434,-601.7 1434,-576.7 1290,-576.7"/>
<polygon fill="none" stroke="#000000" points="1290,-576.7 1290,-601.7 1434,-601.7 1434,-576.7 1290,-576.7"/>
<text text-anchor="start" x="1343.864" y="-584.3" font-family="Helvetica,sans-Serif" font-size="16.00" fill="#000000">47,229 rows</text>
<polygon fill="#ffffff" stroke="transparent" points="1434,-576.7 1434,-601.7 1514,-601.7 1514,-576.7 1434,-576.7"/>
<polygon fill="none" stroke="#000000" points="1434,-576.7 1434,-601.7 1514,-601.7 1514,-576.7 1434,-576.7"/>
<text text-anchor="start" x="1488.3168" y="-584.3" font-family="Helvetica,sans-Serif" font-size="16.00" fill="#000000">1 &gt;</text>
</a>
</g>
</g>
<!-- locations_cities&#45;&gt;locations_administrative_divisions_2 -->
<g id="edge6" class="edge">
<title>locations_cities:w&#45;&gt;locations_administrative_divisions_2:e</title>
<path fill="none" stroke="#000000" stroke-dasharray="5,2" d="M1540.6762,-558.0464C1523.6853,-562.9394 1505.9234,-568.0543 1488.2736,-573.137"/>
<polygon fill="#000000" stroke="#000000" points="1547.0602,-556.208 1555.7441,-557.4536 1550.904,-555.1011 1554.7478,-553.9941 1554.7478,-553.9941 1554.7478,-553.9941 1550.904,-555.1011 1553.7516,-550.5347 1547.0602,-556.208 1547.0602,-556.208"/>
<ellipse fill="none" stroke="#000000" cx="1543.9852" cy="-557.0936" rx="3.2" ry="3.2"/>
</g>
<!-- locations_feature_classes -->
<g id="node6" class="node">
<title>locations_feature_classes</title>
<g id="a_node6"><a xlink:href="../../tables/locations_feature_classes.html" xlink:title="locations_feature_classes" target="_top">
<polygon fill="#ffffff" stroke="transparent" points="802,-391.2 802,-470.2 1066,-470.2 1066,-391.2 802,-391.2"/>
<polygon fill="#f5f5f5" stroke="transparent" points="802,-440.7 802,-469.7 1066,-469.7 1066,-440.7 802,-440.7"/>
<polygon fill="none" stroke="#000000" points="802,-440.7 802,-469.7 1066,-469.7 1066,-440.7 802,-440.7"/>
<text text-anchor="start" x="807" y="-447.8" font-family="Helvetica,sans-Serif" font-weight="bold" font-size="16.00" fill="#000000">locations_feature_classes</text>
<text text-anchor="start" x="1017.7136" y="-450.3" font-family="Helvetica,sans-Serif" font-size="16.00" fill="#000000">[table]</text>
<polygon fill="none" stroke="#000000" points="802,-415.7 802,-440.7 1066,-440.7 1066,-415.7 802,-415.7"/>
<text text-anchor="start" x="805" y="-423.3" font-family="Helvetica,sans-Serif" font-size="16.00" fill="#000000">...</text>
<polygon fill="#ffffff" stroke="transparent" points="802,-390.7 802,-415.7 900,-415.7 900,-390.7 802,-390.7"/>
<polygon fill="none" stroke="#000000" points="802,-390.7 802,-415.7 900,-415.7 900,-390.7 802,-390.7"/>
<text text-anchor="start" x="805" y="-398.3" font-family="Helvetica,sans-Serif" font-size="16.00" fill="#000000"> &#160;</text>
<polygon fill="#ffffff" stroke="transparent" points="900,-390.7 900,-415.7 995,-415.7 995,-390.7 900,-390.7"/>
<polygon fill="none" stroke="#000000" points="900,-390.7 900,-415.7 995,-415.7 995,-390.7 900,-390.7"/>
<text text-anchor="start" x="944.888" y="-398.3" font-family="Helvetica,sans-Serif" font-size="16.00" fill="#000000">9 rows</text>
<polygon fill="#ffffff" stroke="transparent" points="995,-390.7 995,-415.7 1066,-415.7 1066,-390.7 995,-390.7"/>
<polygon fill="none" stroke="#000000" points="995,-390.7 995,-415.7 1066,-415.7 1066,-390.7 995,-390.7"/>
<text text-anchor="start" x="1040.3168" y="-398.3" font-family="Helvetica,sans-Serif" font-size="16.00" fill="#000000">2 &gt;</text>
</a>
</g>
</g>
<!-- locations_cities&#45;&gt;locations_feature_classes -->
<g id="edge8" class="edge">
<title>locations_cities:w&#45;&gt;locations_feature_classes:e</title>
<path fill="none" stroke="#000000" d="M1607.5671,-471.5663C1584.6036,-448.4148 1554.6896,-423.9321 1522,-411.7 1367.9849,-354.069 1315.7494,-396.5971 1152,-411.7 1113.2862,-415.2706 1104.8781,-427.7 1066,-427.7"/>
<polygon fill="#000000" stroke="#000000" points="1612.0816,-476.2822 1615.0133,-484.5506 1614.8477,-479.1717 1617.6138,-482.0611 1617.6138,-482.0611 1617.6138,-482.0611 1614.8477,-479.1717 1620.2143,-479.5716 1612.0816,-476.2822 1612.0816,-476.2822"/>
<ellipse fill="none" stroke="#000000" cx="1609.8687" cy="-473.9707" rx="3.2" ry="3.2"/>
</g>
<!-- locations_feature_codes -->
<g id="node7" class="node">
<title>locations_feature_codes</title>
<g id="a_node7"><a xlink:href="../../tables/locations_feature_codes.html" xlink:title="locations_feature_codes" target="_top">
<polygon fill="#ffffff" stroke="transparent" points="1211,-422.2 1211,-501.2 1463,-501.2 1463,-422.2 1211,-422.2"/>
<polygon fill="#f5f5f5" stroke="transparent" points="1211,-471.7 1211,-500.7 1463,-500.7 1463,-471.7 1211,-471.7"/>
<polygon fill="none" stroke="#000000" points="1211,-471.7 1211,-500.7 1463,-500.7 1463,-471.7 1211,-471.7"/>
<text text-anchor="start" x="1216" y="-478.8" font-family="Helvetica,sans-Serif" font-weight="bold" font-size="16.00" fill="#000000">locations_feature_codes</text>
<text text-anchor="start" x="1414.7136" y="-481.3" font-family="Helvetica,sans-Serif" font-size="16.00" fill="#000000">[table]</text>
<polygon fill="none" stroke="#000000" points="1211,-446.7 1211,-471.7 1463,-471.7 1463,-446.7 1211,-446.7"/>
<text text-anchor="start" x="1214" y="-454.3" font-family="Helvetica,sans-Serif" font-size="16.00" fill="#000000">...</text>
<polygon fill="#ffffff" stroke="transparent" points="1211,-421.7 1211,-446.7 1302,-446.7 1302,-421.7 1211,-421.7"/>
<polygon fill="none" stroke="#000000" points="1211,-421.7 1211,-446.7 1302,-446.7 1302,-421.7 1211,-421.7"/>
<text text-anchor="start" x="1214" y="-429.3" font-family="Helvetica,sans-Serif" font-size="16.00" fill="#000000">&lt; 1</text>
<polygon fill="#ffffff" stroke="transparent" points="1302,-421.7 1302,-446.7 1403,-446.7 1403,-421.7 1302,-421.7"/>
<polygon fill="none" stroke="#000000" points="1302,-421.7 1302,-446.7 1403,-446.7 1403,-421.7 1302,-421.7"/>
<text text-anchor="start" x="1335.0992" y="-429.3" font-family="Helvetica,sans-Serif" font-size="16.00" fill="#000000">684 rows</text>
<polygon fill="#ffffff" stroke="transparent" points="1403,-421.7 1403,-446.7 1463,-446.7 1463,-421.7 1403,-421.7"/>
<polygon fill="none" stroke="#000000" points="1403,-421.7 1403,-446.7 1463,-446.7 1463,-421.7 1403,-421.7"/>
<text text-anchor="start" x="1437.3168" y="-429.3" font-family="Helvetica,sans-Serif" font-size="16.00" fill="#000000">1 &gt;</text>
</a>
</g>
</g>
<!-- locations_cities&#45;&gt;locations_feature_codes -->
<g id="edge9" class="edge">
<title>locations_cities:w&#45;&gt;locations_feature_codes:e</title>
<path fill="none" stroke="#000000" d="M1554.3474,-476.8864C1525.599,-466.5553 1493.6595,-458.7 1463,-458.7"/>
<polygon fill="#000000" stroke="#000000" points="1560.7041,-479.2968 1566.9079,-485.4995 1564.4442,-480.7151 1568.1843,-482.1333 1568.1843,-482.1333 1568.1843,-482.1333 1564.4442,-480.7151 1569.4608,-478.7672 1560.7041,-479.2968 1560.7041,-479.2968"/>
<ellipse fill="none" stroke="#000000" cx="1557.7119" cy="-478.1622" rx="3.2" ry="3.2"/>
</g>
<!-- locations_administrative_divisions_1&#45;&gt;locations_countries -->
<g id="edge2" class="edge">
<title>locations_administrative_divisions_1:w&#45;&gt;locations_countries:e</title>
<path fill="none" stroke="#000000" d="M734.3165,-589.7C724.7433,-589.7 715.2657,-589.7 706,-589.7"/>
<polygon fill="#000000" stroke="#000000" points="740.9035,-589.7001 748.9035,-593.3 744.9035,-589.7 748.9035,-589.7 748.9035,-589.7 748.9035,-589.7 744.9035,-589.7 748.9035,-586.1 740.9035,-589.7001 740.9035,-589.7001"/>
<ellipse fill="none" stroke="#000000" cx="737.7035" cy="-589.7001" rx="3.2" ry="3.2"/>
</g>
<!-- locations_continents -->
<g id="node8" class="node">
<title>locations_continents</title>
<g id="a_node8"><a xlink:href="../../tables/locations_continents.html" xlink:title="locations_continents" target="_top">
<polygon fill="#ffffff" stroke="transparent" points="8,-307.2 8,-430.2 231,-430.2 231,-307.2 8,-307.2"/>
<polygon fill="#f5f5f5" stroke="transparent" points="8.5,-400.7 8.5,-429.7 231.5,-429.7 231.5,-400.7 8.5,-400.7"/>
<polygon fill="none" stroke="#000000" points="8.5,-400.7 8.5,-429.7 231.5,-429.7 231.5,-400.7 8.5,-400.7"/>
<text text-anchor="start" x="13.5" y="-407.8" font-family="Helvetica,sans-Serif" font-weight="bold" font-size="16.00" fill="#000000">locations_continents</text>
<text text-anchor="start" x="183.2136" y="-410.3" font-family="Helvetica,sans-Serif" font-size="16.00" fill="#000000">[table]</text>
<polygon fill="none" stroke="#000000" points="8.5,-378.7 8.5,-400.7 231.5,-400.7 231.5,-378.7 8.5,-378.7"/>
<image xlink:href="../../images/primaryKeys.png" width="11px" height="12px" preserveAspectRatio="xMinYMin meet" x="13.5" y="-395.7"/>
<text text-anchor="start" x="44.5" y="-381.3" font-family="Helvetica,sans-Serif" font-size="16.00" fill="#000000">continent_code</text>
<polygon fill="#ffffff" stroke="transparent" points="8.5,-356.7 8.5,-378.7 231.5,-378.7 231.5,-356.7 8.5,-356.7"/>
<polygon fill="none" stroke="#000000" points="8.5,-356.7 8.5,-378.7 231.5,-378.7 231.5,-356.7 8.5,-356.7"/>
<text text-anchor="start" x="44.5" y="-359.3" font-family="Helvetica,sans-Serif" font-size="16.00" fill="#000000">continent_name</text>
<polygon fill="none" stroke="#000000" points="8.5,-331.7 8.5,-356.7 231.5,-356.7 231.5,-331.7 8.5,-331.7"/>
<text text-anchor="start" x="11.5" y="-339.3" font-family="Helvetica,sans-Serif" font-size="16.00" fill="#000000">...</text>
<polygon fill="#ffffff" stroke="transparent" points="8.5,-306.7 8.5,-331.7 86.5,-331.7 86.5,-306.7 8.5,-306.7"/>
<polygon fill="none" stroke="#000000" points="8.5,-306.7 8.5,-331.7 86.5,-331.7 86.5,-306.7 8.5,-306.7"/>
<text text-anchor="start" x="11.5" y="-314.3" font-family="Helvetica,sans-Serif" font-size="16.00" fill="#000000"> &#160;</text>
<polygon fill="#ffffff" stroke="transparent" points="86.5,-306.7 86.5,-331.7 171.5,-331.7 171.5,-306.7 86.5,-306.7"/>
<polygon fill="none" stroke="#000000" points="86.5,-306.7 86.5,-331.7 171.5,-331.7 171.5,-306.7 86.5,-306.7"/>
<text text-anchor="start" x="121.388" y="-314.3" font-family="Helvetica,sans-Serif" font-size="16.00" fill="#000000">7 rows</text>
<polygon fill="#ffffff" stroke="transparent" points="171.5,-306.7 171.5,-331.7 231.5,-331.7 231.5,-306.7 171.5,-306.7"/>
<polygon fill="none" stroke="#000000" points="171.5,-306.7 171.5,-331.7 231.5,-331.7 231.5,-306.7 171.5,-306.7"/>
<text text-anchor="start" x="205.8168" y="-314.3" font-family="Helvetica,sans-Serif" font-size="16.00" fill="#000000">1 &gt;</text>
</a>
</g>
</g>
<!-- locations_countries&#45;&gt;locations_continents -->
<g id="edge10" class="edge">
<title>locations_countries:w&#45;&gt;locations_continents:e</title>
<path fill="none" stroke="#000000" d="M267.4203,-389.7C255.5435,-389.7 248.158,-389.7 231.5,-389.7"/>
<polygon fill="#000000" stroke="#000000" points="274,-389.7001 282,-393.3 278,-389.7 282,-389.7 282,-389.7 282,-389.7 278,-389.7 282,-386.1 274,-389.7001 274,-389.7001"/>
<ellipse fill="none" stroke="#000000" cx="270.8" cy="-389.7001" rx="3.2" ry="3.2"/>
</g>
<!-- locations_administrative_divisions_2&#45;&gt;locations_administrative_divisions_1 -->
<g id="edge3" class="edge">
<title>locations_administrative_divisions_2:w&#45;&gt;locations_administrative_divisions_1:e</title>
<path fill="none" stroke="#000000" d="M1137.1915,-603.3133C1131.1535,-602.9088 1125.1136,-602.5041 1119.0932,-602.1008"/>
<polygon fill="#000000" stroke="#000000" points="1143.7364,-603.7518 1151.4778,-607.8785 1147.7275,-604.0192 1151.7185,-604.2866 1151.7185,-604.2866 1151.7185,-604.2866 1147.7275,-604.0192 1151.9592,-600.6947 1143.7364,-603.7518 1143.7364,-603.7518"/>
<ellipse fill="none" stroke="#000000" cx="1140.5436" cy="-603.5378" rx="3.2" ry="3.2"/>
</g>
<!-- locations_administrative_divisions_2&#45;&gt;locations_countries -->
<g id="edge4" class="edge">
<title>locations_administrative_divisions_2:w&#45;&gt;locations_countries:e</title>
<path fill="none" stroke="#000000" d="M1137.3538,-638.6067C1131.1686,-639.0154 1125.0392,-639.3823 1119,-639.7 954.7826,-648.3389 898.4564,-708.2913 749,-639.7 722.3616,-627.4746 735.3098,-589.7 706,-589.7"/>
<polygon fill="#000000" stroke="#000000" points="1143.8907,-638.1447 1152.1246,-641.1715 1147.8807,-637.8626 1151.8708,-637.5805 1151.8708,-637.5805 1151.8708,-637.5805 1147.8807,-637.8626 1151.6169,-633.9895 1143.8907,-638.1447 1143.8907,-638.1447"/>
<ellipse fill="none" stroke="#000000" cx="1140.6986" cy="-638.3703" rx="3.2" ry="3.2"/>
</g>
<!-- locations_feature_codes&#45;&gt;locations_feature_classes -->
<g id="edge11" class="edge">
<title>locations_feature_codes:w&#45;&gt;locations_feature_classes:e</title>
<path fill="none" stroke="#000000" d="M1196.4693,-458.1619C1142.7153,-454.0455 1126.7523,-427.7 1066,-427.7"/>
<polygon fill="#000000" stroke="#000000" points="1203.0055,-458.4039 1210.8668,-462.2975 1207.0027,-458.552 1211,-458.7 1211,-458.7 1211,-458.7 1207.0027,-458.552 1211.1332,-455.1025 1203.0055,-458.4039 1203.0055,-458.4039"/>
<ellipse fill="none" stroke="#000000" cx="1199.8077" cy="-458.2855" rx="3.2" ry="3.2"/>
</g>
</g>
</svg>
