<?xml version="1.0" encoding="UTF-8" standalone="no"?>
<!DOCTYPE svg PUBLIC "-//W3C//DTD SVG 1.1//EN"
 "http://www.w3.org/Graphics/SVG/1.1/DTD/svg11.dtd">
<!-- Generated by graphviz version 2.40.1 (20161225.0304)
 -->
<!-- Title: oneDegreeRelationshipsDiagramImplied Pages: 1 -->
<svg width="1529pt" height="578pt"
 viewBox="0.00 0.00 1529.00 578.20" xmlns="http://www.w3.org/2000/svg" xmlns:xlink="http://www.w3.org/1999/xlink">
<g id="graph0" class="graph" transform="scale(1 1) rotate(0) translate(4 574.2)">
<title>oneDegreeRelationshipsDiagramImplied</title>
<polygon fill="#ffffff" stroke="transparent" points="-4,4 -4,-574.2 1525,-574.2 1525,4 -4,4"/>
<text text-anchor="middle" x="101.8088" y="-8.8" font-family="Helvetica,sans-Serif" font-size="16.00" fill="#000000">Generated by SchemaSpy</text>
<!-- locations_administrative_divisions_1 -->
<g id="node1" class="node">
<title>locations_administrative_divisions_1</title>
<g id="a_node1"><a xlink:href="../../tables/locations_administrative_divisions_1.html" xlink:title="locations_administrative_divisions_1" target="_top">
<polygon fill="#ffffff" stroke="transparent" points="299,-182.2 299,-371.2 653,-371.2 653,-182.2 299,-182.2"/>
<polygon fill="#f5f5f5" stroke="transparent" points="299,-341.7 299,-370.7 653,-370.7 653,-341.7 299,-341.7"/>
<polygon fill="none" stroke="#000000" points="299,-341.7 299,-370.7 653,-370.7 653,-341.7 299,-341.7"/>
<text text-anchor="start" x="304" y="-348.8" font-family="Helvetica,sans-Serif" font-weight="bold" font-size="16.00" fill="#000000">locations_administrative_divisions_1</text>
<text text-anchor="start" x="604.7136" y="-351.3" font-family="Helvetica,sans-Serif" font-size="16.00" fill="#000000">[table]</text>
<polygon fill="none" stroke="#000000" points="299,-319.7 299,-341.7 653,-341.7 653,-319.7 299,-319.7"/>
<image xlink:href="../../images/primaryKeys.png" width="11px" height="12px" preserveAspectRatio="xMinYMin meet" x="304" y="-336.7"/>
<text text-anchor="start" x="332" y="-322.3" font-family="Helvetica,sans-Serif" font-size="16.00" fill="#000000">administrative_division_1_code</text>
<polygon fill="#ffffff" stroke="transparent" points="299,-297.7 299,-319.7 653,-319.7 653,-297.7 299,-297.7"/>
<polygon fill="none" stroke="#000000" points="299,-297.7 299,-319.7 653,-319.7 653,-297.7 299,-297.7"/>
<image xlink:href="../../images/foreignKeys.png" width="11px" height="12px" preserveAspectRatio="xMinYMin meet" x="304" y="-314.7"/>
<text text-anchor="start" x="332" y="-300.3" font-family="Helvetica,sans-Serif" font-size="16.00" fill="#000000">country_code</text>
<polygon fill="#ffffff" stroke="transparent" points="299,-275.7 299,-297.7 653,-297.7 653,-275.7 299,-275.7"/>
<polygon fill="none" stroke="#000000" points="299,-275.7 299,-297.7 653,-297.7 653,-275.7 299,-275.7"/>
<text text-anchor="start" x="332" y="-278.3" font-family="Helvetica,sans-Serif" font-size="16.00" fill="#000000">administrative_division_1_name</text>
<polygon fill="#ffffff" stroke="transparent" points="299,-253.7 299,-275.7 653,-275.7 653,-253.7 299,-253.7"/>
<polygon fill="none" stroke="#000000" points="299,-253.7 299,-275.7 653,-275.7 653,-253.7 299,-253.7"/>
<text text-anchor="start" x="332" y="-256.3" font-family="Helvetica,sans-Serif" font-size="16.00" fill="#000000">administrative_division_1_ascii_name</text>
<polygon fill="#ffffff" stroke="transparent" points="299,-231.7 299,-253.7 653,-253.7 653,-231.7 299,-231.7"/>
<polygon fill="none" stroke="#000000" points="299,-231.7 299,-253.7 653,-253.7 653,-231.7 299,-231.7"/>
<text text-anchor="start" x="332" y="-234.3" font-family="Helvetica,sans-Serif" font-size="16.00" fill="#000000">geoname_id</text>
<polygon fill="none" stroke="#000000" points="299,-206.7 299,-231.7 653,-231.7 653,-206.7 299,-206.7"/>
<text text-anchor="start" x="302" y="-214.3" font-family="Helvetica,sans-Serif" font-size="16.00" fill="#000000">...</text>
<polygon fill="#ffffff" stroke="transparent" points="299,-181.7 299,-206.7 434,-206.7 434,-181.7 299,-181.7"/>
<polygon fill="none" stroke="#000000" points="299,-181.7 299,-206.7 434,-206.7 434,-181.7 299,-181.7"/>
<text text-anchor="start" x="302" y="-189.3" font-family="Helvetica,sans-Serif" font-size="16.00" fill="#000000">&lt; 1</text>
<polygon fill="#ffffff" stroke="transparent" points="434,-181.7 434,-206.7 571,-206.7 571,-181.7 434,-181.7"/>
<polygon fill="none" stroke="#000000" points="434,-181.7 434,-206.7 571,-206.7 571,-181.7 434,-181.7"/>
<text text-anchor="start" x="489.7584" y="-189.3" font-family="Helvetica,sans-Serif" font-size="16.00" fill="#000000">3,893 rows</text>
<polygon fill="#ffffff" stroke="transparent" points="571,-181.7 571,-206.7 653,-206.7 653,-181.7 571,-181.7"/>
<polygon fill="none" stroke="#000000" points="571,-181.7 571,-206.7 653,-206.7 653,-181.7 571,-181.7"/>
<text text-anchor="start" x="627.3168" y="-189.3" font-family="Helvetica,sans-Serif" font-size="16.00" fill="#000000">2 &gt;</text>
</a>
</g>
</g>
<!-- locations_countries -->
<g id="node2" class="node">
<title>locations_countries</title>
<g id="a_node2"><a xlink:href="../../tables/locations_countries.html" xlink:title="locations_countries" target="_top">
<polygon fill="#ffffff" stroke="transparent" points="8,-50.2 8,-349.2 250,-349.2 250,-50.2 8,-50.2"/>
<polygon fill="#f5f5f5" stroke="transparent" points="8,-319.7 8,-348.7 250,-348.7 250,-319.7 8,-319.7"/>
<polygon fill="none" stroke="#000000" points="8,-319.7 8,-348.7 250,-348.7 250,-319.7 8,-319.7"/>
<text text-anchor="start" x="13" y="-326.8" font-family="Helvetica,sans-Serif" font-weight="bold" font-size="16.00" fill="#000000">locations_countries</text>
<text text-anchor="start" x="201.4272" y="-329.3" font-family="Helvetica,sans-Serif" font-size="16.00" fill="#000000">[table]</text>
<polygon fill="none" stroke="#000000" points="8,-297.7 8,-319.7 250,-319.7 250,-297.7 8,-297.7"/>
<image xlink:href="../../images/primaryKeys.png" width="11px" height="12px" preserveAspectRatio="xMinYMin meet" x="13" y="-314.7"/>
<text text-anchor="start" x="28" y="-300.3" font-family="Helvetica,sans-Serif" font-size="16.00" fill="#000000">iso_country_code</text>
<polygon fill="#ffffff" stroke="transparent" points="8,-275.7 8,-297.7 250,-297.7 250,-275.7 8,-275.7"/>
<polygon fill="none" stroke="#000000" points="8,-275.7 8,-297.7 250,-297.7 250,-275.7 8,-275.7"/>
<text text-anchor="start" x="28" y="-278.3" font-family="Helvetica,sans-Serif" font-size="16.00" fill="#000000">iso_3_country_code</text>
<polygon fill="#ffffff" stroke="transparent" points="8,-253.7 8,-275.7 250,-275.7 250,-253.7 8,-253.7"/>
<polygon fill="none" stroke="#000000" points="8,-253.7 8,-275.7 250,-275.7 250,-253.7 8,-253.7"/>
<text text-anchor="start" x="28" y="-256.3" font-family="Helvetica,sans-Serif" font-size="16.00" fill="#000000">iso_numeric_country_code</text>
<polygon fill="#ffffff" stroke="transparent" points="8,-231.7 8,-253.7 250,-253.7 250,-231.7 8,-231.7"/>
<polygon fill="none" stroke="#000000" points="8,-231.7 8,-253.7 250,-253.7 250,-231.7 8,-231.7"/>
<text text-anchor="start" x="28" y="-234.3" font-family="Helvetica,sans-Serif" font-size="16.00" fill="#000000">country_name</text>
<polygon fill="#ffffff" stroke="transparent" points="8,-209.7 8,-231.7 250,-231.7 250,-209.7 8,-209.7"/>
<polygon fill="none" stroke="#000000" points="8,-209.7 8,-231.7 250,-231.7 250,-209.7 8,-209.7"/>
<text text-anchor="start" x="28" y="-212.3" font-family="Helvetica,sans-Serif" font-size="16.00" fill="#000000">area</text>
<polygon fill="#ffffff" stroke="transparent" points="8,-187.7 8,-209.7 250,-209.7 250,-187.7 8,-187.7"/>
<polygon fill="none" stroke="#000000" points="8,-187.7 8,-209.7 250,-209.7 250,-187.7 8,-187.7"/>
<text text-anchor="start" x="28" y="-190.3" font-family="Helvetica,sans-Serif" font-size="16.00" fill="#000000">population</text>
<polygon fill="#ffffff" stroke="transparent" points="8,-165.7 8,-187.7 250,-187.7 250,-165.7 8,-165.7"/>
<polygon fill="none" stroke="#000000" points="8,-165.7 8,-187.7 250,-187.7 250,-165.7 8,-165.7"/>
<image xlink:href="../../images/foreignKeys.png" width="11px" height="12px" preserveAspectRatio="xMinYMin meet" x="13" y="-182.7"/>
<text text-anchor="start" x="28" y="-168.3" font-family="Helvetica,sans-Serif" font-size="16.00" fill="#000000">continent_code</text>
<polygon fill="#ffffff" stroke="transparent" points="8,-143.7 8,-165.7 250,-165.7 250,-143.7 8,-143.7"/>
<polygon fill="none" stroke="#000000" points="8,-143.7 8,-165.7 250,-165.7 250,-143.7 8,-143.7"/>
<text text-anchor="start" x="28" y="-146.3" font-family="Helvetica,sans-Serif" font-size="16.00" fill="#000000">tld</text>
<polygon fill="#ffffff" stroke="transparent" points="8,-121.7 8,-143.7 250,-143.7 250,-121.7 8,-121.7"/>
<polygon fill="none" stroke="#000000" points="8,-121.7 8,-143.7 250,-143.7 250,-121.7 8,-121.7"/>
<text text-anchor="start" x="28" y="-124.3" font-family="Helvetica,sans-Serif" font-size="16.00" fill="#000000">currency_code</text>
<polygon fill="#ffffff" stroke="transparent" points="8,-99.7 8,-121.7 250,-121.7 250,-99.7 8,-99.7"/>
<polygon fill="none" stroke="#000000" points="8,-99.7 8,-121.7 250,-121.7 250,-99.7 8,-99.7"/>
<text text-anchor="start" x="28" y="-102.3" font-family="Helvetica,sans-Serif" font-size="16.00" fill="#000000">geoname_id</text>
<polygon fill="none" stroke="#000000" points="8,-74.7 8,-99.7 250,-99.7 250,-74.7 8,-74.7"/>
<text text-anchor="start" x="11" y="-82.3" font-family="Helvetica,sans-Serif" font-size="16.00" fill="#000000">...</text>
<polygon fill="#ffffff" stroke="transparent" points="8,-49.7 8,-74.7 94,-74.7 94,-49.7 8,-49.7"/>
<polygon fill="none" stroke="#000000" points="8,-49.7 8,-74.7 94,-74.7 94,-49.7 8,-49.7"/>
<text text-anchor="start" x="11" y="-57.3" font-family="Helvetica,sans-Serif" font-size="16.00" fill="#000000">&lt; 1</text>
<polygon fill="#ffffff" stroke="transparent" points="94,-49.7 94,-74.7 193,-74.7 193,-49.7 94,-49.7"/>
<polygon fill="none" stroke="#000000" points="94,-49.7 94,-74.7 193,-74.7 193,-49.7 94,-49.7"/>
<text text-anchor="start" x="125.0992" y="-57.3" font-family="Helvetica,sans-Serif" font-size="16.00" fill="#000000">252 rows</text>
<polygon fill="#ffffff" stroke="transparent" points="193,-49.7 193,-74.7 250,-74.7 250,-49.7 193,-49.7"/>
<polygon fill="none" stroke="#000000" points="193,-49.7 193,-74.7 250,-74.7 250,-49.7 193,-49.7"/>
<text text-anchor="start" x="224.3168" y="-57.3" font-family="Helvetica,sans-Serif" font-size="16.00" fill="#000000">3 &gt;</text>
</a>
</g>
</g>
<!-- locations_administrative_divisions_1&#45;&gt;locations_countries -->
<g id="edge1" class="edge">
<title>locations_administrative_divisions_1:w&#45;&gt;locations_countries:e</title>
<path fill="none" stroke="#000000" d="M284.4909,-308.7C273.1774,-308.7 265.9931,-308.7 250,-308.7"/>
<polygon fill="#000000" stroke="#000000" points="291,-308.7001 299,-312.3 295,-308.7 299,-308.7 299,-308.7 299,-308.7 295,-308.7 299,-305.1 291,-308.7001 291,-308.7001"/>
<ellipse fill="none" stroke="#000000" cx="287.8" cy="-308.7001" rx="3.2" ry="3.2"/>
</g>
<!-- locations_administrative_divisions_2 -->
<g id="node3" class="node">
<title>locations_administrative_divisions_2</title>
<g id="a_node3"><a xlink:href="../../tables/locations_administrative_divisions_2.html" xlink:title="locations_administrative_divisions_2" target="_top">
<polygon fill="#ffffff" stroke="transparent" points="702,-67.7 702,-325.7 1187,-325.7 1187,-67.7 702,-67.7"/>
<polygon fill="#f5f5f5" stroke="transparent" points="704.5,-294.7 704.5,-323.7 1185.5,-323.7 1185.5,-294.7 704.5,-294.7"/>
<polygon fill="none" stroke="#000000" points="704.5,-294.7 704.5,-323.7 1185.5,-323.7 1185.5,-294.7 704.5,-294.7"/>
<text text-anchor="start" x="709.5" y="-301.8" font-family="Helvetica,sans-Serif" font-weight="bold" font-size="16.00" fill="#000000">locations_administrative_divisions_2</text>
<text text-anchor="start" x="1136.9272" y="-304.3" font-family="Helvetica,sans-Serif" font-size="16.00" fill="#000000">[table]</text>
<polygon fill="none" stroke="#000000" points="704.5,-269.7 704.5,-294.7 1033.5,-294.7 1033.5,-269.7 704.5,-269.7"/>
<image xlink:href="../../images/primaryKeys.png" width="11px" height="12px" preserveAspectRatio="xMinYMin meet" x="709.5" y="-288.2"/>
<text text-anchor="start" x="724.5" y="-273.8" font-family="Helvetica,sans-Serif" font-size="16.00" fill="#000000">administrative_division_2_code</text>
<polygon fill="none" stroke="#000000" points="1033.5,-269.7 1033.5,-294.7 1185.5,-294.7 1185.5,-269.7 1033.5,-269.7"/>
<text text-anchor="start" x="1036.5" y="-277.3" font-family="Helvetica,sans-Serif" font-size="16.00" fill="#000000">text[2000000000]</text>
<polygon fill="#ffffff" stroke="transparent" points="704.5,-244.7 704.5,-269.7 1033.5,-269.7 1033.5,-244.7 704.5,-244.7"/>
<polygon fill="none" stroke="#000000" points="704.5,-244.7 704.5,-269.7 1033.5,-269.7 1033.5,-244.7 704.5,-244.7"/>
<image xlink:href="../../images/foreignKeys.png" width="11px" height="12px" preserveAspectRatio="xMinYMin meet" x="709.5" y="-263.2"/>
<text text-anchor="start" x="724.5" y="-248.8" font-family="Helvetica,sans-Serif" font-size="16.00" fill="#000000">administrative_division_1_code</text>
<polygon fill="none" stroke="#000000" points="1033.5,-244.7 1033.5,-269.7 1185.5,-269.7 1185.5,-244.7 1033.5,-244.7"/>
<text text-anchor="start" x="1036.5" y="-252.3" font-family="Helvetica,sans-Serif" font-size="16.00" fill="#000000">text[2000000000]</text>
<polygon fill="#ffffff" stroke="transparent" points="704.5,-219.7 704.5,-244.7 1033.5,-244.7 1033.5,-219.7 704.5,-219.7"/>
<polygon fill="none" stroke="#000000" points="704.5,-219.7 704.5,-244.7 1033.5,-244.7 1033.5,-219.7 704.5,-219.7"/>
<image xlink:href="../../images/foreignKeys.png" width="11px" height="12px" preserveAspectRatio="xMinYMin meet" x="709.5" y="-238.2"/>
<text text-anchor="start" x="724.5" y="-223.8" font-family="Helvetica,sans-Serif" font-size="16.00" fill="#000000">country_code</text>
<polygon fill="none" stroke="#000000" points="1033.5,-219.7 1033.5,-244.7 1185.5,-244.7 1185.5,-219.7 1033.5,-219.7"/>
<text text-anchor="start" x="1036.5" y="-227.3" font-family="Helvetica,sans-Serif" font-size="16.00" fill="#000000">text[2000000000]</text>
<polygon fill="#ffffff" stroke="transparent" points="704.5,-194.7 704.5,-219.7 1033.5,-219.7 1033.5,-194.7 704.5,-194.7"/>
<polygon fill="none" stroke="#000000" points="704.5,-194.7 704.5,-219.7 1033.5,-219.7 1033.5,-194.7 704.5,-194.7"/>
<text text-anchor="start" x="724.5" y="-198.8" font-family="Helvetica,sans-Serif" font-size="16.00" fill="#000000">administrative_division_2_name</text>
<polygon fill="none" stroke="#000000" points="1033.5,-194.7 1033.5,-219.7 1185.5,-219.7 1185.5,-194.7 1033.5,-194.7"/>
<text text-anchor="start" x="1036.5" y="-202.3" font-family="Helvetica,sans-Serif" font-size="16.00" fill="#000000">text[2000000000]</text>
<polygon fill="#ffffff" stroke="transparent" points="704.5,-169.7 704.5,-194.7 1033.5,-194.7 1033.5,-169.7 704.5,-169.7"/>
<polygon fill="none" stroke="#000000" points="704.5,-169.7 704.5,-194.7 1033.5,-194.7 1033.5,-169.7 704.5,-169.7"/>
<text text-anchor="start" x="724.5" y="-173.8" font-family="Helvetica,sans-Serif" font-size="16.00" fill="#000000">administrative_division_2_ascii_name</text>
<polygon fill="none" stroke="#000000" points="1033.5,-169.7 1033.5,-194.7 1185.5,-194.7 1185.5,-169.7 1033.5,-169.7"/>
<text text-anchor="start" x="1036.5" y="-177.3" font-family="Helvetica,sans-Serif" font-size="16.00" fill="#000000">text[2000000000]</text>
<polygon fill="#ffffff" stroke="transparent" points="704.5,-144.7 704.5,-169.7 1033.5,-169.7 1033.5,-144.7 704.5,-144.7"/>
<polygon fill="none" stroke="#000000" points="704.5,-144.7 704.5,-169.7 1033.5,-169.7 1033.5,-144.7 704.5,-144.7"/>
<text text-anchor="start" x="724.5" y="-148.8" font-family="Helvetica,sans-Serif" font-size="16.00" fill="#000000">geoname_id</text>
<polygon fill="none" stroke="#000000" points="1033.5,-144.7 1033.5,-169.7 1185.5,-169.7 1185.5,-144.7 1033.5,-144.7"/>
<text text-anchor="start" x="1036.1312" y="-152.3" font-family="Helvetica,sans-Serif" font-size="16.00" fill="#000000">integer[2000000000]</text>
<polygon fill="none" stroke="#000000" points="704.5,-119.7 704.5,-144.7 1033.5,-144.7 1033.5,-119.7 704.5,-119.7"/>
<text text-anchor="start" x="724.5" y="-123.8" font-family="Helvetica,sans-Serif" font-size="16.00" fill="#000000">inserted_at</text>
<polygon fill="none" stroke="#000000" points="1033.5,-119.7 1033.5,-144.7 1185.5,-144.7 1185.5,-119.7 1033.5,-119.7"/>
<text text-anchor="start" x="1036.5" y="-127.3" font-family="Helvetica,sans-Serif" font-size="16.00" fill="#000000">text[2000000000]</text>
<polygon fill="none" stroke="#000000" points="704.5,-94.7 704.5,-119.7 1033.5,-119.7 1033.5,-94.7 704.5,-94.7"/>
<text text-anchor="start" x="724.5" y="-98.8" font-family="Helvetica,sans-Serif" font-size="16.00" fill="#000000">updated_at</text>
<polygon fill="none" stroke="#000000" points="1033.5,-94.7 1033.5,-119.7 1185.5,-119.7 1185.5,-94.7 1033.5,-94.7"/>
<text text-anchor="start" x="1036.5" y="-102.3" font-family="Helvetica,sans-Serif" font-size="16.00" fill="#000000">text[2000000000]</text>
<polygon fill="#ffffff" stroke="transparent" points="704.5,-69.7 704.5,-94.7 836.5,-94.7 836.5,-69.7 704.5,-69.7"/>
<polygon fill="none" stroke="#000000" points="704.5,-69.7 704.5,-94.7 836.5,-94.7 836.5,-69.7 704.5,-69.7"/>
<text text-anchor="start" x="707.5" y="-77.3" font-family="Helvetica,sans-Serif" font-size="16.00" fill="#000000">&lt; 2</text>
<polygon fill="#ffffff" stroke="transparent" points="836.5,-69.7 836.5,-94.7 1033.5,-94.7 1033.5,-69.7 836.5,-69.7"/>
<polygon fill="none" stroke="#000000" points="836.5,-69.7 836.5,-94.7 1033.5,-94.7 1033.5,-69.7 836.5,-69.7"/>
<text text-anchor="start" x="943.364" y="-77.3" font-family="Helvetica,sans-Serif" font-size="16.00" fill="#000000">47,229 rows</text>
<polygon fill="#ffffff" stroke="transparent" points="1033.5,-69.7 1033.5,-94.7 1185.5,-94.7 1185.5,-69.7 1033.5,-69.7"/>
<polygon fill="none" stroke="#000000" points="1033.5,-69.7 1033.5,-94.7 1185.5,-94.7 1185.5,-69.7 1033.5,-69.7"/>
<text text-anchor="start" x="1159.8168" y="-77.3" font-family="Helvetica,sans-Serif" font-size="16.00" fill="#000000">1 &gt;</text>
<polygon fill="none" stroke="#000000" stroke-width="2" points="703,-68.7 703,-324.7 1186,-324.7 1186,-68.7 703,-68.7"/>
</a>
</g>
</g>
<!-- locations_administrative_divisions_2&#45;&gt;locations_administrative_divisions_1 -->
<g id="edge2" class="edge">
<title>locations_administrative_divisions_2:w&#45;&gt;locations_administrative_divisions_1:e</title>
<path fill="none" stroke="#000000" d="M690.583,-262.2665C671.7293,-278.248 686.6568,-330.7 653,-330.7"/>
<polygon fill="#000000" stroke="#000000" points="696.8987,-260.1942 705.6224,-261.1206 700.6994,-258.9471 704.5,-257.7 704.5,-257.7 704.5,-257.7 700.6994,-258.9471 703.3776,-254.2794 696.8987,-260.1942 696.8987,-260.1942"/>
<ellipse fill="none" stroke="#000000" cx="693.8582" cy="-261.1919" rx="3.2" ry="3.2"/>
</g>
<!-- locations_administrative_divisions_2&#45;&gt;locations_countries -->
<g id="edge3" class="edge">
<title>locations_administrative_divisions_2:w&#45;&gt;locations_countries:e</title>
<path fill="none" stroke="#000000" d="M690.6573,-228.3773C676.754,-216.6155 685.0517,-184.0892 661,-171.7 514.8105,-96.3965 422.8997,-73.4939 291,-171.7 240.0213,-209.6563 313.5571,-308.7 250,-308.7"/>
<polygon fill="#000000" stroke="#000000" points="696.8637,-230.3153 703.4269,-236.1363 700.6818,-231.5077 704.5,-232.7 704.5,-232.7 704.5,-232.7 700.6818,-231.5077 705.5731,-229.2637 696.8637,-230.3153 696.8637,-230.3153"/>
<ellipse fill="none" stroke="#000000" cx="693.8091" cy="-229.3615" rx="3.2" ry="3.2"/>
</g>
<!-- locations_cities -->
<g id="node4" class="node">
<title>locations_cities</title>
<g id="a_node4"><a xlink:href="../../tables/locations_cities.html" xlink:title="locations_cities" target="_top">
<polygon fill="#ffffff" stroke="transparent" points="1236,-223.2 1236,-566.2 1513,-566.2 1513,-223.2 1236,-223.2"/>
<polygon fill="#f5f5f5" stroke="transparent" points="1236.5,-536.7 1236.5,-565.7 1513.5,-565.7 1513.5,-536.7 1236.5,-536.7"/>
<polygon fill="none" stroke="#000000" points="1236.5,-536.7 1236.5,-565.7 1513.5,-565.7 1513.5,-536.7 1236.5,-536.7"/>
<text text-anchor="start" x="1241.5" y="-543.8" font-family="Helvetica,sans-Serif" font-weight="bold" font-size="16.00" fill="#000000">locations_cities</text>
<text text-anchor="start" x="1464.9272" y="-546.3" font-family="Helvetica,sans-Serif" font-size="16.00" fill="#000000">[table]</text>
<polygon fill="none" stroke="#000000" points="1236.5,-514.7 1236.5,-536.7 1513.5,-536.7 1513.5,-514.7 1236.5,-514.7"/>
<image xlink:href="../../images/primaryKeys.png" width="11px" height="12px" preserveAspectRatio="xMinYMin meet" x="1241.5" y="-531.7"/>
<text text-anchor="start" x="1256.5" y="-517.3" font-family="Helvetica,sans-Serif" font-size="16.00" fill="#000000">id</text>
<polygon fill="#ffffff" stroke="transparent" points="1236.5,-492.7 1236.5,-514.7 1513.5,-514.7 1513.5,-492.7 1236.5,-492.7"/>
<polygon fill="none" stroke="#000000" points="1236.5,-492.7 1236.5,-514.7 1513.5,-514.7 1513.5,-492.7 1236.5,-492.7"/>
<text text-anchor="start" x="1256.5" y="-495.3" font-family="Helvetica,sans-Serif" font-size="16.00" fill="#000000">geoname_id</text>
<polygon fill="#ffffff" stroke="transparent" points="1236.5,-470.7 1236.5,-492.7 1513.5,-492.7 1513.5,-470.7 1236.5,-470.7"/>
<polygon fill="none" stroke="#000000" points="1236.5,-470.7 1236.5,-492.7 1513.5,-492.7 1513.5,-470.7 1236.5,-470.7"/>
<text text-anchor="start" x="1256.5" y="-473.3" font-family="Helvetica,sans-Serif" font-size="16.00" fill="#000000">name</text>
<polygon fill="#ffffff" stroke="transparent" points="1236.5,-448.7 1236.5,-470.7 1513.5,-470.7 1513.5,-448.7 1236.5,-448.7"/>
<polygon fill="none" stroke="#000000" points="1236.5,-448.7 1236.5,-470.7 1513.5,-470.7 1513.5,-448.7 1236.5,-448.7"/>
<text text-anchor="start" x="1256.5" y="-451.3" font-family="Helvetica,sans-Serif" font-size="16.00" fill="#000000">latitude</text>
<polygon fill="#ffffff" stroke="transparent" points="1236.5,-426.7 1236.5,-448.7 1513.5,-448.7 1513.5,-426.7 1236.5,-426.7"/>
<polygon fill="none" stroke="#000000" points="1236.5,-426.7 1236.5,-448.7 1513.5,-448.7 1513.5,-426.7 1236.5,-426.7"/>
<text text-anchor="start" x="1256.5" y="-429.3" font-family="Helvetica,sans-Serif" font-size="16.00" fill="#000000">longitude</text>
<polygon fill="none" stroke="#000000" points="1236.5,-404.7 1236.5,-426.7 1513.5,-426.7 1513.5,-404.7 1236.5,-404.7"/>
<image xlink:href="../../images/foreignKeys.png" width="11px" height="12px" preserveAspectRatio="xMinYMin meet" x="1241.5" y="-421.7"/>
<text text-anchor="start" x="1256.5" y="-407.3" font-family="Helvetica,sans-Serif" font-size="16.00" fill="#000000">feature_class</text>
<polygon fill="#ffffff" stroke="transparent" points="1236.5,-382.7 1236.5,-404.7 1513.5,-404.7 1513.5,-382.7 1236.5,-382.7"/>
<polygon fill="none" stroke="#000000" points="1236.5,-382.7 1236.5,-404.7 1513.5,-404.7 1513.5,-382.7 1236.5,-382.7"/>
<image xlink:href="../../images/foreignKeys.png" width="11px" height="12px" preserveAspectRatio="xMinYMin meet" x="1241.5" y="-399.7"/>
<text text-anchor="start" x="1256.5" y="-385.3" font-family="Helvetica,sans-Serif" font-size="16.00" fill="#000000">feature_code</text>
<polygon fill="#ffffff" stroke="transparent" points="1236.5,-360.7 1236.5,-382.7 1513.5,-382.7 1513.5,-360.7 1236.5,-360.7"/>
<polygon fill="none" stroke="#000000" points="1236.5,-360.7 1236.5,-382.7 1513.5,-382.7 1513.5,-360.7 1236.5,-360.7"/>
<image xlink:href="../../images/foreignKeys.png" width="11px" height="12px" preserveAspectRatio="xMinYMin meet" x="1241.5" y="-377.7"/>
<text text-anchor="start" x="1256.5" y="-363.3" font-family="Helvetica,sans-Serif" font-size="16.00" fill="#000000">country_code</text>
<polygon fill="#ffffff" stroke="transparent" points="1236.5,-338.7 1236.5,-360.7 1513.5,-360.7 1513.5,-338.7 1236.5,-338.7"/>
<polygon fill="none" stroke="#000000" points="1236.5,-338.7 1236.5,-360.7 1513.5,-360.7 1513.5,-338.7 1236.5,-338.7"/>
<image xlink:href="../../images/foreignKeys.png" width="11px" height="12px" preserveAspectRatio="xMinYMin meet" x="1241.5" y="-355.7"/>
<text text-anchor="start" x="1256.5" y="-341.3" font-family="Helvetica,sans-Serif" font-size="16.00" fill="#000000">administrative_division_1_code</text>
<polygon fill="#ffffff" stroke="transparent" points="1236.5,-316.7 1236.5,-338.7 1513.5,-338.7 1513.5,-316.7 1236.5,-316.7"/>
<polygon fill="none" stroke="#000000" points="1236.5,-316.7 1236.5,-338.7 1513.5,-338.7 1513.5,-316.7 1236.5,-316.7"/>
<image xlink:href="../../images/foreignKeys.png" width="11px" height="12px" preserveAspectRatio="xMinYMin meet" x="1241.5" y="-333.7"/>
<text text-anchor="start" x="1256.5" y="-319.3" font-family="Helvetica,sans-Serif" font-size="16.00" fill="#000000">administrative_division_2_code</text>
<polygon fill="#ffffff" stroke="transparent" points="1236.5,-294.7 1236.5,-316.7 1513.5,-316.7 1513.5,-294.7 1236.5,-294.7"/>
<polygon fill="none" stroke="#000000" points="1236.5,-294.7 1236.5,-316.7 1513.5,-316.7 1513.5,-294.7 1236.5,-294.7"/>
<text text-anchor="start" x="1256.5" y="-297.3" font-family="Helvetica,sans-Serif" font-size="16.00" fill="#000000">population</text>
<polygon fill="#ffffff" stroke="transparent" points="1236.5,-272.7 1236.5,-294.7 1513.5,-294.7 1513.5,-272.7 1236.5,-272.7"/>
<polygon fill="none" stroke="#000000" points="1236.5,-272.7 1236.5,-294.7 1513.5,-294.7 1513.5,-272.7 1236.5,-272.7"/>
<text text-anchor="start" x="1256.5" y="-275.3" font-family="Helvetica,sans-Serif" font-size="16.00" fill="#000000">timezone</text>
<polygon fill="none" stroke="#000000" points="1236.5,-247.7 1236.5,-272.7 1513.5,-272.7 1513.5,-247.7 1236.5,-247.7"/>
<text text-anchor="start" x="1239.5" y="-255.3" font-family="Helvetica,sans-Serif" font-size="16.00" fill="#000000">...</text>
<polygon fill="#ffffff" stroke="transparent" points="1236.5,-222.7 1236.5,-247.7 1323.5,-247.7 1323.5,-222.7 1236.5,-222.7"/>
<polygon fill="none" stroke="#000000" points="1236.5,-222.7 1236.5,-247.7 1323.5,-247.7 1323.5,-222.7 1236.5,-222.7"/>
<text text-anchor="start" x="1239.5" y="-230.3" font-family="Helvetica,sans-Serif" font-size="16.00" fill="#000000">&lt; 5</text>
<polygon fill="#ffffff" stroke="transparent" points="1323.5,-222.7 1323.5,-247.7 1455.5,-247.7 1455.5,-222.7 1323.5,-222.7"/>
<polygon fill="none" stroke="#000000" points="1323.5,-222.7 1323.5,-247.7 1455.5,-247.7 1455.5,-222.7 1323.5,-222.7"/>
<text text-anchor="start" x="1356.4696" y="-230.3" font-family="Helvetica,sans-Serif" font-size="16.00" fill="#000000">210,698 rows</text>
<polygon fill="#ffffff" stroke="transparent" points="1455.5,-222.7 1455.5,-247.7 1513.5,-247.7 1513.5,-222.7 1455.5,-222.7"/>
<polygon fill="none" stroke="#000000" points="1455.5,-222.7 1455.5,-247.7 1513.5,-247.7 1513.5,-222.7 1455.5,-222.7"/>
<text text-anchor="start" x="1487.8168" y="-230.3" font-family="Helvetica,sans-Serif" font-size="16.00" fill="#000000">1 &gt;</text>
</a>
</g>
</g>
<!-- locations_cities&#45;&gt;locations_administrative_divisions_1 -->
<g id="edge4" class="edge">
<title>locations_cities:w&#45;&gt;locations_administrative_divisions_1:e</title>
<path fill="none" stroke="#000000" d="M1221.8856,-349.7045C992.7405,-349.844 929.6059,-353.0664 694,-335.7 675.6924,-334.3506 671.3572,-330.7 653,-330.7"/>
<polygon fill="#000000" stroke="#000000" points="1228.5,-349.7025 1236.5011,-353.3 1232.5,-349.7013 1236.5,-349.7 1236.5,-349.7 1236.5,-349.7 1232.5,-349.7013 1236.4989,-346.1 1228.5,-349.7025 1228.5,-349.7025"/>
<ellipse fill="none" stroke="#000000" cx="1225.3" cy="-349.7035" rx="3.2" ry="3.2"/>
</g>
<!-- locations_cities&#45;&gt;locations_countries -->
<g id="edge6" class="edge">
<title>locations_cities:w&#45;&gt;locations_countries:e</title>
<path fill="none" stroke="#000000" d="M1221.8312,-371.7905C812.4167,-376.8499 649.4408,-591.4897 291,-381.7 258.8848,-362.9035 287.2114,-308.7 250,-308.7"/>
<polygon fill="#000000" stroke="#000000" points="1228.5002,-371.7494 1236.5222,-375.2999 1232.5001,-371.7247 1236.5,-371.7 1236.5,-371.7 1236.5,-371.7 1232.5001,-371.7247 1236.4778,-368.1001 1228.5002,-371.7494 1228.5002,-371.7494"/>
<ellipse fill="none" stroke="#000000" cx="1225.3002" cy="-371.7692" rx="3.2" ry="3.2"/>
</g>
<!-- locations_cities&#45;&gt;locations_administrative_divisions_2 -->
<g id="edge5" class="edge">
<title>locations_cities:w&#45;&gt;locations_administrative_divisions_2:e</title>
<path fill="none" stroke="#000000" stroke-dasharray="5,2" d="M1222.7382,-323.2207C1208.4517,-311.8385 1209.8247,-282.7 1185.5,-282.7"/>
<polygon fill="#000000" stroke="#000000" points="1228.8928,-325.2239 1235.3858,-331.1232 1232.6964,-326.462 1236.5,-327.7 1236.5,-327.7 1236.5,-327.7 1232.6964,-326.462 1237.6142,-324.2768 1228.8928,-325.2239 1228.8928,-325.2239"/>
<ellipse fill="none" stroke="#000000" cx="1225.8499" cy="-324.2335" rx="3.2" ry="3.2"/>
</g>
</g>
</svg>
