<?xml version="1.0" encoding="UTF-8" standalone="no"?>
<!DOCTYPE svg PUBLIC "-//W3C//DTD SVG 1.1//EN"
 "http://www.w3.org/Graphics/SVG/1.1/DTD/svg11.dtd">
<!-- Generated by graphviz version 2.40.1 (20161225.0304)
 -->
<!-- Title: oneDegreeRelationshipsDiagramImplied Pages: 1 -->
<svg width="1529pt" height="594pt"
 viewBox="0.00 0.00 1529.00 594.48" xmlns="http://www.w3.org/2000/svg" xmlns:xlink="http://www.w3.org/1999/xlink">
<g id="graph0" class="graph" transform="scale(1 1) rotate(0) translate(4 590.4773)">
<title>oneDegreeRelationshipsDiagramImplied</title>
<polygon fill="#ffffff" stroke="transparent" points="-4,4 -4,-590.4773 1525,-590.4773 1525,4 -4,4"/>
<text text-anchor="middle" x="101.8088" y="-8.8" font-family="Helvetica,sans-Serif" font-size="16.00" fill="#000000">Generated by SchemaSpy</text>
<!-- locations_administrative_divisions_1 -->
<g id="node1" class="node">
<title>locations_administrative_divisions_1</title>
<g id="a_node1"><a xlink:href="../../tables/locations_administrative_divisions_1.html" xlink:title="locations_administrative_divisions_1" target="_top">
<polygon fill="#ffffff" stroke="transparent" points="299,-156.4773 299,-389.4773 784,-389.4773 784,-156.4773 299,-156.4773"/>
<polygon fill="#f5f5f5" stroke="transparent" points="301.5,-357.9773 301.5,-386.9773 782.5,-386.9773 782.5,-357.9773 301.5,-357.9773"/>
<polygon fill="none" stroke="#000000" points="301.5,-357.9773 301.5,-386.9773 782.5,-386.9773 782.5,-357.9773 301.5,-357.9773"/>
<text text-anchor="start" x="306.5" y="-365.0773" font-family="Helvetica,sans-Serif" font-weight="bold" font-size="16.00" fill="#000000">locations_administrative_divisions_1</text>
<text text-anchor="start" x="733.9272" y="-367.5773" font-family="Helvetica,sans-Serif" font-size="16.00" fill="#000000">[table]</text>
<polygon fill="none" stroke="#000000" points="301.5,-332.9773 301.5,-357.9773 630.5,-357.9773 630.5,-332.9773 301.5,-332.9773"/>
<image xlink:href="../../images/primaryKeys.png" width="11px" height="12px" preserveAspectRatio="xMinYMin meet" x="306.5" y="-351.477"/>
<text text-anchor="start" x="321.5" y="-337.0773" font-family="Helvetica,sans-Serif" font-size="16.00" fill="#000000">administrative_division_1_code</text>
<polygon fill="none" stroke="#000000" points="630.5,-332.9773 630.5,-357.9773 782.5,-357.9773 782.5,-332.9773 630.5,-332.9773"/>
<text text-anchor="start" x="633.5" y="-340.5773" font-family="Helvetica,sans-Serif" font-size="16.00" fill="#000000">text[2000000000]</text>
<polygon fill="#ffffff" stroke="transparent" points="301.5,-307.9773 301.5,-332.9773 630.5,-332.9773 630.5,-307.9773 301.5,-307.9773"/>
<polygon fill="none" stroke="#000000" points="301.5,-307.9773 301.5,-332.9773 630.5,-332.9773 630.5,-307.9773 301.5,-307.9773"/>
<image xlink:href="../../images/foreignKeys.png" width="11px" height="12px" preserveAspectRatio="xMinYMin meet" x="306.5" y="-326.477"/>
<text text-anchor="start" x="321.5" y="-312.0773" font-family="Helvetica,sans-Serif" font-size="16.00" fill="#000000">country_code</text>
<polygon fill="none" stroke="#000000" points="630.5,-307.9773 630.5,-332.9773 782.5,-332.9773 782.5,-307.9773 630.5,-307.9773"/>
<text text-anchor="start" x="633.5" y="-315.5773" font-family="Helvetica,sans-Serif" font-size="16.00" fill="#000000">text[2000000000]</text>
<polygon fill="#ffffff" stroke="transparent" points="301.5,-282.9773 301.5,-307.9773 630.5,-307.9773 630.5,-282.9773 301.5,-282.9773"/>
<polygon fill="none" stroke="#000000" points="301.5,-282.9773 301.5,-307.9773 630.5,-307.9773 630.5,-282.9773 301.5,-282.9773"/>
<text text-anchor="start" x="321.5" y="-287.0773" font-family="Helvetica,sans-Serif" font-size="16.00" fill="#000000">administrative_division_1_name</text>
<polygon fill="none" stroke="#000000" points="630.5,-282.9773 630.5,-307.9773 782.5,-307.9773 782.5,-282.9773 630.5,-282.9773"/>
<text text-anchor="start" x="633.5" y="-290.5773" font-family="Helvetica,sans-Serif" font-size="16.00" fill="#000000">text[2000000000]</text>
<polygon fill="#ffffff" stroke="transparent" points="301.5,-257.9773 301.5,-282.9773 630.5,-282.9773 630.5,-257.9773 301.5,-257.9773"/>
<polygon fill="none" stroke="#000000" points="301.5,-257.9773 301.5,-282.9773 630.5,-282.9773 630.5,-257.9773 301.5,-257.9773"/>
<text text-anchor="start" x="321.5" y="-262.0773" font-family="Helvetica,sans-Serif" font-size="16.00" fill="#000000">administrative_division_1_ascii_name</text>
<polygon fill="none" stroke="#000000" points="630.5,-257.9773 630.5,-282.9773 782.5,-282.9773 782.5,-257.9773 630.5,-257.9773"/>
<text text-anchor="start" x="633.5" y="-265.5773" font-family="Helvetica,sans-Serif" font-size="16.00" fill="#000000">text[2000000000]</text>
<polygon fill="#ffffff" stroke="transparent" points="301.5,-232.9773 301.5,-257.9773 630.5,-257.9773 630.5,-232.9773 301.5,-232.9773"/>
<polygon fill="none" stroke="#000000" points="301.5,-232.9773 301.5,-257.9773 630.5,-257.9773 630.5,-232.9773 301.5,-232.9773"/>
<text text-anchor="start" x="321.5" y="-237.0773" font-family="Helvetica,sans-Serif" font-size="16.00" fill="#000000">geoname_id</text>
<polygon fill="none" stroke="#000000" points="630.5,-232.9773 630.5,-257.9773 782.5,-257.9773 782.5,-232.9773 630.5,-232.9773"/>
<text text-anchor="start" x="633.1312" y="-240.5773" font-family="Helvetica,sans-Serif" font-size="16.00" fill="#000000">integer[2000000000]</text>
<polygon fill="none" stroke="#000000" points="301.5,-207.9773 301.5,-232.9773 630.5,-232.9773 630.5,-207.9773 301.5,-207.9773"/>
<text text-anchor="start" x="321.5" y="-212.0773" font-family="Helvetica,sans-Serif" font-size="16.00" fill="#000000">inserted_at</text>
<polygon fill="none" stroke="#000000" points="630.5,-207.9773 630.5,-232.9773 782.5,-232.9773 782.5,-207.9773 630.5,-207.9773"/>
<text text-anchor="start" x="633.5" y="-215.5773" font-family="Helvetica,sans-Serif" font-size="16.00" fill="#000000">text[2000000000]</text>
<polygon fill="none" stroke="#000000" points="301.5,-182.9773 301.5,-207.9773 630.5,-207.9773 630.5,-182.9773 301.5,-182.9773"/>
<text text-anchor="start" x="321.5" y="-187.0773" font-family="Helvetica,sans-Serif" font-size="16.00" fill="#000000">updated_at</text>
<polygon fill="none" stroke="#000000" points="630.5,-182.9773 630.5,-207.9773 782.5,-207.9773 782.5,-182.9773 630.5,-182.9773"/>
<text text-anchor="start" x="633.5" y="-190.5773" font-family="Helvetica,sans-Serif" font-size="16.00" fill="#000000">text[2000000000]</text>
<polygon fill="#ffffff" stroke="transparent" points="301.5,-157.9773 301.5,-182.9773 437.5,-182.9773 437.5,-157.9773 301.5,-157.9773"/>
<polygon fill="none" stroke="#000000" points="301.5,-157.9773 301.5,-182.9773 437.5,-182.9773 437.5,-157.9773 301.5,-157.9773"/>
<text text-anchor="start" x="304.5" y="-165.5773" font-family="Helvetica,sans-Serif" font-size="16.00" fill="#000000">&lt; 1</text>
<polygon fill="#ffffff" stroke="transparent" points="437.5,-157.9773 437.5,-182.9773 630.5,-182.9773 630.5,-157.9773 437.5,-157.9773"/>
<polygon fill="none" stroke="#000000" points="437.5,-157.9773 437.5,-182.9773 630.5,-182.9773 630.5,-157.9773 437.5,-157.9773"/>
<text text-anchor="start" x="549.2584" y="-165.5773" font-family="Helvetica,sans-Serif" font-size="16.00" fill="#000000">3,893 rows</text>
<polygon fill="#ffffff" stroke="transparent" points="630.5,-157.9773 630.5,-182.9773 782.5,-182.9773 782.5,-157.9773 630.5,-157.9773"/>
<polygon fill="none" stroke="#000000" points="630.5,-157.9773 630.5,-182.9773 782.5,-182.9773 782.5,-157.9773 630.5,-157.9773"/>
<text text-anchor="start" x="756.8168" y="-165.5773" font-family="Helvetica,sans-Serif" font-size="16.00" fill="#000000">2 &gt;</text>
<polygon fill="none" stroke="#000000" stroke-width="2" points="300,-157.4773 300,-388.4773 783,-388.4773 783,-157.4773 300,-157.4773"/>
</a>
</g>
</g>
<!-- locations_countries -->
<g id="node2" class="node">
<title>locations_countries</title>
<g id="a_node2"><a xlink:href="../../tables/locations_countries.html" xlink:title="locations_countries" target="_top">
<polygon fill="#ffffff" stroke="transparent" points="8,-62.4773 8,-361.4773 250,-361.4773 250,-62.4773 8,-62.4773"/>
<polygon fill="#f5f5f5" stroke="transparent" points="8,-331.9773 8,-360.9773 250,-360.9773 250,-331.9773 8,-331.9773"/>
<polygon fill="none" stroke="#000000" points="8,-331.9773 8,-360.9773 250,-360.9773 250,-331.9773 8,-331.9773"/>
<text text-anchor="start" x="13" y="-339.0773" font-family="Helvetica,sans-Serif" font-weight="bold" font-size="16.00" fill="#000000">locations_countries</text>
<text text-anchor="start" x="201.4272" y="-341.5773" font-family="Helvetica,sans-Serif" font-size="16.00" fill="#000000">[table]</text>
<polygon fill="none" stroke="#000000" points="8,-309.9773 8,-331.9773 250,-331.9773 250,-309.9773 8,-309.9773"/>
<image xlink:href="../../images/primaryKeys.png" width="11px" height="12px" preserveAspectRatio="xMinYMin meet" x="13" y="-326.977"/>
<text text-anchor="start" x="28" y="-312.5773" font-family="Helvetica,sans-Serif" font-size="16.00" fill="#000000">iso_country_code</text>
<polygon fill="#ffffff" stroke="transparent" points="8,-287.9773 8,-309.9773 250,-309.9773 250,-287.9773 8,-287.9773"/>
<polygon fill="none" stroke="#000000" points="8,-287.9773 8,-309.9773 250,-309.9773 250,-287.9773 8,-287.9773"/>
<text text-anchor="start" x="28" y="-290.5773" font-family="Helvetica,sans-Serif" font-size="16.00" fill="#000000">iso_3_country_code</text>
<polygon fill="#ffffff" stroke="transparent" points="8,-265.9773 8,-287.9773 250,-287.9773 250,-265.9773 8,-265.9773"/>
<polygon fill="none" stroke="#000000" points="8,-265.9773 8,-287.9773 250,-287.9773 250,-265.9773 8,-265.9773"/>
<text text-anchor="start" x="28" y="-268.5773" font-family="Helvetica,sans-Serif" font-size="16.00" fill="#000000">iso_numeric_country_code</text>
<polygon fill="#ffffff" stroke="transparent" points="8,-243.9773 8,-265.9773 250,-265.9773 250,-243.9773 8,-243.9773"/>
<polygon fill="none" stroke="#000000" points="8,-243.9773 8,-265.9773 250,-265.9773 250,-243.9773 8,-243.9773"/>
<text text-anchor="start" x="28" y="-246.5773" font-family="Helvetica,sans-Serif" font-size="16.00" fill="#000000">country_name</text>
<polygon fill="#ffffff" stroke="transparent" points="8,-221.9773 8,-243.9773 250,-243.9773 250,-221.9773 8,-221.9773"/>
<polygon fill="none" stroke="#000000" points="8,-221.9773 8,-243.9773 250,-243.9773 250,-221.9773 8,-221.9773"/>
<text text-anchor="start" x="28" y="-224.5773" font-family="Helvetica,sans-Serif" font-size="16.00" fill="#000000">area</text>
<polygon fill="#ffffff" stroke="transparent" points="8,-199.9773 8,-221.9773 250,-221.9773 250,-199.9773 8,-199.9773"/>
<polygon fill="none" stroke="#000000" points="8,-199.9773 8,-221.9773 250,-221.9773 250,-199.9773 8,-199.9773"/>
<text text-anchor="start" x="28" y="-202.5773" font-family="Helvetica,sans-Serif" font-size="16.00" fill="#000000">population</text>
<polygon fill="#ffffff" stroke="transparent" points="8,-177.9773 8,-199.9773 250,-199.9773 250,-177.9773 8,-177.9773"/>
<polygon fill="none" stroke="#000000" points="8,-177.9773 8,-199.9773 250,-199.9773 250,-177.9773 8,-177.9773"/>
<image xlink:href="../../images/foreignKeys.png" width="11px" height="12px" preserveAspectRatio="xMinYMin meet" x="13" y="-194.977"/>
<text text-anchor="start" x="28" y="-180.5773" font-family="Helvetica,sans-Serif" font-size="16.00" fill="#000000">continent_code</text>
<polygon fill="#ffffff" stroke="transparent" points="8,-155.9773 8,-177.9773 250,-177.9773 250,-155.9773 8,-155.9773"/>
<polygon fill="none" stroke="#000000" points="8,-155.9773 8,-177.9773 250,-177.9773 250,-155.9773 8,-155.9773"/>
<text text-anchor="start" x="28" y="-158.5773" font-family="Helvetica,sans-Serif" font-size="16.00" fill="#000000">tld</text>
<polygon fill="#ffffff" stroke="transparent" points="8,-133.9773 8,-155.9773 250,-155.9773 250,-133.9773 8,-133.9773"/>
<polygon fill="none" stroke="#000000" points="8,-133.9773 8,-155.9773 250,-155.9773 250,-133.9773 8,-133.9773"/>
<text text-anchor="start" x="28" y="-136.5773" font-family="Helvetica,sans-Serif" font-size="16.00" fill="#000000">currency_code</text>
<polygon fill="#ffffff" stroke="transparent" points="8,-111.9773 8,-133.9773 250,-133.9773 250,-111.9773 8,-111.9773"/>
<polygon fill="none" stroke="#000000" points="8,-111.9773 8,-133.9773 250,-133.9773 250,-111.9773 8,-111.9773"/>
<text text-anchor="start" x="28" y="-114.5773" font-family="Helvetica,sans-Serif" font-size="16.00" fill="#000000">geoname_id</text>
<polygon fill="none" stroke="#000000" points="8,-86.9773 8,-111.9773 250,-111.9773 250,-86.9773 8,-86.9773"/>
<text text-anchor="start" x="11" y="-94.5773" font-family="Helvetica,sans-Serif" font-size="16.00" fill="#000000">...</text>
<polygon fill="#ffffff" stroke="transparent" points="8,-61.9773 8,-86.9773 94,-86.9773 94,-61.9773 8,-61.9773"/>
<polygon fill="none" stroke="#000000" points="8,-61.9773 8,-86.9773 94,-86.9773 94,-61.9773 8,-61.9773"/>
<text text-anchor="start" x="11" y="-69.5773" font-family="Helvetica,sans-Serif" font-size="16.00" fill="#000000">&lt; 1</text>
<polygon fill="#ffffff" stroke="transparent" points="94,-61.9773 94,-86.9773 193,-86.9773 193,-61.9773 94,-61.9773"/>
<polygon fill="none" stroke="#000000" points="94,-61.9773 94,-86.9773 193,-86.9773 193,-61.9773 94,-61.9773"/>
<text text-anchor="start" x="125.0992" y="-69.5773" font-family="Helvetica,sans-Serif" font-size="16.00" fill="#000000">252 rows</text>
<polygon fill="#ffffff" stroke="transparent" points="193,-61.9773 193,-86.9773 250,-86.9773 250,-61.9773 193,-61.9773"/>
<polygon fill="none" stroke="#000000" points="193,-61.9773 193,-86.9773 250,-86.9773 250,-61.9773 193,-61.9773"/>
<text text-anchor="start" x="224.3168" y="-69.5773" font-family="Helvetica,sans-Serif" font-size="16.00" fill="#000000">3 &gt;</text>
</a>
</g>
</g>
<!-- locations_administrative_divisions_1&#45;&gt;locations_countries -->
<g id="edge1" class="edge">
<title>locations_administrative_divisions_1:w&#45;&gt;locations_countries:e</title>
<path fill="none" stroke="#000000" d="M287.0156,-320.9773C274.6771,-320.9773 267.1667,-320.9773 250,-320.9773"/>
<polygon fill="#000000" stroke="#000000" points="293.5,-320.9774 301.5,-324.5773 297.5,-320.9774 301.5,-320.9773 301.5,-320.9773 301.5,-320.9773 297.5,-320.9774 301.5,-317.3773 293.5,-320.9774 293.5,-320.9774"/>
<ellipse fill="none" stroke="#000000" cx="290.3" cy="-320.9774" rx="3.2" ry="3.2"/>
</g>
<!-- locations_administrative_divisions_2 -->
<g id="node3" class="node">
<title>locations_administrative_divisions_2</title>
<g id="a_node3"><a xlink:href="../../tables/locations_administrative_divisions_2.html" xlink:title="locations_administrative_divisions_2" target="_top">
<polygon fill="#ffffff" stroke="transparent" points="833,-130.4773 833,-341.4773 1187,-341.4773 1187,-130.4773 833,-130.4773"/>
<polygon fill="#f5f5f5" stroke="transparent" points="833,-311.9773 833,-340.9773 1187,-340.9773 1187,-311.9773 833,-311.9773"/>
<polygon fill="none" stroke="#000000" points="833,-311.9773 833,-340.9773 1187,-340.9773 1187,-311.9773 833,-311.9773"/>
<text text-anchor="start" x="838" y="-319.0773" font-family="Helvetica,sans-Serif" font-weight="bold" font-size="16.00" fill="#000000">locations_administrative_divisions_2</text>
<text text-anchor="start" x="1138.7136" y="-321.5773" font-family="Helvetica,sans-Serif" font-size="16.00" fill="#000000">[table]</text>
<polygon fill="none" stroke="#000000" points="833,-289.9773 833,-311.9773 1187,-311.9773 1187,-289.9773 833,-289.9773"/>
<image xlink:href="../../images/primaryKeys.png" width="11px" height="12px" preserveAspectRatio="xMinYMin meet" x="838" y="-306.977"/>
<text text-anchor="start" x="866" y="-292.5773" font-family="Helvetica,sans-Serif" font-size="16.00" fill="#000000">administrative_division_2_code</text>
<polygon fill="#ffffff" stroke="transparent" points="833,-267.9773 833,-289.9773 1187,-289.9773 1187,-267.9773 833,-267.9773"/>
<polygon fill="none" stroke="#000000" points="833,-267.9773 833,-289.9773 1187,-289.9773 1187,-267.9773 833,-267.9773"/>
<image xlink:href="../../images/foreignKeys.png" width="11px" height="12px" preserveAspectRatio="xMinYMin meet" x="838" y="-284.977"/>
<text text-anchor="start" x="866" y="-270.5773" font-family="Helvetica,sans-Serif" font-size="16.00" fill="#000000">administrative_division_1_code</text>
<polygon fill="#ffffff" stroke="transparent" points="833,-245.9773 833,-267.9773 1187,-267.9773 1187,-245.9773 833,-245.9773"/>
<polygon fill="none" stroke="#000000" points="833,-245.9773 833,-267.9773 1187,-267.9773 1187,-245.9773 833,-245.9773"/>
<image xlink:href="../../images/foreignKeys.png" width="11px" height="12px" preserveAspectRatio="xMinYMin meet" x="838" y="-262.977"/>
<text text-anchor="start" x="866" y="-248.5773" font-family="Helvetica,sans-Serif" font-size="16.00" fill="#000000">country_code</text>
<polygon fill="#ffffff" stroke="transparent" points="833,-223.9773 833,-245.9773 1187,-245.9773 1187,-223.9773 833,-223.9773"/>
<polygon fill="none" stroke="#000000" points="833,-223.9773 833,-245.9773 1187,-245.9773 1187,-223.9773 833,-223.9773"/>
<text text-anchor="start" x="866" y="-226.5773" font-family="Helvetica,sans-Serif" font-size="16.00" fill="#000000">administrative_division_2_name</text>
<polygon fill="#ffffff" stroke="transparent" points="833,-201.9773 833,-223.9773 1187,-223.9773 1187,-201.9773 833,-201.9773"/>
<polygon fill="none" stroke="#000000" points="833,-201.9773 833,-223.9773 1187,-223.9773 1187,-201.9773 833,-201.9773"/>
<text text-anchor="start" x="866" y="-204.5773" font-family="Helvetica,sans-Serif" font-size="16.00" fill="#000000">administrative_division_2_ascii_name</text>
<polygon fill="#ffffff" stroke="transparent" points="833,-179.9773 833,-201.9773 1187,-201.9773 1187,-179.9773 833,-179.9773"/>
<polygon fill="none" stroke="#000000" points="833,-179.9773 833,-201.9773 1187,-201.9773 1187,-179.9773 833,-179.9773"/>
<text text-anchor="start" x="866" y="-182.5773" font-family="Helvetica,sans-Serif" font-size="16.00" fill="#000000">geoname_id</text>
<polygon fill="none" stroke="#000000" points="833,-154.9773 833,-179.9773 1187,-179.9773 1187,-154.9773 833,-154.9773"/>
<text text-anchor="start" x="836" y="-162.5773" font-family="Helvetica,sans-Serif" font-size="16.00" fill="#000000">...</text>
<polygon fill="#ffffff" stroke="transparent" points="833,-129.9773 833,-154.9773 963,-154.9773 963,-129.9773 833,-129.9773"/>
<polygon fill="none" stroke="#000000" points="833,-129.9773 833,-154.9773 963,-154.9773 963,-129.9773 833,-129.9773"/>
<text text-anchor="start" x="836" y="-137.5773" font-family="Helvetica,sans-Serif" font-size="16.00" fill="#000000">&lt; 2</text>
<polygon fill="#ffffff" stroke="transparent" points="963,-129.9773 963,-154.9773 1107,-154.9773 1107,-129.9773 963,-129.9773"/>
<polygon fill="none" stroke="#000000" points="963,-129.9773 963,-154.9773 1107,-154.9773 1107,-129.9773 963,-129.9773"/>
<text text-anchor="start" x="1016.864" y="-137.5773" font-family="Helvetica,sans-Serif" font-size="16.00" fill="#000000">47,229 rows</text>
<polygon fill="#ffffff" stroke="transparent" points="1107,-129.9773 1107,-154.9773 1187,-154.9773 1187,-129.9773 1107,-129.9773"/>
<polygon fill="none" stroke="#000000" points="1107,-129.9773 1107,-154.9773 1187,-154.9773 1187,-129.9773 1107,-129.9773"/>
<text text-anchor="start" x="1161.3168" y="-137.5773" font-family="Helvetica,sans-Serif" font-size="16.00" fill="#000000">1 &gt;</text>
</a>
</g>
</g>
<!-- locations_administrative_divisions_2&#45;&gt;locations_administrative_divisions_1 -->
<g id="edge2" class="edge">
<title>locations_administrative_divisions_2:w&#45;&gt;locations_administrative_divisions_1:e</title>
<path fill="none" stroke="#000000" d="M819.0602,-283.7958C801.9598,-299.1583 813.6713,-345.9773 782.5,-345.9773"/>
<polygon fill="#000000" stroke="#000000" points="825.439,-281.5909 834.1761,-282.3798 829.2195,-280.2841 833,-278.9773 833,-278.9773 833,-278.9773 829.2195,-280.2841 831.8239,-275.5749 825.439,-281.5909 825.439,-281.5909"/>
<ellipse fill="none" stroke="#000000" cx="822.4145" cy="-282.6364" rx="3.2" ry="3.2"/>
</g>
<!-- locations_administrative_divisions_2&#45;&gt;locations_countries -->
<g id="edge3" class="edge">
<title>locations_administrative_divisions_2:w&#45;&gt;locations_countries:e</title>
<path fill="none" stroke="#000000" d="M818.6027,-253.8549C791.8949,-238.7063 830.0949,-172.5168 792,-145.9773 609.2987,-18.6954 465.4852,-7.6467 291,-145.9773 228.4017,-195.6048 329.8839,-320.9773 250,-320.9773"/>
<polygon fill="#000000" stroke="#000000" points="825.1817,-255.2817 832.237,-260.4956 829.0909,-256.1295 833,-256.9773 833,-256.9773 833,-256.9773 829.0909,-256.1295 833.763,-253.4591 825.1817,-255.2817 825.1817,-255.2817"/>
<ellipse fill="none" stroke="#000000" cx="822.0544" cy="-254.6035" rx="3.2" ry="3.2"/>
</g>
<!-- locations_cities -->
<g id="node4" class="node">
<title>locations_cities</title>
<g id="a_node4"><a xlink:href="../../tables/locations_cities.html" xlink:title="locations_cities" target="_top">
<polygon fill="#ffffff" stroke="transparent" points="1236,-239.4773 1236,-582.4773 1513,-582.4773 1513,-239.4773 1236,-239.4773"/>
<polygon fill="#f5f5f5" stroke="transparent" points="1236.5,-552.9773 1236.5,-581.9773 1513.5,-581.9773 1513.5,-552.9773 1236.5,-552.9773"/>
<polygon fill="none" stroke="#000000" points="1236.5,-552.9773 1236.5,-581.9773 1513.5,-581.9773 1513.5,-552.9773 1236.5,-552.9773"/>
<text text-anchor="start" x="1241.5" y="-560.0773" font-family="Helvetica,sans-Serif" font-weight="bold" font-size="16.00" fill="#000000">locations_cities</text>
<text text-anchor="start" x="1464.9272" y="-562.5773" font-family="Helvetica,sans-Serif" font-size="16.00" fill="#000000">[table]</text>
<polygon fill="none" stroke="#000000" points="1236.5,-530.9773 1236.5,-552.9773 1513.5,-552.9773 1513.5,-530.9773 1236.5,-530.9773"/>
<image xlink:href="../../images/primaryKeys.png" width="11px" height="12px" preserveAspectRatio="xMinYMin meet" x="1241.5" y="-547.977"/>
<text text-anchor="start" x="1256.5" y="-533.5773" font-family="Helvetica,sans-Serif" font-size="16.00" fill="#000000">id</text>
<polygon fill="#ffffff" stroke="transparent" points="1236.5,-508.9773 1236.5,-530.9773 1513.5,-530.9773 1513.5,-508.9773 1236.5,-508.9773"/>
<polygon fill="none" stroke="#000000" points="1236.5,-508.9773 1236.5,-530.9773 1513.5,-530.9773 1513.5,-508.9773 1236.5,-508.9773"/>
<text text-anchor="start" x="1256.5" y="-511.5773" font-family="Helvetica,sans-Serif" font-size="16.00" fill="#000000">geoname_id</text>
<polygon fill="#ffffff" stroke="transparent" points="1236.5,-486.9773 1236.5,-508.9773 1513.5,-508.9773 1513.5,-486.9773 1236.5,-486.9773"/>
<polygon fill="none" stroke="#000000" points="1236.5,-486.9773 1236.5,-508.9773 1513.5,-508.9773 1513.5,-486.9773 1236.5,-486.9773"/>
<text text-anchor="start" x="1256.5" y="-489.5773" font-family="Helvetica,sans-Serif" font-size="16.00" fill="#000000">name</text>
<polygon fill="#ffffff" stroke="transparent" points="1236.5,-464.9773 1236.5,-486.9773 1513.5,-486.9773 1513.5,-464.9773 1236.5,-464.9773"/>
<polygon fill="none" stroke="#000000" points="1236.5,-464.9773 1236.5,-486.9773 1513.5,-486.9773 1513.5,-464.9773 1236.5,-464.9773"/>
<text text-anchor="start" x="1256.5" y="-467.5773" font-family="Helvetica,sans-Serif" font-size="16.00" fill="#000000">latitude</text>
<polygon fill="#ffffff" stroke="transparent" points="1236.5,-442.9773 1236.5,-464.9773 1513.5,-464.9773 1513.5,-442.9773 1236.5,-442.9773"/>
<polygon fill="none" stroke="#000000" points="1236.5,-442.9773 1236.5,-464.9773 1513.5,-464.9773 1513.5,-442.9773 1236.5,-442.9773"/>
<text text-anchor="start" x="1256.5" y="-445.5773" font-family="Helvetica,sans-Serif" font-size="16.00" fill="#000000">longitude</text>
<polygon fill="none" stroke="#000000" points="1236.5,-420.9773 1236.5,-442.9773 1513.5,-442.9773 1513.5,-420.9773 1236.5,-420.9773"/>
<image xlink:href="../../images/foreignKeys.png" width="11px" height="12px" preserveAspectRatio="xMinYMin meet" x="1241.5" y="-437.977"/>
<text text-anchor="start" x="1256.5" y="-423.5773" font-family="Helvetica,sans-Serif" font-size="16.00" fill="#000000">feature_class</text>
<polygon fill="#ffffff" stroke="transparent" points="1236.5,-398.9773 1236.5,-420.9773 1513.5,-420.9773 1513.5,-398.9773 1236.5,-398.9773"/>
<polygon fill="none" stroke="#000000" points="1236.5,-398.9773 1236.5,-420.9773 1513.5,-420.9773 1513.5,-398.9773 1236.5,-398.9773"/>
<image xlink:href="../../images/foreignKeys.png" width="11px" height="12px" preserveAspectRatio="xMinYMin meet" x="1241.5" y="-415.977"/>
<text text-anchor="start" x="1256.5" y="-401.5773" font-family="Helvetica,sans-Serif" font-size="16.00" fill="#000000">feature_code</text>
<polygon fill="#ffffff" stroke="transparent" points="1236.5,-376.9773 1236.5,-398.9773 1513.5,-398.9773 1513.5,-376.9773 1236.5,-376.9773"/>
<polygon fill="none" stroke="#000000" points="1236.5,-376.9773 1236.5,-398.9773 1513.5,-398.9773 1513.5,-376.9773 1236.5,-376.9773"/>
<image xlink:href="../../images/foreignKeys.png" width="11px" height="12px" preserveAspectRatio="xMinYMin meet" x="1241.5" y="-393.977"/>
<text text-anchor="start" x="1256.5" y="-379.5773" font-family="Helvetica,sans-Serif" font-size="16.00" fill="#000000">country_code</text>
<polygon fill="#ffffff" stroke="transparent" points="1236.5,-354.9773 1236.5,-376.9773 1513.5,-376.9773 1513.5,-354.9773 1236.5,-354.9773"/>
<polygon fill="none" stroke="#000000" points="1236.5,-354.9773 1236.5,-376.9773 1513.5,-376.9773 1513.5,-354.9773 1236.5,-354.9773"/>
<image xlink:href="../../images/foreignKeys.png" width="11px" height="12px" preserveAspectRatio="xMinYMin meet" x="1241.5" y="-371.977"/>
<text text-anchor="start" x="1256.5" y="-357.5773" font-family="Helvetica,sans-Serif" font-size="16.00" fill="#000000">administrative_division_1_code</text>
<polygon fill="#ffffff" stroke="transparent" points="1236.5,-332.9773 1236.5,-354.9773 1513.5,-354.9773 1513.5,-332.9773 1236.5,-332.9773"/>
<polygon fill="none" stroke="#000000" points="1236.5,-332.9773 1236.5,-354.9773 1513.5,-354.9773 1513.5,-332.9773 1236.5,-332.9773"/>
<image xlink:href="../../images/foreignKeys.png" width="11px" height="12px" preserveAspectRatio="xMinYMin meet" x="1241.5" y="-349.977"/>
<text text-anchor="start" x="1256.5" y="-335.5773" font-family="Helvetica,sans-Serif" font-size="16.00" fill="#000000">administrative_division_2_code</text>
<polygon fill="#ffffff" stroke="transparent" points="1236.5,-310.9773 1236.5,-332.9773 1513.5,-332.9773 1513.5,-310.9773 1236.5,-310.9773"/>
<polygon fill="none" stroke="#000000" points="1236.5,-310.9773 1236.5,-332.9773 1513.5,-332.9773 1513.5,-310.9773 1236.5,-310.9773"/>
<text text-anchor="start" x="1256.5" y="-313.5773" font-family="Helvetica,sans-Serif" font-size="16.00" fill="#000000">population</text>
<polygon fill="#ffffff" stroke="transparent" points="1236.5,-288.9773 1236.5,-310.9773 1513.5,-310.9773 1513.5,-288.9773 1236.5,-288.9773"/>
<polygon fill="none" stroke="#000000" points="1236.5,-288.9773 1236.5,-310.9773 1513.5,-310.9773 1513.5,-288.9773 1236.5,-288.9773"/>
<text text-anchor="start" x="1256.5" y="-291.5773" font-family="Helvetica,sans-Serif" font-size="16.00" fill="#000000">timezone</text>
<polygon fill="none" stroke="#000000" points="1236.5,-263.9773 1236.5,-288.9773 1513.5,-288.9773 1513.5,-263.9773 1236.5,-263.9773"/>
<text text-anchor="start" x="1239.5" y="-271.5773" font-family="Helvetica,sans-Serif" font-size="16.00" fill="#000000">...</text>
<polygon fill="#ffffff" stroke="transparent" points="1236.5,-238.9773 1236.5,-263.9773 1323.5,-263.9773 1323.5,-238.9773 1236.5,-238.9773"/>
<polygon fill="none" stroke="#000000" points="1236.5,-238.9773 1236.5,-263.9773 1323.5,-263.9773 1323.5,-238.9773 1236.5,-238.9773"/>
<text text-anchor="start" x="1239.5" y="-246.5773" font-family="Helvetica,sans-Serif" font-size="16.00" fill="#000000">&lt; 5</text>
<polygon fill="#ffffff" stroke="transparent" points="1323.5,-238.9773 1323.5,-263.9773 1455.5,-263.9773 1455.5,-238.9773 1323.5,-238.9773"/>
<polygon fill="none" stroke="#000000" points="1323.5,-238.9773 1323.5,-263.9773 1455.5,-263.9773 1455.5,-238.9773 1323.5,-238.9773"/>
<text text-anchor="start" x="1356.4696" y="-246.5773" font-family="Helvetica,sans-Serif" font-size="16.00" fill="#000000">210,698 rows</text>
<polygon fill="#ffffff" stroke="transparent" points="1455.5,-238.9773 1455.5,-263.9773 1513.5,-263.9773 1513.5,-238.9773 1455.5,-238.9773"/>
<polygon fill="none" stroke="#000000" points="1455.5,-238.9773 1455.5,-263.9773 1513.5,-263.9773 1513.5,-238.9773 1455.5,-238.9773"/>
<text text-anchor="start" x="1487.8168" y="-246.5773" font-family="Helvetica,sans-Serif" font-size="16.00" fill="#000000">1 &gt;</text>
</a>
</g>
</g>
<!-- locations_cities&#45;&gt;locations_administrative_divisions_1 -->
<g id="edge4" class="edge">
<title>locations_cities:w&#45;&gt;locations_administrative_divisions_1:e</title>
<path fill="none" stroke="#000000" d="M1222.0475,-365.9811C1050.9254,-366.0678 1002.4048,-367.4737 825,-351.9773 805.9962,-350.3173 801.5762,-345.9773 782.5,-345.9773"/>
<polygon fill="#000000" stroke="#000000" points="1228.5,-365.9795 1236.501,-369.5773 1232.5,-365.9784 1236.5,-365.9773 1236.5,-365.9773 1236.5,-365.9773 1232.5,-365.9784 1236.499,-362.3773 1228.5,-365.9795 1228.5,-365.9795"/>
<ellipse fill="none" stroke="#000000" cx="1225.3" cy="-365.9803" rx="3.2" ry="3.2"/>
</g>
<!-- locations_cities&#45;&gt;locations_countries -->
<g id="edge6" class="edge">
<title>locations_cities:w&#45;&gt;locations_countries:e</title>
<path fill="none" stroke="#000000" d="M1221.8294,-388.0711C812.3245,-393.312 645.9375,-615.6608 291,-399.9773 257.1941,-379.4347 289.5581,-320.9773 250,-320.9773"/>
<polygon fill="#000000" stroke="#000000" points="1228.5002,-388.0285 1236.523,-391.5773 1232.5001,-388.0029 1236.5,-387.9773 1236.5,-387.9773 1236.5,-387.9773 1232.5001,-388.0029 1236.477,-384.3774 1228.5002,-388.0285 1228.5002,-388.0285"/>
<ellipse fill="none" stroke="#000000" cx="1225.3002" cy="-388.049" rx="3.2" ry="3.2"/>
</g>
<!-- locations_cities&#45;&gt;locations_administrative_divisions_2 -->
<g id="edge5" class="edge">
<title>locations_cities:w&#45;&gt;locations_administrative_divisions_2:e</title>
<path fill="none" stroke="#000000" stroke-dasharray="5,2" d="M1222.8004,-339.3756C1209.3618,-328.2828 1210.2222,-300.9773 1187,-300.9773"/>
<polygon fill="#000000" stroke="#000000" points="1228.9164,-341.4299 1235.3537,-347.39 1232.7082,-342.7036 1236.5,-343.9773 1236.5,-343.9773 1236.5,-343.9773 1232.7082,-342.7036 1237.6463,-340.5647 1228.9164,-341.4299 1228.9164,-341.4299"/>
<ellipse fill="none" stroke="#000000" cx="1225.883" cy="-340.411" rx="3.2" ry="3.2"/>
</g>
</g>
</svg>
