<?xml version="1.0" encoding="UTF-8" standalone="no"?>
<!DOCTYPE svg PUBLIC "-//W3C//DTD SVG 1.1//EN"
 "http://www.w3.org/Graphics/SVG/1.1/DTD/svg11.dtd">
<!-- Generated by graphviz version 2.40.1 (20161225.0304)
 -->
<!-- Title: oneDegreeRelationshipsDiagramImplied Pages: 1 -->
<svg width="1829pt" height="817pt"
 viewBox="0.00 0.00 1829.00 817.20" xmlns="http://www.w3.org/2000/svg" xmlns:xlink="http://www.w3.org/1999/xlink">
<g id="graph0" class="graph" transform="scale(1 1) rotate(0) translate(4 813.2)">
<title>oneDegreeRelationshipsDiagramImplied</title>
<polygon fill="#ffffff" stroke="transparent" points="-4,4 -4,-813.2 1825,-813.2 1825,4 -4,4"/>
<text text-anchor="middle" x="101.8088" y="-8.8" font-family="Helvetica,sans-Serif" font-size="16.00" fill="#000000">Generated by SchemaSpy</text>
<!-- journal_entries -->
<g id="node1" class="node">
<title>journal_entries</title>
<g id="a_node1"><a xlink:href="../../tables/journal_entries.html" xlink:title="journal_entries" target="_top">
<polygon fill="#ffffff" stroke="transparent" points="1617,-572.2 1617,-805.2 1813,-805.2 1813,-572.2 1617,-572.2"/>
<polygon fill="#f5f5f5" stroke="transparent" points="1617,-775.7 1617,-804.7 1813,-804.7 1813,-775.7 1617,-775.7"/>
<polygon fill="none" stroke="#000000" points="1617,-775.7 1617,-804.7 1813,-804.7 1813,-775.7 1617,-775.7"/>
<text text-anchor="start" x="1622" y="-782.8" font-family="Helvetica,sans-Serif" font-weight="bold" font-size="16.00" fill="#000000">journal_entries</text>
<text text-anchor="start" x="1764.4272" y="-785.3" font-family="Helvetica,sans-Serif" font-size="16.00" fill="#000000">[table]</text>
<polygon fill="none" stroke="#000000" points="1617,-753.7 1617,-775.7 1813,-775.7 1813,-753.7 1617,-753.7"/>
<image xlink:href="../../images/primaryKeys.png" width="11px" height="12px" preserveAspectRatio="xMinYMin meet" x="1622" y="-770.7"/>
<text text-anchor="start" x="1637" y="-756.3" font-family="Helvetica,sans-Serif" font-size="16.00" fill="#000000">id</text>
<polygon fill="#ffffff" stroke="transparent" points="1617,-731.7 1617,-753.7 1813,-753.7 1813,-731.7 1617,-731.7"/>
<polygon fill="none" stroke="#000000" points="1617,-731.7 1617,-753.7 1813,-753.7 1813,-731.7 1617,-731.7"/>
<text text-anchor="start" x="1637" y="-734.3" font-family="Helvetica,sans-Serif" font-size="16.00" fill="#000000">journal_for</text>
<polygon fill="#ffffff" stroke="transparent" points="1617,-709.7 1617,-731.7 1813,-731.7 1813,-709.7 1617,-709.7"/>
<polygon fill="none" stroke="#000000" points="1617,-709.7 1617,-731.7 1813,-731.7 1813,-709.7 1617,-709.7"/>
<image xlink:href="../../images/foreignKeys.png" width="11px" height="12px" preserveAspectRatio="xMinYMin meet" x="1622" y="-726.7"/>
<text text-anchor="start" x="1637" y="-712.3" font-family="Helvetica,sans-Serif" font-size="16.00" fill="#000000">entry_type_id</text>
<polygon fill="#ffffff" stroke="transparent" points="1617,-687.7 1617,-709.7 1813,-709.7 1813,-687.7 1617,-687.7"/>
<polygon fill="none" stroke="#000000" points="1617,-687.7 1617,-709.7 1813,-709.7 1813,-687.7 1617,-687.7"/>
<text text-anchor="start" x="1637" y="-690.3" font-family="Helvetica,sans-Serif" font-size="16.00" fill="#000000">is_private</text>
<polygon fill="#ffffff" stroke="transparent" points="1617,-665.7 1617,-687.7 1813,-687.7 1813,-665.7 1617,-665.7"/>
<polygon fill="none" stroke="#000000" points="1617,-665.7 1617,-687.7 1813,-687.7 1813,-665.7 1617,-665.7"/>
<image xlink:href="../../images/foreignKeys.png" width="11px" height="12px" preserveAspectRatio="xMinYMin meet" x="1622" y="-682.7"/>
<text text-anchor="start" x="1637" y="-668.3" font-family="Helvetica,sans-Serif" font-size="16.00" fill="#000000">user_id</text>
<polygon fill="#ffffff" stroke="transparent" points="1617,-643.7 1617,-665.7 1813,-665.7 1813,-643.7 1617,-643.7"/>
<polygon fill="none" stroke="#000000" points="1617,-643.7 1617,-665.7 1813,-665.7 1813,-643.7 1617,-643.7"/>
<text text-anchor="start" x="1637" y="-646.3" font-family="Helvetica,sans-Serif" font-size="16.00" fill="#000000">inserted_at</text>
<polygon fill="none" stroke="#000000" points="1617,-621.7 1617,-643.7 1813,-643.7 1813,-621.7 1617,-621.7"/>
<image xlink:href="../../images/foreignKeys.png" width="11px" height="12px" preserveAspectRatio="xMinYMin meet" x="1622" y="-638.7"/>
<text text-anchor="start" x="1637" y="-624.3" font-family="Helvetica,sans-Serif" font-size="16.00" fill="#000000">location_id</text>
<polygon fill="none" stroke="#000000" points="1617,-596.7 1617,-621.7 1813,-621.7 1813,-596.7 1617,-596.7"/>
<text text-anchor="start" x="1620" y="-604.3" font-family="Helvetica,sans-Serif" font-size="16.00" fill="#000000">...</text>
<polygon fill="#ffffff" stroke="transparent" points="1617,-571.7 1617,-596.7 1688,-596.7 1688,-571.7 1617,-571.7"/>
<polygon fill="none" stroke="#000000" points="1617,-571.7 1617,-596.7 1688,-596.7 1688,-571.7 1617,-571.7"/>
<text text-anchor="start" x="1620" y="-579.3" font-family="Helvetica,sans-Serif" font-size="16.00" fill="#000000">&lt; 3</text>
<polygon fill="#ffffff" stroke="transparent" points="1688,-571.7 1688,-596.7 1763,-596.7 1763,-571.7 1688,-571.7"/>
<polygon fill="none" stroke="#000000" points="1688,-571.7 1688,-596.7 1763,-596.7 1763,-571.7 1688,-571.7"/>
<text text-anchor="start" x="1712.888" y="-579.3" font-family="Helvetica,sans-Serif" font-size="16.00" fill="#000000">2 rows</text>
<polygon fill="#ffffff" stroke="transparent" points="1763,-571.7 1763,-596.7 1813,-596.7 1813,-571.7 1763,-571.7"/>
<polygon fill="none" stroke="#000000" points="1763,-571.7 1763,-596.7 1813,-596.7 1813,-571.7 1763,-571.7"/>
<text text-anchor="start" x="1787.3168" y="-579.3" font-family="Helvetica,sans-Serif" font-size="16.00" fill="#000000">1 &gt;</text>
</a>
</g>
</g>
<!-- locations_cities -->
<g id="node2" class="node">
<title>locations_cities</title>
<g id="a_node2"><a xlink:href="../../tables/locations_cities.html" xlink:title="locations_cities" target="_top">
<polygon fill="#ffffff" stroke="transparent" points="1105,-67.7 1105,-675.7 1568,-675.7 1568,-67.7 1105,-67.7"/>
<polygon fill="#f5f5f5" stroke="transparent" points="1107.5,-644.7 1107.5,-673.7 1566.5,-673.7 1566.5,-644.7 1107.5,-644.7"/>
<polygon fill="none" stroke="#000000" points="1107.5,-644.7 1107.5,-673.7 1566.5,-673.7 1566.5,-644.7 1107.5,-644.7"/>
<text text-anchor="start" x="1112.5" y="-651.8" font-family="Helvetica,sans-Serif" font-weight="bold" font-size="16.00" fill="#000000">locations_cities</text>
<text text-anchor="start" x="1517.9272" y="-654.3" font-family="Helvetica,sans-Serif" font-size="16.00" fill="#000000">[table]</text>
<polygon fill="none" stroke="#000000" points="1107.5,-619.7 1107.5,-644.7 1384.5,-644.7 1384.5,-619.7 1107.5,-619.7"/>
<image xlink:href="../../images/primaryKeys.png" width="11px" height="12px" preserveAspectRatio="xMinYMin meet" x="1112.5" y="-638.2"/>
<text text-anchor="start" x="1127.5" y="-623.8" font-family="Helvetica,sans-Serif" font-size="16.00" fill="#000000">id</text>
<polygon fill="none" stroke="#000000" points="1384.5,-619.7 1384.5,-644.7 1566.5,-644.7 1566.5,-619.7 1384.5,-619.7"/>
<text text-anchor="start" x="1387.5" y="-627.3" font-family="Helvetica,sans-Serif" font-size="16.00" fill="#000000">text[2000000000]</text>
<polygon fill="#ffffff" stroke="transparent" points="1107.5,-594.7 1107.5,-619.7 1384.5,-619.7 1384.5,-594.7 1107.5,-594.7"/>
<polygon fill="none" stroke="#000000" points="1107.5,-594.7 1107.5,-619.7 1384.5,-619.7 1384.5,-594.7 1107.5,-594.7"/>
<text text-anchor="start" x="1127.5" y="-598.8" font-family="Helvetica,sans-Serif" font-size="16.00" fill="#000000">geoname_id</text>
<polygon fill="none" stroke="#000000" points="1384.5,-594.7 1384.5,-619.7 1566.5,-619.7 1566.5,-594.7 1384.5,-594.7"/>
<text text-anchor="start" x="1387.5" y="-602.3" font-family="Helvetica,sans-Serif" font-size="16.00" fill="#000000">integer[2000000000]</text>
<polygon fill="#ffffff" stroke="transparent" points="1107.5,-569.7 1107.5,-594.7 1384.5,-594.7 1384.5,-569.7 1107.5,-569.7"/>
<polygon fill="none" stroke="#000000" points="1107.5,-569.7 1107.5,-594.7 1384.5,-594.7 1384.5,-569.7 1107.5,-569.7"/>
<text text-anchor="start" x="1127.5" y="-573.8" font-family="Helvetica,sans-Serif" font-size="16.00" fill="#000000">name</text>
<polygon fill="none" stroke="#000000" points="1384.5,-569.7 1384.5,-594.7 1566.5,-594.7 1566.5,-569.7 1384.5,-569.7"/>
<text text-anchor="start" x="1387.5" y="-577.3" font-family="Helvetica,sans-Serif" font-size="16.00" fill="#000000">text[2000000000]</text>
<polygon fill="none" stroke="#000000" points="1107.5,-544.7 1107.5,-569.7 1384.5,-569.7 1384.5,-544.7 1107.5,-544.7"/>
<text text-anchor="start" x="1127.5" y="-548.8" font-family="Helvetica,sans-Serif" font-size="16.00" fill="#000000">ascii_name</text>
<polygon fill="none" stroke="#000000" points="1384.5,-544.7 1384.5,-569.7 1566.5,-569.7 1566.5,-544.7 1384.5,-544.7"/>
<text text-anchor="start" x="1387.5" y="-552.3" font-family="Helvetica,sans-Serif" font-size="16.00" fill="#000000">text[2000000000]</text>
<polygon fill="none" stroke="#000000" points="1107.5,-519.7 1107.5,-544.7 1384.5,-544.7 1384.5,-519.7 1107.5,-519.7"/>
<text text-anchor="start" x="1127.5" y="-523.8" font-family="Helvetica,sans-Serif" font-size="16.00" fill="#000000">alternate_names</text>
<polygon fill="none" stroke="#000000" points="1384.5,-519.7 1384.5,-544.7 1566.5,-544.7 1566.5,-519.7 1384.5,-519.7"/>
<text text-anchor="start" x="1387.5" y="-527.3" font-family="Helvetica,sans-Serif" font-size="16.00" fill="#000000">text[2000000000]</text>
<polygon fill="#ffffff" stroke="transparent" points="1107.5,-494.7 1107.5,-519.7 1384.5,-519.7 1384.5,-494.7 1107.5,-494.7"/>
<polygon fill="none" stroke="#000000" points="1107.5,-494.7 1107.5,-519.7 1384.5,-519.7 1384.5,-494.7 1107.5,-494.7"/>
<text text-anchor="start" x="1127.5" y="-498.8" font-family="Helvetica,sans-Serif" font-size="16.00" fill="#000000">latitude</text>
<polygon fill="none" stroke="#000000" points="1384.5,-494.7 1384.5,-519.7 1566.5,-519.7 1566.5,-494.7 1384.5,-494.7"/>
<text text-anchor="start" x="1387.0208" y="-502.3" font-family="Helvetica,sans-Serif" font-size="16.00" fill="#000000">numeric[2000000000,10]</text>
<polygon fill="#ffffff" stroke="transparent" points="1107.5,-469.7 1107.5,-494.7 1384.5,-494.7 1384.5,-469.7 1107.5,-469.7"/>
<polygon fill="none" stroke="#000000" points="1107.5,-469.7 1107.5,-494.7 1384.5,-494.7 1384.5,-469.7 1107.5,-469.7"/>
<text text-anchor="start" x="1127.5" y="-473.8" font-family="Helvetica,sans-Serif" font-size="16.00" fill="#000000">longitude</text>
<polygon fill="none" stroke="#000000" points="1384.5,-469.7 1384.5,-494.7 1566.5,-494.7 1566.5,-469.7 1384.5,-469.7"/>
<text text-anchor="start" x="1387.0208" y="-477.3" font-family="Helvetica,sans-Serif" font-size="16.00" fill="#000000">numeric[2000000000,10]</text>
<polygon fill="none" stroke="#000000" points="1107.5,-444.7 1107.5,-469.7 1384.5,-469.7 1384.5,-444.7 1107.5,-444.7"/>
<image xlink:href="../../images/foreignKeys.png" width="11px" height="12px" preserveAspectRatio="xMinYMin meet" x="1112.5" y="-463.2"/>
<text text-anchor="start" x="1127.5" y="-448.8" font-family="Helvetica,sans-Serif" font-size="16.00" fill="#000000">feature_class</text>
<polygon fill="none" stroke="#000000" points="1384.5,-444.7 1384.5,-469.7 1566.5,-469.7 1566.5,-444.7 1384.5,-444.7"/>
<text text-anchor="start" x="1387.5" y="-452.3" font-family="Helvetica,sans-Serif" font-size="16.00" fill="#000000">text[2000000000]</text>
<polygon fill="#ffffff" stroke="transparent" points="1107.5,-419.7 1107.5,-444.7 1384.5,-444.7 1384.5,-419.7 1107.5,-419.7"/>
<polygon fill="none" stroke="#000000" points="1107.5,-419.7 1107.5,-444.7 1384.5,-444.7 1384.5,-419.7 1107.5,-419.7"/>
<image xlink:href="../../images/foreignKeys.png" width="11px" height="12px" preserveAspectRatio="xMinYMin meet" x="1112.5" y="-438.2"/>
<text text-anchor="start" x="1127.5" y="-423.8" font-family="Helvetica,sans-Serif" font-size="16.00" fill="#000000">feature_code</text>
<polygon fill="none" stroke="#000000" points="1384.5,-419.7 1384.5,-444.7 1566.5,-444.7 1566.5,-419.7 1384.5,-419.7"/>
<text text-anchor="start" x="1387.5" y="-427.3" font-family="Helvetica,sans-Serif" font-size="16.00" fill="#000000">text[2000000000]</text>
<polygon fill="#ffffff" stroke="transparent" points="1107.5,-394.7 1107.5,-419.7 1384.5,-419.7 1384.5,-394.7 1107.5,-394.7"/>
<polygon fill="none" stroke="#000000" points="1107.5,-394.7 1107.5,-419.7 1384.5,-419.7 1384.5,-394.7 1107.5,-394.7"/>
<image xlink:href="../../images/foreignKeys.png" width="11px" height="12px" preserveAspectRatio="xMinYMin meet" x="1112.5" y="-413.2"/>
<text text-anchor="start" x="1127.5" y="-398.8" font-family="Helvetica,sans-Serif" font-size="16.00" fill="#000000">country_code</text>
<polygon fill="none" stroke="#000000" points="1384.5,-394.7 1384.5,-419.7 1566.5,-419.7 1566.5,-394.7 1384.5,-394.7"/>
<text text-anchor="start" x="1387.5" y="-402.3" font-family="Helvetica,sans-Serif" font-size="16.00" fill="#000000">text[2000000000]</text>
<polygon fill="none" stroke="#000000" points="1107.5,-369.7 1107.5,-394.7 1384.5,-394.7 1384.5,-369.7 1107.5,-369.7"/>
<text text-anchor="start" x="1127.5" y="-373.8" font-family="Helvetica,sans-Serif" font-size="16.00" fill="#000000">cc2</text>
<polygon fill="none" stroke="#000000" points="1384.5,-369.7 1384.5,-394.7 1566.5,-394.7 1566.5,-369.7 1384.5,-369.7"/>
<text text-anchor="start" x="1387.5" y="-377.3" font-family="Helvetica,sans-Serif" font-size="16.00" fill="#000000">text[2000000000]</text>
<polygon fill="#ffffff" stroke="transparent" points="1107.5,-344.7 1107.5,-369.7 1384.5,-369.7 1384.5,-344.7 1107.5,-344.7"/>
<polygon fill="none" stroke="#000000" points="1107.5,-344.7 1107.5,-369.7 1384.5,-369.7 1384.5,-344.7 1107.5,-344.7"/>
<image xlink:href="../../images/foreignKeys.png" width="11px" height="12px" preserveAspectRatio="xMinYMin meet" x="1112.5" y="-363.2"/>
<text text-anchor="start" x="1127.5" y="-348.8" font-family="Helvetica,sans-Serif" font-size="16.00" fill="#000000">administrative_division_1_code</text>
<polygon fill="none" stroke="#000000" points="1384.5,-344.7 1384.5,-369.7 1566.5,-369.7 1566.5,-344.7 1384.5,-344.7"/>
<text text-anchor="start" x="1387.5" y="-352.3" font-family="Helvetica,sans-Serif" font-size="16.00" fill="#000000">text[2000000000]</text>
<polygon fill="#ffffff" stroke="transparent" points="1107.5,-319.7 1107.5,-344.7 1384.5,-344.7 1384.5,-319.7 1107.5,-319.7"/>
<polygon fill="none" stroke="#000000" points="1107.5,-319.7 1107.5,-344.7 1384.5,-344.7 1384.5,-319.7 1107.5,-319.7"/>
<image xlink:href="../../images/foreignKeys.png" width="11px" height="12px" preserveAspectRatio="xMinYMin meet" x="1112.5" y="-338.2"/>
<text text-anchor="start" x="1127.5" y="-323.8" font-family="Helvetica,sans-Serif" font-size="16.00" fill="#000000">administrative_division_2_code</text>
<polygon fill="none" stroke="#000000" points="1384.5,-319.7 1384.5,-344.7 1566.5,-344.7 1566.5,-319.7 1384.5,-319.7"/>
<text text-anchor="start" x="1387.5" y="-327.3" font-family="Helvetica,sans-Serif" font-size="16.00" fill="#000000">text[2000000000]</text>
<polygon fill="none" stroke="#000000" points="1107.5,-294.7 1107.5,-319.7 1384.5,-319.7 1384.5,-294.7 1107.5,-294.7"/>
<text text-anchor="start" x="1127.5" y="-298.8" font-family="Helvetica,sans-Serif" font-size="16.00" fill="#000000">administrative_division_3_code</text>
<polygon fill="none" stroke="#000000" points="1384.5,-294.7 1384.5,-319.7 1566.5,-319.7 1566.5,-294.7 1384.5,-294.7"/>
<text text-anchor="start" x="1387.5" y="-302.3" font-family="Helvetica,sans-Serif" font-size="16.00" fill="#000000">text[2000000000]</text>
<polygon fill="none" stroke="#000000" points="1107.5,-269.7 1107.5,-294.7 1384.5,-294.7 1384.5,-269.7 1107.5,-269.7"/>
<text text-anchor="start" x="1127.5" y="-273.8" font-family="Helvetica,sans-Serif" font-size="16.00" fill="#000000">administrative_division_4_code</text>
<polygon fill="none" stroke="#000000" points="1384.5,-269.7 1384.5,-294.7 1566.5,-294.7 1566.5,-269.7 1384.5,-269.7"/>
<text text-anchor="start" x="1387.5" y="-277.3" font-family="Helvetica,sans-Serif" font-size="16.00" fill="#000000">text[2000000000]</text>
<polygon fill="#ffffff" stroke="transparent" points="1107.5,-244.7 1107.5,-269.7 1384.5,-269.7 1384.5,-244.7 1107.5,-244.7"/>
<polygon fill="none" stroke="#000000" points="1107.5,-244.7 1107.5,-269.7 1384.5,-269.7 1384.5,-244.7 1107.5,-244.7"/>
<text text-anchor="start" x="1127.5" y="-248.8" font-family="Helvetica,sans-Serif" font-size="16.00" fill="#000000">population</text>
<polygon fill="none" stroke="#000000" points="1384.5,-244.7 1384.5,-269.7 1566.5,-269.7 1566.5,-244.7 1384.5,-244.7"/>
<text text-anchor="start" x="1387.5" y="-252.3" font-family="Helvetica,sans-Serif" font-size="16.00" fill="#000000">integer[2000000000]</text>
<polygon fill="none" stroke="#000000" points="1107.5,-219.7 1107.5,-244.7 1384.5,-244.7 1384.5,-219.7 1107.5,-219.7"/>
<text text-anchor="start" x="1127.5" y="-223.8" font-family="Helvetica,sans-Serif" font-size="16.00" fill="#000000">elevation</text>
<polygon fill="none" stroke="#000000" points="1384.5,-219.7 1384.5,-244.7 1566.5,-244.7 1566.5,-219.7 1384.5,-219.7"/>
<text text-anchor="start" x="1387.5" y="-227.3" font-family="Helvetica,sans-Serif" font-size="16.00" fill="#000000">integer[2000000000]</text>
<polygon fill="none" stroke="#000000" points="1107.5,-194.7 1107.5,-219.7 1384.5,-219.7 1384.5,-194.7 1107.5,-194.7"/>
<text text-anchor="start" x="1127.5" y="-198.8" font-family="Helvetica,sans-Serif" font-size="16.00" fill="#000000">dem</text>
<polygon fill="none" stroke="#000000" points="1384.5,-194.7 1384.5,-219.7 1566.5,-219.7 1566.5,-194.7 1384.5,-194.7"/>
<text text-anchor="start" x="1387.5" y="-202.3" font-family="Helvetica,sans-Serif" font-size="16.00" fill="#000000">integer[2000000000]</text>
<polygon fill="#ffffff" stroke="transparent" points="1107.5,-169.7 1107.5,-194.7 1384.5,-194.7 1384.5,-169.7 1107.5,-169.7"/>
<polygon fill="none" stroke="#000000" points="1107.5,-169.7 1107.5,-194.7 1384.5,-194.7 1384.5,-169.7 1107.5,-169.7"/>
<text text-anchor="start" x="1127.5" y="-173.8" font-family="Helvetica,sans-Serif" font-size="16.00" fill="#000000">timezone</text>
<polygon fill="none" stroke="#000000" points="1384.5,-169.7 1384.5,-194.7 1566.5,-194.7 1566.5,-169.7 1384.5,-169.7"/>
<text text-anchor="start" x="1387.5" y="-177.3" font-family="Helvetica,sans-Serif" font-size="16.00" fill="#000000">text[2000000000]</text>
<polygon fill="none" stroke="#000000" points="1107.5,-144.7 1107.5,-169.7 1384.5,-169.7 1384.5,-144.7 1107.5,-144.7"/>
<text text-anchor="start" x="1127.5" y="-148.8" font-family="Helvetica,sans-Serif" font-size="16.00" fill="#000000">modification_date</text>
<polygon fill="none" stroke="#000000" points="1384.5,-144.7 1384.5,-169.7 1566.5,-169.7 1566.5,-144.7 1384.5,-144.7"/>
<text text-anchor="start" x="1387.5" y="-152.3" font-family="Helvetica,sans-Serif" font-size="16.00" fill="#000000">text[2000000000]</text>
<polygon fill="none" stroke="#000000" points="1107.5,-119.7 1107.5,-144.7 1384.5,-144.7 1384.5,-119.7 1107.5,-119.7"/>
<text text-anchor="start" x="1127.5" y="-123.8" font-family="Helvetica,sans-Serif" font-size="16.00" fill="#000000">inserted_at</text>
<polygon fill="none" stroke="#000000" points="1384.5,-119.7 1384.5,-144.7 1566.5,-144.7 1566.5,-119.7 1384.5,-119.7"/>
<text text-anchor="start" x="1387.5" y="-127.3" font-family="Helvetica,sans-Serif" font-size="16.00" fill="#000000">text[2000000000]</text>
<polygon fill="none" stroke="#000000" points="1107.5,-94.7 1107.5,-119.7 1384.5,-119.7 1384.5,-94.7 1107.5,-94.7"/>
<text text-anchor="start" x="1127.5" y="-98.8" font-family="Helvetica,sans-Serif" font-size="16.00" fill="#000000">updated_at</text>
<polygon fill="none" stroke="#000000" points="1384.5,-94.7 1384.5,-119.7 1566.5,-119.7 1566.5,-94.7 1384.5,-94.7"/>
<text text-anchor="start" x="1387.5" y="-102.3" font-family="Helvetica,sans-Serif" font-size="16.00" fill="#000000">text[2000000000]</text>
<polygon fill="#ffffff" stroke="transparent" points="1107.5,-69.7 1107.5,-94.7 1208.5,-94.7 1208.5,-69.7 1107.5,-69.7"/>
<polygon fill="none" stroke="#000000" points="1107.5,-69.7 1107.5,-94.7 1208.5,-94.7 1208.5,-69.7 1107.5,-69.7"/>
<text text-anchor="start" x="1110.5" y="-77.3" font-family="Helvetica,sans-Serif" font-size="16.00" fill="#000000">&lt; 5</text>
<polygon fill="#ffffff" stroke="transparent" points="1208.5,-69.7 1208.5,-94.7 1384.5,-94.7 1384.5,-69.7 1208.5,-69.7"/>
<polygon fill="none" stroke="#000000" points="1208.5,-69.7 1208.5,-94.7 1384.5,-94.7 1384.5,-69.7 1208.5,-69.7"/>
<text text-anchor="start" x="1285.4696" y="-77.3" font-family="Helvetica,sans-Serif" font-size="16.00" fill="#000000">210,698 rows</text>
<polygon fill="#ffffff" stroke="transparent" points="1384.5,-69.7 1384.5,-94.7 1566.5,-94.7 1566.5,-69.7 1384.5,-69.7"/>
<polygon fill="none" stroke="#000000" points="1384.5,-69.7 1384.5,-94.7 1566.5,-94.7 1566.5,-69.7 1384.5,-69.7"/>
<text text-anchor="start" x="1540.8168" y="-77.3" font-family="Helvetica,sans-Serif" font-size="16.00" fill="#000000">1 &gt;</text>
<polygon fill="none" stroke="#000000" stroke-width="2" points="1106,-68.7 1106,-674.7 1567,-674.7 1567,-68.7 1106,-68.7"/>
</a>
</g>
</g>
<!-- journal_entries&#45;&gt;locations_cities -->
<g id="edge1" class="edge">
<title>journal_entries:w&#45;&gt;locations_cities:e</title>
<path fill="none" stroke="#000000" d="M1602.4203,-632.7C1590.5435,-632.7 1583.158,-632.7 1566.5,-632.7"/>
<polygon fill="#000000" stroke="#000000" points="1609,-632.7001 1617,-636.3 1613,-632.7 1617,-632.7 1617,-632.7 1617,-632.7 1613,-632.7 1617,-629.1 1609,-632.7001 1609,-632.7001"/>
<ellipse fill="none" stroke="#000000" cx="1605.8" cy="-632.7001" rx="3.2" ry="3.2"/>
</g>
<!-- locations_administrative_divisions_1 -->
<g id="node3" class="node">
<title>locations_administrative_divisions_1</title>
<g id="a_node3"><a xlink:href="../../tables/locations_administrative_divisions_1.html" xlink:title="locations_administrative_divisions_1" target="_top">
<polygon fill="#ffffff" stroke="transparent" points="299,-182.2 299,-371.2 653,-371.2 653,-182.2 299,-182.2"/>
<polygon fill="#f5f5f5" stroke="transparent" points="299,-341.7 299,-370.7 653,-370.7 653,-341.7 299,-341.7"/>
<polygon fill="none" stroke="#000000" points="299,-341.7 299,-370.7 653,-370.7 653,-341.7 299,-341.7"/>
<text text-anchor="start" x="304" y="-348.8" font-family="Helvetica,sans-Serif" font-weight="bold" font-size="16.00" fill="#000000">locations_administrative_divisions_1</text>
<text text-anchor="start" x="604.7136" y="-351.3" font-family="Helvetica,sans-Serif" font-size="16.00" fill="#000000">[table]</text>
<polygon fill="none" stroke="#000000" points="299,-319.7 299,-341.7 653,-341.7 653,-319.7 299,-319.7"/>
<image xlink:href="../../images/primaryKeys.png" width="11px" height="12px" preserveAspectRatio="xMinYMin meet" x="304" y="-336.7"/>
<text text-anchor="start" x="332" y="-322.3" font-family="Helvetica,sans-Serif" font-size="16.00" fill="#000000">administrative_division_1_code</text>
<polygon fill="#ffffff" stroke="transparent" points="299,-297.7 299,-319.7 653,-319.7 653,-297.7 299,-297.7"/>
<polygon fill="none" stroke="#000000" points="299,-297.7 299,-319.7 653,-319.7 653,-297.7 299,-297.7"/>
<image xlink:href="../../images/foreignKeys.png" width="11px" height="12px" preserveAspectRatio="xMinYMin meet" x="304" y="-314.7"/>
<text text-anchor="start" x="332" y="-300.3" font-family="Helvetica,sans-Serif" font-size="16.00" fill="#000000">country_code</text>
<polygon fill="#ffffff" stroke="transparent" points="299,-275.7 299,-297.7 653,-297.7 653,-275.7 299,-275.7"/>
<polygon fill="none" stroke="#000000" points="299,-275.7 299,-297.7 653,-297.7 653,-275.7 299,-275.7"/>
<text text-anchor="start" x="332" y="-278.3" font-family="Helvetica,sans-Serif" font-size="16.00" fill="#000000">administrative_division_1_name</text>
<polygon fill="#ffffff" stroke="transparent" points="299,-253.7 299,-275.7 653,-275.7 653,-253.7 299,-253.7"/>
<polygon fill="none" stroke="#000000" points="299,-253.7 299,-275.7 653,-275.7 653,-253.7 299,-253.7"/>
<text text-anchor="start" x="332" y="-256.3" font-family="Helvetica,sans-Serif" font-size="16.00" fill="#000000">administrative_division_1_ascii_name</text>
<polygon fill="#ffffff" stroke="transparent" points="299,-231.7 299,-253.7 653,-253.7 653,-231.7 299,-231.7"/>
<polygon fill="none" stroke="#000000" points="299,-231.7 299,-253.7 653,-253.7 653,-231.7 299,-231.7"/>
<text text-anchor="start" x="332" y="-234.3" font-family="Helvetica,sans-Serif" font-size="16.00" fill="#000000">geoname_id</text>
<polygon fill="none" stroke="#000000" points="299,-206.7 299,-231.7 653,-231.7 653,-206.7 299,-206.7"/>
<text text-anchor="start" x="302" y="-214.3" font-family="Helvetica,sans-Serif" font-size="16.00" fill="#000000">...</text>
<polygon fill="#ffffff" stroke="transparent" points="299,-181.7 299,-206.7 434,-206.7 434,-181.7 299,-181.7"/>
<polygon fill="none" stroke="#000000" points="299,-181.7 299,-206.7 434,-206.7 434,-181.7 299,-181.7"/>
<text text-anchor="start" x="302" y="-189.3" font-family="Helvetica,sans-Serif" font-size="16.00" fill="#000000">&lt; 1</text>
<polygon fill="#ffffff" stroke="transparent" points="434,-181.7 434,-206.7 571,-206.7 571,-181.7 434,-181.7"/>
<polygon fill="none" stroke="#000000" points="434,-181.7 434,-206.7 571,-206.7 571,-181.7 434,-181.7"/>
<text text-anchor="start" x="489.7584" y="-189.3" font-family="Helvetica,sans-Serif" font-size="16.00" fill="#000000">3,893 rows</text>
<polygon fill="#ffffff" stroke="transparent" points="571,-181.7 571,-206.7 653,-206.7 653,-181.7 571,-181.7"/>
<polygon fill="none" stroke="#000000" points="571,-181.7 571,-206.7 653,-206.7 653,-181.7 571,-181.7"/>
<text text-anchor="start" x="627.3168" y="-189.3" font-family="Helvetica,sans-Serif" font-size="16.00" fill="#000000">2 &gt;</text>
</a>
</g>
</g>
<!-- locations_cities&#45;&gt;locations_administrative_divisions_1 -->
<g id="edge5" class="edge">
<title>locations_cities:w&#45;&gt;locations_administrative_divisions_1:e</title>
<path fill="none" stroke="#000000" d="M1092.9739,-356.7317C920.9392,-357.4826 870.6795,-371.0833 694,-342.7 675.2537,-339.6884 671.9867,-330.7 653,-330.7"/>
<polygon fill="#000000" stroke="#000000" points="1099.5,-356.7175 1107.5079,-360.3 1103.5,-356.7087 1107.5,-356.7 1107.5,-356.7 1107.5,-356.7 1103.5,-356.7087 1107.4921,-353.1 1099.5,-356.7175 1099.5,-356.7175"/>
<ellipse fill="none" stroke="#000000" cx="1096.3" cy="-356.7245" rx="3.2" ry="3.2"/>
</g>
<!-- locations_countries -->
<g id="node4" class="node">
<title>locations_countries</title>
<g id="a_node4"><a xlink:href="../../tables/locations_countries.html" xlink:title="locations_countries" target="_top">
<polygon fill="#ffffff" stroke="transparent" points="8,-50.2 8,-349.2 250,-349.2 250,-50.2 8,-50.2"/>
<polygon fill="#f5f5f5" stroke="transparent" points="8,-319.7 8,-348.7 250,-348.7 250,-319.7 8,-319.7"/>
<polygon fill="none" stroke="#000000" points="8,-319.7 8,-348.7 250,-348.7 250,-319.7 8,-319.7"/>
<text text-anchor="start" x="13" y="-326.8" font-family="Helvetica,sans-Serif" font-weight="bold" font-size="16.00" fill="#000000">locations_countries</text>
<text text-anchor="start" x="201.4272" y="-329.3" font-family="Helvetica,sans-Serif" font-size="16.00" fill="#000000">[table]</text>
<polygon fill="none" stroke="#000000" points="8,-297.7 8,-319.7 250,-319.7 250,-297.7 8,-297.7"/>
<image xlink:href="../../images/primaryKeys.png" width="11px" height="12px" preserveAspectRatio="xMinYMin meet" x="13" y="-314.7"/>
<text text-anchor="start" x="28" y="-300.3" font-family="Helvetica,sans-Serif" font-size="16.00" fill="#000000">iso_country_code</text>
<polygon fill="#ffffff" stroke="transparent" points="8,-275.7 8,-297.7 250,-297.7 250,-275.7 8,-275.7"/>
<polygon fill="none" stroke="#000000" points="8,-275.7 8,-297.7 250,-297.7 250,-275.7 8,-275.7"/>
<text text-anchor="start" x="28" y="-278.3" font-family="Helvetica,sans-Serif" font-size="16.00" fill="#000000">iso_3_country_code</text>
<polygon fill="#ffffff" stroke="transparent" points="8,-253.7 8,-275.7 250,-275.7 250,-253.7 8,-253.7"/>
<polygon fill="none" stroke="#000000" points="8,-253.7 8,-275.7 250,-275.7 250,-253.7 8,-253.7"/>
<text text-anchor="start" x="28" y="-256.3" font-family="Helvetica,sans-Serif" font-size="16.00" fill="#000000">iso_numeric_country_code</text>
<polygon fill="#ffffff" stroke="transparent" points="8,-231.7 8,-253.7 250,-253.7 250,-231.7 8,-231.7"/>
<polygon fill="none" stroke="#000000" points="8,-231.7 8,-253.7 250,-253.7 250,-231.7 8,-231.7"/>
<text text-anchor="start" x="28" y="-234.3" font-family="Helvetica,sans-Serif" font-size="16.00" fill="#000000">country_name</text>
<polygon fill="#ffffff" stroke="transparent" points="8,-209.7 8,-231.7 250,-231.7 250,-209.7 8,-209.7"/>
<polygon fill="none" stroke="#000000" points="8,-209.7 8,-231.7 250,-231.7 250,-209.7 8,-209.7"/>
<text text-anchor="start" x="28" y="-212.3" font-family="Helvetica,sans-Serif" font-size="16.00" fill="#000000">area</text>
<polygon fill="#ffffff" stroke="transparent" points="8,-187.7 8,-209.7 250,-209.7 250,-187.7 8,-187.7"/>
<polygon fill="none" stroke="#000000" points="8,-187.7 8,-209.7 250,-209.7 250,-187.7 8,-187.7"/>
<text text-anchor="start" x="28" y="-190.3" font-family="Helvetica,sans-Serif" font-size="16.00" fill="#000000">population</text>
<polygon fill="#ffffff" stroke="transparent" points="8,-165.7 8,-187.7 250,-187.7 250,-165.7 8,-165.7"/>
<polygon fill="none" stroke="#000000" points="8,-165.7 8,-187.7 250,-187.7 250,-165.7 8,-165.7"/>
<image xlink:href="../../images/foreignKeys.png" width="11px" height="12px" preserveAspectRatio="xMinYMin meet" x="13" y="-182.7"/>
<text text-anchor="start" x="28" y="-168.3" font-family="Helvetica,sans-Serif" font-size="16.00" fill="#000000">continent_code</text>
<polygon fill="#ffffff" stroke="transparent" points="8,-143.7 8,-165.7 250,-165.7 250,-143.7 8,-143.7"/>
<polygon fill="none" stroke="#000000" points="8,-143.7 8,-165.7 250,-165.7 250,-143.7 8,-143.7"/>
<text text-anchor="start" x="28" y="-146.3" font-family="Helvetica,sans-Serif" font-size="16.00" fill="#000000">tld</text>
<polygon fill="#ffffff" stroke="transparent" points="8,-121.7 8,-143.7 250,-143.7 250,-121.7 8,-121.7"/>
<polygon fill="none" stroke="#000000" points="8,-121.7 8,-143.7 250,-143.7 250,-121.7 8,-121.7"/>
<text text-anchor="start" x="28" y="-124.3" font-family="Helvetica,sans-Serif" font-size="16.00" fill="#000000">currency_code</text>
<polygon fill="#ffffff" stroke="transparent" points="8,-99.7 8,-121.7 250,-121.7 250,-99.7 8,-99.7"/>
<polygon fill="none" stroke="#000000" points="8,-99.7 8,-121.7 250,-121.7 250,-99.7 8,-99.7"/>
<text text-anchor="start" x="28" y="-102.3" font-family="Helvetica,sans-Serif" font-size="16.00" fill="#000000">geoname_id</text>
<polygon fill="none" stroke="#000000" points="8,-74.7 8,-99.7 250,-99.7 250,-74.7 8,-74.7"/>
<text text-anchor="start" x="11" y="-82.3" font-family="Helvetica,sans-Serif" font-size="16.00" fill="#000000">...</text>
<polygon fill="#ffffff" stroke="transparent" points="8,-49.7 8,-74.7 94,-74.7 94,-49.7 8,-49.7"/>
<polygon fill="none" stroke="#000000" points="8,-49.7 8,-74.7 94,-74.7 94,-49.7 8,-49.7"/>
<text text-anchor="start" x="11" y="-57.3" font-family="Helvetica,sans-Serif" font-size="16.00" fill="#000000">&lt; 1</text>
<polygon fill="#ffffff" stroke="transparent" points="94,-49.7 94,-74.7 193,-74.7 193,-49.7 94,-49.7"/>
<polygon fill="none" stroke="#000000" points="94,-49.7 94,-74.7 193,-74.7 193,-49.7 94,-49.7"/>
<text text-anchor="start" x="125.0992" y="-57.3" font-family="Helvetica,sans-Serif" font-size="16.00" fill="#000000">252 rows</text>
<polygon fill="#ffffff" stroke="transparent" points="193,-49.7 193,-74.7 250,-74.7 250,-49.7 193,-49.7"/>
<polygon fill="none" stroke="#000000" points="193,-49.7 193,-74.7 250,-74.7 250,-49.7 193,-49.7"/>
<text text-anchor="start" x="224.3168" y="-57.3" font-family="Helvetica,sans-Serif" font-size="16.00" fill="#000000">3 &gt;</text>
</a>
</g>
</g>
<!-- locations_cities&#45;&gt;locations_countries -->
<g id="edge7" class="edge">
<title>locations_cities:w&#45;&gt;locations_countries:e</title>
<path fill="none" stroke="#000000" d="M1093.078,-407.672C980.0301,-407.3471 327.5632,-403.8886 291,-381.7 259.1881,-362.3948 287.2114,-308.7 250,-308.7"/>
<polygon fill="#000000" stroke="#000000" points="1099.5,-407.6844 1107.493,-411.3 1103.5,-407.6922 1107.5,-407.7 1107.5,-407.7 1107.5,-407.7 1103.5,-407.6922 1107.507,-404.1 1099.5,-407.6844 1099.5,-407.6844"/>
<ellipse fill="none" stroke="#000000" cx="1096.3" cy="-407.6782" rx="3.2" ry="3.2"/>
</g>
<!-- locations_administrative_divisions_2 -->
<g id="node5" class="node">
<title>locations_administrative_divisions_2</title>
<g id="a_node5"><a xlink:href="../../tables/locations_administrative_divisions_2.html" xlink:title="locations_administrative_divisions_2" target="_top">
<polygon fill="#ffffff" stroke="transparent" points="702,-121.2 702,-332.2 1056,-332.2 1056,-121.2 702,-121.2"/>
<polygon fill="#f5f5f5" stroke="transparent" points="702,-302.7 702,-331.7 1056,-331.7 1056,-302.7 702,-302.7"/>
<polygon fill="none" stroke="#000000" points="702,-302.7 702,-331.7 1056,-331.7 1056,-302.7 702,-302.7"/>
<text text-anchor="start" x="707" y="-309.8" font-family="Helvetica,sans-Serif" font-weight="bold" font-size="16.00" fill="#000000">locations_administrative_divisions_2</text>
<text text-anchor="start" x="1007.7136" y="-312.3" font-family="Helvetica,sans-Serif" font-size="16.00" fill="#000000">[table]</text>
<polygon fill="none" stroke="#000000" points="702,-280.7 702,-302.7 1056,-302.7 1056,-280.7 702,-280.7"/>
<image xlink:href="../../images/primaryKeys.png" width="11px" height="12px" preserveAspectRatio="xMinYMin meet" x="707" y="-297.7"/>
<text text-anchor="start" x="735" y="-283.3" font-family="Helvetica,sans-Serif" font-size="16.00" fill="#000000">administrative_division_2_code</text>
<polygon fill="#ffffff" stroke="transparent" points="702,-258.7 702,-280.7 1056,-280.7 1056,-258.7 702,-258.7"/>
<polygon fill="none" stroke="#000000" points="702,-258.7 702,-280.7 1056,-280.7 1056,-258.7 702,-258.7"/>
<image xlink:href="../../images/foreignKeys.png" width="11px" height="12px" preserveAspectRatio="xMinYMin meet" x="707" y="-275.7"/>
<text text-anchor="start" x="735" y="-261.3" font-family="Helvetica,sans-Serif" font-size="16.00" fill="#000000">administrative_division_1_code</text>
<polygon fill="#ffffff" stroke="transparent" points="702,-236.7 702,-258.7 1056,-258.7 1056,-236.7 702,-236.7"/>
<polygon fill="none" stroke="#000000" points="702,-236.7 702,-258.7 1056,-258.7 1056,-236.7 702,-236.7"/>
<image xlink:href="../../images/foreignKeys.png" width="11px" height="12px" preserveAspectRatio="xMinYMin meet" x="707" y="-253.7"/>
<text text-anchor="start" x="735" y="-239.3" font-family="Helvetica,sans-Serif" font-size="16.00" fill="#000000">country_code</text>
<polygon fill="#ffffff" stroke="transparent" points="702,-214.7 702,-236.7 1056,-236.7 1056,-214.7 702,-214.7"/>
<polygon fill="none" stroke="#000000" points="702,-214.7 702,-236.7 1056,-236.7 1056,-214.7 702,-214.7"/>
<text text-anchor="start" x="735" y="-217.3" font-family="Helvetica,sans-Serif" font-size="16.00" fill="#000000">administrative_division_2_name</text>
<polygon fill="#ffffff" stroke="transparent" points="702,-192.7 702,-214.7 1056,-214.7 1056,-192.7 702,-192.7"/>
<polygon fill="none" stroke="#000000" points="702,-192.7 702,-214.7 1056,-214.7 1056,-192.7 702,-192.7"/>
<text text-anchor="start" x="735" y="-195.3" font-family="Helvetica,sans-Serif" font-size="16.00" fill="#000000">administrative_division_2_ascii_name</text>
<polygon fill="#ffffff" stroke="transparent" points="702,-170.7 702,-192.7 1056,-192.7 1056,-170.7 702,-170.7"/>
<polygon fill="none" stroke="#000000" points="702,-170.7 702,-192.7 1056,-192.7 1056,-170.7 702,-170.7"/>
<text text-anchor="start" x="735" y="-173.3" font-family="Helvetica,sans-Serif" font-size="16.00" fill="#000000">geoname_id</text>
<polygon fill="none" stroke="#000000" points="702,-145.7 702,-170.7 1056,-170.7 1056,-145.7 702,-145.7"/>
<text text-anchor="start" x="705" y="-153.3" font-family="Helvetica,sans-Serif" font-size="16.00" fill="#000000">...</text>
<polygon fill="#ffffff" stroke="transparent" points="702,-120.7 702,-145.7 832,-145.7 832,-120.7 702,-120.7"/>
<polygon fill="none" stroke="#000000" points="702,-120.7 702,-145.7 832,-145.7 832,-120.7 702,-120.7"/>
<text text-anchor="start" x="705" y="-128.3" font-family="Helvetica,sans-Serif" font-size="16.00" fill="#000000">&lt; 2</text>
<polygon fill="#ffffff" stroke="transparent" points="832,-120.7 832,-145.7 976,-145.7 976,-120.7 832,-120.7"/>
<polygon fill="none" stroke="#000000" points="832,-120.7 832,-145.7 976,-145.7 976,-120.7 832,-120.7"/>
<text text-anchor="start" x="885.864" y="-128.3" font-family="Helvetica,sans-Serif" font-size="16.00" fill="#000000">47,229 rows</text>
<polygon fill="#ffffff" stroke="transparent" points="976,-120.7 976,-145.7 1056,-145.7 1056,-120.7 976,-120.7"/>
<polygon fill="none" stroke="#000000" points="976,-120.7 976,-145.7 1056,-145.7 1056,-120.7 976,-120.7"/>
<text text-anchor="start" x="1030.3168" y="-128.3" font-family="Helvetica,sans-Serif" font-size="16.00" fill="#000000">1 &gt;</text>
</a>
</g>
</g>
<!-- locations_cities&#45;&gt;locations_administrative_divisions_2 -->
<g id="edge6" class="edge">
<title>locations_cities:w&#45;&gt;locations_administrative_divisions_2:e</title>
<path fill="none" stroke="#000000" stroke-dasharray="5,2" d="M1093.6325,-327.4193C1079.6815,-317.1004 1079.095,-291.7 1056,-291.7"/>
<polygon fill="#000000" stroke="#000000" points="1099.8559,-329.3403 1106.4382,-335.1398 1103.678,-330.5202 1107.5,-331.7 1107.5,-331.7 1107.5,-331.7 1103.678,-330.5202 1108.5618,-328.2602 1099.8559,-329.3403 1099.8559,-329.3403"/>
<ellipse fill="none" stroke="#000000" cx="1096.7983" cy="-328.3965" rx="3.2" ry="3.2"/>
</g>
<!-- locations_feature_classes -->
<g id="node6" class="node">
<title>locations_feature_classes</title>
<g id="a_node6"><a xlink:href="../../tables/locations_feature_classes.html" xlink:title="locations_feature_classes" target="_top">
<polygon fill="#ffffff" stroke="transparent" points="344,-485.2 344,-586.2 608,-586.2 608,-485.2 344,-485.2"/>
<polygon fill="#f5f5f5" stroke="transparent" points="344,-556.7 344,-585.7 608,-585.7 608,-556.7 344,-556.7"/>
<polygon fill="none" stroke="#000000" points="344,-556.7 344,-585.7 608,-585.7 608,-556.7 344,-556.7"/>
<text text-anchor="start" x="349" y="-563.8" font-family="Helvetica,sans-Serif" font-weight="bold" font-size="16.00" fill="#000000">locations_feature_classes</text>
<text text-anchor="start" x="559.7136" y="-566.3" font-family="Helvetica,sans-Serif" font-size="16.00" fill="#000000">[table]</text>
<polygon fill="none" stroke="#000000" points="344,-534.7 344,-556.7 608,-556.7 608,-534.7 344,-534.7"/>
<image xlink:href="../../images/primaryKeys.png" width="11px" height="12px" preserveAspectRatio="xMinYMin meet" x="349" y="-551.7"/>
<text text-anchor="start" x="380" y="-537.3" font-family="Helvetica,sans-Serif" font-size="16.00" fill="#000000">feature_class</text>
<polygon fill="none" stroke="#000000" points="344,-509.7 344,-534.7 608,-534.7 608,-509.7 344,-509.7"/>
<text text-anchor="start" x="347" y="-517.3" font-family="Helvetica,sans-Serif" font-size="16.00" fill="#000000">...</text>
<polygon fill="#ffffff" stroke="transparent" points="344,-484.7 344,-509.7 442,-509.7 442,-484.7 344,-484.7"/>
<polygon fill="none" stroke="#000000" points="344,-484.7 344,-509.7 442,-509.7 442,-484.7 344,-484.7"/>
<text text-anchor="start" x="347" y="-492.3" font-family="Helvetica,sans-Serif" font-size="16.00" fill="#000000"> &#160;</text>
<polygon fill="#ffffff" stroke="transparent" points="442,-484.7 442,-509.7 537,-509.7 537,-484.7 442,-484.7"/>
<polygon fill="none" stroke="#000000" points="442,-484.7 442,-509.7 537,-509.7 537,-484.7 442,-484.7"/>
<text text-anchor="start" x="486.888" y="-492.3" font-family="Helvetica,sans-Serif" font-size="16.00" fill="#000000">9 rows</text>
<polygon fill="#ffffff" stroke="transparent" points="537,-484.7 537,-509.7 608,-509.7 608,-484.7 537,-484.7"/>
<polygon fill="none" stroke="#000000" points="537,-484.7 537,-509.7 608,-509.7 608,-484.7 537,-484.7"/>
<text text-anchor="start" x="582.3168" y="-492.3" font-family="Helvetica,sans-Serif" font-size="16.00" fill="#000000">2 &gt;</text>
</a>
</g>
</g>
<!-- locations_cities&#45;&gt;locations_feature_classes -->
<g id="edge8" class="edge">
<title>locations_cities:w&#45;&gt;locations_feature_classes:e</title>
<path fill="none" stroke="#000000" d="M1092.9704,-460.6044C1063.1016,-475.8733 1104.837,-547.2308 1064,-575.7 929.1009,-669.7437 856.1342,-603.1676 694,-575.7 654.0876,-568.9383 648.4811,-545.7 608,-545.7"/>
<polygon fill="#000000" stroke="#000000" points="1099.6552,-459.2682 1108.2057,-461.2302 1103.5776,-458.4841 1107.5,-457.7 1107.5,-457.7 1107.5,-457.7 1103.5776,-458.4841 1106.7943,-454.1698 1099.6552,-459.2682 1099.6552,-459.2682"/>
<ellipse fill="none" stroke="#000000" cx="1096.5173" cy="-459.8954" rx="3.2" ry="3.2"/>
</g>
<!-- locations_feature_codes -->
<g id="node7" class="node">
<title>locations_feature_codes</title>
<g id="a_node7"><a xlink:href="../../tables/locations_feature_codes.html" xlink:title="locations_feature_codes" target="_top">
<polygon fill="#ffffff" stroke="transparent" points="753,-420.2 753,-565.2 1005,-565.2 1005,-420.2 753,-420.2"/>
<polygon fill="#f5f5f5" stroke="transparent" points="753,-535.7 753,-564.7 1005,-564.7 1005,-535.7 753,-535.7"/>
<polygon fill="none" stroke="#000000" points="753,-535.7 753,-564.7 1005,-564.7 1005,-535.7 753,-535.7"/>
<text text-anchor="start" x="758" y="-542.8" font-family="Helvetica,sans-Serif" font-weight="bold" font-size="16.00" fill="#000000">locations_feature_codes</text>
<text text-anchor="start" x="956.7136" y="-545.3" font-family="Helvetica,sans-Serif" font-size="16.00" fill="#000000">[table]</text>
<polygon fill="none" stroke="#000000" points="753,-513.7 753,-535.7 1005,-535.7 1005,-513.7 753,-513.7"/>
<image xlink:href="../../images/primaryKeys.png" width="11px" height="12px" preserveAspectRatio="xMinYMin meet" x="758" y="-530.7"/>
<text text-anchor="start" x="789" y="-516.3" font-family="Helvetica,sans-Serif" font-size="16.00" fill="#000000">feature_code</text>
<polygon fill="#ffffff" stroke="transparent" points="753,-491.7 753,-513.7 1005,-513.7 1005,-491.7 753,-491.7"/>
<polygon fill="none" stroke="#000000" points="753,-491.7 753,-513.7 1005,-513.7 1005,-491.7 753,-491.7"/>
<image xlink:href="../../images/foreignKeys.png" width="11px" height="12px" preserveAspectRatio="xMinYMin meet" x="758" y="-508.7"/>
<text text-anchor="start" x="789" y="-494.3" font-family="Helvetica,sans-Serif" font-size="16.00" fill="#000000">feature_class</text>
<polygon fill="#ffffff" stroke="transparent" points="753,-469.7 753,-491.7 1005,-491.7 1005,-469.7 753,-469.7"/>
<polygon fill="none" stroke="#000000" points="753,-469.7 753,-491.7 1005,-491.7 1005,-469.7 753,-469.7"/>
<text text-anchor="start" x="789" y="-472.3" font-family="Helvetica,sans-Serif" font-size="16.00" fill="#000000">order</text>
<polygon fill="none" stroke="#000000" points="753,-444.7 753,-469.7 1005,-469.7 1005,-444.7 753,-444.7"/>
<text text-anchor="start" x="756" y="-452.3" font-family="Helvetica,sans-Serif" font-size="16.00" fill="#000000">...</text>
<polygon fill="#ffffff" stroke="transparent" points="753,-419.7 753,-444.7 844,-444.7 844,-419.7 753,-419.7"/>
<polygon fill="none" stroke="#000000" points="753,-419.7 753,-444.7 844,-444.7 844,-419.7 753,-419.7"/>
<text text-anchor="start" x="756" y="-427.3" font-family="Helvetica,sans-Serif" font-size="16.00" fill="#000000">&lt; 1</text>
<polygon fill="#ffffff" stroke="transparent" points="844,-419.7 844,-444.7 945,-444.7 945,-419.7 844,-419.7"/>
<polygon fill="none" stroke="#000000" points="844,-419.7 844,-444.7 945,-444.7 945,-419.7 844,-419.7"/>
<text text-anchor="start" x="877.0992" y="-427.3" font-family="Helvetica,sans-Serif" font-size="16.00" fill="#000000">684 rows</text>
<polygon fill="#ffffff" stroke="transparent" points="945,-419.7 945,-444.7 1005,-444.7 1005,-419.7 945,-419.7"/>
<polygon fill="none" stroke="#000000" points="945,-419.7 945,-444.7 1005,-444.7 1005,-419.7 945,-419.7"/>
<text text-anchor="start" x="979.3168" y="-427.3" font-family="Helvetica,sans-Serif" font-size="16.00" fill="#000000">1 &gt;</text>
</a>
</g>
</g>
<!-- locations_cities&#45;&gt;locations_feature_codes -->
<g id="edge9" class="edge">
<title>locations_cities:w&#45;&gt;locations_feature_codes:e</title>
<path fill="none" stroke="#000000" d="M1093.1297,-434.7071C1049.1619,-448.1612 1060.8343,-524.7 1005,-524.7"/>
<polygon fill="#000000" stroke="#000000" points="1099.5769,-433.8067 1107.998,-436.2654 1103.5385,-433.2533 1107.5,-432.7 1107.5,-432.7 1107.5,-432.7 1103.5385,-433.2533 1107.002,-429.1346 1099.5769,-433.8067 1099.5769,-433.8067"/>
<ellipse fill="none" stroke="#000000" cx="1096.4077" cy="-434.2493" rx="3.2" ry="3.2"/>
</g>
<!-- locations_administrative_divisions_1&#45;&gt;locations_countries -->
<g id="edge2" class="edge">
<title>locations_administrative_divisions_1:w&#45;&gt;locations_countries:e</title>
<path fill="none" stroke="#000000" d="M284.4909,-308.7C273.1774,-308.7 265.9931,-308.7 250,-308.7"/>
<polygon fill="#000000" stroke="#000000" points="291,-308.7001 299,-312.3 295,-308.7 299,-308.7 299,-308.7 299,-308.7 295,-308.7 299,-305.1 291,-308.7001 291,-308.7001"/>
<ellipse fill="none" stroke="#000000" cx="287.8" cy="-308.7001" rx="3.2" ry="3.2"/>
</g>
<!-- locations_administrative_divisions_2&#45;&gt;locations_administrative_divisions_1 -->
<g id="edge3" class="edge">
<title>locations_administrative_divisions_2:w&#45;&gt;locations_administrative_divisions_1:e</title>
<path fill="none" stroke="#000000" d="M688.4105,-274.4866C672.6548,-288.8667 681.7978,-330.7 653,-330.7"/>
<polygon fill="#000000" stroke="#000000" points="694.4544,-272.3578 703.196,-273.0955 698.2272,-271.0289 702,-269.7 702,-269.7 702,-269.7 698.2272,-271.0289 700.804,-266.3045 694.4544,-272.3578 694.4544,-272.3578"/>
<ellipse fill="none" stroke="#000000" cx="691.4361" cy="-273.4209" rx="3.2" ry="3.2"/>
</g>
<!-- locations_administrative_divisions_2&#45;&gt;locations_countries -->
<g id="edge4" class="edge">
<title>locations_administrative_divisions_2:w&#45;&gt;locations_countries:e</title>
<path fill="none" stroke="#000000" d="M688.0759,-243.5619C671.8711,-230.2028 688.5501,-188.1409 661,-171.7 519.7887,-87.4305 422.8997,-73.4939 291,-171.7 240.0213,-209.6563 313.5571,-308.7 250,-308.7"/>
<polygon fill="#000000" stroke="#000000" points="694.3315,-245.4209 700.9744,-251.1508 698.1657,-246.5605 702,-247.7 702,-247.7 702,-247.7 698.1657,-246.5605 703.0256,-244.2492 694.3315,-245.4209 694.3315,-245.4209"/>
<ellipse fill="none" stroke="#000000" cx="691.2641" cy="-244.5093" rx="3.2" ry="3.2"/>
</g>
<!-- locations_feature_codes&#45;&gt;locations_feature_classes -->
<g id="edge10" class="edge">
<title>locations_feature_codes:w&#45;&gt;locations_feature_classes:e</title>
<path fill="none" stroke="#000000" d="M738.5756,-503.4105C683.8436,-509.0013 670.0983,-545.7 608,-545.7"/>
<polygon fill="#000000" stroke="#000000" points="745.0097,-503.0936 753.1771,-506.2956 749.0048,-502.8968 753,-502.7 753,-502.7 753,-502.7 749.0048,-502.8968 752.8229,-499.1044 745.0097,-503.0936 745.0097,-503.0936"/>
<ellipse fill="none" stroke="#000000" cx="741.8136" cy="-503.2511" rx="3.2" ry="3.2"/>
</g>
</g>
</svg>
