<?xml version="1.0" encoding="UTF-8" standalone="no"?>
<!DOCTYPE svg PUBLIC "-//W3C//DTD SVG 1.1//EN"
 "http://www.w3.org/Graphics/SVG/1.1/DTD/svg11.dtd">
<!-- Generated by graphviz version 2.40.1 (20161225.0304)
 -->
<!-- Title: twoDegreesRelationshipsDiagram Pages: 1 -->
<svg width="1468pt" height="436pt"
 viewBox="0.00 0.00 1468.00 436.20" xmlns="http://www.w3.org/2000/svg" xmlns:xlink="http://www.w3.org/1999/xlink">
<g id="graph0" class="graph" transform="scale(1 1) rotate(0) translate(4 432.2)">
<title>twoDegreesRelationshipsDiagram</title>
<polygon fill="#ffffff" stroke="transparent" points="-4,4 -4,-432.2 1464,-432.2 1464,4 -4,4"/>
<text text-anchor="middle" x="101.8088" y="-8.8" font-family="Helvetica,sans-Serif" font-size="16.00" fill="#000000">Generated by SchemaSpy</text>
<!-- locations_administrative_divisions_1 -->
<g id="node1" class="node">
<title>locations_administrative_divisions_1</title>
<g id="a_node1"><a xlink:href="../../tables/locations_administrative_divisions_1.html" xlink:title="locations_administrative_divisions_1" target="_top">
<polygon fill="#ffffff" stroke="transparent" points="695,-285.2 695,-364.2 1049,-364.2 1049,-285.2 695,-285.2"/>
<polygon fill="#f5f5f5" stroke="transparent" points="695,-334.7 695,-363.7 1049,-363.7 1049,-334.7 695,-334.7"/>
<polygon fill="none" stroke="#000000" points="695,-334.7 695,-363.7 1049,-363.7 1049,-334.7 695,-334.7"/>
<text text-anchor="start" x="700" y="-341.8" font-family="Helvetica,sans-Serif" font-weight="bold" font-size="16.00" fill="#000000">locations_administrative_divisions_1</text>
<text text-anchor="start" x="1000.7136" y="-344.3" font-family="Helvetica,sans-Serif" font-size="16.00" fill="#000000">[table]</text>
<polygon fill="none" stroke="#000000" points="695,-309.7 695,-334.7 1049,-334.7 1049,-309.7 695,-309.7"/>
<text text-anchor="start" x="698" y="-317.3" font-family="Helvetica,sans-Serif" font-size="16.00" fill="#000000">...</text>
<polygon fill="#ffffff" stroke="transparent" points="695,-284.7 695,-309.7 830,-309.7 830,-284.7 695,-284.7"/>
<polygon fill="none" stroke="#000000" points="695,-284.7 695,-309.7 830,-309.7 830,-284.7 695,-284.7"/>
<text text-anchor="start" x="698" y="-292.3" font-family="Helvetica,sans-Serif" font-size="16.00" fill="#000000">&lt; 1</text>
<polygon fill="#ffffff" stroke="transparent" points="830,-284.7 830,-309.7 967,-309.7 967,-284.7 830,-284.7"/>
<polygon fill="none" stroke="#000000" points="830,-284.7 830,-309.7 967,-309.7 967,-284.7 830,-284.7"/>
<text text-anchor="start" x="885.7584" y="-292.3" font-family="Helvetica,sans-Serif" font-size="16.00" fill="#000000">3,893 rows</text>
<polygon fill="#ffffff" stroke="transparent" points="967,-284.7 967,-309.7 1049,-309.7 1049,-284.7 967,-284.7"/>
<polygon fill="none" stroke="#000000" points="967,-284.7 967,-309.7 1049,-309.7 1049,-284.7 967,-284.7"/>
<text text-anchor="start" x="1023.3168" y="-292.3" font-family="Helvetica,sans-Serif" font-size="16.00" fill="#000000">2 &gt;</text>
</a>
</g>
</g>
<!-- locations_countries -->
<g id="node2" class="node">
<title>locations_countries</title>
<g id="a_node2"><a xlink:href="../../tables/locations_countries.html" xlink:title="locations_countries" target="_top">
<polygon fill="#ffffff" stroke="transparent" points="404,-63.2 404,-362.2 646,-362.2 646,-63.2 404,-63.2"/>
<polygon fill="#f5f5f5" stroke="transparent" points="404,-332.7 404,-361.7 646,-361.7 646,-332.7 404,-332.7"/>
<polygon fill="none" stroke="#000000" points="404,-332.7 404,-361.7 646,-361.7 646,-332.7 404,-332.7"/>
<text text-anchor="start" x="409" y="-339.8" font-family="Helvetica,sans-Serif" font-weight="bold" font-size="16.00" fill="#000000">locations_countries</text>
<text text-anchor="start" x="597.4272" y="-342.3" font-family="Helvetica,sans-Serif" font-size="16.00" fill="#000000">[table]</text>
<polygon fill="none" stroke="#000000" points="404,-310.7 404,-332.7 646,-332.7 646,-310.7 404,-310.7"/>
<image xlink:href="../../images/primaryKeys.png" width="11px" height="12px" preserveAspectRatio="xMinYMin meet" x="409" y="-327.7"/>
<text text-anchor="start" x="424" y="-313.3" font-family="Helvetica,sans-Serif" font-size="16.00" fill="#000000">iso_country_code</text>
<polygon fill="#ffffff" stroke="transparent" points="404,-288.7 404,-310.7 646,-310.7 646,-288.7 404,-288.7"/>
<polygon fill="none" stroke="#000000" points="404,-288.7 404,-310.7 646,-310.7 646,-288.7 404,-288.7"/>
<text text-anchor="start" x="424" y="-291.3" font-family="Helvetica,sans-Serif" font-size="16.00" fill="#000000">iso_3_country_code</text>
<polygon fill="#ffffff" stroke="transparent" points="404,-266.7 404,-288.7 646,-288.7 646,-266.7 404,-266.7"/>
<polygon fill="none" stroke="#000000" points="404,-266.7 404,-288.7 646,-288.7 646,-266.7 404,-266.7"/>
<text text-anchor="start" x="424" y="-269.3" font-family="Helvetica,sans-Serif" font-size="16.00" fill="#000000">iso_numeric_country_code</text>
<polygon fill="#ffffff" stroke="transparent" points="404,-244.7 404,-266.7 646,-266.7 646,-244.7 404,-244.7"/>
<polygon fill="none" stroke="#000000" points="404,-244.7 404,-266.7 646,-266.7 646,-244.7 404,-244.7"/>
<text text-anchor="start" x="424" y="-247.3" font-family="Helvetica,sans-Serif" font-size="16.00" fill="#000000">country_name</text>
<polygon fill="#ffffff" stroke="transparent" points="404,-222.7 404,-244.7 646,-244.7 646,-222.7 404,-222.7"/>
<polygon fill="none" stroke="#000000" points="404,-222.7 404,-244.7 646,-244.7 646,-222.7 404,-222.7"/>
<text text-anchor="start" x="424" y="-225.3" font-family="Helvetica,sans-Serif" font-size="16.00" fill="#000000">area</text>
<polygon fill="#ffffff" stroke="transparent" points="404,-200.7 404,-222.7 646,-222.7 646,-200.7 404,-200.7"/>
<polygon fill="none" stroke="#000000" points="404,-200.7 404,-222.7 646,-222.7 646,-200.7 404,-200.7"/>
<text text-anchor="start" x="424" y="-203.3" font-family="Helvetica,sans-Serif" font-size="16.00" fill="#000000">population</text>
<polygon fill="#ffffff" stroke="transparent" points="404,-178.7 404,-200.7 646,-200.7 646,-178.7 404,-178.7"/>
<polygon fill="none" stroke="#000000" points="404,-178.7 404,-200.7 646,-200.7 646,-178.7 404,-178.7"/>
<image xlink:href="../../images/foreignKeys.png" width="11px" height="12px" preserveAspectRatio="xMinYMin meet" x="409" y="-195.7"/>
<text text-anchor="start" x="424" y="-181.3" font-family="Helvetica,sans-Serif" font-size="16.00" fill="#000000">continent_code</text>
<polygon fill="#ffffff" stroke="transparent" points="404,-156.7 404,-178.7 646,-178.7 646,-156.7 404,-156.7"/>
<polygon fill="none" stroke="#000000" points="404,-156.7 404,-178.7 646,-178.7 646,-156.7 404,-156.7"/>
<text text-anchor="start" x="424" y="-159.3" font-family="Helvetica,sans-Serif" font-size="16.00" fill="#000000">tld</text>
<polygon fill="#ffffff" stroke="transparent" points="404,-134.7 404,-156.7 646,-156.7 646,-134.7 404,-134.7"/>
<polygon fill="none" stroke="#000000" points="404,-134.7 404,-156.7 646,-156.7 646,-134.7 404,-134.7"/>
<text text-anchor="start" x="424" y="-137.3" font-family="Helvetica,sans-Serif" font-size="16.00" fill="#000000">currency_code</text>
<polygon fill="#ffffff" stroke="transparent" points="404,-112.7 404,-134.7 646,-134.7 646,-112.7 404,-112.7"/>
<polygon fill="none" stroke="#000000" points="404,-112.7 404,-134.7 646,-134.7 646,-112.7 404,-112.7"/>
<text text-anchor="start" x="424" y="-115.3" font-family="Helvetica,sans-Serif" font-size="16.00" fill="#000000">geoname_id</text>
<polygon fill="none" stroke="#000000" points="404,-87.7 404,-112.7 646,-112.7 646,-87.7 404,-87.7"/>
<text text-anchor="start" x="407" y="-95.3" font-family="Helvetica,sans-Serif" font-size="16.00" fill="#000000">...</text>
<polygon fill="#ffffff" stroke="transparent" points="404,-62.7 404,-87.7 490,-87.7 490,-62.7 404,-62.7"/>
<polygon fill="none" stroke="#000000" points="404,-62.7 404,-87.7 490,-87.7 490,-62.7 404,-62.7"/>
<text text-anchor="start" x="407" y="-70.3" font-family="Helvetica,sans-Serif" font-size="16.00" fill="#000000">&lt; 1</text>
<polygon fill="#ffffff" stroke="transparent" points="490,-62.7 490,-87.7 589,-87.7 589,-62.7 490,-62.7"/>
<polygon fill="none" stroke="#000000" points="490,-62.7 490,-87.7 589,-87.7 589,-62.7 490,-62.7"/>
<text text-anchor="start" x="521.0992" y="-70.3" font-family="Helvetica,sans-Serif" font-size="16.00" fill="#000000">252 rows</text>
<polygon fill="#ffffff" stroke="transparent" points="589,-62.7 589,-87.7 646,-87.7 646,-62.7 589,-62.7"/>
<polygon fill="none" stroke="#000000" points="589,-62.7 589,-87.7 646,-87.7 646,-62.7 589,-62.7"/>
<text text-anchor="start" x="620.3168" y="-70.3" font-family="Helvetica,sans-Serif" font-size="16.00" fill="#000000">3 &gt;</text>
</a>
</g>
</g>
<!-- locations_administrative_divisions_1&#45;&gt;locations_countries -->
<g id="edge1" class="edge">
<title>locations_administrative_divisions_1:w&#45;&gt;locations_countries:e</title>
<path fill="none" stroke="#000000" d="M680.4909,-321.7C669.1774,-321.7 661.9931,-321.7 646,-321.7"/>
<polygon fill="#000000" stroke="#000000" points="687,-321.7001 695,-325.3 691,-321.7 695,-321.7 695,-321.7 695,-321.7 691,-321.7 695,-318.1 687,-321.7001 687,-321.7001"/>
<ellipse fill="none" stroke="#000000" cx="683.8" cy="-321.7001" rx="3.2" ry="3.2"/>
</g>
<!-- locations_continents -->
<g id="node5" class="node">
<title>locations_continents</title>
<g id="a_node5"><a xlink:href="../../tables/locations_continents.html" xlink:title="locations_continents" target="_top">
<polygon fill="#ffffff" stroke="transparent" points="8,-50.2 8,-233.2 355,-233.2 355,-50.2 8,-50.2"/>
<polygon fill="#f5f5f5" stroke="transparent" points="10.5,-201.7 10.5,-230.7 353.5,-230.7 353.5,-201.7 10.5,-201.7"/>
<polygon fill="none" stroke="#000000" points="10.5,-201.7 10.5,-230.7 353.5,-230.7 353.5,-201.7 10.5,-201.7"/>
<text text-anchor="start" x="15.5" y="-208.8" font-family="Helvetica,sans-Serif" font-weight="bold" font-size="16.00" fill="#000000">locations_continents</text>
<text text-anchor="start" x="304.9272" y="-211.3" font-family="Helvetica,sans-Serif" font-size="16.00" fill="#000000">[table]</text>
<polygon fill="none" stroke="#000000" points="10.5,-176.7 10.5,-201.7 201.5,-201.7 201.5,-176.7 10.5,-176.7"/>
<image xlink:href="../../images/primaryKeys.png" width="11px" height="12px" preserveAspectRatio="xMinYMin meet" x="15.5" y="-195.2"/>
<text text-anchor="start" x="30.5" y="-180.8" font-family="Helvetica,sans-Serif" font-size="16.00" fill="#000000">continent_code</text>
<polygon fill="none" stroke="#000000" points="201.5,-176.7 201.5,-201.7 353.5,-201.7 353.5,-176.7 201.5,-176.7"/>
<text text-anchor="start" x="204.5" y="-184.3" font-family="Helvetica,sans-Serif" font-size="16.00" fill="#000000">text[2000000000]</text>
<polygon fill="#ffffff" stroke="transparent" points="10.5,-151.7 10.5,-176.7 201.5,-176.7 201.5,-151.7 10.5,-151.7"/>
<polygon fill="none" stroke="#000000" points="10.5,-151.7 10.5,-176.7 201.5,-176.7 201.5,-151.7 10.5,-151.7"/>
<text text-anchor="start" x="30.5" y="-155.8" font-family="Helvetica,sans-Serif" font-size="16.00" fill="#000000">continent_name</text>
<polygon fill="none" stroke="#000000" points="201.5,-151.7 201.5,-176.7 353.5,-176.7 353.5,-151.7 201.5,-151.7"/>
<text text-anchor="start" x="204.5" y="-159.3" font-family="Helvetica,sans-Serif" font-size="16.00" fill="#000000">text[2000000000]</text>
<polygon fill="none" stroke="#000000" points="10.5,-126.7 10.5,-151.7 201.5,-151.7 201.5,-126.7 10.5,-126.7"/>
<text text-anchor="start" x="30.5" y="-130.8" font-family="Helvetica,sans-Serif" font-size="16.00" fill="#000000">geoname_id</text>
<polygon fill="none" stroke="#000000" points="201.5,-126.7 201.5,-151.7 353.5,-151.7 353.5,-126.7 201.5,-126.7"/>
<text text-anchor="start" x="204.1312" y="-134.3" font-family="Helvetica,sans-Serif" font-size="16.00" fill="#000000">integer[2000000000]</text>
<polygon fill="none" stroke="#000000" points="10.5,-101.7 10.5,-126.7 201.5,-126.7 201.5,-101.7 10.5,-101.7"/>
<text text-anchor="start" x="30.5" y="-105.8" font-family="Helvetica,sans-Serif" font-size="16.00" fill="#000000">inserted_at</text>
<polygon fill="none" stroke="#000000" points="201.5,-101.7 201.5,-126.7 353.5,-126.7 353.5,-101.7 201.5,-101.7"/>
<text text-anchor="start" x="204.5" y="-109.3" font-family="Helvetica,sans-Serif" font-size="16.00" fill="#000000">text[2000000000]</text>
<polygon fill="none" stroke="#000000" points="10.5,-76.7 10.5,-101.7 201.5,-101.7 201.5,-76.7 10.5,-76.7"/>
<text text-anchor="start" x="30.5" y="-80.8" font-family="Helvetica,sans-Serif" font-size="16.00" fill="#000000">updated_at</text>
<polygon fill="none" stroke="#000000" points="201.5,-76.7 201.5,-101.7 353.5,-101.7 353.5,-76.7 201.5,-76.7"/>
<text text-anchor="start" x="204.5" y="-84.3" font-family="Helvetica,sans-Serif" font-size="16.00" fill="#000000">text[2000000000]</text>
<polygon fill="#ffffff" stroke="transparent" points="10.5,-51.7 10.5,-76.7 93.5,-76.7 93.5,-51.7 10.5,-51.7"/>
<polygon fill="none" stroke="#000000" points="10.5,-51.7 10.5,-76.7 93.5,-76.7 93.5,-51.7 10.5,-51.7"/>
<text text-anchor="start" x="13.5" y="-59.3" font-family="Helvetica,sans-Serif" font-size="16.00" fill="#000000">&lt; 0</text>
<polygon fill="#ffffff" stroke="transparent" points="93.5,-51.7 93.5,-76.7 201.5,-76.7 201.5,-51.7 93.5,-51.7"/>
<polygon fill="none" stroke="#000000" points="93.5,-51.7 93.5,-76.7 201.5,-76.7 201.5,-51.7 93.5,-51.7"/>
<text text-anchor="start" x="151.388" y="-59.3" font-family="Helvetica,sans-Serif" font-size="16.00" fill="#000000">7 rows</text>
<polygon fill="#ffffff" stroke="transparent" points="201.5,-51.7 201.5,-76.7 353.5,-76.7 353.5,-51.7 201.5,-51.7"/>
<polygon fill="none" stroke="#000000" points="201.5,-51.7 201.5,-76.7 353.5,-76.7 353.5,-51.7 201.5,-51.7"/>
<text text-anchor="start" x="327.8168" y="-59.3" font-family="Helvetica,sans-Serif" font-size="16.00" fill="#000000">1 &gt;</text>
<polygon fill="none" stroke="#000000" stroke-width="2" points="9,-51.2 9,-232.2 354,-232.2 354,-51.2 9,-51.2"/>
</a>
</g>
</g>
<!-- locations_countries&#45;&gt;locations_continents -->
<g id="edge6" class="edge">
<title>locations_countries:w&#45;&gt;locations_continents:e</title>
<path fill="none" stroke="#000000" d="M389.4203,-189.7C377.5435,-189.7 370.158,-189.7 353.5,-189.7"/>
<polygon fill="#000000" stroke="#000000" points="396,-189.7001 404,-193.3 400,-189.7 404,-189.7 404,-189.7 404,-189.7 400,-189.7 404,-186.1 396,-189.7001 396,-189.7001"/>
<ellipse fill="none" stroke="#000000" cx="392.8" cy="-189.7001" rx="3.2" ry="3.2"/>
</g>
<!-- locations_administrative_divisions_2 -->
<g id="node3" class="node">
<title>locations_administrative_divisions_2</title>
<g id="a_node3"><a xlink:href="../../tables/locations_administrative_divisions_2.html" xlink:title="locations_administrative_divisions_2" target="_top">
<polygon fill="#ffffff" stroke="transparent" points="1098,-345.2 1098,-424.2 1452,-424.2 1452,-345.2 1098,-345.2"/>
<polygon fill="#f5f5f5" stroke="transparent" points="1098,-394.7 1098,-423.7 1452,-423.7 1452,-394.7 1098,-394.7"/>
<polygon fill="none" stroke="#000000" points="1098,-394.7 1098,-423.7 1452,-423.7 1452,-394.7 1098,-394.7"/>
<text text-anchor="start" x="1103" y="-401.8" font-family="Helvetica,sans-Serif" font-weight="bold" font-size="16.00" fill="#000000">locations_administrative_divisions_2</text>
<text text-anchor="start" x="1403.7136" y="-404.3" font-family="Helvetica,sans-Serif" font-size="16.00" fill="#000000">[table]</text>
<polygon fill="none" stroke="#000000" points="1098,-369.7 1098,-394.7 1452,-394.7 1452,-369.7 1098,-369.7"/>
<text text-anchor="start" x="1101" y="-377.3" font-family="Helvetica,sans-Serif" font-size="16.00" fill="#000000">...</text>
<polygon fill="#ffffff" stroke="transparent" points="1098,-344.7 1098,-369.7 1235,-369.7 1235,-344.7 1098,-344.7"/>
<polygon fill="none" stroke="#000000" points="1098,-344.7 1098,-369.7 1235,-369.7 1235,-344.7 1098,-344.7"/>
<text text-anchor="start" x="1101" y="-352.3" font-family="Helvetica,sans-Serif" font-size="16.00" fill="#000000">&lt; 2</text>
<polygon fill="#ffffff" stroke="transparent" points="1235,-344.7 1235,-369.7 1383,-369.7 1383,-344.7 1235,-344.7"/>
<polygon fill="none" stroke="#000000" points="1235,-344.7 1235,-369.7 1383,-369.7 1383,-344.7 1235,-344.7"/>
<text text-anchor="start" x="1292.864" y="-352.3" font-family="Helvetica,sans-Serif" font-size="16.00" fill="#000000">47,229 rows</text>
<polygon fill="#ffffff" stroke="transparent" points="1383,-344.7 1383,-369.7 1452,-369.7 1452,-344.7 1383,-344.7"/>
<polygon fill="none" stroke="#000000" points="1383,-344.7 1383,-369.7 1452,-369.7 1452,-344.7 1383,-344.7"/>
<text text-anchor="start" x="1440.1072" y="-352.3" font-family="Helvetica,sans-Serif" font-size="16.00" fill="#000000"> &#160;</text>
</a>
</g>
</g>
<!-- locations_administrative_divisions_2&#45;&gt;locations_administrative_divisions_1 -->
<g id="edge2" class="edge">
<title>locations_administrative_divisions_2:w&#45;&gt;locations_administrative_divisions_1:e</title>
<path fill="none" stroke="#000000" d="M1084.069,-376.5844C1068.9545,-362.0748 1077.2429,-321.7 1049,-321.7"/>
<polygon fill="#000000" stroke="#000000" points="1090.4903,-378.9424 1096.7591,-385.0794 1094.2451,-380.3212 1098,-381.7 1098,-381.7 1098,-381.7 1094.2451,-380.3212 1099.2409,-378.3206 1090.4903,-378.9424 1090.4903,-378.9424"/>
<ellipse fill="none" stroke="#000000" cx="1087.4864" cy="-377.8393" rx="3.2" ry="3.2"/>
</g>
<!-- locations_administrative_divisions_2&#45;&gt;locations_countries -->
<g id="edge3" class="edge">
<title>locations_administrative_divisions_2:w&#45;&gt;locations_countries:e</title>
<path fill="none" stroke="#000000" d="M1083.5316,-381.8575C911.7454,-385.6085 845.9336,-454.3761 687,-374.7 660.377,-361.3535 675.7811,-321.7 646,-321.7"/>
<polygon fill="#000000" stroke="#000000" points="1090.0005,-381.7871 1098.0392,-385.2998 1094.0002,-381.7436 1098,-381.7 1098,-381.7 1098,-381.7 1094.0002,-381.7436 1097.9608,-378.1002 1090.0005,-381.7871 1090.0005,-381.7871"/>
<ellipse fill="none" stroke="#000000" cx="1086.8007" cy="-381.822" rx="3.2" ry="3.2"/>
</g>
<!-- locations_cities -->
<g id="node4" class="node">
<title>locations_cities</title>
<g id="a_node4"><a xlink:href="../../tables/locations_cities.html" xlink:title="locations_cities" target="_top">
<polygon fill="#ffffff" stroke="transparent" points="1185,-238.2 1185,-317.2 1365,-317.2 1365,-238.2 1185,-238.2"/>
<polygon fill="#f5f5f5" stroke="transparent" points="1185,-287.7 1185,-316.7 1365,-316.7 1365,-287.7 1185,-287.7"/>
<polygon fill="none" stroke="#000000" points="1185,-287.7 1185,-316.7 1365,-316.7 1365,-287.7 1185,-287.7"/>
<text text-anchor="start" x="1190" y="-294.8" font-family="Helvetica,sans-Serif" font-weight="bold" font-size="16.00" fill="#000000">locations_cities</text>
<text text-anchor="start" x="1316.7136" y="-297.3" font-family="Helvetica,sans-Serif" font-size="16.00" fill="#000000">[table]</text>
<polygon fill="none" stroke="#000000" points="1185,-262.7 1185,-287.7 1365,-287.7 1365,-262.7 1185,-262.7"/>
<text text-anchor="start" x="1188" y="-270.3" font-family="Helvetica,sans-Serif" font-size="16.00" fill="#000000">...</text>
<polygon fill="#ffffff" stroke="transparent" points="1185,-237.7 1185,-262.7 1224,-262.7 1224,-237.7 1185,-237.7"/>
<polygon fill="none" stroke="#000000" points="1185,-237.7 1185,-262.7 1224,-262.7 1224,-237.7 1185,-237.7"/>
<text text-anchor="start" x="1188" y="-245.3" font-family="Helvetica,sans-Serif" font-size="16.00" fill="#000000">&lt; 4</text>
<polygon fill="#ffffff" stroke="transparent" points="1224,-237.7 1224,-262.7 1331,-262.7 1331,-237.7 1224,-237.7"/>
<polygon fill="none" stroke="#000000" points="1224,-237.7 1224,-262.7 1331,-262.7 1331,-237.7 1224,-237.7"/>
<text text-anchor="start" x="1231.9696" y="-245.3" font-family="Helvetica,sans-Serif" font-size="16.00" fill="#000000">210,698 rows</text>
<polygon fill="#ffffff" stroke="transparent" points="1331,-237.7 1331,-262.7 1365,-262.7 1365,-237.7 1331,-237.7"/>
<polygon fill="none" stroke="#000000" points="1331,-237.7 1331,-262.7 1365,-262.7 1365,-237.7 1331,-237.7"/>
<text text-anchor="start" x="1339.3168" y="-245.3" font-family="Helvetica,sans-Serif" font-size="16.00" fill="#000000">1 &gt;</text>
</a>
</g>
</g>
<!-- locations_cities&#45;&gt;locations_administrative_divisions_1 -->
<g id="edge4" class="edge">
<title>locations_cities:w&#45;&gt;locations_administrative_divisions_1:e</title>
<path fill="none" stroke="#000000" d="M1170.3277,-275.5969C1119.3438,-282.0947 1107.7061,-321.7 1049,-321.7"/>
<polygon fill="#000000" stroke="#000000" points="1177.0149,-275.1882 1185.2197,-278.2933 1181.0075,-274.9441 1185,-274.7 1185,-274.7 1185,-274.7 1181.0075,-274.9441 1184.7803,-271.1067 1177.0149,-275.1882 1177.0149,-275.1882"/>
<ellipse fill="none" stroke="#000000" cx="1173.8209" cy="-275.3835" rx="3.2" ry="3.2"/>
</g>
<!-- locations_cities&#45;&gt;locations_countries -->
<g id="edge5" class="edge">
<title>locations_cities:w&#45;&gt;locations_countries:e</title>
<path fill="none" stroke="#000000" d="M1170.304,-274.5645C960.2256,-270.6771 883.9589,-185.1471 687,-274.7 661.766,-286.1734 673.7199,-321.7 646,-321.7"/>
<polygon fill="#000000" stroke="#000000" points="1177.0003,-274.6262 1184.9668,-278.2998 1181.0002,-274.6631 1185,-274.7 1185,-274.7 1185,-274.7 1181.0002,-274.6631 1185.0332,-271.1002 1177.0003,-274.6262 1177.0003,-274.6262"/>
<ellipse fill="none" stroke="#000000" cx="1173.8005" cy="-274.5966" rx="3.2" ry="3.2"/>
</g>
</g>
</svg>
