<?xml version="1.0" encoding="UTF-8" standalone="no"?>
<!DOCTYPE svg PUBLIC "-//W3C//DTD SVG 1.1//EN"
 "http://www.w3.org/Graphics/SVG/1.1/DTD/svg11.dtd">
<!-- Generated by graphviz version 2.40.1 (20161225.0304)
 -->
<!-- Title: twoDegreesRelationshipsDiagram Pages: 1 -->
<svg width="1446pt" height="421pt"
 viewBox="0.00 0.00 1446.00 420.70" xmlns="http://www.w3.org/2000/svg" xmlns:xlink="http://www.w3.org/1999/xlink">
<g id="graph0" class="graph" transform="scale(1 1) rotate(0) translate(4 416.7)">
<title>twoDegreesRelationshipsDiagram</title>
<polygon fill="#ffffff" stroke="transparent" points="-4,4 -4,-416.7 1442,-416.7 1442,4 -4,4"/>
<text text-anchor="middle" x="101.8088" y="-8.8" font-family="Helvetica,sans-Serif" font-size="16.00" fill="#000000">Generated by SchemaSpy</text>
<!-- locations_administrative_divisions_1 -->
<g id="node1" class="node">
<title>locations_administrative_divisions_1</title>
<g id="a_node1"><a xlink:href="../../tables/locations_administrative_divisions_1.html" xlink:title="locations_administrative_divisions_1" target="_top">
<polygon fill="#ffffff" stroke="transparent" points="542,-186.2 542,-265.2 896,-265.2 896,-186.2 542,-186.2"/>
<polygon fill="#f5f5f5" stroke="transparent" points="542,-235.7 542,-264.7 896,-264.7 896,-235.7 542,-235.7"/>
<polygon fill="none" stroke="#000000" points="542,-235.7 542,-264.7 896,-264.7 896,-235.7 542,-235.7"/>
<text text-anchor="start" x="547" y="-242.8" font-family="Helvetica,sans-Serif" font-weight="bold" font-size="16.00" fill="#000000">locations_administrative_divisions_1</text>
<text text-anchor="start" x="847.7136" y="-245.3" font-family="Helvetica,sans-Serif" font-size="16.00" fill="#000000">[table]</text>
<polygon fill="none" stroke="#000000" points="542,-210.7 542,-235.7 896,-235.7 896,-210.7 542,-210.7"/>
<text text-anchor="start" x="545" y="-218.3" font-family="Helvetica,sans-Serif" font-size="16.00" fill="#000000">...</text>
<polygon fill="#ffffff" stroke="transparent" points="542,-185.7 542,-210.7 677,-210.7 677,-185.7 542,-185.7"/>
<polygon fill="none" stroke="#000000" points="542,-185.7 542,-210.7 677,-210.7 677,-185.7 542,-185.7"/>
<text text-anchor="start" x="545" y="-193.3" font-family="Helvetica,sans-Serif" font-size="16.00" fill="#000000">&lt; 1</text>
<polygon fill="#ffffff" stroke="transparent" points="677,-185.7 677,-210.7 814,-210.7 814,-185.7 677,-185.7"/>
<polygon fill="none" stroke="#000000" points="677,-185.7 677,-210.7 814,-210.7 814,-185.7 677,-185.7"/>
<text text-anchor="start" x="732.7584" y="-193.3" font-family="Helvetica,sans-Serif" font-size="16.00" fill="#000000">3,893 rows</text>
<polygon fill="#ffffff" stroke="transparent" points="814,-185.7 814,-210.7 896,-210.7 896,-185.7 814,-185.7"/>
<polygon fill="none" stroke="#000000" points="814,-185.7 814,-210.7 896,-210.7 896,-185.7 814,-185.7"/>
<text text-anchor="start" x="870.3168" y="-193.3" font-family="Helvetica,sans-Serif" font-size="16.00" fill="#000000">2 &gt;</text>
</a>
</g>
</g>
<!-- locations_countries -->
<g id="node2" class="node">
<title>locations_countries</title>
<g id="a_node2"><a xlink:href="../../tables/locations_countries.html" xlink:title="locations_countries" target="_top">
<polygon fill="#ffffff" stroke="transparent" points="280,-186.2 280,-265.2 493,-265.2 493,-186.2 280,-186.2"/>
<polygon fill="#f5f5f5" stroke="transparent" points="280.5,-235.7 280.5,-264.7 493.5,-264.7 493.5,-235.7 280.5,-235.7"/>
<polygon fill="none" stroke="#000000" points="280.5,-235.7 280.5,-264.7 493.5,-264.7 493.5,-235.7 280.5,-235.7"/>
<text text-anchor="start" x="285.5" y="-242.8" font-family="Helvetica,sans-Serif" font-weight="bold" font-size="16.00" fill="#000000">locations_countries</text>
<text text-anchor="start" x="445.2136" y="-245.3" font-family="Helvetica,sans-Serif" font-size="16.00" fill="#000000">[table]</text>
<polygon fill="none" stroke="#000000" points="280.5,-210.7 280.5,-235.7 493.5,-235.7 493.5,-210.7 280.5,-210.7"/>
<text text-anchor="start" x="283.5" y="-218.3" font-family="Helvetica,sans-Serif" font-size="16.00" fill="#000000">...</text>
<polygon fill="#ffffff" stroke="transparent" points="280.5,-185.7 280.5,-210.7 351.5,-210.7 351.5,-185.7 280.5,-185.7"/>
<polygon fill="none" stroke="#000000" points="280.5,-185.7 280.5,-210.7 351.5,-210.7 351.5,-185.7 280.5,-185.7"/>
<text text-anchor="start" x="283.5" y="-193.3" font-family="Helvetica,sans-Serif" font-size="16.00" fill="#000000">&lt; 1</text>
<polygon fill="#ffffff" stroke="transparent" points="351.5,-185.7 351.5,-210.7 443.5,-210.7 443.5,-185.7 351.5,-185.7"/>
<polygon fill="none" stroke="#000000" points="351.5,-185.7 351.5,-210.7 443.5,-210.7 443.5,-185.7 351.5,-185.7"/>
<text text-anchor="start" x="375.5992" y="-193.3" font-family="Helvetica,sans-Serif" font-size="16.00" fill="#000000">252 rows</text>
<polygon fill="#ffffff" stroke="transparent" points="443.5,-185.7 443.5,-210.7 493.5,-210.7 493.5,-185.7 443.5,-185.7"/>
<polygon fill="none" stroke="#000000" points="443.5,-185.7 443.5,-210.7 493.5,-210.7 493.5,-185.7 443.5,-185.7"/>
<text text-anchor="start" x="467.8168" y="-193.3" font-family="Helvetica,sans-Serif" font-size="16.00" fill="#000000">3 &gt;</text>
</a>
</g>
</g>
<!-- locations_administrative_divisions_1&#45;&gt;locations_countries -->
<g id="edge1" class="edge">
<title>locations_administrative_divisions_1:w&#45;&gt;locations_countries:e</title>
<path fill="none" stroke="#000000" d="M519.3898,-225.7C513.2597,-225.7 507.1927,-225.7 501.224,-225.7"/>
<polygon fill="#000000" stroke="#000000" points="525.7914,-225.7001 533.7914,-229.3 529.7914,-225.7 533.7914,-225.7 533.7914,-225.7 533.7914,-225.7 529.7914,-225.7 533.7914,-222.1 525.7914,-225.7001 525.7914,-225.7001"/>
<ellipse fill="none" stroke="#000000" cx="522.5914" cy="-225.7001" rx="3.2" ry="3.2"/>
</g>
<!-- locations_continents -->
<g id="node5" class="node">
<title>locations_continents</title>
<g id="a_node5"><a xlink:href="../../tables/locations_continents.html" xlink:title="locations_continents" target="_top">
<polygon fill="#ffffff" stroke="transparent" points="8,-189.2 8,-268.2 231,-268.2 231,-189.2 8,-189.2"/>
<polygon fill="#f5f5f5" stroke="transparent" points="8.5,-238.7 8.5,-267.7 231.5,-267.7 231.5,-238.7 8.5,-238.7"/>
<polygon fill="none" stroke="#000000" points="8.5,-238.7 8.5,-267.7 231.5,-267.7 231.5,-238.7 8.5,-238.7"/>
<text text-anchor="start" x="13.5" y="-245.8" font-family="Helvetica,sans-Serif" font-weight="bold" font-size="16.00" fill="#000000">locations_continents</text>
<text text-anchor="start" x="183.2136" y="-248.3" font-family="Helvetica,sans-Serif" font-size="16.00" fill="#000000">[table]</text>
<polygon fill="none" stroke="#000000" points="8.5,-213.7 8.5,-238.7 231.5,-238.7 231.5,-213.7 8.5,-213.7"/>
<text text-anchor="start" x="11.5" y="-221.3" font-family="Helvetica,sans-Serif" font-size="16.00" fill="#000000">...</text>
<polygon fill="#ffffff" stroke="transparent" points="8.5,-188.7 8.5,-213.7 86.5,-213.7 86.5,-188.7 8.5,-188.7"/>
<polygon fill="none" stroke="#000000" points="8.5,-188.7 8.5,-213.7 86.5,-213.7 86.5,-188.7 8.5,-188.7"/>
<text text-anchor="start" x="11.5" y="-196.3" font-family="Helvetica,sans-Serif" font-size="16.00" fill="#000000"> &#160;</text>
<polygon fill="#ffffff" stroke="transparent" points="86.5,-188.7 86.5,-213.7 171.5,-213.7 171.5,-188.7 86.5,-188.7"/>
<polygon fill="none" stroke="#000000" points="86.5,-188.7 86.5,-213.7 171.5,-213.7 171.5,-188.7 86.5,-188.7"/>
<text text-anchor="start" x="121.388" y="-196.3" font-family="Helvetica,sans-Serif" font-size="16.00" fill="#000000">7 rows</text>
<polygon fill="#ffffff" stroke="transparent" points="171.5,-188.7 171.5,-213.7 231.5,-213.7 231.5,-188.7 171.5,-188.7"/>
<polygon fill="none" stroke="#000000" points="171.5,-188.7 171.5,-213.7 231.5,-213.7 231.5,-188.7 171.5,-188.7"/>
<text text-anchor="start" x="205.8168" y="-196.3" font-family="Helvetica,sans-Serif" font-size="16.00" fill="#000000">1 &gt;</text>
</a>
</g>
</g>
<!-- locations_countries&#45;&gt;locations_continents -->
<g id="edge6" class="edge">
<title>locations_countries:w&#45;&gt;locations_continents:e</title>
<path fill="none" stroke="#000000" d="M257.1591,-225.7C248.4756,-225.7 239.8609,-225.7 231.5,-225.7"/>
<polygon fill="#000000" stroke="#000000" points="263.8054,-225.7001 271.8055,-229.3 267.8054,-225.7 271.8054,-225.7 271.8054,-225.7 271.8054,-225.7 267.8054,-225.7 271.8054,-222.1 263.8054,-225.7001 263.8054,-225.7001"/>
<ellipse fill="none" stroke="#000000" cx="260.6054" cy="-225.7001" rx="3.2" ry="3.2"/>
</g>
<!-- locations_administrative_divisions_2 -->
<g id="node3" class="node">
<title>locations_administrative_divisions_2</title>
<g id="a_node3"><a xlink:href="../../tables/locations_administrative_divisions_2.html" xlink:title="locations_administrative_divisions_2" target="_top">
<polygon fill="#ffffff" stroke="transparent" points="945,-150.7 945,-408.7 1430,-408.7 1430,-150.7 945,-150.7"/>
<polygon fill="#f5f5f5" stroke="transparent" points="947.5,-377.7 947.5,-406.7 1428.5,-406.7 1428.5,-377.7 947.5,-377.7"/>
<polygon fill="none" stroke="#000000" points="947.5,-377.7 947.5,-406.7 1428.5,-406.7 1428.5,-377.7 947.5,-377.7"/>
<text text-anchor="start" x="952.5" y="-384.8" font-family="Helvetica,sans-Serif" font-weight="bold" font-size="16.00" fill="#000000">locations_administrative_divisions_2</text>
<text text-anchor="start" x="1379.9272" y="-387.3" font-family="Helvetica,sans-Serif" font-size="16.00" fill="#000000">[table]</text>
<polygon fill="none" stroke="#000000" points="947.5,-352.7 947.5,-377.7 1276.5,-377.7 1276.5,-352.7 947.5,-352.7"/>
<image xlink:href="../../images/primaryKeys.png" width="11px" height="12px" preserveAspectRatio="xMinYMin meet" x="952.5" y="-371.2"/>
<text text-anchor="start" x="967.5" y="-356.8" font-family="Helvetica,sans-Serif" font-size="16.00" fill="#000000">administrative_division_2_code</text>
<polygon fill="none" stroke="#000000" points="1276.5,-352.7 1276.5,-377.7 1428.5,-377.7 1428.5,-352.7 1276.5,-352.7"/>
<text text-anchor="start" x="1279.5" y="-360.3" font-family="Helvetica,sans-Serif" font-size="16.00" fill="#000000">text[2000000000]</text>
<polygon fill="#ffffff" stroke="transparent" points="947.5,-327.7 947.5,-352.7 1276.5,-352.7 1276.5,-327.7 947.5,-327.7"/>
<polygon fill="none" stroke="#000000" points="947.5,-327.7 947.5,-352.7 1276.5,-352.7 1276.5,-327.7 947.5,-327.7"/>
<image xlink:href="../../images/foreignKeys.png" width="11px" height="12px" preserveAspectRatio="xMinYMin meet" x="952.5" y="-346.2"/>
<text text-anchor="start" x="967.5" y="-331.8" font-family="Helvetica,sans-Serif" font-size="16.00" fill="#000000">administrative_division_1_code</text>
<polygon fill="none" stroke="#000000" points="1276.5,-327.7 1276.5,-352.7 1428.5,-352.7 1428.5,-327.7 1276.5,-327.7"/>
<text text-anchor="start" x="1279.5" y="-335.3" font-family="Helvetica,sans-Serif" font-size="16.00" fill="#000000">text[2000000000]</text>
<polygon fill="#ffffff" stroke="transparent" points="947.5,-302.7 947.5,-327.7 1276.5,-327.7 1276.5,-302.7 947.5,-302.7"/>
<polygon fill="none" stroke="#000000" points="947.5,-302.7 947.5,-327.7 1276.5,-327.7 1276.5,-302.7 947.5,-302.7"/>
<image xlink:href="../../images/foreignKeys.png" width="11px" height="12px" preserveAspectRatio="xMinYMin meet" x="952.5" y="-321.2"/>
<text text-anchor="start" x="967.5" y="-306.8" font-family="Helvetica,sans-Serif" font-size="16.00" fill="#000000">country_code</text>
<polygon fill="none" stroke="#000000" points="1276.5,-302.7 1276.5,-327.7 1428.5,-327.7 1428.5,-302.7 1276.5,-302.7"/>
<text text-anchor="start" x="1279.5" y="-310.3" font-family="Helvetica,sans-Serif" font-size="16.00" fill="#000000">text[2000000000]</text>
<polygon fill="#ffffff" stroke="transparent" points="947.5,-277.7 947.5,-302.7 1276.5,-302.7 1276.5,-277.7 947.5,-277.7"/>
<polygon fill="none" stroke="#000000" points="947.5,-277.7 947.5,-302.7 1276.5,-302.7 1276.5,-277.7 947.5,-277.7"/>
<text text-anchor="start" x="967.5" y="-281.8" font-family="Helvetica,sans-Serif" font-size="16.00" fill="#000000">administrative_division_2_name</text>
<polygon fill="none" stroke="#000000" points="1276.5,-277.7 1276.5,-302.7 1428.5,-302.7 1428.5,-277.7 1276.5,-277.7"/>
<text text-anchor="start" x="1279.5" y="-285.3" font-family="Helvetica,sans-Serif" font-size="16.00" fill="#000000">text[2000000000]</text>
<polygon fill="#ffffff" stroke="transparent" points="947.5,-252.7 947.5,-277.7 1276.5,-277.7 1276.5,-252.7 947.5,-252.7"/>
<polygon fill="none" stroke="#000000" points="947.5,-252.7 947.5,-277.7 1276.5,-277.7 1276.5,-252.7 947.5,-252.7"/>
<text text-anchor="start" x="967.5" y="-256.8" font-family="Helvetica,sans-Serif" font-size="16.00" fill="#000000">administrative_division_2_ascii_name</text>
<polygon fill="none" stroke="#000000" points="1276.5,-252.7 1276.5,-277.7 1428.5,-277.7 1428.5,-252.7 1276.5,-252.7"/>
<text text-anchor="start" x="1279.5" y="-260.3" font-family="Helvetica,sans-Serif" font-size="16.00" fill="#000000">text[2000000000]</text>
<polygon fill="#ffffff" stroke="transparent" points="947.5,-227.7 947.5,-252.7 1276.5,-252.7 1276.5,-227.7 947.5,-227.7"/>
<polygon fill="none" stroke="#000000" points="947.5,-227.7 947.5,-252.7 1276.5,-252.7 1276.5,-227.7 947.5,-227.7"/>
<text text-anchor="start" x="967.5" y="-231.8" font-family="Helvetica,sans-Serif" font-size="16.00" fill="#000000">geoname_id</text>
<polygon fill="none" stroke="#000000" points="1276.5,-227.7 1276.5,-252.7 1428.5,-252.7 1428.5,-227.7 1276.5,-227.7"/>
<text text-anchor="start" x="1279.1312" y="-235.3" font-family="Helvetica,sans-Serif" font-size="16.00" fill="#000000">integer[2000000000]</text>
<polygon fill="none" stroke="#000000" points="947.5,-202.7 947.5,-227.7 1276.5,-227.7 1276.5,-202.7 947.5,-202.7"/>
<text text-anchor="start" x="967.5" y="-206.8" font-family="Helvetica,sans-Serif" font-size="16.00" fill="#000000">inserted_at</text>
<polygon fill="none" stroke="#000000" points="1276.5,-202.7 1276.5,-227.7 1428.5,-227.7 1428.5,-202.7 1276.5,-202.7"/>
<text text-anchor="start" x="1279.5" y="-210.3" font-family="Helvetica,sans-Serif" font-size="16.00" fill="#000000">text[2000000000]</text>
<polygon fill="none" stroke="#000000" points="947.5,-177.7 947.5,-202.7 1276.5,-202.7 1276.5,-177.7 947.5,-177.7"/>
<text text-anchor="start" x="967.5" y="-181.8" font-family="Helvetica,sans-Serif" font-size="16.00" fill="#000000">updated_at</text>
<polygon fill="none" stroke="#000000" points="1276.5,-177.7 1276.5,-202.7 1428.5,-202.7 1428.5,-177.7 1276.5,-177.7"/>
<text text-anchor="start" x="1279.5" y="-185.3" font-family="Helvetica,sans-Serif" font-size="16.00" fill="#000000">text[2000000000]</text>
<polygon fill="#ffffff" stroke="transparent" points="947.5,-152.7 947.5,-177.7 1079.5,-177.7 1079.5,-152.7 947.5,-152.7"/>
<polygon fill="none" stroke="#000000" points="947.5,-152.7 947.5,-177.7 1079.5,-177.7 1079.5,-152.7 947.5,-152.7"/>
<text text-anchor="start" x="950.5" y="-160.3" font-family="Helvetica,sans-Serif" font-size="16.00" fill="#000000">&lt; 2</text>
<polygon fill="#ffffff" stroke="transparent" points="1079.5,-152.7 1079.5,-177.7 1276.5,-177.7 1276.5,-152.7 1079.5,-152.7"/>
<polygon fill="none" stroke="#000000" points="1079.5,-152.7 1079.5,-177.7 1276.5,-177.7 1276.5,-152.7 1079.5,-152.7"/>
<text text-anchor="start" x="1186.364" y="-160.3" font-family="Helvetica,sans-Serif" font-size="16.00" fill="#000000">47,229 rows</text>
<polygon fill="#ffffff" stroke="transparent" points="1276.5,-152.7 1276.5,-177.7 1428.5,-177.7 1428.5,-152.7 1276.5,-152.7"/>
<polygon fill="none" stroke="#000000" points="1276.5,-152.7 1276.5,-177.7 1428.5,-177.7 1428.5,-152.7 1276.5,-152.7"/>
<text text-anchor="start" x="1402.8168" y="-160.3" font-family="Helvetica,sans-Serif" font-size="16.00" fill="#000000">0 &gt;</text>
<polygon fill="none" stroke="#000000" stroke-width="2" points="946,-151.7 946,-407.7 1429,-407.7 1429,-151.7 946,-151.7"/>
</a>
</g>
</g>
<!-- locations_administrative_divisions_2&#45;&gt;locations_administrative_divisions_1 -->
<g id="edge2" class="edge">
<title>locations_administrative_divisions_2:w&#45;&gt;locations_administrative_divisions_1:e</title>
<path fill="none" stroke="#000000" d="M933.3155,-336.6134C921.1494,-327.4799 922.6774,-305.2327 904,-292.7 890.9519,-283.9446 876.6198,-276.1724 861.8863,-269.3127"/>
<polygon fill="#000000" stroke="#000000" points="939.8127,-338.4852 946.5033,-344.1593 943.6563,-339.5926 947.5,-340.7 947.5,-340.7 947.5,-340.7 943.6563,-339.5926 948.4967,-337.2407 939.8127,-338.4852 939.8127,-338.4852"/>
<ellipse fill="none" stroke="#000000" cx="936.7377" cy="-337.5993" rx="3.2" ry="3.2"/>
</g>
<!-- locations_administrative_divisions_2&#45;&gt;locations_countries -->
<g id="edge3" class="edge">
<title>locations_administrative_divisions_2:w&#45;&gt;locations_countries:e</title>
<path fill="none" stroke="#000000" d="M932.9142,-315.6967C760.1722,-315.6076 709.6685,-313.442 534,-275.7 523.2936,-273.3997 512.283,-270.5759 501.3326,-267.4517"/>
<polygon fill="#000000" stroke="#000000" points="939.5,-315.6981 947.4992,-319.3 943.5,-315.6991 947.5,-315.7 947.5,-315.7 947.5,-315.7 943.5,-315.6991 947.5008,-312.1 939.5,-315.6981 939.5,-315.6981"/>
<ellipse fill="none" stroke="#000000" cx="936.3" cy="-315.6974" rx="3.2" ry="3.2"/>
</g>
<!-- locations_cities -->
<g id="node4" class="node">
<title>locations_cities</title>
<g id="a_node4"><a xlink:href="../../tables/locations_cities.html" xlink:title="locations_cities" target="_top">
<polygon fill="#ffffff" stroke="transparent" points="1097.5,-50.2 1097.5,-129.2 1277.5,-129.2 1277.5,-50.2 1097.5,-50.2"/>
<polygon fill="#f5f5f5" stroke="transparent" points="1097.5,-99.7 1097.5,-128.7 1277.5,-128.7 1277.5,-99.7 1097.5,-99.7"/>
<polygon fill="none" stroke="#000000" points="1097.5,-99.7 1097.5,-128.7 1277.5,-128.7 1277.5,-99.7 1097.5,-99.7"/>
<text text-anchor="start" x="1102.5" y="-106.8" font-family="Helvetica,sans-Serif" font-weight="bold" font-size="16.00" fill="#000000">locations_cities</text>
<text text-anchor="start" x="1229.2136" y="-109.3" font-family="Helvetica,sans-Serif" font-size="16.00" fill="#000000">[table]</text>
<polygon fill="none" stroke="#000000" points="1097.5,-74.7 1097.5,-99.7 1277.5,-99.7 1277.5,-74.7 1097.5,-74.7"/>
<text text-anchor="start" x="1100.5" y="-82.3" font-family="Helvetica,sans-Serif" font-size="16.00" fill="#000000">...</text>
<polygon fill="#ffffff" stroke="transparent" points="1097.5,-49.7 1097.5,-74.7 1136.5,-74.7 1136.5,-49.7 1097.5,-49.7"/>
<polygon fill="none" stroke="#000000" points="1097.5,-49.7 1097.5,-74.7 1136.5,-74.7 1136.5,-49.7 1097.5,-49.7"/>
<text text-anchor="start" x="1100.5" y="-57.3" font-family="Helvetica,sans-Serif" font-size="16.00" fill="#000000">&lt; 4</text>
<polygon fill="#ffffff" stroke="transparent" points="1136.5,-49.7 1136.5,-74.7 1243.5,-74.7 1243.5,-49.7 1136.5,-49.7"/>
<polygon fill="none" stroke="#000000" points="1136.5,-49.7 1136.5,-74.7 1243.5,-74.7 1243.5,-49.7 1136.5,-49.7"/>
<text text-anchor="start" x="1144.4696" y="-57.3" font-family="Helvetica,sans-Serif" font-size="16.00" fill="#000000">210,698 rows</text>
<polygon fill="#ffffff" stroke="transparent" points="1243.5,-49.7 1243.5,-74.7 1277.5,-74.7 1277.5,-49.7 1243.5,-49.7"/>
<polygon fill="none" stroke="#000000" points="1243.5,-49.7 1243.5,-74.7 1277.5,-74.7 1277.5,-49.7 1243.5,-49.7"/>
<text text-anchor="start" x="1251.8168" y="-57.3" font-family="Helvetica,sans-Serif" font-size="16.00" fill="#000000">1 &gt;</text>
</a>
</g>
</g>
<!-- locations_cities&#45;&gt;locations_administrative_divisions_1 -->
<g id="edge4" class="edge">
<title>locations_cities:w&#45;&gt;locations_administrative_divisions_1:e</title>
<path fill="none" stroke="#000000" d="M1083.1936,-88.8407C1036.7609,-99.315 915.8398,-146.1138 825.9945,-182.1009"/>
<polygon fill="#000000" stroke="#000000" points="1089.5881,-87.8839 1098.0328,-90.2604 1093.544,-87.292 1097.5,-86.7 1097.5,-86.7 1097.5,-86.7 1093.544,-87.292 1096.9672,-83.1396 1089.5881,-87.8839 1089.5881,-87.8839"/>
<ellipse fill="none" stroke="#000000" cx="1086.4233" cy="-88.3575" rx="3.2" ry="3.2"/>
</g>
<!-- locations_cities&#45;&gt;locations_countries -->
<g id="edge5" class="edge">
<title>locations_cities:w&#45;&gt;locations_countries:e</title>
<path fill="none" stroke="#000000" d="M1082.858,-86.7324C841.3903,-87.8179 775.3685,-116.1885 534,-175.7 523.2364,-178.3539 512.1371,-181.4402 501.0858,-184.7523"/>
<polygon fill="#000000" stroke="#000000" points="1089.5,-86.7178 1097.508,-90.3 1093.5,-86.7089 1097.5,-86.7 1097.5,-86.7 1097.5,-86.7 1093.5,-86.7089 1097.492,-83.1 1089.5,-86.7178 1089.5,-86.7178"/>
<ellipse fill="none" stroke="#000000" cx="1086.3" cy="-86.7249" rx="3.2" ry="3.2"/>
</g>
</g>
</svg>
