<?xml version="1.0" encoding="UTF-8" standalone="no"?>
<!DOCTYPE svg PUBLIC "-//W3C//DTD SVG 1.1//EN"
 "http://www.w3.org/Graphics/SVG/1.1/DTD/svg11.dtd">
<!-- Generated by graphviz version 2.40.1 (20161225.0304)
 -->
<!-- Title: twoDegreesRelationshipsDiagram Pages: 1 -->
<svg width="1753pt" height="802pt"
 viewBox="0.00 0.00 1753.00 802.20" xmlns="http://www.w3.org/2000/svg" xmlns:xlink="http://www.w3.org/1999/xlink">
<g id="graph0" class="graph" transform="scale(1 1) rotate(0) translate(4 798.2)">
<title>twoDegreesRelationshipsDiagram</title>
<polygon fill="#ffffff" stroke="transparent" points="-4,4 -4,-798.2 1749,-798.2 1749,4 -4,4"/>
<text text-anchor="middle" x="101.8088" y="-8.8" font-family="Helvetica,sans-Serif" font-size="16.00" fill="#000000">Generated by SchemaSpy</text>
<!-- journal_entries -->
<g id="node1" class="node">
<title>journal_entries</title>
<g id="a_node1"><a xlink:href="../../tables/journal_entries.html" xlink:title="journal_entries" target="_top">
<polygon fill="#ffffff" stroke="transparent" points="1563,-642.2 1563,-721.2 1737,-721.2 1737,-642.2 1563,-642.2"/>
<polygon fill="#f5f5f5" stroke="transparent" points="1563,-691.7 1563,-720.7 1737,-720.7 1737,-691.7 1563,-691.7"/>
<polygon fill="none" stroke="#000000" points="1563,-691.7 1563,-720.7 1737,-720.7 1737,-691.7 1563,-691.7"/>
<text text-anchor="start" x="1568" y="-698.8" font-family="Helvetica,sans-Serif" font-weight="bold" font-size="16.00" fill="#000000">journal_entries</text>
<text text-anchor="start" x="1688.7136" y="-701.3" font-family="Helvetica,sans-Serif" font-size="16.00" fill="#000000">[table]</text>
<polygon fill="none" stroke="#000000" points="1563,-666.7 1563,-691.7 1737,-691.7 1737,-666.7 1563,-666.7"/>
<text text-anchor="start" x="1566" y="-674.3" font-family="Helvetica,sans-Serif" font-size="16.00" fill="#000000">...</text>
<polygon fill="#ffffff" stroke="transparent" points="1563,-641.7 1563,-666.7 1623,-666.7 1623,-641.7 1563,-641.7"/>
<polygon fill="none" stroke="#000000" points="1563,-641.7 1563,-666.7 1623,-666.7 1623,-641.7 1563,-641.7"/>
<text text-anchor="start" x="1566" y="-649.3" font-family="Helvetica,sans-Serif" font-size="16.00" fill="#000000">&lt; 3</text>
<polygon fill="#ffffff" stroke="transparent" points="1623,-641.7 1623,-666.7 1692,-666.7 1692,-641.7 1623,-641.7"/>
<polygon fill="none" stroke="#000000" points="1623,-641.7 1623,-666.7 1692,-666.7 1692,-641.7 1623,-641.7"/>
<text text-anchor="start" x="1641.888" y="-649.3" font-family="Helvetica,sans-Serif" font-size="16.00" fill="#000000">2 rows</text>
<polygon fill="#ffffff" stroke="transparent" points="1692,-641.7 1692,-666.7 1737,-666.7 1737,-641.7 1692,-641.7"/>
<polygon fill="none" stroke="#000000" points="1692,-641.7 1692,-666.7 1737,-666.7 1737,-641.7 1692,-641.7"/>
<text text-anchor="start" x="1711.3168" y="-649.3" font-family="Helvetica,sans-Serif" font-size="16.00" fill="#000000">1 &gt;</text>
</a>
</g>
</g>
<!-- locations_cities -->
<g id="node2" class="node">
<title>locations_cities</title>
<g id="a_node2"><a xlink:href="../../tables/locations_cities.html" xlink:title="locations_cities" target="_top">
<polygon fill="#ffffff" stroke="transparent" points="1247,-639.2 1247,-718.2 1427,-718.2 1427,-639.2 1247,-639.2"/>
<polygon fill="#f5f5f5" stroke="transparent" points="1247,-688.7 1247,-717.7 1427,-717.7 1427,-688.7 1247,-688.7"/>
<polygon fill="none" stroke="#000000" points="1247,-688.7 1247,-717.7 1427,-717.7 1427,-688.7 1247,-688.7"/>
<text text-anchor="start" x="1252" y="-695.8" font-family="Helvetica,sans-Serif" font-weight="bold" font-size="16.00" fill="#000000">locations_cities</text>
<text text-anchor="start" x="1378.7136" y="-698.3" font-family="Helvetica,sans-Serif" font-size="16.00" fill="#000000">[table]</text>
<polygon fill="none" stroke="#000000" points="1247,-663.7 1247,-688.7 1427,-688.7 1427,-663.7 1247,-663.7"/>
<text text-anchor="start" x="1250" y="-671.3" font-family="Helvetica,sans-Serif" font-size="16.00" fill="#000000">...</text>
<polygon fill="#ffffff" stroke="transparent" points="1247,-638.7 1247,-663.7 1286,-663.7 1286,-638.7 1247,-638.7"/>
<polygon fill="none" stroke="#000000" points="1247,-638.7 1247,-663.7 1286,-663.7 1286,-638.7 1247,-638.7"/>
<text text-anchor="start" x="1250" y="-646.3" font-family="Helvetica,sans-Serif" font-size="16.00" fill="#000000">&lt; 4</text>
<polygon fill="#ffffff" stroke="transparent" points="1286,-638.7 1286,-663.7 1393,-663.7 1393,-638.7 1286,-638.7"/>
<polygon fill="none" stroke="#000000" points="1286,-638.7 1286,-663.7 1393,-663.7 1393,-638.7 1286,-638.7"/>
<text text-anchor="start" x="1293.9696" y="-646.3" font-family="Helvetica,sans-Serif" font-size="16.00" fill="#000000">210,698 rows</text>
<polygon fill="#ffffff" stroke="transparent" points="1393,-638.7 1393,-663.7 1427,-663.7 1427,-638.7 1393,-638.7"/>
<polygon fill="none" stroke="#000000" points="1393,-638.7 1393,-663.7 1427,-663.7 1427,-638.7 1393,-638.7"/>
<text text-anchor="start" x="1401.3168" y="-646.3" font-family="Helvetica,sans-Serif" font-size="16.00" fill="#000000">1 &gt;</text>
</a>
</g>
</g>
<!-- journal_entries&#45;&gt;locations_cities -->
<g id="edge1" class="edge">
<title>journal_entries:w&#45;&gt;locations_cities:e</title>
<path fill="none" stroke="#000000" d="M1548.3632,-678.7C1510.5431,-678.7 1470.2905,-678.7 1435.1717,-678.7"/>
<polygon fill="#000000" stroke="#000000" points="1555,-678.7001 1563,-682.3 1559,-678.7 1563,-678.7 1563,-678.7 1563,-678.7 1559,-678.7 1563,-675.1 1555,-678.7001 1555,-678.7001"/>
<ellipse fill="none" stroke="#000000" cx="1551.8" cy="-678.7001" rx="3.2" ry="3.2"/>
</g>
<!-- locations_administrative_divisions_1 -->
<g id="node3" class="node">
<title>locations_administrative_divisions_1</title>
<g id="a_node3"><a xlink:href="../../tables/locations_administrative_divisions_1.html" xlink:title="locations_administrative_divisions_1" target="_top">
<polygon fill="#ffffff" stroke="transparent" points="757,-550.2 757,-629.2 1111,-629.2 1111,-550.2 757,-550.2"/>
<polygon fill="#f5f5f5" stroke="transparent" points="757,-599.7 757,-628.7 1111,-628.7 1111,-599.7 757,-599.7"/>
<polygon fill="none" stroke="#000000" points="757,-599.7 757,-628.7 1111,-628.7 1111,-599.7 757,-599.7"/>
<text text-anchor="start" x="762" y="-606.8" font-family="Helvetica,sans-Serif" font-weight="bold" font-size="16.00" fill="#000000">locations_administrative_divisions_1</text>
<text text-anchor="start" x="1062.7136" y="-609.3" font-family="Helvetica,sans-Serif" font-size="16.00" fill="#000000">[table]</text>
<polygon fill="none" stroke="#000000" points="757,-574.7 757,-599.7 1111,-599.7 1111,-574.7 757,-574.7"/>
<text text-anchor="start" x="760" y="-582.3" font-family="Helvetica,sans-Serif" font-size="16.00" fill="#000000">...</text>
<polygon fill="#ffffff" stroke="transparent" points="757,-549.7 757,-574.7 892,-574.7 892,-549.7 757,-549.7"/>
<polygon fill="none" stroke="#000000" points="757,-549.7 757,-574.7 892,-574.7 892,-549.7 757,-549.7"/>
<text text-anchor="start" x="760" y="-557.3" font-family="Helvetica,sans-Serif" font-size="16.00" fill="#000000">&lt; 1</text>
<polygon fill="#ffffff" stroke="transparent" points="892,-549.7 892,-574.7 1029,-574.7 1029,-549.7 892,-549.7"/>
<polygon fill="none" stroke="#000000" points="892,-549.7 892,-574.7 1029,-574.7 1029,-549.7 892,-549.7"/>
<text text-anchor="start" x="947.7584" y="-557.3" font-family="Helvetica,sans-Serif" font-size="16.00" fill="#000000">3,893 rows</text>
<polygon fill="#ffffff" stroke="transparent" points="1029,-549.7 1029,-574.7 1111,-574.7 1111,-549.7 1029,-549.7"/>
<polygon fill="none" stroke="#000000" points="1029,-549.7 1029,-574.7 1111,-574.7 1111,-549.7 1029,-549.7"/>
<text text-anchor="start" x="1085.3168" y="-557.3" font-family="Helvetica,sans-Serif" font-size="16.00" fill="#000000">2 &gt;</text>
</a>
</g>
</g>
<!-- locations_cities&#45;&gt;locations_administrative_divisions_1 -->
<g id="edge5" class="edge">
<title>locations_cities:w&#45;&gt;locations_administrative_divisions_1:e</title>
<path fill="none" stroke="#000000" d="M1224.6767,-653.8941C1191.9545,-646.6676 1155.3019,-638.5731 1119.3401,-630.6312"/>
<polygon fill="#000000" stroke="#000000" points="1231.1187,-655.3167 1238.1541,-660.5573 1235.0246,-656.1793 1238.9304,-657.042 1238.9304,-657.042 1238.9304,-657.042 1235.0246,-656.1793 1239.7068,-653.5267 1231.1187,-655.3167 1231.1187,-655.3167"/>
<ellipse fill="none" stroke="#000000" cx="1227.994" cy="-654.6266" rx="3.2" ry="3.2"/>
</g>
<!-- locations_countries -->
<g id="node4" class="node">
<title>locations_countries</title>
<g id="a_node4"><a xlink:href="../../tables/locations_countries.html" xlink:title="locations_countries" target="_top">
<polygon fill="#ffffff" stroke="transparent" points="280,-50.2 280,-633.2 708,-633.2 708,-50.2 280,-50.2"/>
<polygon fill="#f5f5f5" stroke="transparent" points="282,-601.7 282,-630.7 706,-630.7 706,-601.7 282,-601.7"/>
<polygon fill="none" stroke="#000000" points="282,-601.7 282,-630.7 706,-630.7 706,-601.7 282,-601.7"/>
<text text-anchor="start" x="287" y="-608.8" font-family="Helvetica,sans-Serif" font-weight="bold" font-size="16.00" fill="#000000">locations_countries</text>
<text text-anchor="start" x="657.4272" y="-611.3" font-family="Helvetica,sans-Serif" font-size="16.00" fill="#000000">[table]</text>
<polygon fill="none" stroke="#000000" points="282,-576.7 282,-601.7 524,-601.7 524,-576.7 282,-576.7"/>
<image xlink:href="../../images/primaryKeys.png" width="11px" height="12px" preserveAspectRatio="xMinYMin meet" x="287" y="-595.2"/>
<text text-anchor="start" x="302" y="-580.8" font-family="Helvetica,sans-Serif" font-size="16.00" fill="#000000">iso_country_code</text>
<polygon fill="none" stroke="#000000" points="524,-576.7 524,-601.7 706,-601.7 706,-576.7 524,-576.7"/>
<text text-anchor="start" x="527" y="-584.3" font-family="Helvetica,sans-Serif" font-size="16.00" fill="#000000">text[2000000000]</text>
<polygon fill="#ffffff" stroke="transparent" points="282,-551.7 282,-576.7 524,-576.7 524,-551.7 282,-551.7"/>
<polygon fill="none" stroke="#000000" points="282,-551.7 282,-576.7 524,-576.7 524,-551.7 282,-551.7"/>
<text text-anchor="start" x="302" y="-555.8" font-family="Helvetica,sans-Serif" font-size="16.00" fill="#000000">iso_3_country_code</text>
<polygon fill="none" stroke="#000000" points="524,-551.7 524,-576.7 706,-576.7 706,-551.7 524,-551.7"/>
<text text-anchor="start" x="527" y="-559.3" font-family="Helvetica,sans-Serif" font-size="16.00" fill="#000000">text[2000000000]</text>
<polygon fill="#ffffff" stroke="transparent" points="282,-526.7 282,-551.7 524,-551.7 524,-526.7 282,-526.7"/>
<polygon fill="none" stroke="#000000" points="282,-526.7 282,-551.7 524,-551.7 524,-526.7 282,-526.7"/>
<text text-anchor="start" x="302" y="-530.8" font-family="Helvetica,sans-Serif" font-size="16.00" fill="#000000">iso_numeric_country_code</text>
<polygon fill="none" stroke="#000000" points="524,-526.7 524,-551.7 706,-551.7 706,-526.7 524,-526.7"/>
<text text-anchor="start" x="527" y="-534.3" font-family="Helvetica,sans-Serif" font-size="16.00" fill="#000000">integer[2000000000]</text>
<polygon fill="none" stroke="#000000" points="282,-501.7 282,-526.7 524,-526.7 524,-501.7 282,-501.7"/>
<text text-anchor="start" x="302" y="-505.8" font-family="Helvetica,sans-Serif" font-size="16.00" fill="#000000">fips_country_code</text>
<polygon fill="none" stroke="#000000" points="524,-501.7 524,-526.7 706,-526.7 706,-501.7 524,-501.7"/>
<text text-anchor="start" x="527" y="-509.3" font-family="Helvetica,sans-Serif" font-size="16.00" fill="#000000">text[2000000000]</text>
<polygon fill="#ffffff" stroke="transparent" points="282,-476.7 282,-501.7 524,-501.7 524,-476.7 282,-476.7"/>
<polygon fill="none" stroke="#000000" points="282,-476.7 282,-501.7 524,-501.7 524,-476.7 282,-476.7"/>
<text text-anchor="start" x="302" y="-480.8" font-family="Helvetica,sans-Serif" font-size="16.00" fill="#000000">country_name</text>
<polygon fill="none" stroke="#000000" points="524,-476.7 524,-501.7 706,-501.7 706,-476.7 524,-476.7"/>
<text text-anchor="start" x="527" y="-484.3" font-family="Helvetica,sans-Serif" font-size="16.00" fill="#000000">text[2000000000]</text>
<polygon fill="none" stroke="#000000" points="282,-451.7 282,-476.7 524,-476.7 524,-451.7 282,-451.7"/>
<text text-anchor="start" x="302" y="-455.8" font-family="Helvetica,sans-Serif" font-size="16.00" fill="#000000">capital</text>
<polygon fill="none" stroke="#000000" points="524,-451.7 524,-476.7 706,-476.7 706,-451.7 524,-451.7"/>
<text text-anchor="start" x="527" y="-459.3" font-family="Helvetica,sans-Serif" font-size="16.00" fill="#000000">text[2000000000]</text>
<polygon fill="#ffffff" stroke="transparent" points="282,-426.7 282,-451.7 524,-451.7 524,-426.7 282,-426.7"/>
<polygon fill="none" stroke="#000000" points="282,-426.7 282,-451.7 524,-451.7 524,-426.7 282,-426.7"/>
<text text-anchor="start" x="302" y="-430.8" font-family="Helvetica,sans-Serif" font-size="16.00" fill="#000000">area</text>
<polygon fill="none" stroke="#000000" points="524,-426.7 524,-451.7 706,-451.7 706,-426.7 524,-426.7"/>
<text text-anchor="start" x="526.5208" y="-434.3" font-family="Helvetica,sans-Serif" font-size="16.00" fill="#000000">numeric[2000000000,10]</text>
<polygon fill="#ffffff" stroke="transparent" points="282,-401.7 282,-426.7 524,-426.7 524,-401.7 282,-401.7"/>
<polygon fill="none" stroke="#000000" points="282,-401.7 282,-426.7 524,-426.7 524,-401.7 282,-401.7"/>
<text text-anchor="start" x="302" y="-405.8" font-family="Helvetica,sans-Serif" font-size="16.00" fill="#000000">population</text>
<polygon fill="none" stroke="#000000" points="524,-401.7 524,-426.7 706,-426.7 706,-401.7 524,-401.7"/>
<text text-anchor="start" x="527" y="-409.3" font-family="Helvetica,sans-Serif" font-size="16.00" fill="#000000">integer[2000000000]</text>
<polygon fill="#ffffff" stroke="transparent" points="282,-376.7 282,-401.7 524,-401.7 524,-376.7 282,-376.7"/>
<polygon fill="none" stroke="#000000" points="282,-376.7 282,-401.7 524,-401.7 524,-376.7 282,-376.7"/>
<image xlink:href="../../images/foreignKeys.png" width="11px" height="12px" preserveAspectRatio="xMinYMin meet" x="287" y="-395.2"/>
<text text-anchor="start" x="302" y="-380.8" font-family="Helvetica,sans-Serif" font-size="16.00" fill="#000000">continent_code</text>
<polygon fill="none" stroke="#000000" points="524,-376.7 524,-401.7 706,-401.7 706,-376.7 524,-376.7"/>
<text text-anchor="start" x="527" y="-384.3" font-family="Helvetica,sans-Serif" font-size="16.00" fill="#000000">text[2000000000]</text>
<polygon fill="#ffffff" stroke="transparent" points="282,-351.7 282,-376.7 524,-376.7 524,-351.7 282,-351.7"/>
<polygon fill="none" stroke="#000000" points="282,-351.7 282,-376.7 524,-376.7 524,-351.7 282,-351.7"/>
<text text-anchor="start" x="302" y="-355.8" font-family="Helvetica,sans-Serif" font-size="16.00" fill="#000000">tld</text>
<polygon fill="none" stroke="#000000" points="524,-351.7 524,-376.7 706,-376.7 706,-351.7 524,-351.7"/>
<text text-anchor="start" x="527" y="-359.3" font-family="Helvetica,sans-Serif" font-size="16.00" fill="#000000">text[2000000000]</text>
<polygon fill="#ffffff" stroke="transparent" points="282,-326.7 282,-351.7 524,-351.7 524,-326.7 282,-326.7"/>
<polygon fill="none" stroke="#000000" points="282,-326.7 282,-351.7 524,-351.7 524,-326.7 282,-326.7"/>
<text text-anchor="start" x="302" y="-330.8" font-family="Helvetica,sans-Serif" font-size="16.00" fill="#000000">currency_code</text>
<polygon fill="none" stroke="#000000" points="524,-326.7 524,-351.7 706,-351.7 706,-326.7 524,-326.7"/>
<text text-anchor="start" x="527" y="-334.3" font-family="Helvetica,sans-Serif" font-size="16.00" fill="#000000">text[2000000000]</text>
<polygon fill="none" stroke="#000000" points="282,-301.7 282,-326.7 524,-326.7 524,-301.7 282,-301.7"/>
<text text-anchor="start" x="302" y="-305.8" font-family="Helvetica,sans-Serif" font-size="16.00" fill="#000000">currency_name</text>
<polygon fill="none" stroke="#000000" points="524,-301.7 524,-326.7 706,-326.7 706,-301.7 524,-301.7"/>
<text text-anchor="start" x="527" y="-309.3" font-family="Helvetica,sans-Serif" font-size="16.00" fill="#000000">text[2000000000]</text>
<polygon fill="none" stroke="#000000" points="282,-276.7 282,-301.7 524,-301.7 524,-276.7 282,-276.7"/>
<text text-anchor="start" x="302" y="-280.8" font-family="Helvetica,sans-Serif" font-size="16.00" fill="#000000">phone</text>
<polygon fill="none" stroke="#000000" points="524,-276.7 524,-301.7 706,-301.7 706,-276.7 524,-276.7"/>
<text text-anchor="start" x="527" y="-284.3" font-family="Helvetica,sans-Serif" font-size="16.00" fill="#000000">text[2000000000]</text>
<polygon fill="none" stroke="#000000" points="282,-251.7 282,-276.7 524,-276.7 524,-251.7 282,-251.7"/>
<text text-anchor="start" x="302" y="-255.8" font-family="Helvetica,sans-Serif" font-size="16.00" fill="#000000">postal_code_format</text>
<polygon fill="none" stroke="#000000" points="524,-251.7 524,-276.7 706,-276.7 706,-251.7 524,-251.7"/>
<text text-anchor="start" x="527" y="-259.3" font-family="Helvetica,sans-Serif" font-size="16.00" fill="#000000">text[2000000000]</text>
<polygon fill="none" stroke="#000000" points="282,-226.7 282,-251.7 524,-251.7 524,-226.7 282,-226.7"/>
<text text-anchor="start" x="302" y="-230.8" font-family="Helvetica,sans-Serif" font-size="16.00" fill="#000000">postal_code_regex</text>
<polygon fill="none" stroke="#000000" points="524,-226.7 524,-251.7 706,-251.7 706,-226.7 524,-226.7"/>
<text text-anchor="start" x="527" y="-234.3" font-family="Helvetica,sans-Serif" font-size="16.00" fill="#000000">text[2000000000]</text>
<polygon fill="none" stroke="#000000" points="282,-201.7 282,-226.7 524,-226.7 524,-201.7 282,-201.7"/>
<text text-anchor="start" x="302" y="-205.8" font-family="Helvetica,sans-Serif" font-size="16.00" fill="#000000">languages</text>
<polygon fill="none" stroke="#000000" points="524,-201.7 524,-226.7 706,-226.7 706,-201.7 524,-201.7"/>
<text text-anchor="start" x="527" y="-209.3" font-family="Helvetica,sans-Serif" font-size="16.00" fill="#000000">text[2000000000]</text>
<polygon fill="#ffffff" stroke="transparent" points="282,-176.7 282,-201.7 524,-201.7 524,-176.7 282,-176.7"/>
<polygon fill="none" stroke="#000000" points="282,-176.7 282,-201.7 524,-201.7 524,-176.7 282,-176.7"/>
<text text-anchor="start" x="302" y="-180.8" font-family="Helvetica,sans-Serif" font-size="16.00" fill="#000000">geoname_id</text>
<polygon fill="none" stroke="#000000" points="524,-176.7 524,-201.7 706,-201.7 706,-176.7 524,-176.7"/>
<text text-anchor="start" x="527" y="-184.3" font-family="Helvetica,sans-Serif" font-size="16.00" fill="#000000">integer[2000000000]</text>
<polygon fill="none" stroke="#000000" points="282,-151.7 282,-176.7 524,-176.7 524,-151.7 282,-151.7"/>
<text text-anchor="start" x="302" y="-155.8" font-family="Helvetica,sans-Serif" font-size="16.00" fill="#000000">neighbours</text>
<polygon fill="none" stroke="#000000" points="524,-151.7 524,-176.7 706,-176.7 706,-151.7 524,-151.7"/>
<text text-anchor="start" x="527" y="-159.3" font-family="Helvetica,sans-Serif" font-size="16.00" fill="#000000">text[2000000000]</text>
<polygon fill="none" stroke="#000000" points="282,-126.7 282,-151.7 524,-151.7 524,-126.7 282,-126.7"/>
<text text-anchor="start" x="302" y="-130.8" font-family="Helvetica,sans-Serif" font-size="16.00" fill="#000000">equivalent_fips_code</text>
<polygon fill="none" stroke="#000000" points="524,-126.7 524,-151.7 706,-151.7 706,-126.7 524,-126.7"/>
<text text-anchor="start" x="527" y="-134.3" font-family="Helvetica,sans-Serif" font-size="16.00" fill="#000000">text[2000000000]</text>
<polygon fill="none" stroke="#000000" points="282,-101.7 282,-126.7 524,-126.7 524,-101.7 282,-101.7"/>
<text text-anchor="start" x="302" y="-105.8" font-family="Helvetica,sans-Serif" font-size="16.00" fill="#000000">inserted_at</text>
<polygon fill="none" stroke="#000000" points="524,-101.7 524,-126.7 706,-126.7 706,-101.7 524,-101.7"/>
<text text-anchor="start" x="527" y="-109.3" font-family="Helvetica,sans-Serif" font-size="16.00" fill="#000000">text[2000000000]</text>
<polygon fill="none" stroke="#000000" points="282,-76.7 282,-101.7 524,-101.7 524,-76.7 282,-76.7"/>
<text text-anchor="start" x="302" y="-80.8" font-family="Helvetica,sans-Serif" font-size="16.00" fill="#000000">updated_at</text>
<polygon fill="none" stroke="#000000" points="524,-76.7 524,-101.7 706,-101.7 706,-76.7 524,-76.7"/>
<text text-anchor="start" x="527" y="-84.3" font-family="Helvetica,sans-Serif" font-size="16.00" fill="#000000">text[2000000000]</text>
<polygon fill="#ffffff" stroke="transparent" points="282,-51.7 282,-76.7 382,-76.7 382,-51.7 282,-51.7"/>
<polygon fill="none" stroke="#000000" points="282,-51.7 282,-76.7 382,-76.7 382,-51.7 282,-51.7"/>
<text text-anchor="start" x="285" y="-59.3" font-family="Helvetica,sans-Serif" font-size="16.00" fill="#000000">&lt; 1</text>
<polygon fill="#ffffff" stroke="transparent" points="382,-51.7 382,-76.7 524,-76.7 524,-51.7 382,-51.7"/>
<polygon fill="none" stroke="#000000" points="382,-51.7 382,-76.7 524,-76.7 524,-51.7 382,-51.7"/>
<text text-anchor="start" x="456.0992" y="-59.3" font-family="Helvetica,sans-Serif" font-size="16.00" fill="#000000">252 rows</text>
<polygon fill="#ffffff" stroke="transparent" points="524,-51.7 524,-76.7 706,-76.7 706,-51.7 524,-51.7"/>
<polygon fill="none" stroke="#000000" points="524,-51.7 524,-76.7 706,-76.7 706,-51.7 524,-51.7"/>
<text text-anchor="start" x="680.3168" y="-59.3" font-family="Helvetica,sans-Serif" font-size="16.00" fill="#000000">3 &gt;</text>
<polygon fill="none" stroke="#000000" stroke-width="2" points="281,-51.2 281,-632.2 707,-632.2 707,-51.2 281,-51.2"/>
</a>
</g>
</g>
<!-- locations_cities&#45;&gt;locations_countries -->
<g id="edge6" class="edge">
<title>locations_cities:w&#45;&gt;locations_countries:e</title>
<path fill="none" stroke="#000000" d="M1224.2425,-672.3201C1056.4499,-662.6723 759.4854,-644.9391 749,-639.7 722.781,-626.5994 735.3098,-589.7 706,-589.7"/>
<polygon fill="#000000" stroke="#000000" points="1230.8356,-672.6984 1238.6162,-676.7509 1234.829,-672.9276 1238.8224,-673.1568 1238.8224,-673.1568 1238.8224,-673.1568 1234.829,-672.9276 1239.0287,-669.5627 1230.8356,-672.6984 1230.8356,-672.6984"/>
<ellipse fill="none" stroke="#000000" cx="1227.6408" cy="-672.5151" rx="3.2" ry="3.2"/>
</g>
<!-- locations_feature_classes -->
<g id="node6" class="node">
<title>locations_feature_classes</title>
<g id="a_node6"><a xlink:href="../../tables/locations_feature_classes.html" xlink:title="locations_feature_classes" target="_top">
<polygon fill="#ffffff" stroke="transparent" points="362,-711.2 362,-790.2 626,-790.2 626,-711.2 362,-711.2"/>
<polygon fill="#f5f5f5" stroke="transparent" points="362,-760.7 362,-789.7 626,-789.7 626,-760.7 362,-760.7"/>
<polygon fill="none" stroke="#000000" points="362,-760.7 362,-789.7 626,-789.7 626,-760.7 362,-760.7"/>
<text text-anchor="start" x="367" y="-767.8" font-family="Helvetica,sans-Serif" font-weight="bold" font-size="16.00" fill="#000000">locations_feature_classes</text>
<text text-anchor="start" x="577.7136" y="-770.3" font-family="Helvetica,sans-Serif" font-size="16.00" fill="#000000">[table]</text>
<polygon fill="none" stroke="#000000" points="362,-735.7 362,-760.7 626,-760.7 626,-735.7 362,-735.7"/>
<text text-anchor="start" x="365" y="-743.3" font-family="Helvetica,sans-Serif" font-size="16.00" fill="#000000">...</text>
<polygon fill="#ffffff" stroke="transparent" points="362,-710.7 362,-735.7 460,-735.7 460,-710.7 362,-710.7"/>
<polygon fill="none" stroke="#000000" points="362,-710.7 362,-735.7 460,-735.7 460,-710.7 362,-710.7"/>
<text text-anchor="start" x="365" y="-718.3" font-family="Helvetica,sans-Serif" font-size="16.00" fill="#000000"> &#160;</text>
<polygon fill="#ffffff" stroke="transparent" points="460,-710.7 460,-735.7 555,-735.7 555,-710.7 460,-710.7"/>
<polygon fill="none" stroke="#000000" points="460,-710.7 460,-735.7 555,-735.7 555,-710.7 460,-710.7"/>
<text text-anchor="start" x="504.888" y="-718.3" font-family="Helvetica,sans-Serif" font-size="16.00" fill="#000000">9 rows</text>
<polygon fill="#ffffff" stroke="transparent" points="555,-710.7 555,-735.7 626,-735.7 626,-710.7 555,-710.7"/>
<polygon fill="none" stroke="#000000" points="555,-710.7 555,-735.7 626,-735.7 626,-710.7 555,-710.7"/>
<text text-anchor="start" x="600.3168" y="-718.3" font-family="Helvetica,sans-Serif" font-size="16.00" fill="#000000">2 &gt;</text>
</a>
</g>
</g>
<!-- locations_cities&#45;&gt;locations_feature_classes -->
<g id="edge7" class="edge">
<title>locations_cities:w&#45;&gt;locations_feature_classes:e</title>
<path fill="none" stroke="#000000" d="M1238.9166,-728.1803C1202.2543,-744.1226 1159.6394,-759.7239 1119,-767.7 957.6341,-799.3705 912.9106,-780.9391 749,-767.7 693.7952,-763.2411 681.3846,-747.7 626,-747.7"/>
<polygon fill="#000000" stroke="#000000" points="1244.8289,-725.5534 1253.6016,-725.5948 1248.4844,-723.9292 1252.1398,-722.305 1252.1398,-722.305 1252.1398,-722.305 1248.4844,-723.9292 1250.678,-719.0151 1244.8289,-725.5534 1244.8289,-725.5534"/>
<ellipse fill="none" stroke="#000000" cx="1241.9046" cy="-726.8527" rx="3.2" ry="3.2"/>
</g>
<!-- locations_feature_codes -->
<g id="node7" class="node">
<title>locations_feature_codes</title>
<g id="a_node7"><a xlink:href="../../tables/locations_feature_codes.html" xlink:title="locations_feature_codes" target="_top">
<polygon fill="#ffffff" stroke="transparent" points="808,-678.2 808,-757.2 1060,-757.2 1060,-678.2 808,-678.2"/>
<polygon fill="#f5f5f5" stroke="transparent" points="808,-727.7 808,-756.7 1060,-756.7 1060,-727.7 808,-727.7"/>
<polygon fill="none" stroke="#000000" points="808,-727.7 808,-756.7 1060,-756.7 1060,-727.7 808,-727.7"/>
<text text-anchor="start" x="813" y="-734.8" font-family="Helvetica,sans-Serif" font-weight="bold" font-size="16.00" fill="#000000">locations_feature_codes</text>
<text text-anchor="start" x="1011.7136" y="-737.3" font-family="Helvetica,sans-Serif" font-size="16.00" fill="#000000">[table]</text>
<polygon fill="none" stroke="#000000" points="808,-702.7 808,-727.7 1060,-727.7 1060,-702.7 808,-702.7"/>
<text text-anchor="start" x="811" y="-710.3" font-family="Helvetica,sans-Serif" font-size="16.00" fill="#000000">...</text>
<polygon fill="#ffffff" stroke="transparent" points="808,-677.7 808,-702.7 899,-702.7 899,-677.7 808,-677.7"/>
<polygon fill="none" stroke="#000000" points="808,-677.7 808,-702.7 899,-702.7 899,-677.7 808,-677.7"/>
<text text-anchor="start" x="811" y="-685.3" font-family="Helvetica,sans-Serif" font-size="16.00" fill="#000000">&lt; 1</text>
<polygon fill="#ffffff" stroke="transparent" points="899,-677.7 899,-702.7 1000,-702.7 1000,-677.7 899,-677.7"/>
<polygon fill="none" stroke="#000000" points="899,-677.7 899,-702.7 1000,-702.7 1000,-677.7 899,-677.7"/>
<text text-anchor="start" x="932.0992" y="-685.3" font-family="Helvetica,sans-Serif" font-size="16.00" fill="#000000">684 rows</text>
<polygon fill="#ffffff" stroke="transparent" points="1000,-677.7 1000,-702.7 1060,-702.7 1060,-677.7 1000,-677.7"/>
<polygon fill="none" stroke="#000000" points="1000,-677.7 1000,-702.7 1060,-702.7 1060,-677.7 1000,-677.7"/>
<text text-anchor="start" x="1034.3168" y="-685.3" font-family="Helvetica,sans-Serif" font-size="16.00" fill="#000000">1 &gt;</text>
</a>
</g>
</g>
<!-- locations_cities&#45;&gt;locations_feature_codes -->
<g id="edge8" class="edge">
<title>locations_cities:w&#45;&gt;locations_feature_codes:e</title>
<path fill="none" stroke="#000000" d="M1224.1543,-700.068C1174.0686,-707.8156 1114.2895,-714.7 1060,-714.7"/>
<polygon fill="#000000" stroke="#000000" points="1230.788,-699.0119 1239.2546,-701.3094 1234.7383,-698.383 1238.6886,-697.7542 1238.6886,-697.7542 1238.6886,-697.7542 1234.7383,-698.383 1238.1226,-694.1989 1230.788,-699.0119 1230.788,-699.0119"/>
<ellipse fill="none" stroke="#000000" cx="1227.6278" cy="-699.5151" rx="3.2" ry="3.2"/>
</g>
<!-- locations_administrative_divisions_1&#45;&gt;locations_countries -->
<g id="edge2" class="edge">
<title>locations_administrative_divisions_1:w&#45;&gt;locations_countries:e</title>
<path fill="none" stroke="#000000" d="M734.3165,-589.7C724.7433,-589.7 715.2657,-589.7 706,-589.7"/>
<polygon fill="#000000" stroke="#000000" points="740.9035,-589.7001 748.9035,-593.3 744.9035,-589.7 748.9035,-589.7 748.9035,-589.7 748.9035,-589.7 744.9035,-589.7 748.9035,-586.1 740.9035,-589.7001 740.9035,-589.7001"/>
<ellipse fill="none" stroke="#000000" cx="737.7035" cy="-589.7001" rx="3.2" ry="3.2"/>
</g>
<!-- locations_continents -->
<g id="node8" class="node">
<title>locations_continents</title>
<g id="a_node8"><a xlink:href="../../tables/locations_continents.html" xlink:title="locations_continents" target="_top">
<polygon fill="#ffffff" stroke="transparent" points="8,-307.2 8,-430.2 231,-430.2 231,-307.2 8,-307.2"/>
<polygon fill="#f5f5f5" stroke="transparent" points="8.5,-400.7 8.5,-429.7 231.5,-429.7 231.5,-400.7 8.5,-400.7"/>
<polygon fill="none" stroke="#000000" points="8.5,-400.7 8.5,-429.7 231.5,-429.7 231.5,-400.7 8.5,-400.7"/>
<text text-anchor="start" x="13.5" y="-407.8" font-family="Helvetica,sans-Serif" font-weight="bold" font-size="16.00" fill="#000000">locations_continents</text>
<text text-anchor="start" x="183.2136" y="-410.3" font-family="Helvetica,sans-Serif" font-size="16.00" fill="#000000">[table]</text>
<polygon fill="none" stroke="#000000" points="8.5,-378.7 8.5,-400.7 231.5,-400.7 231.5,-378.7 8.5,-378.7"/>
<image xlink:href="../../images/primaryKeys.png" width="11px" height="12px" preserveAspectRatio="xMinYMin meet" x="13.5" y="-395.7"/>
<text text-anchor="start" x="44.5" y="-381.3" font-family="Helvetica,sans-Serif" font-size="16.00" fill="#000000">continent_code</text>
<polygon fill="#ffffff" stroke="transparent" points="8.5,-356.7 8.5,-378.7 231.5,-378.7 231.5,-356.7 8.5,-356.7"/>
<polygon fill="none" stroke="#000000" points="8.5,-356.7 8.5,-378.7 231.5,-378.7 231.5,-356.7 8.5,-356.7"/>
<text text-anchor="start" x="44.5" y="-359.3" font-family="Helvetica,sans-Serif" font-size="16.00" fill="#000000">continent_name</text>
<polygon fill="none" stroke="#000000" points="8.5,-331.7 8.5,-356.7 231.5,-356.7 231.5,-331.7 8.5,-331.7"/>
<text text-anchor="start" x="11.5" y="-339.3" font-family="Helvetica,sans-Serif" font-size="16.00" fill="#000000">...</text>
<polygon fill="#ffffff" stroke="transparent" points="8.5,-306.7 8.5,-331.7 86.5,-331.7 86.5,-306.7 8.5,-306.7"/>
<polygon fill="none" stroke="#000000" points="8.5,-306.7 8.5,-331.7 86.5,-331.7 86.5,-306.7 8.5,-306.7"/>
<text text-anchor="start" x="11.5" y="-314.3" font-family="Helvetica,sans-Serif" font-size="16.00" fill="#000000"> &#160;</text>
<polygon fill="#ffffff" stroke="transparent" points="86.5,-306.7 86.5,-331.7 171.5,-331.7 171.5,-306.7 86.5,-306.7"/>
<polygon fill="none" stroke="#000000" points="86.5,-306.7 86.5,-331.7 171.5,-331.7 171.5,-306.7 86.5,-306.7"/>
<text text-anchor="start" x="121.388" y="-314.3" font-family="Helvetica,sans-Serif" font-size="16.00" fill="#000000">7 rows</text>
<polygon fill="#ffffff" stroke="transparent" points="171.5,-306.7 171.5,-331.7 231.5,-331.7 231.5,-306.7 171.5,-306.7"/>
<polygon fill="none" stroke="#000000" points="171.5,-306.7 171.5,-331.7 231.5,-331.7 231.5,-306.7 171.5,-306.7"/>
<text text-anchor="start" x="205.8168" y="-314.3" font-family="Helvetica,sans-Serif" font-size="16.00" fill="#000000">1 &gt;</text>
</a>
</g>
</g>
<!-- locations_countries&#45;&gt;locations_continents -->
<g id="edge9" class="edge">
<title>locations_countries:w&#45;&gt;locations_continents:e</title>
<path fill="none" stroke="#000000" d="M267.4203,-389.7C255.5435,-389.7 248.158,-389.7 231.5,-389.7"/>
<polygon fill="#000000" stroke="#000000" points="274,-389.7001 282,-393.3 278,-389.7 282,-389.7 282,-389.7 282,-389.7 278,-389.7 282,-386.1 274,-389.7001 274,-389.7001"/>
<ellipse fill="none" stroke="#000000" cx="270.8" cy="-389.7001" rx="3.2" ry="3.2"/>
</g>
<!-- locations_administrative_divisions_2 -->
<g id="node5" class="node">
<title>locations_administrative_divisions_2</title>
<g id="a_node5"><a xlink:href="../../tables/locations_administrative_divisions_2.html" xlink:title="locations_administrative_divisions_2" target="_top">
<polygon fill="#ffffff" stroke="transparent" points="1160,-525.2 1160,-604.2 1514,-604.2 1514,-525.2 1160,-525.2"/>
<polygon fill="#f5f5f5" stroke="transparent" points="1160,-574.7 1160,-603.7 1514,-603.7 1514,-574.7 1160,-574.7"/>
<polygon fill="none" stroke="#000000" points="1160,-574.7 1160,-603.7 1514,-603.7 1514,-574.7 1160,-574.7"/>
<text text-anchor="start" x="1165" y="-581.8" font-family="Helvetica,sans-Serif" font-weight="bold" font-size="16.00" fill="#000000">locations_administrative_divisions_2</text>
<text text-anchor="start" x="1465.7136" y="-584.3" font-family="Helvetica,sans-Serif" font-size="16.00" fill="#000000">[table]</text>
<polygon fill="none" stroke="#000000" points="1160,-549.7 1160,-574.7 1514,-574.7 1514,-549.7 1160,-549.7"/>
<text text-anchor="start" x="1163" y="-557.3" font-family="Helvetica,sans-Serif" font-size="16.00" fill="#000000">...</text>
<polygon fill="#ffffff" stroke="transparent" points="1160,-524.7 1160,-549.7 1297,-549.7 1297,-524.7 1160,-524.7"/>
<polygon fill="none" stroke="#000000" points="1160,-524.7 1160,-549.7 1297,-549.7 1297,-524.7 1160,-524.7"/>
<text text-anchor="start" x="1163" y="-532.3" font-family="Helvetica,sans-Serif" font-size="16.00" fill="#000000">&lt; 2</text>
<polygon fill="#ffffff" stroke="transparent" points="1297,-524.7 1297,-549.7 1445,-549.7 1445,-524.7 1297,-524.7"/>
<polygon fill="none" stroke="#000000" points="1297,-524.7 1297,-549.7 1445,-549.7 1445,-524.7 1297,-524.7"/>
<text text-anchor="start" x="1354.864" y="-532.3" font-family="Helvetica,sans-Serif" font-size="16.00" fill="#000000">47,229 rows</text>
<polygon fill="#ffffff" stroke="transparent" points="1445,-524.7 1445,-549.7 1514,-549.7 1514,-524.7 1445,-524.7"/>
<polygon fill="none" stroke="#000000" points="1445,-524.7 1445,-549.7 1514,-549.7 1514,-524.7 1445,-524.7"/>
<text text-anchor="start" x="1502.1072" y="-532.3" font-family="Helvetica,sans-Serif" font-size="16.00" fill="#000000"> &#160;</text>
</a>
</g>
</g>
<!-- locations_administrative_divisions_2&#45;&gt;locations_administrative_divisions_1 -->
<g id="edge3" class="edge">
<title>locations_administrative_divisions_2:w&#45;&gt;locations_administrative_divisions_1:e</title>
<path fill="none" stroke="#000000" d="M1137.1915,-577.0951C1131.1535,-577.4696 1125.1136,-577.8443 1119.0932,-578.2178"/>
<polygon fill="#000000" stroke="#000000" points="1143.7339,-576.6893 1151.9414,-579.787 1147.7262,-576.4416 1151.7185,-576.1939 1151.7185,-576.1939 1151.7185,-576.1939 1147.7262,-576.4416 1151.4956,-572.6008 1143.7339,-576.6893 1143.7339,-576.6893"/>
<ellipse fill="none" stroke="#000000" cx="1140.54" cy="-576.8874" rx="3.2" ry="3.2"/>
</g>
<!-- locations_administrative_divisions_2&#45;&gt;locations_countries -->
<g id="edge4" class="edge">
<title>locations_administrative_divisions_2:w&#45;&gt;locations_countries:e</title>
<path fill="none" stroke="#000000" d="M1137.3657,-540.8886C1131.1771,-540.4443 1125.0437,-540.0454 1119,-539.7 954.8235,-530.317 898.4564,-471.1087 749,-539.7 722.3616,-551.9254 735.3098,-589.7 706,-589.7"/>
<polygon fill="#000000" stroke="#000000" points="1143.9134,-541.3915 1151.6142,-545.5936 1147.9016,-541.6978 1151.8899,-542.0042 1151.8899,-542.0042 1151.8899,-542.0042 1147.9016,-541.6978 1152.1656,-538.4147 1143.9134,-541.3915 1143.9134,-541.3915"/>
<ellipse fill="none" stroke="#000000" cx="1140.7228" cy="-541.1464" rx="3.2" ry="3.2"/>
</g>
<!-- locations_feature_codes&#45;&gt;locations_feature_classes -->
<g id="edge10" class="edge">
<title>locations_feature_codes:w&#45;&gt;locations_feature_classes:e</title>
<path fill="none" stroke="#000000" d="M793.3118,-715.0706C723.3417,-718.6961 703.0698,-747.7 626,-747.7"/>
<polygon fill="#000000" stroke="#000000" points="800.0025,-714.9018 808.0908,-718.2989 804.0013,-714.8009 808,-714.7 808,-714.7 808,-714.7 804.0013,-714.8009 807.9092,-711.1011 800.0025,-714.9018 800.0025,-714.9018"/>
<ellipse fill="none" stroke="#000000" cx="796.8036" cy="-714.9826" rx="3.2" ry="3.2"/>
</g>
</g>
</svg>
