<?xml version="1.0" encoding="UTF-8" standalone="no"?>
<!DOCTYPE svg PUBLIC "-//W3C//DTD SVG 1.1//EN"
 "http://www.w3.org/Graphics/SVG/1.1/DTD/svg11.dtd">
<!-- Generated by graphviz version 2.40.1 (20161225.0304)
 -->
<!-- Title: oneDegreeRelationshipsDiagram Pages: 1 -->
<svg width="1448pt" height="800pt"
 viewBox="0.00 0.00 1448.00 799.70" xmlns="http://www.w3.org/2000/svg" xmlns:xlink="http://www.w3.org/1999/xlink">
<g id="graph0" class="graph" transform="scale(1 1) rotate(0) translate(4 795.7)">
<title>oneDegreeRelationshipsDiagram</title>
<polygon fill="#ffffff" stroke="transparent" points="-4,4 -4,-795.7 1444,-795.7 1444,4 -4,4"/>
<text text-anchor="middle" x="101.8088" y="-8.8" font-family="Helvetica,sans-Serif" font-size="16.00" fill="#000000">Generated by SchemaSpy</text>
<!-- journal_entries -->
<g id="node1" class="node">
<title>journal_entries</title>
<g id="a_node1"><a xlink:href="../../tables/journal_entries.html" xlink:title="journal_entries" target="_top">
<polygon fill="#ffffff" stroke="transparent" points="1236,-554.7 1236,-787.7 1432,-787.7 1432,-554.7 1236,-554.7"/>
<polygon fill="#f5f5f5" stroke="transparent" points="1236,-758.2 1236,-787.2 1432,-787.2 1432,-758.2 1236,-758.2"/>
<polygon fill="none" stroke="#000000" points="1236,-758.2 1236,-787.2 1432,-787.2 1432,-758.2 1236,-758.2"/>
<text text-anchor="start" x="1241" y="-765.3" font-family="Helvetica,sans-Serif" font-weight="bold" font-size="16.00" fill="#000000">journal_entries</text>
<text text-anchor="start" x="1383.4272" y="-767.8" font-family="Helvetica,sans-Serif" font-size="16.00" fill="#000000">[table]</text>
<polygon fill="none" stroke="#000000" points="1236,-736.2 1236,-758.2 1432,-758.2 1432,-736.2 1236,-736.2"/>
<image xlink:href="../../images/primaryKeys.png" width="11px" height="12px" preserveAspectRatio="xMinYMin meet" x="1241" y="-753.2"/>
<text text-anchor="start" x="1256" y="-738.8" font-family="Helvetica,sans-Serif" font-size="16.00" fill="#000000">id</text>
<polygon fill="#ffffff" stroke="transparent" points="1236,-714.2 1236,-736.2 1432,-736.2 1432,-714.2 1236,-714.2"/>
<polygon fill="none" stroke="#000000" points="1236,-714.2 1236,-736.2 1432,-736.2 1432,-714.2 1236,-714.2"/>
<text text-anchor="start" x="1256" y="-716.8" font-family="Helvetica,sans-Serif" font-size="16.00" fill="#000000">journal_for</text>
<polygon fill="#ffffff" stroke="transparent" points="1236,-692.2 1236,-714.2 1432,-714.2 1432,-692.2 1236,-692.2"/>
<polygon fill="none" stroke="#000000" points="1236,-692.2 1236,-714.2 1432,-714.2 1432,-692.2 1236,-692.2"/>
<image xlink:href="../../images/foreignKeys.png" width="11px" height="12px" preserveAspectRatio="xMinYMin meet" x="1241" y="-709.2"/>
<text text-anchor="start" x="1256" y="-694.8" font-family="Helvetica,sans-Serif" font-size="16.00" fill="#000000">entry_type_id</text>
<polygon fill="#ffffff" stroke="transparent" points="1236,-670.2 1236,-692.2 1432,-692.2 1432,-670.2 1236,-670.2"/>
<polygon fill="none" stroke="#000000" points="1236,-670.2 1236,-692.2 1432,-692.2 1432,-670.2 1236,-670.2"/>
<text text-anchor="start" x="1256" y="-672.8" font-family="Helvetica,sans-Serif" font-size="16.00" fill="#000000">is_private</text>
<polygon fill="#ffffff" stroke="transparent" points="1236,-648.2 1236,-670.2 1432,-670.2 1432,-648.2 1236,-648.2"/>
<polygon fill="none" stroke="#000000" points="1236,-648.2 1236,-670.2 1432,-670.2 1432,-648.2 1236,-648.2"/>
<image xlink:href="../../images/foreignKeys.png" width="11px" height="12px" preserveAspectRatio="xMinYMin meet" x="1241" y="-665.2"/>
<text text-anchor="start" x="1256" y="-650.8" font-family="Helvetica,sans-Serif" font-size="16.00" fill="#000000">user_id</text>
<polygon fill="#ffffff" stroke="transparent" points="1236,-626.2 1236,-648.2 1432,-648.2 1432,-626.2 1236,-626.2"/>
<polygon fill="none" stroke="#000000" points="1236,-626.2 1236,-648.2 1432,-648.2 1432,-626.2 1236,-626.2"/>
<text text-anchor="start" x="1256" y="-628.8" font-family="Helvetica,sans-Serif" font-size="16.00" fill="#000000">inserted_at</text>
<polygon fill="none" stroke="#000000" points="1236,-604.2 1236,-626.2 1432,-626.2 1432,-604.2 1236,-604.2"/>
<image xlink:href="../../images/foreignKeys.png" width="11px" height="12px" preserveAspectRatio="xMinYMin meet" x="1241" y="-621.2"/>
<text text-anchor="start" x="1256" y="-606.8" font-family="Helvetica,sans-Serif" font-size="16.00" fill="#000000">location_id</text>
<polygon fill="none" stroke="#000000" points="1236,-579.2 1236,-604.2 1432,-604.2 1432,-579.2 1236,-579.2"/>
<text text-anchor="start" x="1239" y="-586.8" font-family="Helvetica,sans-Serif" font-size="16.00" fill="#000000">...</text>
<polygon fill="#ffffff" stroke="transparent" points="1236,-554.2 1236,-579.2 1307,-579.2 1307,-554.2 1236,-554.2"/>
<polygon fill="none" stroke="#000000" points="1236,-554.2 1236,-579.2 1307,-579.2 1307,-554.2 1236,-554.2"/>
<text text-anchor="start" x="1239" y="-561.8" font-family="Helvetica,sans-Serif" font-size="16.00" fill="#000000">&lt; 3</text>
<polygon fill="#ffffff" stroke="transparent" points="1307,-554.2 1307,-579.2 1382,-579.2 1382,-554.2 1307,-554.2"/>
<polygon fill="none" stroke="#000000" points="1307,-554.2 1307,-579.2 1382,-579.2 1382,-554.2 1307,-554.2"/>
<text text-anchor="start" x="1331.888" y="-561.8" font-family="Helvetica,sans-Serif" font-size="16.00" fill="#000000">2 rows</text>
<polygon fill="#ffffff" stroke="transparent" points="1382,-554.2 1382,-579.2 1432,-579.2 1432,-554.2 1382,-554.2"/>
<polygon fill="none" stroke="#000000" points="1382,-554.2 1382,-579.2 1432,-579.2 1432,-554.2 1382,-554.2"/>
<text text-anchor="start" x="1406.3168" y="-561.8" font-family="Helvetica,sans-Serif" font-size="16.00" fill="#000000">1 &gt;</text>
</a>
</g>
</g>
<!-- locations_cities -->
<g id="node2" class="node">
<title>locations_cities</title>
<g id="a_node2"><a xlink:href="../../tables/locations_cities.html" xlink:title="locations_cities" target="_top">
<polygon fill="#ffffff" stroke="transparent" points="724,-50.2 724,-658.2 1187,-658.2 1187,-50.2 724,-50.2"/>
<polygon fill="#f5f5f5" stroke="transparent" points="726.5,-627.2 726.5,-656.2 1185.5,-656.2 1185.5,-627.2 726.5,-627.2"/>
<polygon fill="none" stroke="#000000" points="726.5,-627.2 726.5,-656.2 1185.5,-656.2 1185.5,-627.2 726.5,-627.2"/>
<text text-anchor="start" x="731.5" y="-634.3" font-family="Helvetica,sans-Serif" font-weight="bold" font-size="16.00" fill="#000000">locations_cities</text>
<text text-anchor="start" x="1136.9272" y="-636.8" font-family="Helvetica,sans-Serif" font-size="16.00" fill="#000000">[table]</text>
<polygon fill="none" stroke="#000000" points="726.5,-602.2 726.5,-627.2 1003.5,-627.2 1003.5,-602.2 726.5,-602.2"/>
<image xlink:href="../../images/primaryKeys.png" width="11px" height="12px" preserveAspectRatio="xMinYMin meet" x="731.5" y="-620.7"/>
<text text-anchor="start" x="746.5" y="-606.3" font-family="Helvetica,sans-Serif" font-size="16.00" fill="#000000">id</text>
<polygon fill="none" stroke="#000000" points="1003.5,-602.2 1003.5,-627.2 1185.5,-627.2 1185.5,-602.2 1003.5,-602.2"/>
<text text-anchor="start" x="1006.5" y="-609.8" font-family="Helvetica,sans-Serif" font-size="16.00" fill="#000000">text[2000000000]</text>
<polygon fill="#ffffff" stroke="transparent" points="726.5,-577.2 726.5,-602.2 1003.5,-602.2 1003.5,-577.2 726.5,-577.2"/>
<polygon fill="none" stroke="#000000" points="726.5,-577.2 726.5,-602.2 1003.5,-602.2 1003.5,-577.2 726.5,-577.2"/>
<text text-anchor="start" x="746.5" y="-581.3" font-family="Helvetica,sans-Serif" font-size="16.00" fill="#000000">geoname_id</text>
<polygon fill="none" stroke="#000000" points="1003.5,-577.2 1003.5,-602.2 1185.5,-602.2 1185.5,-577.2 1003.5,-577.2"/>
<text text-anchor="start" x="1006.5" y="-584.8" font-family="Helvetica,sans-Serif" font-size="16.00" fill="#000000">integer[2000000000]</text>
<polygon fill="#ffffff" stroke="transparent" points="726.5,-552.2 726.5,-577.2 1003.5,-577.2 1003.5,-552.2 726.5,-552.2"/>
<polygon fill="none" stroke="#000000" points="726.5,-552.2 726.5,-577.2 1003.5,-577.2 1003.5,-552.2 726.5,-552.2"/>
<text text-anchor="start" x="746.5" y="-556.3" font-family="Helvetica,sans-Serif" font-size="16.00" fill="#000000">name</text>
<polygon fill="none" stroke="#000000" points="1003.5,-552.2 1003.5,-577.2 1185.5,-577.2 1185.5,-552.2 1003.5,-552.2"/>
<text text-anchor="start" x="1006.5" y="-559.8" font-family="Helvetica,sans-Serif" font-size="16.00" fill="#000000">text[2000000000]</text>
<polygon fill="none" stroke="#000000" points="726.5,-527.2 726.5,-552.2 1003.5,-552.2 1003.5,-527.2 726.5,-527.2"/>
<text text-anchor="start" x="746.5" y="-531.3" font-family="Helvetica,sans-Serif" font-size="16.00" fill="#000000">ascii_name</text>
<polygon fill="none" stroke="#000000" points="1003.5,-527.2 1003.5,-552.2 1185.5,-552.2 1185.5,-527.2 1003.5,-527.2"/>
<text text-anchor="start" x="1006.5" y="-534.8" font-family="Helvetica,sans-Serif" font-size="16.00" fill="#000000">text[2000000000]</text>
<polygon fill="none" stroke="#000000" points="726.5,-502.2 726.5,-527.2 1003.5,-527.2 1003.5,-502.2 726.5,-502.2"/>
<text text-anchor="start" x="746.5" y="-506.3" font-family="Helvetica,sans-Serif" font-size="16.00" fill="#000000">alternate_names</text>
<polygon fill="none" stroke="#000000" points="1003.5,-502.2 1003.5,-527.2 1185.5,-527.2 1185.5,-502.2 1003.5,-502.2"/>
<text text-anchor="start" x="1006.5" y="-509.8" font-family="Helvetica,sans-Serif" font-size="16.00" fill="#000000">text[2000000000]</text>
<polygon fill="#ffffff" stroke="transparent" points="726.5,-477.2 726.5,-502.2 1003.5,-502.2 1003.5,-477.2 726.5,-477.2"/>
<polygon fill="none" stroke="#000000" points="726.5,-477.2 726.5,-502.2 1003.5,-502.2 1003.5,-477.2 726.5,-477.2"/>
<text text-anchor="start" x="746.5" y="-481.3" font-family="Helvetica,sans-Serif" font-size="16.00" fill="#000000">latitude</text>
<polygon fill="none" stroke="#000000" points="1003.5,-477.2 1003.5,-502.2 1185.5,-502.2 1185.5,-477.2 1003.5,-477.2"/>
<text text-anchor="start" x="1006.0208" y="-484.8" font-family="Helvetica,sans-Serif" font-size="16.00" fill="#000000">numeric[2000000000,10]</text>
<polygon fill="#ffffff" stroke="transparent" points="726.5,-452.2 726.5,-477.2 1003.5,-477.2 1003.5,-452.2 726.5,-452.2"/>
<polygon fill="none" stroke="#000000" points="726.5,-452.2 726.5,-477.2 1003.5,-477.2 1003.5,-452.2 726.5,-452.2"/>
<text text-anchor="start" x="746.5" y="-456.3" font-family="Helvetica,sans-Serif" font-size="16.00" fill="#000000">longitude</text>
<polygon fill="none" stroke="#000000" points="1003.5,-452.2 1003.5,-477.2 1185.5,-477.2 1185.5,-452.2 1003.5,-452.2"/>
<text text-anchor="start" x="1006.0208" y="-459.8" font-family="Helvetica,sans-Serif" font-size="16.00" fill="#000000">numeric[2000000000,10]</text>
<polygon fill="none" stroke="#000000" points="726.5,-427.2 726.5,-452.2 1003.5,-452.2 1003.5,-427.2 726.5,-427.2"/>
<image xlink:href="../../images/foreignKeys.png" width="11px" height="12px" preserveAspectRatio="xMinYMin meet" x="731.5" y="-445.7"/>
<text text-anchor="start" x="746.5" y="-431.3" font-family="Helvetica,sans-Serif" font-size="16.00" fill="#000000">feature_class</text>
<polygon fill="none" stroke="#000000" points="1003.5,-427.2 1003.5,-452.2 1185.5,-452.2 1185.5,-427.2 1003.5,-427.2"/>
<text text-anchor="start" x="1006.5" y="-434.8" font-family="Helvetica,sans-Serif" font-size="16.00" fill="#000000">text[2000000000]</text>
<polygon fill="#ffffff" stroke="transparent" points="726.5,-402.2 726.5,-427.2 1003.5,-427.2 1003.5,-402.2 726.5,-402.2"/>
<polygon fill="none" stroke="#000000" points="726.5,-402.2 726.5,-427.2 1003.5,-427.2 1003.5,-402.2 726.5,-402.2"/>
<image xlink:href="../../images/foreignKeys.png" width="11px" height="12px" preserveAspectRatio="xMinYMin meet" x="731.5" y="-420.7"/>
<text text-anchor="start" x="746.5" y="-406.3" font-family="Helvetica,sans-Serif" font-size="16.00" fill="#000000">feature_code</text>
<polygon fill="none" stroke="#000000" points="1003.5,-402.2 1003.5,-427.2 1185.5,-427.2 1185.5,-402.2 1003.5,-402.2"/>
<text text-anchor="start" x="1006.5" y="-409.8" font-family="Helvetica,sans-Serif" font-size="16.00" fill="#000000">text[2000000000]</text>
<polygon fill="#ffffff" stroke="transparent" points="726.5,-377.2 726.5,-402.2 1003.5,-402.2 1003.5,-377.2 726.5,-377.2"/>
<polygon fill="none" stroke="#000000" points="726.5,-377.2 726.5,-402.2 1003.5,-402.2 1003.5,-377.2 726.5,-377.2"/>
<image xlink:href="../../images/foreignKeys.png" width="11px" height="12px" preserveAspectRatio="xMinYMin meet" x="731.5" y="-395.7"/>
<text text-anchor="start" x="746.5" y="-381.3" font-family="Helvetica,sans-Serif" font-size="16.00" fill="#000000">country_code</text>
<polygon fill="none" stroke="#000000" points="1003.5,-377.2 1003.5,-402.2 1185.5,-402.2 1185.5,-377.2 1003.5,-377.2"/>
<text text-anchor="start" x="1006.5" y="-384.8" font-family="Helvetica,sans-Serif" font-size="16.00" fill="#000000">text[2000000000]</text>
<polygon fill="none" stroke="#000000" points="726.5,-352.2 726.5,-377.2 1003.5,-377.2 1003.5,-352.2 726.5,-352.2"/>
<text text-anchor="start" x="746.5" y="-356.3" font-family="Helvetica,sans-Serif" font-size="16.00" fill="#000000">cc2</text>
<polygon fill="none" stroke="#000000" points="1003.5,-352.2 1003.5,-377.2 1185.5,-377.2 1185.5,-352.2 1003.5,-352.2"/>
<text text-anchor="start" x="1006.5" y="-359.8" font-family="Helvetica,sans-Serif" font-size="16.00" fill="#000000">text[2000000000]</text>
<polygon fill="#ffffff" stroke="transparent" points="726.5,-327.2 726.5,-352.2 1003.5,-352.2 1003.5,-327.2 726.5,-327.2"/>
<polygon fill="none" stroke="#000000" points="726.5,-327.2 726.5,-352.2 1003.5,-352.2 1003.5,-327.2 726.5,-327.2"/>
<image xlink:href="../../images/foreignKeys.png" width="11px" height="12px" preserveAspectRatio="xMinYMin meet" x="731.5" y="-345.7"/>
<text text-anchor="start" x="746.5" y="-331.3" font-family="Helvetica,sans-Serif" font-size="16.00" fill="#000000">administrative_division_1_code</text>
<polygon fill="none" stroke="#000000" points="1003.5,-327.2 1003.5,-352.2 1185.5,-352.2 1185.5,-327.2 1003.5,-327.2"/>
<text text-anchor="start" x="1006.5" y="-334.8" font-family="Helvetica,sans-Serif" font-size="16.00" fill="#000000">text[2000000000]</text>
<polygon fill="#ffffff" stroke="transparent" points="726.5,-302.2 726.5,-327.2 1003.5,-327.2 1003.5,-302.2 726.5,-302.2"/>
<polygon fill="none" stroke="#000000" points="726.5,-302.2 726.5,-327.2 1003.5,-327.2 1003.5,-302.2 726.5,-302.2"/>
<image xlink:href="../../images/foreignKeys.png" width="11px" height="12px" preserveAspectRatio="xMinYMin meet" x="731.5" y="-320.7"/>
<text text-anchor="start" x="746.5" y="-306.3" font-family="Helvetica,sans-Serif" font-size="16.00" fill="#000000">administrative_division_2_code</text>
<polygon fill="none" stroke="#000000" points="1003.5,-302.2 1003.5,-327.2 1185.5,-327.2 1185.5,-302.2 1003.5,-302.2"/>
<text text-anchor="start" x="1006.5" y="-309.8" font-family="Helvetica,sans-Serif" font-size="16.00" fill="#000000">text[2000000000]</text>
<polygon fill="none" stroke="#000000" points="726.5,-277.2 726.5,-302.2 1003.5,-302.2 1003.5,-277.2 726.5,-277.2"/>
<text text-anchor="start" x="746.5" y="-281.3" font-family="Helvetica,sans-Serif" font-size="16.00" fill="#000000">administrative_division_3_code</text>
<polygon fill="none" stroke="#000000" points="1003.5,-277.2 1003.5,-302.2 1185.5,-302.2 1185.5,-277.2 1003.5,-277.2"/>
<text text-anchor="start" x="1006.5" y="-284.8" font-family="Helvetica,sans-Serif" font-size="16.00" fill="#000000">text[2000000000]</text>
<polygon fill="none" stroke="#000000" points="726.5,-252.2 726.5,-277.2 1003.5,-277.2 1003.5,-252.2 726.5,-252.2"/>
<text text-anchor="start" x="746.5" y="-256.3" font-family="Helvetica,sans-Serif" font-size="16.00" fill="#000000">administrative_division_4_code</text>
<polygon fill="none" stroke="#000000" points="1003.5,-252.2 1003.5,-277.2 1185.5,-277.2 1185.5,-252.2 1003.5,-252.2"/>
<text text-anchor="start" x="1006.5" y="-259.8" font-family="Helvetica,sans-Serif" font-size="16.00" fill="#000000">text[2000000000]</text>
<polygon fill="#ffffff" stroke="transparent" points="726.5,-227.2 726.5,-252.2 1003.5,-252.2 1003.5,-227.2 726.5,-227.2"/>
<polygon fill="none" stroke="#000000" points="726.5,-227.2 726.5,-252.2 1003.5,-252.2 1003.5,-227.2 726.5,-227.2"/>
<text text-anchor="start" x="746.5" y="-231.3" font-family="Helvetica,sans-Serif" font-size="16.00" fill="#000000">population</text>
<polygon fill="none" stroke="#000000" points="1003.5,-227.2 1003.5,-252.2 1185.5,-252.2 1185.5,-227.2 1003.5,-227.2"/>
<text text-anchor="start" x="1006.5" y="-234.8" font-family="Helvetica,sans-Serif" font-size="16.00" fill="#000000">integer[2000000000]</text>
<polygon fill="none" stroke="#000000" points="726.5,-202.2 726.5,-227.2 1003.5,-227.2 1003.5,-202.2 726.5,-202.2"/>
<text text-anchor="start" x="746.5" y="-206.3" font-family="Helvetica,sans-Serif" font-size="16.00" fill="#000000">elevation</text>
<polygon fill="none" stroke="#000000" points="1003.5,-202.2 1003.5,-227.2 1185.5,-227.2 1185.5,-202.2 1003.5,-202.2"/>
<text text-anchor="start" x="1006.5" y="-209.8" font-family="Helvetica,sans-Serif" font-size="16.00" fill="#000000">integer[2000000000]</text>
<polygon fill="none" stroke="#000000" points="726.5,-177.2 726.5,-202.2 1003.5,-202.2 1003.5,-177.2 726.5,-177.2"/>
<text text-anchor="start" x="746.5" y="-181.3" font-family="Helvetica,sans-Serif" font-size="16.00" fill="#000000">dem</text>
<polygon fill="none" stroke="#000000" points="1003.5,-177.2 1003.5,-202.2 1185.5,-202.2 1185.5,-177.2 1003.5,-177.2"/>
<text text-anchor="start" x="1006.5" y="-184.8" font-family="Helvetica,sans-Serif" font-size="16.00" fill="#000000">integer[2000000000]</text>
<polygon fill="#ffffff" stroke="transparent" points="726.5,-152.2 726.5,-177.2 1003.5,-177.2 1003.5,-152.2 726.5,-152.2"/>
<polygon fill="none" stroke="#000000" points="726.5,-152.2 726.5,-177.2 1003.5,-177.2 1003.5,-152.2 726.5,-152.2"/>
<text text-anchor="start" x="746.5" y="-156.3" font-family="Helvetica,sans-Serif" font-size="16.00" fill="#000000">timezone</text>
<polygon fill="none" stroke="#000000" points="1003.5,-152.2 1003.5,-177.2 1185.5,-177.2 1185.5,-152.2 1003.5,-152.2"/>
<text text-anchor="start" x="1006.5" y="-159.8" font-family="Helvetica,sans-Serif" font-size="16.00" fill="#000000">text[2000000000]</text>
<polygon fill="none" stroke="#000000" points="726.5,-127.2 726.5,-152.2 1003.5,-152.2 1003.5,-127.2 726.5,-127.2"/>
<text text-anchor="start" x="746.5" y="-131.3" font-family="Helvetica,sans-Serif" font-size="16.00" fill="#000000">modification_date</text>
<polygon fill="none" stroke="#000000" points="1003.5,-127.2 1003.5,-152.2 1185.5,-152.2 1185.5,-127.2 1003.5,-127.2"/>
<text text-anchor="start" x="1006.5" y="-134.8" font-family="Helvetica,sans-Serif" font-size="16.00" fill="#000000">text[2000000000]</text>
<polygon fill="none" stroke="#000000" points="726.5,-102.2 726.5,-127.2 1003.5,-127.2 1003.5,-102.2 726.5,-102.2"/>
<text text-anchor="start" x="746.5" y="-106.3" font-family="Helvetica,sans-Serif" font-size="16.00" fill="#000000">inserted_at</text>
<polygon fill="none" stroke="#000000" points="1003.5,-102.2 1003.5,-127.2 1185.5,-127.2 1185.5,-102.2 1003.5,-102.2"/>
<text text-anchor="start" x="1006.5" y="-109.8" font-family="Helvetica,sans-Serif" font-size="16.00" fill="#000000">text[2000000000]</text>
<polygon fill="none" stroke="#000000" points="726.5,-77.2 726.5,-102.2 1003.5,-102.2 1003.5,-77.2 726.5,-77.2"/>
<text text-anchor="start" x="746.5" y="-81.3" font-family="Helvetica,sans-Serif" font-size="16.00" fill="#000000">updated_at</text>
<polygon fill="none" stroke="#000000" points="1003.5,-77.2 1003.5,-102.2 1185.5,-102.2 1185.5,-77.2 1003.5,-77.2"/>
<text text-anchor="start" x="1006.5" y="-84.8" font-family="Helvetica,sans-Serif" font-size="16.00" fill="#000000">text[2000000000]</text>
<polygon fill="#ffffff" stroke="transparent" points="726.5,-52.2 726.5,-77.2 827.5,-77.2 827.5,-52.2 726.5,-52.2"/>
<polygon fill="none" stroke="#000000" points="726.5,-52.2 726.5,-77.2 827.5,-77.2 827.5,-52.2 726.5,-52.2"/>
<text text-anchor="start" x="729.5" y="-59.8" font-family="Helvetica,sans-Serif" font-size="16.00" fill="#000000">&lt; 4</text>
<polygon fill="#ffffff" stroke="transparent" points="827.5,-52.2 827.5,-77.2 1003.5,-77.2 1003.5,-52.2 827.5,-52.2"/>
<polygon fill="none" stroke="#000000" points="827.5,-52.2 827.5,-77.2 1003.5,-77.2 1003.5,-52.2 827.5,-52.2"/>
<text text-anchor="start" x="904.4696" y="-59.8" font-family="Helvetica,sans-Serif" font-size="16.00" fill="#000000">210,698 rows</text>
<polygon fill="#ffffff" stroke="transparent" points="1003.5,-52.2 1003.5,-77.2 1185.5,-77.2 1185.5,-52.2 1003.5,-52.2"/>
<polygon fill="none" stroke="#000000" points="1003.5,-52.2 1003.5,-77.2 1185.5,-77.2 1185.5,-52.2 1003.5,-52.2"/>
<text text-anchor="start" x="1159.8168" y="-59.8" font-family="Helvetica,sans-Serif" font-size="16.00" fill="#000000">1 &gt;</text>
<polygon fill="none" stroke="#000000" stroke-width="2" points="725,-51.2 725,-657.2 1186,-657.2 1186,-51.2 725,-51.2"/>
</a>
</g>
</g>
<!-- journal_entries&#45;&gt;locations_cities -->
<g id="edge1" class="edge">
<title>journal_entries:w&#45;&gt;locations_cities:e</title>
<path fill="none" stroke="#000000" d="M1221.4203,-615.2C1209.5435,-615.2 1202.158,-615.2 1185.5,-615.2"/>
<polygon fill="#000000" stroke="#000000" points="1228,-615.2001 1236,-618.8 1232,-615.2 1236,-615.2 1236,-615.2 1236,-615.2 1232,-615.2 1236,-611.6 1228,-615.2001 1228,-615.2001"/>
<ellipse fill="none" stroke="#000000" cx="1224.8" cy="-615.2001" rx="3.2" ry="3.2"/>
</g>
<!-- locations_administrative_divisions_1 -->
<g id="node3" class="node">
<title>locations_administrative_divisions_1</title>
<g id="a_node3"><a xlink:href="../../tables/locations_administrative_divisions_1.html" xlink:title="locations_administrative_divisions_1" target="_top">
<polygon fill="#ffffff" stroke="transparent" points="321,-124.7 321,-313.7 675,-313.7 675,-124.7 321,-124.7"/>
<polygon fill="#f5f5f5" stroke="transparent" points="321,-284.2 321,-313.2 675,-313.2 675,-284.2 321,-284.2"/>
<polygon fill="none" stroke="#000000" points="321,-284.2 321,-313.2 675,-313.2 675,-284.2 321,-284.2"/>
<text text-anchor="start" x="326" y="-291.3" font-family="Helvetica,sans-Serif" font-weight="bold" font-size="16.00" fill="#000000">locations_administrative_divisions_1</text>
<text text-anchor="start" x="626.7136" y="-293.8" font-family="Helvetica,sans-Serif" font-size="16.00" fill="#000000">[table]</text>
<polygon fill="none" stroke="#000000" points="321,-262.2 321,-284.2 675,-284.2 675,-262.2 321,-262.2"/>
<image xlink:href="../../images/primaryKeys.png" width="11px" height="12px" preserveAspectRatio="xMinYMin meet" x="326" y="-279.2"/>
<text text-anchor="start" x="354" y="-264.8" font-family="Helvetica,sans-Serif" font-size="16.00" fill="#000000">administrative_division_1_code</text>
<polygon fill="#ffffff" stroke="transparent" points="321,-240.2 321,-262.2 675,-262.2 675,-240.2 321,-240.2"/>
<polygon fill="none" stroke="#000000" points="321,-240.2 321,-262.2 675,-262.2 675,-240.2 321,-240.2"/>
<image xlink:href="../../images/foreignKeys.png" width="11px" height="12px" preserveAspectRatio="xMinYMin meet" x="326" y="-257.2"/>
<text text-anchor="start" x="354" y="-242.8" font-family="Helvetica,sans-Serif" font-size="16.00" fill="#000000">country_code</text>
<polygon fill="#ffffff" stroke="transparent" points="321,-218.2 321,-240.2 675,-240.2 675,-218.2 321,-218.2"/>
<polygon fill="none" stroke="#000000" points="321,-218.2 321,-240.2 675,-240.2 675,-218.2 321,-218.2"/>
<text text-anchor="start" x="354" y="-220.8" font-family="Helvetica,sans-Serif" font-size="16.00" fill="#000000">administrative_division_1_name</text>
<polygon fill="#ffffff" stroke="transparent" points="321,-196.2 321,-218.2 675,-218.2 675,-196.2 321,-196.2"/>
<polygon fill="none" stroke="#000000" points="321,-196.2 321,-218.2 675,-218.2 675,-196.2 321,-196.2"/>
<text text-anchor="start" x="354" y="-198.8" font-family="Helvetica,sans-Serif" font-size="16.00" fill="#000000">administrative_division_1_ascii_name</text>
<polygon fill="#ffffff" stroke="transparent" points="321,-174.2 321,-196.2 675,-196.2 675,-174.2 321,-174.2"/>
<polygon fill="none" stroke="#000000" points="321,-174.2 321,-196.2 675,-196.2 675,-174.2 321,-174.2"/>
<text text-anchor="start" x="354" y="-176.8" font-family="Helvetica,sans-Serif" font-size="16.00" fill="#000000">geoname_id</text>
<polygon fill="none" stroke="#000000" points="321,-149.2 321,-174.2 675,-174.2 675,-149.2 321,-149.2"/>
<text text-anchor="start" x="324" y="-156.8" font-family="Helvetica,sans-Serif" font-size="16.00" fill="#000000">...</text>
<polygon fill="#ffffff" stroke="transparent" points="321,-124.2 321,-149.2 456,-149.2 456,-124.2 321,-124.2"/>
<polygon fill="none" stroke="#000000" points="321,-124.2 321,-149.2 456,-149.2 456,-124.2 321,-124.2"/>
<text text-anchor="start" x="324" y="-131.8" font-family="Helvetica,sans-Serif" font-size="16.00" fill="#000000">&lt; 1</text>
<polygon fill="#ffffff" stroke="transparent" points="456,-124.2 456,-149.2 593,-149.2 593,-124.2 456,-124.2"/>
<polygon fill="none" stroke="#000000" points="456,-124.2 456,-149.2 593,-149.2 593,-124.2 456,-124.2"/>
<text text-anchor="start" x="511.7584" y="-131.8" font-family="Helvetica,sans-Serif" font-size="16.00" fill="#000000">3,893 rows</text>
<polygon fill="#ffffff" stroke="transparent" points="593,-124.2 593,-149.2 675,-149.2 675,-124.2 593,-124.2"/>
<polygon fill="none" stroke="#000000" points="593,-124.2 593,-149.2 675,-149.2 675,-124.2 593,-124.2"/>
<text text-anchor="start" x="649.3168" y="-131.8" font-family="Helvetica,sans-Serif" font-size="16.00" fill="#000000">2 &gt;</text>
</a>
</g>
</g>
<!-- locations_cities&#45;&gt;locations_administrative_divisions_1 -->
<g id="edge3" class="edge">
<title>locations_cities:w&#45;&gt;locations_administrative_divisions_1:e</title>
<path fill="none" stroke="#000000" d="M712.511,-334.4534C695.1935,-319.3202 706.1026,-273.2 675,-273.2"/>
<polygon fill="#000000" stroke="#000000" points="718.9242,-336.6295 725.3433,-342.6091 722.7121,-337.9147 726.5,-339.2 726.5,-339.2 726.5,-339.2 722.7121,-337.9147 727.6567,-335.7909 718.9242,-336.6295 718.9242,-336.6295"/>
<ellipse fill="none" stroke="#000000" cx="715.8939" cy="-335.6012" rx="3.2" ry="3.2"/>
</g>
<!-- locations_countries -->
<g id="node4" class="node">
<title>locations_countries</title>
<g id="a_node4"><a xlink:href="../../tables/locations_countries.html" xlink:title="locations_countries" target="_top">
<polygon fill="#ffffff" stroke="transparent" points="19,-53.7 19,-352.7 261,-352.7 261,-53.7 19,-53.7"/>
<polygon fill="#f5f5f5" stroke="transparent" points="19,-323.2 19,-352.2 261,-352.2 261,-323.2 19,-323.2"/>
<polygon fill="none" stroke="#000000" points="19,-323.2 19,-352.2 261,-352.2 261,-323.2 19,-323.2"/>
<text text-anchor="start" x="24" y="-330.3" font-family="Helvetica,sans-Serif" font-weight="bold" font-size="16.00" fill="#000000">locations_countries</text>
<text text-anchor="start" x="212.4272" y="-332.8" font-family="Helvetica,sans-Serif" font-size="16.00" fill="#000000">[table]</text>
<polygon fill="none" stroke="#000000" points="19,-301.2 19,-323.2 261,-323.2 261,-301.2 19,-301.2"/>
<image xlink:href="../../images/primaryKeys.png" width="11px" height="12px" preserveAspectRatio="xMinYMin meet" x="24" y="-318.2"/>
<text text-anchor="start" x="39" y="-303.8" font-family="Helvetica,sans-Serif" font-size="16.00" fill="#000000">iso_country_code</text>
<polygon fill="#ffffff" stroke="transparent" points="19,-279.2 19,-301.2 261,-301.2 261,-279.2 19,-279.2"/>
<polygon fill="none" stroke="#000000" points="19,-279.2 19,-301.2 261,-301.2 261,-279.2 19,-279.2"/>
<text text-anchor="start" x="39" y="-281.8" font-family="Helvetica,sans-Serif" font-size="16.00" fill="#000000">iso_3_country_code</text>
<polygon fill="#ffffff" stroke="transparent" points="19,-257.2 19,-279.2 261,-279.2 261,-257.2 19,-257.2"/>
<polygon fill="none" stroke="#000000" points="19,-257.2 19,-279.2 261,-279.2 261,-257.2 19,-257.2"/>
<text text-anchor="start" x="39" y="-259.8" font-family="Helvetica,sans-Serif" font-size="16.00" fill="#000000">iso_numeric_country_code</text>
<polygon fill="#ffffff" stroke="transparent" points="19,-235.2 19,-257.2 261,-257.2 261,-235.2 19,-235.2"/>
<polygon fill="none" stroke="#000000" points="19,-235.2 19,-257.2 261,-257.2 261,-235.2 19,-235.2"/>
<text text-anchor="start" x="39" y="-237.8" font-family="Helvetica,sans-Serif" font-size="16.00" fill="#000000">country_name</text>
<polygon fill="#ffffff" stroke="transparent" points="19,-213.2 19,-235.2 261,-235.2 261,-213.2 19,-213.2"/>
<polygon fill="none" stroke="#000000" points="19,-213.2 19,-235.2 261,-235.2 261,-213.2 19,-213.2"/>
<text text-anchor="start" x="39" y="-215.8" font-family="Helvetica,sans-Serif" font-size="16.00" fill="#000000">area</text>
<polygon fill="#ffffff" stroke="transparent" points="19,-191.2 19,-213.2 261,-213.2 261,-191.2 19,-191.2"/>
<polygon fill="none" stroke="#000000" points="19,-191.2 19,-213.2 261,-213.2 261,-191.2 19,-191.2"/>
<text text-anchor="start" x="39" y="-193.8" font-family="Helvetica,sans-Serif" font-size="16.00" fill="#000000">population</text>
<polygon fill="#ffffff" stroke="transparent" points="19,-169.2 19,-191.2 261,-191.2 261,-169.2 19,-169.2"/>
<polygon fill="none" stroke="#000000" points="19,-169.2 19,-191.2 261,-191.2 261,-169.2 19,-169.2"/>
<image xlink:href="../../images/foreignKeys.png" width="11px" height="12px" preserveAspectRatio="xMinYMin meet" x="24" y="-186.2"/>
<text text-anchor="start" x="39" y="-171.8" font-family="Helvetica,sans-Serif" font-size="16.00" fill="#000000">continent_code</text>
<polygon fill="#ffffff" stroke="transparent" points="19,-147.2 19,-169.2 261,-169.2 261,-147.2 19,-147.2"/>
<polygon fill="none" stroke="#000000" points="19,-147.2 19,-169.2 261,-169.2 261,-147.2 19,-147.2"/>
<text text-anchor="start" x="39" y="-149.8" font-family="Helvetica,sans-Serif" font-size="16.00" fill="#000000">tld</text>
<polygon fill="#ffffff" stroke="transparent" points="19,-125.2 19,-147.2 261,-147.2 261,-125.2 19,-125.2"/>
<polygon fill="none" stroke="#000000" points="19,-125.2 19,-147.2 261,-147.2 261,-125.2 19,-125.2"/>
<text text-anchor="start" x="39" y="-127.8" font-family="Helvetica,sans-Serif" font-size="16.00" fill="#000000">currency_code</text>
<polygon fill="#ffffff" stroke="transparent" points="19,-103.2 19,-125.2 261,-125.2 261,-103.2 19,-103.2"/>
<polygon fill="none" stroke="#000000" points="19,-103.2 19,-125.2 261,-125.2 261,-103.2 19,-103.2"/>
<text text-anchor="start" x="39" y="-105.8" font-family="Helvetica,sans-Serif" font-size="16.00" fill="#000000">geoname_id</text>
<polygon fill="none" stroke="#000000" points="19,-78.2 19,-103.2 261,-103.2 261,-78.2 19,-78.2"/>
<text text-anchor="start" x="22" y="-85.8" font-family="Helvetica,sans-Serif" font-size="16.00" fill="#000000">...</text>
<polygon fill="#ffffff" stroke="transparent" points="19,-53.2 19,-78.2 105,-78.2 105,-53.2 19,-53.2"/>
<polygon fill="none" stroke="#000000" points="19,-53.2 19,-78.2 105,-78.2 105,-53.2 19,-53.2"/>
<text text-anchor="start" x="22" y="-60.8" font-family="Helvetica,sans-Serif" font-size="16.00" fill="#000000">&lt; 1</text>
<polygon fill="#ffffff" stroke="transparent" points="105,-53.2 105,-78.2 204,-78.2 204,-53.2 105,-53.2"/>
<polygon fill="none" stroke="#000000" points="105,-53.2 105,-78.2 204,-78.2 204,-53.2 105,-53.2"/>
<text text-anchor="start" x="136.0992" y="-60.8" font-family="Helvetica,sans-Serif" font-size="16.00" fill="#000000">252 rows</text>
<polygon fill="#ffffff" stroke="transparent" points="204,-53.2 204,-78.2 261,-78.2 261,-53.2 204,-53.2"/>
<polygon fill="none" stroke="#000000" points="204,-53.2 204,-78.2 261,-78.2 261,-53.2 204,-53.2"/>
<text text-anchor="start" x="235.3168" y="-60.8" font-family="Helvetica,sans-Serif" font-size="16.00" fill="#000000">3 &gt;</text>
</a>
</g>
</g>
<!-- locations_cities&#45;&gt;locations_countries -->
<g id="edge4" class="edge">
<title>locations_cities:w&#45;&gt;locations_countries:e</title>
<path fill="none" stroke="#000000" d="M712.5274,-385.9158C701.9297,-377.6641 700.9427,-359.7179 683,-352.2 606.9486,-320.3348 394.517,-336.6173 313,-324.2 289.552,-320.6282 284.7185,-312.2 261,-312.2"/>
<polygon fill="#000000" stroke="#000000" points="718.8514,-387.8548 725.4447,-393.6419 722.6757,-389.0274 726.5,-390.2 726.5,-390.2 726.5,-390.2 722.6757,-389.0274 727.5553,-386.7581 718.8514,-387.8548 718.8514,-387.8548"/>
<ellipse fill="none" stroke="#000000" cx="715.792" cy="-386.9168" rx="3.2" ry="3.2"/>
</g>
<!-- locations_feature_classes -->
<g id="node5" class="node">
<title>locations_feature_classes</title>
<g id="a_node5"><a xlink:href="../../tables/locations_feature_classes.html" xlink:title="locations_feature_classes" target="_top">
<polygon fill="#ffffff" stroke="transparent" points="8,-409.7 8,-510.7 272,-510.7 272,-409.7 8,-409.7"/>
<polygon fill="#f5f5f5" stroke="transparent" points="8,-481.2 8,-510.2 272,-510.2 272,-481.2 8,-481.2"/>
<polygon fill="none" stroke="#000000" points="8,-481.2 8,-510.2 272,-510.2 272,-481.2 8,-481.2"/>
<text text-anchor="start" x="13" y="-488.3" font-family="Helvetica,sans-Serif" font-weight="bold" font-size="16.00" fill="#000000">locations_feature_classes</text>
<text text-anchor="start" x="223.7136" y="-490.8" font-family="Helvetica,sans-Serif" font-size="16.00" fill="#000000">[table]</text>
<polygon fill="none" stroke="#000000" points="8,-459.2 8,-481.2 272,-481.2 272,-459.2 8,-459.2"/>
<image xlink:href="../../images/primaryKeys.png" width="11px" height="12px" preserveAspectRatio="xMinYMin meet" x="13" y="-476.2"/>
<text text-anchor="start" x="44" y="-461.8" font-family="Helvetica,sans-Serif" font-size="16.00" fill="#000000">feature_class</text>
<polygon fill="none" stroke="#000000" points="8,-434.2 8,-459.2 272,-459.2 272,-434.2 8,-434.2"/>
<text text-anchor="start" x="11" y="-441.8" font-family="Helvetica,sans-Serif" font-size="16.00" fill="#000000">...</text>
<polygon fill="#ffffff" stroke="transparent" points="8,-409.2 8,-434.2 106,-434.2 106,-409.2 8,-409.2"/>
<polygon fill="none" stroke="#000000" points="8,-409.2 8,-434.2 106,-434.2 106,-409.2 8,-409.2"/>
<text text-anchor="start" x="11" y="-416.8" font-family="Helvetica,sans-Serif" font-size="16.00" fill="#000000"> &#160;</text>
<polygon fill="#ffffff" stroke="transparent" points="106,-409.2 106,-434.2 201,-434.2 201,-409.2 106,-409.2"/>
<polygon fill="none" stroke="#000000" points="106,-409.2 106,-434.2 201,-434.2 201,-409.2 106,-409.2"/>
<text text-anchor="start" x="150.888" y="-416.8" font-family="Helvetica,sans-Serif" font-size="16.00" fill="#000000">9 rows</text>
<polygon fill="#ffffff" stroke="transparent" points="201,-409.2 201,-434.2 272,-434.2 272,-409.2 201,-409.2"/>
<polygon fill="none" stroke="#000000" points="201,-409.2 201,-434.2 272,-434.2 272,-409.2 201,-409.2"/>
<text text-anchor="start" x="246.3168" y="-416.8" font-family="Helvetica,sans-Serif" font-size="16.00" fill="#000000">2 &gt;</text>
</a>
</g>
</g>
<!-- locations_cities&#45;&gt;locations_feature_classes -->
<g id="edge5" class="edge">
<title>locations_cities:w&#45;&gt;locations_feature_classes:e</title>
<path fill="none" stroke="#000000" d="M712.515,-444.0756C694.7347,-457.3705 711.8789,-501.2392 683,-518.2 541.2021,-601.4787 462.3408,-587.0426 313,-518.2 287.5205,-506.4546 300.0564,-470.2 272,-470.2"/>
<polygon fill="#000000" stroke="#000000" points="718.7906,-442.3365 727.4614,-443.6693 722.6453,-441.2682 726.5,-440.2 726.5,-440.2 726.5,-440.2 722.6453,-441.2682 725.5386,-436.7307 718.7906,-442.3365 718.7906,-442.3365"/>
<ellipse fill="none" stroke="#000000" cx="715.7068" cy="-443.1911" rx="3.2" ry="3.2"/>
</g>
<!-- locations_feature_codes -->
<g id="node6" class="node">
<title>locations_feature_codes</title>
<g id="a_node6"><a xlink:href="../../tables/locations_feature_codes.html" xlink:title="locations_feature_codes" target="_top">
<polygon fill="#ffffff" stroke="transparent" points="372,-362.7 372,-507.7 624,-507.7 624,-362.7 372,-362.7"/>
<polygon fill="#f5f5f5" stroke="transparent" points="372,-478.2 372,-507.2 624,-507.2 624,-478.2 372,-478.2"/>
<polygon fill="none" stroke="#000000" points="372,-478.2 372,-507.2 624,-507.2 624,-478.2 372,-478.2"/>
<text text-anchor="start" x="377" y="-485.3" font-family="Helvetica,sans-Serif" font-weight="bold" font-size="16.00" fill="#000000">locations_feature_codes</text>
<text text-anchor="start" x="575.7136" y="-487.8" font-family="Helvetica,sans-Serif" font-size="16.00" fill="#000000">[table]</text>
<polygon fill="none" stroke="#000000" points="372,-456.2 372,-478.2 624,-478.2 624,-456.2 372,-456.2"/>
<image xlink:href="../../images/primaryKeys.png" width="11px" height="12px" preserveAspectRatio="xMinYMin meet" x="377" y="-473.2"/>
<text text-anchor="start" x="408" y="-458.8" font-family="Helvetica,sans-Serif" font-size="16.00" fill="#000000">feature_code</text>
<polygon fill="#ffffff" stroke="transparent" points="372,-434.2 372,-456.2 624,-456.2 624,-434.2 372,-434.2"/>
<polygon fill="none" stroke="#000000" points="372,-434.2 372,-456.2 624,-456.2 624,-434.2 372,-434.2"/>
<image xlink:href="../../images/foreignKeys.png" width="11px" height="12px" preserveAspectRatio="xMinYMin meet" x="377" y="-451.2"/>
<text text-anchor="start" x="408" y="-436.8" font-family="Helvetica,sans-Serif" font-size="16.00" fill="#000000">feature_class</text>
<polygon fill="#ffffff" stroke="transparent" points="372,-412.2 372,-434.2 624,-434.2 624,-412.2 372,-412.2"/>
<polygon fill="none" stroke="#000000" points="372,-412.2 372,-434.2 624,-434.2 624,-412.2 372,-412.2"/>
<text text-anchor="start" x="408" y="-414.8" font-family="Helvetica,sans-Serif" font-size="16.00" fill="#000000">order</text>
<polygon fill="none" stroke="#000000" points="372,-387.2 372,-412.2 624,-412.2 624,-387.2 372,-387.2"/>
<text text-anchor="start" x="375" y="-394.8" font-family="Helvetica,sans-Serif" font-size="16.00" fill="#000000">...</text>
<polygon fill="#ffffff" stroke="transparent" points="372,-362.2 372,-387.2 463,-387.2 463,-362.2 372,-362.2"/>
<polygon fill="none" stroke="#000000" points="372,-362.2 372,-387.2 463,-387.2 463,-362.2 372,-362.2"/>
<text text-anchor="start" x="375" y="-369.8" font-family="Helvetica,sans-Serif" font-size="16.00" fill="#000000">&lt; 1</text>
<polygon fill="#ffffff" stroke="transparent" points="463,-362.2 463,-387.2 564,-387.2 564,-362.2 463,-362.2"/>
<polygon fill="none" stroke="#000000" points="463,-362.2 463,-387.2 564,-387.2 564,-362.2 463,-362.2"/>
<text text-anchor="start" x="496.0992" y="-369.8" font-family="Helvetica,sans-Serif" font-size="16.00" fill="#000000">684 rows</text>
<polygon fill="#ffffff" stroke="transparent" points="564,-362.2 564,-387.2 624,-387.2 624,-362.2 564,-362.2"/>
<polygon fill="none" stroke="#000000" points="564,-362.2 564,-387.2 624,-387.2 624,-362.2 564,-362.2"/>
<text text-anchor="start" x="598.3168" y="-369.8" font-family="Helvetica,sans-Serif" font-size="16.00" fill="#000000">1 &gt;</text>
</a>
</g>
</g>
<!-- locations_cities&#45;&gt;locations_feature_codes -->
<g id="edge6" class="edge">
<title>locations_cities:w&#45;&gt;locations_feature_codes:e</title>
<path fill="none" stroke="#000000" d="M711.9116,-416.8133C674.7823,-425.5903 669.695,-467.2 624,-467.2"/>
<polygon fill="#000000" stroke="#000000" points="718.5485,-416.0794 726.8957,-418.7782 722.5242,-415.6397 726.5,-415.2 726.5,-415.2 726.5,-415.2 722.5242,-415.6397 726.1043,-411.6218 718.5485,-416.0794 718.5485,-416.0794"/>
<ellipse fill="none" stroke="#000000" cx="715.3679" cy="-416.4311" rx="3.2" ry="3.2"/>
</g>
<!-- locations_administrative_divisions_1&#45;&gt;locations_countries -->
<g id="edge2" class="edge">
<title>locations_administrative_divisions_1:w&#45;&gt;locations_countries:e</title>
<path fill="none" stroke="#000000" d="M307.0032,-255.0158C286.6089,-268.3702 293.2346,-312.2 261,-312.2"/>
<polygon fill="#000000" stroke="#000000" points="313.2817,-253.3042 321.9469,-254.6732 317.1408,-252.2521 321,-251.2 321,-251.2 321,-251.2 317.1408,-252.2521 320.0531,-247.7268 313.2817,-253.3042 313.2817,-253.3042"/>
<ellipse fill="none" stroke="#000000" cx="310.1944" cy="-254.1459" rx="3.2" ry="3.2"/>
</g>
<!-- locations_feature_codes&#45;&gt;locations_feature_classes -->
<g id="edge7" class="edge">
<title>locations_feature_codes:w&#45;&gt;locations_feature_classes:e</title>
<path fill="none" stroke="#000000" d="M357.316,-446.1495C323.7106,-450.7161 312.4437,-470.2 272,-470.2"/>
<polygon fill="#000000" stroke="#000000" points="364.0167,-445.7163 372.2323,-448.7925 368.0083,-445.4581 372,-445.2 372,-445.2 372,-445.2 368.0083,-445.4581 371.7677,-441.6075 364.0167,-445.7163 364.0167,-445.7163"/>
<ellipse fill="none" stroke="#000000" cx="360.8233" cy="-445.9228" rx="3.2" ry="3.2"/>
</g>
</g>
</svg>
