<?xml version="1.0" encoding="UTF-8" standalone="no"?>
<!DOCTYPE svg PUBLIC "-//W3C//DTD SVG 1.1//EN"
 "http://www.w3.org/Graphics/SVG/1.1/DTD/svg11.dtd">
<!-- Generated by graphviz version 2.40.1 (20161225.0304)
 -->
<!-- Title: oneDegreeRelationshipsDiagram Pages: 1 -->
<svg width="388pt" height="270pt"
 viewBox="0.00 0.00 388.00 270.20" xmlns="http://www.w3.org/2000/svg" xmlns:xlink="http://www.w3.org/1999/xlink">
<g id="graph0" class="graph" transform="scale(1 1) rotate(0) translate(4 266.2)">
<title>oneDegreeRelationshipsDiagram</title>
<polygon fill="#ffffff" stroke="transparent" points="-4,4 -4,-266.2 384,-266.2 384,4 -4,4"/>
<text text-anchor="middle" x="101.8088" y="-8.8" font-family="Helvetica,sans-Serif" font-size="16.00" fill="#000000">Generated by SchemaSpy</text>
<!-- localisation_languages -->
<g id="node1" class="node">
<title>localisation_languages</title>
<g id="a_node1"><a xlink:href="../../tables/localisation_languages.html" xlink:title="localisation_languages" target="_top">
<polygon fill="#ffffff" stroke="transparent" points="8,-50.2 8,-258.2 372,-258.2 372,-50.2 8,-50.2"/>
<polygon fill="#f5f5f5" stroke="transparent" points="10,-227.2 10,-256.2 370,-256.2 370,-227.2 10,-227.2"/>
<polygon fill="none" stroke="#000000" points="10,-227.2 10,-256.2 370,-256.2 370,-227.2 10,-227.2"/>
<text text-anchor="start" x="15" y="-234.3" font-family="Helvetica,sans-Serif" font-weight="bold" font-size="16.00" fill="#000000">localisation_languages</text>
<text text-anchor="start" x="321.4272" y="-236.8" font-family="Helvetica,sans-Serif" font-size="16.00" fill="#000000">[table]</text>
<polygon fill="none" stroke="#000000" points="10,-202.2 10,-227.2 241,-227.2 241,-202.2 10,-202.2"/>
<image xlink:href="../../images/primaryKeys.png" width="11px" height="12px" preserveAspectRatio="xMinYMin meet" x="15" y="-220.7"/>
<text text-anchor="start" x="30" y="-206.3" font-family="Helvetica,sans-Serif" font-size="16.00" fill="#000000">iso_639&#45;3_language_code</text>
<polygon fill="none" stroke="#000000" points="241,-202.2 241,-227.2 370,-227.2 370,-202.2 241,-202.2"/>
<text text-anchor="start" x="243.688" y="-209.8" font-family="Helvetica,sans-Serif" font-size="16.00" fill="#000000">text[2000000000]</text>
<polygon fill="#ffffff" stroke="transparent" points="10,-177.2 10,-202.2 241,-202.2 241,-177.2 10,-177.2"/>
<polygon fill="none" stroke="#000000" points="10,-177.2 10,-202.2 241,-202.2 241,-177.2 10,-177.2"/>
<text text-anchor="start" x="30" y="-181.3" font-family="Helvetica,sans-Serif" font-size="16.00" fill="#000000">iso_639&#45;2_language_code</text>
<polygon fill="none" stroke="#000000" points="241,-177.2 241,-202.2 370,-202.2 370,-177.2 241,-177.2"/>
<text text-anchor="start" x="243.688" y="-184.8" font-family="Helvetica,sans-Serif" font-size="16.00" fill="#000000">text[2000000000]</text>
<polygon fill="#ffffff" stroke="transparent" points="10,-152.2 10,-177.2 241,-177.2 241,-152.2 10,-152.2"/>
<polygon fill="none" stroke="#000000" points="10,-152.2 10,-177.2 241,-177.2 241,-152.2 10,-152.2"/>
<text text-anchor="start" x="30" y="-156.3" font-family="Helvetica,sans-Serif" font-size="16.00" fill="#000000">iso_639&#45;1_language_code</text>
<polygon fill="none" stroke="#000000" points="241,-152.2 241,-177.2 370,-177.2 370,-152.2 241,-152.2"/>
<text text-anchor="start" x="243.688" y="-159.8" font-family="Helvetica,sans-Serif" font-size="16.00" fill="#000000">text[2000000000]</text>
<polygon fill="#ffffff" stroke="transparent" points="10,-127.2 10,-152.2 241,-152.2 241,-127.2 10,-127.2"/>
<polygon fill="none" stroke="#000000" points="10,-127.2 10,-152.2 241,-152.2 241,-127.2 10,-127.2"/>
<text text-anchor="start" x="30" y="-131.3" font-family="Helvetica,sans-Serif" font-size="16.00" fill="#000000">language_name</text>
<polygon fill="none" stroke="#000000" points="241,-127.2 241,-152.2 370,-152.2 370,-127.2 241,-127.2"/>
<text text-anchor="start" x="243.688" y="-134.8" font-family="Helvetica,sans-Serif" font-size="16.00" fill="#000000">text[2000000000]</text>
<polygon fill="none" stroke="#000000" points="10,-102.2 10,-127.2 241,-127.2 241,-102.2 10,-102.2"/>
<text text-anchor="start" x="30" y="-106.3" font-family="Helvetica,sans-Serif" font-size="16.00" fill="#000000">inserted_at</text>
<polygon fill="none" stroke="#000000" points="241,-102.2 241,-127.2 370,-127.2 370,-102.2 241,-102.2"/>
<text text-anchor="start" x="243.688" y="-109.8" font-family="Helvetica,sans-Serif" font-size="16.00" fill="#000000">text[2000000000]</text>
<polygon fill="none" stroke="#000000" points="10,-77.2 10,-102.2 241,-102.2 241,-77.2 10,-77.2"/>
<text text-anchor="start" x="30" y="-81.3" font-family="Helvetica,sans-Serif" font-size="16.00" fill="#000000">updated_at</text>
<polygon fill="none" stroke="#000000" points="241,-77.2 241,-102.2 370,-102.2 370,-77.2 241,-77.2"/>
<text text-anchor="start" x="243.688" y="-84.8" font-family="Helvetica,sans-Serif" font-size="16.00" fill="#000000">text[2000000000]</text>
<polygon fill="#ffffff" stroke="transparent" points="10,-52.2 10,-77.2 97,-77.2 97,-52.2 10,-52.2"/>
<polygon fill="none" stroke="#000000" points="10,-52.2 10,-77.2 97,-77.2 97,-52.2 10,-52.2"/>
<text text-anchor="start" x="13" y="-59.8" font-family="Helvetica,sans-Serif" font-size="16.00" fill="#000000">&lt; 0</text>
<polygon fill="#ffffff" stroke="transparent" points="97,-52.2 97,-77.2 241,-77.2 241,-52.2 97,-52.2"/>
<polygon fill="none" stroke="#000000" points="97,-52.2 97,-77.2 241,-77.2 241,-52.2 97,-52.2"/>
<text text-anchor="start" x="159.7584" y="-59.8" font-family="Helvetica,sans-Serif" font-size="16.00" fill="#000000">7,852 rows</text>
<polygon fill="#ffffff" stroke="transparent" points="241,-52.2 241,-77.2 370,-77.2 370,-52.2 241,-52.2"/>
<polygon fill="none" stroke="#000000" points="241,-52.2 241,-77.2 370,-77.2 370,-52.2 241,-52.2"/>
<text text-anchor="start" x="344.3168" y="-59.8" font-family="Helvetica,sans-Serif" font-size="16.00" fill="#000000">0 &gt;</text>
<polygon fill="none" stroke="#000000" stroke-width="2" points="9,-51.2 9,-257.2 371,-257.2 371,-51.2 9,-51.2"/>
</a>
</g>
</g>
</g>
</svg>
