<?xml version="1.0" encoding="UTF-8" standalone="no"?>
<!DOCTYPE svg PUBLIC "-//W3C//DTD SVG 1.1//EN"
 "http://www.w3.org/Graphics/SVG/1.1/DTD/svg11.dtd">
<!-- Generated by graphviz version 2.40.1 (20161225.0304)
 -->
<!-- Title: oneDegreeRelationshipsDiagram Pages: 1 -->
<svg width="1039pt" height="447pt"
 viewBox="0.00 0.00 1039.00 447.20" xmlns="http://www.w3.org/2000/svg" xmlns:xlink="http://www.w3.org/1999/xlink">
<g id="graph0" class="graph" transform="scale(1 1) rotate(0) translate(4 443.2)">
<title>oneDegreeRelationshipsDiagram</title>
<polygon fill="#ffffff" stroke="transparent" points="-4,4 -4,-443.2 1035,-443.2 1035,4 -4,4"/>
<text text-anchor="middle" x="101.8088" y="-8.8" font-family="Helvetica,sans-Serif" font-size="16.00" fill="#000000">Generated by SchemaSpy</text>
<!-- locations_cities -->
<g id="node1" class="node">
<title>locations_cities</title>
<g id="a_node1"><a xlink:href="../../tables/locations_cities.html" xlink:title="locations_cities" target="_top">
<polygon fill="#ffffff" stroke="transparent" points="746,-92.2 746,-435.2 1023,-435.2 1023,-92.2 746,-92.2"/>
<polygon fill="#f5f5f5" stroke="transparent" points="746.5,-405.7 746.5,-434.7 1023.5,-434.7 1023.5,-405.7 746.5,-405.7"/>
<polygon fill="none" stroke="#000000" points="746.5,-405.7 746.5,-434.7 1023.5,-434.7 1023.5,-405.7 746.5,-405.7"/>
<text text-anchor="start" x="751.5" y="-412.8" font-family="Helvetica,sans-Serif" font-weight="bold" font-size="16.00" fill="#000000">locations_cities</text>
<text text-anchor="start" x="974.9272" y="-415.3" font-family="Helvetica,sans-Serif" font-size="16.00" fill="#000000">[table]</text>
<polygon fill="none" stroke="#000000" points="746.5,-383.7 746.5,-405.7 1023.5,-405.7 1023.5,-383.7 746.5,-383.7"/>
<image xlink:href="../../images/primaryKeys.png" width="11px" height="12px" preserveAspectRatio="xMinYMin meet" x="751.5" y="-400.7"/>
<text text-anchor="start" x="766.5" y="-386.3" font-family="Helvetica,sans-Serif" font-size="16.00" fill="#000000">id</text>
<polygon fill="#ffffff" stroke="transparent" points="746.5,-361.7 746.5,-383.7 1023.5,-383.7 1023.5,-361.7 746.5,-361.7"/>
<polygon fill="none" stroke="#000000" points="746.5,-361.7 746.5,-383.7 1023.5,-383.7 1023.5,-361.7 746.5,-361.7"/>
<text text-anchor="start" x="766.5" y="-364.3" font-family="Helvetica,sans-Serif" font-size="16.00" fill="#000000">geoname_id</text>
<polygon fill="#ffffff" stroke="transparent" points="746.5,-339.7 746.5,-361.7 1023.5,-361.7 1023.5,-339.7 746.5,-339.7"/>
<polygon fill="none" stroke="#000000" points="746.5,-339.7 746.5,-361.7 1023.5,-361.7 1023.5,-339.7 746.5,-339.7"/>
<text text-anchor="start" x="766.5" y="-342.3" font-family="Helvetica,sans-Serif" font-size="16.00" fill="#000000">name</text>
<polygon fill="#ffffff" stroke="transparent" points="746.5,-317.7 746.5,-339.7 1023.5,-339.7 1023.5,-317.7 746.5,-317.7"/>
<polygon fill="none" stroke="#000000" points="746.5,-317.7 746.5,-339.7 1023.5,-339.7 1023.5,-317.7 746.5,-317.7"/>
<text text-anchor="start" x="766.5" y="-320.3" font-family="Helvetica,sans-Serif" font-size="16.00" fill="#000000">latitude</text>
<polygon fill="#ffffff" stroke="transparent" points="746.5,-295.7 746.5,-317.7 1023.5,-317.7 1023.5,-295.7 746.5,-295.7"/>
<polygon fill="none" stroke="#000000" points="746.5,-295.7 746.5,-317.7 1023.5,-317.7 1023.5,-295.7 746.5,-295.7"/>
<text text-anchor="start" x="766.5" y="-298.3" font-family="Helvetica,sans-Serif" font-size="16.00" fill="#000000">longitude</text>
<polygon fill="none" stroke="#000000" points="746.5,-273.7 746.5,-295.7 1023.5,-295.7 1023.5,-273.7 746.5,-273.7"/>
<image xlink:href="../../images/foreignKeys.png" width="11px" height="12px" preserveAspectRatio="xMinYMin meet" x="751.5" y="-290.7"/>
<text text-anchor="start" x="766.5" y="-276.3" font-family="Helvetica,sans-Serif" font-size="16.00" fill="#000000">feature_class</text>
<polygon fill="#ffffff" stroke="transparent" points="746.5,-251.7 746.5,-273.7 1023.5,-273.7 1023.5,-251.7 746.5,-251.7"/>
<polygon fill="none" stroke="#000000" points="746.5,-251.7 746.5,-273.7 1023.5,-273.7 1023.5,-251.7 746.5,-251.7"/>
<image xlink:href="../../images/foreignKeys.png" width="11px" height="12px" preserveAspectRatio="xMinYMin meet" x="751.5" y="-268.7"/>
<text text-anchor="start" x="766.5" y="-254.3" font-family="Helvetica,sans-Serif" font-size="16.00" fill="#000000">feature_code</text>
<polygon fill="#ffffff" stroke="transparent" points="746.5,-229.7 746.5,-251.7 1023.5,-251.7 1023.5,-229.7 746.5,-229.7"/>
<polygon fill="none" stroke="#000000" points="746.5,-229.7 746.5,-251.7 1023.5,-251.7 1023.5,-229.7 746.5,-229.7"/>
<image xlink:href="../../images/foreignKeys.png" width="11px" height="12px" preserveAspectRatio="xMinYMin meet" x="751.5" y="-246.7"/>
<text text-anchor="start" x="766.5" y="-232.3" font-family="Helvetica,sans-Serif" font-size="16.00" fill="#000000">country_code</text>
<polygon fill="#ffffff" stroke="transparent" points="746.5,-207.7 746.5,-229.7 1023.5,-229.7 1023.5,-207.7 746.5,-207.7"/>
<polygon fill="none" stroke="#000000" points="746.5,-207.7 746.5,-229.7 1023.5,-229.7 1023.5,-207.7 746.5,-207.7"/>
<image xlink:href="../../images/foreignKeys.png" width="11px" height="12px" preserveAspectRatio="xMinYMin meet" x="751.5" y="-224.7"/>
<text text-anchor="start" x="766.5" y="-210.3" font-family="Helvetica,sans-Serif" font-size="16.00" fill="#000000">administrative_division_1_code</text>
<polygon fill="#ffffff" stroke="transparent" points="746.5,-185.7 746.5,-207.7 1023.5,-207.7 1023.5,-185.7 746.5,-185.7"/>
<polygon fill="none" stroke="#000000" points="746.5,-185.7 746.5,-207.7 1023.5,-207.7 1023.5,-185.7 746.5,-185.7"/>
<image xlink:href="../../images/foreignKeys.png" width="11px" height="12px" preserveAspectRatio="xMinYMin meet" x="751.5" y="-202.7"/>
<text text-anchor="start" x="766.5" y="-188.3" font-family="Helvetica,sans-Serif" font-size="16.00" fill="#000000">administrative_division_2_code</text>
<polygon fill="#ffffff" stroke="transparent" points="746.5,-163.7 746.5,-185.7 1023.5,-185.7 1023.5,-163.7 746.5,-163.7"/>
<polygon fill="none" stroke="#000000" points="746.5,-163.7 746.5,-185.7 1023.5,-185.7 1023.5,-163.7 746.5,-163.7"/>
<text text-anchor="start" x="766.5" y="-166.3" font-family="Helvetica,sans-Serif" font-size="16.00" fill="#000000">population</text>
<polygon fill="#ffffff" stroke="transparent" points="746.5,-141.7 746.5,-163.7 1023.5,-163.7 1023.5,-141.7 746.5,-141.7"/>
<polygon fill="none" stroke="#000000" points="746.5,-141.7 746.5,-163.7 1023.5,-163.7 1023.5,-141.7 746.5,-141.7"/>
<text text-anchor="start" x="766.5" y="-144.3" font-family="Helvetica,sans-Serif" font-size="16.00" fill="#000000">timezone</text>
<polygon fill="none" stroke="#000000" points="746.5,-116.7 746.5,-141.7 1023.5,-141.7 1023.5,-116.7 746.5,-116.7"/>
<text text-anchor="start" x="749.5" y="-124.3" font-family="Helvetica,sans-Serif" font-size="16.00" fill="#000000">...</text>
<polygon fill="#ffffff" stroke="transparent" points="746.5,-91.7 746.5,-116.7 833.5,-116.7 833.5,-91.7 746.5,-91.7"/>
<polygon fill="none" stroke="#000000" points="746.5,-91.7 746.5,-116.7 833.5,-116.7 833.5,-91.7 746.5,-91.7"/>
<text text-anchor="start" x="749.5" y="-99.3" font-family="Helvetica,sans-Serif" font-size="16.00" fill="#000000">&lt; 4</text>
<polygon fill="#ffffff" stroke="transparent" points="833.5,-91.7 833.5,-116.7 965.5,-116.7 965.5,-91.7 833.5,-91.7"/>
<polygon fill="none" stroke="#000000" points="833.5,-91.7 833.5,-116.7 965.5,-116.7 965.5,-91.7 833.5,-91.7"/>
<text text-anchor="start" x="866.4696" y="-99.3" font-family="Helvetica,sans-Serif" font-size="16.00" fill="#000000">210,698 rows</text>
<polygon fill="#ffffff" stroke="transparent" points="965.5,-91.7 965.5,-116.7 1023.5,-116.7 1023.5,-91.7 965.5,-91.7"/>
<polygon fill="none" stroke="#000000" points="965.5,-91.7 965.5,-116.7 1023.5,-116.7 1023.5,-91.7 965.5,-91.7"/>
<text text-anchor="start" x="997.8168" y="-99.3" font-family="Helvetica,sans-Serif" font-size="16.00" fill="#000000">1 &gt;</text>
</a>
</g>
</g>
<!-- locations_feature_classes -->
<g id="node2" class="node">
<title>locations_feature_classes</title>
<g id="a_node2"><a xlink:href="../../tables/locations_feature_classes.html" xlink:title="locations_feature_classes" target="_top">
<polygon fill="#ffffff" stroke="transparent" points="8,-200.2 8,-301.2 272,-301.2 272,-200.2 8,-200.2"/>
<polygon fill="#f5f5f5" stroke="transparent" points="8,-271.7 8,-300.7 272,-300.7 272,-271.7 8,-271.7"/>
<polygon fill="none" stroke="#000000" points="8,-271.7 8,-300.7 272,-300.7 272,-271.7 8,-271.7"/>
<text text-anchor="start" x="13" y="-278.8" font-family="Helvetica,sans-Serif" font-weight="bold" font-size="16.00" fill="#000000">locations_feature_classes</text>
<text text-anchor="start" x="223.7136" y="-281.3" font-family="Helvetica,sans-Serif" font-size="16.00" fill="#000000">[table]</text>
<polygon fill="none" stroke="#000000" points="8,-249.7 8,-271.7 272,-271.7 272,-249.7 8,-249.7"/>
<image xlink:href="../../images/primaryKeys.png" width="11px" height="12px" preserveAspectRatio="xMinYMin meet" x="13" y="-266.7"/>
<text text-anchor="start" x="44" y="-252.3" font-family="Helvetica,sans-Serif" font-size="16.00" fill="#000000">feature_class</text>
<polygon fill="none" stroke="#000000" points="8,-224.7 8,-249.7 272,-249.7 272,-224.7 8,-224.7"/>
<text text-anchor="start" x="11" y="-232.3" font-family="Helvetica,sans-Serif" font-size="16.00" fill="#000000">...</text>
<polygon fill="#ffffff" stroke="transparent" points="8,-199.7 8,-224.7 106,-224.7 106,-199.7 8,-199.7"/>
<polygon fill="none" stroke="#000000" points="8,-199.7 8,-224.7 106,-224.7 106,-199.7 8,-199.7"/>
<text text-anchor="start" x="11" y="-207.3" font-family="Helvetica,sans-Serif" font-size="16.00" fill="#000000"> &#160;</text>
<polygon fill="#ffffff" stroke="transparent" points="106,-199.7 106,-224.7 201,-224.7 201,-199.7 106,-199.7"/>
<polygon fill="none" stroke="#000000" points="106,-199.7 106,-224.7 201,-224.7 201,-199.7 106,-199.7"/>
<text text-anchor="start" x="150.888" y="-207.3" font-family="Helvetica,sans-Serif" font-size="16.00" fill="#000000">9 rows</text>
<polygon fill="#ffffff" stroke="transparent" points="201,-199.7 201,-224.7 272,-224.7 272,-199.7 201,-199.7"/>
<polygon fill="none" stroke="#000000" points="201,-199.7 201,-224.7 272,-224.7 272,-199.7 201,-199.7"/>
<text text-anchor="start" x="246.3168" y="-207.3" font-family="Helvetica,sans-Serif" font-size="16.00" fill="#000000">2 &gt;</text>
</a>
</g>
</g>
<!-- locations_cities&#45;&gt;locations_feature_classes -->
<g id="edge1" class="edge">
<title>locations_cities:w&#45;&gt;locations_feature_classes:e</title>
<path fill="none" stroke="#000000" d="M732.0016,-286.4578C723.6241,-288.6664 717.7548,-292.3328 705,-293.7 531.7701,-312.2682 477.3153,-351.6126 313,-293.7 290.9387,-285.9245 295.3915,-260.7 272,-260.7"/>
<polygon fill="#000000" stroke="#000000" points="738.5582,-285.6629 746.9333,-288.2738 742.5291,-285.1815 746.5,-284.7 746.5,-284.7 746.5,-284.7 742.5291,-285.1815 746.0667,-281.1262 738.5582,-285.6629 738.5582,-285.6629"/>
<ellipse fill="none" stroke="#000000" cx="735.3814" cy="-286.0481" rx="3.2" ry="3.2"/>
</g>
<!-- locations_feature_codes -->
<g id="node3" class="node">
<title>locations_feature_codes</title>
<g id="a_node3"><a xlink:href="../../tables/locations_feature_codes.html" xlink:title="locations_feature_codes" target="_top">
<polygon fill="#ffffff" stroke="transparent" points="321,-50.2 321,-283.2 697,-283.2 697,-50.2 321,-50.2"/>
<polygon fill="#f5f5f5" stroke="transparent" points="323,-251.7 323,-280.7 695,-280.7 695,-251.7 323,-251.7"/>
<polygon fill="none" stroke="#000000" points="323,-251.7 323,-280.7 695,-280.7 695,-251.7 323,-251.7"/>
<text text-anchor="start" x="328" y="-258.8" font-family="Helvetica,sans-Serif" font-weight="bold" font-size="16.00" fill="#000000">locations_feature_codes</text>
<text text-anchor="start" x="646.4272" y="-261.3" font-family="Helvetica,sans-Serif" font-size="16.00" fill="#000000">[table]</text>
<polygon fill="none" stroke="#000000" points="323,-226.7 323,-251.7 543,-251.7 543,-226.7 323,-226.7"/>
<image xlink:href="../../images/primaryKeys.png" width="11px" height="12px" preserveAspectRatio="xMinYMin meet" x="328" y="-245.2"/>
<text text-anchor="start" x="343" y="-230.8" font-family="Helvetica,sans-Serif" font-size="16.00" fill="#000000">feature_code</text>
<polygon fill="none" stroke="#000000" points="543,-226.7 543,-251.7 695,-251.7 695,-226.7 543,-226.7"/>
<text text-anchor="start" x="546" y="-234.3" font-family="Helvetica,sans-Serif" font-size="16.00" fill="#000000">text[2000000000]</text>
<polygon fill="#ffffff" stroke="transparent" points="323,-201.7 323,-226.7 543,-226.7 543,-201.7 323,-201.7"/>
<polygon fill="none" stroke="#000000" points="323,-201.7 323,-226.7 543,-226.7 543,-201.7 323,-201.7"/>
<image xlink:href="../../images/foreignKeys.png" width="11px" height="12px" preserveAspectRatio="xMinYMin meet" x="328" y="-220.2"/>
<text text-anchor="start" x="343" y="-205.8" font-family="Helvetica,sans-Serif" font-size="16.00" fill="#000000">feature_class</text>
<polygon fill="none" stroke="#000000" points="543,-201.7 543,-226.7 695,-226.7 695,-201.7 543,-201.7"/>
<text text-anchor="start" x="546" y="-209.3" font-family="Helvetica,sans-Serif" font-size="16.00" fill="#000000">text[2000000000]</text>
<polygon fill="#ffffff" stroke="transparent" points="323,-176.7 323,-201.7 543,-201.7 543,-176.7 323,-176.7"/>
<polygon fill="none" stroke="#000000" points="323,-176.7 323,-201.7 543,-201.7 543,-176.7 323,-176.7"/>
<text text-anchor="start" x="343" y="-180.8" font-family="Helvetica,sans-Serif" font-size="16.00" fill="#000000">order</text>
<polygon fill="none" stroke="#000000" points="543,-176.7 543,-201.7 695,-201.7 695,-176.7 543,-176.7"/>
<text text-anchor="start" x="545.6312" y="-184.3" font-family="Helvetica,sans-Serif" font-size="16.00" fill="#000000">integer[2000000000]</text>
<polygon fill="none" stroke="#000000" points="323,-151.7 323,-176.7 543,-176.7 543,-151.7 323,-151.7"/>
<text text-anchor="start" x="343" y="-155.8" font-family="Helvetica,sans-Serif" font-size="16.00" fill="#000000">description</text>
<polygon fill="none" stroke="#000000" points="543,-151.7 543,-176.7 695,-176.7 695,-151.7 543,-151.7"/>
<text text-anchor="start" x="546" y="-159.3" font-family="Helvetica,sans-Serif" font-size="16.00" fill="#000000">text[2000000000]</text>
<polygon fill="none" stroke="#000000" points="323,-126.7 323,-151.7 543,-151.7 543,-126.7 323,-126.7"/>
<text text-anchor="start" x="343" y="-130.8" font-family="Helvetica,sans-Serif" font-size="16.00" fill="#000000">note</text>
<polygon fill="none" stroke="#000000" points="543,-126.7 543,-151.7 695,-151.7 695,-126.7 543,-126.7"/>
<text text-anchor="start" x="546" y="-134.3" font-family="Helvetica,sans-Serif" font-size="16.00" fill="#000000">text[2000000000]</text>
<polygon fill="none" stroke="#000000" points="323,-101.7 323,-126.7 543,-126.7 543,-101.7 323,-101.7"/>
<text text-anchor="start" x="343" y="-105.8" font-family="Helvetica,sans-Serif" font-size="16.00" fill="#000000">inserted_at</text>
<polygon fill="none" stroke="#000000" points="543,-101.7 543,-126.7 695,-126.7 695,-101.7 543,-101.7"/>
<text text-anchor="start" x="546" y="-109.3" font-family="Helvetica,sans-Serif" font-size="16.00" fill="#000000">text[2000000000]</text>
<polygon fill="none" stroke="#000000" points="323,-76.7 323,-101.7 543,-101.7 543,-76.7 323,-76.7"/>
<text text-anchor="start" x="343" y="-80.8" font-family="Helvetica,sans-Serif" font-size="16.00" fill="#000000">updated_at</text>
<polygon fill="none" stroke="#000000" points="543,-76.7 543,-101.7 695,-101.7 695,-76.7 543,-76.7"/>
<text text-anchor="start" x="546" y="-84.3" font-family="Helvetica,sans-Serif" font-size="16.00" fill="#000000">text[2000000000]</text>
<polygon fill="#ffffff" stroke="transparent" points="323,-51.7 323,-76.7 412,-76.7 412,-51.7 323,-51.7"/>
<polygon fill="none" stroke="#000000" points="323,-51.7 323,-76.7 412,-76.7 412,-51.7 323,-51.7"/>
<text text-anchor="start" x="326" y="-59.3" font-family="Helvetica,sans-Serif" font-size="16.00" fill="#000000">&lt; 1</text>
<polygon fill="#ffffff" stroke="transparent" points="412,-51.7 412,-76.7 543,-76.7 543,-51.7 412,-51.7"/>
<polygon fill="none" stroke="#000000" points="412,-51.7 412,-76.7 543,-76.7 543,-51.7 412,-51.7"/>
<text text-anchor="start" x="475.0992" y="-59.3" font-family="Helvetica,sans-Serif" font-size="16.00" fill="#000000">684 rows</text>
<polygon fill="#ffffff" stroke="transparent" points="543,-51.7 543,-76.7 695,-76.7 695,-51.7 543,-51.7"/>
<polygon fill="none" stroke="#000000" points="543,-51.7 543,-76.7 695,-76.7 695,-51.7 543,-51.7"/>
<text text-anchor="start" x="669.3168" y="-59.3" font-family="Helvetica,sans-Serif" font-size="16.00" fill="#000000">1 &gt;</text>
<polygon fill="none" stroke="#000000" stroke-width="2" points="322,-51.2 322,-282.2 696,-282.2 696,-51.2 322,-51.2"/>
</a>
</g>
</g>
<!-- locations_cities&#45;&gt;locations_feature_codes -->
<g id="edge2" class="edge">
<title>locations_cities:w&#45;&gt;locations_feature_codes:e</title>
<path fill="none" stroke="#000000" d="M732.1701,-259.5019C719.4906,-253.1822 714.1925,-239.7 695,-239.7"/>
<polygon fill="#000000" stroke="#000000" points="738.6921,-260.9574 745.7158,-266.2136 742.596,-261.8287 746.5,-262.7 746.5,-262.7 746.5,-262.7 742.596,-261.8287 747.2842,-259.1864 738.6921,-260.9574 738.6921,-260.9574"/>
<ellipse fill="none" stroke="#000000" cx="735.5689" cy="-260.2604" rx="3.2" ry="3.2"/>
</g>
<!-- locations_feature_codes&#45;&gt;locations_feature_classes -->
<g id="edge3" class="edge">
<title>locations_feature_codes:w&#45;&gt;locations_feature_classes:e</title>
<path fill="none" stroke="#000000" d="M309.1532,-219.2788C294.8531,-230.914 296.5628,-260.7 272,-260.7"/>
<polygon fill="#000000" stroke="#000000" points="315.4045,-217.2117 324.1303,-218.118 319.2023,-215.9558 323,-214.7 323,-214.7 323,-214.7 319.2023,-215.9558 321.8697,-211.282 315.4045,-217.2117 315.4045,-217.2117"/>
<ellipse fill="none" stroke="#000000" cx="312.3663" cy="-218.2164" rx="3.2" ry="3.2"/>
</g>
</g>
</svg>
