<?xml version="1.0" encoding="UTF-8" standalone="no"?>
<!DOCTYPE svg PUBLIC "-//W3C//DTD SVG 1.1//EN"
 "http://www.w3.org/Graphics/SVG/1.1/DTD/svg11.dtd">
<!-- Generated by graphviz version 2.40.1 (20161225.0304)
 -->
<!-- Title: twoDegreesRelationshipsDiagramImplied Pages: 1 -->
<svg width="1898pt" height="496pt"
 viewBox="0.00 0.00 1898.00 495.64" xmlns="http://www.w3.org/2000/svg" xmlns:xlink="http://www.w3.org/1999/xlink">
<g id="graph0" class="graph" transform="scale(1 1) rotate(0) translate(4 491.6369)">
<title>twoDegreesRelationshipsDiagramImplied</title>
<polygon fill="#ffffff" stroke="transparent" points="-4,4 -4,-491.6369 1894,-491.6369 1894,4 -4,4"/>
<text text-anchor="middle" x="101.8088" y="-8.8" font-family="Helvetica,sans-Serif" font-size="16.00" fill="#000000">Generated by SchemaSpy</text>
<!-- journal_entries -->
<g id="node1" class="node">
<title>journal_entries</title>
<g id="a_node1"><a xlink:href="../../tables/journal_entries.html" xlink:title="journal_entries" target="_top">
<polygon fill="#ffffff" stroke="transparent" points="1708,-151.6336 1708,-230.6336 1882,-230.6336 1882,-151.6336 1708,-151.6336"/>
<polygon fill="#f5f5f5" stroke="transparent" points="1708,-201.1336 1708,-230.1336 1882,-230.1336 1882,-201.1336 1708,-201.1336"/>
<polygon fill="none" stroke="#000000" points="1708,-201.1336 1708,-230.1336 1882,-230.1336 1882,-201.1336 1708,-201.1336"/>
<text text-anchor="start" x="1713" y="-208.2336" font-family="Helvetica,sans-Serif" font-weight="bold" font-size="16.00" fill="#000000">journal_entries</text>
<text text-anchor="start" x="1833.7136" y="-210.7336" font-family="Helvetica,sans-Serif" font-size="16.00" fill="#000000">[table]</text>
<polygon fill="none" stroke="#000000" points="1708,-176.1336 1708,-201.1336 1882,-201.1336 1882,-176.1336 1708,-176.1336"/>
<text text-anchor="start" x="1711" y="-183.7336" font-family="Helvetica,sans-Serif" font-size="16.00" fill="#000000">...</text>
<polygon fill="#ffffff" stroke="transparent" points="1708,-151.1336 1708,-176.1336 1768,-176.1336 1768,-151.1336 1708,-151.1336"/>
<polygon fill="none" stroke="#000000" points="1708,-151.1336 1708,-176.1336 1768,-176.1336 1768,-151.1336 1708,-151.1336"/>
<text text-anchor="start" x="1711" y="-158.7336" font-family="Helvetica,sans-Serif" font-size="16.00" fill="#000000">&lt; 3</text>
<polygon fill="#ffffff" stroke="transparent" points="1768,-151.1336 1768,-176.1336 1837,-176.1336 1837,-151.1336 1768,-151.1336"/>
<polygon fill="none" stroke="#000000" points="1768,-151.1336 1768,-176.1336 1837,-176.1336 1837,-151.1336 1768,-151.1336"/>
<text text-anchor="start" x="1786.888" y="-158.7336" font-family="Helvetica,sans-Serif" font-size="16.00" fill="#000000">2 rows</text>
<polygon fill="#ffffff" stroke="transparent" points="1837,-151.1336 1837,-176.1336 1882,-176.1336 1882,-151.1336 1837,-151.1336"/>
<polygon fill="none" stroke="#000000" points="1837,-151.1336 1837,-176.1336 1882,-176.1336 1882,-151.1336 1837,-151.1336"/>
<text text-anchor="start" x="1856.3168" y="-158.7336" font-family="Helvetica,sans-Serif" font-size="16.00" fill="#000000">1 &gt;</text>
</a>
</g>
</g>
<!-- locations_cities -->
<g id="node2" class="node">
<title>locations_cities</title>
<g id="a_node2"><a xlink:href="../../tables/locations_cities.html" xlink:title="locations_cities" target="_top">
<polygon fill="#ffffff" stroke="transparent" points="1479,-148.6336 1479,-227.6336 1659,-227.6336 1659,-148.6336 1479,-148.6336"/>
<polygon fill="#f5f5f5" stroke="transparent" points="1479,-198.1336 1479,-227.1336 1659,-227.1336 1659,-198.1336 1479,-198.1336"/>
<polygon fill="none" stroke="#000000" points="1479,-198.1336 1479,-227.1336 1659,-227.1336 1659,-198.1336 1479,-198.1336"/>
<text text-anchor="start" x="1484" y="-205.2336" font-family="Helvetica,sans-Serif" font-weight="bold" font-size="16.00" fill="#000000">locations_cities</text>
<text text-anchor="start" x="1610.7136" y="-207.7336" font-family="Helvetica,sans-Serif" font-size="16.00" fill="#000000">[table]</text>
<polygon fill="none" stroke="#000000" points="1479,-173.1336 1479,-198.1336 1659,-198.1336 1659,-173.1336 1479,-173.1336"/>
<text text-anchor="start" x="1482" y="-180.7336" font-family="Helvetica,sans-Serif" font-size="16.00" fill="#000000">...</text>
<polygon fill="#ffffff" stroke="transparent" points="1479,-148.1336 1479,-173.1336 1518,-173.1336 1518,-148.1336 1479,-148.1336"/>
<polygon fill="none" stroke="#000000" points="1479,-148.1336 1479,-173.1336 1518,-173.1336 1518,-148.1336 1479,-148.1336"/>
<text text-anchor="start" x="1482" y="-155.7336" font-family="Helvetica,sans-Serif" font-size="16.00" fill="#000000">&lt; 5</text>
<polygon fill="#ffffff" stroke="transparent" points="1518,-148.1336 1518,-173.1336 1625,-173.1336 1625,-148.1336 1518,-148.1336"/>
<polygon fill="none" stroke="#000000" points="1518,-148.1336 1518,-173.1336 1625,-173.1336 1625,-148.1336 1518,-148.1336"/>
<text text-anchor="start" x="1525.9696" y="-155.7336" font-family="Helvetica,sans-Serif" font-size="16.00" fill="#000000">210,698 rows</text>
<polygon fill="#ffffff" stroke="transparent" points="1625,-148.1336 1625,-173.1336 1659,-173.1336 1659,-148.1336 1625,-148.1336"/>
<polygon fill="none" stroke="#000000" points="1625,-148.1336 1625,-173.1336 1659,-173.1336 1659,-148.1336 1625,-148.1336"/>
<text text-anchor="start" x="1633.3168" y="-155.7336" font-family="Helvetica,sans-Serif" font-size="16.00" fill="#000000">1 &gt;</text>
</a>
</g>
</g>
<!-- journal_entries&#45;&gt;locations_cities -->
<g id="edge1" class="edge">
<title>journal_entries:w&#45;&gt;locations_cities:e</title>
<path fill="none" stroke="#000000" d="M1693.5909,-188.1336C1684.9171,-188.1336 1676.0879,-188.1336 1667.3384,-188.1336"/>
<polygon fill="#000000" stroke="#000000" points="1700,-188.1336 1708,-191.7336 1704,-188.1336 1708,-188.1336 1708,-188.1336 1708,-188.1336 1704,-188.1336 1708,-184.5336 1700,-188.1336 1700,-188.1336"/>
<ellipse fill="none" stroke="#000000" cx="1696.8" cy="-188.1337" rx="3.2" ry="3.2"/>
</g>
<!-- locations_administrative_divisions_1 -->
<g id="node3" class="node">
<title>locations_administrative_divisions_1</title>
<g id="a_node3"><a xlink:href="../../tables/locations_administrative_divisions_1.html" xlink:title="locations_administrative_divisions_1" target="_top">
<polygon fill="#ffffff" stroke="transparent" points="542,-212.6336 542,-445.6336 1027,-445.6336 1027,-212.6336 542,-212.6336"/>
<polygon fill="#f5f5f5" stroke="transparent" points="544.5,-414.1336 544.5,-443.1336 1025.5,-443.1336 1025.5,-414.1336 544.5,-414.1336"/>
<polygon fill="none" stroke="#000000" points="544.5,-414.1336 544.5,-443.1336 1025.5,-443.1336 1025.5,-414.1336 544.5,-414.1336"/>
<text text-anchor="start" x="549.5" y="-421.2336" font-family="Helvetica,sans-Serif" font-weight="bold" font-size="16.00" fill="#000000">locations_administrative_divisions_1</text>
<text text-anchor="start" x="976.9272" y="-423.7336" font-family="Helvetica,sans-Serif" font-size="16.00" fill="#000000">[table]</text>
<polygon fill="none" stroke="#000000" points="544.5,-389.1336 544.5,-414.1336 873.5,-414.1336 873.5,-389.1336 544.5,-389.1336"/>
<image xlink:href="../../images/primaryKeys.png" width="11px" height="12px" preserveAspectRatio="xMinYMin meet" x="549.5" y="-407.634"/>
<text text-anchor="start" x="564.5" y="-393.2336" font-family="Helvetica,sans-Serif" font-size="16.00" fill="#000000">administrative_division_1_code</text>
<polygon fill="none" stroke="#000000" points="873.5,-389.1336 873.5,-414.1336 1025.5,-414.1336 1025.5,-389.1336 873.5,-389.1336"/>
<text text-anchor="start" x="876.5" y="-396.7336" font-family="Helvetica,sans-Serif" font-size="16.00" fill="#000000">text[2000000000]</text>
<polygon fill="#ffffff" stroke="transparent" points="544.5,-364.1336 544.5,-389.1336 873.5,-389.1336 873.5,-364.1336 544.5,-364.1336"/>
<polygon fill="none" stroke="#000000" points="544.5,-364.1336 544.5,-389.1336 873.5,-389.1336 873.5,-364.1336 544.5,-364.1336"/>
<image xlink:href="../../images/foreignKeys.png" width="11px" height="12px" preserveAspectRatio="xMinYMin meet" x="549.5" y="-382.634"/>
<text text-anchor="start" x="564.5" y="-368.2336" font-family="Helvetica,sans-Serif" font-size="16.00" fill="#000000">country_code</text>
<polygon fill="none" stroke="#000000" points="873.5,-364.1336 873.5,-389.1336 1025.5,-389.1336 1025.5,-364.1336 873.5,-364.1336"/>
<text text-anchor="start" x="876.5" y="-371.7336" font-family="Helvetica,sans-Serif" font-size="16.00" fill="#000000">text[2000000000]</text>
<polygon fill="#ffffff" stroke="transparent" points="544.5,-339.1336 544.5,-364.1336 873.5,-364.1336 873.5,-339.1336 544.5,-339.1336"/>
<polygon fill="none" stroke="#000000" points="544.5,-339.1336 544.5,-364.1336 873.5,-364.1336 873.5,-339.1336 544.5,-339.1336"/>
<text text-anchor="start" x="564.5" y="-343.2336" font-family="Helvetica,sans-Serif" font-size="16.00" fill="#000000">administrative_division_1_name</text>
<polygon fill="none" stroke="#000000" points="873.5,-339.1336 873.5,-364.1336 1025.5,-364.1336 1025.5,-339.1336 873.5,-339.1336"/>
<text text-anchor="start" x="876.5" y="-346.7336" font-family="Helvetica,sans-Serif" font-size="16.00" fill="#000000">text[2000000000]</text>
<polygon fill="#ffffff" stroke="transparent" points="544.5,-314.1336 544.5,-339.1336 873.5,-339.1336 873.5,-314.1336 544.5,-314.1336"/>
<polygon fill="none" stroke="#000000" points="544.5,-314.1336 544.5,-339.1336 873.5,-339.1336 873.5,-314.1336 544.5,-314.1336"/>
<text text-anchor="start" x="564.5" y="-318.2336" font-family="Helvetica,sans-Serif" font-size="16.00" fill="#000000">administrative_division_1_ascii_name</text>
<polygon fill="none" stroke="#000000" points="873.5,-314.1336 873.5,-339.1336 1025.5,-339.1336 1025.5,-314.1336 873.5,-314.1336"/>
<text text-anchor="start" x="876.5" y="-321.7336" font-family="Helvetica,sans-Serif" font-size="16.00" fill="#000000">text[2000000000]</text>
<polygon fill="#ffffff" stroke="transparent" points="544.5,-289.1336 544.5,-314.1336 873.5,-314.1336 873.5,-289.1336 544.5,-289.1336"/>
<polygon fill="none" stroke="#000000" points="544.5,-289.1336 544.5,-314.1336 873.5,-314.1336 873.5,-289.1336 544.5,-289.1336"/>
<text text-anchor="start" x="564.5" y="-293.2336" font-family="Helvetica,sans-Serif" font-size="16.00" fill="#000000">geoname_id</text>
<polygon fill="none" stroke="#000000" points="873.5,-289.1336 873.5,-314.1336 1025.5,-314.1336 1025.5,-289.1336 873.5,-289.1336"/>
<text text-anchor="start" x="876.1312" y="-296.7336" font-family="Helvetica,sans-Serif" font-size="16.00" fill="#000000">integer[2000000000]</text>
<polygon fill="none" stroke="#000000" points="544.5,-264.1336 544.5,-289.1336 873.5,-289.1336 873.5,-264.1336 544.5,-264.1336"/>
<text text-anchor="start" x="564.5" y="-268.2336" font-family="Helvetica,sans-Serif" font-size="16.00" fill="#000000">inserted_at</text>
<polygon fill="none" stroke="#000000" points="873.5,-264.1336 873.5,-289.1336 1025.5,-289.1336 1025.5,-264.1336 873.5,-264.1336"/>
<text text-anchor="start" x="876.5" y="-271.7336" font-family="Helvetica,sans-Serif" font-size="16.00" fill="#000000">text[2000000000]</text>
<polygon fill="none" stroke="#000000" points="544.5,-239.1336 544.5,-264.1336 873.5,-264.1336 873.5,-239.1336 544.5,-239.1336"/>
<text text-anchor="start" x="564.5" y="-243.2336" font-family="Helvetica,sans-Serif" font-size="16.00" fill="#000000">updated_at</text>
<polygon fill="none" stroke="#000000" points="873.5,-239.1336 873.5,-264.1336 1025.5,-264.1336 1025.5,-239.1336 873.5,-239.1336"/>
<text text-anchor="start" x="876.5" y="-246.7336" font-family="Helvetica,sans-Serif" font-size="16.00" fill="#000000">text[2000000000]</text>
<polygon fill="#ffffff" stroke="transparent" points="544.5,-214.1336 544.5,-239.1336 680.5,-239.1336 680.5,-214.1336 544.5,-214.1336"/>
<polygon fill="none" stroke="#000000" points="544.5,-214.1336 544.5,-239.1336 680.5,-239.1336 680.5,-214.1336 544.5,-214.1336"/>
<text text-anchor="start" x="547.5" y="-221.7336" font-family="Helvetica,sans-Serif" font-size="16.00" fill="#000000">&lt; 1</text>
<polygon fill="#ffffff" stroke="transparent" points="680.5,-214.1336 680.5,-239.1336 873.5,-239.1336 873.5,-214.1336 680.5,-214.1336"/>
<polygon fill="none" stroke="#000000" points="680.5,-214.1336 680.5,-239.1336 873.5,-239.1336 873.5,-214.1336 680.5,-214.1336"/>
<text text-anchor="start" x="792.2584" y="-221.7336" font-family="Helvetica,sans-Serif" font-size="16.00" fill="#000000">3,893 rows</text>
<polygon fill="#ffffff" stroke="transparent" points="873.5,-214.1336 873.5,-239.1336 1025.5,-239.1336 1025.5,-214.1336 873.5,-214.1336"/>
<polygon fill="none" stroke="#000000" points="873.5,-214.1336 873.5,-239.1336 1025.5,-239.1336 1025.5,-214.1336 873.5,-214.1336"/>
<text text-anchor="start" x="999.8168" y="-221.7336" font-family="Helvetica,sans-Serif" font-size="16.00" fill="#000000">2 &gt;</text>
<polygon fill="none" stroke="#000000" stroke-width="2" points="543,-213.6336 543,-444.6336 1026,-444.6336 1026,-213.6336 543,-213.6336"/>
</a>
</g>
</g>
<!-- locations_cities&#45;&gt;locations_administrative_divisions_1 -->
<g id="edge5" class="edge">
<title>locations_cities:w&#45;&gt;locations_administrative_divisions_1:e</title>
<path fill="none" stroke="#000000" d="M1456.2476,-206.6936C1349.2535,-228.348 1187.4955,-271.8948 1068,-352.1336 1043.7869,-368.3922 1054.6653,-402.1336 1025.5,-402.1336"/>
<polygon fill="#000000" stroke="#000000" points="1462.7973,-205.3978 1471.3439,-207.3765 1466.7212,-204.6213 1470.6451,-203.8449 1470.6451,-203.8449 1470.6451,-203.8449 1466.7212,-204.6213 1469.9464,-200.3134 1462.7973,-205.3978 1462.7973,-205.3978"/>
<ellipse fill="none" stroke="#000000" cx="1459.6581" cy="-206.0189" rx="3.2" ry="3.2"/>
</g>
<!-- locations_countries -->
<g id="node4" class="node">
<title>locations_countries</title>
<g id="a_node4"><a xlink:href="../../tables/locations_countries.html" xlink:title="locations_countries" target="_top">
<polygon fill="#ffffff" stroke="transparent" points="280,-337.6336 280,-416.6336 493,-416.6336 493,-337.6336 280,-337.6336"/>
<polygon fill="#f5f5f5" stroke="transparent" points="280.5,-387.1336 280.5,-416.1336 493.5,-416.1336 493.5,-387.1336 280.5,-387.1336"/>
<polygon fill="none" stroke="#000000" points="280.5,-387.1336 280.5,-416.1336 493.5,-416.1336 493.5,-387.1336 280.5,-387.1336"/>
<text text-anchor="start" x="285.5" y="-394.2336" font-family="Helvetica,sans-Serif" font-weight="bold" font-size="16.00" fill="#000000">locations_countries</text>
<text text-anchor="start" x="445.2136" y="-396.7336" font-family="Helvetica,sans-Serif" font-size="16.00" fill="#000000">[table]</text>
<polygon fill="none" stroke="#000000" points="280.5,-362.1336 280.5,-387.1336 493.5,-387.1336 493.5,-362.1336 280.5,-362.1336"/>
<text text-anchor="start" x="283.5" y="-369.7336" font-family="Helvetica,sans-Serif" font-size="16.00" fill="#000000">...</text>
<polygon fill="#ffffff" stroke="transparent" points="280.5,-337.1336 280.5,-362.1336 351.5,-362.1336 351.5,-337.1336 280.5,-337.1336"/>
<polygon fill="none" stroke="#000000" points="280.5,-337.1336 280.5,-362.1336 351.5,-362.1336 351.5,-337.1336 280.5,-337.1336"/>
<text text-anchor="start" x="283.5" y="-344.7336" font-family="Helvetica,sans-Serif" font-size="16.00" fill="#000000">&lt; 1</text>
<polygon fill="#ffffff" stroke="transparent" points="351.5,-337.1336 351.5,-362.1336 443.5,-362.1336 443.5,-337.1336 351.5,-337.1336"/>
<polygon fill="none" stroke="#000000" points="351.5,-337.1336 351.5,-362.1336 443.5,-362.1336 443.5,-337.1336 351.5,-337.1336"/>
<text text-anchor="start" x="375.5992" y="-344.7336" font-family="Helvetica,sans-Serif" font-size="16.00" fill="#000000">252 rows</text>
<polygon fill="#ffffff" stroke="transparent" points="443.5,-337.1336 443.5,-362.1336 493.5,-362.1336 493.5,-337.1336 443.5,-337.1336"/>
<polygon fill="none" stroke="#000000" points="443.5,-337.1336 443.5,-362.1336 493.5,-362.1336 493.5,-337.1336 443.5,-337.1336"/>
<text text-anchor="start" x="467.8168" y="-344.7336" font-family="Helvetica,sans-Serif" font-size="16.00" fill="#000000">3 &gt;</text>
</a>
</g>
</g>
<!-- locations_cities&#45;&gt;locations_countries -->
<g id="edge7" class="edge">
<title>locations_cities:w&#45;&gt;locations_countries:e</title>
<path fill="none" stroke="#000000" d="M1456.118,-184.404C1204.9341,-176.8566 615.4724,-163.5792 534,-202.1336 476.3551,-229.4123 433.0136,-291.2733 408.6989,-333.6313"/>
<polygon fill="#000000" stroke="#000000" points="1462.7233,-184.6047 1470.6103,-188.4461 1466.7215,-184.7262 1470.7196,-184.8478 1470.7196,-184.8478 1470.7196,-184.8478 1466.7215,-184.7262 1470.829,-181.2494 1462.7233,-184.6047 1462.7233,-184.6047"/>
<ellipse fill="none" stroke="#000000" cx="1459.5248" cy="-184.5075" rx="3.2" ry="3.2"/>
</g>
<!-- locations_administrative_divisions_2 -->
<g id="node5" class="node">
<title>locations_administrative_divisions_2</title>
<g id="a_node5"><a xlink:href="../../tables/locations_administrative_divisions_2.html" xlink:title="locations_administrative_divisions_2" target="_top">
<polygon fill="#ffffff" stroke="transparent" points="1076,-362.6336 1076,-441.6336 1430,-441.6336 1430,-362.6336 1076,-362.6336"/>
<polygon fill="#f5f5f5" stroke="transparent" points="1076,-412.1336 1076,-441.1336 1430,-441.1336 1430,-412.1336 1076,-412.1336"/>
<polygon fill="none" stroke="#000000" points="1076,-412.1336 1076,-441.1336 1430,-441.1336 1430,-412.1336 1076,-412.1336"/>
<text text-anchor="start" x="1081" y="-419.2336" font-family="Helvetica,sans-Serif" font-weight="bold" font-size="16.00" fill="#000000">locations_administrative_divisions_2</text>
<text text-anchor="start" x="1381.7136" y="-421.7336" font-family="Helvetica,sans-Serif" font-size="16.00" fill="#000000">[table]</text>
<polygon fill="none" stroke="#000000" points="1076,-387.1336 1076,-412.1336 1430,-412.1336 1430,-387.1336 1076,-387.1336"/>
<text text-anchor="start" x="1079" y="-394.7336" font-family="Helvetica,sans-Serif" font-size="16.00" fill="#000000">...</text>
<polygon fill="#ffffff" stroke="transparent" points="1076,-362.1336 1076,-387.1336 1206,-387.1336 1206,-362.1336 1076,-362.1336"/>
<polygon fill="none" stroke="#000000" points="1076,-362.1336 1076,-387.1336 1206,-387.1336 1206,-362.1336 1076,-362.1336"/>
<text text-anchor="start" x="1079" y="-369.7336" font-family="Helvetica,sans-Serif" font-size="16.00" fill="#000000">&lt; 2</text>
<polygon fill="#ffffff" stroke="transparent" points="1206,-362.1336 1206,-387.1336 1350,-387.1336 1350,-362.1336 1206,-362.1336"/>
<polygon fill="none" stroke="#000000" points="1206,-362.1336 1206,-387.1336 1350,-387.1336 1350,-362.1336 1206,-362.1336"/>
<text text-anchor="start" x="1259.864" y="-369.7336" font-family="Helvetica,sans-Serif" font-size="16.00" fill="#000000">47,229 rows</text>
<polygon fill="#ffffff" stroke="transparent" points="1350,-362.1336 1350,-387.1336 1430,-387.1336 1430,-362.1336 1350,-362.1336"/>
<polygon fill="none" stroke="#000000" points="1350,-362.1336 1350,-387.1336 1430,-387.1336 1430,-362.1336 1350,-362.1336"/>
<text text-anchor="start" x="1404.3168" y="-369.7336" font-family="Helvetica,sans-Serif" font-size="16.00" fill="#000000">1 &gt;</text>
</a>
</g>
</g>
<!-- locations_cities&#45;&gt;locations_administrative_divisions_2 -->
<g id="edge6" class="edge">
<title>locations_cities:w&#45;&gt;locations_administrative_divisions_2:e</title>
<path fill="none" stroke="#000000" stroke-dasharray="5,2" d="M1502.0589,-240.567C1481.7618,-255.9611 1459.2172,-272.5663 1438,-287.1336 1401.9908,-311.8567 1360.8164,-337.68 1326.4675,-358.5782"/>
<polygon fill="#000000" stroke="#000000" points="1507.3626,-236.5204 1515.9065,-234.5298 1510.5427,-234.094 1513.7228,-231.6677 1513.7228,-231.6677 1513.7228,-231.6677 1510.5427,-234.094 1511.5391,-228.8056 1507.3626,-236.5204 1507.3626,-236.5204"/>
<ellipse fill="none" stroke="#000000" cx="1504.8186" cy="-238.4615" rx="3.2" ry="3.2"/>
</g>
<!-- locations_feature_classes -->
<g id="node6" class="node">
<title>locations_feature_classes</title>
<g id="a_node6"><a xlink:href="../../tables/locations_feature_classes.html" xlink:title="locations_feature_classes" target="_top">
<polygon fill="#ffffff" stroke="transparent" points="652.5,-54.6336 652.5,-133.6336 916.5,-133.6336 916.5,-54.6336 652.5,-54.6336"/>
<polygon fill="#f5f5f5" stroke="transparent" points="652.5,-104.1336 652.5,-133.1336 916.5,-133.1336 916.5,-104.1336 652.5,-104.1336"/>
<polygon fill="none" stroke="#000000" points="652.5,-104.1336 652.5,-133.1336 916.5,-133.1336 916.5,-104.1336 652.5,-104.1336"/>
<text text-anchor="start" x="657.5" y="-111.2336" font-family="Helvetica,sans-Serif" font-weight="bold" font-size="16.00" fill="#000000">locations_feature_classes</text>
<text text-anchor="start" x="868.2136" y="-113.7336" font-family="Helvetica,sans-Serif" font-size="16.00" fill="#000000">[table]</text>
<polygon fill="none" stroke="#000000" points="652.5,-79.1336 652.5,-104.1336 916.5,-104.1336 916.5,-79.1336 652.5,-79.1336"/>
<text text-anchor="start" x="655.5" y="-86.7336" font-family="Helvetica,sans-Serif" font-size="16.00" fill="#000000">...</text>
<polygon fill="#ffffff" stroke="transparent" points="652.5,-54.1336 652.5,-79.1336 750.5,-79.1336 750.5,-54.1336 652.5,-54.1336"/>
<polygon fill="none" stroke="#000000" points="652.5,-54.1336 652.5,-79.1336 750.5,-79.1336 750.5,-54.1336 652.5,-54.1336"/>
<text text-anchor="start" x="655.5" y="-61.7336" font-family="Helvetica,sans-Serif" font-size="16.00" fill="#000000"> &#160;</text>
<polygon fill="#ffffff" stroke="transparent" points="750.5,-54.1336 750.5,-79.1336 845.5,-79.1336 845.5,-54.1336 750.5,-54.1336"/>
<polygon fill="none" stroke="#000000" points="750.5,-54.1336 750.5,-79.1336 845.5,-79.1336 845.5,-54.1336 750.5,-54.1336"/>
<text text-anchor="start" x="795.388" y="-61.7336" font-family="Helvetica,sans-Serif" font-size="16.00" fill="#000000">9 rows</text>
<polygon fill="#ffffff" stroke="transparent" points="845.5,-54.1336 845.5,-79.1336 916.5,-79.1336 916.5,-54.1336 845.5,-54.1336"/>
<polygon fill="none" stroke="#000000" points="845.5,-54.1336 845.5,-79.1336 916.5,-79.1336 916.5,-54.1336 845.5,-54.1336"/>
<text text-anchor="start" x="890.8168" y="-61.7336" font-family="Helvetica,sans-Serif" font-size="16.00" fill="#000000">2 &gt;</text>
</a>
</g>
</g>
<!-- locations_cities&#45;&gt;locations_feature_classes -->
<g id="edge8" class="edge">
<title>locations_cities:w&#45;&gt;locations_feature_classes:e</title>
<path fill="none" stroke="#000000" d="M1523.5671,-133.9999C1500.6036,-110.8483 1470.6896,-86.3657 1438,-74.1336 1283.9849,-16.5026 1232.1878,-64.9505 1068,-74.1336 1000.3498,-77.9173 984.2559,-91.1336 916.5,-91.1336"/>
<polygon fill="#000000" stroke="#000000" points="1528.0816,-138.7158 1531.0133,-146.9842 1530.8477,-141.6052 1533.6138,-144.4947 1533.6138,-144.4947 1533.6138,-144.4947 1530.8477,-141.6052 1536.2143,-142.0052 1528.0816,-138.7158 1528.0816,-138.7158"/>
<ellipse fill="none" stroke="#000000" cx="1525.8687" cy="-136.4042" rx="3.2" ry="3.2"/>
</g>
<!-- locations_feature_codes -->
<g id="node7" class="node">
<title>locations_feature_codes</title>
<g id="a_node7"><a xlink:href="../../tables/locations_feature_codes.html" xlink:title="locations_feature_codes" target="_top">
<polygon fill="#ffffff" stroke="transparent" points="1127,-84.6336 1127,-163.6336 1379,-163.6336 1379,-84.6336 1127,-84.6336"/>
<polygon fill="#f5f5f5" stroke="transparent" points="1127,-134.1336 1127,-163.1336 1379,-163.1336 1379,-134.1336 1127,-134.1336"/>
<polygon fill="none" stroke="#000000" points="1127,-134.1336 1127,-163.1336 1379,-163.1336 1379,-134.1336 1127,-134.1336"/>
<text text-anchor="start" x="1132" y="-141.2336" font-family="Helvetica,sans-Serif" font-weight="bold" font-size="16.00" fill="#000000">locations_feature_codes</text>
<text text-anchor="start" x="1330.7136" y="-143.7336" font-family="Helvetica,sans-Serif" font-size="16.00" fill="#000000">[table]</text>
<polygon fill="none" stroke="#000000" points="1127,-109.1336 1127,-134.1336 1379,-134.1336 1379,-109.1336 1127,-109.1336"/>
<text text-anchor="start" x="1130" y="-116.7336" font-family="Helvetica,sans-Serif" font-size="16.00" fill="#000000">...</text>
<polygon fill="#ffffff" stroke="transparent" points="1127,-84.1336 1127,-109.1336 1218,-109.1336 1218,-84.1336 1127,-84.1336"/>
<polygon fill="none" stroke="#000000" points="1127,-84.1336 1127,-109.1336 1218,-109.1336 1218,-84.1336 1127,-84.1336"/>
<text text-anchor="start" x="1130" y="-91.7336" font-family="Helvetica,sans-Serif" font-size="16.00" fill="#000000">&lt; 1</text>
<polygon fill="#ffffff" stroke="transparent" points="1218,-84.1336 1218,-109.1336 1319,-109.1336 1319,-84.1336 1218,-84.1336"/>
<polygon fill="none" stroke="#000000" points="1218,-84.1336 1218,-109.1336 1319,-109.1336 1319,-84.1336 1218,-84.1336"/>
<text text-anchor="start" x="1251.0992" y="-91.7336" font-family="Helvetica,sans-Serif" font-size="16.00" fill="#000000">684 rows</text>
<polygon fill="#ffffff" stroke="transparent" points="1319,-84.1336 1319,-109.1336 1379,-109.1336 1379,-84.1336 1319,-84.1336"/>
<polygon fill="none" stroke="#000000" points="1319,-84.1336 1319,-109.1336 1379,-109.1336 1379,-84.1336 1319,-84.1336"/>
<text text-anchor="start" x="1353.3168" y="-91.7336" font-family="Helvetica,sans-Serif" font-size="16.00" fill="#000000">1 &gt;</text>
</a>
</g>
</g>
<!-- locations_cities&#45;&gt;locations_feature_codes -->
<g id="edge9" class="edge">
<title>locations_cities:w&#45;&gt;locations_feature_codes:e</title>
<path fill="none" stroke="#000000" d="M1470.3474,-139.32C1441.599,-128.9888 1409.6595,-121.1336 1379,-121.1336"/>
<polygon fill="#000000" stroke="#000000" points="1476.7041,-141.7304 1482.9079,-147.933 1480.4442,-143.1486 1484.1843,-144.5669 1484.1843,-144.5669 1484.1843,-144.5669 1480.4442,-143.1486 1485.4608,-141.2008 1476.7041,-141.7304 1476.7041,-141.7304"/>
<ellipse fill="none" stroke="#000000" cx="1473.7119" cy="-140.5958" rx="3.2" ry="3.2"/>
</g>
<!-- locations_administrative_divisions_1&#45;&gt;locations_countries -->
<g id="edge2" class="edge">
<title>locations_administrative_divisions_1:w&#45;&gt;locations_countries:e</title>
<path fill="none" stroke="#000000" d="M529.8601,-377.1336C520.4296,-377.1336 510.8224,-377.1336 501.2738,-377.1336"/>
<polygon fill="#000000" stroke="#000000" points="536.5,-377.1336 544.5,-380.7336 540.5,-377.1336 544.5,-377.1336 544.5,-377.1336 544.5,-377.1336 540.5,-377.1336 544.5,-373.5336 536.5,-377.1336 536.5,-377.1336"/>
<ellipse fill="none" stroke="#000000" cx="533.3" cy="-377.1337" rx="3.2" ry="3.2"/>
</g>
<!-- locations_continents -->
<g id="node8" class="node">
<title>locations_continents</title>
<g id="a_node8"><a xlink:href="../../tables/locations_continents.html" xlink:title="locations_continents" target="_top">
<polygon fill="#ffffff" stroke="transparent" points="8,-340.6336 8,-419.6336 231,-419.6336 231,-340.6336 8,-340.6336"/>
<polygon fill="#f5f5f5" stroke="transparent" points="8.5,-390.1336 8.5,-419.1336 231.5,-419.1336 231.5,-390.1336 8.5,-390.1336"/>
<polygon fill="none" stroke="#000000" points="8.5,-390.1336 8.5,-419.1336 231.5,-419.1336 231.5,-390.1336 8.5,-390.1336"/>
<text text-anchor="start" x="13.5" y="-397.2336" font-family="Helvetica,sans-Serif" font-weight="bold" font-size="16.00" fill="#000000">locations_continents</text>
<text text-anchor="start" x="183.2136" y="-399.7336" font-family="Helvetica,sans-Serif" font-size="16.00" fill="#000000">[table]</text>
<polygon fill="none" stroke="#000000" points="8.5,-365.1336 8.5,-390.1336 231.5,-390.1336 231.5,-365.1336 8.5,-365.1336"/>
<text text-anchor="start" x="11.5" y="-372.7336" font-family="Helvetica,sans-Serif" font-size="16.00" fill="#000000">...</text>
<polygon fill="#ffffff" stroke="transparent" points="8.5,-340.1336 8.5,-365.1336 86.5,-365.1336 86.5,-340.1336 8.5,-340.1336"/>
<polygon fill="none" stroke="#000000" points="8.5,-340.1336 8.5,-365.1336 86.5,-365.1336 86.5,-340.1336 8.5,-340.1336"/>
<text text-anchor="start" x="11.5" y="-347.7336" font-family="Helvetica,sans-Serif" font-size="16.00" fill="#000000"> &#160;</text>
<polygon fill="#ffffff" stroke="transparent" points="86.5,-340.1336 86.5,-365.1336 171.5,-365.1336 171.5,-340.1336 86.5,-340.1336"/>
<polygon fill="none" stroke="#000000" points="86.5,-340.1336 86.5,-365.1336 171.5,-365.1336 171.5,-340.1336 86.5,-340.1336"/>
<text text-anchor="start" x="121.388" y="-347.7336" font-family="Helvetica,sans-Serif" font-size="16.00" fill="#000000">7 rows</text>
<polygon fill="#ffffff" stroke="transparent" points="171.5,-340.1336 171.5,-365.1336 231.5,-365.1336 231.5,-340.1336 171.5,-340.1336"/>
<polygon fill="none" stroke="#000000" points="171.5,-340.1336 171.5,-365.1336 231.5,-365.1336 231.5,-340.1336 171.5,-340.1336"/>
<text text-anchor="start" x="205.8168" y="-347.7336" font-family="Helvetica,sans-Serif" font-size="16.00" fill="#000000">1 &gt;</text>
</a>
</g>
</g>
<!-- locations_countries&#45;&gt;locations_continents -->
<g id="edge10" class="edge">
<title>locations_countries:w&#45;&gt;locations_continents:e</title>
<path fill="none" stroke="#000000" d="M257.1591,-377.1336C248.4756,-377.1336 239.8609,-377.1336 231.5,-377.1336"/>
<polygon fill="#000000" stroke="#000000" points="263.8054,-377.1336 271.8055,-380.7336 267.8054,-377.1336 271.8054,-377.1336 271.8054,-377.1336 271.8054,-377.1336 267.8054,-377.1336 271.8054,-373.5336 263.8054,-377.1336 263.8054,-377.1336"/>
<ellipse fill="none" stroke="#000000" cx="260.6054" cy="-377.1337" rx="3.2" ry="3.2"/>
</g>
<!-- locations_administrative_divisions_2&#45;&gt;locations_administrative_divisions_1 -->
<g id="edge3" class="edge">
<title>locations_administrative_divisions_2:w&#45;&gt;locations_administrative_divisions_1:e</title>
<path fill="none" stroke="#000000" d="M1053.0157,-402.1336C1043.7147,-402.1336 1034.5071,-402.1336 1025.5,-402.1336"/>
<polygon fill="#000000" stroke="#000000" points="1059.6931,-402.1336 1067.6931,-405.7336 1063.6931,-402.1336 1067.6931,-402.1336 1067.6931,-402.1336 1067.6931,-402.1336 1063.6931,-402.1336 1067.6931,-398.5336 1059.6931,-402.1336 1059.6931,-402.1336"/>
<ellipse fill="none" stroke="#000000" cx="1056.4931" cy="-402.1337" rx="3.2" ry="3.2"/>
</g>
<!-- locations_administrative_divisions_2&#45;&gt;locations_countries -->
<g id="edge4" class="edge">
<title>locations_administrative_divisions_2:w&#45;&gt;locations_countries:e</title>
<path fill="none" stroke="#000000" d="M1082.1444,-448.5994C1066.2978,-451.6522 1050.409,-454.2535 1035,-456.1336 813.9724,-483.101 749.9708,-510.328 534,-456.1336 505.2608,-448.9219 476.0071,-434.9156 451.2114,-420.674"/>
<polygon fill="#000000" stroke="#000000" points="1088.8278,-447.2547 1097.3808,-449.206 1092.7492,-446.4657 1096.6706,-445.6767 1096.6706,-445.6767 1096.6706,-445.6767 1092.7492,-446.4657 1095.9605,-442.1474 1088.8278,-447.2547 1088.8278,-447.2547"/>
<ellipse fill="none" stroke="#000000" cx="1085.6907" cy="-447.886" rx="3.2" ry="3.2"/>
</g>
<!-- locations_feature_codes&#45;&gt;locations_feature_classes -->
<g id="edge11" class="edge">
<title>locations_feature_codes:w&#45;&gt;locations_feature_classes:e</title>
<path fill="none" stroke="#000000" d="M1112.382,-120.8832C1029.9791,-117.9975 1005.9252,-91.1336 916.5,-91.1336"/>
<polygon fill="#000000" stroke="#000000" points="1119.0012,-120.9965 1126.9383,-124.733 1123.0006,-121.0651 1127,-121.1336 1127,-121.1336 1127,-121.1336 1123.0006,-121.0651 1127.0617,-117.5341 1119.0012,-120.9965 1119.0012,-120.9965"/>
<ellipse fill="none" stroke="#000000" cx="1115.8016" cy="-120.9417" rx="3.2" ry="3.2"/>
</g>
</g>
</svg>
