<?xml version="1.0" encoding="UTF-8" standalone="no"?>
<!DOCTYPE svg PUBLIC "-//W3C//DTD SVG 1.1//EN"
 "http://www.w3.org/Graphics/SVG/1.1/DTD/svg11.dtd">
<!-- Generated by graphviz version 2.40.1 (20161225.0304)
 -->
<!-- Title: twoDegreesRelationshipsDiagramImplied Pages: 1 -->
<svg width="1898pt" height="566pt"
 viewBox="0.00 0.00 1898.00 566.07" xmlns="http://www.w3.org/2000/svg" xmlns:xlink="http://www.w3.org/1999/xlink">
<g id="graph0" class="graph" transform="scale(1 1) rotate(0) translate(4 562.0725)">
<title>twoDegreesRelationshipsDiagramImplied</title>
<polygon fill="#ffffff" stroke="transparent" points="-4,4 -4,-562.0725 1894,-562.0725 1894,4 -4,4"/>
<text text-anchor="middle" x="101.8088" y="-8.8" font-family="Helvetica,sans-Serif" font-size="16.00" fill="#000000">Generated by SchemaSpy</text>
<!-- journal_entries -->
<g id="node1" class="node">
<title>journal_entries</title>
<g id="a_node1"><a xlink:href="../../tables/journal_entries.html" xlink:title="journal_entries" target="_top">
<polygon fill="#ffffff" stroke="transparent" points="1708,-163.8405 1708,-242.8405 1882,-242.8405 1882,-163.8405 1708,-163.8405"/>
<polygon fill="#f5f5f5" stroke="transparent" points="1708,-213.3405 1708,-242.3405 1882,-242.3405 1882,-213.3405 1708,-213.3405"/>
<polygon fill="none" stroke="#000000" points="1708,-213.3405 1708,-242.3405 1882,-242.3405 1882,-213.3405 1708,-213.3405"/>
<text text-anchor="start" x="1713" y="-220.4405" font-family="Helvetica,sans-Serif" font-weight="bold" font-size="16.00" fill="#000000">journal_entries</text>
<text text-anchor="start" x="1833.7136" y="-222.9405" font-family="Helvetica,sans-Serif" font-size="16.00" fill="#000000">[table]</text>
<polygon fill="none" stroke="#000000" points="1708,-188.3405 1708,-213.3405 1882,-213.3405 1882,-188.3405 1708,-188.3405"/>
<text text-anchor="start" x="1711" y="-195.9405" font-family="Helvetica,sans-Serif" font-size="16.00" fill="#000000">...</text>
<polygon fill="#ffffff" stroke="transparent" points="1708,-163.3405 1708,-188.3405 1768,-188.3405 1768,-163.3405 1708,-163.3405"/>
<polygon fill="none" stroke="#000000" points="1708,-163.3405 1708,-188.3405 1768,-188.3405 1768,-163.3405 1708,-163.3405"/>
<text text-anchor="start" x="1711" y="-170.9405" font-family="Helvetica,sans-Serif" font-size="16.00" fill="#000000">&lt; 3</text>
<polygon fill="#ffffff" stroke="transparent" points="1768,-163.3405 1768,-188.3405 1837,-188.3405 1837,-163.3405 1768,-163.3405"/>
<polygon fill="none" stroke="#000000" points="1768,-163.3405 1768,-188.3405 1837,-188.3405 1837,-163.3405 1768,-163.3405"/>
<text text-anchor="start" x="1786.888" y="-170.9405" font-family="Helvetica,sans-Serif" font-size="16.00" fill="#000000">2 rows</text>
<polygon fill="#ffffff" stroke="transparent" points="1837,-163.3405 1837,-188.3405 1882,-188.3405 1882,-163.3405 1837,-163.3405"/>
<polygon fill="none" stroke="#000000" points="1837,-163.3405 1837,-188.3405 1882,-188.3405 1882,-163.3405 1837,-163.3405"/>
<text text-anchor="start" x="1856.3168" y="-170.9405" font-family="Helvetica,sans-Serif" font-size="16.00" fill="#000000">1 &gt;</text>
</a>
</g>
</g>
<!-- locations_cities -->
<g id="node2" class="node">
<title>locations_cities</title>
<g id="a_node2"><a xlink:href="../../tables/locations_cities.html" xlink:title="locations_cities" target="_top">
<polygon fill="#ffffff" stroke="transparent" points="1479,-160.8405 1479,-239.8405 1659,-239.8405 1659,-160.8405 1479,-160.8405"/>
<polygon fill="#f5f5f5" stroke="transparent" points="1479,-210.3405 1479,-239.3405 1659,-239.3405 1659,-210.3405 1479,-210.3405"/>
<polygon fill="none" stroke="#000000" points="1479,-210.3405 1479,-239.3405 1659,-239.3405 1659,-210.3405 1479,-210.3405"/>
<text text-anchor="start" x="1484" y="-217.4405" font-family="Helvetica,sans-Serif" font-weight="bold" font-size="16.00" fill="#000000">locations_cities</text>
<text text-anchor="start" x="1610.7136" y="-219.9405" font-family="Helvetica,sans-Serif" font-size="16.00" fill="#000000">[table]</text>
<polygon fill="none" stroke="#000000" points="1479,-185.3405 1479,-210.3405 1659,-210.3405 1659,-185.3405 1479,-185.3405"/>
<text text-anchor="start" x="1482" y="-192.9405" font-family="Helvetica,sans-Serif" font-size="16.00" fill="#000000">...</text>
<polygon fill="#ffffff" stroke="transparent" points="1479,-160.3405 1479,-185.3405 1518,-185.3405 1518,-160.3405 1479,-160.3405"/>
<polygon fill="none" stroke="#000000" points="1479,-160.3405 1479,-185.3405 1518,-185.3405 1518,-160.3405 1479,-160.3405"/>
<text text-anchor="start" x="1482" y="-167.9405" font-family="Helvetica,sans-Serif" font-size="16.00" fill="#000000">&lt; 5</text>
<polygon fill="#ffffff" stroke="transparent" points="1518,-160.3405 1518,-185.3405 1625,-185.3405 1625,-160.3405 1518,-160.3405"/>
<polygon fill="none" stroke="#000000" points="1518,-160.3405 1518,-185.3405 1625,-185.3405 1625,-160.3405 1518,-160.3405"/>
<text text-anchor="start" x="1525.9696" y="-167.9405" font-family="Helvetica,sans-Serif" font-size="16.00" fill="#000000">210,698 rows</text>
<polygon fill="#ffffff" stroke="transparent" points="1625,-160.3405 1625,-185.3405 1659,-185.3405 1659,-160.3405 1625,-160.3405"/>
<polygon fill="none" stroke="#000000" points="1625,-160.3405 1625,-185.3405 1659,-185.3405 1659,-160.3405 1625,-160.3405"/>
<text text-anchor="start" x="1633.3168" y="-167.9405" font-family="Helvetica,sans-Serif" font-size="16.00" fill="#000000">1 &gt;</text>
</a>
</g>
</g>
<!-- journal_entries&#45;&gt;locations_cities -->
<g id="edge1" class="edge">
<title>journal_entries:w&#45;&gt;locations_cities:e</title>
<path fill="none" stroke="#000000" d="M1693.5909,-200.3405C1684.9171,-200.3405 1676.0879,-200.3405 1667.3384,-200.3405"/>
<polygon fill="#000000" stroke="#000000" points="1700,-200.3406 1708,-203.9405 1704,-200.3405 1708,-200.3405 1708,-200.3405 1708,-200.3405 1704,-200.3405 1708,-196.7405 1700,-200.3406 1700,-200.3406"/>
<ellipse fill="none" stroke="#000000" cx="1696.8" cy="-200.3406" rx="3.2" ry="3.2"/>
</g>
<!-- locations_administrative_divisions_1 -->
<g id="node3" class="node">
<title>locations_administrative_divisions_1</title>
<g id="a_node3"><a xlink:href="../../tables/locations_administrative_divisions_1.html" xlink:title="locations_administrative_divisions_1" target="_top">
<polygon fill="#ffffff" stroke="transparent" points="542,-393.8405 542,-472.8405 896,-472.8405 896,-393.8405 542,-393.8405"/>
<polygon fill="#f5f5f5" stroke="transparent" points="542,-443.3405 542,-472.3405 896,-472.3405 896,-443.3405 542,-443.3405"/>
<polygon fill="none" stroke="#000000" points="542,-443.3405 542,-472.3405 896,-472.3405 896,-443.3405 542,-443.3405"/>
<text text-anchor="start" x="547" y="-450.4405" font-family="Helvetica,sans-Serif" font-weight="bold" font-size="16.00" fill="#000000">locations_administrative_divisions_1</text>
<text text-anchor="start" x="847.7136" y="-452.9405" font-family="Helvetica,sans-Serif" font-size="16.00" fill="#000000">[table]</text>
<polygon fill="none" stroke="#000000" points="542,-418.3405 542,-443.3405 896,-443.3405 896,-418.3405 542,-418.3405"/>
<text text-anchor="start" x="545" y="-425.9405" font-family="Helvetica,sans-Serif" font-size="16.00" fill="#000000">...</text>
<polygon fill="#ffffff" stroke="transparent" points="542,-393.3405 542,-418.3405 677,-418.3405 677,-393.3405 542,-393.3405"/>
<polygon fill="none" stroke="#000000" points="542,-393.3405 542,-418.3405 677,-418.3405 677,-393.3405 542,-393.3405"/>
<text text-anchor="start" x="545" y="-400.9405" font-family="Helvetica,sans-Serif" font-size="16.00" fill="#000000">&lt; 1</text>
<polygon fill="#ffffff" stroke="transparent" points="677,-393.3405 677,-418.3405 814,-418.3405 814,-393.3405 677,-393.3405"/>
<polygon fill="none" stroke="#000000" points="677,-393.3405 677,-418.3405 814,-418.3405 814,-393.3405 677,-393.3405"/>
<text text-anchor="start" x="732.7584" y="-400.9405" font-family="Helvetica,sans-Serif" font-size="16.00" fill="#000000">3,893 rows</text>
<polygon fill="#ffffff" stroke="transparent" points="814,-393.3405 814,-418.3405 896,-418.3405 896,-393.3405 814,-393.3405"/>
<polygon fill="none" stroke="#000000" points="814,-393.3405 814,-418.3405 896,-418.3405 896,-393.3405 814,-393.3405"/>
<text text-anchor="start" x="870.3168" y="-400.9405" font-family="Helvetica,sans-Serif" font-size="16.00" fill="#000000">2 &gt;</text>
</a>
</g>
</g>
<!-- locations_cities&#45;&gt;locations_administrative_divisions_1 -->
<g id="edge5" class="edge">
<title>locations_cities:w&#45;&gt;locations_administrative_divisions_1:e</title>
<path fill="none" stroke="#000000" d="M1561.7471,-258.4222C1549.6122,-327.9387 1518.0395,-441.451 1438,-493.3405 1247.1025,-617.0992 965.1684,-535.05 817.4622,-476.9289"/>
<polygon fill="#000000" stroke="#000000" points="1562.8303,-251.7682 1567.669,-244.4506 1563.473,-247.8202 1564.1158,-243.8722 1564.1158,-243.8722 1564.1158,-243.8722 1563.473,-247.8202 1560.5626,-243.2937 1562.8303,-251.7682 1562.8303,-251.7682"/>
<ellipse fill="none" stroke="#000000" cx="1562.3161" cy="-254.9266" rx="3.2" ry="3.2"/>
</g>
<!-- locations_countries -->
<g id="node4" class="node">
<title>locations_countries</title>
<g id="a_node4"><a xlink:href="../../tables/locations_countries.html" xlink:title="locations_countries" target="_top">
<polygon fill="#ffffff" stroke="transparent" points="280,-329.8405 280,-408.8405 493,-408.8405 493,-329.8405 280,-329.8405"/>
<polygon fill="#f5f5f5" stroke="transparent" points="280.5,-379.3405 280.5,-408.3405 493.5,-408.3405 493.5,-379.3405 280.5,-379.3405"/>
<polygon fill="none" stroke="#000000" points="280.5,-379.3405 280.5,-408.3405 493.5,-408.3405 493.5,-379.3405 280.5,-379.3405"/>
<text text-anchor="start" x="285.5" y="-386.4405" font-family="Helvetica,sans-Serif" font-weight="bold" font-size="16.00" fill="#000000">locations_countries</text>
<text text-anchor="start" x="445.2136" y="-388.9405" font-family="Helvetica,sans-Serif" font-size="16.00" fill="#000000">[table]</text>
<polygon fill="none" stroke="#000000" points="280.5,-354.3405 280.5,-379.3405 493.5,-379.3405 493.5,-354.3405 280.5,-354.3405"/>
<text text-anchor="start" x="283.5" y="-361.9405" font-family="Helvetica,sans-Serif" font-size="16.00" fill="#000000">...</text>
<polygon fill="#ffffff" stroke="transparent" points="280.5,-329.3405 280.5,-354.3405 351.5,-354.3405 351.5,-329.3405 280.5,-329.3405"/>
<polygon fill="none" stroke="#000000" points="280.5,-329.3405 280.5,-354.3405 351.5,-354.3405 351.5,-329.3405 280.5,-329.3405"/>
<text text-anchor="start" x="283.5" y="-336.9405" font-family="Helvetica,sans-Serif" font-size="16.00" fill="#000000">&lt; 1</text>
<polygon fill="#ffffff" stroke="transparent" points="351.5,-329.3405 351.5,-354.3405 443.5,-354.3405 443.5,-329.3405 351.5,-329.3405"/>
<polygon fill="none" stroke="#000000" points="351.5,-329.3405 351.5,-354.3405 443.5,-354.3405 443.5,-329.3405 351.5,-329.3405"/>
<text text-anchor="start" x="375.5992" y="-336.9405" font-family="Helvetica,sans-Serif" font-size="16.00" fill="#000000">252 rows</text>
<polygon fill="#ffffff" stroke="transparent" points="443.5,-329.3405 443.5,-354.3405 493.5,-354.3405 493.5,-329.3405 443.5,-329.3405"/>
<polygon fill="none" stroke="#000000" points="443.5,-329.3405 443.5,-354.3405 493.5,-354.3405 493.5,-329.3405 443.5,-329.3405"/>
<text text-anchor="start" x="467.8168" y="-336.9405" font-family="Helvetica,sans-Serif" font-size="16.00" fill="#000000">3 &gt;</text>
</a>
</g>
</g>
<!-- locations_cities&#45;&gt;locations_countries -->
<g id="edge7" class="edge">
<title>locations_cities:w&#45;&gt;locations_countries:e</title>
<path fill="none" stroke="#000000" d="M1456.2345,-194.3274C1329.251,-189.5245 1117.108,-187.4325 937,-214.3405 783.0728,-237.3371 611.2544,-290.284 501.1646,-327.882"/>
<polygon fill="#000000" stroke="#000000" points="1462.9163,-194.5922 1470.7675,-198.5062 1466.9132,-194.7506 1470.9101,-194.9091 1470.9101,-194.9091 1470.9101,-194.9091 1466.9132,-194.7506 1471.0526,-191.3119 1462.9163,-194.5922 1462.9163,-194.5922"/>
<ellipse fill="none" stroke="#000000" cx="1459.7188" cy="-194.4655" rx="3.2" ry="3.2"/>
</g>
<!-- locations_administrative_divisions_2 -->
<g id="node5" class="node">
<title>locations_administrative_divisions_2</title>
<g id="a_node5"><a xlink:href="../../tables/locations_administrative_divisions_2.html" xlink:title="locations_administrative_divisions_2" target="_top">
<polygon fill="#ffffff" stroke="transparent" points="945,-224.3405 945,-482.3405 1430,-482.3405 1430,-224.3405 945,-224.3405"/>
<polygon fill="#f5f5f5" stroke="transparent" points="947.5,-451.3405 947.5,-480.3405 1428.5,-480.3405 1428.5,-451.3405 947.5,-451.3405"/>
<polygon fill="none" stroke="#000000" points="947.5,-451.3405 947.5,-480.3405 1428.5,-480.3405 1428.5,-451.3405 947.5,-451.3405"/>
<text text-anchor="start" x="952.5" y="-458.4405" font-family="Helvetica,sans-Serif" font-weight="bold" font-size="16.00" fill="#000000">locations_administrative_divisions_2</text>
<text text-anchor="start" x="1379.9272" y="-460.9405" font-family="Helvetica,sans-Serif" font-size="16.00" fill="#000000">[table]</text>
<polygon fill="none" stroke="#000000" points="947.5,-426.3405 947.5,-451.3405 1276.5,-451.3405 1276.5,-426.3405 947.5,-426.3405"/>
<image xlink:href="../../images/primaryKeys.png" width="11px" height="12px" preserveAspectRatio="xMinYMin meet" x="952.5" y="-444.84"/>
<text text-anchor="start" x="967.5" y="-430.4405" font-family="Helvetica,sans-Serif" font-size="16.00" fill="#000000">administrative_division_2_code</text>
<polygon fill="none" stroke="#000000" points="1276.5,-426.3405 1276.5,-451.3405 1428.5,-451.3405 1428.5,-426.3405 1276.5,-426.3405"/>
<text text-anchor="start" x="1279.5" y="-433.9405" font-family="Helvetica,sans-Serif" font-size="16.00" fill="#000000">text[2000000000]</text>
<polygon fill="#ffffff" stroke="transparent" points="947.5,-401.3405 947.5,-426.3405 1276.5,-426.3405 1276.5,-401.3405 947.5,-401.3405"/>
<polygon fill="none" stroke="#000000" points="947.5,-401.3405 947.5,-426.3405 1276.5,-426.3405 1276.5,-401.3405 947.5,-401.3405"/>
<image xlink:href="../../images/foreignKeys.png" width="11px" height="12px" preserveAspectRatio="xMinYMin meet" x="952.5" y="-419.84"/>
<text text-anchor="start" x="967.5" y="-405.4405" font-family="Helvetica,sans-Serif" font-size="16.00" fill="#000000">administrative_division_1_code</text>
<polygon fill="none" stroke="#000000" points="1276.5,-401.3405 1276.5,-426.3405 1428.5,-426.3405 1428.5,-401.3405 1276.5,-401.3405"/>
<text text-anchor="start" x="1279.5" y="-408.9405" font-family="Helvetica,sans-Serif" font-size="16.00" fill="#000000">text[2000000000]</text>
<polygon fill="#ffffff" stroke="transparent" points="947.5,-376.3405 947.5,-401.3405 1276.5,-401.3405 1276.5,-376.3405 947.5,-376.3405"/>
<polygon fill="none" stroke="#000000" points="947.5,-376.3405 947.5,-401.3405 1276.5,-401.3405 1276.5,-376.3405 947.5,-376.3405"/>
<image xlink:href="../../images/foreignKeys.png" width="11px" height="12px" preserveAspectRatio="xMinYMin meet" x="952.5" y="-394.84"/>
<text text-anchor="start" x="967.5" y="-380.4405" font-family="Helvetica,sans-Serif" font-size="16.00" fill="#000000">country_code</text>
<polygon fill="none" stroke="#000000" points="1276.5,-376.3405 1276.5,-401.3405 1428.5,-401.3405 1428.5,-376.3405 1276.5,-376.3405"/>
<text text-anchor="start" x="1279.5" y="-383.9405" font-family="Helvetica,sans-Serif" font-size="16.00" fill="#000000">text[2000000000]</text>
<polygon fill="#ffffff" stroke="transparent" points="947.5,-351.3405 947.5,-376.3405 1276.5,-376.3405 1276.5,-351.3405 947.5,-351.3405"/>
<polygon fill="none" stroke="#000000" points="947.5,-351.3405 947.5,-376.3405 1276.5,-376.3405 1276.5,-351.3405 947.5,-351.3405"/>
<text text-anchor="start" x="967.5" y="-355.4405" font-family="Helvetica,sans-Serif" font-size="16.00" fill="#000000">administrative_division_2_name</text>
<polygon fill="none" stroke="#000000" points="1276.5,-351.3405 1276.5,-376.3405 1428.5,-376.3405 1428.5,-351.3405 1276.5,-351.3405"/>
<text text-anchor="start" x="1279.5" y="-358.9405" font-family="Helvetica,sans-Serif" font-size="16.00" fill="#000000">text[2000000000]</text>
<polygon fill="#ffffff" stroke="transparent" points="947.5,-326.3405 947.5,-351.3405 1276.5,-351.3405 1276.5,-326.3405 947.5,-326.3405"/>
<polygon fill="none" stroke="#000000" points="947.5,-326.3405 947.5,-351.3405 1276.5,-351.3405 1276.5,-326.3405 947.5,-326.3405"/>
<text text-anchor="start" x="967.5" y="-330.4405" font-family="Helvetica,sans-Serif" font-size="16.00" fill="#000000">administrative_division_2_ascii_name</text>
<polygon fill="none" stroke="#000000" points="1276.5,-326.3405 1276.5,-351.3405 1428.5,-351.3405 1428.5,-326.3405 1276.5,-326.3405"/>
<text text-anchor="start" x="1279.5" y="-333.9405" font-family="Helvetica,sans-Serif" font-size="16.00" fill="#000000">text[2000000000]</text>
<polygon fill="#ffffff" stroke="transparent" points="947.5,-301.3405 947.5,-326.3405 1276.5,-326.3405 1276.5,-301.3405 947.5,-301.3405"/>
<polygon fill="none" stroke="#000000" points="947.5,-301.3405 947.5,-326.3405 1276.5,-326.3405 1276.5,-301.3405 947.5,-301.3405"/>
<text text-anchor="start" x="967.5" y="-305.4405" font-family="Helvetica,sans-Serif" font-size="16.00" fill="#000000">geoname_id</text>
<polygon fill="none" stroke="#000000" points="1276.5,-301.3405 1276.5,-326.3405 1428.5,-326.3405 1428.5,-301.3405 1276.5,-301.3405"/>
<text text-anchor="start" x="1279.1312" y="-308.9405" font-family="Helvetica,sans-Serif" font-size="16.00" fill="#000000">integer[2000000000]</text>
<polygon fill="none" stroke="#000000" points="947.5,-276.3405 947.5,-301.3405 1276.5,-301.3405 1276.5,-276.3405 947.5,-276.3405"/>
<text text-anchor="start" x="967.5" y="-280.4405" font-family="Helvetica,sans-Serif" font-size="16.00" fill="#000000">inserted_at</text>
<polygon fill="none" stroke="#000000" points="1276.5,-276.3405 1276.5,-301.3405 1428.5,-301.3405 1428.5,-276.3405 1276.5,-276.3405"/>
<text text-anchor="start" x="1279.5" y="-283.9405" font-family="Helvetica,sans-Serif" font-size="16.00" fill="#000000">text[2000000000]</text>
<polygon fill="none" stroke="#000000" points="947.5,-251.3405 947.5,-276.3405 1276.5,-276.3405 1276.5,-251.3405 947.5,-251.3405"/>
<text text-anchor="start" x="967.5" y="-255.4405" font-family="Helvetica,sans-Serif" font-size="16.00" fill="#000000">updated_at</text>
<polygon fill="none" stroke="#000000" points="1276.5,-251.3405 1276.5,-276.3405 1428.5,-276.3405 1428.5,-251.3405 1276.5,-251.3405"/>
<text text-anchor="start" x="1279.5" y="-258.9405" font-family="Helvetica,sans-Serif" font-size="16.00" fill="#000000">text[2000000000]</text>
<polygon fill="#ffffff" stroke="transparent" points="947.5,-226.3405 947.5,-251.3405 1079.5,-251.3405 1079.5,-226.3405 947.5,-226.3405"/>
<polygon fill="none" stroke="#000000" points="947.5,-226.3405 947.5,-251.3405 1079.5,-251.3405 1079.5,-226.3405 947.5,-226.3405"/>
<text text-anchor="start" x="950.5" y="-233.9405" font-family="Helvetica,sans-Serif" font-size="16.00" fill="#000000">&lt; 2</text>
<polygon fill="#ffffff" stroke="transparent" points="1079.5,-226.3405 1079.5,-251.3405 1276.5,-251.3405 1276.5,-226.3405 1079.5,-226.3405"/>
<polygon fill="none" stroke="#000000" points="1079.5,-226.3405 1079.5,-251.3405 1276.5,-251.3405 1276.5,-226.3405 1079.5,-226.3405"/>
<text text-anchor="start" x="1186.364" y="-233.9405" font-family="Helvetica,sans-Serif" font-size="16.00" fill="#000000">47,229 rows</text>
<polygon fill="#ffffff" stroke="transparent" points="1276.5,-226.3405 1276.5,-251.3405 1428.5,-251.3405 1428.5,-226.3405 1276.5,-226.3405"/>
<polygon fill="none" stroke="#000000" points="1276.5,-226.3405 1276.5,-251.3405 1428.5,-251.3405 1428.5,-226.3405 1276.5,-226.3405"/>
<text text-anchor="start" x="1402.8168" y="-233.9405" font-family="Helvetica,sans-Serif" font-size="16.00" fill="#000000">1 &gt;</text>
<polygon fill="none" stroke="#000000" stroke-width="2" points="946,-225.3405 946,-481.3405 1429,-481.3405 1429,-225.3405 946,-225.3405"/>
</a>
</g>
</g>
<!-- locations_cities&#45;&gt;locations_administrative_divisions_2 -->
<g id="edge6" class="edge">
<title>locations_cities:w&#45;&gt;locations_administrative_divisions_2:e</title>
<path fill="none" stroke="#000000" stroke-dasharray="5,2" d="M1560.7389,-258.3399C1547.012,-329.0784 1512.1923,-439.3405 1428.5,-439.3405"/>
<polygon fill="#000000" stroke="#000000" points="1561.9303,-251.7705 1566.9002,-244.5413 1562.6441,-247.8347 1563.358,-243.8989 1563.358,-243.8989 1563.358,-243.8989 1562.6441,-247.8347 1559.8157,-243.2564 1561.9303,-251.7705 1561.9303,-251.7705"/>
<ellipse fill="none" stroke="#000000" cx="1561.3593" cy="-254.9191" rx="3.2" ry="3.2"/>
</g>
<!-- locations_feature_classes -->
<g id="node6" class="node">
<title>locations_feature_classes</title>
<g id="a_node6"><a xlink:href="../../tables/locations_feature_classes.html" xlink:title="locations_feature_classes" target="_top">
<polygon fill="#ffffff" stroke="transparent" points="587,-66.8405 587,-145.8405 851,-145.8405 851,-66.8405 587,-66.8405"/>
<polygon fill="#f5f5f5" stroke="transparent" points="587,-116.3405 587,-145.3405 851,-145.3405 851,-116.3405 587,-116.3405"/>
<polygon fill="none" stroke="#000000" points="587,-116.3405 587,-145.3405 851,-145.3405 851,-116.3405 587,-116.3405"/>
<text text-anchor="start" x="592" y="-123.4405" font-family="Helvetica,sans-Serif" font-weight="bold" font-size="16.00" fill="#000000">locations_feature_classes</text>
<text text-anchor="start" x="802.7136" y="-125.9405" font-family="Helvetica,sans-Serif" font-size="16.00" fill="#000000">[table]</text>
<polygon fill="none" stroke="#000000" points="587,-91.3405 587,-116.3405 851,-116.3405 851,-91.3405 587,-91.3405"/>
<text text-anchor="start" x="590" y="-98.9405" font-family="Helvetica,sans-Serif" font-size="16.00" fill="#000000">...</text>
<polygon fill="#ffffff" stroke="transparent" points="587,-66.3405 587,-91.3405 685,-91.3405 685,-66.3405 587,-66.3405"/>
<polygon fill="none" stroke="#000000" points="587,-66.3405 587,-91.3405 685,-91.3405 685,-66.3405 587,-66.3405"/>
<text text-anchor="start" x="590" y="-73.9405" font-family="Helvetica,sans-Serif" font-size="16.00" fill="#000000"> &#160;</text>
<polygon fill="#ffffff" stroke="transparent" points="685,-66.3405 685,-91.3405 780,-91.3405 780,-66.3405 685,-66.3405"/>
<polygon fill="none" stroke="#000000" points="685,-66.3405 685,-91.3405 780,-91.3405 780,-66.3405 685,-66.3405"/>
<text text-anchor="start" x="729.888" y="-73.9405" font-family="Helvetica,sans-Serif" font-size="16.00" fill="#000000">9 rows</text>
<polygon fill="#ffffff" stroke="transparent" points="780,-66.3405 780,-91.3405 851,-91.3405 851,-66.3405 780,-66.3405"/>
<polygon fill="none" stroke="#000000" points="780,-66.3405 780,-91.3405 851,-91.3405 851,-66.3405 780,-66.3405"/>
<text text-anchor="start" x="825.3168" y="-73.9405" font-family="Helvetica,sans-Serif" font-size="16.00" fill="#000000">2 &gt;</text>
</a>
</g>
</g>
<!-- locations_cities&#45;&gt;locations_feature_classes -->
<g id="edge8" class="edge">
<title>locations_cities:w&#45;&gt;locations_feature_classes:e</title>
<path fill="none" stroke="#000000" d="M1523.5671,-146.2068C1500.6036,-123.0553 1470.6896,-98.5726 1438,-86.3405 1229.4552,-8.305 1158.6074,-64.6473 937,-86.3405 898.2235,-90.1363 889.9618,-103.3405 851,-103.3405"/>
<polygon fill="#000000" stroke="#000000" points="1528.0816,-150.9227 1531.0133,-159.1911 1530.8477,-153.8122 1533.6138,-156.7016 1533.6138,-156.7016 1533.6138,-156.7016 1530.8477,-153.8122 1536.2143,-154.2121 1528.0816,-150.9227 1528.0816,-150.9227"/>
<ellipse fill="none" stroke="#000000" cx="1525.8687" cy="-148.6112" rx="3.2" ry="3.2"/>
</g>
<!-- locations_feature_codes -->
<g id="node7" class="node">
<title>locations_feature_codes</title>
<g id="a_node7"><a xlink:href="../../tables/locations_feature_codes.html" xlink:title="locations_feature_codes" target="_top">
<polygon fill="#ffffff" stroke="transparent" points="1061.5,-96.8405 1061.5,-175.8405 1313.5,-175.8405 1313.5,-96.8405 1061.5,-96.8405"/>
<polygon fill="#f5f5f5" stroke="transparent" points="1061.5,-146.3405 1061.5,-175.3405 1313.5,-175.3405 1313.5,-146.3405 1061.5,-146.3405"/>
<polygon fill="none" stroke="#000000" points="1061.5,-146.3405 1061.5,-175.3405 1313.5,-175.3405 1313.5,-146.3405 1061.5,-146.3405"/>
<text text-anchor="start" x="1066.5" y="-153.4405" font-family="Helvetica,sans-Serif" font-weight="bold" font-size="16.00" fill="#000000">locations_feature_codes</text>
<text text-anchor="start" x="1265.2136" y="-155.9405" font-family="Helvetica,sans-Serif" font-size="16.00" fill="#000000">[table]</text>
<polygon fill="none" stroke="#000000" points="1061.5,-121.3405 1061.5,-146.3405 1313.5,-146.3405 1313.5,-121.3405 1061.5,-121.3405"/>
<text text-anchor="start" x="1064.5" y="-128.9405" font-family="Helvetica,sans-Serif" font-size="16.00" fill="#000000">...</text>
<polygon fill="#ffffff" stroke="transparent" points="1061.5,-96.3405 1061.5,-121.3405 1152.5,-121.3405 1152.5,-96.3405 1061.5,-96.3405"/>
<polygon fill="none" stroke="#000000" points="1061.5,-96.3405 1061.5,-121.3405 1152.5,-121.3405 1152.5,-96.3405 1061.5,-96.3405"/>
<text text-anchor="start" x="1064.5" y="-103.9405" font-family="Helvetica,sans-Serif" font-size="16.00" fill="#000000">&lt; 1</text>
<polygon fill="#ffffff" stroke="transparent" points="1152.5,-96.3405 1152.5,-121.3405 1253.5,-121.3405 1253.5,-96.3405 1152.5,-96.3405"/>
<polygon fill="none" stroke="#000000" points="1152.5,-96.3405 1152.5,-121.3405 1253.5,-121.3405 1253.5,-96.3405 1152.5,-96.3405"/>
<text text-anchor="start" x="1185.5992" y="-103.9405" font-family="Helvetica,sans-Serif" font-size="16.00" fill="#000000">684 rows</text>
<polygon fill="#ffffff" stroke="transparent" points="1253.5,-96.3405 1253.5,-121.3405 1313.5,-121.3405 1313.5,-96.3405 1253.5,-96.3405"/>
<polygon fill="none" stroke="#000000" points="1253.5,-96.3405 1253.5,-121.3405 1313.5,-121.3405 1313.5,-96.3405 1253.5,-96.3405"/>
<text text-anchor="start" x="1287.8168" y="-103.9405" font-family="Helvetica,sans-Serif" font-size="16.00" fill="#000000">1 &gt;</text>
</a>
</g>
</g>
<!-- locations_cities&#45;&gt;locations_feature_codes -->
<g id="edge9" class="edge">
<title>locations_cities:w&#45;&gt;locations_feature_codes:e</title>
<path fill="none" stroke="#000000" d="M1456.7454,-157.6982C1412.7401,-144.4932 1361.3964,-133.3405 1313.5,-133.3405"/>
<polygon fill="#000000" stroke="#000000" points="1463.1205,-159.6758 1469.6947,-165.4845 1466.9409,-160.8609 1470.7613,-162.0461 1470.7613,-162.0461 1470.7613,-162.0461 1466.9409,-160.8609 1471.828,-158.6077 1463.1205,-159.6758 1463.1205,-159.6758"/>
<ellipse fill="none" stroke="#000000" cx="1460.0642" cy="-158.7277" rx="3.2" ry="3.2"/>
</g>
<!-- locations_administrative_divisions_1&#45;&gt;locations_countries -->
<g id="edge2" class="edge">
<title>locations_administrative_divisions_1:w&#45;&gt;locations_countries:e</title>
<path fill="none" stroke="#000000" d="M519.6453,-394.9685C513.4283,-393.7718 507.2756,-392.5875 501.224,-391.4227"/>
<polygon fill="#000000" stroke="#000000" points="525.9356,-396.1792 533.1109,-401.2264 529.8635,-396.9352 533.7914,-397.6913 533.7914,-397.6913 533.7914,-397.6913 529.8635,-396.9352 534.4718,-394.1562 525.9356,-396.1792 525.9356,-396.1792"/>
<ellipse fill="none" stroke="#000000" cx="522.7933" cy="-395.5743" rx="3.2" ry="3.2"/>
</g>
<!-- locations_continents -->
<g id="node8" class="node">
<title>locations_continents</title>
<g id="a_node8"><a xlink:href="../../tables/locations_continents.html" xlink:title="locations_continents" target="_top">
<polygon fill="#ffffff" stroke="transparent" points="8,-332.8405 8,-411.8405 231,-411.8405 231,-332.8405 8,-332.8405"/>
<polygon fill="#f5f5f5" stroke="transparent" points="8.5,-382.3405 8.5,-411.3405 231.5,-411.3405 231.5,-382.3405 8.5,-382.3405"/>
<polygon fill="none" stroke="#000000" points="8.5,-382.3405 8.5,-411.3405 231.5,-411.3405 231.5,-382.3405 8.5,-382.3405"/>
<text text-anchor="start" x="13.5" y="-389.4405" font-family="Helvetica,sans-Serif" font-weight="bold" font-size="16.00" fill="#000000">locations_continents</text>
<text text-anchor="start" x="183.2136" y="-391.9405" font-family="Helvetica,sans-Serif" font-size="16.00" fill="#000000">[table]</text>
<polygon fill="none" stroke="#000000" points="8.5,-357.3405 8.5,-382.3405 231.5,-382.3405 231.5,-357.3405 8.5,-357.3405"/>
<text text-anchor="start" x="11.5" y="-364.9405" font-family="Helvetica,sans-Serif" font-size="16.00" fill="#000000">...</text>
<polygon fill="#ffffff" stroke="transparent" points="8.5,-332.3405 8.5,-357.3405 86.5,-357.3405 86.5,-332.3405 8.5,-332.3405"/>
<polygon fill="none" stroke="#000000" points="8.5,-332.3405 8.5,-357.3405 86.5,-357.3405 86.5,-332.3405 8.5,-332.3405"/>
<text text-anchor="start" x="11.5" y="-339.9405" font-family="Helvetica,sans-Serif" font-size="16.00" fill="#000000"> &#160;</text>
<polygon fill="#ffffff" stroke="transparent" points="86.5,-332.3405 86.5,-357.3405 171.5,-357.3405 171.5,-332.3405 86.5,-332.3405"/>
<polygon fill="none" stroke="#000000" points="86.5,-332.3405 86.5,-357.3405 171.5,-357.3405 171.5,-332.3405 86.5,-332.3405"/>
<text text-anchor="start" x="121.388" y="-339.9405" font-family="Helvetica,sans-Serif" font-size="16.00" fill="#000000">7 rows</text>
<polygon fill="#ffffff" stroke="transparent" points="171.5,-332.3405 171.5,-357.3405 231.5,-357.3405 231.5,-332.3405 171.5,-332.3405"/>
<polygon fill="none" stroke="#000000" points="171.5,-332.3405 171.5,-357.3405 231.5,-357.3405 231.5,-332.3405 171.5,-332.3405"/>
<text text-anchor="start" x="205.8168" y="-339.9405" font-family="Helvetica,sans-Serif" font-size="16.00" fill="#000000">1 &gt;</text>
</a>
</g>
</g>
<!-- locations_countries&#45;&gt;locations_continents -->
<g id="edge10" class="edge">
<title>locations_countries:w&#45;&gt;locations_continents:e</title>
<path fill="none" stroke="#000000" d="M257.1591,-369.3405C248.4756,-369.3405 239.8609,-369.3405 231.5,-369.3405"/>
<polygon fill="#000000" stroke="#000000" points="263.8054,-369.3406 271.8055,-372.9405 267.8054,-369.3405 271.8054,-369.3405 271.8054,-369.3405 271.8054,-369.3405 267.8054,-369.3405 271.8054,-365.7405 263.8054,-369.3406 263.8054,-369.3406"/>
<ellipse fill="none" stroke="#000000" cx="260.6054" cy="-369.3406" rx="3.2" ry="3.2"/>
</g>
<!-- locations_administrative_divisions_2&#45;&gt;locations_administrative_divisions_1 -->
<g id="edge3" class="edge">
<title>locations_administrative_divisions_2:w&#45;&gt;locations_administrative_divisions_1:e</title>
<path fill="none" stroke="#000000" d="M932.775,-414.4659C923.3183,-414.6229 913.7168,-414.9222 904.0847,-415.3353"/>
<polygon fill="#000000" stroke="#000000" points="939.5003,-414.4087 947.5307,-417.9404 943.5001,-414.3746 947.5,-414.3405 947.5,-414.3405 947.5,-414.3405 943.5001,-414.3746 947.4693,-410.7406 939.5003,-414.4087 939.5003,-414.4087"/>
<ellipse fill="none" stroke="#000000" cx="936.3004" cy="-414.436" rx="3.2" ry="3.2"/>
</g>
<!-- locations_administrative_divisions_2&#45;&gt;locations_countries -->
<g id="edge4" class="edge">
<title>locations_administrative_divisions_2:w&#45;&gt;locations_countries:e</title>
<path fill="none" stroke="#000000" d="M932.988,-388.3187C923.8365,-386.919 917.5243,-384.4528 904,-383.3405 765.7198,-371.9682 606.0284,-369.2205 501.0333,-368.8312"/>
<polygon fill="#000000" stroke="#000000" points="939.5198,-388.7785 947.2471,-392.9316 943.5099,-389.0595 947.5,-389.3405 947.5,-389.3405 947.5,-389.3405 943.5099,-389.0595 947.7529,-385.7494 939.5198,-388.7785 939.5198,-388.7785"/>
<ellipse fill="none" stroke="#000000" cx="936.3277" cy="-388.5538" rx="3.2" ry="3.2"/>
</g>
<!-- locations_feature_codes&#45;&gt;locations_feature_classes -->
<g id="edge11" class="edge">
<title>locations_feature_codes:w&#45;&gt;locations_feature_classes:e</title>
<path fill="none" stroke="#000000" d="M1046.882,-133.0902C964.4791,-130.2044 940.4252,-103.3405 851,-103.3405"/>
<polygon fill="#000000" stroke="#000000" points="1053.5012,-133.2035 1061.4383,-136.94 1057.5006,-133.272 1061.5,-133.3405 1061.5,-133.3405 1061.5,-133.3405 1057.5006,-133.272 1061.5617,-129.741 1053.5012,-133.2035 1053.5012,-133.2035"/>
<ellipse fill="none" stroke="#000000" cx="1050.3016" cy="-133.1486" rx="3.2" ry="3.2"/>
</g>
</g>
</svg>
