<?xml version="1.0" encoding="UTF-8" standalone="no"?>
<!DOCTYPE svg PUBLIC "-//W3C//DTD SVG 1.1//EN"
 "http://www.w3.org/Graphics/SVG/1.1/DTD/svg11.dtd">
<!-- Generated by graphviz version 2.40.1 (20161225.0304)
 -->
<!-- Title: twoDegreesRelationshipsDiagram Pages: 1 -->
<svg width="1244pt" height="347pt"
 viewBox="0.00 0.00 1244.00 346.70" xmlns="http://www.w3.org/2000/svg" xmlns:xlink="http://www.w3.org/1999/xlink">
<g id="graph0" class="graph" transform="scale(1 1) rotate(0) translate(4 342.7)">
<title>twoDegreesRelationshipsDiagram</title>
<polygon fill="#ffffff" stroke="transparent" points="-4,4 -4,-342.7 1240,-342.7 1240,4 -4,4"/>
<text text-anchor="middle" x="101.8088" y="-8.8" font-family="Helvetica,sans-Serif" font-size="16.00" fill="#000000">Generated by SchemaSpy</text>
<!-- journal_entries -->
<g id="node1" class="node">
<title>journal_entries</title>
<g id="a_node1"><a xlink:href="../../tables/journal_entries.html" xlink:title="journal_entries" target="_top">
<polygon fill="#ffffff" stroke="transparent" points="1054,-180.7 1054,-259.7 1228,-259.7 1228,-180.7 1054,-180.7"/>
<polygon fill="#f5f5f5" stroke="transparent" points="1054,-230.2 1054,-259.2 1228,-259.2 1228,-230.2 1054,-230.2"/>
<polygon fill="none" stroke="#000000" points="1054,-230.2 1054,-259.2 1228,-259.2 1228,-230.2 1054,-230.2"/>
<text text-anchor="start" x="1059" y="-237.3" font-family="Helvetica,sans-Serif" font-weight="bold" font-size="16.00" fill="#000000">journal_entries</text>
<text text-anchor="start" x="1179.7136" y="-239.8" font-family="Helvetica,sans-Serif" font-size="16.00" fill="#000000">[table]</text>
<polygon fill="none" stroke="#000000" points="1054,-205.2 1054,-230.2 1228,-230.2 1228,-205.2 1054,-205.2"/>
<text text-anchor="start" x="1057" y="-212.8" font-family="Helvetica,sans-Serif" font-size="16.00" fill="#000000">...</text>
<polygon fill="#ffffff" stroke="transparent" points="1054,-180.2 1054,-205.2 1114,-205.2 1114,-180.2 1054,-180.2"/>
<polygon fill="none" stroke="#000000" points="1054,-180.2 1054,-205.2 1114,-205.2 1114,-180.2 1054,-180.2"/>
<text text-anchor="start" x="1057" y="-187.8" font-family="Helvetica,sans-Serif" font-size="16.00" fill="#000000">&lt; 3</text>
<polygon fill="#ffffff" stroke="transparent" points="1114,-180.2 1114,-205.2 1183,-205.2 1183,-180.2 1114,-180.2"/>
<polygon fill="none" stroke="#000000" points="1114,-180.2 1114,-205.2 1183,-205.2 1183,-180.2 1114,-180.2"/>
<text text-anchor="start" x="1132.888" y="-187.8" font-family="Helvetica,sans-Serif" font-size="16.00" fill="#000000">2 rows</text>
<polygon fill="#ffffff" stroke="transparent" points="1183,-180.2 1183,-205.2 1228,-205.2 1228,-180.2 1183,-180.2"/>
<polygon fill="none" stroke="#000000" points="1183,-180.2 1183,-205.2 1228,-205.2 1228,-180.2 1183,-180.2"/>
<text text-anchor="start" x="1202.3168" y="-187.8" font-family="Helvetica,sans-Serif" font-size="16.00" fill="#000000">1 &gt;</text>
</a>
</g>
</g>
<!-- locations_cities -->
<g id="node2" class="node">
<title>locations_cities</title>
<g id="a_node2"><a xlink:href="../../tables/locations_cities.html" xlink:title="locations_cities" target="_top">
<polygon fill="#ffffff" stroke="transparent" points="825,-177.7 825,-256.7 1005,-256.7 1005,-177.7 825,-177.7"/>
<polygon fill="#f5f5f5" stroke="transparent" points="825,-227.2 825,-256.2 1005,-256.2 1005,-227.2 825,-227.2"/>
<polygon fill="none" stroke="#000000" points="825,-227.2 825,-256.2 1005,-256.2 1005,-227.2 825,-227.2"/>
<text text-anchor="start" x="830" y="-234.3" font-family="Helvetica,sans-Serif" font-weight="bold" font-size="16.00" fill="#000000">locations_cities</text>
<text text-anchor="start" x="956.7136" y="-236.8" font-family="Helvetica,sans-Serif" font-size="16.00" fill="#000000">[table]</text>
<polygon fill="none" stroke="#000000" points="825,-202.2 825,-227.2 1005,-227.2 1005,-202.2 825,-202.2"/>
<text text-anchor="start" x="828" y="-209.8" font-family="Helvetica,sans-Serif" font-size="16.00" fill="#000000">...</text>
<polygon fill="#ffffff" stroke="transparent" points="825,-177.2 825,-202.2 864,-202.2 864,-177.2 825,-177.2"/>
<polygon fill="none" stroke="#000000" points="825,-177.2 825,-202.2 864,-202.2 864,-177.2 825,-177.2"/>
<text text-anchor="start" x="828" y="-184.8" font-family="Helvetica,sans-Serif" font-size="16.00" fill="#000000">&lt; 4</text>
<polygon fill="#ffffff" stroke="transparent" points="864,-177.2 864,-202.2 971,-202.2 971,-177.2 864,-177.2"/>
<polygon fill="none" stroke="#000000" points="864,-177.2 864,-202.2 971,-202.2 971,-177.2 864,-177.2"/>
<text text-anchor="start" x="871.9696" y="-184.8" font-family="Helvetica,sans-Serif" font-size="16.00" fill="#000000">210,698 rows</text>
<polygon fill="#ffffff" stroke="transparent" points="971,-177.2 971,-202.2 1005,-202.2 1005,-177.2 971,-177.2"/>
<polygon fill="none" stroke="#000000" points="971,-177.2 971,-202.2 1005,-202.2 1005,-177.2 971,-177.2"/>
<text text-anchor="start" x="979.3168" y="-184.8" font-family="Helvetica,sans-Serif" font-size="16.00" fill="#000000">1 &gt;</text>
</a>
</g>
</g>
<!-- journal_entries&#45;&gt;locations_cities -->
<g id="edge1" class="edge">
<title>journal_entries:w&#45;&gt;locations_cities:e</title>
<path fill="none" stroke="#000000" d="M1039.5909,-217.2C1030.9171,-217.2 1022.0879,-217.2 1013.3384,-217.2"/>
<polygon fill="#000000" stroke="#000000" points="1046,-217.2001 1054,-220.8 1050,-217.2 1054,-217.2 1054,-217.2 1054,-217.2 1050,-217.2 1054,-213.6 1046,-217.2001 1046,-217.2001"/>
<ellipse fill="none" stroke="#000000" cx="1042.8" cy="-217.2001" rx="3.2" ry="3.2"/>
</g>
<!-- locations_administrative_divisions_1 -->
<g id="node3" class="node">
<title>locations_administrative_divisions_1</title>
<g id="a_node3"><a xlink:href="../../tables/locations_administrative_divisions_1.html" xlink:title="locations_administrative_divisions_1" target="_top">
<polygon fill="#ffffff" stroke="transparent" points="422,-255.7 422,-334.7 776,-334.7 776,-255.7 422,-255.7"/>
<polygon fill="#f5f5f5" stroke="transparent" points="422,-305.2 422,-334.2 776,-334.2 776,-305.2 422,-305.2"/>
<polygon fill="none" stroke="#000000" points="422,-305.2 422,-334.2 776,-334.2 776,-305.2 422,-305.2"/>
<text text-anchor="start" x="427" y="-312.3" font-family="Helvetica,sans-Serif" font-weight="bold" font-size="16.00" fill="#000000">locations_administrative_divisions_1</text>
<text text-anchor="start" x="727.7136" y="-314.8" font-family="Helvetica,sans-Serif" font-size="16.00" fill="#000000">[table]</text>
<polygon fill="none" stroke="#000000" points="422,-280.2 422,-305.2 776,-305.2 776,-280.2 422,-280.2"/>
<text text-anchor="start" x="425" y="-287.8" font-family="Helvetica,sans-Serif" font-size="16.00" fill="#000000">...</text>
<polygon fill="#ffffff" stroke="transparent" points="422,-255.2 422,-280.2 557,-280.2 557,-255.2 422,-255.2"/>
<polygon fill="none" stroke="#000000" points="422,-255.2 422,-280.2 557,-280.2 557,-255.2 422,-255.2"/>
<text text-anchor="start" x="425" y="-262.8" font-family="Helvetica,sans-Serif" font-size="16.00" fill="#000000">&lt; 1</text>
<polygon fill="#ffffff" stroke="transparent" points="557,-255.2 557,-280.2 694,-280.2 694,-255.2 557,-255.2"/>
<polygon fill="none" stroke="#000000" points="557,-255.2 557,-280.2 694,-280.2 694,-255.2 557,-255.2"/>
<text text-anchor="start" x="612.7584" y="-262.8" font-family="Helvetica,sans-Serif" font-size="16.00" fill="#000000">3,893 rows</text>
<polygon fill="#ffffff" stroke="transparent" points="694,-255.2 694,-280.2 776,-280.2 776,-255.2 694,-255.2"/>
<polygon fill="none" stroke="#000000" points="694,-255.2 694,-280.2 776,-280.2 776,-255.2 694,-255.2"/>
<text text-anchor="start" x="750.3168" y="-262.8" font-family="Helvetica,sans-Serif" font-size="16.00" fill="#000000">2 &gt;</text>
</a>
</g>
</g>
<!-- locations_cities&#45;&gt;locations_administrative_divisions_1 -->
<g id="edge3" class="edge">
<title>locations_cities:w&#45;&gt;locations_administrative_divisions_1:e</title>
<path fill="none" stroke="#000000" d="M850.6484,-268.5757C828.3113,-281.7097 802.2531,-292.2 776,-292.2"/>
<polygon fill="#000000" stroke="#000000" points="856.2202,-265.0797 864.9101,-263.8773 859.6085,-262.9538 862.9968,-260.8278 862.9968,-260.8278 862.9968,-260.8278 859.6085,-262.9538 861.0834,-257.7784 856.2202,-265.0797 856.2202,-265.0797"/>
<ellipse fill="none" stroke="#000000" cx="853.5096" cy="-266.7805" rx="3.2" ry="3.2"/>
</g>
<!-- locations_countries -->
<g id="node4" class="node">
<title>locations_countries</title>
<g id="a_node4"><a xlink:href="../../tables/locations_countries.html" xlink:title="locations_countries" target="_top">
<polygon fill="#ffffff" stroke="transparent" points="84,-242.7 84,-321.7 297,-321.7 297,-242.7 84,-242.7"/>
<polygon fill="#f5f5f5" stroke="transparent" points="84.5,-292.2 84.5,-321.2 297.5,-321.2 297.5,-292.2 84.5,-292.2"/>
<polygon fill="none" stroke="#000000" points="84.5,-292.2 84.5,-321.2 297.5,-321.2 297.5,-292.2 84.5,-292.2"/>
<text text-anchor="start" x="89.5" y="-299.3" font-family="Helvetica,sans-Serif" font-weight="bold" font-size="16.00" fill="#000000">locations_countries</text>
<text text-anchor="start" x="249.2136" y="-301.8" font-family="Helvetica,sans-Serif" font-size="16.00" fill="#000000">[table]</text>
<polygon fill="none" stroke="#000000" points="84.5,-267.2 84.5,-292.2 297.5,-292.2 297.5,-267.2 84.5,-267.2"/>
<text text-anchor="start" x="87.5" y="-274.8" font-family="Helvetica,sans-Serif" font-size="16.00" fill="#000000">...</text>
<polygon fill="#ffffff" stroke="transparent" points="84.5,-242.2 84.5,-267.2 155.5,-267.2 155.5,-242.2 84.5,-242.2"/>
<polygon fill="none" stroke="#000000" points="84.5,-242.2 84.5,-267.2 155.5,-267.2 155.5,-242.2 84.5,-242.2"/>
<text text-anchor="start" x="87.5" y="-249.8" font-family="Helvetica,sans-Serif" font-size="16.00" fill="#000000">&lt; 1</text>
<polygon fill="#ffffff" stroke="transparent" points="155.5,-242.2 155.5,-267.2 247.5,-267.2 247.5,-242.2 155.5,-242.2"/>
<polygon fill="none" stroke="#000000" points="155.5,-242.2 155.5,-267.2 247.5,-267.2 247.5,-242.2 155.5,-242.2"/>
<text text-anchor="start" x="179.5992" y="-249.8" font-family="Helvetica,sans-Serif" font-size="16.00" fill="#000000">252 rows</text>
<polygon fill="#ffffff" stroke="transparent" points="247.5,-242.2 247.5,-267.2 297.5,-267.2 297.5,-242.2 247.5,-242.2"/>
<polygon fill="none" stroke="#000000" points="247.5,-242.2 247.5,-267.2 297.5,-267.2 297.5,-242.2 247.5,-242.2"/>
<text text-anchor="start" x="271.8168" y="-249.8" font-family="Helvetica,sans-Serif" font-size="16.00" fill="#000000">3 &gt;</text>
</a>
</g>
</g>
<!-- locations_cities&#45;&gt;locations_countries -->
<g id="edge4" class="edge">
<title>locations_cities:w&#45;&gt;locations_countries:e</title>
<path fill="none" stroke="#000000" d="M802.1336,-216.195C700.0489,-217.0141 545.9605,-222.5624 414,-245.2 360.8388,-254.3197 351.4378,-279.2 297.5,-279.2"/>
<polygon fill="#000000" stroke="#000000" points="808.8092,-216.155 816.8307,-219.7069 812.8091,-216.131 816.8091,-216.1069 816.8091,-216.1069 816.8091,-216.1069 812.8091,-216.131 816.7875,-212.507 808.8092,-216.155 808.8092,-216.155"/>
<ellipse fill="none" stroke="#000000" cx="805.6093" cy="-216.1742" rx="3.2" ry="3.2"/>
</g>
<!-- locations_feature_classes -->
<g id="node5" class="node">
<title>locations_feature_classes</title>
<g id="a_node5"><a xlink:href="../../tables/locations_feature_classes.html" xlink:title="locations_feature_classes" target="_top">
<polygon fill="#ffffff" stroke="transparent" points="8,-50.2 8,-208.2 373,-208.2 373,-50.2 8,-50.2"/>
<polygon fill="#f5f5f5" stroke="transparent" points="10.5,-177.2 10.5,-206.2 371.5,-206.2 371.5,-177.2 10.5,-177.2"/>
<polygon fill="none" stroke="#000000" points="10.5,-177.2 10.5,-206.2 371.5,-206.2 371.5,-177.2 10.5,-177.2"/>
<text text-anchor="start" x="15.5" y="-184.3" font-family="Helvetica,sans-Serif" font-weight="bold" font-size="16.00" fill="#000000">locations_feature_classes</text>
<text text-anchor="start" x="322.9272" y="-186.8" font-family="Helvetica,sans-Serif" font-size="16.00" fill="#000000">[table]</text>
<polygon fill="none" stroke="#000000" points="10.5,-152.2 10.5,-177.2 242.5,-177.2 242.5,-152.2 10.5,-152.2"/>
<image xlink:href="../../images/primaryKeys.png" width="11px" height="12px" preserveAspectRatio="xMinYMin meet" x="15.5" y="-170.7"/>
<text text-anchor="start" x="30.5" y="-156.3" font-family="Helvetica,sans-Serif" font-size="16.00" fill="#000000">feature_class</text>
<polygon fill="none" stroke="#000000" points="242.5,-152.2 242.5,-177.2 371.5,-177.2 371.5,-152.2 242.5,-152.2"/>
<text text-anchor="start" x="245.188" y="-159.8" font-family="Helvetica,sans-Serif" font-size="16.00" fill="#000000">text[2000000000]</text>
<polygon fill="none" stroke="#000000" points="10.5,-127.2 10.5,-152.2 242.5,-152.2 242.5,-127.2 10.5,-127.2"/>
<text text-anchor="start" x="30.5" y="-131.3" font-family="Helvetica,sans-Serif" font-size="16.00" fill="#000000">description</text>
<polygon fill="none" stroke="#000000" points="242.5,-127.2 242.5,-152.2 371.5,-152.2 371.5,-127.2 242.5,-127.2"/>
<text text-anchor="start" x="245.188" y="-134.8" font-family="Helvetica,sans-Serif" font-size="16.00" fill="#000000">text[2000000000]</text>
<polygon fill="none" stroke="#000000" points="10.5,-102.2 10.5,-127.2 242.5,-127.2 242.5,-102.2 10.5,-102.2"/>
<text text-anchor="start" x="30.5" y="-106.3" font-family="Helvetica,sans-Serif" font-size="16.00" fill="#000000">inserted_at</text>
<polygon fill="none" stroke="#000000" points="242.5,-102.2 242.5,-127.2 371.5,-127.2 371.5,-102.2 242.5,-102.2"/>
<text text-anchor="start" x="245.188" y="-109.8" font-family="Helvetica,sans-Serif" font-size="16.00" fill="#000000">text[2000000000]</text>
<polygon fill="none" stroke="#000000" points="10.5,-77.2 10.5,-102.2 242.5,-102.2 242.5,-77.2 10.5,-77.2"/>
<text text-anchor="start" x="30.5" y="-81.3" font-family="Helvetica,sans-Serif" font-size="16.00" fill="#000000">updated_at</text>
<polygon fill="none" stroke="#000000" points="242.5,-77.2 242.5,-102.2 371.5,-102.2 371.5,-77.2 242.5,-77.2"/>
<text text-anchor="start" x="245.188" y="-84.8" font-family="Helvetica,sans-Serif" font-size="16.00" fill="#000000">text[2000000000]</text>
<polygon fill="#ffffff" stroke="transparent" points="10.5,-52.2 10.5,-77.2 113.5,-77.2 113.5,-52.2 10.5,-52.2"/>
<polygon fill="none" stroke="#000000" points="10.5,-52.2 10.5,-77.2 113.5,-77.2 113.5,-52.2 10.5,-52.2"/>
<text text-anchor="start" x="13.5" y="-59.8" font-family="Helvetica,sans-Serif" font-size="16.00" fill="#000000">&lt; 0</text>
<polygon fill="#ffffff" stroke="transparent" points="113.5,-52.2 113.5,-77.2 242.5,-77.2 242.5,-52.2 113.5,-52.2"/>
<polygon fill="none" stroke="#000000" points="113.5,-52.2 113.5,-77.2 242.5,-77.2 242.5,-52.2 113.5,-52.2"/>
<text text-anchor="start" x="192.388" y="-59.8" font-family="Helvetica,sans-Serif" font-size="16.00" fill="#000000">9 rows</text>
<polygon fill="#ffffff" stroke="transparent" points="242.5,-52.2 242.5,-77.2 371.5,-77.2 371.5,-52.2 242.5,-52.2"/>
<polygon fill="none" stroke="#000000" points="242.5,-52.2 242.5,-77.2 371.5,-77.2 371.5,-52.2 242.5,-52.2"/>
<text text-anchor="start" x="345.8168" y="-59.8" font-family="Helvetica,sans-Serif" font-size="16.00" fill="#000000">2 &gt;</text>
<polygon fill="none" stroke="#000000" stroke-width="2" points="9,-51.2 9,-207.2 372,-207.2 372,-51.2 9,-51.2"/>
</a>
</g>
</g>
<!-- locations_cities&#45;&gt;locations_feature_classes -->
<g id="edge5" class="edge">
<title>locations_cities:w&#45;&gt;locations_feature_classes:e</title>
<path fill="none" stroke="#000000" d="M802.4096,-213.9508C666.0566,-209.5758 450.0591,-201.0698 414,-190.2 393.018,-183.8751 393.4145,-165.2 371.5,-165.2"/>
<polygon fill="#000000" stroke="#000000" points="808.9889,-214.1591 816.8708,-218.0107 812.9868,-214.2858 816.9848,-214.4125 816.9848,-214.4125 816.9848,-214.4125 812.9868,-214.2858 817.0988,-210.8143 808.9889,-214.1591 808.9889,-214.1591"/>
<ellipse fill="none" stroke="#000000" cx="805.7905" cy="-214.0578" rx="3.2" ry="3.2"/>
</g>
<!-- locations_feature_codes -->
<g id="node6" class="node">
<title>locations_feature_codes</title>
<g id="a_node6"><a xlink:href="../../tables/locations_feature_codes.html" xlink:title="locations_feature_codes" target="_top">
<polygon fill="#ffffff" stroke="transparent" points="473,-100.7 473,-179.7 725,-179.7 725,-100.7 473,-100.7"/>
<polygon fill="#f5f5f5" stroke="transparent" points="473,-150.2 473,-179.2 725,-179.2 725,-150.2 473,-150.2"/>
<polygon fill="none" stroke="#000000" points="473,-150.2 473,-179.2 725,-179.2 725,-150.2 473,-150.2"/>
<text text-anchor="start" x="478" y="-157.3" font-family="Helvetica,sans-Serif" font-weight="bold" font-size="16.00" fill="#000000">locations_feature_codes</text>
<text text-anchor="start" x="676.7136" y="-159.8" font-family="Helvetica,sans-Serif" font-size="16.00" fill="#000000">[table]</text>
<polygon fill="none" stroke="#000000" points="473,-125.2 473,-150.2 725,-150.2 725,-125.2 473,-125.2"/>
<text text-anchor="start" x="476" y="-132.8" font-family="Helvetica,sans-Serif" font-size="16.00" fill="#000000">...</text>
<polygon fill="#ffffff" stroke="transparent" points="473,-100.2 473,-125.2 564,-125.2 564,-100.2 473,-100.2"/>
<polygon fill="none" stroke="#000000" points="473,-100.2 473,-125.2 564,-125.2 564,-100.2 473,-100.2"/>
<text text-anchor="start" x="476" y="-107.8" font-family="Helvetica,sans-Serif" font-size="16.00" fill="#000000">&lt; 1</text>
<polygon fill="#ffffff" stroke="transparent" points="564,-100.2 564,-125.2 665,-125.2 665,-100.2 564,-100.2"/>
<polygon fill="none" stroke="#000000" points="564,-100.2 564,-125.2 665,-125.2 665,-100.2 564,-100.2"/>
<text text-anchor="start" x="597.0992" y="-107.8" font-family="Helvetica,sans-Serif" font-size="16.00" fill="#000000">684 rows</text>
<polygon fill="#ffffff" stroke="transparent" points="665,-100.2 665,-125.2 725,-125.2 725,-100.2 665,-100.2"/>
<polygon fill="none" stroke="#000000" points="665,-100.2 665,-125.2 725,-125.2 725,-100.2 665,-100.2"/>
<text text-anchor="start" x="699.3168" y="-107.8" font-family="Helvetica,sans-Serif" font-size="16.00" fill="#000000">1 &gt;</text>
</a>
</g>
</g>
<!-- locations_cities&#45;&gt;locations_feature_codes -->
<g id="edge6" class="edge">
<title>locations_cities:w&#45;&gt;locations_feature_codes:e</title>
<path fill="none" stroke="#000000" d="M802.5755,-189.8054C780.1071,-184.3305 756.2939,-178.5279 733.1771,-172.8951"/>
<polygon fill="#000000" stroke="#000000" points="808.9752,-191.3648 815.8955,-196.7565 812.8615,-192.3118 816.7478,-193.2588 816.7478,-193.2588 816.7478,-193.2588 812.8615,-192.3118 817.6001,-189.7611 808.9752,-191.3648 808.9752,-191.3648"/>
<ellipse fill="none" stroke="#000000" cx="805.8662" cy="-190.6072" rx="3.2" ry="3.2"/>
</g>
<!-- locations_administrative_divisions_1&#45;&gt;locations_countries -->
<g id="edge2" class="edge">
<title>locations_administrative_divisions_1:w&#45;&gt;locations_countries:e</title>
<path fill="none" stroke="#000000" d="M407.401,-291.8786C363.5122,-289.8768 347.9185,-279.2 297.5,-279.2"/>
<polygon fill="#000000" stroke="#000000" points="414.0019,-292.0239 421.9208,-295.7991 418.001,-292.1119 422,-292.2 422,-292.2 422,-292.2 418.001,-292.1119 422.0792,-288.6009 414.0019,-292.0239 414.0019,-292.0239"/>
<ellipse fill="none" stroke="#000000" cx="410.8027" cy="-291.9535" rx="3.2" ry="3.2"/>
</g>
<!-- locations_feature_codes&#45;&gt;locations_feature_classes -->
<g id="edge7" class="edge">
<title>locations_feature_codes:w&#45;&gt;locations_feature_classes:e</title>
<path fill="none" stroke="#000000" d="M450.3708,-161.2568C424.1465,-163.6211 397.0634,-165.2 371.5,-165.2"/>
<polygon fill="#000000" stroke="#000000" points="456.873,-160.6324 465.1806,-163.451 460.8547,-160.25 464.8364,-159.8675 464.8364,-159.8675 464.8364,-159.8675 460.8547,-160.25 464.4922,-156.284 456.873,-160.6324 456.873,-160.6324"/>
<ellipse fill="none" stroke="#000000" cx="453.6877" cy="-160.9383" rx="3.2" ry="3.2"/>
</g>
</g>
</svg>
