<?xml version="1.0" encoding="UTF-8" standalone="no"?>
<!DOCTYPE svg PUBLIC "-//W3C//DTD SVG 1.1//EN"
 "http://www.w3.org/Graphics/SVG/1.1/DTD/svg11.dtd">
<!-- Generated by graphviz version 2.40.1 (20161225.0304)
 -->
<!-- Title: oneDegreeRelationshipsDiagramImplied Pages: 1 -->
<svg width="1856pt" height="859pt"
 viewBox="0.00 0.00 1856.00 859.20" xmlns="http://www.w3.org/2000/svg" xmlns:xlink="http://www.w3.org/1999/xlink">
<g id="graph0" class="graph" transform="scale(1 1) rotate(0) translate(4 855.2)">
<title>oneDegreeRelationshipsDiagramImplied</title>
<polygon fill="#ffffff" stroke="transparent" points="-4,4 -4,-855.2 1852,-855.2 1852,4 -4,4"/>
<text text-anchor="middle" x="101.8088" y="-8.8" font-family="Helvetica,sans-Serif" font-size="16.00" fill="#000000">Generated by SchemaSpy</text>
<!-- locations_administrative_divisions_1 -->
<g id="node1" class="node">
<title>locations_administrative_divisions_1</title>
<g id="a_node1"><a xlink:href="../../tables/locations_administrative_divisions_1.html" xlink:title="locations_administrative_divisions_1" target="_top">
<polygon fill="#ffffff" stroke="transparent" points="757,-463.2 757,-652.2 1111,-652.2 1111,-463.2 757,-463.2"/>
<polygon fill="#f5f5f5" stroke="transparent" points="757,-622.7 757,-651.7 1111,-651.7 1111,-622.7 757,-622.7"/>
<polygon fill="none" stroke="#000000" points="757,-622.7 757,-651.7 1111,-651.7 1111,-622.7 757,-622.7"/>
<text text-anchor="start" x="762" y="-629.8" font-family="Helvetica,sans-Serif" font-weight="bold" font-size="16.00" fill="#000000">locations_administrative_divisions_1</text>
<text text-anchor="start" x="1062.7136" y="-632.3" font-family="Helvetica,sans-Serif" font-size="16.00" fill="#000000">[table]</text>
<polygon fill="none" stroke="#000000" points="757,-600.7 757,-622.7 1111,-622.7 1111,-600.7 757,-600.7"/>
<image xlink:href="../../images/primaryKeys.png" width="11px" height="12px" preserveAspectRatio="xMinYMin meet" x="762" y="-617.7"/>
<text text-anchor="start" x="790" y="-603.3" font-family="Helvetica,sans-Serif" font-size="16.00" fill="#000000">administrative_division_1_code</text>
<polygon fill="#ffffff" stroke="transparent" points="757,-578.7 757,-600.7 1111,-600.7 1111,-578.7 757,-578.7"/>
<polygon fill="none" stroke="#000000" points="757,-578.7 757,-600.7 1111,-600.7 1111,-578.7 757,-578.7"/>
<image xlink:href="../../images/foreignKeys.png" width="11px" height="12px" preserveAspectRatio="xMinYMin meet" x="762" y="-595.7"/>
<text text-anchor="start" x="790" y="-581.3" font-family="Helvetica,sans-Serif" font-size="16.00" fill="#000000">country_code</text>
<polygon fill="#ffffff" stroke="transparent" points="757,-556.7 757,-578.7 1111,-578.7 1111,-556.7 757,-556.7"/>
<polygon fill="none" stroke="#000000" points="757,-556.7 757,-578.7 1111,-578.7 1111,-556.7 757,-556.7"/>
<text text-anchor="start" x="790" y="-559.3" font-family="Helvetica,sans-Serif" font-size="16.00" fill="#000000">administrative_division_1_name</text>
<polygon fill="#ffffff" stroke="transparent" points="757,-534.7 757,-556.7 1111,-556.7 1111,-534.7 757,-534.7"/>
<polygon fill="none" stroke="#000000" points="757,-534.7 757,-556.7 1111,-556.7 1111,-534.7 757,-534.7"/>
<text text-anchor="start" x="790" y="-537.3" font-family="Helvetica,sans-Serif" font-size="16.00" fill="#000000">administrative_division_1_ascii_name</text>
<polygon fill="#ffffff" stroke="transparent" points="757,-512.7 757,-534.7 1111,-534.7 1111,-512.7 757,-512.7"/>
<polygon fill="none" stroke="#000000" points="757,-512.7 757,-534.7 1111,-534.7 1111,-512.7 757,-512.7"/>
<text text-anchor="start" x="790" y="-515.3" font-family="Helvetica,sans-Serif" font-size="16.00" fill="#000000">geoname_id</text>
<polygon fill="none" stroke="#000000" points="757,-487.7 757,-512.7 1111,-512.7 1111,-487.7 757,-487.7"/>
<text text-anchor="start" x="760" y="-495.3" font-family="Helvetica,sans-Serif" font-size="16.00" fill="#000000">...</text>
<polygon fill="#ffffff" stroke="transparent" points="757,-462.7 757,-487.7 892,-487.7 892,-462.7 757,-462.7"/>
<polygon fill="none" stroke="#000000" points="757,-462.7 757,-487.7 892,-487.7 892,-462.7 757,-462.7"/>
<text text-anchor="start" x="760" y="-470.3" font-family="Helvetica,sans-Serif" font-size="16.00" fill="#000000">&lt; 1</text>
<polygon fill="#ffffff" stroke="transparent" points="892,-462.7 892,-487.7 1029,-487.7 1029,-462.7 892,-462.7"/>
<polygon fill="none" stroke="#000000" points="892,-462.7 892,-487.7 1029,-487.7 1029,-462.7 892,-462.7"/>
<text text-anchor="start" x="947.7584" y="-470.3" font-family="Helvetica,sans-Serif" font-size="16.00" fill="#000000">3,893 rows</text>
<polygon fill="#ffffff" stroke="transparent" points="1029,-462.7 1029,-487.7 1111,-487.7 1111,-462.7 1029,-462.7"/>
<polygon fill="none" stroke="#000000" points="1029,-462.7 1029,-487.7 1111,-487.7 1111,-462.7 1029,-462.7"/>
<text text-anchor="start" x="1085.3168" y="-470.3" font-family="Helvetica,sans-Serif" font-size="16.00" fill="#000000">2 &gt;</text>
</a>
</g>
</g>
<!-- locations_countries -->
<g id="node2" class="node">
<title>locations_countries</title>
<g id="a_node2"><a xlink:href="../../tables/locations_countries.html" xlink:title="locations_countries" target="_top">
<polygon fill="#ffffff" stroke="transparent" points="280,-50.2 280,-633.2 708,-633.2 708,-50.2 280,-50.2"/>
<polygon fill="#f5f5f5" stroke="transparent" points="282,-601.7 282,-630.7 706,-630.7 706,-601.7 282,-601.7"/>
<polygon fill="none" stroke="#000000" points="282,-601.7 282,-630.7 706,-630.7 706,-601.7 282,-601.7"/>
<text text-anchor="start" x="287" y="-608.8" font-family="Helvetica,sans-Serif" font-weight="bold" font-size="16.00" fill="#000000">locations_countries</text>
<text text-anchor="start" x="657.4272" y="-611.3" font-family="Helvetica,sans-Serif" font-size="16.00" fill="#000000">[table]</text>
<polygon fill="none" stroke="#000000" points="282,-576.7 282,-601.7 524,-601.7 524,-576.7 282,-576.7"/>
<image xlink:href="../../images/primaryKeys.png" width="11px" height="12px" preserveAspectRatio="xMinYMin meet" x="287" y="-595.2"/>
<text text-anchor="start" x="302" y="-580.8" font-family="Helvetica,sans-Serif" font-size="16.00" fill="#000000">iso_country_code</text>
<polygon fill="none" stroke="#000000" points="524,-576.7 524,-601.7 706,-601.7 706,-576.7 524,-576.7"/>
<text text-anchor="start" x="527" y="-584.3" font-family="Helvetica,sans-Serif" font-size="16.00" fill="#000000">text[2000000000]</text>
<polygon fill="#ffffff" stroke="transparent" points="282,-551.7 282,-576.7 524,-576.7 524,-551.7 282,-551.7"/>
<polygon fill="none" stroke="#000000" points="282,-551.7 282,-576.7 524,-576.7 524,-551.7 282,-551.7"/>
<text text-anchor="start" x="302" y="-555.8" font-family="Helvetica,sans-Serif" font-size="16.00" fill="#000000">iso_3_country_code</text>
<polygon fill="none" stroke="#000000" points="524,-551.7 524,-576.7 706,-576.7 706,-551.7 524,-551.7"/>
<text text-anchor="start" x="527" y="-559.3" font-family="Helvetica,sans-Serif" font-size="16.00" fill="#000000">text[2000000000]</text>
<polygon fill="#ffffff" stroke="transparent" points="282,-526.7 282,-551.7 524,-551.7 524,-526.7 282,-526.7"/>
<polygon fill="none" stroke="#000000" points="282,-526.7 282,-551.7 524,-551.7 524,-526.7 282,-526.7"/>
<text text-anchor="start" x="302" y="-530.8" font-family="Helvetica,sans-Serif" font-size="16.00" fill="#000000">iso_numeric_country_code</text>
<polygon fill="none" stroke="#000000" points="524,-526.7 524,-551.7 706,-551.7 706,-526.7 524,-526.7"/>
<text text-anchor="start" x="527" y="-534.3" font-family="Helvetica,sans-Serif" font-size="16.00" fill="#000000">integer[2000000000]</text>
<polygon fill="none" stroke="#000000" points="282,-501.7 282,-526.7 524,-526.7 524,-501.7 282,-501.7"/>
<text text-anchor="start" x="302" y="-505.8" font-family="Helvetica,sans-Serif" font-size="16.00" fill="#000000">fips_country_code</text>
<polygon fill="none" stroke="#000000" points="524,-501.7 524,-526.7 706,-526.7 706,-501.7 524,-501.7"/>
<text text-anchor="start" x="527" y="-509.3" font-family="Helvetica,sans-Serif" font-size="16.00" fill="#000000">text[2000000000]</text>
<polygon fill="#ffffff" stroke="transparent" points="282,-476.7 282,-501.7 524,-501.7 524,-476.7 282,-476.7"/>
<polygon fill="none" stroke="#000000" points="282,-476.7 282,-501.7 524,-501.7 524,-476.7 282,-476.7"/>
<text text-anchor="start" x="302" y="-480.8" font-family="Helvetica,sans-Serif" font-size="16.00" fill="#000000">country_name</text>
<polygon fill="none" stroke="#000000" points="524,-476.7 524,-501.7 706,-501.7 706,-476.7 524,-476.7"/>
<text text-anchor="start" x="527" y="-484.3" font-family="Helvetica,sans-Serif" font-size="16.00" fill="#000000">text[2000000000]</text>
<polygon fill="none" stroke="#000000" points="282,-451.7 282,-476.7 524,-476.7 524,-451.7 282,-451.7"/>
<text text-anchor="start" x="302" y="-455.8" font-family="Helvetica,sans-Serif" font-size="16.00" fill="#000000">capital</text>
<polygon fill="none" stroke="#000000" points="524,-451.7 524,-476.7 706,-476.7 706,-451.7 524,-451.7"/>
<text text-anchor="start" x="527" y="-459.3" font-family="Helvetica,sans-Serif" font-size="16.00" fill="#000000">text[2000000000]</text>
<polygon fill="#ffffff" stroke="transparent" points="282,-426.7 282,-451.7 524,-451.7 524,-426.7 282,-426.7"/>
<polygon fill="none" stroke="#000000" points="282,-426.7 282,-451.7 524,-451.7 524,-426.7 282,-426.7"/>
<text text-anchor="start" x="302" y="-430.8" font-family="Helvetica,sans-Serif" font-size="16.00" fill="#000000">area</text>
<polygon fill="none" stroke="#000000" points="524,-426.7 524,-451.7 706,-451.7 706,-426.7 524,-426.7"/>
<text text-anchor="start" x="526.5208" y="-434.3" font-family="Helvetica,sans-Serif" font-size="16.00" fill="#000000">numeric[2000000000,10]</text>
<polygon fill="#ffffff" stroke="transparent" points="282,-401.7 282,-426.7 524,-426.7 524,-401.7 282,-401.7"/>
<polygon fill="none" stroke="#000000" points="282,-401.7 282,-426.7 524,-426.7 524,-401.7 282,-401.7"/>
<text text-anchor="start" x="302" y="-405.8" font-family="Helvetica,sans-Serif" font-size="16.00" fill="#000000">population</text>
<polygon fill="none" stroke="#000000" points="524,-401.7 524,-426.7 706,-426.7 706,-401.7 524,-401.7"/>
<text text-anchor="start" x="527" y="-409.3" font-family="Helvetica,sans-Serif" font-size="16.00" fill="#000000">integer[2000000000]</text>
<polygon fill="#ffffff" stroke="transparent" points="282,-376.7 282,-401.7 524,-401.7 524,-376.7 282,-376.7"/>
<polygon fill="none" stroke="#000000" points="282,-376.7 282,-401.7 524,-401.7 524,-376.7 282,-376.7"/>
<image xlink:href="../../images/foreignKeys.png" width="11px" height="12px" preserveAspectRatio="xMinYMin meet" x="287" y="-395.2"/>
<text text-anchor="start" x="302" y="-380.8" font-family="Helvetica,sans-Serif" font-size="16.00" fill="#000000">continent_code</text>
<polygon fill="none" stroke="#000000" points="524,-376.7 524,-401.7 706,-401.7 706,-376.7 524,-376.7"/>
<text text-anchor="start" x="527" y="-384.3" font-family="Helvetica,sans-Serif" font-size="16.00" fill="#000000">text[2000000000]</text>
<polygon fill="#ffffff" stroke="transparent" points="282,-351.7 282,-376.7 524,-376.7 524,-351.7 282,-351.7"/>
<polygon fill="none" stroke="#000000" points="282,-351.7 282,-376.7 524,-376.7 524,-351.7 282,-351.7"/>
<text text-anchor="start" x="302" y="-355.8" font-family="Helvetica,sans-Serif" font-size="16.00" fill="#000000">tld</text>
<polygon fill="none" stroke="#000000" points="524,-351.7 524,-376.7 706,-376.7 706,-351.7 524,-351.7"/>
<text text-anchor="start" x="527" y="-359.3" font-family="Helvetica,sans-Serif" font-size="16.00" fill="#000000">text[2000000000]</text>
<polygon fill="#ffffff" stroke="transparent" points="282,-326.7 282,-351.7 524,-351.7 524,-326.7 282,-326.7"/>
<polygon fill="none" stroke="#000000" points="282,-326.7 282,-351.7 524,-351.7 524,-326.7 282,-326.7"/>
<text text-anchor="start" x="302" y="-330.8" font-family="Helvetica,sans-Serif" font-size="16.00" fill="#000000">currency_code</text>
<polygon fill="none" stroke="#000000" points="524,-326.7 524,-351.7 706,-351.7 706,-326.7 524,-326.7"/>
<text text-anchor="start" x="527" y="-334.3" font-family="Helvetica,sans-Serif" font-size="16.00" fill="#000000">text[2000000000]</text>
<polygon fill="none" stroke="#000000" points="282,-301.7 282,-326.7 524,-326.7 524,-301.7 282,-301.7"/>
<text text-anchor="start" x="302" y="-305.8" font-family="Helvetica,sans-Serif" font-size="16.00" fill="#000000">currency_name</text>
<polygon fill="none" stroke="#000000" points="524,-301.7 524,-326.7 706,-326.7 706,-301.7 524,-301.7"/>
<text text-anchor="start" x="527" y="-309.3" font-family="Helvetica,sans-Serif" font-size="16.00" fill="#000000">text[2000000000]</text>
<polygon fill="none" stroke="#000000" points="282,-276.7 282,-301.7 524,-301.7 524,-276.7 282,-276.7"/>
<text text-anchor="start" x="302" y="-280.8" font-family="Helvetica,sans-Serif" font-size="16.00" fill="#000000">phone</text>
<polygon fill="none" stroke="#000000" points="524,-276.7 524,-301.7 706,-301.7 706,-276.7 524,-276.7"/>
<text text-anchor="start" x="527" y="-284.3" font-family="Helvetica,sans-Serif" font-size="16.00" fill="#000000">text[2000000000]</text>
<polygon fill="none" stroke="#000000" points="282,-251.7 282,-276.7 524,-276.7 524,-251.7 282,-251.7"/>
<text text-anchor="start" x="302" y="-255.8" font-family="Helvetica,sans-Serif" font-size="16.00" fill="#000000">postal_code_format</text>
<polygon fill="none" stroke="#000000" points="524,-251.7 524,-276.7 706,-276.7 706,-251.7 524,-251.7"/>
<text text-anchor="start" x="527" y="-259.3" font-family="Helvetica,sans-Serif" font-size="16.00" fill="#000000">text[2000000000]</text>
<polygon fill="none" stroke="#000000" points="282,-226.7 282,-251.7 524,-251.7 524,-226.7 282,-226.7"/>
<text text-anchor="start" x="302" y="-230.8" font-family="Helvetica,sans-Serif" font-size="16.00" fill="#000000">postal_code_regex</text>
<polygon fill="none" stroke="#000000" points="524,-226.7 524,-251.7 706,-251.7 706,-226.7 524,-226.7"/>
<text text-anchor="start" x="527" y="-234.3" font-family="Helvetica,sans-Serif" font-size="16.00" fill="#000000">text[2000000000]</text>
<polygon fill="none" stroke="#000000" points="282,-201.7 282,-226.7 524,-226.7 524,-201.7 282,-201.7"/>
<text text-anchor="start" x="302" y="-205.8" font-family="Helvetica,sans-Serif" font-size="16.00" fill="#000000">languages</text>
<polygon fill="none" stroke="#000000" points="524,-201.7 524,-226.7 706,-226.7 706,-201.7 524,-201.7"/>
<text text-anchor="start" x="527" y="-209.3" font-family="Helvetica,sans-Serif" font-size="16.00" fill="#000000">text[2000000000]</text>
<polygon fill="#ffffff" stroke="transparent" points="282,-176.7 282,-201.7 524,-201.7 524,-176.7 282,-176.7"/>
<polygon fill="none" stroke="#000000" points="282,-176.7 282,-201.7 524,-201.7 524,-176.7 282,-176.7"/>
<text text-anchor="start" x="302" y="-180.8" font-family="Helvetica,sans-Serif" font-size="16.00" fill="#000000">geoname_id</text>
<polygon fill="none" stroke="#000000" points="524,-176.7 524,-201.7 706,-201.7 706,-176.7 524,-176.7"/>
<text text-anchor="start" x="527" y="-184.3" font-family="Helvetica,sans-Serif" font-size="16.00" fill="#000000">integer[2000000000]</text>
<polygon fill="none" stroke="#000000" points="282,-151.7 282,-176.7 524,-176.7 524,-151.7 282,-151.7"/>
<text text-anchor="start" x="302" y="-155.8" font-family="Helvetica,sans-Serif" font-size="16.00" fill="#000000">neighbours</text>
<polygon fill="none" stroke="#000000" points="524,-151.7 524,-176.7 706,-176.7 706,-151.7 524,-151.7"/>
<text text-anchor="start" x="527" y="-159.3" font-family="Helvetica,sans-Serif" font-size="16.00" fill="#000000">text[2000000000]</text>
<polygon fill="none" stroke="#000000" points="282,-126.7 282,-151.7 524,-151.7 524,-126.7 282,-126.7"/>
<text text-anchor="start" x="302" y="-130.8" font-family="Helvetica,sans-Serif" font-size="16.00" fill="#000000">equivalent_fips_code</text>
<polygon fill="none" stroke="#000000" points="524,-126.7 524,-151.7 706,-151.7 706,-126.7 524,-126.7"/>
<text text-anchor="start" x="527" y="-134.3" font-family="Helvetica,sans-Serif" font-size="16.00" fill="#000000">text[2000000000]</text>
<polygon fill="none" stroke="#000000" points="282,-101.7 282,-126.7 524,-126.7 524,-101.7 282,-101.7"/>
<text text-anchor="start" x="302" y="-105.8" font-family="Helvetica,sans-Serif" font-size="16.00" fill="#000000">inserted_at</text>
<polygon fill="none" stroke="#000000" points="524,-101.7 524,-126.7 706,-126.7 706,-101.7 524,-101.7"/>
<text text-anchor="start" x="527" y="-109.3" font-family="Helvetica,sans-Serif" font-size="16.00" fill="#000000">text[2000000000]</text>
<polygon fill="none" stroke="#000000" points="282,-76.7 282,-101.7 524,-101.7 524,-76.7 282,-76.7"/>
<text text-anchor="start" x="302" y="-80.8" font-family="Helvetica,sans-Serif" font-size="16.00" fill="#000000">updated_at</text>
<polygon fill="none" stroke="#000000" points="524,-76.7 524,-101.7 706,-101.7 706,-76.7 524,-76.7"/>
<text text-anchor="start" x="527" y="-84.3" font-family="Helvetica,sans-Serif" font-size="16.00" fill="#000000">text[2000000000]</text>
<polygon fill="#ffffff" stroke="transparent" points="282,-51.7 282,-76.7 382,-76.7 382,-51.7 282,-51.7"/>
<polygon fill="none" stroke="#000000" points="282,-51.7 282,-76.7 382,-76.7 382,-51.7 282,-51.7"/>
<text text-anchor="start" x="285" y="-59.3" font-family="Helvetica,sans-Serif" font-size="16.00" fill="#000000">&lt; 1</text>
<polygon fill="#ffffff" stroke="transparent" points="382,-51.7 382,-76.7 524,-76.7 524,-51.7 382,-51.7"/>
<polygon fill="none" stroke="#000000" points="382,-51.7 382,-76.7 524,-76.7 524,-51.7 382,-51.7"/>
<text text-anchor="start" x="456.0992" y="-59.3" font-family="Helvetica,sans-Serif" font-size="16.00" fill="#000000">252 rows</text>
<polygon fill="#ffffff" stroke="transparent" points="524,-51.7 524,-76.7 706,-76.7 706,-51.7 524,-51.7"/>
<polygon fill="none" stroke="#000000" points="524,-51.7 524,-76.7 706,-76.7 706,-51.7 524,-51.7"/>
<text text-anchor="start" x="680.3168" y="-59.3" font-family="Helvetica,sans-Serif" font-size="16.00" fill="#000000">3 &gt;</text>
<polygon fill="none" stroke="#000000" stroke-width="2" points="281,-51.2 281,-632.2 707,-632.2 707,-51.2 281,-51.2"/>
</a>
</g>
</g>
<!-- locations_administrative_divisions_1&#45;&gt;locations_countries -->
<g id="edge1" class="edge">
<title>locations_administrative_divisions_1:w&#45;&gt;locations_countries:e</title>
<path fill="none" stroke="#000000" d="M742.276,-589.7C730.2815,-589.7 722.8229,-589.7 706,-589.7"/>
<polygon fill="#000000" stroke="#000000" points="749,-589.7001 757,-593.3 753,-589.7 757,-589.7 757,-589.7 757,-589.7 753,-589.7 757,-586.1 749,-589.7001 749,-589.7001"/>
<ellipse fill="none" stroke="#000000" cx="745.8" cy="-589.7001" rx="3.2" ry="3.2"/>
</g>
<!-- locations_continents -->
<g id="node5" class="node">
<title>locations_continents</title>
<g id="a_node5"><a xlink:href="../../tables/locations_continents.html" xlink:title="locations_continents" target="_top">
<polygon fill="#ffffff" stroke="transparent" points="8,-307.2 8,-430.2 231,-430.2 231,-307.2 8,-307.2"/>
<polygon fill="#f5f5f5" stroke="transparent" points="8.5,-400.7 8.5,-429.7 231.5,-429.7 231.5,-400.7 8.5,-400.7"/>
<polygon fill="none" stroke="#000000" points="8.5,-400.7 8.5,-429.7 231.5,-429.7 231.5,-400.7 8.5,-400.7"/>
<text text-anchor="start" x="13.5" y="-407.8" font-family="Helvetica,sans-Serif" font-weight="bold" font-size="16.00" fill="#000000">locations_continents</text>
<text text-anchor="start" x="183.2136" y="-410.3" font-family="Helvetica,sans-Serif" font-size="16.00" fill="#000000">[table]</text>
<polygon fill="none" stroke="#000000" points="8.5,-378.7 8.5,-400.7 231.5,-400.7 231.5,-378.7 8.5,-378.7"/>
<image xlink:href="../../images/primaryKeys.png" width="11px" height="12px" preserveAspectRatio="xMinYMin meet" x="13.5" y="-395.7"/>
<text text-anchor="start" x="44.5" y="-381.3" font-family="Helvetica,sans-Serif" font-size="16.00" fill="#000000">continent_code</text>
<polygon fill="#ffffff" stroke="transparent" points="8.5,-356.7 8.5,-378.7 231.5,-378.7 231.5,-356.7 8.5,-356.7"/>
<polygon fill="none" stroke="#000000" points="8.5,-356.7 8.5,-378.7 231.5,-378.7 231.5,-356.7 8.5,-356.7"/>
<text text-anchor="start" x="44.5" y="-359.3" font-family="Helvetica,sans-Serif" font-size="16.00" fill="#000000">continent_name</text>
<polygon fill="none" stroke="#000000" points="8.5,-331.7 8.5,-356.7 231.5,-356.7 231.5,-331.7 8.5,-331.7"/>
<text text-anchor="start" x="11.5" y="-339.3" font-family="Helvetica,sans-Serif" font-size="16.00" fill="#000000">...</text>
<polygon fill="#ffffff" stroke="transparent" points="8.5,-306.7 8.5,-331.7 86.5,-331.7 86.5,-306.7 8.5,-306.7"/>
<polygon fill="none" stroke="#000000" points="8.5,-306.7 8.5,-331.7 86.5,-331.7 86.5,-306.7 8.5,-306.7"/>
<text text-anchor="start" x="11.5" y="-314.3" font-family="Helvetica,sans-Serif" font-size="16.00" fill="#000000"> &#160;</text>
<polygon fill="#ffffff" stroke="transparent" points="86.5,-306.7 86.5,-331.7 171.5,-331.7 171.5,-306.7 86.5,-306.7"/>
<polygon fill="none" stroke="#000000" points="86.5,-306.7 86.5,-331.7 171.5,-331.7 171.5,-306.7 86.5,-306.7"/>
<text text-anchor="start" x="121.388" y="-314.3" font-family="Helvetica,sans-Serif" font-size="16.00" fill="#000000">7 rows</text>
<polygon fill="#ffffff" stroke="transparent" points="171.5,-306.7 171.5,-331.7 231.5,-331.7 231.5,-306.7 171.5,-306.7"/>
<polygon fill="none" stroke="#000000" points="171.5,-306.7 171.5,-331.7 231.5,-331.7 231.5,-306.7 171.5,-306.7"/>
<text text-anchor="start" x="205.8168" y="-314.3" font-family="Helvetica,sans-Serif" font-size="16.00" fill="#000000">1 &gt;</text>
</a>
</g>
</g>
<!-- locations_countries&#45;&gt;locations_continents -->
<g id="edge7" class="edge">
<title>locations_countries:w&#45;&gt;locations_continents:e</title>
<path fill="none" stroke="#000000" d="M267.4203,-389.7C255.5435,-389.7 248.158,-389.7 231.5,-389.7"/>
<polygon fill="#000000" stroke="#000000" points="274,-389.7001 282,-393.3 278,-389.7 282,-389.7 282,-389.7 282,-389.7 278,-389.7 282,-386.1 274,-389.7001 274,-389.7001"/>
<ellipse fill="none" stroke="#000000" cx="270.8" cy="-389.7001" rx="3.2" ry="3.2"/>
</g>
<!-- locations_administrative_divisions_2 -->
<g id="node3" class="node">
<title>locations_administrative_divisions_2</title>
<g id="a_node3"><a xlink:href="../../tables/locations_administrative_divisions_2.html" xlink:title="locations_administrative_divisions_2" target="_top">
<polygon fill="#ffffff" stroke="transparent" points="1160,-395.2 1160,-606.2 1514,-606.2 1514,-395.2 1160,-395.2"/>
<polygon fill="#f5f5f5" stroke="transparent" points="1160,-576.7 1160,-605.7 1514,-605.7 1514,-576.7 1160,-576.7"/>
<polygon fill="none" stroke="#000000" points="1160,-576.7 1160,-605.7 1514,-605.7 1514,-576.7 1160,-576.7"/>
<text text-anchor="start" x="1165" y="-583.8" font-family="Helvetica,sans-Serif" font-weight="bold" font-size="16.00" fill="#000000">locations_administrative_divisions_2</text>
<text text-anchor="start" x="1465.7136" y="-586.3" font-family="Helvetica,sans-Serif" font-size="16.00" fill="#000000">[table]</text>
<polygon fill="none" stroke="#000000" points="1160,-554.7 1160,-576.7 1514,-576.7 1514,-554.7 1160,-554.7"/>
<image xlink:href="../../images/primaryKeys.png" width="11px" height="12px" preserveAspectRatio="xMinYMin meet" x="1165" y="-571.7"/>
<text text-anchor="start" x="1193" y="-557.3" font-family="Helvetica,sans-Serif" font-size="16.00" fill="#000000">administrative_division_2_code</text>
<polygon fill="#ffffff" stroke="transparent" points="1160,-532.7 1160,-554.7 1514,-554.7 1514,-532.7 1160,-532.7"/>
<polygon fill="none" stroke="#000000" points="1160,-532.7 1160,-554.7 1514,-554.7 1514,-532.7 1160,-532.7"/>
<image xlink:href="../../images/foreignKeys.png" width="11px" height="12px" preserveAspectRatio="xMinYMin meet" x="1165" y="-549.7"/>
<text text-anchor="start" x="1193" y="-535.3" font-family="Helvetica,sans-Serif" font-size="16.00" fill="#000000">administrative_division_1_code</text>
<polygon fill="#ffffff" stroke="transparent" points="1160,-510.7 1160,-532.7 1514,-532.7 1514,-510.7 1160,-510.7"/>
<polygon fill="none" stroke="#000000" points="1160,-510.7 1160,-532.7 1514,-532.7 1514,-510.7 1160,-510.7"/>
<image xlink:href="../../images/foreignKeys.png" width="11px" height="12px" preserveAspectRatio="xMinYMin meet" x="1165" y="-527.7"/>
<text text-anchor="start" x="1193" y="-513.3" font-family="Helvetica,sans-Serif" font-size="16.00" fill="#000000">country_code</text>
<polygon fill="#ffffff" stroke="transparent" points="1160,-488.7 1160,-510.7 1514,-510.7 1514,-488.7 1160,-488.7"/>
<polygon fill="none" stroke="#000000" points="1160,-488.7 1160,-510.7 1514,-510.7 1514,-488.7 1160,-488.7"/>
<text text-anchor="start" x="1193" y="-491.3" font-family="Helvetica,sans-Serif" font-size="16.00" fill="#000000">administrative_division_2_name</text>
<polygon fill="#ffffff" stroke="transparent" points="1160,-466.7 1160,-488.7 1514,-488.7 1514,-466.7 1160,-466.7"/>
<polygon fill="none" stroke="#000000" points="1160,-466.7 1160,-488.7 1514,-488.7 1514,-466.7 1160,-466.7"/>
<text text-anchor="start" x="1193" y="-469.3" font-family="Helvetica,sans-Serif" font-size="16.00" fill="#000000">administrative_division_2_ascii_name</text>
<polygon fill="#ffffff" stroke="transparent" points="1160,-444.7 1160,-466.7 1514,-466.7 1514,-444.7 1160,-444.7"/>
<polygon fill="none" stroke="#000000" points="1160,-444.7 1160,-466.7 1514,-466.7 1514,-444.7 1160,-444.7"/>
<text text-anchor="start" x="1193" y="-447.3" font-family="Helvetica,sans-Serif" font-size="16.00" fill="#000000">geoname_id</text>
<polygon fill="none" stroke="#000000" points="1160,-419.7 1160,-444.7 1514,-444.7 1514,-419.7 1160,-419.7"/>
<text text-anchor="start" x="1163" y="-427.3" font-family="Helvetica,sans-Serif" font-size="16.00" fill="#000000">...</text>
<polygon fill="#ffffff" stroke="transparent" points="1160,-394.7 1160,-419.7 1290,-419.7 1290,-394.7 1160,-394.7"/>
<polygon fill="none" stroke="#000000" points="1160,-394.7 1160,-419.7 1290,-419.7 1290,-394.7 1160,-394.7"/>
<text text-anchor="start" x="1163" y="-402.3" font-family="Helvetica,sans-Serif" font-size="16.00" fill="#000000">&lt; 2</text>
<polygon fill="#ffffff" stroke="transparent" points="1290,-394.7 1290,-419.7 1434,-419.7 1434,-394.7 1290,-394.7"/>
<polygon fill="none" stroke="#000000" points="1290,-394.7 1290,-419.7 1434,-419.7 1434,-394.7 1290,-394.7"/>
<text text-anchor="start" x="1343.864" y="-402.3" font-family="Helvetica,sans-Serif" font-size="16.00" fill="#000000">47,229 rows</text>
<polygon fill="#ffffff" stroke="transparent" points="1434,-394.7 1434,-419.7 1514,-419.7 1514,-394.7 1434,-394.7"/>
<polygon fill="none" stroke="#000000" points="1434,-394.7 1434,-419.7 1514,-419.7 1514,-394.7 1434,-394.7"/>
<text text-anchor="start" x="1488.3168" y="-402.3" font-family="Helvetica,sans-Serif" font-size="16.00" fill="#000000">1 &gt;</text>
</a>
</g>
</g>
<!-- locations_administrative_divisions_2&#45;&gt;locations_administrative_divisions_1 -->
<g id="edge2" class="edge">
<title>locations_administrative_divisions_2:w&#45;&gt;locations_administrative_divisions_1:e</title>
<path fill="none" stroke="#000000" d="M1146.1785,-548.5904C1129.4277,-564.1822 1142.1397,-611.7 1111,-611.7"/>
<polygon fill="#000000" stroke="#000000" points="1152.4582,-546.3685 1161.2008,-547.0938 1156.2291,-545.0343 1160,-543.7 1160,-543.7 1160,-543.7 1156.2291,-545.0343 1158.7992,-540.3062 1152.4582,-546.3685 1152.4582,-546.3685"/>
<ellipse fill="none" stroke="#000000" cx="1149.4414" cy="-547.4359" rx="3.2" ry="3.2"/>
</g>
<!-- locations_administrative_divisions_2&#45;&gt;locations_countries -->
<g id="edge3" class="edge">
<title>locations_administrative_divisions_2:w&#45;&gt;locations_countries:e</title>
<path fill="none" stroke="#000000" d="M1146.0281,-517.2189C1131.7253,-504.3318 1144.4331,-467.1718 1119,-452.7 976.0739,-371.3728 881.552,-355.3761 749,-452.7 697.5592,-490.4695 769.8176,-589.7 706,-589.7"/>
<polygon fill="#000000" stroke="#000000" points="1152.3822,-519.2567 1158.9005,-525.128 1156.1911,-520.4784 1160,-521.7 1160,-521.7 1160,-521.7 1156.1911,-520.4784 1161.0995,-518.272 1152.3822,-519.2567 1152.3822,-519.2567"/>
<ellipse fill="none" stroke="#000000" cx="1149.3351" cy="-518.2794" rx="3.2" ry="3.2"/>
</g>
<!-- locations_cities -->
<g id="node4" class="node">
<title>locations_cities</title>
<g id="a_node4"><a xlink:href="../../tables/locations_cities.html" xlink:title="locations_cities" target="_top">
<polygon fill="#ffffff" stroke="transparent" points="1563,-504.2 1563,-847.2 1840,-847.2 1840,-504.2 1563,-504.2"/>
<polygon fill="#f5f5f5" stroke="transparent" points="1563.5,-817.7 1563.5,-846.7 1840.5,-846.7 1840.5,-817.7 1563.5,-817.7"/>
<polygon fill="none" stroke="#000000" points="1563.5,-817.7 1563.5,-846.7 1840.5,-846.7 1840.5,-817.7 1563.5,-817.7"/>
<text text-anchor="start" x="1568.5" y="-824.8" font-family="Helvetica,sans-Serif" font-weight="bold" font-size="16.00" fill="#000000">locations_cities</text>
<text text-anchor="start" x="1791.9272" y="-827.3" font-family="Helvetica,sans-Serif" font-size="16.00" fill="#000000">[table]</text>
<polygon fill="none" stroke="#000000" points="1563.5,-795.7 1563.5,-817.7 1840.5,-817.7 1840.5,-795.7 1563.5,-795.7"/>
<image xlink:href="../../images/primaryKeys.png" width="11px" height="12px" preserveAspectRatio="xMinYMin meet" x="1568.5" y="-812.7"/>
<text text-anchor="start" x="1583.5" y="-798.3" font-family="Helvetica,sans-Serif" font-size="16.00" fill="#000000">id</text>
<polygon fill="#ffffff" stroke="transparent" points="1563.5,-773.7 1563.5,-795.7 1840.5,-795.7 1840.5,-773.7 1563.5,-773.7"/>
<polygon fill="none" stroke="#000000" points="1563.5,-773.7 1563.5,-795.7 1840.5,-795.7 1840.5,-773.7 1563.5,-773.7"/>
<text text-anchor="start" x="1583.5" y="-776.3" font-family="Helvetica,sans-Serif" font-size="16.00" fill="#000000">geoname_id</text>
<polygon fill="#ffffff" stroke="transparent" points="1563.5,-751.7 1563.5,-773.7 1840.5,-773.7 1840.5,-751.7 1563.5,-751.7"/>
<polygon fill="none" stroke="#000000" points="1563.5,-751.7 1563.5,-773.7 1840.5,-773.7 1840.5,-751.7 1563.5,-751.7"/>
<text text-anchor="start" x="1583.5" y="-754.3" font-family="Helvetica,sans-Serif" font-size="16.00" fill="#000000">name</text>
<polygon fill="#ffffff" stroke="transparent" points="1563.5,-729.7 1563.5,-751.7 1840.5,-751.7 1840.5,-729.7 1563.5,-729.7"/>
<polygon fill="none" stroke="#000000" points="1563.5,-729.7 1563.5,-751.7 1840.5,-751.7 1840.5,-729.7 1563.5,-729.7"/>
<text text-anchor="start" x="1583.5" y="-732.3" font-family="Helvetica,sans-Serif" font-size="16.00" fill="#000000">latitude</text>
<polygon fill="#ffffff" stroke="transparent" points="1563.5,-707.7 1563.5,-729.7 1840.5,-729.7 1840.5,-707.7 1563.5,-707.7"/>
<polygon fill="none" stroke="#000000" points="1563.5,-707.7 1563.5,-729.7 1840.5,-729.7 1840.5,-707.7 1563.5,-707.7"/>
<text text-anchor="start" x="1583.5" y="-710.3" font-family="Helvetica,sans-Serif" font-size="16.00" fill="#000000">longitude</text>
<polygon fill="none" stroke="#000000" points="1563.5,-685.7 1563.5,-707.7 1840.5,-707.7 1840.5,-685.7 1563.5,-685.7"/>
<image xlink:href="../../images/foreignKeys.png" width="11px" height="12px" preserveAspectRatio="xMinYMin meet" x="1568.5" y="-702.7"/>
<text text-anchor="start" x="1583.5" y="-688.3" font-family="Helvetica,sans-Serif" font-size="16.00" fill="#000000">feature_class</text>
<polygon fill="#ffffff" stroke="transparent" points="1563.5,-663.7 1563.5,-685.7 1840.5,-685.7 1840.5,-663.7 1563.5,-663.7"/>
<polygon fill="none" stroke="#000000" points="1563.5,-663.7 1563.5,-685.7 1840.5,-685.7 1840.5,-663.7 1563.5,-663.7"/>
<image xlink:href="../../images/foreignKeys.png" width="11px" height="12px" preserveAspectRatio="xMinYMin meet" x="1568.5" y="-680.7"/>
<text text-anchor="start" x="1583.5" y="-666.3" font-family="Helvetica,sans-Serif" font-size="16.00" fill="#000000">feature_code</text>
<polygon fill="#ffffff" stroke="transparent" points="1563.5,-641.7 1563.5,-663.7 1840.5,-663.7 1840.5,-641.7 1563.5,-641.7"/>
<polygon fill="none" stroke="#000000" points="1563.5,-641.7 1563.5,-663.7 1840.5,-663.7 1840.5,-641.7 1563.5,-641.7"/>
<image xlink:href="../../images/foreignKeys.png" width="11px" height="12px" preserveAspectRatio="xMinYMin meet" x="1568.5" y="-658.7"/>
<text text-anchor="start" x="1583.5" y="-644.3" font-family="Helvetica,sans-Serif" font-size="16.00" fill="#000000">country_code</text>
<polygon fill="#ffffff" stroke="transparent" points="1563.5,-619.7 1563.5,-641.7 1840.5,-641.7 1840.5,-619.7 1563.5,-619.7"/>
<polygon fill="none" stroke="#000000" points="1563.5,-619.7 1563.5,-641.7 1840.5,-641.7 1840.5,-619.7 1563.5,-619.7"/>
<image xlink:href="../../images/foreignKeys.png" width="11px" height="12px" preserveAspectRatio="xMinYMin meet" x="1568.5" y="-636.7"/>
<text text-anchor="start" x="1583.5" y="-622.3" font-family="Helvetica,sans-Serif" font-size="16.00" fill="#000000">administrative_division_1_code</text>
<polygon fill="#ffffff" stroke="transparent" points="1563.5,-597.7 1563.5,-619.7 1840.5,-619.7 1840.5,-597.7 1563.5,-597.7"/>
<polygon fill="none" stroke="#000000" points="1563.5,-597.7 1563.5,-619.7 1840.5,-619.7 1840.5,-597.7 1563.5,-597.7"/>
<image xlink:href="../../images/foreignKeys.png" width="11px" height="12px" preserveAspectRatio="xMinYMin meet" x="1568.5" y="-614.7"/>
<text text-anchor="start" x="1583.5" y="-600.3" font-family="Helvetica,sans-Serif" font-size="16.00" fill="#000000">administrative_division_2_code</text>
<polygon fill="#ffffff" stroke="transparent" points="1563.5,-575.7 1563.5,-597.7 1840.5,-597.7 1840.5,-575.7 1563.5,-575.7"/>
<polygon fill="none" stroke="#000000" points="1563.5,-575.7 1563.5,-597.7 1840.5,-597.7 1840.5,-575.7 1563.5,-575.7"/>
<text text-anchor="start" x="1583.5" y="-578.3" font-family="Helvetica,sans-Serif" font-size="16.00" fill="#000000">population</text>
<polygon fill="#ffffff" stroke="transparent" points="1563.5,-553.7 1563.5,-575.7 1840.5,-575.7 1840.5,-553.7 1563.5,-553.7"/>
<polygon fill="none" stroke="#000000" points="1563.5,-553.7 1563.5,-575.7 1840.5,-575.7 1840.5,-553.7 1563.5,-553.7"/>
<text text-anchor="start" x="1583.5" y="-556.3" font-family="Helvetica,sans-Serif" font-size="16.00" fill="#000000">timezone</text>
<polygon fill="none" stroke="#000000" points="1563.5,-528.7 1563.5,-553.7 1840.5,-553.7 1840.5,-528.7 1563.5,-528.7"/>
<text text-anchor="start" x="1566.5" y="-536.3" font-family="Helvetica,sans-Serif" font-size="16.00" fill="#000000">...</text>
<polygon fill="#ffffff" stroke="transparent" points="1563.5,-503.7 1563.5,-528.7 1650.5,-528.7 1650.5,-503.7 1563.5,-503.7"/>
<polygon fill="none" stroke="#000000" points="1563.5,-503.7 1563.5,-528.7 1650.5,-528.7 1650.5,-503.7 1563.5,-503.7"/>
<text text-anchor="start" x="1566.5" y="-511.3" font-family="Helvetica,sans-Serif" font-size="16.00" fill="#000000">&lt; 5</text>
<polygon fill="#ffffff" stroke="transparent" points="1650.5,-503.7 1650.5,-528.7 1782.5,-528.7 1782.5,-503.7 1650.5,-503.7"/>
<polygon fill="none" stroke="#000000" points="1650.5,-503.7 1650.5,-528.7 1782.5,-528.7 1782.5,-503.7 1650.5,-503.7"/>
<text text-anchor="start" x="1683.4696" y="-511.3" font-family="Helvetica,sans-Serif" font-size="16.00" fill="#000000">210,698 rows</text>
<polygon fill="#ffffff" stroke="transparent" points="1782.5,-503.7 1782.5,-528.7 1840.5,-528.7 1840.5,-503.7 1782.5,-503.7"/>
<polygon fill="none" stroke="#000000" points="1782.5,-503.7 1782.5,-528.7 1840.5,-528.7 1840.5,-503.7 1782.5,-503.7"/>
<text text-anchor="start" x="1814.8168" y="-511.3" font-family="Helvetica,sans-Serif" font-size="16.00" fill="#000000">1 &gt;</text>
</a>
</g>
</g>
<!-- locations_cities&#45;&gt;locations_administrative_divisions_1 -->
<g id="edge4" class="edge">
<title>locations_cities:w&#45;&gt;locations_administrative_divisions_1:e</title>
<path fill="none" stroke="#000000" d="M1549.0478,-630.7002C1377.9329,-630.7004 1329.5433,-630.5194 1152,-616.7 1133.6981,-615.2754 1129.3572,-611.7 1111,-611.7"/>
<polygon fill="#000000" stroke="#000000" points="1555.5,-630.7001 1563.5001,-634.3 1559.5,-630.7001 1563.5,-630.7 1563.5,-630.7 1563.5,-630.7 1559.5,-630.7001 1563.4999,-627.1 1555.5,-630.7001 1555.5,-630.7001"/>
<ellipse fill="none" stroke="#000000" cx="1552.3" cy="-630.7002" rx="3.2" ry="3.2"/>
</g>
<!-- locations_cities&#45;&gt;locations_countries -->
<g id="edge6" class="edge">
<title>locations_cities:w&#45;&gt;locations_countries:e</title>
<path fill="none" stroke="#000000" d="M1549.0365,-652.8012C1197.7306,-657.7264 1059.0909,-839.9322 749,-662.7 716.3083,-644.0151 743.6547,-589.7 706,-589.7"/>
<polygon fill="#000000" stroke="#000000" points="1555.5002,-652.756 1563.5252,-656.2999 1559.5001,-652.728 1563.5,-652.7 1563.5,-652.7 1563.5,-652.7 1559.5001,-652.728 1563.4748,-649.1001 1555.5002,-652.756 1555.5002,-652.756"/>
<ellipse fill="none" stroke="#000000" cx="1552.3003" cy="-652.7785" rx="3.2" ry="3.2"/>
</g>
<!-- locations_cities&#45;&gt;locations_administrative_divisions_2 -->
<g id="edge5" class="edge">
<title>locations_cities:w&#45;&gt;locations_administrative_divisions_2:e</title>
<path fill="none" stroke="#000000" stroke-dasharray="5,2" d="M1549.8004,-604.0982C1536.3618,-593.0054 1537.2222,-565.7 1514,-565.7"/>
<polygon fill="#000000" stroke="#000000" points="1555.9164,-606.1526 1562.3537,-612.1126 1559.7082,-607.4263 1563.5,-608.7 1563.5,-608.7 1563.5,-608.7 1559.7082,-607.4263 1564.6463,-605.2874 1555.9164,-606.1526 1555.9164,-606.1526"/>
<ellipse fill="none" stroke="#000000" cx="1552.883" cy="-605.1336" rx="3.2" ry="3.2"/>
</g>
</g>
</svg>
