<?xml version="1.0" encoding="UTF-8" standalone="no"?>
<!DOCTYPE svg PUBLIC "-//W3C//DTD SVG 1.1//EN"
 "http://www.w3.org/Graphics/SVG/1.1/DTD/svg11.dtd">
<!-- Generated by graphviz version 2.40.1 (20161225.0304)
 -->
<!-- Title: twoDegreesRelationshipsDiagramImplied Pages: 1 -->
<svg width="2326pt" height="871pt"
 viewBox="0.00 0.00 2326.00 870.70" xmlns="http://www.w3.org/2000/svg" xmlns:xlink="http://www.w3.org/1999/xlink">
<g id="graph0" class="graph" transform="scale(1 1) rotate(0) translate(4 866.7)">
<title>twoDegreesRelationshipsDiagramImplied</title>
<polygon fill="#ffffff" stroke="transparent" points="-4,4 -4,-866.7 2322,-866.7 2322,4 -4,4"/>
<text text-anchor="middle" x="101.8088" y="-8.8" font-family="Helvetica,sans-Serif" font-size="16.00" fill="#000000">Generated by SchemaSpy</text>
<!-- journal_entries -->
<g id="node1" class="node">
<title>journal_entries</title>
<g id="a_node1"><a xlink:href="../../tables/journal_entries.html" xlink:title="journal_entries" target="_top">
<polygon fill="#ffffff" stroke="transparent" points="1860,-611.7 1860,-844.7 2056,-844.7 2056,-611.7 1860,-611.7"/>
<polygon fill="#f5f5f5" stroke="transparent" points="1860,-815.2 1860,-844.2 2056,-844.2 2056,-815.2 1860,-815.2"/>
<polygon fill="none" stroke="#000000" points="1860,-815.2 1860,-844.2 2056,-844.2 2056,-815.2 1860,-815.2"/>
<text text-anchor="start" x="1865" y="-822.3" font-family="Helvetica,sans-Serif" font-weight="bold" font-size="16.00" fill="#000000">journal_entries</text>
<text text-anchor="start" x="2007.4272" y="-824.8" font-family="Helvetica,sans-Serif" font-size="16.00" fill="#000000">[table]</text>
<polygon fill="none" stroke="#000000" points="1860,-793.2 1860,-815.2 2056,-815.2 2056,-793.2 1860,-793.2"/>
<image xlink:href="../../images/primaryKeys.png" width="11px" height="12px" preserveAspectRatio="xMinYMin meet" x="1865" y="-810.2"/>
<text text-anchor="start" x="1880" y="-795.8" font-family="Helvetica,sans-Serif" font-size="16.00" fill="#000000">id</text>
<polygon fill="#ffffff" stroke="transparent" points="1860,-771.2 1860,-793.2 2056,-793.2 2056,-771.2 1860,-771.2"/>
<polygon fill="none" stroke="#000000" points="1860,-771.2 1860,-793.2 2056,-793.2 2056,-771.2 1860,-771.2"/>
<text text-anchor="start" x="1880" y="-773.8" font-family="Helvetica,sans-Serif" font-size="16.00" fill="#000000">journal_for</text>
<polygon fill="#ffffff" stroke="transparent" points="1860,-749.2 1860,-771.2 2056,-771.2 2056,-749.2 1860,-749.2"/>
<polygon fill="none" stroke="#000000" points="1860,-749.2 1860,-771.2 2056,-771.2 2056,-749.2 1860,-749.2"/>
<image xlink:href="../../images/foreignKeys.png" width="11px" height="12px" preserveAspectRatio="xMinYMin meet" x="1865" y="-766.2"/>
<text text-anchor="start" x="1880" y="-751.8" font-family="Helvetica,sans-Serif" font-size="16.00" fill="#000000">entry_type_id</text>
<polygon fill="#ffffff" stroke="transparent" points="1860,-727.2 1860,-749.2 2056,-749.2 2056,-727.2 1860,-727.2"/>
<polygon fill="none" stroke="#000000" points="1860,-727.2 1860,-749.2 2056,-749.2 2056,-727.2 1860,-727.2"/>
<text text-anchor="start" x="1880" y="-729.8" font-family="Helvetica,sans-Serif" font-size="16.00" fill="#000000">is_private</text>
<polygon fill="#ffffff" stroke="transparent" points="1860,-705.2 1860,-727.2 2056,-727.2 2056,-705.2 1860,-705.2"/>
<polygon fill="none" stroke="#000000" points="1860,-705.2 1860,-727.2 2056,-727.2 2056,-705.2 1860,-705.2"/>
<image xlink:href="../../images/foreignKeys.png" width="11px" height="12px" preserveAspectRatio="xMinYMin meet" x="1865" y="-722.2"/>
<text text-anchor="start" x="1880" y="-707.8" font-family="Helvetica,sans-Serif" font-size="16.00" fill="#000000">user_id</text>
<polygon fill="#ffffff" stroke="transparent" points="1860,-683.2 1860,-705.2 2056,-705.2 2056,-683.2 1860,-683.2"/>
<polygon fill="none" stroke="#000000" points="1860,-683.2 1860,-705.2 2056,-705.2 2056,-683.2 1860,-683.2"/>
<text text-anchor="start" x="1880" y="-685.8" font-family="Helvetica,sans-Serif" font-size="16.00" fill="#000000">inserted_at</text>
<polygon fill="none" stroke="#000000" points="1860,-661.2 1860,-683.2 2056,-683.2 2056,-661.2 1860,-661.2"/>
<image xlink:href="../../images/foreignKeys.png" width="11px" height="12px" preserveAspectRatio="xMinYMin meet" x="1865" y="-678.2"/>
<text text-anchor="start" x="1880" y="-663.8" font-family="Helvetica,sans-Serif" font-size="16.00" fill="#000000">location_id</text>
<polygon fill="none" stroke="#000000" points="1860,-636.2 1860,-661.2 2056,-661.2 2056,-636.2 1860,-636.2"/>
<text text-anchor="start" x="1863" y="-643.8" font-family="Helvetica,sans-Serif" font-size="16.00" fill="#000000">...</text>
<polygon fill="#ffffff" stroke="transparent" points="1860,-611.2 1860,-636.2 1931,-636.2 1931,-611.2 1860,-611.2"/>
<polygon fill="none" stroke="#000000" points="1860,-611.2 1860,-636.2 1931,-636.2 1931,-611.2 1860,-611.2"/>
<text text-anchor="start" x="1863" y="-618.8" font-family="Helvetica,sans-Serif" font-size="16.00" fill="#000000">&lt; 3</text>
<polygon fill="#ffffff" stroke="transparent" points="1931,-611.2 1931,-636.2 2006,-636.2 2006,-611.2 1931,-611.2"/>
<polygon fill="none" stroke="#000000" points="1931,-611.2 1931,-636.2 2006,-636.2 2006,-611.2 1931,-611.2"/>
<text text-anchor="start" x="1955.888" y="-618.8" font-family="Helvetica,sans-Serif" font-size="16.00" fill="#000000">2 rows</text>
<polygon fill="#ffffff" stroke="transparent" points="2006,-611.2 2006,-636.2 2056,-636.2 2056,-611.2 2006,-611.2"/>
<polygon fill="none" stroke="#000000" points="2006,-611.2 2006,-636.2 2056,-636.2 2056,-611.2 2006,-611.2"/>
<text text-anchor="start" x="2030.3168" y="-618.8" font-family="Helvetica,sans-Serif" font-size="16.00" fill="#000000">1 &gt;</text>
</a>
</g>
</g>
<!-- journal_entry_types -->
<g id="node2" class="node">
<title>journal_entry_types</title>
<g id="a_node2"><a xlink:href="../../tables/journal_entry_types.html" xlink:title="journal_entry_types" target="_top">
<polygon fill="#ffffff" stroke="transparent" points="1472.5,-779.7 1472.5,-858.7 1686.5,-858.7 1686.5,-779.7 1472.5,-779.7"/>
<polygon fill="#f5f5f5" stroke="transparent" points="1472.5,-829.2 1472.5,-858.2 1686.5,-858.2 1686.5,-829.2 1472.5,-829.2"/>
<polygon fill="none" stroke="#000000" points="1472.5,-829.2 1472.5,-858.2 1686.5,-858.2 1686.5,-829.2 1472.5,-829.2"/>
<text text-anchor="start" x="1477.5" y="-836.3" font-family="Helvetica,sans-Serif" font-weight="bold" font-size="16.00" fill="#000000">journal_entry_types</text>
<text text-anchor="start" x="1638.2136" y="-838.8" font-family="Helvetica,sans-Serif" font-size="16.00" fill="#000000">[table]</text>
<polygon fill="none" stroke="#000000" points="1472.5,-804.2 1472.5,-829.2 1686.5,-829.2 1686.5,-804.2 1472.5,-804.2"/>
<text text-anchor="start" x="1475.5" y="-811.8" font-family="Helvetica,sans-Serif" font-size="16.00" fill="#000000">...</text>
<polygon fill="#ffffff" stroke="transparent" points="1472.5,-779.2 1472.5,-804.2 1545.5,-804.2 1545.5,-779.2 1472.5,-779.2"/>
<polygon fill="none" stroke="#000000" points="1472.5,-779.2 1472.5,-804.2 1545.5,-804.2 1545.5,-779.2 1472.5,-779.2"/>
<text text-anchor="start" x="1475.5" y="-786.8" font-family="Helvetica,sans-Serif" font-size="16.00" fill="#000000"> &#160;</text>
<polygon fill="#ffffff" stroke="transparent" points="1545.5,-779.2 1545.5,-804.2 1628.5,-804.2 1628.5,-779.2 1545.5,-779.2"/>
<polygon fill="none" stroke="#000000" points="1545.5,-779.2 1545.5,-804.2 1628.5,-804.2 1628.5,-779.2 1545.5,-779.2"/>
<text text-anchor="start" x="1578.388" y="-786.8" font-family="Helvetica,sans-Serif" font-size="16.00" fill="#000000">2 rows</text>
<polygon fill="#ffffff" stroke="transparent" points="1628.5,-779.2 1628.5,-804.2 1686.5,-804.2 1686.5,-779.2 1628.5,-779.2"/>
<polygon fill="none" stroke="#000000" points="1628.5,-779.2 1628.5,-804.2 1686.5,-804.2 1686.5,-779.2 1628.5,-779.2"/>
<text text-anchor="start" x="1660.8168" y="-786.8" font-family="Helvetica,sans-Serif" font-size="16.00" fill="#000000">1 &gt;</text>
</a>
</g>
</g>
<!-- journal_entries&#45;&gt;journal_entry_types -->
<g id="edge1" class="edge">
<title>journal_entries:w&#45;&gt;journal_entry_types:e</title>
<path fill="none" stroke="#000000" d="M1845.5691,-761.9374C1800.5581,-771.3896 1722.7412,-816.2 1686.5,-816.2"/>
<polygon fill="#000000" stroke="#000000" points="1852.0574,-761.1563 1860.4303,-763.7742 1856.0287,-760.6781 1860,-760.2 1860,-760.2 1860,-760.2 1856.0287,-760.6781 1859.5697,-756.6258 1852.0574,-761.1563 1852.0574,-761.1563"/>
<ellipse fill="none" stroke="#000000" cx="1848.8803" cy="-761.5388" rx="3.2" ry="3.2"/>
</g>
<!-- locations_cities -->
<g id="node3" class="node">
<title>locations_cities</title>
<g id="a_node3"><a xlink:href="../../tables/locations_cities.html" xlink:title="locations_cities" target="_top">
<polygon fill="#ffffff" stroke="transparent" points="1348,-50.2 1348,-658.2 1811,-658.2 1811,-50.2 1348,-50.2"/>
<polygon fill="#f5f5f5" stroke="transparent" points="1350.5,-627.2 1350.5,-656.2 1809.5,-656.2 1809.5,-627.2 1350.5,-627.2"/>
<polygon fill="none" stroke="#000000" points="1350.5,-627.2 1350.5,-656.2 1809.5,-656.2 1809.5,-627.2 1350.5,-627.2"/>
<text text-anchor="start" x="1355.5" y="-634.3" font-family="Helvetica,sans-Serif" font-weight="bold" font-size="16.00" fill="#000000">locations_cities</text>
<text text-anchor="start" x="1760.9272" y="-636.8" font-family="Helvetica,sans-Serif" font-size="16.00" fill="#000000">[table]</text>
<polygon fill="none" stroke="#000000" points="1350.5,-602.2 1350.5,-627.2 1627.5,-627.2 1627.5,-602.2 1350.5,-602.2"/>
<image xlink:href="../../images/primaryKeys.png" width="11px" height="12px" preserveAspectRatio="xMinYMin meet" x="1355.5" y="-620.7"/>
<text text-anchor="start" x="1370.5" y="-606.3" font-family="Helvetica,sans-Serif" font-size="16.00" fill="#000000">id</text>
<polygon fill="none" stroke="#000000" points="1627.5,-602.2 1627.5,-627.2 1809.5,-627.2 1809.5,-602.2 1627.5,-602.2"/>
<text text-anchor="start" x="1630.5" y="-609.8" font-family="Helvetica,sans-Serif" font-size="16.00" fill="#000000">text[2000000000]</text>
<polygon fill="#ffffff" stroke="transparent" points="1350.5,-577.2 1350.5,-602.2 1627.5,-602.2 1627.5,-577.2 1350.5,-577.2"/>
<polygon fill="none" stroke="#000000" points="1350.5,-577.2 1350.5,-602.2 1627.5,-602.2 1627.5,-577.2 1350.5,-577.2"/>
<text text-anchor="start" x="1370.5" y="-581.3" font-family="Helvetica,sans-Serif" font-size="16.00" fill="#000000">geoname_id</text>
<polygon fill="none" stroke="#000000" points="1627.5,-577.2 1627.5,-602.2 1809.5,-602.2 1809.5,-577.2 1627.5,-577.2"/>
<text text-anchor="start" x="1630.5" y="-584.8" font-family="Helvetica,sans-Serif" font-size="16.00" fill="#000000">integer[2000000000]</text>
<polygon fill="#ffffff" stroke="transparent" points="1350.5,-552.2 1350.5,-577.2 1627.5,-577.2 1627.5,-552.2 1350.5,-552.2"/>
<polygon fill="none" stroke="#000000" points="1350.5,-552.2 1350.5,-577.2 1627.5,-577.2 1627.5,-552.2 1350.5,-552.2"/>
<text text-anchor="start" x="1370.5" y="-556.3" font-family="Helvetica,sans-Serif" font-size="16.00" fill="#000000">name</text>
<polygon fill="none" stroke="#000000" points="1627.5,-552.2 1627.5,-577.2 1809.5,-577.2 1809.5,-552.2 1627.5,-552.2"/>
<text text-anchor="start" x="1630.5" y="-559.8" font-family="Helvetica,sans-Serif" font-size="16.00" fill="#000000">text[2000000000]</text>
<polygon fill="none" stroke="#000000" points="1350.5,-527.2 1350.5,-552.2 1627.5,-552.2 1627.5,-527.2 1350.5,-527.2"/>
<text text-anchor="start" x="1370.5" y="-531.3" font-family="Helvetica,sans-Serif" font-size="16.00" fill="#000000">ascii_name</text>
<polygon fill="none" stroke="#000000" points="1627.5,-527.2 1627.5,-552.2 1809.5,-552.2 1809.5,-527.2 1627.5,-527.2"/>
<text text-anchor="start" x="1630.5" y="-534.8" font-family="Helvetica,sans-Serif" font-size="16.00" fill="#000000">text[2000000000]</text>
<polygon fill="none" stroke="#000000" points="1350.5,-502.2 1350.5,-527.2 1627.5,-527.2 1627.5,-502.2 1350.5,-502.2"/>
<text text-anchor="start" x="1370.5" y="-506.3" font-family="Helvetica,sans-Serif" font-size="16.00" fill="#000000">alternate_names</text>
<polygon fill="none" stroke="#000000" points="1627.5,-502.2 1627.5,-527.2 1809.5,-527.2 1809.5,-502.2 1627.5,-502.2"/>
<text text-anchor="start" x="1630.5" y="-509.8" font-family="Helvetica,sans-Serif" font-size="16.00" fill="#000000">text[2000000000]</text>
<polygon fill="#ffffff" stroke="transparent" points="1350.5,-477.2 1350.5,-502.2 1627.5,-502.2 1627.5,-477.2 1350.5,-477.2"/>
<polygon fill="none" stroke="#000000" points="1350.5,-477.2 1350.5,-502.2 1627.5,-502.2 1627.5,-477.2 1350.5,-477.2"/>
<text text-anchor="start" x="1370.5" y="-481.3" font-family="Helvetica,sans-Serif" font-size="16.00" fill="#000000">latitude</text>
<polygon fill="none" stroke="#000000" points="1627.5,-477.2 1627.5,-502.2 1809.5,-502.2 1809.5,-477.2 1627.5,-477.2"/>
<text text-anchor="start" x="1630.0208" y="-484.8" font-family="Helvetica,sans-Serif" font-size="16.00" fill="#000000">numeric[2000000000,10]</text>
<polygon fill="#ffffff" stroke="transparent" points="1350.5,-452.2 1350.5,-477.2 1627.5,-477.2 1627.5,-452.2 1350.5,-452.2"/>
<polygon fill="none" stroke="#000000" points="1350.5,-452.2 1350.5,-477.2 1627.5,-477.2 1627.5,-452.2 1350.5,-452.2"/>
<text text-anchor="start" x="1370.5" y="-456.3" font-family="Helvetica,sans-Serif" font-size="16.00" fill="#000000">longitude</text>
<polygon fill="none" stroke="#000000" points="1627.5,-452.2 1627.5,-477.2 1809.5,-477.2 1809.5,-452.2 1627.5,-452.2"/>
<text text-anchor="start" x="1630.0208" y="-459.8" font-family="Helvetica,sans-Serif" font-size="16.00" fill="#000000">numeric[2000000000,10]</text>
<polygon fill="none" stroke="#000000" points="1350.5,-427.2 1350.5,-452.2 1627.5,-452.2 1627.5,-427.2 1350.5,-427.2"/>
<image xlink:href="../../images/foreignKeys.png" width="11px" height="12px" preserveAspectRatio="xMinYMin meet" x="1355.5" y="-445.7"/>
<text text-anchor="start" x="1370.5" y="-431.3" font-family="Helvetica,sans-Serif" font-size="16.00" fill="#000000">feature_class</text>
<polygon fill="none" stroke="#000000" points="1627.5,-427.2 1627.5,-452.2 1809.5,-452.2 1809.5,-427.2 1627.5,-427.2"/>
<text text-anchor="start" x="1630.5" y="-434.8" font-family="Helvetica,sans-Serif" font-size="16.00" fill="#000000">text[2000000000]</text>
<polygon fill="#ffffff" stroke="transparent" points="1350.5,-402.2 1350.5,-427.2 1627.5,-427.2 1627.5,-402.2 1350.5,-402.2"/>
<polygon fill="none" stroke="#000000" points="1350.5,-402.2 1350.5,-427.2 1627.5,-427.2 1627.5,-402.2 1350.5,-402.2"/>
<image xlink:href="../../images/foreignKeys.png" width="11px" height="12px" preserveAspectRatio="xMinYMin meet" x="1355.5" y="-420.7"/>
<text text-anchor="start" x="1370.5" y="-406.3" font-family="Helvetica,sans-Serif" font-size="16.00" fill="#000000">feature_code</text>
<polygon fill="none" stroke="#000000" points="1627.5,-402.2 1627.5,-427.2 1809.5,-427.2 1809.5,-402.2 1627.5,-402.2"/>
<text text-anchor="start" x="1630.5" y="-409.8" font-family="Helvetica,sans-Serif" font-size="16.00" fill="#000000">text[2000000000]</text>
<polygon fill="#ffffff" stroke="transparent" points="1350.5,-377.2 1350.5,-402.2 1627.5,-402.2 1627.5,-377.2 1350.5,-377.2"/>
<polygon fill="none" stroke="#000000" points="1350.5,-377.2 1350.5,-402.2 1627.5,-402.2 1627.5,-377.2 1350.5,-377.2"/>
<image xlink:href="../../images/foreignKeys.png" width="11px" height="12px" preserveAspectRatio="xMinYMin meet" x="1355.5" y="-395.7"/>
<text text-anchor="start" x="1370.5" y="-381.3" font-family="Helvetica,sans-Serif" font-size="16.00" fill="#000000">country_code</text>
<polygon fill="none" stroke="#000000" points="1627.5,-377.2 1627.5,-402.2 1809.5,-402.2 1809.5,-377.2 1627.5,-377.2"/>
<text text-anchor="start" x="1630.5" y="-384.8" font-family="Helvetica,sans-Serif" font-size="16.00" fill="#000000">text[2000000000]</text>
<polygon fill="none" stroke="#000000" points="1350.5,-352.2 1350.5,-377.2 1627.5,-377.2 1627.5,-352.2 1350.5,-352.2"/>
<text text-anchor="start" x="1370.5" y="-356.3" font-family="Helvetica,sans-Serif" font-size="16.00" fill="#000000">cc2</text>
<polygon fill="none" stroke="#000000" points="1627.5,-352.2 1627.5,-377.2 1809.5,-377.2 1809.5,-352.2 1627.5,-352.2"/>
<text text-anchor="start" x="1630.5" y="-359.8" font-family="Helvetica,sans-Serif" font-size="16.00" fill="#000000">text[2000000000]</text>
<polygon fill="#ffffff" stroke="transparent" points="1350.5,-327.2 1350.5,-352.2 1627.5,-352.2 1627.5,-327.2 1350.5,-327.2"/>
<polygon fill="none" stroke="#000000" points="1350.5,-327.2 1350.5,-352.2 1627.5,-352.2 1627.5,-327.2 1350.5,-327.2"/>
<image xlink:href="../../images/foreignKeys.png" width="11px" height="12px" preserveAspectRatio="xMinYMin meet" x="1355.5" y="-345.7"/>
<text text-anchor="start" x="1370.5" y="-331.3" font-family="Helvetica,sans-Serif" font-size="16.00" fill="#000000">administrative_division_1_code</text>
<polygon fill="none" stroke="#000000" points="1627.5,-327.2 1627.5,-352.2 1809.5,-352.2 1809.5,-327.2 1627.5,-327.2"/>
<text text-anchor="start" x="1630.5" y="-334.8" font-family="Helvetica,sans-Serif" font-size="16.00" fill="#000000">text[2000000000]</text>
<polygon fill="#ffffff" stroke="transparent" points="1350.5,-302.2 1350.5,-327.2 1627.5,-327.2 1627.5,-302.2 1350.5,-302.2"/>
<polygon fill="none" stroke="#000000" points="1350.5,-302.2 1350.5,-327.2 1627.5,-327.2 1627.5,-302.2 1350.5,-302.2"/>
<image xlink:href="../../images/foreignKeys.png" width="11px" height="12px" preserveAspectRatio="xMinYMin meet" x="1355.5" y="-320.7"/>
<text text-anchor="start" x="1370.5" y="-306.3" font-family="Helvetica,sans-Serif" font-size="16.00" fill="#000000">administrative_division_2_code</text>
<polygon fill="none" stroke="#000000" points="1627.5,-302.2 1627.5,-327.2 1809.5,-327.2 1809.5,-302.2 1627.5,-302.2"/>
<text text-anchor="start" x="1630.5" y="-309.8" font-family="Helvetica,sans-Serif" font-size="16.00" fill="#000000">text[2000000000]</text>
<polygon fill="none" stroke="#000000" points="1350.5,-277.2 1350.5,-302.2 1627.5,-302.2 1627.5,-277.2 1350.5,-277.2"/>
<text text-anchor="start" x="1370.5" y="-281.3" font-family="Helvetica,sans-Serif" font-size="16.00" fill="#000000">administrative_division_3_code</text>
<polygon fill="none" stroke="#000000" points="1627.5,-277.2 1627.5,-302.2 1809.5,-302.2 1809.5,-277.2 1627.5,-277.2"/>
<text text-anchor="start" x="1630.5" y="-284.8" font-family="Helvetica,sans-Serif" font-size="16.00" fill="#000000">text[2000000000]</text>
<polygon fill="none" stroke="#000000" points="1350.5,-252.2 1350.5,-277.2 1627.5,-277.2 1627.5,-252.2 1350.5,-252.2"/>
<text text-anchor="start" x="1370.5" y="-256.3" font-family="Helvetica,sans-Serif" font-size="16.00" fill="#000000">administrative_division_4_code</text>
<polygon fill="none" stroke="#000000" points="1627.5,-252.2 1627.5,-277.2 1809.5,-277.2 1809.5,-252.2 1627.5,-252.2"/>
<text text-anchor="start" x="1630.5" y="-259.8" font-family="Helvetica,sans-Serif" font-size="16.00" fill="#000000">text[2000000000]</text>
<polygon fill="#ffffff" stroke="transparent" points="1350.5,-227.2 1350.5,-252.2 1627.5,-252.2 1627.5,-227.2 1350.5,-227.2"/>
<polygon fill="none" stroke="#000000" points="1350.5,-227.2 1350.5,-252.2 1627.5,-252.2 1627.5,-227.2 1350.5,-227.2"/>
<text text-anchor="start" x="1370.5" y="-231.3" font-family="Helvetica,sans-Serif" font-size="16.00" fill="#000000">population</text>
<polygon fill="none" stroke="#000000" points="1627.5,-227.2 1627.5,-252.2 1809.5,-252.2 1809.5,-227.2 1627.5,-227.2"/>
<text text-anchor="start" x="1630.5" y="-234.8" font-family="Helvetica,sans-Serif" font-size="16.00" fill="#000000">integer[2000000000]</text>
<polygon fill="none" stroke="#000000" points="1350.5,-202.2 1350.5,-227.2 1627.5,-227.2 1627.5,-202.2 1350.5,-202.2"/>
<text text-anchor="start" x="1370.5" y="-206.3" font-family="Helvetica,sans-Serif" font-size="16.00" fill="#000000">elevation</text>
<polygon fill="none" stroke="#000000" points="1627.5,-202.2 1627.5,-227.2 1809.5,-227.2 1809.5,-202.2 1627.5,-202.2"/>
<text text-anchor="start" x="1630.5" y="-209.8" font-family="Helvetica,sans-Serif" font-size="16.00" fill="#000000">integer[2000000000]</text>
<polygon fill="none" stroke="#000000" points="1350.5,-177.2 1350.5,-202.2 1627.5,-202.2 1627.5,-177.2 1350.5,-177.2"/>
<text text-anchor="start" x="1370.5" y="-181.3" font-family="Helvetica,sans-Serif" font-size="16.00" fill="#000000">dem</text>
<polygon fill="none" stroke="#000000" points="1627.5,-177.2 1627.5,-202.2 1809.5,-202.2 1809.5,-177.2 1627.5,-177.2"/>
<text text-anchor="start" x="1630.5" y="-184.8" font-family="Helvetica,sans-Serif" font-size="16.00" fill="#000000">integer[2000000000]</text>
<polygon fill="#ffffff" stroke="transparent" points="1350.5,-152.2 1350.5,-177.2 1627.5,-177.2 1627.5,-152.2 1350.5,-152.2"/>
<polygon fill="none" stroke="#000000" points="1350.5,-152.2 1350.5,-177.2 1627.5,-177.2 1627.5,-152.2 1350.5,-152.2"/>
<text text-anchor="start" x="1370.5" y="-156.3" font-family="Helvetica,sans-Serif" font-size="16.00" fill="#000000">timezone</text>
<polygon fill="none" stroke="#000000" points="1627.5,-152.2 1627.5,-177.2 1809.5,-177.2 1809.5,-152.2 1627.5,-152.2"/>
<text text-anchor="start" x="1630.5" y="-159.8" font-family="Helvetica,sans-Serif" font-size="16.00" fill="#000000">text[2000000000]</text>
<polygon fill="none" stroke="#000000" points="1350.5,-127.2 1350.5,-152.2 1627.5,-152.2 1627.5,-127.2 1350.5,-127.2"/>
<text text-anchor="start" x="1370.5" y="-131.3" font-family="Helvetica,sans-Serif" font-size="16.00" fill="#000000">modification_date</text>
<polygon fill="none" stroke="#000000" points="1627.5,-127.2 1627.5,-152.2 1809.5,-152.2 1809.5,-127.2 1627.5,-127.2"/>
<text text-anchor="start" x="1630.5" y="-134.8" font-family="Helvetica,sans-Serif" font-size="16.00" fill="#000000">text[2000000000]</text>
<polygon fill="none" stroke="#000000" points="1350.5,-102.2 1350.5,-127.2 1627.5,-127.2 1627.5,-102.2 1350.5,-102.2"/>
<text text-anchor="start" x="1370.5" y="-106.3" font-family="Helvetica,sans-Serif" font-size="16.00" fill="#000000">inserted_at</text>
<polygon fill="none" stroke="#000000" points="1627.5,-102.2 1627.5,-127.2 1809.5,-127.2 1809.5,-102.2 1627.5,-102.2"/>
<text text-anchor="start" x="1630.5" y="-109.8" font-family="Helvetica,sans-Serif" font-size="16.00" fill="#000000">text[2000000000]</text>
<polygon fill="none" stroke="#000000" points="1350.5,-77.2 1350.5,-102.2 1627.5,-102.2 1627.5,-77.2 1350.5,-77.2"/>
<text text-anchor="start" x="1370.5" y="-81.3" font-family="Helvetica,sans-Serif" font-size="16.00" fill="#000000">updated_at</text>
<polygon fill="none" stroke="#000000" points="1627.5,-77.2 1627.5,-102.2 1809.5,-102.2 1809.5,-77.2 1627.5,-77.2"/>
<text text-anchor="start" x="1630.5" y="-84.8" font-family="Helvetica,sans-Serif" font-size="16.00" fill="#000000">text[2000000000]</text>
<polygon fill="#ffffff" stroke="transparent" points="1350.5,-52.2 1350.5,-77.2 1451.5,-77.2 1451.5,-52.2 1350.5,-52.2"/>
<polygon fill="none" stroke="#000000" points="1350.5,-52.2 1350.5,-77.2 1451.5,-77.2 1451.5,-52.2 1350.5,-52.2"/>
<text text-anchor="start" x="1353.5" y="-59.8" font-family="Helvetica,sans-Serif" font-size="16.00" fill="#000000">&lt; 5</text>
<polygon fill="#ffffff" stroke="transparent" points="1451.5,-52.2 1451.5,-77.2 1627.5,-77.2 1627.5,-52.2 1451.5,-52.2"/>
<polygon fill="none" stroke="#000000" points="1451.5,-52.2 1451.5,-77.2 1627.5,-77.2 1627.5,-52.2 1451.5,-52.2"/>
<text text-anchor="start" x="1528.4696" y="-59.8" font-family="Helvetica,sans-Serif" font-size="16.00" fill="#000000">210,698 rows</text>
<polygon fill="#ffffff" stroke="transparent" points="1627.5,-52.2 1627.5,-77.2 1809.5,-77.2 1809.5,-52.2 1627.5,-52.2"/>
<polygon fill="none" stroke="#000000" points="1627.5,-52.2 1627.5,-77.2 1809.5,-77.2 1809.5,-52.2 1627.5,-52.2"/>
<text text-anchor="start" x="1783.8168" y="-59.8" font-family="Helvetica,sans-Serif" font-size="16.00" fill="#000000">1 &gt;</text>
<polygon fill="none" stroke="#000000" stroke-width="2" points="1349,-51.2 1349,-657.2 1810,-657.2 1810,-51.2 1349,-51.2"/>
</a>
</g>
</g>
<!-- journal_entries&#45;&gt;locations_cities -->
<g id="edge2" class="edge">
<title>journal_entries:w&#45;&gt;locations_cities:e</title>
<path fill="none" stroke="#000000" d="M1846.1064,-667.3402C1830.6846,-653.556 1837.264,-615.2 1809.5,-615.2"/>
<polygon fill="#000000" stroke="#000000" points="1852.4486,-669.5586 1858.8114,-675.5981 1856.2243,-670.8793 1860,-672.2 1860,-672.2 1860,-672.2 1856.2243,-670.8793 1861.1886,-668.8019 1852.4486,-669.5586 1852.4486,-669.5586"/>
<ellipse fill="none" stroke="#000000" cx="1849.4281" cy="-668.502" rx="3.2" ry="3.2"/>
</g>
<!-- users -->
<g id="node4" class="node">
<title>users</title>
<g id="a_node4"><a xlink:href="../../tables/users.html" xlink:title="users" target="_top">
<polygon fill="#ffffff" stroke="transparent" points="1530.5,-679.7 1530.5,-758.7 1628.5,-758.7 1628.5,-679.7 1530.5,-679.7"/>
<polygon fill="#f5f5f5" stroke="transparent" points="1530.5,-729.2 1530.5,-758.2 1628.5,-758.2 1628.5,-729.2 1530.5,-729.2"/>
<polygon fill="none" stroke="#000000" points="1530.5,-729.2 1530.5,-758.2 1628.5,-758.2 1628.5,-729.2 1530.5,-729.2"/>
<text text-anchor="start" x="1535.5" y="-736.3" font-family="Helvetica,sans-Serif" font-weight="bold" font-size="16.00" fill="#000000">users</text>
<text text-anchor="start" x="1580.2136" y="-738.8" font-family="Helvetica,sans-Serif" font-size="16.00" fill="#000000">[table]</text>
<polygon fill="none" stroke="#000000" points="1530.5,-704.2 1530.5,-729.2 1628.5,-729.2 1628.5,-704.2 1530.5,-704.2"/>
<text text-anchor="start" x="1533.5" y="-711.8" font-family="Helvetica,sans-Serif" font-size="16.00" fill="#000000">...</text>
<polygon fill="#ffffff" stroke="transparent" points="1530.5,-679.2 1530.5,-704.2 1545.5,-704.2 1545.5,-679.2 1530.5,-679.2"/>
<polygon fill="none" stroke="#000000" points="1530.5,-679.2 1530.5,-704.2 1545.5,-704.2 1545.5,-679.2 1530.5,-679.2"/>
<text text-anchor="start" x="1533.5" y="-686.8" font-family="Helvetica,sans-Serif" font-size="16.00" fill="#000000"> &#160;</text>
<polygon fill="#ffffff" stroke="transparent" points="1545.5,-679.2 1545.5,-704.2 1599.5,-704.2 1599.5,-679.2 1545.5,-679.2"/>
<polygon fill="none" stroke="#000000" points="1545.5,-679.2 1545.5,-704.2 1599.5,-704.2 1599.5,-679.2 1545.5,-679.2"/>
<text text-anchor="start" x="1549.388" y="-686.8" font-family="Helvetica,sans-Serif" font-size="16.00" fill="#000000">0 rows</text>
<polygon fill="#ffffff" stroke="transparent" points="1599.5,-679.2 1599.5,-704.2 1628.5,-704.2 1628.5,-679.2 1599.5,-679.2"/>
<polygon fill="none" stroke="#000000" points="1599.5,-679.2 1599.5,-704.2 1628.5,-704.2 1628.5,-679.2 1599.5,-679.2"/>
<text text-anchor="start" x="1602.8168" y="-686.8" font-family="Helvetica,sans-Serif" font-size="16.00" fill="#000000">1 &gt;</text>
</a>
</g>
</g>
<!-- journal_entries&#45;&gt;users -->
<g id="edge3" class="edge">
<title>journal_entries:w&#45;&gt;users:e</title>
<path fill="none" stroke="#000000" d="M1845.4624,-716.2C1754.4152,-716.2 1726.365,-716.2 1628.5,-716.2"/>
<polygon fill="#000000" stroke="#000000" points="1852,-716.2001 1860,-719.8 1856,-716.2 1860,-716.2 1860,-716.2 1860,-716.2 1856,-716.2 1860,-712.6 1852,-716.2001 1852,-716.2001"/>
<ellipse fill="none" stroke="#000000" cx="1848.8" cy="-716.2001" rx="3.2" ry="3.2"/>
</g>
<!-- locations_administrative_divisions_1 -->
<g id="node6" class="node">
<title>locations_administrative_divisions_1</title>
<g id="a_node6"><a xlink:href="../../tables/locations_administrative_divisions_1.html" xlink:title="locations_administrative_divisions_1" target="_top">
<polygon fill="#ffffff" stroke="transparent" points="542,-274.7 542,-353.7 896,-353.7 896,-274.7 542,-274.7"/>
<polygon fill="#f5f5f5" stroke="transparent" points="542,-324.2 542,-353.2 896,-353.2 896,-324.2 542,-324.2"/>
<polygon fill="none" stroke="#000000" points="542,-324.2 542,-353.2 896,-353.2 896,-324.2 542,-324.2"/>
<text text-anchor="start" x="547" y="-331.3" font-family="Helvetica,sans-Serif" font-weight="bold" font-size="16.00" fill="#000000">locations_administrative_divisions_1</text>
<text text-anchor="start" x="847.7136" y="-333.8" font-family="Helvetica,sans-Serif" font-size="16.00" fill="#000000">[table]</text>
<polygon fill="none" stroke="#000000" points="542,-299.2 542,-324.2 896,-324.2 896,-299.2 542,-299.2"/>
<text text-anchor="start" x="545" y="-306.8" font-family="Helvetica,sans-Serif" font-size="16.00" fill="#000000">...</text>
<polygon fill="#ffffff" stroke="transparent" points="542,-274.2 542,-299.2 677,-299.2 677,-274.2 542,-274.2"/>
<polygon fill="none" stroke="#000000" points="542,-274.2 542,-299.2 677,-299.2 677,-274.2 542,-274.2"/>
<text text-anchor="start" x="545" y="-281.8" font-family="Helvetica,sans-Serif" font-size="16.00" fill="#000000">&lt; 1</text>
<polygon fill="#ffffff" stroke="transparent" points="677,-274.2 677,-299.2 814,-299.2 814,-274.2 677,-274.2"/>
<polygon fill="none" stroke="#000000" points="677,-274.2 677,-299.2 814,-299.2 814,-274.2 677,-274.2"/>
<text text-anchor="start" x="732.7584" y="-281.8" font-family="Helvetica,sans-Serif" font-size="16.00" fill="#000000">3,893 rows</text>
<polygon fill="#ffffff" stroke="transparent" points="814,-274.2 814,-299.2 896,-299.2 896,-274.2 814,-274.2"/>
<polygon fill="none" stroke="#000000" points="814,-274.2 814,-299.2 896,-299.2 896,-274.2 814,-274.2"/>
<text text-anchor="start" x="870.3168" y="-281.8" font-family="Helvetica,sans-Serif" font-size="16.00" fill="#000000">2 &gt;</text>
</a>
</g>
</g>
<!-- locations_cities&#45;&gt;locations_administrative_divisions_1 -->
<g id="edge8" class="edge">
<title>locations_cities:w&#45;&gt;locations_administrative_divisions_1:e</title>
<path fill="none" stroke="#000000" d="M1335.9072,-339.1779C1189.2524,-338.7391 1025.8392,-331.8257 904.061,-325.3838"/>
<polygon fill="#000000" stroke="#000000" points="1342.5,-339.1879 1350.4945,-342.8 1346.5,-339.1939 1350.5,-339.2 1350.5,-339.2 1350.5,-339.2 1346.5,-339.1939 1350.5055,-335.6 1342.5,-339.1879 1342.5,-339.1879"/>
<ellipse fill="none" stroke="#000000" cx="1339.3" cy="-339.183" rx="3.2" ry="3.2"/>
</g>
<!-- locations_countries -->
<g id="node7" class="node">
<title>locations_countries</title>
<g id="a_node7"><a xlink:href="../../tables/locations_countries.html" xlink:title="locations_countries" target="_top">
<polygon fill="#ffffff" stroke="transparent" points="280,-274.7 280,-353.7 493,-353.7 493,-274.7 280,-274.7"/>
<polygon fill="#f5f5f5" stroke="transparent" points="280.5,-324.2 280.5,-353.2 493.5,-353.2 493.5,-324.2 280.5,-324.2"/>
<polygon fill="none" stroke="#000000" points="280.5,-324.2 280.5,-353.2 493.5,-353.2 493.5,-324.2 280.5,-324.2"/>
<text text-anchor="start" x="285.5" y="-331.3" font-family="Helvetica,sans-Serif" font-weight="bold" font-size="16.00" fill="#000000">locations_countries</text>
<text text-anchor="start" x="445.2136" y="-333.8" font-family="Helvetica,sans-Serif" font-size="16.00" fill="#000000">[table]</text>
<polygon fill="none" stroke="#000000" points="280.5,-299.2 280.5,-324.2 493.5,-324.2 493.5,-299.2 280.5,-299.2"/>
<text text-anchor="start" x="283.5" y="-306.8" font-family="Helvetica,sans-Serif" font-size="16.00" fill="#000000">...</text>
<polygon fill="#ffffff" stroke="transparent" points="280.5,-274.2 280.5,-299.2 351.5,-299.2 351.5,-274.2 280.5,-274.2"/>
<polygon fill="none" stroke="#000000" points="280.5,-274.2 280.5,-299.2 351.5,-299.2 351.5,-274.2 280.5,-274.2"/>
<text text-anchor="start" x="283.5" y="-281.8" font-family="Helvetica,sans-Serif" font-size="16.00" fill="#000000">&lt; 1</text>
<polygon fill="#ffffff" stroke="transparent" points="351.5,-274.2 351.5,-299.2 443.5,-299.2 443.5,-274.2 351.5,-274.2"/>
<polygon fill="none" stroke="#000000" points="351.5,-274.2 351.5,-299.2 443.5,-299.2 443.5,-274.2 351.5,-274.2"/>
<text text-anchor="start" x="375.5992" y="-281.8" font-family="Helvetica,sans-Serif" font-size="16.00" fill="#000000">252 rows</text>
<polygon fill="#ffffff" stroke="transparent" points="443.5,-274.2 443.5,-299.2 493.5,-299.2 493.5,-274.2 443.5,-274.2"/>
<polygon fill="none" stroke="#000000" points="443.5,-274.2 443.5,-299.2 493.5,-299.2 493.5,-274.2 443.5,-274.2"/>
<text text-anchor="start" x="467.8168" y="-281.8" font-family="Helvetica,sans-Serif" font-size="16.00" fill="#000000">3 &gt;</text>
</a>
</g>
</g>
<!-- locations_cities&#45;&gt;locations_countries -->
<g id="edge10" class="edge">
<title>locations_cities:w&#45;&gt;locations_countries:e</title>
<path fill="none" stroke="#000000" d="M1335.8636,-390.212C1145.5305,-390.5043 708.0026,-395.7427 534,-364.2 523.2248,-362.2467 512.1674,-359.66 501.1865,-356.6893"/>
<polygon fill="#000000" stroke="#000000" points="1342.5,-390.2066 1350.503,-393.8 1346.5,-390.2033 1350.5,-390.2 1350.5,-390.2 1350.5,-390.2 1346.5,-390.2033 1350.497,-386.6 1342.5,-390.2066 1342.5,-390.2066"/>
<ellipse fill="none" stroke="#000000" cx="1339.3" cy="-390.2093" rx="3.2" ry="3.2"/>
</g>
<!-- locations_administrative_divisions_2 -->
<g id="node8" class="node">
<title>locations_administrative_divisions_2</title>
<g id="a_node8"><a xlink:href="../../tables/locations_administrative_divisions_2.html" xlink:title="locations_administrative_divisions_2" target="_top">
<polygon fill="#ffffff" stroke="transparent" points="945,-235.7 945,-314.7 1299,-314.7 1299,-235.7 945,-235.7"/>
<polygon fill="#f5f5f5" stroke="transparent" points="945,-285.2 945,-314.2 1299,-314.2 1299,-285.2 945,-285.2"/>
<polygon fill="none" stroke="#000000" points="945,-285.2 945,-314.2 1299,-314.2 1299,-285.2 945,-285.2"/>
<text text-anchor="start" x="950" y="-292.3" font-family="Helvetica,sans-Serif" font-weight="bold" font-size="16.00" fill="#000000">locations_administrative_divisions_2</text>
<text text-anchor="start" x="1250.7136" y="-294.8" font-family="Helvetica,sans-Serif" font-size="16.00" fill="#000000">[table]</text>
<polygon fill="none" stroke="#000000" points="945,-260.2 945,-285.2 1299,-285.2 1299,-260.2 945,-260.2"/>
<text text-anchor="start" x="948" y="-267.8" font-family="Helvetica,sans-Serif" font-size="16.00" fill="#000000">...</text>
<polygon fill="#ffffff" stroke="transparent" points="945,-235.2 945,-260.2 1075,-260.2 1075,-235.2 945,-235.2"/>
<polygon fill="none" stroke="#000000" points="945,-235.2 945,-260.2 1075,-260.2 1075,-235.2 945,-235.2"/>
<text text-anchor="start" x="948" y="-242.8" font-family="Helvetica,sans-Serif" font-size="16.00" fill="#000000">&lt; 2</text>
<polygon fill="#ffffff" stroke="transparent" points="1075,-235.2 1075,-260.2 1219,-260.2 1219,-235.2 1075,-235.2"/>
<polygon fill="none" stroke="#000000" points="1075,-235.2 1075,-260.2 1219,-260.2 1219,-235.2 1075,-235.2"/>
<text text-anchor="start" x="1128.864" y="-242.8" font-family="Helvetica,sans-Serif" font-size="16.00" fill="#000000">47,229 rows</text>
<polygon fill="#ffffff" stroke="transparent" points="1219,-235.2 1219,-260.2 1299,-260.2 1299,-235.2 1219,-235.2"/>
<polygon fill="none" stroke="#000000" points="1219,-235.2 1219,-260.2 1299,-260.2 1299,-235.2 1219,-235.2"/>
<text text-anchor="start" x="1273.3168" y="-242.8" font-family="Helvetica,sans-Serif" font-size="16.00" fill="#000000">1 &gt;</text>
</a>
</g>
</g>
<!-- locations_cities&#45;&gt;locations_administrative_divisions_2 -->
<g id="edge9" class="edge">
<title>locations_cities:w&#45;&gt;locations_administrative_divisions_2:e</title>
<path fill="none" stroke="#000000" stroke-dasharray="5,2" d="M1336.0738,-313.9574C1326.4924,-313.6427 1316.7806,-313.0322 1307.0513,-312.1853"/>
<polygon fill="#000000" stroke="#000000" points="1342.5011,-314.0654 1350.4394,-317.7995 1346.5006,-314.1327 1350.5,-314.2 1350.5,-314.2 1350.5,-314.2 1346.5006,-314.1327 1350.5606,-310.6005 1342.5011,-314.0654 1342.5011,-314.0654"/>
<ellipse fill="none" stroke="#000000" cx="1339.3016" cy="-314.0116" rx="3.2" ry="3.2"/>
</g>
<!-- locations_feature_classes -->
<g id="node9" class="node">
<title>locations_feature_classes</title>
<g id="a_node9"><a xlink:href="../../tables/locations_feature_classes.html" xlink:title="locations_feature_classes" target="_top">
<polygon fill="#ffffff" stroke="transparent" points="587,-434.7 587,-513.7 851,-513.7 851,-434.7 587,-434.7"/>
<polygon fill="#f5f5f5" stroke="transparent" points="587,-484.2 587,-513.2 851,-513.2 851,-484.2 587,-484.2"/>
<polygon fill="none" stroke="#000000" points="587,-484.2 587,-513.2 851,-513.2 851,-484.2 587,-484.2"/>
<text text-anchor="start" x="592" y="-491.3" font-family="Helvetica,sans-Serif" font-weight="bold" font-size="16.00" fill="#000000">locations_feature_classes</text>
<text text-anchor="start" x="802.7136" y="-493.8" font-family="Helvetica,sans-Serif" font-size="16.00" fill="#000000">[table]</text>
<polygon fill="none" stroke="#000000" points="587,-459.2 587,-484.2 851,-484.2 851,-459.2 587,-459.2"/>
<text text-anchor="start" x="590" y="-466.8" font-family="Helvetica,sans-Serif" font-size="16.00" fill="#000000">...</text>
<polygon fill="#ffffff" stroke="transparent" points="587,-434.2 587,-459.2 685,-459.2 685,-434.2 587,-434.2"/>
<polygon fill="none" stroke="#000000" points="587,-434.2 587,-459.2 685,-459.2 685,-434.2 587,-434.2"/>
<text text-anchor="start" x="590" y="-441.8" font-family="Helvetica,sans-Serif" font-size="16.00" fill="#000000"> &#160;</text>
<polygon fill="#ffffff" stroke="transparent" points="685,-434.2 685,-459.2 780,-459.2 780,-434.2 685,-434.2"/>
<polygon fill="none" stroke="#000000" points="685,-434.2 685,-459.2 780,-459.2 780,-434.2 685,-434.2"/>
<text text-anchor="start" x="729.888" y="-441.8" font-family="Helvetica,sans-Serif" font-size="16.00" fill="#000000">9 rows</text>
<polygon fill="#ffffff" stroke="transparent" points="780,-434.2 780,-459.2 851,-459.2 851,-434.2 780,-434.2"/>
<polygon fill="none" stroke="#000000" points="780,-434.2 780,-459.2 851,-459.2 851,-434.2 780,-434.2"/>
<text text-anchor="start" x="825.3168" y="-441.8" font-family="Helvetica,sans-Serif" font-size="16.00" fill="#000000">2 &gt;</text>
</a>
</g>
</g>
<!-- locations_cities&#45;&gt;locations_feature_classes -->
<g id="edge11" class="edge">
<title>locations_cities:w&#45;&gt;locations_feature_classes:e</title>
<path fill="none" stroke="#000000" d="M1336.5135,-444.8217C1324.4109,-455.5779 1328.5404,-482.1358 1307,-492.2 1158.0151,-561.8093 1101.305,-498.9717 937,-492.2 911.7674,-491.1601 884.9336,-489.4458 859.0333,-487.4777"/>
<polygon fill="#000000" stroke="#000000" points="1342.904,-442.71 1351.6295,-443.6182 1346.702,-441.455 1350.5,-440.2 1350.5,-440.2 1350.5,-440.2 1346.702,-441.455 1349.3705,-436.7818 1342.904,-442.71 1342.904,-442.71"/>
<ellipse fill="none" stroke="#000000" cx="1339.8655" cy="-443.7141" rx="3.2" ry="3.2"/>
</g>
<!-- locations_feature_codes -->
<g id="node10" class="node">
<title>locations_feature_codes</title>
<g id="a_node10"><a xlink:href="../../tables/locations_feature_codes.html" xlink:title="locations_feature_codes" target="_top">
<polygon fill="#ffffff" stroke="transparent" points="996,-402.7 996,-481.7 1248,-481.7 1248,-402.7 996,-402.7"/>
<polygon fill="#f5f5f5" stroke="transparent" points="996,-452.2 996,-481.2 1248,-481.2 1248,-452.2 996,-452.2"/>
<polygon fill="none" stroke="#000000" points="996,-452.2 996,-481.2 1248,-481.2 1248,-452.2 996,-452.2"/>
<text text-anchor="start" x="1001" y="-459.3" font-family="Helvetica,sans-Serif" font-weight="bold" font-size="16.00" fill="#000000">locations_feature_codes</text>
<text text-anchor="start" x="1199.7136" y="-461.8" font-family="Helvetica,sans-Serif" font-size="16.00" fill="#000000">[table]</text>
<polygon fill="none" stroke="#000000" points="996,-427.2 996,-452.2 1248,-452.2 1248,-427.2 996,-427.2"/>
<text text-anchor="start" x="999" y="-434.8" font-family="Helvetica,sans-Serif" font-size="16.00" fill="#000000">...</text>
<polygon fill="#ffffff" stroke="transparent" points="996,-402.2 996,-427.2 1087,-427.2 1087,-402.2 996,-402.2"/>
<polygon fill="none" stroke="#000000" points="996,-402.2 996,-427.2 1087,-427.2 1087,-402.2 996,-402.2"/>
<text text-anchor="start" x="999" y="-409.8" font-family="Helvetica,sans-Serif" font-size="16.00" fill="#000000">&lt; 1</text>
<polygon fill="#ffffff" stroke="transparent" points="1087,-402.2 1087,-427.2 1188,-427.2 1188,-402.2 1087,-402.2"/>
<polygon fill="none" stroke="#000000" points="1087,-402.2 1087,-427.2 1188,-427.2 1188,-402.2 1087,-402.2"/>
<text text-anchor="start" x="1120.0992" y="-409.8" font-family="Helvetica,sans-Serif" font-size="16.00" fill="#000000">684 rows</text>
<polygon fill="#ffffff" stroke="transparent" points="1188,-402.2 1188,-427.2 1248,-427.2 1248,-402.2 1188,-402.2"/>
<polygon fill="none" stroke="#000000" points="1188,-402.2 1188,-427.2 1248,-427.2 1248,-402.2 1188,-402.2"/>
<text text-anchor="start" x="1222.3168" y="-409.8" font-family="Helvetica,sans-Serif" font-size="16.00" fill="#000000">1 &gt;</text>
</a>
</g>
</g>
<!-- locations_cities&#45;&gt;locations_feature_codes -->
<g id="edge12" class="edge">
<title>locations_cities:w&#45;&gt;locations_feature_codes:e</title>
<path fill="none" stroke="#000000" d="M1335.9864,-415.3722C1309.6333,-415.9821 1282.1963,-418.1579 1256.1069,-421.0254"/>
<polygon fill="#000000" stroke="#000000" points="1342.5006,-415.295 1350.5427,-418.7997 1346.5003,-415.2475 1350.5,-415.2 1350.5,-415.2 1350.5,-415.2 1346.5003,-415.2475 1350.4573,-411.6003 1342.5006,-415.295 1342.5006,-415.295"/>
<ellipse fill="none" stroke="#000000" cx="1339.3008" cy="-415.3329" rx="3.2" ry="3.2"/>
</g>
<!-- journal_entry_tags -->
<g id="node5" class="node">
<title>journal_entry_tags</title>
<g id="a_node5"><a xlink:href="../../tables/journal_entry_tags.html" xlink:title="journal_entry_tags" target="_top">
<polygon fill="#ffffff" stroke="transparent" points="2105,-767.7 2105,-846.7 2310,-846.7 2310,-767.7 2105,-767.7"/>
<polygon fill="#f5f5f5" stroke="transparent" points="2105.5,-817.2 2105.5,-846.2 2310.5,-846.2 2310.5,-817.2 2105.5,-817.2"/>
<polygon fill="none" stroke="#000000" points="2105.5,-817.2 2105.5,-846.2 2310.5,-846.2 2310.5,-817.2 2105.5,-817.2"/>
<text text-anchor="start" x="2110.5" y="-824.3" font-family="Helvetica,sans-Serif" font-weight="bold" font-size="16.00" fill="#000000">journal_entry_tags</text>
<text text-anchor="start" x="2262.2136" y="-826.8" font-family="Helvetica,sans-Serif" font-size="16.00" fill="#000000">[table]</text>
<polygon fill="none" stroke="#000000" points="2105.5,-792.2 2105.5,-817.2 2310.5,-817.2 2310.5,-792.2 2105.5,-792.2"/>
<text text-anchor="start" x="2108.5" y="-799.8" font-family="Helvetica,sans-Serif" font-size="16.00" fill="#000000">...</text>
<polygon fill="#ffffff" stroke="transparent" points="2105.5,-767.2 2105.5,-792.2 2188.5,-792.2 2188.5,-767.2 2105.5,-767.2"/>
<polygon fill="none" stroke="#000000" points="2105.5,-767.2 2105.5,-792.2 2188.5,-792.2 2188.5,-767.2 2105.5,-767.2"/>
<text text-anchor="start" x="2108.5" y="-774.8" font-family="Helvetica,sans-Serif" font-size="16.00" fill="#000000">&lt; 2</text>
<polygon fill="#ffffff" stroke="transparent" points="2188.5,-767.2 2188.5,-792.2 2268.5,-792.2 2268.5,-767.2 2188.5,-767.2"/>
<polygon fill="none" stroke="#000000" points="2188.5,-767.2 2188.5,-792.2 2268.5,-792.2 2268.5,-767.2 2188.5,-767.2"/>
<text text-anchor="start" x="2218.388" y="-774.8" font-family="Helvetica,sans-Serif" font-size="16.00" fill="#000000">2 rows</text>
<polygon fill="#ffffff" stroke="transparent" points="2268.5,-767.2 2268.5,-792.2 2310.5,-792.2 2310.5,-767.2 2268.5,-767.2"/>
<polygon fill="none" stroke="#000000" points="2268.5,-767.2 2268.5,-792.2 2310.5,-792.2 2310.5,-767.2 2268.5,-767.2"/>
<text text-anchor="start" x="2298.6072" y="-774.8" font-family="Helvetica,sans-Serif" font-size="16.00" fill="#000000"> &#160;</text>
</a>
</g>
</g>
<!-- journal_entry_tags&#45;&gt;journal_entries -->
<g id="edge4" class="edge">
<title>journal_entry_tags:w&#45;&gt;journal_entries:e</title>
<path fill="none" stroke="#000000" d="M2090.8428,-804.2C2079.4139,-804.2 2072.1563,-804.2 2056,-804.2"/>
<polygon fill="#000000" stroke="#000000" points="2097.5,-804.2001 2105.5,-807.8 2101.5,-804.2 2105.5,-804.2 2105.5,-804.2 2105.5,-804.2 2101.5,-804.2 2105.5,-800.6 2097.5,-804.2001 2097.5,-804.2001"/>
<ellipse fill="none" stroke="#000000" cx="2094.3" cy="-804.2001" rx="3.2" ry="3.2"/>
</g>
<!-- locations_administrative_divisions_1&#45;&gt;locations_countries -->
<g id="edge5" class="edge">
<title>locations_administrative_divisions_1:w&#45;&gt;locations_countries:e</title>
<path fill="none" stroke="#000000" d="M519.3898,-314.2C513.2597,-314.2 507.1927,-314.2 501.224,-314.2"/>
<polygon fill="#000000" stroke="#000000" points="525.7914,-314.2001 533.7914,-317.8 529.7914,-314.2 533.7914,-314.2 533.7914,-314.2 533.7914,-314.2 529.7914,-314.2 533.7914,-310.6 525.7914,-314.2001 525.7914,-314.2001"/>
<ellipse fill="none" stroke="#000000" cx="522.5914" cy="-314.2001" rx="3.2" ry="3.2"/>
</g>
<!-- locations_continents -->
<g id="node11" class="node">
<title>locations_continents</title>
<g id="a_node11"><a xlink:href="../../tables/locations_continents.html" xlink:title="locations_continents" target="_top">
<polygon fill="#ffffff" stroke="transparent" points="8,-277.7 8,-356.7 231,-356.7 231,-277.7 8,-277.7"/>
<polygon fill="#f5f5f5" stroke="transparent" points="8.5,-327.2 8.5,-356.2 231.5,-356.2 231.5,-327.2 8.5,-327.2"/>
<polygon fill="none" stroke="#000000" points="8.5,-327.2 8.5,-356.2 231.5,-356.2 231.5,-327.2 8.5,-327.2"/>
<text text-anchor="start" x="13.5" y="-334.3" font-family="Helvetica,sans-Serif" font-weight="bold" font-size="16.00" fill="#000000">locations_continents</text>
<text text-anchor="start" x="183.2136" y="-336.8" font-family="Helvetica,sans-Serif" font-size="16.00" fill="#000000">[table]</text>
<polygon fill="none" stroke="#000000" points="8.5,-302.2 8.5,-327.2 231.5,-327.2 231.5,-302.2 8.5,-302.2"/>
<text text-anchor="start" x="11.5" y="-309.8" font-family="Helvetica,sans-Serif" font-size="16.00" fill="#000000">...</text>
<polygon fill="#ffffff" stroke="transparent" points="8.5,-277.2 8.5,-302.2 86.5,-302.2 86.5,-277.2 8.5,-277.2"/>
<polygon fill="none" stroke="#000000" points="8.5,-277.2 8.5,-302.2 86.5,-302.2 86.5,-277.2 8.5,-277.2"/>
<text text-anchor="start" x="11.5" y="-284.8" font-family="Helvetica,sans-Serif" font-size="16.00" fill="#000000"> &#160;</text>
<polygon fill="#ffffff" stroke="transparent" points="86.5,-277.2 86.5,-302.2 171.5,-302.2 171.5,-277.2 86.5,-277.2"/>
<polygon fill="none" stroke="#000000" points="86.5,-277.2 86.5,-302.2 171.5,-302.2 171.5,-277.2 86.5,-277.2"/>
<text text-anchor="start" x="121.388" y="-284.8" font-family="Helvetica,sans-Serif" font-size="16.00" fill="#000000">7 rows</text>
<polygon fill="#ffffff" stroke="transparent" points="171.5,-277.2 171.5,-302.2 231.5,-302.2 231.5,-277.2 171.5,-277.2"/>
<polygon fill="none" stroke="#000000" points="171.5,-277.2 171.5,-302.2 231.5,-302.2 231.5,-277.2 171.5,-277.2"/>
<text text-anchor="start" x="205.8168" y="-284.8" font-family="Helvetica,sans-Serif" font-size="16.00" fill="#000000">1 &gt;</text>
</a>
</g>
</g>
<!-- locations_countries&#45;&gt;locations_continents -->
<g id="edge13" class="edge">
<title>locations_countries:w&#45;&gt;locations_continents:e</title>
<path fill="none" stroke="#000000" d="M257.1591,-314.2C248.4756,-314.2 239.8609,-314.2 231.5,-314.2"/>
<polygon fill="#000000" stroke="#000000" points="263.8054,-314.2001 271.8055,-317.8 267.8054,-314.2 271.8054,-314.2 271.8054,-314.2 271.8054,-314.2 267.8054,-314.2 271.8054,-310.6 263.8054,-314.2001 263.8054,-314.2001"/>
<ellipse fill="none" stroke="#000000" cx="260.6054" cy="-314.2001" rx="3.2" ry="3.2"/>
</g>
<!-- locations_administrative_divisions_2&#45;&gt;locations_administrative_divisions_1 -->
<g id="edge6" class="edge">
<title>locations_administrative_divisions_2:w&#45;&gt;locations_administrative_divisions_1:e</title>
<path fill="none" stroke="#000000" d="M922.1915,-294.5363C916.1535,-295.1206 910.1136,-295.7051 904.0932,-296.2878"/>
<polygon fill="#000000" stroke="#000000" points="928.7557,-293.9011 937.0653,-296.7137 932.7371,-293.5158 936.7185,-293.1305 936.7185,-293.1305 936.7185,-293.1305 932.7371,-293.5158 936.3717,-289.5472 928.7557,-293.9011 928.7557,-293.9011"/>
<ellipse fill="none" stroke="#000000" cx="925.5706" cy="-294.2094" rx="3.2" ry="3.2"/>
</g>
<!-- locations_administrative_divisions_2&#45;&gt;locations_countries -->
<g id="edge7" class="edge">
<title>locations_administrative_divisions_2:w&#45;&gt;locations_countries:e</title>
<path fill="none" stroke="#000000" d="M922.1924,-253.5781C807.8028,-245.6496 662.007,-243.0937 534,-264.2 523.1951,-265.9815 512.1173,-268.4508 501.1234,-271.3456"/>
<polygon fill="#000000" stroke="#000000" points="928.7142,-254.0482 936.4347,-258.2141 932.7039,-254.3358 936.6935,-254.6234 936.6935,-254.6234 936.6935,-254.6234 932.7039,-254.3358 936.9524,-251.0327 928.7142,-254.0482 928.7142,-254.0482"/>
<ellipse fill="none" stroke="#000000" cx="925.5225" cy="-253.8181" rx="3.2" ry="3.2"/>
</g>
<!-- locations_feature_codes&#45;&gt;locations_feature_classes -->
<g id="edge14" class="edge">
<title>locations_feature_codes:w&#45;&gt;locations_feature_classes:e</title>
<path fill="none" stroke="#000000" d="M973.1143,-454.0222C935.8441,-456.9816 895.9914,-460.1461 859.161,-463.0706"/>
<polygon fill="#000000" stroke="#000000" points="979.8319,-453.4888 988.0918,-456.4442 983.8194,-453.1722 987.8068,-452.8555 987.8068,-452.8555 987.8068,-452.8555 983.8194,-453.1722 987.5219,-449.2668 979.8319,-453.4888 979.8319,-453.4888"/>
<ellipse fill="none" stroke="#000000" cx="976.642" cy="-453.7421" rx="3.2" ry="3.2"/>
</g>
</g>
</svg>
