<?xml version="1.0" encoding="UTF-8" standalone="no"?>
<!DOCTYPE svg PUBLIC "-//W3C//DTD SVG 1.1//EN"
 "http://www.w3.org/Graphics/SVG/1.1/DTD/svg11.dtd">
<!-- Generated by graphviz version 2.40.1 (20161225.0304)
 -->
<!-- Title: twoDegreesRelationshipsDiagram Pages: 1 -->
<svg width="1165pt" height="450pt"
 viewBox="0.00 0.00 1165.00 450.20" xmlns="http://www.w3.org/2000/svg" xmlns:xlink="http://www.w3.org/1999/xlink">
<g id="graph0" class="graph" transform="scale(1 1) rotate(0) translate(4 446.2)">
<title>twoDegreesRelationshipsDiagram</title>
<polygon fill="#ffffff" stroke="transparent" points="-4,4 -4,-446.2 1161,-446.2 1161,4 -4,4"/>
<text text-anchor="middle" x="101.8088" y="-8.8" font-family="Helvetica,sans-Serif" font-size="16.00" fill="#000000">Generated by SchemaSpy</text>
<!-- journal_entries -->
<g id="node1" class="node">
<title>journal_entries</title>
<g id="a_node1"><a xlink:href="../../tables/journal_entries.html" xlink:title="journal_entries" target="_top">
<polygon fill="#ffffff" stroke="transparent" points="975,-284.2 975,-363.2 1149,-363.2 1149,-284.2 975,-284.2"/>
<polygon fill="#f5f5f5" stroke="transparent" points="975,-333.7 975,-362.7 1149,-362.7 1149,-333.7 975,-333.7"/>
<polygon fill="none" stroke="#000000" points="975,-333.7 975,-362.7 1149,-362.7 1149,-333.7 975,-333.7"/>
<text text-anchor="start" x="980" y="-340.8" font-family="Helvetica,sans-Serif" font-weight="bold" font-size="16.00" fill="#000000">journal_entries</text>
<text text-anchor="start" x="1100.7136" y="-343.3" font-family="Helvetica,sans-Serif" font-size="16.00" fill="#000000">[table]</text>
<polygon fill="none" stroke="#000000" points="975,-308.7 975,-333.7 1149,-333.7 1149,-308.7 975,-308.7"/>
<text text-anchor="start" x="978" y="-316.3" font-family="Helvetica,sans-Serif" font-size="16.00" fill="#000000">...</text>
<polygon fill="#ffffff" stroke="transparent" points="975,-283.7 975,-308.7 1035,-308.7 1035,-283.7 975,-283.7"/>
<polygon fill="none" stroke="#000000" points="975,-283.7 975,-308.7 1035,-308.7 1035,-283.7 975,-283.7"/>
<text text-anchor="start" x="978" y="-291.3" font-family="Helvetica,sans-Serif" font-size="16.00" fill="#000000">&lt; 3</text>
<polygon fill="#ffffff" stroke="transparent" points="1035,-283.7 1035,-308.7 1104,-308.7 1104,-283.7 1035,-283.7"/>
<polygon fill="none" stroke="#000000" points="1035,-283.7 1035,-308.7 1104,-308.7 1104,-283.7 1035,-283.7"/>
<text text-anchor="start" x="1053.888" y="-291.3" font-family="Helvetica,sans-Serif" font-size="16.00" fill="#000000">2 rows</text>
<polygon fill="#ffffff" stroke="transparent" points="1104,-283.7 1104,-308.7 1149,-308.7 1149,-283.7 1104,-283.7"/>
<polygon fill="none" stroke="#000000" points="1104,-283.7 1104,-308.7 1149,-308.7 1149,-283.7 1104,-283.7"/>
<text text-anchor="start" x="1123.3168" y="-291.3" font-family="Helvetica,sans-Serif" font-size="16.00" fill="#000000">1 &gt;</text>
</a>
</g>
</g>
<!-- locations_cities -->
<g id="node2" class="node">
<title>locations_cities</title>
<g id="a_node2"><a xlink:href="../../tables/locations_cities.html" xlink:title="locations_cities" target="_top">
<polygon fill="#ffffff" stroke="transparent" points="746,-281.2 746,-360.2 926,-360.2 926,-281.2 746,-281.2"/>
<polygon fill="#f5f5f5" stroke="transparent" points="746,-330.7 746,-359.7 926,-359.7 926,-330.7 746,-330.7"/>
<polygon fill="none" stroke="#000000" points="746,-330.7 746,-359.7 926,-359.7 926,-330.7 746,-330.7"/>
<text text-anchor="start" x="751" y="-337.8" font-family="Helvetica,sans-Serif" font-weight="bold" font-size="16.00" fill="#000000">locations_cities</text>
<text text-anchor="start" x="877.7136" y="-340.3" font-family="Helvetica,sans-Serif" font-size="16.00" fill="#000000">[table]</text>
<polygon fill="none" stroke="#000000" points="746,-305.7 746,-330.7 926,-330.7 926,-305.7 746,-305.7"/>
<text text-anchor="start" x="749" y="-313.3" font-family="Helvetica,sans-Serif" font-size="16.00" fill="#000000">...</text>
<polygon fill="#ffffff" stroke="transparent" points="746,-280.7 746,-305.7 785,-305.7 785,-280.7 746,-280.7"/>
<polygon fill="none" stroke="#000000" points="746,-280.7 746,-305.7 785,-305.7 785,-280.7 746,-280.7"/>
<text text-anchor="start" x="749" y="-288.3" font-family="Helvetica,sans-Serif" font-size="16.00" fill="#000000">&lt; 4</text>
<polygon fill="#ffffff" stroke="transparent" points="785,-280.7 785,-305.7 892,-305.7 892,-280.7 785,-280.7"/>
<polygon fill="none" stroke="#000000" points="785,-280.7 785,-305.7 892,-305.7 892,-280.7 785,-280.7"/>
<text text-anchor="start" x="792.9696" y="-288.3" font-family="Helvetica,sans-Serif" font-size="16.00" fill="#000000">210,698 rows</text>
<polygon fill="#ffffff" stroke="transparent" points="892,-280.7 892,-305.7 926,-305.7 926,-280.7 892,-280.7"/>
<polygon fill="none" stroke="#000000" points="892,-280.7 892,-305.7 926,-305.7 926,-280.7 892,-280.7"/>
<text text-anchor="start" x="900.3168" y="-288.3" font-family="Helvetica,sans-Serif" font-size="16.00" fill="#000000">1 &gt;</text>
</a>
</g>
</g>
<!-- journal_entries&#45;&gt;locations_cities -->
<g id="edge1" class="edge">
<title>journal_entries:w&#45;&gt;locations_cities:e</title>
<path fill="none" stroke="#000000" d="M960.5909,-320.7C951.9171,-320.7 943.0879,-320.7 934.3384,-320.7"/>
<polygon fill="#000000" stroke="#000000" points="967,-320.7001 975,-324.3 971,-320.7 975,-320.7 975,-320.7 975,-320.7 971,-320.7 975,-317.1 967,-320.7001 967,-320.7001"/>
<ellipse fill="none" stroke="#000000" cx="963.8" cy="-320.7001" rx="3.2" ry="3.2"/>
</g>
<!-- locations_administrative_divisions_1 -->
<g id="node3" class="node">
<title>locations_administrative_divisions_1</title>
<g id="a_node3"><a xlink:href="../../tables/locations_administrative_divisions_1.html" xlink:title="locations_administrative_divisions_1" target="_top">
<polygon fill="#ffffff" stroke="transparent" points="332,-359.2 332,-438.2 686,-438.2 686,-359.2 332,-359.2"/>
<polygon fill="#f5f5f5" stroke="transparent" points="332,-408.7 332,-437.7 686,-437.7 686,-408.7 332,-408.7"/>
<polygon fill="none" stroke="#000000" points="332,-408.7 332,-437.7 686,-437.7 686,-408.7 332,-408.7"/>
<text text-anchor="start" x="337" y="-415.8" font-family="Helvetica,sans-Serif" font-weight="bold" font-size="16.00" fill="#000000">locations_administrative_divisions_1</text>
<text text-anchor="start" x="637.7136" y="-418.3" font-family="Helvetica,sans-Serif" font-size="16.00" fill="#000000">[table]</text>
<polygon fill="none" stroke="#000000" points="332,-383.7 332,-408.7 686,-408.7 686,-383.7 332,-383.7"/>
<text text-anchor="start" x="335" y="-391.3" font-family="Helvetica,sans-Serif" font-size="16.00" fill="#000000">...</text>
<polygon fill="#ffffff" stroke="transparent" points="332,-358.7 332,-383.7 467,-383.7 467,-358.7 332,-358.7"/>
<polygon fill="none" stroke="#000000" points="332,-358.7 332,-383.7 467,-383.7 467,-358.7 332,-358.7"/>
<text text-anchor="start" x="335" y="-366.3" font-family="Helvetica,sans-Serif" font-size="16.00" fill="#000000">&lt; 1</text>
<polygon fill="#ffffff" stroke="transparent" points="467,-358.7 467,-383.7 604,-383.7 604,-358.7 467,-358.7"/>
<polygon fill="none" stroke="#000000" points="467,-358.7 467,-383.7 604,-383.7 604,-358.7 467,-358.7"/>
<text text-anchor="start" x="522.7584" y="-366.3" font-family="Helvetica,sans-Serif" font-size="16.00" fill="#000000">3,893 rows</text>
<polygon fill="#ffffff" stroke="transparent" points="604,-358.7 604,-383.7 686,-383.7 686,-358.7 604,-358.7"/>
<polygon fill="none" stroke="#000000" points="604,-358.7 604,-383.7 686,-383.7 686,-358.7 604,-358.7"/>
<text text-anchor="start" x="660.3168" y="-366.3" font-family="Helvetica,sans-Serif" font-size="16.00" fill="#000000">2 &gt;</text>
</a>
</g>
</g>
<!-- locations_cities&#45;&gt;locations_administrative_divisions_1 -->
<g id="edge3" class="edge">
<title>locations_cities:w&#45;&gt;locations_administrative_divisions_1:e</title>
<path fill="none" stroke="#000000" d="M766.6936,-371.7085C742.4025,-385.0136 714.1351,-395.7 686,-395.7"/>
<polygon fill="#000000" stroke="#000000" points="772.4663,-368.3504 781.1916,-367.4396 775.9239,-366.3391 779.3814,-364.3278 779.3814,-364.3278 779.3814,-364.3278 775.9239,-366.3391 777.5712,-361.216 772.4663,-368.3504 772.4663,-368.3504"/>
<ellipse fill="none" stroke="#000000" cx="769.7002" cy="-369.9595" rx="3.2" ry="3.2"/>
</g>
<!-- locations_countries -->
<g id="node4" class="node">
<title>locations_countries</title>
<g id="a_node4"><a xlink:href="../../tables/locations_countries.html" xlink:title="locations_countries" target="_top">
<polygon fill="#ffffff" stroke="transparent" points="33.5,-328.2 33.5,-407.2 246.5,-407.2 246.5,-328.2 33.5,-328.2"/>
<polygon fill="#f5f5f5" stroke="transparent" points="34,-377.7 34,-406.7 247,-406.7 247,-377.7 34,-377.7"/>
<polygon fill="none" stroke="#000000" points="34,-377.7 34,-406.7 247,-406.7 247,-377.7 34,-377.7"/>
<text text-anchor="start" x="39" y="-384.8" font-family="Helvetica,sans-Serif" font-weight="bold" font-size="16.00" fill="#000000">locations_countries</text>
<text text-anchor="start" x="198.7136" y="-387.3" font-family="Helvetica,sans-Serif" font-size="16.00" fill="#000000">[table]</text>
<polygon fill="none" stroke="#000000" points="34,-352.7 34,-377.7 247,-377.7 247,-352.7 34,-352.7"/>
<text text-anchor="start" x="37" y="-360.3" font-family="Helvetica,sans-Serif" font-size="16.00" fill="#000000">...</text>
<polygon fill="#ffffff" stroke="transparent" points="34,-327.7 34,-352.7 105,-352.7 105,-327.7 34,-327.7"/>
<polygon fill="none" stroke="#000000" points="34,-327.7 34,-352.7 105,-352.7 105,-327.7 34,-327.7"/>
<text text-anchor="start" x="37" y="-335.3" font-family="Helvetica,sans-Serif" font-size="16.00" fill="#000000">&lt; 1</text>
<polygon fill="#ffffff" stroke="transparent" points="105,-327.7 105,-352.7 197,-352.7 197,-327.7 105,-327.7"/>
<polygon fill="none" stroke="#000000" points="105,-327.7 105,-352.7 197,-352.7 197,-327.7 105,-327.7"/>
<text text-anchor="start" x="129.0992" y="-335.3" font-family="Helvetica,sans-Serif" font-size="16.00" fill="#000000">252 rows</text>
<polygon fill="#ffffff" stroke="transparent" points="197,-327.7 197,-352.7 247,-352.7 247,-327.7 197,-327.7"/>
<polygon fill="none" stroke="#000000" points="197,-327.7 197,-352.7 247,-352.7 247,-327.7 197,-327.7"/>
<text text-anchor="start" x="221.3168" y="-335.3" font-family="Helvetica,sans-Serif" font-size="16.00" fill="#000000">3 &gt;</text>
</a>
</g>
</g>
<!-- locations_cities&#45;&gt;locations_countries -->
<g id="edge4" class="edge">
<title>locations_cities:w&#45;&gt;locations_countries:e</title>
<path fill="none" stroke="#000000" d="M723.0108,-320.7571C616.6804,-322.2238 453.2714,-328.1222 313,-348.7 283.1367,-353.081 277.183,-364.7 247,-364.7"/>
<polygon fill="#000000" stroke="#000000" points="729.6279,-320.6762 737.6713,-324.1782 733.6276,-320.6273 737.6273,-320.5784 737.6273,-320.5784 737.6273,-320.5784 733.6276,-320.6273 737.5833,-316.9787 729.6279,-320.6762 729.6279,-320.6762"/>
<ellipse fill="none" stroke="#000000" cx="726.4282" cy="-320.7154" rx="3.2" ry="3.2"/>
</g>
<!-- locations_feature_classes -->
<g id="node5" class="node">
<title>locations_feature_classes</title>
<g id="a_node5"><a xlink:href="../../tables/locations_feature_classes.html" xlink:title="locations_feature_classes" target="_top">
<polygon fill="#ffffff" stroke="transparent" points="8,-217.2 8,-296.2 272,-296.2 272,-217.2 8,-217.2"/>
<polygon fill="#f5f5f5" stroke="transparent" points="8,-266.7 8,-295.7 272,-295.7 272,-266.7 8,-266.7"/>
<polygon fill="none" stroke="#000000" points="8,-266.7 8,-295.7 272,-295.7 272,-266.7 8,-266.7"/>
<text text-anchor="start" x="13" y="-273.8" font-family="Helvetica,sans-Serif" font-weight="bold" font-size="16.00" fill="#000000">locations_feature_classes</text>
<text text-anchor="start" x="223.7136" y="-276.3" font-family="Helvetica,sans-Serif" font-size="16.00" fill="#000000">[table]</text>
<polygon fill="none" stroke="#000000" points="8,-241.7 8,-266.7 272,-266.7 272,-241.7 8,-241.7"/>
<text text-anchor="start" x="11" y="-249.3" font-family="Helvetica,sans-Serif" font-size="16.00" fill="#000000">...</text>
<polygon fill="#ffffff" stroke="transparent" points="8,-216.7 8,-241.7 106,-241.7 106,-216.7 8,-216.7"/>
<polygon fill="none" stroke="#000000" points="8,-216.7 8,-241.7 106,-241.7 106,-216.7 8,-216.7"/>
<text text-anchor="start" x="11" y="-224.3" font-family="Helvetica,sans-Serif" font-size="16.00" fill="#000000"> &#160;</text>
<polygon fill="#ffffff" stroke="transparent" points="106,-216.7 106,-241.7 201,-241.7 201,-216.7 106,-216.7"/>
<polygon fill="none" stroke="#000000" points="106,-216.7 106,-241.7 201,-241.7 201,-216.7 106,-216.7"/>
<text text-anchor="start" x="150.888" y="-224.3" font-family="Helvetica,sans-Serif" font-size="16.00" fill="#000000">9 rows</text>
<polygon fill="#ffffff" stroke="transparent" points="201,-216.7 201,-241.7 272,-241.7 272,-216.7 201,-216.7"/>
<polygon fill="none" stroke="#000000" points="201,-216.7 201,-241.7 272,-241.7 272,-216.7 201,-216.7"/>
<text text-anchor="start" x="246.3168" y="-224.3" font-family="Helvetica,sans-Serif" font-size="16.00" fill="#000000">2 &gt;</text>
</a>
</g>
</g>
<!-- locations_cities&#45;&gt;locations_feature_classes -->
<g id="edge5" class="edge">
<title>locations_cities:w&#45;&gt;locations_feature_classes:e</title>
<path fill="none" stroke="#000000" d="M723.3123,-316.9839C593.8267,-312.3424 389.3786,-303.774 313,-293.7 302.3424,-292.2943 291.3653,-290.5814 280.3552,-288.6715"/>
<polygon fill="#000000" stroke="#000000" points="729.9427,-317.2191 737.81,-321.1006 733.9402,-317.361 737.9377,-317.5029 737.9377,-317.5029 737.9377,-317.5029 733.9402,-317.361 738.0653,-313.9052 729.9427,-317.2191 729.9427,-317.2191"/>
<ellipse fill="none" stroke="#000000" cx="726.7447" cy="-317.1056" rx="3.2" ry="3.2"/>
</g>
<!-- locations_feature_codes -->
<g id="node6" class="node">
<title>locations_feature_codes</title>
<g id="a_node6"><a xlink:href="../../tables/locations_feature_codes.html" xlink:title="locations_feature_codes" target="_top">
<polygon fill="#ffffff" stroke="transparent" points="321,-50.2 321,-283.2 697,-283.2 697,-50.2 321,-50.2"/>
<polygon fill="#f5f5f5" stroke="transparent" points="323,-251.7 323,-280.7 695,-280.7 695,-251.7 323,-251.7"/>
<polygon fill="none" stroke="#000000" points="323,-251.7 323,-280.7 695,-280.7 695,-251.7 323,-251.7"/>
<text text-anchor="start" x="328" y="-258.8" font-family="Helvetica,sans-Serif" font-weight="bold" font-size="16.00" fill="#000000">locations_feature_codes</text>
<text text-anchor="start" x="646.4272" y="-261.3" font-family="Helvetica,sans-Serif" font-size="16.00" fill="#000000">[table]</text>
<polygon fill="none" stroke="#000000" points="323,-226.7 323,-251.7 543,-251.7 543,-226.7 323,-226.7"/>
<image xlink:href="../../images/primaryKeys.png" width="11px" height="12px" preserveAspectRatio="xMinYMin meet" x="328" y="-245.2"/>
<text text-anchor="start" x="343" y="-230.8" font-family="Helvetica,sans-Serif" font-size="16.00" fill="#000000">feature_code</text>
<polygon fill="none" stroke="#000000" points="543,-226.7 543,-251.7 695,-251.7 695,-226.7 543,-226.7"/>
<text text-anchor="start" x="546" y="-234.3" font-family="Helvetica,sans-Serif" font-size="16.00" fill="#000000">text[2000000000]</text>
<polygon fill="#ffffff" stroke="transparent" points="323,-201.7 323,-226.7 543,-226.7 543,-201.7 323,-201.7"/>
<polygon fill="none" stroke="#000000" points="323,-201.7 323,-226.7 543,-226.7 543,-201.7 323,-201.7"/>
<image xlink:href="../../images/foreignKeys.png" width="11px" height="12px" preserveAspectRatio="xMinYMin meet" x="328" y="-220.2"/>
<text text-anchor="start" x="343" y="-205.8" font-family="Helvetica,sans-Serif" font-size="16.00" fill="#000000">feature_class</text>
<polygon fill="none" stroke="#000000" points="543,-201.7 543,-226.7 695,-226.7 695,-201.7 543,-201.7"/>
<text text-anchor="start" x="546" y="-209.3" font-family="Helvetica,sans-Serif" font-size="16.00" fill="#000000">text[2000000000]</text>
<polygon fill="#ffffff" stroke="transparent" points="323,-176.7 323,-201.7 543,-201.7 543,-176.7 323,-176.7"/>
<polygon fill="none" stroke="#000000" points="323,-176.7 323,-201.7 543,-201.7 543,-176.7 323,-176.7"/>
<text text-anchor="start" x="343" y="-180.8" font-family="Helvetica,sans-Serif" font-size="16.00" fill="#000000">order</text>
<polygon fill="none" stroke="#000000" points="543,-176.7 543,-201.7 695,-201.7 695,-176.7 543,-176.7"/>
<text text-anchor="start" x="545.6312" y="-184.3" font-family="Helvetica,sans-Serif" font-size="16.00" fill="#000000">integer[2000000000]</text>
<polygon fill="none" stroke="#000000" points="323,-151.7 323,-176.7 543,-176.7 543,-151.7 323,-151.7"/>
<text text-anchor="start" x="343" y="-155.8" font-family="Helvetica,sans-Serif" font-size="16.00" fill="#000000">description</text>
<polygon fill="none" stroke="#000000" points="543,-151.7 543,-176.7 695,-176.7 695,-151.7 543,-151.7"/>
<text text-anchor="start" x="546" y="-159.3" font-family="Helvetica,sans-Serif" font-size="16.00" fill="#000000">text[2000000000]</text>
<polygon fill="none" stroke="#000000" points="323,-126.7 323,-151.7 543,-151.7 543,-126.7 323,-126.7"/>
<text text-anchor="start" x="343" y="-130.8" font-family="Helvetica,sans-Serif" font-size="16.00" fill="#000000">note</text>
<polygon fill="none" stroke="#000000" points="543,-126.7 543,-151.7 695,-151.7 695,-126.7 543,-126.7"/>
<text text-anchor="start" x="546" y="-134.3" font-family="Helvetica,sans-Serif" font-size="16.00" fill="#000000">text[2000000000]</text>
<polygon fill="none" stroke="#000000" points="323,-101.7 323,-126.7 543,-126.7 543,-101.7 323,-101.7"/>
<text text-anchor="start" x="343" y="-105.8" font-family="Helvetica,sans-Serif" font-size="16.00" fill="#000000">inserted_at</text>
<polygon fill="none" stroke="#000000" points="543,-101.7 543,-126.7 695,-126.7 695,-101.7 543,-101.7"/>
<text text-anchor="start" x="546" y="-109.3" font-family="Helvetica,sans-Serif" font-size="16.00" fill="#000000">text[2000000000]</text>
<polygon fill="none" stroke="#000000" points="323,-76.7 323,-101.7 543,-101.7 543,-76.7 323,-76.7"/>
<text text-anchor="start" x="343" y="-80.8" font-family="Helvetica,sans-Serif" font-size="16.00" fill="#000000">updated_at</text>
<polygon fill="none" stroke="#000000" points="543,-76.7 543,-101.7 695,-101.7 695,-76.7 543,-76.7"/>
<text text-anchor="start" x="546" y="-84.3" font-family="Helvetica,sans-Serif" font-size="16.00" fill="#000000">text[2000000000]</text>
<polygon fill="#ffffff" stroke="transparent" points="323,-51.7 323,-76.7 412,-76.7 412,-51.7 323,-51.7"/>
<polygon fill="none" stroke="#000000" points="323,-51.7 323,-76.7 412,-76.7 412,-51.7 323,-51.7"/>
<text text-anchor="start" x="326" y="-59.3" font-family="Helvetica,sans-Serif" font-size="16.00" fill="#000000">&lt; 1</text>
<polygon fill="#ffffff" stroke="transparent" points="412,-51.7 412,-76.7 543,-76.7 543,-51.7 412,-51.7"/>
<polygon fill="none" stroke="#000000" points="412,-51.7 412,-76.7 543,-76.7 543,-51.7 412,-51.7"/>
<text text-anchor="start" x="475.0992" y="-59.3" font-family="Helvetica,sans-Serif" font-size="16.00" fill="#000000">684 rows</text>
<polygon fill="#ffffff" stroke="transparent" points="543,-51.7 543,-76.7 695,-76.7 695,-51.7 543,-51.7"/>
<polygon fill="none" stroke="#000000" points="543,-51.7 543,-76.7 695,-76.7 695,-51.7 543,-51.7"/>
<text text-anchor="start" x="669.3168" y="-59.3" font-family="Helvetica,sans-Serif" font-size="16.00" fill="#000000">1 &gt;</text>
<polygon fill="none" stroke="#000000" stroke-width="2" points="322,-51.2 322,-282.2 696,-282.2 696,-51.2 322,-51.2"/>
</a>
</g>
</g>
<!-- locations_cities&#45;&gt;locations_feature_codes -->
<g id="edge6" class="edge">
<title>locations_cities:w&#45;&gt;locations_feature_codes:e</title>
<path fill="none" stroke="#000000" d="M776.5879,-268.698C752.8395,-252.9309 724.2091,-239.7 695,-239.7"/>
<polygon fill="#000000" stroke="#000000" points="781.999,-272.5102 786.4656,-280.0607 785.269,-274.8139 788.539,-277.1177 788.539,-277.1177 788.539,-277.1177 785.269,-274.8139 790.6124,-274.1747 781.999,-272.5102 781.999,-272.5102"/>
<ellipse fill="none" stroke="#000000" cx="779.383" cy="-270.6672" rx="3.2" ry="3.2"/>
</g>
<!-- locations_administrative_divisions_1&#45;&gt;locations_countries -->
<g id="edge2" class="edge">
<title>locations_administrative_divisions_1:w&#45;&gt;locations_countries:e</title>
<path fill="none" stroke="#000000" d="M317.323,-394.1201C289.8708,-387.8029 281.7141,-364.7 247,-364.7"/>
<polygon fill="#000000" stroke="#000000" points="324.046,-394.8437 331.6147,-399.2793 328.023,-395.2719 332,-395.7 332,-395.7 332,-395.7 328.023,-395.2719 332.3853,-392.1207 324.046,-394.8437 324.046,-394.8437"/>
<ellipse fill="none" stroke="#000000" cx="320.8643" cy="-394.5012" rx="3.2" ry="3.2"/>
</g>
<!-- locations_feature_codes&#45;&gt;locations_feature_classes -->
<g id="edge7" class="edge">
<title>locations_feature_codes:w&#45;&gt;locations_feature_classes:e</title>
<path fill="none" stroke="#000000" d="M308.4065,-215.1039C299.0456,-215.6076 289.5702,-216.5628 280.1351,-217.8568"/>
<polygon fill="#000000" stroke="#000000" points="315.0031,-214.9214 323.0996,-218.2986 319.0015,-214.8107 323,-214.7 323,-214.7 323,-214.7 319.0015,-214.8107 322.9004,-211.1014 315.0031,-214.9214 315.0031,-214.9214"/>
<ellipse fill="none" stroke="#000000" cx="311.8043" cy="-215.0099" rx="3.2" ry="3.2"/>
</g>
</g>
</svg>
