<?xml version="1.0" encoding="UTF-8" standalone="no"?>
<!DOCTYPE svg PUBLIC "-//W3C//DTD SVG 1.1//EN"
 "http://www.w3.org/Graphics/SVG/1.1/DTD/svg11.dtd">
<!-- Generated by graphviz version 2.40.1 (20161225.0304)
 -->
<!-- Title: twoDegreesRelationshipsDiagramImplied Pages: 1 -->
<svg width="1506pt" height="431pt"
 viewBox="0.00 0.00 1506.00 430.92" xmlns="http://www.w3.org/2000/svg" xmlns:xlink="http://www.w3.org/1999/xlink">
<g id="graph0" class="graph" transform="scale(1 1) rotate(0) translate(4 426.9177)">
<title>twoDegreesRelationshipsDiagramImplied</title>
<polygon fill="#ffffff" stroke="transparent" points="-4,4 -4,-426.9177 1502,-426.9177 1502,4 -4,4"/>
<text text-anchor="middle" x="101.8088" y="-8.8" font-family="Helvetica,sans-Serif" font-size="16.00" fill="#000000">Generated by SchemaSpy</text>
<!-- journal_entries -->
<g id="node1" class="node">
<title>journal_entries</title>
<g id="a_node1"><a xlink:href="../../tables/journal_entries.html" xlink:title="journal_entries" target="_top">
<polygon fill="#ffffff" stroke="transparent" points="1316,-225.7 1316,-304.7 1490,-304.7 1490,-225.7 1316,-225.7"/>
<polygon fill="#f5f5f5" stroke="transparent" points="1316,-275.2 1316,-304.2 1490,-304.2 1490,-275.2 1316,-275.2"/>
<polygon fill="none" stroke="#000000" points="1316,-275.2 1316,-304.2 1490,-304.2 1490,-275.2 1316,-275.2"/>
<text text-anchor="start" x="1321" y="-282.3" font-family="Helvetica,sans-Serif" font-weight="bold" font-size="16.00" fill="#000000">journal_entries</text>
<text text-anchor="start" x="1441.7136" y="-284.8" font-family="Helvetica,sans-Serif" font-size="16.00" fill="#000000">[table]</text>
<polygon fill="none" stroke="#000000" points="1316,-250.2 1316,-275.2 1490,-275.2 1490,-250.2 1316,-250.2"/>
<text text-anchor="start" x="1319" y="-257.8" font-family="Helvetica,sans-Serif" font-size="16.00" fill="#000000">...</text>
<polygon fill="#ffffff" stroke="transparent" points="1316,-225.2 1316,-250.2 1376,-250.2 1376,-225.2 1316,-225.2"/>
<polygon fill="none" stroke="#000000" points="1316,-225.2 1316,-250.2 1376,-250.2 1376,-225.2 1316,-225.2"/>
<text text-anchor="start" x="1319" y="-232.8" font-family="Helvetica,sans-Serif" font-size="16.00" fill="#000000">&lt; 3</text>
<polygon fill="#ffffff" stroke="transparent" points="1376,-225.2 1376,-250.2 1445,-250.2 1445,-225.2 1376,-225.2"/>
<polygon fill="none" stroke="#000000" points="1376,-225.2 1376,-250.2 1445,-250.2 1445,-225.2 1376,-225.2"/>
<text text-anchor="start" x="1394.888" y="-232.8" font-family="Helvetica,sans-Serif" font-size="16.00" fill="#000000">2 rows</text>
<polygon fill="#ffffff" stroke="transparent" points="1445,-225.2 1445,-250.2 1490,-250.2 1490,-225.2 1445,-225.2"/>
<polygon fill="none" stroke="#000000" points="1445,-225.2 1445,-250.2 1490,-250.2 1490,-225.2 1445,-225.2"/>
<text text-anchor="start" x="1464.3168" y="-232.8" font-family="Helvetica,sans-Serif" font-size="16.00" fill="#000000">1 &gt;</text>
</a>
</g>
</g>
<!-- locations_cities -->
<g id="node2" class="node">
<title>locations_cities</title>
<g id="a_node2"><a xlink:href="../../tables/locations_cities.html" xlink:title="locations_cities" target="_top">
<polygon fill="#ffffff" stroke="transparent" points="1087,-222.7 1087,-301.7 1267,-301.7 1267,-222.7 1087,-222.7"/>
<polygon fill="#f5f5f5" stroke="transparent" points="1087,-272.2 1087,-301.2 1267,-301.2 1267,-272.2 1087,-272.2"/>
<polygon fill="none" stroke="#000000" points="1087,-272.2 1087,-301.2 1267,-301.2 1267,-272.2 1087,-272.2"/>
<text text-anchor="start" x="1092" y="-279.3" font-family="Helvetica,sans-Serif" font-weight="bold" font-size="16.00" fill="#000000">locations_cities</text>
<text text-anchor="start" x="1218.7136" y="-281.8" font-family="Helvetica,sans-Serif" font-size="16.00" fill="#000000">[table]</text>
<polygon fill="none" stroke="#000000" points="1087,-247.2 1087,-272.2 1267,-272.2 1267,-247.2 1087,-247.2"/>
<text text-anchor="start" x="1090" y="-254.8" font-family="Helvetica,sans-Serif" font-size="16.00" fill="#000000">...</text>
<polygon fill="#ffffff" stroke="transparent" points="1087,-222.2 1087,-247.2 1126,-247.2 1126,-222.2 1087,-222.2"/>
<polygon fill="none" stroke="#000000" points="1087,-222.2 1087,-247.2 1126,-247.2 1126,-222.2 1087,-222.2"/>
<text text-anchor="start" x="1090" y="-229.8" font-family="Helvetica,sans-Serif" font-size="16.00" fill="#000000">&lt; 5</text>
<polygon fill="#ffffff" stroke="transparent" points="1126,-222.2 1126,-247.2 1233,-247.2 1233,-222.2 1126,-222.2"/>
<polygon fill="none" stroke="#000000" points="1126,-222.2 1126,-247.2 1233,-247.2 1233,-222.2 1126,-222.2"/>
<text text-anchor="start" x="1133.9696" y="-229.8" font-family="Helvetica,sans-Serif" font-size="16.00" fill="#000000">210,698 rows</text>
<polygon fill="#ffffff" stroke="transparent" points="1233,-222.2 1233,-247.2 1267,-247.2 1267,-222.2 1233,-222.2"/>
<polygon fill="none" stroke="#000000" points="1233,-222.2 1233,-247.2 1267,-247.2 1267,-222.2 1233,-222.2"/>
<text text-anchor="start" x="1241.3168" y="-229.8" font-family="Helvetica,sans-Serif" font-size="16.00" fill="#000000">1 &gt;</text>
</a>
</g>
</g>
<!-- journal_entries&#45;&gt;locations_cities -->
<g id="edge1" class="edge">
<title>journal_entries:w&#45;&gt;locations_cities:e</title>
<path fill="none" stroke="#000000" d="M1301.5909,-262.2C1292.9171,-262.2 1284.0879,-262.2 1275.3384,-262.2"/>
<polygon fill="#000000" stroke="#000000" points="1308,-262.2001 1316,-265.8 1312,-262.2 1316,-262.2 1316,-262.2 1316,-262.2 1312,-262.2 1316,-258.6 1308,-262.2001 1308,-262.2001"/>
<ellipse fill="none" stroke="#000000" cx="1304.8" cy="-262.2001" rx="3.2" ry="3.2"/>
</g>
<!-- locations_administrative_divisions_1 -->
<g id="node3" class="node">
<title>locations_administrative_divisions_1</title>
<g id="a_node3"><a xlink:href="../../tables/locations_administrative_divisions_1.html" xlink:title="locations_administrative_divisions_1" target="_top">
<polygon fill="#ffffff" stroke="transparent" points="275.5,-286.7 275.5,-365.7 629.5,-365.7 629.5,-286.7 275.5,-286.7"/>
<polygon fill="#f5f5f5" stroke="transparent" points="275.5,-336.2 275.5,-365.2 629.5,-365.2 629.5,-336.2 275.5,-336.2"/>
<polygon fill="none" stroke="#000000" points="275.5,-336.2 275.5,-365.2 629.5,-365.2 629.5,-336.2 275.5,-336.2"/>
<text text-anchor="start" x="280.5" y="-343.3" font-family="Helvetica,sans-Serif" font-weight="bold" font-size="16.00" fill="#000000">locations_administrative_divisions_1</text>
<text text-anchor="start" x="581.2136" y="-345.8" font-family="Helvetica,sans-Serif" font-size="16.00" fill="#000000">[table]</text>
<polygon fill="none" stroke="#000000" points="275.5,-311.2 275.5,-336.2 629.5,-336.2 629.5,-311.2 275.5,-311.2"/>
<text text-anchor="start" x="278.5" y="-318.8" font-family="Helvetica,sans-Serif" font-size="16.00" fill="#000000">...</text>
<polygon fill="#ffffff" stroke="transparent" points="275.5,-286.2 275.5,-311.2 410.5,-311.2 410.5,-286.2 275.5,-286.2"/>
<polygon fill="none" stroke="#000000" points="275.5,-286.2 275.5,-311.2 410.5,-311.2 410.5,-286.2 275.5,-286.2"/>
<text text-anchor="start" x="278.5" y="-293.8" font-family="Helvetica,sans-Serif" font-size="16.00" fill="#000000">&lt; 1</text>
<polygon fill="#ffffff" stroke="transparent" points="410.5,-286.2 410.5,-311.2 547.5,-311.2 547.5,-286.2 410.5,-286.2"/>
<polygon fill="none" stroke="#000000" points="410.5,-286.2 410.5,-311.2 547.5,-311.2 547.5,-286.2 410.5,-286.2"/>
<text text-anchor="start" x="466.2584" y="-293.8" font-family="Helvetica,sans-Serif" font-size="16.00" fill="#000000">3,893 rows</text>
<polygon fill="#ffffff" stroke="transparent" points="547.5,-286.2 547.5,-311.2 629.5,-311.2 629.5,-286.2 547.5,-286.2"/>
<polygon fill="none" stroke="#000000" points="547.5,-286.2 547.5,-311.2 629.5,-311.2 629.5,-286.2 547.5,-286.2"/>
<text text-anchor="start" x="603.8168" y="-293.8" font-family="Helvetica,sans-Serif" font-size="16.00" fill="#000000">2 &gt;</text>
</a>
</g>
</g>
<!-- locations_cities&#45;&gt;locations_administrative_divisions_1 -->
<g id="edge5" class="edge">
<title>locations_cities:w&#45;&gt;locations_administrative_divisions_1:e</title>
<path fill="none" stroke="#000000" d="M1064.3189,-270.9683C919.471,-282.3048 685.3324,-300.8774 676,-303.2 654.1688,-308.6333 651.9972,-323.2 629.5,-323.2"/>
<polygon fill="#000000" stroke="#000000" points="1070.9383,-270.4507 1079.1947,-273.4159 1074.9261,-270.1388 1078.914,-269.8269 1078.914,-269.8269 1078.914,-269.8269 1074.9261,-270.1388 1078.6333,-266.2379 1070.9383,-270.4507 1070.9383,-270.4507"/>
<ellipse fill="none" stroke="#000000" cx="1067.7481" cy="-270.7002" rx="3.2" ry="3.2"/>
</g>
<!-- locations_countries -->
<g id="node4" class="node">
<title>locations_countries</title>
<g id="a_node4"><a xlink:href="../../tables/locations_countries.html" xlink:title="locations_countries" target="_top">
<polygon fill="#ffffff" stroke="transparent" points="8,-286.7 8,-365.7 221,-365.7 221,-286.7 8,-286.7"/>
<polygon fill="#f5f5f5" stroke="transparent" points="8.5,-336.2 8.5,-365.2 221.5,-365.2 221.5,-336.2 8.5,-336.2"/>
<polygon fill="none" stroke="#000000" points="8.5,-336.2 8.5,-365.2 221.5,-365.2 221.5,-336.2 8.5,-336.2"/>
<text text-anchor="start" x="13.5" y="-343.3" font-family="Helvetica,sans-Serif" font-weight="bold" font-size="16.00" fill="#000000">locations_countries</text>
<text text-anchor="start" x="173.2136" y="-345.8" font-family="Helvetica,sans-Serif" font-size="16.00" fill="#000000">[table]</text>
<polygon fill="none" stroke="#000000" points="8.5,-311.2 8.5,-336.2 221.5,-336.2 221.5,-311.2 8.5,-311.2"/>
<text text-anchor="start" x="11.5" y="-318.8" font-family="Helvetica,sans-Serif" font-size="16.00" fill="#000000">...</text>
<polygon fill="#ffffff" stroke="transparent" points="8.5,-286.2 8.5,-311.2 79.5,-311.2 79.5,-286.2 8.5,-286.2"/>
<polygon fill="none" stroke="#000000" points="8.5,-286.2 8.5,-311.2 79.5,-311.2 79.5,-286.2 8.5,-286.2"/>
<text text-anchor="start" x="11.5" y="-293.8" font-family="Helvetica,sans-Serif" font-size="16.00" fill="#000000">&lt; 1</text>
<polygon fill="#ffffff" stroke="transparent" points="79.5,-286.2 79.5,-311.2 171.5,-311.2 171.5,-286.2 79.5,-286.2"/>
<polygon fill="none" stroke="#000000" points="79.5,-286.2 79.5,-311.2 171.5,-311.2 171.5,-286.2 79.5,-286.2"/>
<text text-anchor="start" x="103.5992" y="-293.8" font-family="Helvetica,sans-Serif" font-size="16.00" fill="#000000">252 rows</text>
<polygon fill="#ffffff" stroke="transparent" points="171.5,-286.2 171.5,-311.2 221.5,-311.2 221.5,-286.2 171.5,-286.2"/>
<polygon fill="none" stroke="#000000" points="171.5,-286.2 171.5,-311.2 221.5,-311.2 221.5,-286.2 171.5,-286.2"/>
<text text-anchor="start" x="195.8168" y="-293.8" font-family="Helvetica,sans-Serif" font-size="16.00" fill="#000000">3 &gt;</text>
</a>
</g>
</g>
<!-- locations_cities&#45;&gt;locations_countries -->
<g id="edge7" class="edge">
<title>locations_cities:w&#45;&gt;locations_countries:e</title>
<path fill="none" stroke="#000000" d="M1064.2106,-258.7881C835.5115,-252.6127 332.8072,-243.0879 262,-276.2 237.0219,-287.8807 249.0744,-323.2 221.5,-323.2"/>
<polygon fill="#000000" stroke="#000000" points="1070.8739,-258.9705 1078.7723,-262.7882 1074.8724,-259.08 1078.8709,-259.1895 1078.8709,-259.1895 1078.8709,-259.1895 1074.8724,-259.08 1078.9694,-255.5909 1070.8739,-258.9705 1070.8739,-258.9705"/>
<ellipse fill="none" stroke="#000000" cx="1067.6751" cy="-258.8829" rx="3.2" ry="3.2"/>
</g>
<!-- locations_administrative_divisions_2 -->
<g id="node5" class="node">
<title>locations_administrative_divisions_2</title>
<g id="a_node5"><a xlink:href="../../tables/locations_administrative_divisions_2.html" xlink:title="locations_administrative_divisions_2" target="_top">
<polygon fill="#ffffff" stroke="transparent" points="684,-313.7 684,-392.7 1038,-392.7 1038,-313.7 684,-313.7"/>
<polygon fill="#f5f5f5" stroke="transparent" points="684,-363.2 684,-392.2 1038,-392.2 1038,-363.2 684,-363.2"/>
<polygon fill="none" stroke="#000000" points="684,-363.2 684,-392.2 1038,-392.2 1038,-363.2 684,-363.2"/>
<text text-anchor="start" x="689" y="-370.3" font-family="Helvetica,sans-Serif" font-weight="bold" font-size="16.00" fill="#000000">locations_administrative_divisions_2</text>
<text text-anchor="start" x="989.7136" y="-372.8" font-family="Helvetica,sans-Serif" font-size="16.00" fill="#000000">[table]</text>
<polygon fill="none" stroke="#000000" points="684,-338.2 684,-363.2 1038,-363.2 1038,-338.2 684,-338.2"/>
<text text-anchor="start" x="687" y="-345.8" font-family="Helvetica,sans-Serif" font-size="16.00" fill="#000000">...</text>
<polygon fill="#ffffff" stroke="transparent" points="684,-313.2 684,-338.2 814,-338.2 814,-313.2 684,-313.2"/>
<polygon fill="none" stroke="#000000" points="684,-313.2 684,-338.2 814,-338.2 814,-313.2 684,-313.2"/>
<text text-anchor="start" x="687" y="-320.8" font-family="Helvetica,sans-Serif" font-size="16.00" fill="#000000">&lt; 2</text>
<polygon fill="#ffffff" stroke="transparent" points="814,-313.2 814,-338.2 958,-338.2 958,-313.2 814,-313.2"/>
<polygon fill="none" stroke="#000000" points="814,-313.2 814,-338.2 958,-338.2 958,-313.2 814,-313.2"/>
<text text-anchor="start" x="867.864" y="-320.8" font-family="Helvetica,sans-Serif" font-size="16.00" fill="#000000">47,229 rows</text>
<polygon fill="#ffffff" stroke="transparent" points="958,-313.2 958,-338.2 1038,-338.2 1038,-313.2 958,-313.2"/>
<polygon fill="none" stroke="#000000" points="958,-313.2 958,-338.2 1038,-338.2 1038,-313.2 958,-313.2"/>
<text text-anchor="start" x="1012.3168" y="-320.8" font-family="Helvetica,sans-Serif" font-size="16.00" fill="#000000">1 &gt;</text>
</a>
</g>
</g>
<!-- locations_cities&#45;&gt;locations_administrative_divisions_2 -->
<g id="edge6" class="edge">
<title>locations_cities:w&#45;&gt;locations_administrative_divisions_2:e</title>
<path fill="none" stroke="#000000" stroke-dasharray="5,2" d="M1123.875,-315.2028C1099.7346,-333.8253 1069.5404,-350.2 1038,-350.2"/>
<polygon fill="#000000" stroke="#000000" points="1129.0216,-311.0013 1137.4954,-308.7309 1132.1202,-308.4718 1135.2188,-305.9422 1135.2188,-305.9422 1135.2188,-305.9422 1132.1202,-308.4718 1132.9422,-303.1534 1129.0216,-311.0013 1129.0216,-311.0013"/>
<ellipse fill="none" stroke="#000000" cx="1126.5427" cy="-313.025" rx="3.2" ry="3.2"/>
</g>
<!-- locations_feature_classes -->
<g id="node6" class="node">
<title>locations_feature_classes</title>
<g id="a_node6"><a xlink:href="../../tables/locations_feature_classes.html" xlink:title="locations_feature_classes" target="_top">
<polygon fill="#ffffff" stroke="transparent" points="270,-50.2 270,-208.2 635,-208.2 635,-50.2 270,-50.2"/>
<polygon fill="#f5f5f5" stroke="transparent" points="272.5,-177.2 272.5,-206.2 633.5,-206.2 633.5,-177.2 272.5,-177.2"/>
<polygon fill="none" stroke="#000000" points="272.5,-177.2 272.5,-206.2 633.5,-206.2 633.5,-177.2 272.5,-177.2"/>
<text text-anchor="start" x="277.5" y="-184.3" font-family="Helvetica,sans-Serif" font-weight="bold" font-size="16.00" fill="#000000">locations_feature_classes</text>
<text text-anchor="start" x="584.9272" y="-186.8" font-family="Helvetica,sans-Serif" font-size="16.00" fill="#000000">[table]</text>
<polygon fill="none" stroke="#000000" points="272.5,-152.2 272.5,-177.2 504.5,-177.2 504.5,-152.2 272.5,-152.2"/>
<image xlink:href="../../images/primaryKeys.png" width="11px" height="12px" preserveAspectRatio="xMinYMin meet" x="277.5" y="-170.7"/>
<text text-anchor="start" x="292.5" y="-156.3" font-family="Helvetica,sans-Serif" font-size="16.00" fill="#000000">feature_class</text>
<polygon fill="none" stroke="#000000" points="504.5,-152.2 504.5,-177.2 633.5,-177.2 633.5,-152.2 504.5,-152.2"/>
<text text-anchor="start" x="507.188" y="-159.8" font-family="Helvetica,sans-Serif" font-size="16.00" fill="#000000">text[2000000000]</text>
<polygon fill="none" stroke="#000000" points="272.5,-127.2 272.5,-152.2 504.5,-152.2 504.5,-127.2 272.5,-127.2"/>
<text text-anchor="start" x="292.5" y="-131.3" font-family="Helvetica,sans-Serif" font-size="16.00" fill="#000000">description</text>
<polygon fill="none" stroke="#000000" points="504.5,-127.2 504.5,-152.2 633.5,-152.2 633.5,-127.2 504.5,-127.2"/>
<text text-anchor="start" x="507.188" y="-134.8" font-family="Helvetica,sans-Serif" font-size="16.00" fill="#000000">text[2000000000]</text>
<polygon fill="none" stroke="#000000" points="272.5,-102.2 272.5,-127.2 504.5,-127.2 504.5,-102.2 272.5,-102.2"/>
<text text-anchor="start" x="292.5" y="-106.3" font-family="Helvetica,sans-Serif" font-size="16.00" fill="#000000">inserted_at</text>
<polygon fill="none" stroke="#000000" points="504.5,-102.2 504.5,-127.2 633.5,-127.2 633.5,-102.2 504.5,-102.2"/>
<text text-anchor="start" x="507.188" y="-109.8" font-family="Helvetica,sans-Serif" font-size="16.00" fill="#000000">text[2000000000]</text>
<polygon fill="none" stroke="#000000" points="272.5,-77.2 272.5,-102.2 504.5,-102.2 504.5,-77.2 272.5,-77.2"/>
<text text-anchor="start" x="292.5" y="-81.3" font-family="Helvetica,sans-Serif" font-size="16.00" fill="#000000">updated_at</text>
<polygon fill="none" stroke="#000000" points="504.5,-77.2 504.5,-102.2 633.5,-102.2 633.5,-77.2 504.5,-77.2"/>
<text text-anchor="start" x="507.188" y="-84.8" font-family="Helvetica,sans-Serif" font-size="16.00" fill="#000000">text[2000000000]</text>
<polygon fill="#ffffff" stroke="transparent" points="272.5,-52.2 272.5,-77.2 375.5,-77.2 375.5,-52.2 272.5,-52.2"/>
<polygon fill="none" stroke="#000000" points="272.5,-52.2 272.5,-77.2 375.5,-77.2 375.5,-52.2 272.5,-52.2"/>
<text text-anchor="start" x="275.5" y="-59.8" font-family="Helvetica,sans-Serif" font-size="16.00" fill="#000000">&lt; 0</text>
<polygon fill="#ffffff" stroke="transparent" points="375.5,-52.2 375.5,-77.2 504.5,-77.2 504.5,-52.2 375.5,-52.2"/>
<polygon fill="none" stroke="#000000" points="375.5,-52.2 375.5,-77.2 504.5,-77.2 504.5,-52.2 375.5,-52.2"/>
<text text-anchor="start" x="454.388" y="-59.8" font-family="Helvetica,sans-Serif" font-size="16.00" fill="#000000">9 rows</text>
<polygon fill="#ffffff" stroke="transparent" points="504.5,-52.2 504.5,-77.2 633.5,-77.2 633.5,-52.2 504.5,-52.2"/>
<polygon fill="none" stroke="#000000" points="504.5,-52.2 504.5,-77.2 633.5,-77.2 633.5,-52.2 504.5,-52.2"/>
<text text-anchor="start" x="607.8168" y="-59.8" font-family="Helvetica,sans-Serif" font-size="16.00" fill="#000000">2 &gt;</text>
<polygon fill="none" stroke="#000000" stroke-width="2" points="271,-51.2 271,-207.2 634,-207.2 634,-51.2 271,-51.2"/>
</a>
</g>
</g>
<!-- locations_cities&#45;&gt;locations_feature_classes -->
<g id="edge8" class="edge">
<title>locations_cities:w&#45;&gt;locations_feature_classes:e</title>
<path fill="none" stroke="#000000" d="M1131.5671,-208.0663C1108.6036,-184.9148 1078.6896,-160.4321 1046,-148.2 891.9849,-90.569 837.4773,-117.1023 676,-148.2 656.0231,-152.0472 653.844,-165.2 633.5,-165.2"/>
<polygon fill="#000000" stroke="#000000" points="1136.0816,-212.7822 1139.0133,-221.0506 1138.8477,-215.6717 1141.6138,-218.5611 1141.6138,-218.5611 1141.6138,-218.5611 1138.8477,-215.6717 1144.2143,-216.0716 1136.0816,-212.7822 1136.0816,-212.7822"/>
<ellipse fill="none" stroke="#000000" cx="1133.8687" cy="-210.4707" rx="3.2" ry="3.2"/>
</g>
<!-- locations_feature_codes -->
<g id="node7" class="node">
<title>locations_feature_codes</title>
<g id="a_node7"><a xlink:href="../../tables/locations_feature_codes.html" xlink:title="locations_feature_codes" target="_top">
<polygon fill="#ffffff" stroke="transparent" points="735,-158.7 735,-237.7 987,-237.7 987,-158.7 735,-158.7"/>
<polygon fill="#f5f5f5" stroke="transparent" points="735,-208.2 735,-237.2 987,-237.2 987,-208.2 735,-208.2"/>
<polygon fill="none" stroke="#000000" points="735,-208.2 735,-237.2 987,-237.2 987,-208.2 735,-208.2"/>
<text text-anchor="start" x="740" y="-215.3" font-family="Helvetica,sans-Serif" font-weight="bold" font-size="16.00" fill="#000000">locations_feature_codes</text>
<text text-anchor="start" x="938.7136" y="-217.8" font-family="Helvetica,sans-Serif" font-size="16.00" fill="#000000">[table]</text>
<polygon fill="none" stroke="#000000" points="735,-183.2 735,-208.2 987,-208.2 987,-183.2 735,-183.2"/>
<text text-anchor="start" x="738" y="-190.8" font-family="Helvetica,sans-Serif" font-size="16.00" fill="#000000">...</text>
<polygon fill="#ffffff" stroke="transparent" points="735,-158.2 735,-183.2 826,-183.2 826,-158.2 735,-158.2"/>
<polygon fill="none" stroke="#000000" points="735,-158.2 735,-183.2 826,-183.2 826,-158.2 735,-158.2"/>
<text text-anchor="start" x="738" y="-165.8" font-family="Helvetica,sans-Serif" font-size="16.00" fill="#000000">&lt; 1</text>
<polygon fill="#ffffff" stroke="transparent" points="826,-158.2 826,-183.2 927,-183.2 927,-158.2 826,-158.2"/>
<polygon fill="none" stroke="#000000" points="826,-158.2 826,-183.2 927,-183.2 927,-158.2 826,-158.2"/>
<text text-anchor="start" x="859.0992" y="-165.8" font-family="Helvetica,sans-Serif" font-size="16.00" fill="#000000">684 rows</text>
<polygon fill="#ffffff" stroke="transparent" points="927,-158.2 927,-183.2 987,-183.2 987,-158.2 927,-158.2"/>
<polygon fill="none" stroke="#000000" points="927,-158.2 927,-183.2 987,-183.2 987,-158.2 927,-158.2"/>
<text text-anchor="start" x="961.3168" y="-165.8" font-family="Helvetica,sans-Serif" font-size="16.00" fill="#000000">1 &gt;</text>
</a>
</g>
</g>
<!-- locations_cities&#45;&gt;locations_feature_codes -->
<g id="edge9" class="edge">
<title>locations_cities:w&#45;&gt;locations_feature_codes:e</title>
<path fill="none" stroke="#000000" d="M1064.5755,-239.4305C1042.1071,-234.8799 1018.2939,-230.057 995.1771,-225.3751"/>
<polygon fill="#000000" stroke="#000000" points="1070.907,-240.7128 1078.0332,-245.8292 1074.8274,-241.5068 1078.7478,-242.3008 1078.7478,-242.3008 1078.7478,-242.3008 1074.8274,-241.5068 1079.4624,-238.7725 1070.907,-240.7128 1070.907,-240.7128"/>
<ellipse fill="none" stroke="#000000" cx="1067.7707" cy="-240.0775" rx="3.2" ry="3.2"/>
</g>
<!-- locations_administrative_divisions_1&#45;&gt;locations_countries -->
<g id="edge2" class="edge">
<title>locations_administrative_divisions_1:w&#45;&gt;locations_countries:e</title>
<path fill="none" stroke="#000000" d="M260.7185,-323.2C247.538,-323.2 239.6875,-323.2 221.5,-323.2"/>
<polygon fill="#000000" stroke="#000000" points="267.5,-323.2001 275.5,-326.8 271.5,-323.2 275.5,-323.2 275.5,-323.2 275.5,-323.2 271.5,-323.2 275.5,-319.6 267.5,-323.2001 267.5,-323.2001"/>
<ellipse fill="none" stroke="#000000" cx="264.3" cy="-323.2001" rx="3.2" ry="3.2"/>
</g>
<!-- locations_administrative_divisions_2&#45;&gt;locations_administrative_divisions_1 -->
<g id="edge3" class="edge">
<title>locations_administrative_divisions_2:w&#45;&gt;locations_administrative_divisions_1:e</title>
<path fill="none" stroke="#000000" d="M669.5215,-346.8893C655.5047,-339.6795 650.6186,-323.2 629.5,-323.2"/>
<polygon fill="#000000" stroke="#000000" points="676.2013,-348.4167 683.1975,-353.7094 680.1006,-349.3083 684,-350.2 684,-350.2 684,-350.2 680.1006,-349.3083 684.8025,-346.6906 676.2013,-348.4167 676.2013,-348.4167"/>
<ellipse fill="none" stroke="#000000" cx="673.0818" cy="-347.7033" rx="3.2" ry="3.2"/>
</g>
<!-- locations_administrative_divisions_2&#45;&gt;locations_countries -->
<g id="edge4" class="edge">
<title>locations_administrative_divisions_2:w&#45;&gt;locations_countries:e</title>
<path fill="none" stroke="#000000" d="M669.9384,-354.3893C661.3336,-360.586 657.7317,-371.9227 643,-376.2 480.3823,-423.4151 413.7954,-451.2462 262,-376.2 235.4248,-363.0615 251.1456,-323.2 221.5,-323.2"/>
<polygon fill="#000000" stroke="#000000" points="676.333,-352.4842 685.0279,-353.6501 680.1665,-351.3421 684,-350.2 684,-350.2 684,-350.2 680.1665,-351.3421 682.9721,-346.7499 676.333,-352.4842 676.333,-352.4842"/>
<ellipse fill="none" stroke="#000000" cx="673.2662" cy="-353.3979" rx="3.2" ry="3.2"/>
</g>
<!-- locations_feature_codes&#45;&gt;locations_feature_classes -->
<g id="edge10" class="edge">
<title>locations_feature_codes:w&#45;&gt;locations_feature_classes:e</title>
<path fill="none" stroke="#000000" d="M712.3026,-170.3744C686.1377,-167.2706 659.0922,-165.2 633.5,-165.2"/>
<polygon fill="#000000" stroke="#000000" points="718.7964,-171.1952 726.2817,-175.77 722.7648,-171.6968 726.7332,-172.1985 726.7332,-172.1985 726.7332,-172.1985 722.7648,-171.6968 727.1847,-168.6269 718.7964,-171.1952 718.7964,-171.1952"/>
<ellipse fill="none" stroke="#000000" cx="715.6216" cy="-170.7939" rx="3.2" ry="3.2"/>
</g>
</g>
</svg>
