<?xml version="1.0" encoding="UTF-8" standalone="no"?>
<!DOCTYPE svg PUBLIC "-//W3C//DTD SVG 1.1//EN"
 "http://www.w3.org/Graphics/SVG/1.1/DTD/svg11.dtd">
<!-- Generated by graphviz version 2.40.1 (20161225.0304)
 -->
<!-- Title: oneDegreeRelationshipsDiagramImplied Pages: 1 -->
<svg width="1016pt" height="405pt"
 viewBox="0.00 0.00 1016.00 405.20" xmlns="http://www.w3.org/2000/svg" xmlns:xlink="http://www.w3.org/1999/xlink">
<g id="graph0" class="graph" transform="scale(1 1) rotate(0) translate(4 401.2)">
<title>oneDegreeRelationshipsDiagramImplied</title>
<polygon fill="#ffffff" stroke="transparent" points="-4,4 -4,-401.2 1012,-401.2 1012,4 -4,4"/>
<text text-anchor="middle" x="101.8088" y="-8.8" font-family="Helvetica,sans-Serif" font-size="16.00" fill="#000000">Generated by SchemaSpy</text>
<!-- locations_cities -->
<g id="node1" class="node">
<title>locations_cities</title>
<g id="a_node1"><a xlink:href="../../tables/locations_cities.html" xlink:title="locations_cities" target="_top">
<polygon fill="#ffffff" stroke="transparent" points="723,-50.2 723,-393.2 1000,-393.2 1000,-50.2 723,-50.2"/>
<polygon fill="#f5f5f5" stroke="transparent" points="723.5,-363.7 723.5,-392.7 1000.5,-392.7 1000.5,-363.7 723.5,-363.7"/>
<polygon fill="none" stroke="#000000" points="723.5,-363.7 723.5,-392.7 1000.5,-392.7 1000.5,-363.7 723.5,-363.7"/>
<text text-anchor="start" x="728.5" y="-370.8" font-family="Helvetica,sans-Serif" font-weight="bold" font-size="16.00" fill="#000000">locations_cities</text>
<text text-anchor="start" x="951.9272" y="-373.3" font-family="Helvetica,sans-Serif" font-size="16.00" fill="#000000">[table]</text>
<polygon fill="none" stroke="#000000" points="723.5,-341.7 723.5,-363.7 1000.5,-363.7 1000.5,-341.7 723.5,-341.7"/>
<image xlink:href="../../images/primaryKeys.png" width="11px" height="12px" preserveAspectRatio="xMinYMin meet" x="728.5" y="-358.7"/>
<text text-anchor="start" x="743.5" y="-344.3" font-family="Helvetica,sans-Serif" font-size="16.00" fill="#000000">id</text>
<polygon fill="#ffffff" stroke="transparent" points="723.5,-319.7 723.5,-341.7 1000.5,-341.7 1000.5,-319.7 723.5,-319.7"/>
<polygon fill="none" stroke="#000000" points="723.5,-319.7 723.5,-341.7 1000.5,-341.7 1000.5,-319.7 723.5,-319.7"/>
<text text-anchor="start" x="743.5" y="-322.3" font-family="Helvetica,sans-Serif" font-size="16.00" fill="#000000">geoname_id</text>
<polygon fill="#ffffff" stroke="transparent" points="723.5,-297.7 723.5,-319.7 1000.5,-319.7 1000.5,-297.7 723.5,-297.7"/>
<polygon fill="none" stroke="#000000" points="723.5,-297.7 723.5,-319.7 1000.5,-319.7 1000.5,-297.7 723.5,-297.7"/>
<text text-anchor="start" x="743.5" y="-300.3" font-family="Helvetica,sans-Serif" font-size="16.00" fill="#000000">name</text>
<polygon fill="#ffffff" stroke="transparent" points="723.5,-275.7 723.5,-297.7 1000.5,-297.7 1000.5,-275.7 723.5,-275.7"/>
<polygon fill="none" stroke="#000000" points="723.5,-275.7 723.5,-297.7 1000.5,-297.7 1000.5,-275.7 723.5,-275.7"/>
<text text-anchor="start" x="743.5" y="-278.3" font-family="Helvetica,sans-Serif" font-size="16.00" fill="#000000">latitude</text>
<polygon fill="#ffffff" stroke="transparent" points="723.5,-253.7 723.5,-275.7 1000.5,-275.7 1000.5,-253.7 723.5,-253.7"/>
<polygon fill="none" stroke="#000000" points="723.5,-253.7 723.5,-275.7 1000.5,-275.7 1000.5,-253.7 723.5,-253.7"/>
<text text-anchor="start" x="743.5" y="-256.3" font-family="Helvetica,sans-Serif" font-size="16.00" fill="#000000">longitude</text>
<polygon fill="none" stroke="#000000" points="723.5,-231.7 723.5,-253.7 1000.5,-253.7 1000.5,-231.7 723.5,-231.7"/>
<image xlink:href="../../images/foreignKeys.png" width="11px" height="12px" preserveAspectRatio="xMinYMin meet" x="728.5" y="-248.7"/>
<text text-anchor="start" x="743.5" y="-234.3" font-family="Helvetica,sans-Serif" font-size="16.00" fill="#000000">feature_class</text>
<polygon fill="#ffffff" stroke="transparent" points="723.5,-209.7 723.5,-231.7 1000.5,-231.7 1000.5,-209.7 723.5,-209.7"/>
<polygon fill="none" stroke="#000000" points="723.5,-209.7 723.5,-231.7 1000.5,-231.7 1000.5,-209.7 723.5,-209.7"/>
<image xlink:href="../../images/foreignKeys.png" width="11px" height="12px" preserveAspectRatio="xMinYMin meet" x="728.5" y="-226.7"/>
<text text-anchor="start" x="743.5" y="-212.3" font-family="Helvetica,sans-Serif" font-size="16.00" fill="#000000">feature_code</text>
<polygon fill="#ffffff" stroke="transparent" points="723.5,-187.7 723.5,-209.7 1000.5,-209.7 1000.5,-187.7 723.5,-187.7"/>
<polygon fill="none" stroke="#000000" points="723.5,-187.7 723.5,-209.7 1000.5,-209.7 1000.5,-187.7 723.5,-187.7"/>
<image xlink:href="../../images/foreignKeys.png" width="11px" height="12px" preserveAspectRatio="xMinYMin meet" x="728.5" y="-204.7"/>
<text text-anchor="start" x="743.5" y="-190.3" font-family="Helvetica,sans-Serif" font-size="16.00" fill="#000000">country_code</text>
<polygon fill="#ffffff" stroke="transparent" points="723.5,-165.7 723.5,-187.7 1000.5,-187.7 1000.5,-165.7 723.5,-165.7"/>
<polygon fill="none" stroke="#000000" points="723.5,-165.7 723.5,-187.7 1000.5,-187.7 1000.5,-165.7 723.5,-165.7"/>
<image xlink:href="../../images/foreignKeys.png" width="11px" height="12px" preserveAspectRatio="xMinYMin meet" x="728.5" y="-182.7"/>
<text text-anchor="start" x="743.5" y="-168.3" font-family="Helvetica,sans-Serif" font-size="16.00" fill="#000000">administrative_division_1_code</text>
<polygon fill="#ffffff" stroke="transparent" points="723.5,-143.7 723.5,-165.7 1000.5,-165.7 1000.5,-143.7 723.5,-143.7"/>
<polygon fill="none" stroke="#000000" points="723.5,-143.7 723.5,-165.7 1000.5,-165.7 1000.5,-143.7 723.5,-143.7"/>
<image xlink:href="../../images/foreignKeys.png" width="11px" height="12px" preserveAspectRatio="xMinYMin meet" x="728.5" y="-160.7"/>
<text text-anchor="start" x="743.5" y="-146.3" font-family="Helvetica,sans-Serif" font-size="16.00" fill="#000000">administrative_division_2_code</text>
<polygon fill="#ffffff" stroke="transparent" points="723.5,-121.7 723.5,-143.7 1000.5,-143.7 1000.5,-121.7 723.5,-121.7"/>
<polygon fill="none" stroke="#000000" points="723.5,-121.7 723.5,-143.7 1000.5,-143.7 1000.5,-121.7 723.5,-121.7"/>
<text text-anchor="start" x="743.5" y="-124.3" font-family="Helvetica,sans-Serif" font-size="16.00" fill="#000000">population</text>
<polygon fill="#ffffff" stroke="transparent" points="723.5,-99.7 723.5,-121.7 1000.5,-121.7 1000.5,-99.7 723.5,-99.7"/>
<polygon fill="none" stroke="#000000" points="723.5,-99.7 723.5,-121.7 1000.5,-121.7 1000.5,-99.7 723.5,-99.7"/>
<text text-anchor="start" x="743.5" y="-102.3" font-family="Helvetica,sans-Serif" font-size="16.00" fill="#000000">timezone</text>
<polygon fill="none" stroke="#000000" points="723.5,-74.7 723.5,-99.7 1000.5,-99.7 1000.5,-74.7 723.5,-74.7"/>
<text text-anchor="start" x="726.5" y="-82.3" font-family="Helvetica,sans-Serif" font-size="16.00" fill="#000000">...</text>
<polygon fill="#ffffff" stroke="transparent" points="723.5,-49.7 723.5,-74.7 810.5,-74.7 810.5,-49.7 723.5,-49.7"/>
<polygon fill="none" stroke="#000000" points="723.5,-49.7 723.5,-74.7 810.5,-74.7 810.5,-49.7 723.5,-49.7"/>
<text text-anchor="start" x="726.5" y="-57.3" font-family="Helvetica,sans-Serif" font-size="16.00" fill="#000000">&lt; 4</text>
<polygon fill="#ffffff" stroke="transparent" points="810.5,-49.7 810.5,-74.7 942.5,-74.7 942.5,-49.7 810.5,-49.7"/>
<polygon fill="none" stroke="#000000" points="810.5,-49.7 810.5,-74.7 942.5,-74.7 942.5,-49.7 810.5,-49.7"/>
<text text-anchor="start" x="843.4696" y="-57.3" font-family="Helvetica,sans-Serif" font-size="16.00" fill="#000000">210,698 rows</text>
<polygon fill="#ffffff" stroke="transparent" points="942.5,-49.7 942.5,-74.7 1000.5,-74.7 1000.5,-49.7 942.5,-49.7"/>
<polygon fill="none" stroke="#000000" points="942.5,-49.7 942.5,-74.7 1000.5,-74.7 1000.5,-49.7 942.5,-49.7"/>
<text text-anchor="start" x="974.8168" y="-57.3" font-family="Helvetica,sans-Serif" font-size="16.00" fill="#000000">1 &gt;</text>
</a>
</g>
</g>
<!-- locations_feature_classes -->
<g id="node2" class="node">
<title>locations_feature_classes</title>
<g id="a_node2"><a xlink:href="../../tables/locations_feature_classes.html" xlink:title="locations_feature_classes" target="_top">
<polygon fill="#ffffff" stroke="transparent" points="8,-105.7 8,-263.7 373,-263.7 373,-105.7 8,-105.7"/>
<polygon fill="#f5f5f5" stroke="transparent" points="10.5,-232.7 10.5,-261.7 371.5,-261.7 371.5,-232.7 10.5,-232.7"/>
<polygon fill="none" stroke="#000000" points="10.5,-232.7 10.5,-261.7 371.5,-261.7 371.5,-232.7 10.5,-232.7"/>
<text text-anchor="start" x="15.5" y="-239.8" font-family="Helvetica,sans-Serif" font-weight="bold" font-size="16.00" fill="#000000">locations_feature_classes</text>
<text text-anchor="start" x="322.9272" y="-242.3" font-family="Helvetica,sans-Serif" font-size="16.00" fill="#000000">[table]</text>
<polygon fill="none" stroke="#000000" points="10.5,-207.7 10.5,-232.7 242.5,-232.7 242.5,-207.7 10.5,-207.7"/>
<image xlink:href="../../images/primaryKeys.png" width="11px" height="12px" preserveAspectRatio="xMinYMin meet" x="15.5" y="-226.2"/>
<text text-anchor="start" x="30.5" y="-211.8" font-family="Helvetica,sans-Serif" font-size="16.00" fill="#000000">feature_class</text>
<polygon fill="none" stroke="#000000" points="242.5,-207.7 242.5,-232.7 371.5,-232.7 371.5,-207.7 242.5,-207.7"/>
<text text-anchor="start" x="245.188" y="-215.3" font-family="Helvetica,sans-Serif" font-size="16.00" fill="#000000">text[2000000000]</text>
<polygon fill="none" stroke="#000000" points="10.5,-182.7 10.5,-207.7 242.5,-207.7 242.5,-182.7 10.5,-182.7"/>
<text text-anchor="start" x="30.5" y="-186.8" font-family="Helvetica,sans-Serif" font-size="16.00" fill="#000000">description</text>
<polygon fill="none" stroke="#000000" points="242.5,-182.7 242.5,-207.7 371.5,-207.7 371.5,-182.7 242.5,-182.7"/>
<text text-anchor="start" x="245.188" y="-190.3" font-family="Helvetica,sans-Serif" font-size="16.00" fill="#000000">text[2000000000]</text>
<polygon fill="none" stroke="#000000" points="10.5,-157.7 10.5,-182.7 242.5,-182.7 242.5,-157.7 10.5,-157.7"/>
<text text-anchor="start" x="30.5" y="-161.8" font-family="Helvetica,sans-Serif" font-size="16.00" fill="#000000">inserted_at</text>
<polygon fill="none" stroke="#000000" points="242.5,-157.7 242.5,-182.7 371.5,-182.7 371.5,-157.7 242.5,-157.7"/>
<text text-anchor="start" x="245.188" y="-165.3" font-family="Helvetica,sans-Serif" font-size="16.00" fill="#000000">text[2000000000]</text>
<polygon fill="none" stroke="#000000" points="10.5,-132.7 10.5,-157.7 242.5,-157.7 242.5,-132.7 10.5,-132.7"/>
<text text-anchor="start" x="30.5" y="-136.8" font-family="Helvetica,sans-Serif" font-size="16.00" fill="#000000">updated_at</text>
<polygon fill="none" stroke="#000000" points="242.5,-132.7 242.5,-157.7 371.5,-157.7 371.5,-132.7 242.5,-132.7"/>
<text text-anchor="start" x="245.188" y="-140.3" font-family="Helvetica,sans-Serif" font-size="16.00" fill="#000000">text[2000000000]</text>
<polygon fill="#ffffff" stroke="transparent" points="10.5,-107.7 10.5,-132.7 113.5,-132.7 113.5,-107.7 10.5,-107.7"/>
<polygon fill="none" stroke="#000000" points="10.5,-107.7 10.5,-132.7 113.5,-132.7 113.5,-107.7 10.5,-107.7"/>
<text text-anchor="start" x="13.5" y="-115.3" font-family="Helvetica,sans-Serif" font-size="16.00" fill="#000000">&lt; 0</text>
<polygon fill="#ffffff" stroke="transparent" points="113.5,-107.7 113.5,-132.7 242.5,-132.7 242.5,-107.7 113.5,-107.7"/>
<polygon fill="none" stroke="#000000" points="113.5,-107.7 113.5,-132.7 242.5,-132.7 242.5,-107.7 113.5,-107.7"/>
<text text-anchor="start" x="192.388" y="-115.3" font-family="Helvetica,sans-Serif" font-size="16.00" fill="#000000">9 rows</text>
<polygon fill="#ffffff" stroke="transparent" points="242.5,-107.7 242.5,-132.7 371.5,-132.7 371.5,-107.7 242.5,-107.7"/>
<polygon fill="none" stroke="#000000" points="242.5,-107.7 242.5,-132.7 371.5,-132.7 371.5,-107.7 242.5,-107.7"/>
<text text-anchor="start" x="345.8168" y="-115.3" font-family="Helvetica,sans-Serif" font-size="16.00" fill="#000000">2 &gt;</text>
<polygon fill="none" stroke="#000000" stroke-width="2" points="9,-106.7 9,-262.7 372,-262.7 372,-106.7 9,-106.7"/>
</a>
</g>
</g>
<!-- locations_cities&#45;&gt;locations_feature_classes -->
<g id="edge1" class="edge">
<title>locations_cities:w&#45;&gt;locations_feature_classes:e</title>
<path fill="none" stroke="#000000" d="M709.0272,-244.263C700.6362,-246.2266 694.7094,-249.4862 682,-250.7 563.4284,-262.0243 527.5301,-286.733 414,-250.7 391.9626,-243.7056 394.6207,-220.7 371.5,-220.7"/>
<polygon fill="#000000" stroke="#000000" points="715.5462,-243.559 723.8865,-246.2792 719.5231,-243.1295 723.5,-242.7 723.5,-242.7 723.5,-242.7 719.5231,-243.1295 723.1135,-239.1208 715.5462,-243.559 715.5462,-243.559"/>
<ellipse fill="none" stroke="#000000" cx="712.3647" cy="-243.9026" rx="3.2" ry="3.2"/>
</g>
<!-- locations_feature_codes -->
<g id="node3" class="node">
<title>locations_feature_codes</title>
<g id="a_node3"><a xlink:href="../../tables/locations_feature_codes.html" xlink:title="locations_feature_codes" target="_top">
<polygon fill="#ffffff" stroke="transparent" points="422,-95.2 422,-240.2 674,-240.2 674,-95.2 422,-95.2"/>
<polygon fill="#f5f5f5" stroke="transparent" points="422,-210.7 422,-239.7 674,-239.7 674,-210.7 422,-210.7"/>
<polygon fill="none" stroke="#000000" points="422,-210.7 422,-239.7 674,-239.7 674,-210.7 422,-210.7"/>
<text text-anchor="start" x="427" y="-217.8" font-family="Helvetica,sans-Serif" font-weight="bold" font-size="16.00" fill="#000000">locations_feature_codes</text>
<text text-anchor="start" x="625.7136" y="-220.3" font-family="Helvetica,sans-Serif" font-size="16.00" fill="#000000">[table]</text>
<polygon fill="none" stroke="#000000" points="422,-188.7 422,-210.7 674,-210.7 674,-188.7 422,-188.7"/>
<image xlink:href="../../images/primaryKeys.png" width="11px" height="12px" preserveAspectRatio="xMinYMin meet" x="427" y="-205.7"/>
<text text-anchor="start" x="458" y="-191.3" font-family="Helvetica,sans-Serif" font-size="16.00" fill="#000000">feature_code</text>
<polygon fill="#ffffff" stroke="transparent" points="422,-166.7 422,-188.7 674,-188.7 674,-166.7 422,-166.7"/>
<polygon fill="none" stroke="#000000" points="422,-166.7 422,-188.7 674,-188.7 674,-166.7 422,-166.7"/>
<image xlink:href="../../images/foreignKeys.png" width="11px" height="12px" preserveAspectRatio="xMinYMin meet" x="427" y="-183.7"/>
<text text-anchor="start" x="458" y="-169.3" font-family="Helvetica,sans-Serif" font-size="16.00" fill="#000000">feature_class</text>
<polygon fill="#ffffff" stroke="transparent" points="422,-144.7 422,-166.7 674,-166.7 674,-144.7 422,-144.7"/>
<polygon fill="none" stroke="#000000" points="422,-144.7 422,-166.7 674,-166.7 674,-144.7 422,-144.7"/>
<text text-anchor="start" x="458" y="-147.3" font-family="Helvetica,sans-Serif" font-size="16.00" fill="#000000">order</text>
<polygon fill="none" stroke="#000000" points="422,-119.7 422,-144.7 674,-144.7 674,-119.7 422,-119.7"/>
<text text-anchor="start" x="425" y="-127.3" font-family="Helvetica,sans-Serif" font-size="16.00" fill="#000000">...</text>
<polygon fill="#ffffff" stroke="transparent" points="422,-94.7 422,-119.7 513,-119.7 513,-94.7 422,-94.7"/>
<polygon fill="none" stroke="#000000" points="422,-94.7 422,-119.7 513,-119.7 513,-94.7 422,-94.7"/>
<text text-anchor="start" x="425" y="-102.3" font-family="Helvetica,sans-Serif" font-size="16.00" fill="#000000">&lt; 1</text>
<polygon fill="#ffffff" stroke="transparent" points="513,-94.7 513,-119.7 614,-119.7 614,-94.7 513,-94.7"/>
<polygon fill="none" stroke="#000000" points="513,-94.7 513,-119.7 614,-119.7 614,-94.7 513,-94.7"/>
<text text-anchor="start" x="546.0992" y="-102.3" font-family="Helvetica,sans-Serif" font-size="16.00" fill="#000000">684 rows</text>
<polygon fill="#ffffff" stroke="transparent" points="614,-94.7 614,-119.7 674,-119.7 674,-94.7 614,-94.7"/>
<polygon fill="none" stroke="#000000" points="614,-94.7 614,-119.7 674,-119.7 674,-94.7 614,-94.7"/>
<text text-anchor="start" x="648.3168" y="-102.3" font-family="Helvetica,sans-Serif" font-size="16.00" fill="#000000">1 &gt;</text>
</a>
</g>
</g>
<!-- locations_cities&#45;&gt;locations_feature_codes -->
<g id="edge2" class="edge">
<title>locations_cities:w&#45;&gt;locations_feature_codes:e</title>
<path fill="none" stroke="#000000" d="M709.4114,-217.6014C697.4749,-211.7599 692.1102,-199.7 674,-199.7"/>
<polygon fill="#000000" stroke="#000000" points="715.6867,-218.9815 722.7267,-224.216 719.5934,-219.8408 723.5,-220.7 723.5,-220.7 723.5,-220.7 719.5934,-219.8408 724.2733,-217.184 715.6867,-218.9815 715.6867,-218.9815"/>
<ellipse fill="none" stroke="#000000" cx="712.5614" cy="-218.2941" rx="3.2" ry="3.2"/>
</g>
<!-- locations_feature_codes&#45;&gt;locations_feature_classes -->
<g id="edge3" class="edge">
<title>locations_feature_codes:w&#45;&gt;locations_feature_classes:e</title>
<path fill="none" stroke="#000000" d="M408.0963,-182.3018C394.3919,-193.3946 394.9908,-220.7 371.5,-220.7"/>
<polygon fill="#000000" stroke="#000000" points="414.4052,-180.2137 423.1312,-181.1177 418.2026,-178.9569 422,-177.7 422,-177.7 422,-177.7 418.2026,-178.9569 420.8688,-174.2823 414.4052,-180.2137 414.4052,-180.2137"/>
<ellipse fill="none" stroke="#000000" cx="411.3672" cy="-181.2192" rx="3.2" ry="3.2"/>
</g>
</g>
</svg>
