<?xml version="1.0" encoding="UTF-8" standalone="no"?>
<!DOCTYPE svg PUBLIC "-//W3C//DTD SVG 1.1//EN"
 "http://www.w3.org/Graphics/SVG/1.1/DTD/svg11.dtd">
<!-- Generated by graphviz version 2.40.1 (20161225.0304)
 -->
<!-- Title: oneDegreeRelationshipsDiagram Pages: 1 -->
<svg width="1530pt" height="878pt"
 viewBox="0.00 0.00 1530.00 878.20" xmlns="http://www.w3.org/2000/svg" xmlns:xlink="http://www.w3.org/1999/xlink">
<g id="graph0" class="graph" transform="scale(1 1) rotate(0) translate(4 874.2)">
<title>oneDegreeRelationshipsDiagram</title>
<polygon fill="#ffffff" stroke="transparent" points="-4,4 -4,-874.2 1526,-874.2 1526,4 -4,4"/>
<text text-anchor="middle" x="101.8088" y="-8.8" font-family="Helvetica,sans-Serif" font-size="16.00" fill="#000000">Generated by SchemaSpy</text>
<!-- locations_administrative_divisions_1 -->
<g id="node1" class="node">
<title>locations_administrative_divisions_1</title>
<g id="a_node1"><a xlink:href="../../tables/locations_administrative_divisions_1.html" xlink:title="locations_administrative_divisions_1" target="_top">
<polygon fill="#ffffff" stroke="transparent" points="757,-614.2 757,-803.2 1111,-803.2 1111,-614.2 757,-614.2"/>
<polygon fill="#f5f5f5" stroke="transparent" points="757,-773.7 757,-802.7 1111,-802.7 1111,-773.7 757,-773.7"/>
<polygon fill="none" stroke="#000000" points="757,-773.7 757,-802.7 1111,-802.7 1111,-773.7 757,-773.7"/>
<text text-anchor="start" x="762" y="-780.8" font-family="Helvetica,sans-Serif" font-weight="bold" font-size="16.00" fill="#000000">locations_administrative_divisions_1</text>
<text text-anchor="start" x="1062.7136" y="-783.3" font-family="Helvetica,sans-Serif" font-size="16.00" fill="#000000">[table]</text>
<polygon fill="none" stroke="#000000" points="757,-751.7 757,-773.7 1111,-773.7 1111,-751.7 757,-751.7"/>
<image xlink:href="../../images/primaryKeys.png" width="11px" height="12px" preserveAspectRatio="xMinYMin meet" x="762" y="-768.7"/>
<text text-anchor="start" x="790" y="-754.3" font-family="Helvetica,sans-Serif" font-size="16.00" fill="#000000">administrative_division_1_code</text>
<polygon fill="#ffffff" stroke="transparent" points="757,-729.7 757,-751.7 1111,-751.7 1111,-729.7 757,-729.7"/>
<polygon fill="none" stroke="#000000" points="757,-729.7 757,-751.7 1111,-751.7 1111,-729.7 757,-729.7"/>
<image xlink:href="../../images/foreignKeys.png" width="11px" height="12px" preserveAspectRatio="xMinYMin meet" x="762" y="-746.7"/>
<text text-anchor="start" x="790" y="-732.3" font-family="Helvetica,sans-Serif" font-size="16.00" fill="#000000">country_code</text>
<polygon fill="#ffffff" stroke="transparent" points="757,-707.7 757,-729.7 1111,-729.7 1111,-707.7 757,-707.7"/>
<polygon fill="none" stroke="#000000" points="757,-707.7 757,-729.7 1111,-729.7 1111,-707.7 757,-707.7"/>
<text text-anchor="start" x="790" y="-710.3" font-family="Helvetica,sans-Serif" font-size="16.00" fill="#000000">administrative_division_1_name</text>
<polygon fill="#ffffff" stroke="transparent" points="757,-685.7 757,-707.7 1111,-707.7 1111,-685.7 757,-685.7"/>
<polygon fill="none" stroke="#000000" points="757,-685.7 757,-707.7 1111,-707.7 1111,-685.7 757,-685.7"/>
<text text-anchor="start" x="790" y="-688.3" font-family="Helvetica,sans-Serif" font-size="16.00" fill="#000000">administrative_division_1_ascii_name</text>
<polygon fill="#ffffff" stroke="transparent" points="757,-663.7 757,-685.7 1111,-685.7 1111,-663.7 757,-663.7"/>
<polygon fill="none" stroke="#000000" points="757,-663.7 757,-685.7 1111,-685.7 1111,-663.7 757,-663.7"/>
<text text-anchor="start" x="790" y="-666.3" font-family="Helvetica,sans-Serif" font-size="16.00" fill="#000000">geoname_id</text>
<polygon fill="none" stroke="#000000" points="757,-638.7 757,-663.7 1111,-663.7 1111,-638.7 757,-638.7"/>
<text text-anchor="start" x="760" y="-646.3" font-family="Helvetica,sans-Serif" font-size="16.00" fill="#000000">...</text>
<polygon fill="#ffffff" stroke="transparent" points="757,-613.7 757,-638.7 892,-638.7 892,-613.7 757,-613.7"/>
<polygon fill="none" stroke="#000000" points="757,-613.7 757,-638.7 892,-638.7 892,-613.7 757,-613.7"/>
<text text-anchor="start" x="760" y="-621.3" font-family="Helvetica,sans-Serif" font-size="16.00" fill="#000000">&lt; 1</text>
<polygon fill="#ffffff" stroke="transparent" points="892,-613.7 892,-638.7 1029,-638.7 1029,-613.7 892,-613.7"/>
<polygon fill="none" stroke="#000000" points="892,-613.7 892,-638.7 1029,-638.7 1029,-613.7 892,-613.7"/>
<text text-anchor="start" x="947.7584" y="-621.3" font-family="Helvetica,sans-Serif" font-size="16.00" fill="#000000">3,893 rows</text>
<polygon fill="#ffffff" stroke="transparent" points="1029,-613.7 1029,-638.7 1111,-638.7 1111,-613.7 1029,-613.7"/>
<polygon fill="none" stroke="#000000" points="1029,-613.7 1029,-638.7 1111,-638.7 1111,-613.7 1029,-613.7"/>
<text text-anchor="start" x="1085.3168" y="-621.3" font-family="Helvetica,sans-Serif" font-size="16.00" fill="#000000">2 &gt;</text>
</a>
</g>
</g>
<!-- locations_countries -->
<g id="node2" class="node">
<title>locations_countries</title>
<g id="a_node2"><a xlink:href="../../tables/locations_countries.html" xlink:title="locations_countries" target="_top">
<polygon fill="#ffffff" stroke="transparent" points="280,-50.2 280,-633.2 708,-633.2 708,-50.2 280,-50.2"/>
<polygon fill="#f5f5f5" stroke="transparent" points="282,-601.7 282,-630.7 706,-630.7 706,-601.7 282,-601.7"/>
<polygon fill="none" stroke="#000000" points="282,-601.7 282,-630.7 706,-630.7 706,-601.7 282,-601.7"/>
<text text-anchor="start" x="287" y="-608.8" font-family="Helvetica,sans-Serif" font-weight="bold" font-size="16.00" fill="#000000">locations_countries</text>
<text text-anchor="start" x="657.4272" y="-611.3" font-family="Helvetica,sans-Serif" font-size="16.00" fill="#000000">[table]</text>
<polygon fill="none" stroke="#000000" points="282,-576.7 282,-601.7 524,-601.7 524,-576.7 282,-576.7"/>
<image xlink:href="../../images/primaryKeys.png" width="11px" height="12px" preserveAspectRatio="xMinYMin meet" x="287" y="-595.2"/>
<text text-anchor="start" x="302" y="-580.8" font-family="Helvetica,sans-Serif" font-size="16.00" fill="#000000">iso_country_code</text>
<polygon fill="none" stroke="#000000" points="524,-576.7 524,-601.7 706,-601.7 706,-576.7 524,-576.7"/>
<text text-anchor="start" x="527" y="-584.3" font-family="Helvetica,sans-Serif" font-size="16.00" fill="#000000">text[2000000000]</text>
<polygon fill="#ffffff" stroke="transparent" points="282,-551.7 282,-576.7 524,-576.7 524,-551.7 282,-551.7"/>
<polygon fill="none" stroke="#000000" points="282,-551.7 282,-576.7 524,-576.7 524,-551.7 282,-551.7"/>
<text text-anchor="start" x="302" y="-555.8" font-family="Helvetica,sans-Serif" font-size="16.00" fill="#000000">iso_3_country_code</text>
<polygon fill="none" stroke="#000000" points="524,-551.7 524,-576.7 706,-576.7 706,-551.7 524,-551.7"/>
<text text-anchor="start" x="527" y="-559.3" font-family="Helvetica,sans-Serif" font-size="16.00" fill="#000000">text[2000000000]</text>
<polygon fill="#ffffff" stroke="transparent" points="282,-526.7 282,-551.7 524,-551.7 524,-526.7 282,-526.7"/>
<polygon fill="none" stroke="#000000" points="282,-526.7 282,-551.7 524,-551.7 524,-526.7 282,-526.7"/>
<text text-anchor="start" x="302" y="-530.8" font-family="Helvetica,sans-Serif" font-size="16.00" fill="#000000">iso_numeric_country_code</text>
<polygon fill="none" stroke="#000000" points="524,-526.7 524,-551.7 706,-551.7 706,-526.7 524,-526.7"/>
<text text-anchor="start" x="527" y="-534.3" font-family="Helvetica,sans-Serif" font-size="16.00" fill="#000000">integer[2000000000]</text>
<polygon fill="none" stroke="#000000" points="282,-501.7 282,-526.7 524,-526.7 524,-501.7 282,-501.7"/>
<text text-anchor="start" x="302" y="-505.8" font-family="Helvetica,sans-Serif" font-size="16.00" fill="#000000">fips_country_code</text>
<polygon fill="none" stroke="#000000" points="524,-501.7 524,-526.7 706,-526.7 706,-501.7 524,-501.7"/>
<text text-anchor="start" x="527" y="-509.3" font-family="Helvetica,sans-Serif" font-size="16.00" fill="#000000">text[2000000000]</text>
<polygon fill="#ffffff" stroke="transparent" points="282,-476.7 282,-501.7 524,-501.7 524,-476.7 282,-476.7"/>
<polygon fill="none" stroke="#000000" points="282,-476.7 282,-501.7 524,-501.7 524,-476.7 282,-476.7"/>
<text text-anchor="start" x="302" y="-480.8" font-family="Helvetica,sans-Serif" font-size="16.00" fill="#000000">country_name</text>
<polygon fill="none" stroke="#000000" points="524,-476.7 524,-501.7 706,-501.7 706,-476.7 524,-476.7"/>
<text text-anchor="start" x="527" y="-484.3" font-family="Helvetica,sans-Serif" font-size="16.00" fill="#000000">text[2000000000]</text>
<polygon fill="none" stroke="#000000" points="282,-451.7 282,-476.7 524,-476.7 524,-451.7 282,-451.7"/>
<text text-anchor="start" x="302" y="-455.8" font-family="Helvetica,sans-Serif" font-size="16.00" fill="#000000">capital</text>
<polygon fill="none" stroke="#000000" points="524,-451.7 524,-476.7 706,-476.7 706,-451.7 524,-451.7"/>
<text text-anchor="start" x="527" y="-459.3" font-family="Helvetica,sans-Serif" font-size="16.00" fill="#000000">text[2000000000]</text>
<polygon fill="#ffffff" stroke="transparent" points="282,-426.7 282,-451.7 524,-451.7 524,-426.7 282,-426.7"/>
<polygon fill="none" stroke="#000000" points="282,-426.7 282,-451.7 524,-451.7 524,-426.7 282,-426.7"/>
<text text-anchor="start" x="302" y="-430.8" font-family="Helvetica,sans-Serif" font-size="16.00" fill="#000000">area</text>
<polygon fill="none" stroke="#000000" points="524,-426.7 524,-451.7 706,-451.7 706,-426.7 524,-426.7"/>
<text text-anchor="start" x="526.5208" y="-434.3" font-family="Helvetica,sans-Serif" font-size="16.00" fill="#000000">numeric[2000000000,10]</text>
<polygon fill="#ffffff" stroke="transparent" points="282,-401.7 282,-426.7 524,-426.7 524,-401.7 282,-401.7"/>
<polygon fill="none" stroke="#000000" points="282,-401.7 282,-426.7 524,-426.7 524,-401.7 282,-401.7"/>
<text text-anchor="start" x="302" y="-405.8" font-family="Helvetica,sans-Serif" font-size="16.00" fill="#000000">population</text>
<polygon fill="none" stroke="#000000" points="524,-401.7 524,-426.7 706,-426.7 706,-401.7 524,-401.7"/>
<text text-anchor="start" x="527" y="-409.3" font-family="Helvetica,sans-Serif" font-size="16.00" fill="#000000">integer[2000000000]</text>
<polygon fill="#ffffff" stroke="transparent" points="282,-376.7 282,-401.7 524,-401.7 524,-376.7 282,-376.7"/>
<polygon fill="none" stroke="#000000" points="282,-376.7 282,-401.7 524,-401.7 524,-376.7 282,-376.7"/>
<image xlink:href="../../images/foreignKeys.png" width="11px" height="12px" preserveAspectRatio="xMinYMin meet" x="287" y="-395.2"/>
<text text-anchor="start" x="302" y="-380.8" font-family="Helvetica,sans-Serif" font-size="16.00" fill="#000000">continent_code</text>
<polygon fill="none" stroke="#000000" points="524,-376.7 524,-401.7 706,-401.7 706,-376.7 524,-376.7"/>
<text text-anchor="start" x="527" y="-384.3" font-family="Helvetica,sans-Serif" font-size="16.00" fill="#000000">text[2000000000]</text>
<polygon fill="#ffffff" stroke="transparent" points="282,-351.7 282,-376.7 524,-376.7 524,-351.7 282,-351.7"/>
<polygon fill="none" stroke="#000000" points="282,-351.7 282,-376.7 524,-376.7 524,-351.7 282,-351.7"/>
<text text-anchor="start" x="302" y="-355.8" font-family="Helvetica,sans-Serif" font-size="16.00" fill="#000000">tld</text>
<polygon fill="none" stroke="#000000" points="524,-351.7 524,-376.7 706,-376.7 706,-351.7 524,-351.7"/>
<text text-anchor="start" x="527" y="-359.3" font-family="Helvetica,sans-Serif" font-size="16.00" fill="#000000">text[2000000000]</text>
<polygon fill="#ffffff" stroke="transparent" points="282,-326.7 282,-351.7 524,-351.7 524,-326.7 282,-326.7"/>
<polygon fill="none" stroke="#000000" points="282,-326.7 282,-351.7 524,-351.7 524,-326.7 282,-326.7"/>
<text text-anchor="start" x="302" y="-330.8" font-family="Helvetica,sans-Serif" font-size="16.00" fill="#000000">currency_code</text>
<polygon fill="none" stroke="#000000" points="524,-326.7 524,-351.7 706,-351.7 706,-326.7 524,-326.7"/>
<text text-anchor="start" x="527" y="-334.3" font-family="Helvetica,sans-Serif" font-size="16.00" fill="#000000">text[2000000000]</text>
<polygon fill="none" stroke="#000000" points="282,-301.7 282,-326.7 524,-326.7 524,-301.7 282,-301.7"/>
<text text-anchor="start" x="302" y="-305.8" font-family="Helvetica,sans-Serif" font-size="16.00" fill="#000000">currency_name</text>
<polygon fill="none" stroke="#000000" points="524,-301.7 524,-326.7 706,-326.7 706,-301.7 524,-301.7"/>
<text text-anchor="start" x="527" y="-309.3" font-family="Helvetica,sans-Serif" font-size="16.00" fill="#000000">text[2000000000]</text>
<polygon fill="none" stroke="#000000" points="282,-276.7 282,-301.7 524,-301.7 524,-276.7 282,-276.7"/>
<text text-anchor="start" x="302" y="-280.8" font-family="Helvetica,sans-Serif" font-size="16.00" fill="#000000">phone</text>
<polygon fill="none" stroke="#000000" points="524,-276.7 524,-301.7 706,-301.7 706,-276.7 524,-276.7"/>
<text text-anchor="start" x="527" y="-284.3" font-family="Helvetica,sans-Serif" font-size="16.00" fill="#000000">text[2000000000]</text>
<polygon fill="none" stroke="#000000" points="282,-251.7 282,-276.7 524,-276.7 524,-251.7 282,-251.7"/>
<text text-anchor="start" x="302" y="-255.8" font-family="Helvetica,sans-Serif" font-size="16.00" fill="#000000">postal_code_format</text>
<polygon fill="none" stroke="#000000" points="524,-251.7 524,-276.7 706,-276.7 706,-251.7 524,-251.7"/>
<text text-anchor="start" x="527" y="-259.3" font-family="Helvetica,sans-Serif" font-size="16.00" fill="#000000">text[2000000000]</text>
<polygon fill="none" stroke="#000000" points="282,-226.7 282,-251.7 524,-251.7 524,-226.7 282,-226.7"/>
<text text-anchor="start" x="302" y="-230.8" font-family="Helvetica,sans-Serif" font-size="16.00" fill="#000000">postal_code_regex</text>
<polygon fill="none" stroke="#000000" points="524,-226.7 524,-251.7 706,-251.7 706,-226.7 524,-226.7"/>
<text text-anchor="start" x="527" y="-234.3" font-family="Helvetica,sans-Serif" font-size="16.00" fill="#000000">text[2000000000]</text>
<polygon fill="none" stroke="#000000" points="282,-201.7 282,-226.7 524,-226.7 524,-201.7 282,-201.7"/>
<text text-anchor="start" x="302" y="-205.8" font-family="Helvetica,sans-Serif" font-size="16.00" fill="#000000">languages</text>
<polygon fill="none" stroke="#000000" points="524,-201.7 524,-226.7 706,-226.7 706,-201.7 524,-201.7"/>
<text text-anchor="start" x="527" y="-209.3" font-family="Helvetica,sans-Serif" font-size="16.00" fill="#000000">text[2000000000]</text>
<polygon fill="#ffffff" stroke="transparent" points="282,-176.7 282,-201.7 524,-201.7 524,-176.7 282,-176.7"/>
<polygon fill="none" stroke="#000000" points="282,-176.7 282,-201.7 524,-201.7 524,-176.7 282,-176.7"/>
<text text-anchor="start" x="302" y="-180.8" font-family="Helvetica,sans-Serif" font-size="16.00" fill="#000000">geoname_id</text>
<polygon fill="none" stroke="#000000" points="524,-176.7 524,-201.7 706,-201.7 706,-176.7 524,-176.7"/>
<text text-anchor="start" x="527" y="-184.3" font-family="Helvetica,sans-Serif" font-size="16.00" fill="#000000">integer[2000000000]</text>
<polygon fill="none" stroke="#000000" points="282,-151.7 282,-176.7 524,-176.7 524,-151.7 282,-151.7"/>
<text text-anchor="start" x="302" y="-155.8" font-family="Helvetica,sans-Serif" font-size="16.00" fill="#000000">neighbours</text>
<polygon fill="none" stroke="#000000" points="524,-151.7 524,-176.7 706,-176.7 706,-151.7 524,-151.7"/>
<text text-anchor="start" x="527" y="-159.3" font-family="Helvetica,sans-Serif" font-size="16.00" fill="#000000">text[2000000000]</text>
<polygon fill="none" stroke="#000000" points="282,-126.7 282,-151.7 524,-151.7 524,-126.7 282,-126.7"/>
<text text-anchor="start" x="302" y="-130.8" font-family="Helvetica,sans-Serif" font-size="16.00" fill="#000000">equivalent_fips_code</text>
<polygon fill="none" stroke="#000000" points="524,-126.7 524,-151.7 706,-151.7 706,-126.7 524,-126.7"/>
<text text-anchor="start" x="527" y="-134.3" font-family="Helvetica,sans-Serif" font-size="16.00" fill="#000000">text[2000000000]</text>
<polygon fill="none" stroke="#000000" points="282,-101.7 282,-126.7 524,-126.7 524,-101.7 282,-101.7"/>
<text text-anchor="start" x="302" y="-105.8" font-family="Helvetica,sans-Serif" font-size="16.00" fill="#000000">inserted_at</text>
<polygon fill="none" stroke="#000000" points="524,-101.7 524,-126.7 706,-126.7 706,-101.7 524,-101.7"/>
<text text-anchor="start" x="527" y="-109.3" font-family="Helvetica,sans-Serif" font-size="16.00" fill="#000000">text[2000000000]</text>
<polygon fill="none" stroke="#000000" points="282,-76.7 282,-101.7 524,-101.7 524,-76.7 282,-76.7"/>
<text text-anchor="start" x="302" y="-80.8" font-family="Helvetica,sans-Serif" font-size="16.00" fill="#000000">updated_at</text>
<polygon fill="none" stroke="#000000" points="524,-76.7 524,-101.7 706,-101.7 706,-76.7 524,-76.7"/>
<text text-anchor="start" x="527" y="-84.3" font-family="Helvetica,sans-Serif" font-size="16.00" fill="#000000">text[2000000000]</text>
<polygon fill="#ffffff" stroke="transparent" points="282,-51.7 282,-76.7 382,-76.7 382,-51.7 282,-51.7"/>
<polygon fill="none" stroke="#000000" points="282,-51.7 282,-76.7 382,-76.7 382,-51.7 282,-51.7"/>
<text text-anchor="start" x="285" y="-59.3" font-family="Helvetica,sans-Serif" font-size="16.00" fill="#000000">&lt; 1</text>
<polygon fill="#ffffff" stroke="transparent" points="382,-51.7 382,-76.7 524,-76.7 524,-51.7 382,-51.7"/>
<polygon fill="none" stroke="#000000" points="382,-51.7 382,-76.7 524,-76.7 524,-51.7 382,-51.7"/>
<text text-anchor="start" x="456.0992" y="-59.3" font-family="Helvetica,sans-Serif" font-size="16.00" fill="#000000">252 rows</text>
<polygon fill="#ffffff" stroke="transparent" points="524,-51.7 524,-76.7 706,-76.7 706,-51.7 524,-51.7"/>
<polygon fill="none" stroke="#000000" points="524,-51.7 524,-76.7 706,-76.7 706,-51.7 524,-51.7"/>
<text text-anchor="start" x="680.3168" y="-59.3" font-family="Helvetica,sans-Serif" font-size="16.00" fill="#000000">3 &gt;</text>
<polygon fill="none" stroke="#000000" stroke-width="2" points="281,-51.2 281,-632.2 707,-632.2 707,-51.2 281,-51.2"/>
</a>
</g>
</g>
<!-- locations_administrative_divisions_1&#45;&gt;locations_countries -->
<g id="edge1" class="edge">
<title>locations_administrative_divisions_1:w&#45;&gt;locations_countries:e</title>
<path fill="none" stroke="#000000" d="M742.6499,-737.8184C699.9534,-716.9427 771.0248,-589.7 706,-589.7"/>
<polygon fill="#000000" stroke="#000000" points="749.1566,-739.1249 756.2912,-744.2295 753.0783,-739.9125 757,-740.7 757,-740.7 757,-740.7 753.0783,-739.9125 757.7088,-737.1705 749.1566,-739.1249 749.1566,-739.1249"/>
<ellipse fill="none" stroke="#000000" cx="746.0192" cy="-738.4949" rx="3.2" ry="3.2"/>
</g>
<!-- locations_continents -->
<g id="node5" class="node">
<title>locations_continents</title>
<g id="a_node5"><a xlink:href="../../tables/locations_continents.html" xlink:title="locations_continents" target="_top">
<polygon fill="#ffffff" stroke="transparent" points="8,-307.2 8,-430.2 231,-430.2 231,-307.2 8,-307.2"/>
<polygon fill="#f5f5f5" stroke="transparent" points="8.5,-400.7 8.5,-429.7 231.5,-429.7 231.5,-400.7 8.5,-400.7"/>
<polygon fill="none" stroke="#000000" points="8.5,-400.7 8.5,-429.7 231.5,-429.7 231.5,-400.7 8.5,-400.7"/>
<text text-anchor="start" x="13.5" y="-407.8" font-family="Helvetica,sans-Serif" font-weight="bold" font-size="16.00" fill="#000000">locations_continents</text>
<text text-anchor="start" x="183.2136" y="-410.3" font-family="Helvetica,sans-Serif" font-size="16.00" fill="#000000">[table]</text>
<polygon fill="none" stroke="#000000" points="8.5,-378.7 8.5,-400.7 231.5,-400.7 231.5,-378.7 8.5,-378.7"/>
<image xlink:href="../../images/primaryKeys.png" width="11px" height="12px" preserveAspectRatio="xMinYMin meet" x="13.5" y="-395.7"/>
<text text-anchor="start" x="44.5" y="-381.3" font-family="Helvetica,sans-Serif" font-size="16.00" fill="#000000">continent_code</text>
<polygon fill="#ffffff" stroke="transparent" points="8.5,-356.7 8.5,-378.7 231.5,-378.7 231.5,-356.7 8.5,-356.7"/>
<polygon fill="none" stroke="#000000" points="8.5,-356.7 8.5,-378.7 231.5,-378.7 231.5,-356.7 8.5,-356.7"/>
<text text-anchor="start" x="44.5" y="-359.3" font-family="Helvetica,sans-Serif" font-size="16.00" fill="#000000">continent_name</text>
<polygon fill="none" stroke="#000000" points="8.5,-331.7 8.5,-356.7 231.5,-356.7 231.5,-331.7 8.5,-331.7"/>
<text text-anchor="start" x="11.5" y="-339.3" font-family="Helvetica,sans-Serif" font-size="16.00" fill="#000000">...</text>
<polygon fill="#ffffff" stroke="transparent" points="8.5,-306.7 8.5,-331.7 86.5,-331.7 86.5,-306.7 8.5,-306.7"/>
<polygon fill="none" stroke="#000000" points="8.5,-306.7 8.5,-331.7 86.5,-331.7 86.5,-306.7 8.5,-306.7"/>
<text text-anchor="start" x="11.5" y="-314.3" font-family="Helvetica,sans-Serif" font-size="16.00" fill="#000000"> &#160;</text>
<polygon fill="#ffffff" stroke="transparent" points="86.5,-306.7 86.5,-331.7 171.5,-331.7 171.5,-306.7 86.5,-306.7"/>
<polygon fill="none" stroke="#000000" points="86.5,-306.7 86.5,-331.7 171.5,-331.7 171.5,-306.7 86.5,-306.7"/>
<text text-anchor="start" x="121.388" y="-314.3" font-family="Helvetica,sans-Serif" font-size="16.00" fill="#000000">7 rows</text>
<polygon fill="#ffffff" stroke="transparent" points="171.5,-306.7 171.5,-331.7 231.5,-331.7 231.5,-306.7 171.5,-306.7"/>
<polygon fill="none" stroke="#000000" points="171.5,-306.7 171.5,-331.7 231.5,-331.7 231.5,-306.7 171.5,-306.7"/>
<text text-anchor="start" x="205.8168" y="-314.3" font-family="Helvetica,sans-Serif" font-size="16.00" fill="#000000">1 &gt;</text>
</a>
</g>
</g>
<!-- locations_countries&#45;&gt;locations_continents -->
<g id="edge6" class="edge">
<title>locations_countries:w&#45;&gt;locations_continents:e</title>
<path fill="none" stroke="#000000" d="M267.4203,-389.7C255.5435,-389.7 248.158,-389.7 231.5,-389.7"/>
<polygon fill="#000000" stroke="#000000" points="274,-389.7001 282,-393.3 278,-389.7 282,-389.7 282,-389.7 282,-389.7 278,-389.7 282,-386.1 274,-389.7001 274,-389.7001"/>
<ellipse fill="none" stroke="#000000" cx="270.8" cy="-389.7001" rx="3.2" ry="3.2"/>
</g>
<!-- locations_administrative_divisions_2 -->
<g id="node3" class="node">
<title>locations_administrative_divisions_2</title>
<g id="a_node3"><a xlink:href="../../tables/locations_administrative_divisions_2.html" xlink:title="locations_administrative_divisions_2" target="_top">
<polygon fill="#ffffff" stroke="transparent" points="1160,-655.2 1160,-866.2 1514,-866.2 1514,-655.2 1160,-655.2"/>
<polygon fill="#f5f5f5" stroke="transparent" points="1160,-836.7 1160,-865.7 1514,-865.7 1514,-836.7 1160,-836.7"/>
<polygon fill="none" stroke="#000000" points="1160,-836.7 1160,-865.7 1514,-865.7 1514,-836.7 1160,-836.7"/>
<text text-anchor="start" x="1165" y="-843.8" font-family="Helvetica,sans-Serif" font-weight="bold" font-size="16.00" fill="#000000">locations_administrative_divisions_2</text>
<text text-anchor="start" x="1465.7136" y="-846.3" font-family="Helvetica,sans-Serif" font-size="16.00" fill="#000000">[table]</text>
<polygon fill="none" stroke="#000000" points="1160,-814.7 1160,-836.7 1514,-836.7 1514,-814.7 1160,-814.7"/>
<image xlink:href="../../images/primaryKeys.png" width="11px" height="12px" preserveAspectRatio="xMinYMin meet" x="1165" y="-831.7"/>
<text text-anchor="start" x="1193" y="-817.3" font-family="Helvetica,sans-Serif" font-size="16.00" fill="#000000">administrative_division_2_code</text>
<polygon fill="#ffffff" stroke="transparent" points="1160,-792.7 1160,-814.7 1514,-814.7 1514,-792.7 1160,-792.7"/>
<polygon fill="none" stroke="#000000" points="1160,-792.7 1160,-814.7 1514,-814.7 1514,-792.7 1160,-792.7"/>
<image xlink:href="../../images/foreignKeys.png" width="11px" height="12px" preserveAspectRatio="xMinYMin meet" x="1165" y="-809.7"/>
<text text-anchor="start" x="1193" y="-795.3" font-family="Helvetica,sans-Serif" font-size="16.00" fill="#000000">administrative_division_1_code</text>
<polygon fill="#ffffff" stroke="transparent" points="1160,-770.7 1160,-792.7 1514,-792.7 1514,-770.7 1160,-770.7"/>
<polygon fill="none" stroke="#000000" points="1160,-770.7 1160,-792.7 1514,-792.7 1514,-770.7 1160,-770.7"/>
<image xlink:href="../../images/foreignKeys.png" width="11px" height="12px" preserveAspectRatio="xMinYMin meet" x="1165" y="-787.7"/>
<text text-anchor="start" x="1193" y="-773.3" font-family="Helvetica,sans-Serif" font-size="16.00" fill="#000000">country_code</text>
<polygon fill="#ffffff" stroke="transparent" points="1160,-748.7 1160,-770.7 1514,-770.7 1514,-748.7 1160,-748.7"/>
<polygon fill="none" stroke="#000000" points="1160,-748.7 1160,-770.7 1514,-770.7 1514,-748.7 1160,-748.7"/>
<text text-anchor="start" x="1193" y="-751.3" font-family="Helvetica,sans-Serif" font-size="16.00" fill="#000000">administrative_division_2_name</text>
<polygon fill="#ffffff" stroke="transparent" points="1160,-726.7 1160,-748.7 1514,-748.7 1514,-726.7 1160,-726.7"/>
<polygon fill="none" stroke="#000000" points="1160,-726.7 1160,-748.7 1514,-748.7 1514,-726.7 1160,-726.7"/>
<text text-anchor="start" x="1193" y="-729.3" font-family="Helvetica,sans-Serif" font-size="16.00" fill="#000000">administrative_division_2_ascii_name</text>
<polygon fill="#ffffff" stroke="transparent" points="1160,-704.7 1160,-726.7 1514,-726.7 1514,-704.7 1160,-704.7"/>
<polygon fill="none" stroke="#000000" points="1160,-704.7 1160,-726.7 1514,-726.7 1514,-704.7 1160,-704.7"/>
<text text-anchor="start" x="1193" y="-707.3" font-family="Helvetica,sans-Serif" font-size="16.00" fill="#000000">geoname_id</text>
<polygon fill="none" stroke="#000000" points="1160,-679.7 1160,-704.7 1514,-704.7 1514,-679.7 1160,-679.7"/>
<text text-anchor="start" x="1163" y="-687.3" font-family="Helvetica,sans-Serif" font-size="16.00" fill="#000000">...</text>
<polygon fill="#ffffff" stroke="transparent" points="1160,-654.7 1160,-679.7 1297,-679.7 1297,-654.7 1160,-654.7"/>
<polygon fill="none" stroke="#000000" points="1160,-654.7 1160,-679.7 1297,-679.7 1297,-654.7 1160,-654.7"/>
<text text-anchor="start" x="1163" y="-662.3" font-family="Helvetica,sans-Serif" font-size="16.00" fill="#000000">&lt; 2</text>
<polygon fill="#ffffff" stroke="transparent" points="1297,-654.7 1297,-679.7 1445,-679.7 1445,-654.7 1297,-654.7"/>
<polygon fill="none" stroke="#000000" points="1297,-654.7 1297,-679.7 1445,-679.7 1445,-654.7 1297,-654.7"/>
<text text-anchor="start" x="1354.864" y="-662.3" font-family="Helvetica,sans-Serif" font-size="16.00" fill="#000000">47,229 rows</text>
<polygon fill="#ffffff" stroke="transparent" points="1445,-654.7 1445,-679.7 1514,-679.7 1514,-654.7 1445,-654.7"/>
<polygon fill="none" stroke="#000000" points="1445,-654.7 1445,-679.7 1514,-679.7 1514,-654.7 1445,-654.7"/>
<text text-anchor="start" x="1502.1072" y="-662.3" font-family="Helvetica,sans-Serif" font-size="16.00" fill="#000000"> &#160;</text>
</a>
</g>
</g>
<!-- locations_administrative_divisions_2&#45;&gt;locations_administrative_divisions_1 -->
<g id="edge2" class="edge">
<title>locations_administrative_divisions_2:w&#45;&gt;locations_administrative_divisions_1:e</title>
<path fill="none" stroke="#000000" d="M1146.1819,-798.9968C1133.2811,-788.2274 1133.4061,-762.7 1111,-762.7"/>
<polygon fill="#000000" stroke="#000000" points="1152.4267,-801.1222 1158.84,-807.108 1156.2133,-802.4111 1160,-803.7 1160,-803.7 1160,-803.7 1156.2133,-802.4111 1161.16,-800.292 1152.4267,-801.1222 1152.4267,-801.1222"/>
<ellipse fill="none" stroke="#000000" cx="1149.3973" cy="-800.0911" rx="3.2" ry="3.2"/>
</g>
<!-- locations_administrative_divisions_2&#45;&gt;locations_countries -->
<g id="edge3" class="edge">
<title>locations_administrative_divisions_2:w&#45;&gt;locations_countries:e</title>
<path fill="none" stroke="#000000" d="M1145.4834,-779.8955C1092.4609,-764.2977 1177.2504,-651.6926 1119,-603.7 977.2525,-486.9139 889.661,-589.7 706,-589.7"/>
<polygon fill="#000000" stroke="#000000" points="1152.0611,-780.7131 1159.5559,-785.2725 1156.0305,-781.2066 1160,-781.7 1160,-781.7 1160,-781.7 1156.0305,-781.2066 1160.4441,-778.1275 1152.0611,-780.7131 1152.0611,-780.7131"/>
<ellipse fill="none" stroke="#000000" cx="1148.8855" cy="-780.3184" rx="3.2" ry="3.2"/>
</g>
<!-- locations_cities -->
<g id="node4" class="node">
<title>locations_cities</title>
<g id="a_node4"><a xlink:href="../../tables/locations_cities.html" xlink:title="locations_cities" target="_top">
<polygon fill="#ffffff" stroke="transparent" points="1198.5,-291.2 1198.5,-634.2 1475.5,-634.2 1475.5,-291.2 1198.5,-291.2"/>
<polygon fill="#f5f5f5" stroke="transparent" points="1199,-604.7 1199,-633.7 1476,-633.7 1476,-604.7 1199,-604.7"/>
<polygon fill="none" stroke="#000000" points="1199,-604.7 1199,-633.7 1476,-633.7 1476,-604.7 1199,-604.7"/>
<text text-anchor="start" x="1204" y="-611.8" font-family="Helvetica,sans-Serif" font-weight="bold" font-size="16.00" fill="#000000">locations_cities</text>
<text text-anchor="start" x="1427.4272" y="-614.3" font-family="Helvetica,sans-Serif" font-size="16.00" fill="#000000">[table]</text>
<polygon fill="none" stroke="#000000" points="1199,-582.7 1199,-604.7 1476,-604.7 1476,-582.7 1199,-582.7"/>
<image xlink:href="../../images/primaryKeys.png" width="11px" height="12px" preserveAspectRatio="xMinYMin meet" x="1204" y="-599.7"/>
<text text-anchor="start" x="1219" y="-585.3" font-family="Helvetica,sans-Serif" font-size="16.00" fill="#000000">id</text>
<polygon fill="#ffffff" stroke="transparent" points="1199,-560.7 1199,-582.7 1476,-582.7 1476,-560.7 1199,-560.7"/>
<polygon fill="none" stroke="#000000" points="1199,-560.7 1199,-582.7 1476,-582.7 1476,-560.7 1199,-560.7"/>
<text text-anchor="start" x="1219" y="-563.3" font-family="Helvetica,sans-Serif" font-size="16.00" fill="#000000">geoname_id</text>
<polygon fill="#ffffff" stroke="transparent" points="1199,-538.7 1199,-560.7 1476,-560.7 1476,-538.7 1199,-538.7"/>
<polygon fill="none" stroke="#000000" points="1199,-538.7 1199,-560.7 1476,-560.7 1476,-538.7 1199,-538.7"/>
<text text-anchor="start" x="1219" y="-541.3" font-family="Helvetica,sans-Serif" font-size="16.00" fill="#000000">name</text>
<polygon fill="#ffffff" stroke="transparent" points="1199,-516.7 1199,-538.7 1476,-538.7 1476,-516.7 1199,-516.7"/>
<polygon fill="none" stroke="#000000" points="1199,-516.7 1199,-538.7 1476,-538.7 1476,-516.7 1199,-516.7"/>
<text text-anchor="start" x="1219" y="-519.3" font-family="Helvetica,sans-Serif" font-size="16.00" fill="#000000">latitude</text>
<polygon fill="#ffffff" stroke="transparent" points="1199,-494.7 1199,-516.7 1476,-516.7 1476,-494.7 1199,-494.7"/>
<polygon fill="none" stroke="#000000" points="1199,-494.7 1199,-516.7 1476,-516.7 1476,-494.7 1199,-494.7"/>
<text text-anchor="start" x="1219" y="-497.3" font-family="Helvetica,sans-Serif" font-size="16.00" fill="#000000">longitude</text>
<polygon fill="none" stroke="#000000" points="1199,-472.7 1199,-494.7 1476,-494.7 1476,-472.7 1199,-472.7"/>
<image xlink:href="../../images/foreignKeys.png" width="11px" height="12px" preserveAspectRatio="xMinYMin meet" x="1204" y="-489.7"/>
<text text-anchor="start" x="1219" y="-475.3" font-family="Helvetica,sans-Serif" font-size="16.00" fill="#000000">feature_class</text>
<polygon fill="#ffffff" stroke="transparent" points="1199,-450.7 1199,-472.7 1476,-472.7 1476,-450.7 1199,-450.7"/>
<polygon fill="none" stroke="#000000" points="1199,-450.7 1199,-472.7 1476,-472.7 1476,-450.7 1199,-450.7"/>
<image xlink:href="../../images/foreignKeys.png" width="11px" height="12px" preserveAspectRatio="xMinYMin meet" x="1204" y="-467.7"/>
<text text-anchor="start" x="1219" y="-453.3" font-family="Helvetica,sans-Serif" font-size="16.00" fill="#000000">feature_code</text>
<polygon fill="#ffffff" stroke="transparent" points="1199,-428.7 1199,-450.7 1476,-450.7 1476,-428.7 1199,-428.7"/>
<polygon fill="none" stroke="#000000" points="1199,-428.7 1199,-450.7 1476,-450.7 1476,-428.7 1199,-428.7"/>
<image xlink:href="../../images/foreignKeys.png" width="11px" height="12px" preserveAspectRatio="xMinYMin meet" x="1204" y="-445.7"/>
<text text-anchor="start" x="1219" y="-431.3" font-family="Helvetica,sans-Serif" font-size="16.00" fill="#000000">country_code</text>
<polygon fill="#ffffff" stroke="transparent" points="1199,-406.7 1199,-428.7 1476,-428.7 1476,-406.7 1199,-406.7"/>
<polygon fill="none" stroke="#000000" points="1199,-406.7 1199,-428.7 1476,-428.7 1476,-406.7 1199,-406.7"/>
<image xlink:href="../../images/foreignKeys.png" width="11px" height="12px" preserveAspectRatio="xMinYMin meet" x="1204" y="-423.7"/>
<text text-anchor="start" x="1219" y="-409.3" font-family="Helvetica,sans-Serif" font-size="16.00" fill="#000000">administrative_division_1_code</text>
<polygon fill="#ffffff" stroke="transparent" points="1199,-384.7 1199,-406.7 1476,-406.7 1476,-384.7 1199,-384.7"/>
<polygon fill="none" stroke="#000000" points="1199,-384.7 1199,-406.7 1476,-406.7 1476,-384.7 1199,-384.7"/>
<image xlink:href="../../images/foreignKeys.png" width="11px" height="12px" preserveAspectRatio="xMinYMin meet" x="1204" y="-401.7"/>
<text text-anchor="start" x="1219" y="-387.3" font-family="Helvetica,sans-Serif" font-size="16.00" fill="#000000">administrative_division_2_code</text>
<polygon fill="#ffffff" stroke="transparent" points="1199,-362.7 1199,-384.7 1476,-384.7 1476,-362.7 1199,-362.7"/>
<polygon fill="none" stroke="#000000" points="1199,-362.7 1199,-384.7 1476,-384.7 1476,-362.7 1199,-362.7"/>
<text text-anchor="start" x="1219" y="-365.3" font-family="Helvetica,sans-Serif" font-size="16.00" fill="#000000">population</text>
<polygon fill="#ffffff" stroke="transparent" points="1199,-340.7 1199,-362.7 1476,-362.7 1476,-340.7 1199,-340.7"/>
<polygon fill="none" stroke="#000000" points="1199,-340.7 1199,-362.7 1476,-362.7 1476,-340.7 1199,-340.7"/>
<text text-anchor="start" x="1219" y="-343.3" font-family="Helvetica,sans-Serif" font-size="16.00" fill="#000000">timezone</text>
<polygon fill="none" stroke="#000000" points="1199,-315.7 1199,-340.7 1476,-340.7 1476,-315.7 1199,-315.7"/>
<text text-anchor="start" x="1202" y="-323.3" font-family="Helvetica,sans-Serif" font-size="16.00" fill="#000000">...</text>
<polygon fill="#ffffff" stroke="transparent" points="1199,-290.7 1199,-315.7 1286,-315.7 1286,-290.7 1199,-290.7"/>
<polygon fill="none" stroke="#000000" points="1199,-290.7 1199,-315.7 1286,-315.7 1286,-290.7 1199,-290.7"/>
<text text-anchor="start" x="1202" y="-298.3" font-family="Helvetica,sans-Serif" font-size="16.00" fill="#000000">&lt; 4</text>
<polygon fill="#ffffff" stroke="transparent" points="1286,-290.7 1286,-315.7 1418,-315.7 1418,-290.7 1286,-290.7"/>
<polygon fill="none" stroke="#000000" points="1286,-290.7 1286,-315.7 1418,-315.7 1418,-290.7 1286,-290.7"/>
<text text-anchor="start" x="1318.9696" y="-298.3" font-family="Helvetica,sans-Serif" font-size="16.00" fill="#000000">210,698 rows</text>
<polygon fill="#ffffff" stroke="transparent" points="1418,-290.7 1418,-315.7 1476,-315.7 1476,-290.7 1418,-290.7"/>
<polygon fill="none" stroke="#000000" points="1418,-290.7 1418,-315.7 1476,-315.7 1476,-290.7 1418,-290.7"/>
<text text-anchor="start" x="1450.3168" y="-298.3" font-family="Helvetica,sans-Serif" font-size="16.00" fill="#000000">1 &gt;</text>
</a>
</g>
</g>
<!-- locations_cities&#45;&gt;locations_administrative_divisions_1 -->
<g id="edge4" class="edge">
<title>locations_cities:w&#45;&gt;locations_administrative_divisions_1:e</title>
<path fill="none" stroke="#000000" d="M1188.0308,-427.2874C1157.3661,-483.0074 1146.6201,-762.7 1111,-762.7"/>
<polygon fill="#000000" stroke="#000000" points="1192.9765,-422.9647 1201.3691,-420.4106 1195.9882,-420.3324 1199,-417.7 1199,-417.7 1199,-417.7 1195.9882,-420.3324 1196.6309,-414.9894 1192.9765,-422.9647 1192.9765,-422.9647"/>
<ellipse fill="none" stroke="#000000" cx="1190.567" cy="-425.0706" rx="3.2" ry="3.2"/>
</g>
<!-- locations_cities&#45;&gt;locations_countries -->
<g id="edge5" class="edge">
<title>locations_cities:w&#45;&gt;locations_countries:e</title>
<path fill="none" stroke="#000000" d="M1184.7087,-442.4316C1103.1951,-462.7616 732.3361,-589.7 706,-589.7"/>
<polygon fill="#000000" stroke="#000000" points="1191.1422,-441.2019 1199.6759,-443.236 1195.0711,-440.451 1199,-439.7 1199,-439.7 1199,-439.7 1195.0711,-440.451 1198.3241,-436.164 1191.1422,-441.2019 1191.1422,-441.2019"/>
<ellipse fill="none" stroke="#000000" cx="1187.9991" cy="-441.8027" rx="3.2" ry="3.2"/>
</g>
</g>
</svg>
