<?xml version="1.0" encoding="UTF-8" standalone="no"?>
<!DOCTYPE svg PUBLIC "-//W3C//DTD SVG 1.1//EN"
 "http://www.w3.org/Graphics/SVG/1.1/DTD/svg11.dtd">
<!-- Generated by graphviz version 2.40.1 (20161225.0304)
 -->
<!-- Title: twoDegreesRelationshipsDiagram Pages: 1 -->
<svg width="1720pt" height="523pt"
 viewBox="0.00 0.00 1720.00 522.76" xmlns="http://www.w3.org/2000/svg" xmlns:xlink="http://www.w3.org/1999/xlink">
<g id="graph0" class="graph" transform="scale(1 1) rotate(0) translate(4 518.7595)">
<title>twoDegreesRelationshipsDiagram</title>
<polygon fill="#ffffff" stroke="transparent" points="-4,4 -4,-518.7595 1716,-518.7595 1716,4 -4,4"/>
<text text-anchor="middle" x="101.8088" y="-8.8" font-family="Helvetica,sans-Serif" font-size="16.00" fill="#000000">Generated by SchemaSpy</text>
<!-- journal_entries -->
<g id="node1" class="node">
<title>journal_entries</title>
<g id="a_node1"><a xlink:href="../../tables/journal_entries.html" xlink:title="journal_entries" target="_top">
<polygon fill="#ffffff" stroke="transparent" points="1530,-359.9119 1530,-438.9119 1704,-438.9119 1704,-359.9119 1530,-359.9119"/>
<polygon fill="#f5f5f5" stroke="transparent" points="1530,-409.4119 1530,-438.4119 1704,-438.4119 1704,-409.4119 1530,-409.4119"/>
<polygon fill="none" stroke="#000000" points="1530,-409.4119 1530,-438.4119 1704,-438.4119 1704,-409.4119 1530,-409.4119"/>
<text text-anchor="start" x="1535" y="-416.5119" font-family="Helvetica,sans-Serif" font-weight="bold" font-size="16.00" fill="#000000">journal_entries</text>
<text text-anchor="start" x="1655.7136" y="-419.0119" font-family="Helvetica,sans-Serif" font-size="16.00" fill="#000000">[table]</text>
<polygon fill="none" stroke="#000000" points="1530,-384.4119 1530,-409.4119 1704,-409.4119 1704,-384.4119 1530,-384.4119"/>
<text text-anchor="start" x="1533" y="-392.0119" font-family="Helvetica,sans-Serif" font-size="16.00" fill="#000000">...</text>
<polygon fill="#ffffff" stroke="transparent" points="1530,-359.4119 1530,-384.4119 1590,-384.4119 1590,-359.4119 1530,-359.4119"/>
<polygon fill="none" stroke="#000000" points="1530,-359.4119 1530,-384.4119 1590,-384.4119 1590,-359.4119 1530,-359.4119"/>
<text text-anchor="start" x="1533" y="-367.0119" font-family="Helvetica,sans-Serif" font-size="16.00" fill="#000000">&lt; 3</text>
<polygon fill="#ffffff" stroke="transparent" points="1590,-359.4119 1590,-384.4119 1659,-384.4119 1659,-359.4119 1590,-359.4119"/>
<polygon fill="none" stroke="#000000" points="1590,-359.4119 1590,-384.4119 1659,-384.4119 1659,-359.4119 1590,-359.4119"/>
<text text-anchor="start" x="1608.888" y="-367.0119" font-family="Helvetica,sans-Serif" font-size="16.00" fill="#000000">2 rows</text>
<polygon fill="#ffffff" stroke="transparent" points="1659,-359.4119 1659,-384.4119 1704,-384.4119 1704,-359.4119 1659,-359.4119"/>
<polygon fill="none" stroke="#000000" points="1659,-359.4119 1659,-384.4119 1704,-384.4119 1704,-359.4119 1659,-359.4119"/>
<text text-anchor="start" x="1678.3168" y="-367.0119" font-family="Helvetica,sans-Serif" font-size="16.00" fill="#000000">1 &gt;</text>
</a>
</g>
</g>
<!-- locations_cities -->
<g id="node2" class="node">
<title>locations_cities</title>
<g id="a_node2"><a xlink:href="../../tables/locations_cities.html" xlink:title="locations_cities" target="_top">
<polygon fill="#ffffff" stroke="transparent" points="1214,-356.9119 1214,-435.9119 1394,-435.9119 1394,-356.9119 1214,-356.9119"/>
<polygon fill="#f5f5f5" stroke="transparent" points="1214,-406.4119 1214,-435.4119 1394,-435.4119 1394,-406.4119 1214,-406.4119"/>
<polygon fill="none" stroke="#000000" points="1214,-406.4119 1214,-435.4119 1394,-435.4119 1394,-406.4119 1214,-406.4119"/>
<text text-anchor="start" x="1219" y="-413.5119" font-family="Helvetica,sans-Serif" font-weight="bold" font-size="16.00" fill="#000000">locations_cities</text>
<text text-anchor="start" x="1345.7136" y="-416.0119" font-family="Helvetica,sans-Serif" font-size="16.00" fill="#000000">[table]</text>
<polygon fill="none" stroke="#000000" points="1214,-381.4119 1214,-406.4119 1394,-406.4119 1394,-381.4119 1214,-381.4119"/>
<text text-anchor="start" x="1217" y="-389.0119" font-family="Helvetica,sans-Serif" font-size="16.00" fill="#000000">...</text>
<polygon fill="#ffffff" stroke="transparent" points="1214,-356.4119 1214,-381.4119 1253,-381.4119 1253,-356.4119 1214,-356.4119"/>
<polygon fill="none" stroke="#000000" points="1214,-356.4119 1214,-381.4119 1253,-381.4119 1253,-356.4119 1214,-356.4119"/>
<text text-anchor="start" x="1217" y="-364.0119" font-family="Helvetica,sans-Serif" font-size="16.00" fill="#000000">&lt; 4</text>
<polygon fill="#ffffff" stroke="transparent" points="1253,-356.4119 1253,-381.4119 1360,-381.4119 1360,-356.4119 1253,-356.4119"/>
<polygon fill="none" stroke="#000000" points="1253,-356.4119 1253,-381.4119 1360,-381.4119 1360,-356.4119 1253,-356.4119"/>
<text text-anchor="start" x="1260.9696" y="-364.0119" font-family="Helvetica,sans-Serif" font-size="16.00" fill="#000000">210,698 rows</text>
<polygon fill="#ffffff" stroke="transparent" points="1360,-356.4119 1360,-381.4119 1394,-381.4119 1394,-356.4119 1360,-356.4119"/>
<polygon fill="none" stroke="#000000" points="1360,-356.4119 1360,-381.4119 1394,-381.4119 1394,-356.4119 1360,-356.4119"/>
<text text-anchor="start" x="1368.3168" y="-364.0119" font-family="Helvetica,sans-Serif" font-size="16.00" fill="#000000">1 &gt;</text>
</a>
</g>
</g>
<!-- journal_entries&#45;&gt;locations_cities -->
<g id="edge1" class="edge">
<title>journal_entries:w&#45;&gt;locations_cities:e</title>
<path fill="none" stroke="#000000" d="M1515.3632,-396.4119C1477.5431,-396.4119 1437.2905,-396.4119 1402.1717,-396.4119"/>
<polygon fill="#000000" stroke="#000000" points="1522,-396.4119 1530,-400.0119 1526,-396.4119 1530,-396.4119 1530,-396.4119 1530,-396.4119 1526,-396.4119 1530,-392.8119 1522,-396.4119 1522,-396.4119"/>
<ellipse fill="none" stroke="#000000" cx="1518.8" cy="-396.412" rx="3.2" ry="3.2"/>
</g>
<!-- locations_administrative_divisions_1 -->
<g id="node3" class="node">
<title>locations_administrative_divisions_1</title>
<g id="a_node3"><a xlink:href="../../tables/locations_administrative_divisions_1.html" xlink:title="locations_administrative_divisions_1" target="_top">
<polygon fill="#ffffff" stroke="transparent" points="593,-108.9119 593,-341.9119 1078,-341.9119 1078,-108.9119 593,-108.9119"/>
<polygon fill="#f5f5f5" stroke="transparent" points="595.5,-310.4119 595.5,-339.4119 1076.5,-339.4119 1076.5,-310.4119 595.5,-310.4119"/>
<polygon fill="none" stroke="#000000" points="595.5,-310.4119 595.5,-339.4119 1076.5,-339.4119 1076.5,-310.4119 595.5,-310.4119"/>
<text text-anchor="start" x="600.5" y="-317.5119" font-family="Helvetica,sans-Serif" font-weight="bold" font-size="16.00" fill="#000000">locations_administrative_divisions_1</text>
<text text-anchor="start" x="1027.9272" y="-320.0119" font-family="Helvetica,sans-Serif" font-size="16.00" fill="#000000">[table]</text>
<polygon fill="none" stroke="#000000" points="595.5,-285.4119 595.5,-310.4119 924.5,-310.4119 924.5,-285.4119 595.5,-285.4119"/>
<image xlink:href="../../images/primaryKeys.png" width="11px" height="12px" preserveAspectRatio="xMinYMin meet" x="600.5" y="-303.912"/>
<text text-anchor="start" x="615.5" y="-289.5119" font-family="Helvetica,sans-Serif" font-size="16.00" fill="#000000">administrative_division_1_code</text>
<polygon fill="none" stroke="#000000" points="924.5,-285.4119 924.5,-310.4119 1076.5,-310.4119 1076.5,-285.4119 924.5,-285.4119"/>
<text text-anchor="start" x="927.5" y="-293.0119" font-family="Helvetica,sans-Serif" font-size="16.00" fill="#000000">text[2000000000]</text>
<polygon fill="#ffffff" stroke="transparent" points="595.5,-260.4119 595.5,-285.4119 924.5,-285.4119 924.5,-260.4119 595.5,-260.4119"/>
<polygon fill="none" stroke="#000000" points="595.5,-260.4119 595.5,-285.4119 924.5,-285.4119 924.5,-260.4119 595.5,-260.4119"/>
<image xlink:href="../../images/foreignKeys.png" width="11px" height="12px" preserveAspectRatio="xMinYMin meet" x="600.5" y="-278.912"/>
<text text-anchor="start" x="615.5" y="-264.5119" font-family="Helvetica,sans-Serif" font-size="16.00" fill="#000000">country_code</text>
<polygon fill="none" stroke="#000000" points="924.5,-260.4119 924.5,-285.4119 1076.5,-285.4119 1076.5,-260.4119 924.5,-260.4119"/>
<text text-anchor="start" x="927.5" y="-268.0119" font-family="Helvetica,sans-Serif" font-size="16.00" fill="#000000">text[2000000000]</text>
<polygon fill="#ffffff" stroke="transparent" points="595.5,-235.4119 595.5,-260.4119 924.5,-260.4119 924.5,-235.4119 595.5,-235.4119"/>
<polygon fill="none" stroke="#000000" points="595.5,-235.4119 595.5,-260.4119 924.5,-260.4119 924.5,-235.4119 595.5,-235.4119"/>
<text text-anchor="start" x="615.5" y="-239.5119" font-family="Helvetica,sans-Serif" font-size="16.00" fill="#000000">administrative_division_1_name</text>
<polygon fill="none" stroke="#000000" points="924.5,-235.4119 924.5,-260.4119 1076.5,-260.4119 1076.5,-235.4119 924.5,-235.4119"/>
<text text-anchor="start" x="927.5" y="-243.0119" font-family="Helvetica,sans-Serif" font-size="16.00" fill="#000000">text[2000000000]</text>
<polygon fill="#ffffff" stroke="transparent" points="595.5,-210.4119 595.5,-235.4119 924.5,-235.4119 924.5,-210.4119 595.5,-210.4119"/>
<polygon fill="none" stroke="#000000" points="595.5,-210.4119 595.5,-235.4119 924.5,-235.4119 924.5,-210.4119 595.5,-210.4119"/>
<text text-anchor="start" x="615.5" y="-214.5119" font-family="Helvetica,sans-Serif" font-size="16.00" fill="#000000">administrative_division_1_ascii_name</text>
<polygon fill="none" stroke="#000000" points="924.5,-210.4119 924.5,-235.4119 1076.5,-235.4119 1076.5,-210.4119 924.5,-210.4119"/>
<text text-anchor="start" x="927.5" y="-218.0119" font-family="Helvetica,sans-Serif" font-size="16.00" fill="#000000">text[2000000000]</text>
<polygon fill="#ffffff" stroke="transparent" points="595.5,-185.4119 595.5,-210.4119 924.5,-210.4119 924.5,-185.4119 595.5,-185.4119"/>
<polygon fill="none" stroke="#000000" points="595.5,-185.4119 595.5,-210.4119 924.5,-210.4119 924.5,-185.4119 595.5,-185.4119"/>
<text text-anchor="start" x="615.5" y="-189.5119" font-family="Helvetica,sans-Serif" font-size="16.00" fill="#000000">geoname_id</text>
<polygon fill="none" stroke="#000000" points="924.5,-185.4119 924.5,-210.4119 1076.5,-210.4119 1076.5,-185.4119 924.5,-185.4119"/>
<text text-anchor="start" x="927.1312" y="-193.0119" font-family="Helvetica,sans-Serif" font-size="16.00" fill="#000000">integer[2000000000]</text>
<polygon fill="none" stroke="#000000" points="595.5,-160.4119 595.5,-185.4119 924.5,-185.4119 924.5,-160.4119 595.5,-160.4119"/>
<text text-anchor="start" x="615.5" y="-164.5119" font-family="Helvetica,sans-Serif" font-size="16.00" fill="#000000">inserted_at</text>
<polygon fill="none" stroke="#000000" points="924.5,-160.4119 924.5,-185.4119 1076.5,-185.4119 1076.5,-160.4119 924.5,-160.4119"/>
<text text-anchor="start" x="927.5" y="-168.0119" font-family="Helvetica,sans-Serif" font-size="16.00" fill="#000000">text[2000000000]</text>
<polygon fill="none" stroke="#000000" points="595.5,-135.4119 595.5,-160.4119 924.5,-160.4119 924.5,-135.4119 595.5,-135.4119"/>
<text text-anchor="start" x="615.5" y="-139.5119" font-family="Helvetica,sans-Serif" font-size="16.00" fill="#000000">updated_at</text>
<polygon fill="none" stroke="#000000" points="924.5,-135.4119 924.5,-160.4119 1076.5,-160.4119 1076.5,-135.4119 924.5,-135.4119"/>
<text text-anchor="start" x="927.5" y="-143.0119" font-family="Helvetica,sans-Serif" font-size="16.00" fill="#000000">text[2000000000]</text>
<polygon fill="#ffffff" stroke="transparent" points="595.5,-110.4119 595.5,-135.4119 731.5,-135.4119 731.5,-110.4119 595.5,-110.4119"/>
<polygon fill="none" stroke="#000000" points="595.5,-110.4119 595.5,-135.4119 731.5,-135.4119 731.5,-110.4119 595.5,-110.4119"/>
<text text-anchor="start" x="598.5" y="-118.0119" font-family="Helvetica,sans-Serif" font-size="16.00" fill="#000000">&lt; 1</text>
<polygon fill="#ffffff" stroke="transparent" points="731.5,-110.4119 731.5,-135.4119 924.5,-135.4119 924.5,-110.4119 731.5,-110.4119"/>
<polygon fill="none" stroke="#000000" points="731.5,-110.4119 731.5,-135.4119 924.5,-135.4119 924.5,-110.4119 731.5,-110.4119"/>
<text text-anchor="start" x="843.2584" y="-118.0119" font-family="Helvetica,sans-Serif" font-size="16.00" fill="#000000">3,893 rows</text>
<polygon fill="#ffffff" stroke="transparent" points="924.5,-110.4119 924.5,-135.4119 1076.5,-135.4119 1076.5,-110.4119 924.5,-110.4119"/>
<polygon fill="none" stroke="#000000" points="924.5,-110.4119 924.5,-135.4119 1076.5,-135.4119 1076.5,-110.4119 924.5,-110.4119"/>
<text text-anchor="start" x="1050.8168" y="-118.0119" font-family="Helvetica,sans-Serif" font-size="16.00" fill="#000000">2 &gt;</text>
<polygon fill="none" stroke="#000000" stroke-width="2" points="594,-109.9119 594,-340.9119 1077,-340.9119 1077,-109.9119 594,-109.9119"/>
</a>
</g>
</g>
<!-- locations_cities&#45;&gt;locations_administrative_divisions_1 -->
<g id="edge5" class="edge">
<title>locations_cities:w&#45;&gt;locations_administrative_divisions_1:e</title>
<path fill="none" stroke="#000000" d="M1228.3559,-345.6195C1185.6483,-321.7313 1130.204,-298.4119 1076.5,-298.4119"/>
<polygon fill="#000000" stroke="#000000" points="1233.9712,-348.8591 1239.1016,-355.9752 1237.4359,-350.858 1240.9007,-352.8569 1240.9007,-352.8569 1240.9007,-352.8569 1237.4359,-350.858 1242.6997,-349.7387 1233.9712,-348.8591 1233.9712,-348.8591"/>
<ellipse fill="none" stroke="#000000" cx="1231.1994" cy="-347.26" rx="3.2" ry="3.2"/>
</g>
<!-- locations_countries -->
<g id="node4" class="node">
<title>locations_countries</title>
<g id="a_node4"><a xlink:href="../../tables/locations_countries.html" xlink:title="locations_countries" target="_top">
<polygon fill="#ffffff" stroke="transparent" points="305.5,-233.9119 305.5,-312.9119 518.5,-312.9119 518.5,-233.9119 305.5,-233.9119"/>
<polygon fill="#f5f5f5" stroke="transparent" points="306,-283.4119 306,-312.4119 519,-312.4119 519,-283.4119 306,-283.4119"/>
<polygon fill="none" stroke="#000000" points="306,-283.4119 306,-312.4119 519,-312.4119 519,-283.4119 306,-283.4119"/>
<text text-anchor="start" x="311" y="-290.5119" font-family="Helvetica,sans-Serif" font-weight="bold" font-size="16.00" fill="#000000">locations_countries</text>
<text text-anchor="start" x="470.7136" y="-293.0119" font-family="Helvetica,sans-Serif" font-size="16.00" fill="#000000">[table]</text>
<polygon fill="none" stroke="#000000" points="306,-258.4119 306,-283.4119 519,-283.4119 519,-258.4119 306,-258.4119"/>
<text text-anchor="start" x="309" y="-266.0119" font-family="Helvetica,sans-Serif" font-size="16.00" fill="#000000">...</text>
<polygon fill="#ffffff" stroke="transparent" points="306,-233.4119 306,-258.4119 377,-258.4119 377,-233.4119 306,-233.4119"/>
<polygon fill="none" stroke="#000000" points="306,-233.4119 306,-258.4119 377,-258.4119 377,-233.4119 306,-233.4119"/>
<text text-anchor="start" x="309" y="-241.0119" font-family="Helvetica,sans-Serif" font-size="16.00" fill="#000000">&lt; 1</text>
<polygon fill="#ffffff" stroke="transparent" points="377,-233.4119 377,-258.4119 469,-258.4119 469,-233.4119 377,-233.4119"/>
<polygon fill="none" stroke="#000000" points="377,-233.4119 377,-258.4119 469,-258.4119 469,-233.4119 377,-233.4119"/>
<text text-anchor="start" x="401.0992" y="-241.0119" font-family="Helvetica,sans-Serif" font-size="16.00" fill="#000000">252 rows</text>
<polygon fill="#ffffff" stroke="transparent" points="469,-233.4119 469,-258.4119 519,-258.4119 519,-233.4119 469,-233.4119"/>
<polygon fill="none" stroke="#000000" points="469,-233.4119 469,-258.4119 519,-258.4119 519,-233.4119 469,-233.4119"/>
<text text-anchor="start" x="493.3168" y="-241.0119" font-family="Helvetica,sans-Serif" font-size="16.00" fill="#000000">3 &gt;</text>
</a>
</g>
</g>
<!-- locations_cities&#45;&gt;locations_countries -->
<g id="edge6" class="edge">
<title>locations_cities:w&#45;&gt;locations_countries:e</title>
<path fill="none" stroke="#000000" d="M1191.0576,-387.7461C1157.2757,-385.2557 1120.1429,-382.6188 1086,-380.4119 974.7251,-373.2195 693.2552,-379.1447 585,-352.4119 553.1051,-344.5357 519.8691,-330.8478 491.1528,-317.0557"/>
<polygon fill="#000000" stroke="#000000" points="1197.8361,-388.2486 1205.548,-392.4303 1201.8252,-388.5444 1205.8142,-388.8401 1205.8142,-388.8401 1205.8142,-388.8401 1201.8252,-388.5444 1206.0804,-385.25 1197.8361,-388.2486 1197.8361,-388.2486"/>
<ellipse fill="none" stroke="#000000" cx="1194.6449" cy="-388.012" rx="3.2" ry="3.2"/>
</g>
<!-- locations_feature_classes -->
<g id="node6" class="node">
<title>locations_feature_classes</title>
<g id="a_node6"><a xlink:href="../../tables/locations_feature_classes.html" xlink:title="locations_feature_classes" target="_top">
<polygon fill="#ffffff" stroke="transparent" points="280,-423.9119 280,-502.9119 544,-502.9119 544,-423.9119 280,-423.9119"/>
<polygon fill="#f5f5f5" stroke="transparent" points="280,-473.4119 280,-502.4119 544,-502.4119 544,-473.4119 280,-473.4119"/>
<polygon fill="none" stroke="#000000" points="280,-473.4119 280,-502.4119 544,-502.4119 544,-473.4119 280,-473.4119"/>
<text text-anchor="start" x="285" y="-480.5119" font-family="Helvetica,sans-Serif" font-weight="bold" font-size="16.00" fill="#000000">locations_feature_classes</text>
<text text-anchor="start" x="495.7136" y="-483.0119" font-family="Helvetica,sans-Serif" font-size="16.00" fill="#000000">[table]</text>
<polygon fill="none" stroke="#000000" points="280,-448.4119 280,-473.4119 544,-473.4119 544,-448.4119 280,-448.4119"/>
<text text-anchor="start" x="283" y="-456.0119" font-family="Helvetica,sans-Serif" font-size="16.00" fill="#000000">...</text>
<polygon fill="#ffffff" stroke="transparent" points="280,-423.4119 280,-448.4119 378,-448.4119 378,-423.4119 280,-423.4119"/>
<polygon fill="none" stroke="#000000" points="280,-423.4119 280,-448.4119 378,-448.4119 378,-423.4119 280,-423.4119"/>
<text text-anchor="start" x="283" y="-431.0119" font-family="Helvetica,sans-Serif" font-size="16.00" fill="#000000"> &#160;</text>
<polygon fill="#ffffff" stroke="transparent" points="378,-423.4119 378,-448.4119 473,-448.4119 473,-423.4119 378,-423.4119"/>
<polygon fill="none" stroke="#000000" points="378,-423.4119 378,-448.4119 473,-448.4119 473,-423.4119 378,-423.4119"/>
<text text-anchor="start" x="422.888" y="-431.0119" font-family="Helvetica,sans-Serif" font-size="16.00" fill="#000000">9 rows</text>
<polygon fill="#ffffff" stroke="transparent" points="473,-423.4119 473,-448.4119 544,-448.4119 544,-423.4119 473,-423.4119"/>
<polygon fill="none" stroke="#000000" points="473,-423.4119 473,-448.4119 544,-448.4119 544,-423.4119 473,-423.4119"/>
<text text-anchor="start" x="518.3168" y="-431.0119" font-family="Helvetica,sans-Serif" font-size="16.00" fill="#000000">2 &gt;</text>
</a>
</g>
</g>
<!-- locations_cities&#45;&gt;locations_feature_classes -->
<g id="edge7" class="edge">
<title>locations_cities:w&#45;&gt;locations_feature_classes:e</title>
<path fill="none" stroke="#000000" d="M1199.5995,-445.5853C1164.3271,-459.7601 1124.1951,-473.3078 1086,-480.4119 867.0877,-521.1286 801.9583,-530.5073 585,-480.4119 565.2451,-475.8505 564.2747,-460.4119 544,-460.4119"/>
<polygon fill="#000000" stroke="#000000" points="1205.9745,-442.9637 1214.7425,-443.2504 1209.6739,-441.4423 1213.3733,-439.921 1213.3733,-439.921 1213.3733,-439.921 1209.6739,-441.4423 1212.0041,-436.5915 1205.9745,-442.9637 1205.9745,-442.9637"/>
<ellipse fill="none" stroke="#000000" cx="1203.015" cy="-444.1808" rx="3.2" ry="3.2"/>
</g>
<!-- locations_feature_codes -->
<g id="node7" class="node">
<title>locations_feature_codes</title>
<g id="a_node7"><a xlink:href="../../tables/locations_feature_codes.html" xlink:title="locations_feature_codes" target="_top">
<polygon fill="#ffffff" stroke="transparent" points="709.5,-390.9119 709.5,-469.9119 961.5,-469.9119 961.5,-390.9119 709.5,-390.9119"/>
<polygon fill="#f5f5f5" stroke="transparent" points="709.5,-440.4119 709.5,-469.4119 961.5,-469.4119 961.5,-440.4119 709.5,-440.4119"/>
<polygon fill="none" stroke="#000000" points="709.5,-440.4119 709.5,-469.4119 961.5,-469.4119 961.5,-440.4119 709.5,-440.4119"/>
<text text-anchor="start" x="714.5" y="-447.5119" font-family="Helvetica,sans-Serif" font-weight="bold" font-size="16.00" fill="#000000">locations_feature_codes</text>
<text text-anchor="start" x="913.2136" y="-450.0119" font-family="Helvetica,sans-Serif" font-size="16.00" fill="#000000">[table]</text>
<polygon fill="none" stroke="#000000" points="709.5,-415.4119 709.5,-440.4119 961.5,-440.4119 961.5,-415.4119 709.5,-415.4119"/>
<text text-anchor="start" x="712.5" y="-423.0119" font-family="Helvetica,sans-Serif" font-size="16.00" fill="#000000">...</text>
<polygon fill="#ffffff" stroke="transparent" points="709.5,-390.4119 709.5,-415.4119 800.5,-415.4119 800.5,-390.4119 709.5,-390.4119"/>
<polygon fill="none" stroke="#000000" points="709.5,-390.4119 709.5,-415.4119 800.5,-415.4119 800.5,-390.4119 709.5,-390.4119"/>
<text text-anchor="start" x="712.5" y="-398.0119" font-family="Helvetica,sans-Serif" font-size="16.00" fill="#000000">&lt; 1</text>
<polygon fill="#ffffff" stroke="transparent" points="800.5,-390.4119 800.5,-415.4119 901.5,-415.4119 901.5,-390.4119 800.5,-390.4119"/>
<polygon fill="none" stroke="#000000" points="800.5,-390.4119 800.5,-415.4119 901.5,-415.4119 901.5,-390.4119 800.5,-390.4119"/>
<text text-anchor="start" x="833.5992" y="-398.0119" font-family="Helvetica,sans-Serif" font-size="16.00" fill="#000000">684 rows</text>
<polygon fill="#ffffff" stroke="transparent" points="901.5,-390.4119 901.5,-415.4119 961.5,-415.4119 961.5,-390.4119 901.5,-390.4119"/>
<polygon fill="none" stroke="#000000" points="901.5,-390.4119 901.5,-415.4119 961.5,-415.4119 961.5,-390.4119 901.5,-390.4119"/>
<text text-anchor="start" x="935.8168" y="-398.0119" font-family="Helvetica,sans-Serif" font-size="16.00" fill="#000000">1 &gt;</text>
</a>
</g>
</g>
<!-- locations_cities&#45;&gt;locations_feature_codes -->
<g id="edge8" class="edge">
<title>locations_cities:w&#45;&gt;locations_feature_codes:e</title>
<path fill="none" stroke="#000000" d="M1191.3106,-411.7667C1124.617,-419.5648 1038.3995,-427.4119 961.5,-427.4119"/>
<polygon fill="#000000" stroke="#000000" points="1197.7212,-411.0019 1206.0914,-413.6287 1201.693,-410.528 1205.6649,-410.054 1205.6649,-410.054 1205.6649,-410.054 1201.693,-410.528 1205.2383,-406.4794 1197.7212,-411.0019 1197.7212,-411.0019"/>
<ellipse fill="none" stroke="#000000" cx="1194.5437" cy="-411.381" rx="3.2" ry="3.2"/>
</g>
<!-- locations_administrative_divisions_1&#45;&gt;locations_countries -->
<g id="edge2" class="edge">
<title>locations_administrative_divisions_1:w&#45;&gt;locations_countries:e</title>
<path fill="none" stroke="#000000" d="M580.9404,-273.4119C563.0075,-273.4119 544.4661,-273.4119 526.5267,-273.4119"/>
<polygon fill="#000000" stroke="#000000" points="587.5,-273.4119 595.5,-277.0119 591.5,-273.4119 595.5,-273.4119 595.5,-273.4119 595.5,-273.4119 591.5,-273.4119 595.5,-269.8119 587.5,-273.4119 587.5,-273.4119"/>
<ellipse fill="none" stroke="#000000" cx="584.3" cy="-273.412" rx="3.2" ry="3.2"/>
</g>
<!-- locations_continents -->
<g id="node8" class="node">
<title>locations_continents</title>
<g id="a_node8"><a xlink:href="../../tables/locations_continents.html" xlink:title="locations_continents" target="_top">
<polygon fill="#ffffff" stroke="transparent" points="8,-236.9119 8,-315.9119 231,-315.9119 231,-236.9119 8,-236.9119"/>
<polygon fill="#f5f5f5" stroke="transparent" points="8.5,-286.4119 8.5,-315.4119 231.5,-315.4119 231.5,-286.4119 8.5,-286.4119"/>
<polygon fill="none" stroke="#000000" points="8.5,-286.4119 8.5,-315.4119 231.5,-315.4119 231.5,-286.4119 8.5,-286.4119"/>
<text text-anchor="start" x="13.5" y="-293.5119" font-family="Helvetica,sans-Serif" font-weight="bold" font-size="16.00" fill="#000000">locations_continents</text>
<text text-anchor="start" x="183.2136" y="-296.0119" font-family="Helvetica,sans-Serif" font-size="16.00" fill="#000000">[table]</text>
<polygon fill="none" stroke="#000000" points="8.5,-261.4119 8.5,-286.4119 231.5,-286.4119 231.5,-261.4119 8.5,-261.4119"/>
<text text-anchor="start" x="11.5" y="-269.0119" font-family="Helvetica,sans-Serif" font-size="16.00" fill="#000000">...</text>
<polygon fill="#ffffff" stroke="transparent" points="8.5,-236.4119 8.5,-261.4119 86.5,-261.4119 86.5,-236.4119 8.5,-236.4119"/>
<polygon fill="none" stroke="#000000" points="8.5,-236.4119 8.5,-261.4119 86.5,-261.4119 86.5,-236.4119 8.5,-236.4119"/>
<text text-anchor="start" x="11.5" y="-244.0119" font-family="Helvetica,sans-Serif" font-size="16.00" fill="#000000"> &#160;</text>
<polygon fill="#ffffff" stroke="transparent" points="86.5,-236.4119 86.5,-261.4119 171.5,-261.4119 171.5,-236.4119 86.5,-236.4119"/>
<polygon fill="none" stroke="#000000" points="86.5,-236.4119 86.5,-261.4119 171.5,-261.4119 171.5,-236.4119 86.5,-236.4119"/>
<text text-anchor="start" x="121.388" y="-244.0119" font-family="Helvetica,sans-Serif" font-size="16.00" fill="#000000">7 rows</text>
<polygon fill="#ffffff" stroke="transparent" points="171.5,-236.4119 171.5,-261.4119 231.5,-261.4119 231.5,-236.4119 171.5,-236.4119"/>
<polygon fill="none" stroke="#000000" points="171.5,-236.4119 171.5,-261.4119 231.5,-261.4119 231.5,-236.4119 171.5,-236.4119"/>
<text text-anchor="start" x="205.8168" y="-244.0119" font-family="Helvetica,sans-Serif" font-size="16.00" fill="#000000">1 &gt;</text>
</a>
</g>
</g>
<!-- locations_countries&#45;&gt;locations_continents -->
<g id="edge9" class="edge">
<title>locations_countries:w&#45;&gt;locations_continents:e</title>
<path fill="none" stroke="#000000" d="M282.9587,-273.4119C265.659,-273.4119 248.1477,-273.4119 231.5,-273.4119"/>
<polygon fill="#000000" stroke="#000000" points="289.417,-273.4119 297.417,-277.0119 293.417,-273.4119 297.417,-273.4119 297.417,-273.4119 297.417,-273.4119 293.417,-273.4119 297.417,-269.8119 289.417,-273.4119 289.417,-273.4119"/>
<ellipse fill="none" stroke="#000000" cx="286.217" cy="-273.412" rx="3.2" ry="3.2"/>
</g>
<!-- locations_administrative_divisions_2 -->
<g id="node5" class="node">
<title>locations_administrative_divisions_2</title>
<g id="a_node5"><a xlink:href="../../tables/locations_administrative_divisions_2.html" xlink:title="locations_administrative_divisions_2" target="_top">
<polygon fill="#ffffff" stroke="transparent" points="1127,-165.9119 1127,-244.9119 1481,-244.9119 1481,-165.9119 1127,-165.9119"/>
<polygon fill="#f5f5f5" stroke="transparent" points="1127,-215.4119 1127,-244.4119 1481,-244.4119 1481,-215.4119 1127,-215.4119"/>
<polygon fill="none" stroke="#000000" points="1127,-215.4119 1127,-244.4119 1481,-244.4119 1481,-215.4119 1127,-215.4119"/>
<text text-anchor="start" x="1132" y="-222.5119" font-family="Helvetica,sans-Serif" font-weight="bold" font-size="16.00" fill="#000000">locations_administrative_divisions_2</text>
<text text-anchor="start" x="1432.7136" y="-225.0119" font-family="Helvetica,sans-Serif" font-size="16.00" fill="#000000">[table]</text>
<polygon fill="none" stroke="#000000" points="1127,-190.4119 1127,-215.4119 1481,-215.4119 1481,-190.4119 1127,-190.4119"/>
<text text-anchor="start" x="1130" y="-198.0119" font-family="Helvetica,sans-Serif" font-size="16.00" fill="#000000">...</text>
<polygon fill="#ffffff" stroke="transparent" points="1127,-165.4119 1127,-190.4119 1264,-190.4119 1264,-165.4119 1127,-165.4119"/>
<polygon fill="none" stroke="#000000" points="1127,-165.4119 1127,-190.4119 1264,-190.4119 1264,-165.4119 1127,-165.4119"/>
<text text-anchor="start" x="1130" y="-173.0119" font-family="Helvetica,sans-Serif" font-size="16.00" fill="#000000">&lt; 2</text>
<polygon fill="#ffffff" stroke="transparent" points="1264,-165.4119 1264,-190.4119 1412,-190.4119 1412,-165.4119 1264,-165.4119"/>
<polygon fill="none" stroke="#000000" points="1264,-165.4119 1264,-190.4119 1412,-190.4119 1412,-165.4119 1264,-165.4119"/>
<text text-anchor="start" x="1321.864" y="-173.0119" font-family="Helvetica,sans-Serif" font-size="16.00" fill="#000000">47,229 rows</text>
<polygon fill="#ffffff" stroke="transparent" points="1412,-165.4119 1412,-190.4119 1481,-190.4119 1481,-165.4119 1412,-165.4119"/>
<polygon fill="none" stroke="#000000" points="1412,-165.4119 1412,-190.4119 1481,-190.4119 1481,-165.4119 1412,-165.4119"/>
<text text-anchor="start" x="1469.1072" y="-173.0119" font-family="Helvetica,sans-Serif" font-size="16.00" fill="#000000"> &#160;</text>
</a>
</g>
</g>
<!-- locations_administrative_divisions_2&#45;&gt;locations_administrative_divisions_1 -->
<g id="edge3" class="edge">
<title>locations_administrative_divisions_2:w&#45;&gt;locations_administrative_divisions_1:e</title>
<path fill="none" stroke="#000000" d="M1223.9853,-255.731C1181.7638,-277.6407 1128.1231,-298.4119 1076.5,-298.4119"/>
<polygon fill="#000000" stroke="#000000" points="1229.655,-252.6941 1238.4069,-252.0901 1233.181,-250.8054 1236.707,-248.9167 1236.707,-248.9167 1236.707,-248.9167 1233.181,-250.8054 1235.0072,-245.7432 1229.655,-252.6941 1229.655,-252.6941"/>
<ellipse fill="none" stroke="#000000" cx="1226.8342" cy="-254.2051" rx="3.2" ry="3.2"/>
</g>
<!-- locations_administrative_divisions_2&#45;&gt;locations_countries -->
<g id="edge4" class="edge">
<title>locations_administrative_divisions_2:w&#45;&gt;locations_countries:e</title>
<path fill="none" stroke="#000000" d="M1223.3315,-154.8168C1183.5897,-132.8184 1133.9893,-109.5542 1086,-98.4119 869.1029,-48.0521 790.4715,-12.6103 585,-98.4119 521.7267,-124.8338 469.7911,-186.9124 439.8475,-229.5519"/>
<polygon fill="#000000" stroke="#000000" points="1228.9073,-157.9646 1234.1039,-165.0325 1232.3905,-159.9311 1235.8738,-161.8976 1235.8738,-161.8976 1235.8738,-161.8976 1232.3905,-159.9311 1237.6436,-158.7627 1228.9073,-157.9646 1228.9073,-157.9646"/>
<ellipse fill="none" stroke="#000000" cx="1226.1207" cy="-156.3914" rx="3.2" ry="3.2"/>
</g>
<!-- locations_feature_codes&#45;&gt;locations_feature_classes -->
<g id="edge10" class="edge">
<title>locations_feature_codes:w&#45;&gt;locations_feature_classes:e</title>
<path fill="none" stroke="#000000" d="M694.9147,-427.8534C632.1002,-431.7694 613.8763,-460.4119 544,-460.4119"/>
<polygon fill="#000000" stroke="#000000" points="701.5037,-427.654 709.609,-431.0102 705.5018,-427.5329 709.5,-427.4119 709.5,-427.4119 709.5,-427.4119 705.5018,-427.5329 709.391,-423.8135 701.5037,-427.654 701.5037,-427.654"/>
<ellipse fill="none" stroke="#000000" cx="698.3051" cy="-427.7509" rx="3.2" ry="3.2"/>
</g>
</g>
</svg>
