<?xml version="1.0" encoding="UTF-8" standalone="no"?>
<!DOCTYPE svg PUBLIC "-//W3C//DTD SVG 1.1//EN"
 "http://www.w3.org/Graphics/SVG/1.1/DTD/svg11.dtd">
<!-- Generated by graphviz version 2.40.1 (20161225.0304)
 -->
<!-- Title: oneDegreeRelationshipsDiagram Pages: 1 -->
<svg width="1203pt" height="637pt"
 viewBox="0.00 0.00 1203.00 637.20" xmlns="http://www.w3.org/2000/svg" xmlns:xlink="http://www.w3.org/1999/xlink">
<g id="graph0" class="graph" transform="scale(1 1) rotate(0) translate(4 633.2)">
<title>oneDegreeRelationshipsDiagram</title>
<polygon fill="#ffffff" stroke="transparent" points="-4,4 -4,-633.2 1199,-633.2 1199,4 -4,4"/>
<text text-anchor="middle" x="101.8088" y="-8.8" font-family="Helvetica,sans-Serif" font-size="16.00" fill="#000000">Generated by SchemaSpy</text>
<!-- locations_administrative_divisions_1 -->
<g id="node1" class="node">
<title>locations_administrative_divisions_1</title>
<g id="a_node1"><a xlink:href="../../tables/locations_administrative_divisions_1.html" xlink:title="locations_administrative_divisions_1" target="_top">
<polygon fill="#ffffff" stroke="transparent" points="299,-342.2 299,-575.2 784,-575.2 784,-342.2 299,-342.2"/>
<polygon fill="#f5f5f5" stroke="transparent" points="301.5,-543.7 301.5,-572.7 782.5,-572.7 782.5,-543.7 301.5,-543.7"/>
<polygon fill="none" stroke="#000000" points="301.5,-543.7 301.5,-572.7 782.5,-572.7 782.5,-543.7 301.5,-543.7"/>
<text text-anchor="start" x="306.5" y="-550.8" font-family="Helvetica,sans-Serif" font-weight="bold" font-size="16.00" fill="#000000">locations_administrative_divisions_1</text>
<text text-anchor="start" x="733.9272" y="-553.3" font-family="Helvetica,sans-Serif" font-size="16.00" fill="#000000">[table]</text>
<polygon fill="none" stroke="#000000" points="301.5,-518.7 301.5,-543.7 630.5,-543.7 630.5,-518.7 301.5,-518.7"/>
<image xlink:href="../../images/primaryKeys.png" width="11px" height="12px" preserveAspectRatio="xMinYMin meet" x="306.5" y="-537.2"/>
<text text-anchor="start" x="321.5" y="-522.8" font-family="Helvetica,sans-Serif" font-size="16.00" fill="#000000">administrative_division_1_code</text>
<polygon fill="none" stroke="#000000" points="630.5,-518.7 630.5,-543.7 782.5,-543.7 782.5,-518.7 630.5,-518.7"/>
<text text-anchor="start" x="633.5" y="-526.3" font-family="Helvetica,sans-Serif" font-size="16.00" fill="#000000">text[2000000000]</text>
<polygon fill="#ffffff" stroke="transparent" points="301.5,-493.7 301.5,-518.7 630.5,-518.7 630.5,-493.7 301.5,-493.7"/>
<polygon fill="none" stroke="#000000" points="301.5,-493.7 301.5,-518.7 630.5,-518.7 630.5,-493.7 301.5,-493.7"/>
<image xlink:href="../../images/foreignKeys.png" width="11px" height="12px" preserveAspectRatio="xMinYMin meet" x="306.5" y="-512.2"/>
<text text-anchor="start" x="321.5" y="-497.8" font-family="Helvetica,sans-Serif" font-size="16.00" fill="#000000">country_code</text>
<polygon fill="none" stroke="#000000" points="630.5,-493.7 630.5,-518.7 782.5,-518.7 782.5,-493.7 630.5,-493.7"/>
<text text-anchor="start" x="633.5" y="-501.3" font-family="Helvetica,sans-Serif" font-size="16.00" fill="#000000">text[2000000000]</text>
<polygon fill="#ffffff" stroke="transparent" points="301.5,-468.7 301.5,-493.7 630.5,-493.7 630.5,-468.7 301.5,-468.7"/>
<polygon fill="none" stroke="#000000" points="301.5,-468.7 301.5,-493.7 630.5,-493.7 630.5,-468.7 301.5,-468.7"/>
<text text-anchor="start" x="321.5" y="-472.8" font-family="Helvetica,sans-Serif" font-size="16.00" fill="#000000">administrative_division_1_name</text>
<polygon fill="none" stroke="#000000" points="630.5,-468.7 630.5,-493.7 782.5,-493.7 782.5,-468.7 630.5,-468.7"/>
<text text-anchor="start" x="633.5" y="-476.3" font-family="Helvetica,sans-Serif" font-size="16.00" fill="#000000">text[2000000000]</text>
<polygon fill="#ffffff" stroke="transparent" points="301.5,-443.7 301.5,-468.7 630.5,-468.7 630.5,-443.7 301.5,-443.7"/>
<polygon fill="none" stroke="#000000" points="301.5,-443.7 301.5,-468.7 630.5,-468.7 630.5,-443.7 301.5,-443.7"/>
<text text-anchor="start" x="321.5" y="-447.8" font-family="Helvetica,sans-Serif" font-size="16.00" fill="#000000">administrative_division_1_ascii_name</text>
<polygon fill="none" stroke="#000000" points="630.5,-443.7 630.5,-468.7 782.5,-468.7 782.5,-443.7 630.5,-443.7"/>
<text text-anchor="start" x="633.5" y="-451.3" font-family="Helvetica,sans-Serif" font-size="16.00" fill="#000000">text[2000000000]</text>
<polygon fill="#ffffff" stroke="transparent" points="301.5,-418.7 301.5,-443.7 630.5,-443.7 630.5,-418.7 301.5,-418.7"/>
<polygon fill="none" stroke="#000000" points="301.5,-418.7 301.5,-443.7 630.5,-443.7 630.5,-418.7 301.5,-418.7"/>
<text text-anchor="start" x="321.5" y="-422.8" font-family="Helvetica,sans-Serif" font-size="16.00" fill="#000000">geoname_id</text>
<polygon fill="none" stroke="#000000" points="630.5,-418.7 630.5,-443.7 782.5,-443.7 782.5,-418.7 630.5,-418.7"/>
<text text-anchor="start" x="633.1312" y="-426.3" font-family="Helvetica,sans-Serif" font-size="16.00" fill="#000000">integer[2000000000]</text>
<polygon fill="none" stroke="#000000" points="301.5,-393.7 301.5,-418.7 630.5,-418.7 630.5,-393.7 301.5,-393.7"/>
<text text-anchor="start" x="321.5" y="-397.8" font-family="Helvetica,sans-Serif" font-size="16.00" fill="#000000">inserted_at</text>
<polygon fill="none" stroke="#000000" points="630.5,-393.7 630.5,-418.7 782.5,-418.7 782.5,-393.7 630.5,-393.7"/>
<text text-anchor="start" x="633.5" y="-401.3" font-family="Helvetica,sans-Serif" font-size="16.00" fill="#000000">text[2000000000]</text>
<polygon fill="none" stroke="#000000" points="301.5,-368.7 301.5,-393.7 630.5,-393.7 630.5,-368.7 301.5,-368.7"/>
<text text-anchor="start" x="321.5" y="-372.8" font-family="Helvetica,sans-Serif" font-size="16.00" fill="#000000">updated_at</text>
<polygon fill="none" stroke="#000000" points="630.5,-368.7 630.5,-393.7 782.5,-393.7 782.5,-368.7 630.5,-368.7"/>
<text text-anchor="start" x="633.5" y="-376.3" font-family="Helvetica,sans-Serif" font-size="16.00" fill="#000000">text[2000000000]</text>
<polygon fill="#ffffff" stroke="transparent" points="301.5,-343.7 301.5,-368.7 437.5,-368.7 437.5,-343.7 301.5,-343.7"/>
<polygon fill="none" stroke="#000000" points="301.5,-343.7 301.5,-368.7 437.5,-368.7 437.5,-343.7 301.5,-343.7"/>
<text text-anchor="start" x="304.5" y="-351.3" font-family="Helvetica,sans-Serif" font-size="16.00" fill="#000000">&lt; 1</text>
<polygon fill="#ffffff" stroke="transparent" points="437.5,-343.7 437.5,-368.7 630.5,-368.7 630.5,-343.7 437.5,-343.7"/>
<polygon fill="none" stroke="#000000" points="437.5,-343.7 437.5,-368.7 630.5,-368.7 630.5,-343.7 437.5,-343.7"/>
<text text-anchor="start" x="549.2584" y="-351.3" font-family="Helvetica,sans-Serif" font-size="16.00" fill="#000000">3,893 rows</text>
<polygon fill="#ffffff" stroke="transparent" points="630.5,-343.7 630.5,-368.7 782.5,-368.7 782.5,-343.7 630.5,-343.7"/>
<polygon fill="none" stroke="#000000" points="630.5,-343.7 630.5,-368.7 782.5,-368.7 782.5,-343.7 630.5,-343.7"/>
<text text-anchor="start" x="756.8168" y="-351.3" font-family="Helvetica,sans-Serif" font-size="16.00" fill="#000000">2 &gt;</text>
<polygon fill="none" stroke="#000000" stroke-width="2" points="300,-343.2 300,-574.2 783,-574.2 783,-343.2 300,-343.2"/>
</a>
</g>
</g>
<!-- locations_countries -->
<g id="node2" class="node">
<title>locations_countries</title>
<g id="a_node2"><a xlink:href="../../tables/locations_countries.html" xlink:title="locations_countries" target="_top">
<polygon fill="#ffffff" stroke="transparent" points="8,-59.2 8,-358.2 250,-358.2 250,-59.2 8,-59.2"/>
<polygon fill="#f5f5f5" stroke="transparent" points="8,-328.7 8,-357.7 250,-357.7 250,-328.7 8,-328.7"/>
<polygon fill="none" stroke="#000000" points="8,-328.7 8,-357.7 250,-357.7 250,-328.7 8,-328.7"/>
<text text-anchor="start" x="13" y="-335.8" font-family="Helvetica,sans-Serif" font-weight="bold" font-size="16.00" fill="#000000">locations_countries</text>
<text text-anchor="start" x="201.4272" y="-338.3" font-family="Helvetica,sans-Serif" font-size="16.00" fill="#000000">[table]</text>
<polygon fill="none" stroke="#000000" points="8,-306.7 8,-328.7 250,-328.7 250,-306.7 8,-306.7"/>
<image xlink:href="../../images/primaryKeys.png" width="11px" height="12px" preserveAspectRatio="xMinYMin meet" x="13" y="-323.7"/>
<text text-anchor="start" x="28" y="-309.3" font-family="Helvetica,sans-Serif" font-size="16.00" fill="#000000">iso_country_code</text>
<polygon fill="#ffffff" stroke="transparent" points="8,-284.7 8,-306.7 250,-306.7 250,-284.7 8,-284.7"/>
<polygon fill="none" stroke="#000000" points="8,-284.7 8,-306.7 250,-306.7 250,-284.7 8,-284.7"/>
<text text-anchor="start" x="28" y="-287.3" font-family="Helvetica,sans-Serif" font-size="16.00" fill="#000000">iso_3_country_code</text>
<polygon fill="#ffffff" stroke="transparent" points="8,-262.7 8,-284.7 250,-284.7 250,-262.7 8,-262.7"/>
<polygon fill="none" stroke="#000000" points="8,-262.7 8,-284.7 250,-284.7 250,-262.7 8,-262.7"/>
<text text-anchor="start" x="28" y="-265.3" font-family="Helvetica,sans-Serif" font-size="16.00" fill="#000000">iso_numeric_country_code</text>
<polygon fill="#ffffff" stroke="transparent" points="8,-240.7 8,-262.7 250,-262.7 250,-240.7 8,-240.7"/>
<polygon fill="none" stroke="#000000" points="8,-240.7 8,-262.7 250,-262.7 250,-240.7 8,-240.7"/>
<text text-anchor="start" x="28" y="-243.3" font-family="Helvetica,sans-Serif" font-size="16.00" fill="#000000">country_name</text>
<polygon fill="#ffffff" stroke="transparent" points="8,-218.7 8,-240.7 250,-240.7 250,-218.7 8,-218.7"/>
<polygon fill="none" stroke="#000000" points="8,-218.7 8,-240.7 250,-240.7 250,-218.7 8,-218.7"/>
<text text-anchor="start" x="28" y="-221.3" font-family="Helvetica,sans-Serif" font-size="16.00" fill="#000000">area</text>
<polygon fill="#ffffff" stroke="transparent" points="8,-196.7 8,-218.7 250,-218.7 250,-196.7 8,-196.7"/>
<polygon fill="none" stroke="#000000" points="8,-196.7 8,-218.7 250,-218.7 250,-196.7 8,-196.7"/>
<text text-anchor="start" x="28" y="-199.3" font-family="Helvetica,sans-Serif" font-size="16.00" fill="#000000">population</text>
<polygon fill="#ffffff" stroke="transparent" points="8,-174.7 8,-196.7 250,-196.7 250,-174.7 8,-174.7"/>
<polygon fill="none" stroke="#000000" points="8,-174.7 8,-196.7 250,-196.7 250,-174.7 8,-174.7"/>
<image xlink:href="../../images/foreignKeys.png" width="11px" height="12px" preserveAspectRatio="xMinYMin meet" x="13" y="-191.7"/>
<text text-anchor="start" x="28" y="-177.3" font-family="Helvetica,sans-Serif" font-size="16.00" fill="#000000">continent_code</text>
<polygon fill="#ffffff" stroke="transparent" points="8,-152.7 8,-174.7 250,-174.7 250,-152.7 8,-152.7"/>
<polygon fill="none" stroke="#000000" points="8,-152.7 8,-174.7 250,-174.7 250,-152.7 8,-152.7"/>
<text text-anchor="start" x="28" y="-155.3" font-family="Helvetica,sans-Serif" font-size="16.00" fill="#000000">tld</text>
<polygon fill="#ffffff" stroke="transparent" points="8,-130.7 8,-152.7 250,-152.7 250,-130.7 8,-130.7"/>
<polygon fill="none" stroke="#000000" points="8,-130.7 8,-152.7 250,-152.7 250,-130.7 8,-130.7"/>
<text text-anchor="start" x="28" y="-133.3" font-family="Helvetica,sans-Serif" font-size="16.00" fill="#000000">currency_code</text>
<polygon fill="#ffffff" stroke="transparent" points="8,-108.7 8,-130.7 250,-130.7 250,-108.7 8,-108.7"/>
<polygon fill="none" stroke="#000000" points="8,-108.7 8,-130.7 250,-130.7 250,-108.7 8,-108.7"/>
<text text-anchor="start" x="28" y="-111.3" font-family="Helvetica,sans-Serif" font-size="16.00" fill="#000000">geoname_id</text>
<polygon fill="none" stroke="#000000" points="8,-83.7 8,-108.7 250,-108.7 250,-83.7 8,-83.7"/>
<text text-anchor="start" x="11" y="-91.3" font-family="Helvetica,sans-Serif" font-size="16.00" fill="#000000">...</text>
<polygon fill="#ffffff" stroke="transparent" points="8,-58.7 8,-83.7 94,-83.7 94,-58.7 8,-58.7"/>
<polygon fill="none" stroke="#000000" points="8,-58.7 8,-83.7 94,-83.7 94,-58.7 8,-58.7"/>
<text text-anchor="start" x="11" y="-66.3" font-family="Helvetica,sans-Serif" font-size="16.00" fill="#000000">&lt; 1</text>
<polygon fill="#ffffff" stroke="transparent" points="94,-58.7 94,-83.7 193,-83.7 193,-58.7 94,-58.7"/>
<polygon fill="none" stroke="#000000" points="94,-58.7 94,-83.7 193,-83.7 193,-58.7 94,-58.7"/>
<text text-anchor="start" x="125.0992" y="-66.3" font-family="Helvetica,sans-Serif" font-size="16.00" fill="#000000">252 rows</text>
<polygon fill="#ffffff" stroke="transparent" points="193,-58.7 193,-83.7 250,-83.7 250,-58.7 193,-58.7"/>
<polygon fill="none" stroke="#000000" points="193,-58.7 193,-83.7 250,-83.7 250,-58.7 193,-58.7"/>
<text text-anchor="start" x="224.3168" y="-66.3" font-family="Helvetica,sans-Serif" font-size="16.00" fill="#000000">3 &gt;</text>
</a>
</g>
</g>
<!-- locations_administrative_divisions_1&#45;&gt;locations_countries -->
<g id="edge1" class="edge">
<title>locations_administrative_divisions_1:w&#45;&gt;locations_countries:e</title>
<path fill="none" stroke="#000000" d="M287.1666,-504.4458C229.3734,-483.1219 331.4512,-317.7 250,-317.7"/>
<polygon fill="#000000" stroke="#000000" points="293.5971,-505.4571 300.9407,-510.2563 297.5486,-506.0785 301.5,-506.7 301.5,-506.7 301.5,-506.7 297.5486,-506.0785 302.0593,-503.1437 293.5971,-505.4571 293.5971,-505.4571"/>
<ellipse fill="none" stroke="#000000" cx="290.436" cy="-504.9599" rx="3.2" ry="3.2"/>
</g>
<!-- locations_administrative_divisions_2 -->
<g id="node3" class="node">
<title>locations_administrative_divisions_2</title>
<g id="a_node3"><a xlink:href="../../tables/locations_administrative_divisions_2.html" xlink:title="locations_administrative_divisions_2" target="_top">
<polygon fill="#ffffff" stroke="transparent" points="833,-414.2 833,-625.2 1187,-625.2 1187,-414.2 833,-414.2"/>
<polygon fill="#f5f5f5" stroke="transparent" points="833,-595.7 833,-624.7 1187,-624.7 1187,-595.7 833,-595.7"/>
<polygon fill="none" stroke="#000000" points="833,-595.7 833,-624.7 1187,-624.7 1187,-595.7 833,-595.7"/>
<text text-anchor="start" x="838" y="-602.8" font-family="Helvetica,sans-Serif" font-weight="bold" font-size="16.00" fill="#000000">locations_administrative_divisions_2</text>
<text text-anchor="start" x="1138.7136" y="-605.3" font-family="Helvetica,sans-Serif" font-size="16.00" fill="#000000">[table]</text>
<polygon fill="none" stroke="#000000" points="833,-573.7 833,-595.7 1187,-595.7 1187,-573.7 833,-573.7"/>
<image xlink:href="../../images/primaryKeys.png" width="11px" height="12px" preserveAspectRatio="xMinYMin meet" x="838" y="-590.7"/>
<text text-anchor="start" x="866" y="-576.3" font-family="Helvetica,sans-Serif" font-size="16.00" fill="#000000">administrative_division_2_code</text>
<polygon fill="#ffffff" stroke="transparent" points="833,-551.7 833,-573.7 1187,-573.7 1187,-551.7 833,-551.7"/>
<polygon fill="none" stroke="#000000" points="833,-551.7 833,-573.7 1187,-573.7 1187,-551.7 833,-551.7"/>
<image xlink:href="../../images/foreignKeys.png" width="11px" height="12px" preserveAspectRatio="xMinYMin meet" x="838" y="-568.7"/>
<text text-anchor="start" x="866" y="-554.3" font-family="Helvetica,sans-Serif" font-size="16.00" fill="#000000">administrative_division_1_code</text>
<polygon fill="#ffffff" stroke="transparent" points="833,-529.7 833,-551.7 1187,-551.7 1187,-529.7 833,-529.7"/>
<polygon fill="none" stroke="#000000" points="833,-529.7 833,-551.7 1187,-551.7 1187,-529.7 833,-529.7"/>
<image xlink:href="../../images/foreignKeys.png" width="11px" height="12px" preserveAspectRatio="xMinYMin meet" x="838" y="-546.7"/>
<text text-anchor="start" x="866" y="-532.3" font-family="Helvetica,sans-Serif" font-size="16.00" fill="#000000">country_code</text>
<polygon fill="#ffffff" stroke="transparent" points="833,-507.7 833,-529.7 1187,-529.7 1187,-507.7 833,-507.7"/>
<polygon fill="none" stroke="#000000" points="833,-507.7 833,-529.7 1187,-529.7 1187,-507.7 833,-507.7"/>
<text text-anchor="start" x="866" y="-510.3" font-family="Helvetica,sans-Serif" font-size="16.00" fill="#000000">administrative_division_2_name</text>
<polygon fill="#ffffff" stroke="transparent" points="833,-485.7 833,-507.7 1187,-507.7 1187,-485.7 833,-485.7"/>
<polygon fill="none" stroke="#000000" points="833,-485.7 833,-507.7 1187,-507.7 1187,-485.7 833,-485.7"/>
<text text-anchor="start" x="866" y="-488.3" font-family="Helvetica,sans-Serif" font-size="16.00" fill="#000000">administrative_division_2_ascii_name</text>
<polygon fill="#ffffff" stroke="transparent" points="833,-463.7 833,-485.7 1187,-485.7 1187,-463.7 833,-463.7"/>
<polygon fill="none" stroke="#000000" points="833,-463.7 833,-485.7 1187,-485.7 1187,-463.7 833,-463.7"/>
<text text-anchor="start" x="866" y="-466.3" font-family="Helvetica,sans-Serif" font-size="16.00" fill="#000000">geoname_id</text>
<polygon fill="none" stroke="#000000" points="833,-438.7 833,-463.7 1187,-463.7 1187,-438.7 833,-438.7"/>
<text text-anchor="start" x="836" y="-446.3" font-family="Helvetica,sans-Serif" font-size="16.00" fill="#000000">...</text>
<polygon fill="#ffffff" stroke="transparent" points="833,-413.7 833,-438.7 970,-438.7 970,-413.7 833,-413.7"/>
<polygon fill="none" stroke="#000000" points="833,-413.7 833,-438.7 970,-438.7 970,-413.7 833,-413.7"/>
<text text-anchor="start" x="836" y="-421.3" font-family="Helvetica,sans-Serif" font-size="16.00" fill="#000000">&lt; 2</text>
<polygon fill="#ffffff" stroke="transparent" points="970,-413.7 970,-438.7 1118,-438.7 1118,-413.7 970,-413.7"/>
<polygon fill="none" stroke="#000000" points="970,-413.7 970,-438.7 1118,-438.7 1118,-413.7 970,-413.7"/>
<text text-anchor="start" x="1027.864" y="-421.3" font-family="Helvetica,sans-Serif" font-size="16.00" fill="#000000">47,229 rows</text>
<polygon fill="#ffffff" stroke="transparent" points="1118,-413.7 1118,-438.7 1187,-438.7 1187,-413.7 1118,-413.7"/>
<polygon fill="none" stroke="#000000" points="1118,-413.7 1118,-438.7 1187,-438.7 1187,-413.7 1118,-413.7"/>
<text text-anchor="start" x="1175.1072" y="-421.3" font-family="Helvetica,sans-Serif" font-size="16.00" fill="#000000"> &#160;</text>
</a>
</g>
</g>
<!-- locations_administrative_divisions_2&#45;&gt;locations_administrative_divisions_1 -->
<g id="edge2" class="edge">
<title>locations_administrative_divisions_2:w&#45;&gt;locations_administrative_divisions_1:e</title>
<path fill="none" stroke="#000000" d="M818.8267,-558.6473C806.1849,-550.2444 802.8692,-531.7 782.5,-531.7"/>
<polygon fill="#000000" stroke="#000000" points="825.3083,-560.5006 832.0103,-566.1613 829.1541,-561.6003 833,-562.7 833,-562.7 833,-562.7 829.1541,-561.6003 833.9897,-559.2387 825.3083,-560.5006 825.3083,-560.5006"/>
<ellipse fill="none" stroke="#000000" cx="822.2316" cy="-559.6208" rx="3.2" ry="3.2"/>
</g>
<!-- locations_administrative_divisions_2&#45;&gt;locations_countries -->
<g id="edge3" class="edge">
<title>locations_administrative_divisions_2:w&#45;&gt;locations_countries:e</title>
<path fill="none" stroke="#000000" d="M818.5488,-539.2238C752.422,-523.6645 860.0738,-389.2072 792,-331.7 699.9613,-253.9477 370.4846,-317.7 250,-317.7"/>
<polygon fill="#000000" stroke="#000000" points="825.0414,-539.887 832.6341,-544.2814 829.0207,-540.2935 833,-540.7 833,-540.7 833,-540.7 829.0207,-540.2935 833.3659,-537.1186 825.0414,-539.887 825.0414,-539.887"/>
<ellipse fill="none" stroke="#000000" cx="821.858" cy="-539.5617" rx="3.2" ry="3.2"/>
</g>
<!-- locations_cities -->
<g id="node4" class="node">
<title>locations_cities</title>
<g id="a_node4"><a xlink:href="../../tables/locations_cities.html" xlink:title="locations_cities" target="_top">
<polygon fill="#ffffff" stroke="transparent" points="871.5,-50.2 871.5,-393.2 1148.5,-393.2 1148.5,-50.2 871.5,-50.2"/>
<polygon fill="#f5f5f5" stroke="transparent" points="872,-363.7 872,-392.7 1149,-392.7 1149,-363.7 872,-363.7"/>
<polygon fill="none" stroke="#000000" points="872,-363.7 872,-392.7 1149,-392.7 1149,-363.7 872,-363.7"/>
<text text-anchor="start" x="877" y="-370.8" font-family="Helvetica,sans-Serif" font-weight="bold" font-size="16.00" fill="#000000">locations_cities</text>
<text text-anchor="start" x="1100.4272" y="-373.3" font-family="Helvetica,sans-Serif" font-size="16.00" fill="#000000">[table]</text>
<polygon fill="none" stroke="#000000" points="872,-341.7 872,-363.7 1149,-363.7 1149,-341.7 872,-341.7"/>
<image xlink:href="../../images/primaryKeys.png" width="11px" height="12px" preserveAspectRatio="xMinYMin meet" x="877" y="-358.7"/>
<text text-anchor="start" x="892" y="-344.3" font-family="Helvetica,sans-Serif" font-size="16.00" fill="#000000">id</text>
<polygon fill="#ffffff" stroke="transparent" points="872,-319.7 872,-341.7 1149,-341.7 1149,-319.7 872,-319.7"/>
<polygon fill="none" stroke="#000000" points="872,-319.7 872,-341.7 1149,-341.7 1149,-319.7 872,-319.7"/>
<text text-anchor="start" x="892" y="-322.3" font-family="Helvetica,sans-Serif" font-size="16.00" fill="#000000">geoname_id</text>
<polygon fill="#ffffff" stroke="transparent" points="872,-297.7 872,-319.7 1149,-319.7 1149,-297.7 872,-297.7"/>
<polygon fill="none" stroke="#000000" points="872,-297.7 872,-319.7 1149,-319.7 1149,-297.7 872,-297.7"/>
<text text-anchor="start" x="892" y="-300.3" font-family="Helvetica,sans-Serif" font-size="16.00" fill="#000000">name</text>
<polygon fill="#ffffff" stroke="transparent" points="872,-275.7 872,-297.7 1149,-297.7 1149,-275.7 872,-275.7"/>
<polygon fill="none" stroke="#000000" points="872,-275.7 872,-297.7 1149,-297.7 1149,-275.7 872,-275.7"/>
<text text-anchor="start" x="892" y="-278.3" font-family="Helvetica,sans-Serif" font-size="16.00" fill="#000000">latitude</text>
<polygon fill="#ffffff" stroke="transparent" points="872,-253.7 872,-275.7 1149,-275.7 1149,-253.7 872,-253.7"/>
<polygon fill="none" stroke="#000000" points="872,-253.7 872,-275.7 1149,-275.7 1149,-253.7 872,-253.7"/>
<text text-anchor="start" x="892" y="-256.3" font-family="Helvetica,sans-Serif" font-size="16.00" fill="#000000">longitude</text>
<polygon fill="none" stroke="#000000" points="872,-231.7 872,-253.7 1149,-253.7 1149,-231.7 872,-231.7"/>
<image xlink:href="../../images/foreignKeys.png" width="11px" height="12px" preserveAspectRatio="xMinYMin meet" x="877" y="-248.7"/>
<text text-anchor="start" x="892" y="-234.3" font-family="Helvetica,sans-Serif" font-size="16.00" fill="#000000">feature_class</text>
<polygon fill="#ffffff" stroke="transparent" points="872,-209.7 872,-231.7 1149,-231.7 1149,-209.7 872,-209.7"/>
<polygon fill="none" stroke="#000000" points="872,-209.7 872,-231.7 1149,-231.7 1149,-209.7 872,-209.7"/>
<image xlink:href="../../images/foreignKeys.png" width="11px" height="12px" preserveAspectRatio="xMinYMin meet" x="877" y="-226.7"/>
<text text-anchor="start" x="892" y="-212.3" font-family="Helvetica,sans-Serif" font-size="16.00" fill="#000000">feature_code</text>
<polygon fill="#ffffff" stroke="transparent" points="872,-187.7 872,-209.7 1149,-209.7 1149,-187.7 872,-187.7"/>
<polygon fill="none" stroke="#000000" points="872,-187.7 872,-209.7 1149,-209.7 1149,-187.7 872,-187.7"/>
<image xlink:href="../../images/foreignKeys.png" width="11px" height="12px" preserveAspectRatio="xMinYMin meet" x="877" y="-204.7"/>
<text text-anchor="start" x="892" y="-190.3" font-family="Helvetica,sans-Serif" font-size="16.00" fill="#000000">country_code</text>
<polygon fill="#ffffff" stroke="transparent" points="872,-165.7 872,-187.7 1149,-187.7 1149,-165.7 872,-165.7"/>
<polygon fill="none" stroke="#000000" points="872,-165.7 872,-187.7 1149,-187.7 1149,-165.7 872,-165.7"/>
<image xlink:href="../../images/foreignKeys.png" width="11px" height="12px" preserveAspectRatio="xMinYMin meet" x="877" y="-182.7"/>
<text text-anchor="start" x="892" y="-168.3" font-family="Helvetica,sans-Serif" font-size="16.00" fill="#000000">administrative_division_1_code</text>
<polygon fill="#ffffff" stroke="transparent" points="872,-143.7 872,-165.7 1149,-165.7 1149,-143.7 872,-143.7"/>
<polygon fill="none" stroke="#000000" points="872,-143.7 872,-165.7 1149,-165.7 1149,-143.7 872,-143.7"/>
<image xlink:href="../../images/foreignKeys.png" width="11px" height="12px" preserveAspectRatio="xMinYMin meet" x="877" y="-160.7"/>
<text text-anchor="start" x="892" y="-146.3" font-family="Helvetica,sans-Serif" font-size="16.00" fill="#000000">administrative_division_2_code</text>
<polygon fill="#ffffff" stroke="transparent" points="872,-121.7 872,-143.7 1149,-143.7 1149,-121.7 872,-121.7"/>
<polygon fill="none" stroke="#000000" points="872,-121.7 872,-143.7 1149,-143.7 1149,-121.7 872,-121.7"/>
<text text-anchor="start" x="892" y="-124.3" font-family="Helvetica,sans-Serif" font-size="16.00" fill="#000000">population</text>
<polygon fill="#ffffff" stroke="transparent" points="872,-99.7 872,-121.7 1149,-121.7 1149,-99.7 872,-99.7"/>
<polygon fill="none" stroke="#000000" points="872,-99.7 872,-121.7 1149,-121.7 1149,-99.7 872,-99.7"/>
<text text-anchor="start" x="892" y="-102.3" font-family="Helvetica,sans-Serif" font-size="16.00" fill="#000000">timezone</text>
<polygon fill="none" stroke="#000000" points="872,-74.7 872,-99.7 1149,-99.7 1149,-74.7 872,-74.7"/>
<text text-anchor="start" x="875" y="-82.3" font-family="Helvetica,sans-Serif" font-size="16.00" fill="#000000">...</text>
<polygon fill="#ffffff" stroke="transparent" points="872,-49.7 872,-74.7 959,-74.7 959,-49.7 872,-49.7"/>
<polygon fill="none" stroke="#000000" points="872,-49.7 872,-74.7 959,-74.7 959,-49.7 872,-49.7"/>
<text text-anchor="start" x="875" y="-57.3" font-family="Helvetica,sans-Serif" font-size="16.00" fill="#000000">&lt; 4</text>
<polygon fill="#ffffff" stroke="transparent" points="959,-49.7 959,-74.7 1091,-74.7 1091,-49.7 959,-49.7"/>
<polygon fill="none" stroke="#000000" points="959,-49.7 959,-74.7 1091,-74.7 1091,-49.7 959,-49.7"/>
<text text-anchor="start" x="991.9696" y="-57.3" font-family="Helvetica,sans-Serif" font-size="16.00" fill="#000000">210,698 rows</text>
<polygon fill="#ffffff" stroke="transparent" points="1091,-49.7 1091,-74.7 1149,-74.7 1149,-49.7 1091,-49.7"/>
<polygon fill="none" stroke="#000000" points="1091,-49.7 1091,-74.7 1149,-74.7 1149,-49.7 1091,-49.7"/>
<text text-anchor="start" x="1123.3168" y="-57.3" font-family="Helvetica,sans-Serif" font-size="16.00" fill="#000000">1 &gt;</text>
</a>
</g>
</g>
<!-- locations_cities&#45;&gt;locations_administrative_divisions_1 -->
<g id="edge4" class="edge">
<title>locations_cities:w&#45;&gt;locations_administrative_divisions_1:e</title>
<path fill="none" stroke="#000000" d="M860.9527,-186.1954C829.4207,-242.6504 819.2062,-531.7 782.5,-531.7"/>
<polygon fill="#000000" stroke="#000000" points="865.9331,-181.9147 874.3466,-179.4301 868.9665,-179.3073 872,-176.7 872,-176.7 872,-176.7 868.9665,-179.3073 869.6534,-173.9699 865.9331,-181.9147 865.9331,-181.9147"/>
<ellipse fill="none" stroke="#000000" cx="863.5063" cy="-184.0005" rx="3.2" ry="3.2"/>
</g>
<!-- locations_cities&#45;&gt;locations_countries -->
<g id="edge5" class="edge">
<title>locations_cities:w&#45;&gt;locations_countries:e</title>
<path fill="none" stroke="#000000" d="M857.5809,-198.7551C606.9253,-200.6908 543.061,-253.3577 291,-307.7 272.6649,-311.6529 268.7564,-317.7 250,-317.7"/>
<polygon fill="#000000" stroke="#000000" points="864.0001,-198.7306 872.0138,-202.3 868,-198.7153 872,-198.7 872,-198.7 872,-198.7 868,-198.7153 871.9862,-195.1 864.0001,-198.7306 864.0001,-198.7306"/>
<ellipse fill="none" stroke="#000000" cx="860.8001" cy="-198.7428" rx="3.2" ry="3.2"/>
</g>
</g>
</svg>
