<?xml version="1.0" encoding="UTF-8" standalone="no"?>
<!DOCTYPE svg PUBLIC "-//W3C//DTD SVG 1.1//EN"
 "http://www.w3.org/Graphics/SVG/1.1/DTD/svg11.dtd">
<!-- Generated by graphviz version 2.40.1 (20161225.0304)
 -->
<!-- Title: twoDegreesRelationshipsDiagramImplied Pages: 1 -->
<svg width="1517pt" height="528pt"
 viewBox="0.00 0.00 1517.00 528.15" xmlns="http://www.w3.org/2000/svg" xmlns:xlink="http://www.w3.org/1999/xlink">
<g id="graph0" class="graph" transform="scale(1 1) rotate(0) translate(4 524.1532)">
<title>twoDegreesRelationshipsDiagramImplied</title>
<polygon fill="#ffffff" stroke="transparent" points="-4,4 -4,-524.1532 1513,-524.1532 1513,4 -4,4"/>
<text text-anchor="middle" x="101.8088" y="-8.8" font-family="Helvetica,sans-Serif" font-size="16.00" fill="#000000">Generated by SchemaSpy</text>
<!-- journal_entries -->
<g id="node1" class="node">
<title>journal_entries</title>
<g id="a_node1"><a xlink:href="../../tables/journal_entries.html" xlink:title="journal_entries" target="_top">
<polygon fill="#ffffff" stroke="transparent" points="1327,-326.8262 1327,-405.8262 1501,-405.8262 1501,-326.8262 1327,-326.8262"/>
<polygon fill="#f5f5f5" stroke="transparent" points="1327,-376.3262 1327,-405.3262 1501,-405.3262 1501,-376.3262 1327,-376.3262"/>
<polygon fill="none" stroke="#000000" points="1327,-376.3262 1327,-405.3262 1501,-405.3262 1501,-376.3262 1327,-376.3262"/>
<text text-anchor="start" x="1332" y="-383.4262" font-family="Helvetica,sans-Serif" font-weight="bold" font-size="16.00" fill="#000000">journal_entries</text>
<text text-anchor="start" x="1452.7136" y="-385.9262" font-family="Helvetica,sans-Serif" font-size="16.00" fill="#000000">[table]</text>
<polygon fill="none" stroke="#000000" points="1327,-351.3262 1327,-376.3262 1501,-376.3262 1501,-351.3262 1327,-351.3262"/>
<text text-anchor="start" x="1330" y="-358.9262" font-family="Helvetica,sans-Serif" font-size="16.00" fill="#000000">...</text>
<polygon fill="#ffffff" stroke="transparent" points="1327,-326.3262 1327,-351.3262 1387,-351.3262 1387,-326.3262 1327,-326.3262"/>
<polygon fill="none" stroke="#000000" points="1327,-326.3262 1327,-351.3262 1387,-351.3262 1387,-326.3262 1327,-326.3262"/>
<text text-anchor="start" x="1330" y="-333.9262" font-family="Helvetica,sans-Serif" font-size="16.00" fill="#000000">&lt; 3</text>
<polygon fill="#ffffff" stroke="transparent" points="1387,-326.3262 1387,-351.3262 1456,-351.3262 1456,-326.3262 1387,-326.3262"/>
<polygon fill="none" stroke="#000000" points="1387,-326.3262 1387,-351.3262 1456,-351.3262 1456,-326.3262 1387,-326.3262"/>
<text text-anchor="start" x="1405.888" y="-333.9262" font-family="Helvetica,sans-Serif" font-size="16.00" fill="#000000">2 rows</text>
<polygon fill="#ffffff" stroke="transparent" points="1456,-326.3262 1456,-351.3262 1501,-351.3262 1501,-326.3262 1456,-326.3262"/>
<polygon fill="none" stroke="#000000" points="1456,-326.3262 1456,-351.3262 1501,-351.3262 1501,-326.3262 1456,-326.3262"/>
<text text-anchor="start" x="1475.3168" y="-333.9262" font-family="Helvetica,sans-Serif" font-size="16.00" fill="#000000">1 &gt;</text>
</a>
</g>
</g>
<!-- locations_cities -->
<g id="node2" class="node">
<title>locations_cities</title>
<g id="a_node2"><a xlink:href="../../tables/locations_cities.html" xlink:title="locations_cities" target="_top">
<polygon fill="#ffffff" stroke="transparent" points="1098,-323.8262 1098,-402.8262 1278,-402.8262 1278,-323.8262 1098,-323.8262"/>
<polygon fill="#f5f5f5" stroke="transparent" points="1098,-373.3262 1098,-402.3262 1278,-402.3262 1278,-373.3262 1098,-373.3262"/>
<polygon fill="none" stroke="#000000" points="1098,-373.3262 1098,-402.3262 1278,-402.3262 1278,-373.3262 1098,-373.3262"/>
<text text-anchor="start" x="1103" y="-380.4262" font-family="Helvetica,sans-Serif" font-weight="bold" font-size="16.00" fill="#000000">locations_cities</text>
<text text-anchor="start" x="1229.7136" y="-382.9262" font-family="Helvetica,sans-Serif" font-size="16.00" fill="#000000">[table]</text>
<polygon fill="none" stroke="#000000" points="1098,-348.3262 1098,-373.3262 1278,-373.3262 1278,-348.3262 1098,-348.3262"/>
<text text-anchor="start" x="1101" y="-355.9262" font-family="Helvetica,sans-Serif" font-size="16.00" fill="#000000">...</text>
<polygon fill="#ffffff" stroke="transparent" points="1098,-323.3262 1098,-348.3262 1137,-348.3262 1137,-323.3262 1098,-323.3262"/>
<polygon fill="none" stroke="#000000" points="1098,-323.3262 1098,-348.3262 1137,-348.3262 1137,-323.3262 1098,-323.3262"/>
<text text-anchor="start" x="1101" y="-330.9262" font-family="Helvetica,sans-Serif" font-size="16.00" fill="#000000">&lt; 5</text>
<polygon fill="#ffffff" stroke="transparent" points="1137,-323.3262 1137,-348.3262 1244,-348.3262 1244,-323.3262 1137,-323.3262"/>
<polygon fill="none" stroke="#000000" points="1137,-323.3262 1137,-348.3262 1244,-348.3262 1244,-323.3262 1137,-323.3262"/>
<text text-anchor="start" x="1144.9696" y="-330.9262" font-family="Helvetica,sans-Serif" font-size="16.00" fill="#000000">210,698 rows</text>
<polygon fill="#ffffff" stroke="transparent" points="1244,-323.3262 1244,-348.3262 1278,-348.3262 1278,-323.3262 1244,-323.3262"/>
<polygon fill="none" stroke="#000000" points="1244,-323.3262 1244,-348.3262 1278,-348.3262 1278,-323.3262 1244,-323.3262"/>
<text text-anchor="start" x="1252.3168" y="-330.9262" font-family="Helvetica,sans-Serif" font-size="16.00" fill="#000000">1 &gt;</text>
</a>
</g>
</g>
<!-- journal_entries&#45;&gt;locations_cities -->
<g id="edge1" class="edge">
<title>journal_entries:w&#45;&gt;locations_cities:e</title>
<path fill="none" stroke="#000000" d="M1312.5909,-363.3262C1303.9171,-363.3262 1295.0879,-363.3262 1286.3384,-363.3262"/>
<polygon fill="#000000" stroke="#000000" points="1319,-363.3263 1327,-366.9262 1323,-363.3262 1327,-363.3262 1327,-363.3262 1327,-363.3262 1323,-363.3262 1327,-359.7262 1319,-363.3263 1319,-363.3263"/>
<ellipse fill="none" stroke="#000000" cx="1315.8" cy="-363.3263" rx="3.2" ry="3.2"/>
</g>
<!-- locations_administrative_divisions_1 -->
<g id="node3" class="node">
<title>locations_administrative_divisions_1</title>
<g id="a_node3"><a xlink:href="../../tables/locations_administrative_divisions_1.html" xlink:title="locations_administrative_divisions_1" target="_top">
<polygon fill="#ffffff" stroke="transparent" points="270,-387.8262 270,-466.8262 624,-466.8262 624,-387.8262 270,-387.8262"/>
<polygon fill="#f5f5f5" stroke="transparent" points="270,-437.3262 270,-466.3262 624,-466.3262 624,-437.3262 270,-437.3262"/>
<polygon fill="none" stroke="#000000" points="270,-437.3262 270,-466.3262 624,-466.3262 624,-437.3262 270,-437.3262"/>
<text text-anchor="start" x="275" y="-444.4262" font-family="Helvetica,sans-Serif" font-weight="bold" font-size="16.00" fill="#000000">locations_administrative_divisions_1</text>
<text text-anchor="start" x="575.7136" y="-446.9262" font-family="Helvetica,sans-Serif" font-size="16.00" fill="#000000">[table]</text>
<polygon fill="none" stroke="#000000" points="270,-412.3262 270,-437.3262 624,-437.3262 624,-412.3262 270,-412.3262"/>
<text text-anchor="start" x="273" y="-419.9262" font-family="Helvetica,sans-Serif" font-size="16.00" fill="#000000">...</text>
<polygon fill="#ffffff" stroke="transparent" points="270,-387.3262 270,-412.3262 405,-412.3262 405,-387.3262 270,-387.3262"/>
<polygon fill="none" stroke="#000000" points="270,-387.3262 270,-412.3262 405,-412.3262 405,-387.3262 270,-387.3262"/>
<text text-anchor="start" x="273" y="-394.9262" font-family="Helvetica,sans-Serif" font-size="16.00" fill="#000000">&lt; 1</text>
<polygon fill="#ffffff" stroke="transparent" points="405,-387.3262 405,-412.3262 542,-412.3262 542,-387.3262 405,-387.3262"/>
<polygon fill="none" stroke="#000000" points="405,-387.3262 405,-412.3262 542,-412.3262 542,-387.3262 405,-387.3262"/>
<text text-anchor="start" x="460.7584" y="-394.9262" font-family="Helvetica,sans-Serif" font-size="16.00" fill="#000000">3,893 rows</text>
<polygon fill="#ffffff" stroke="transparent" points="542,-387.3262 542,-412.3262 624,-412.3262 624,-387.3262 542,-387.3262"/>
<polygon fill="none" stroke="#000000" points="542,-387.3262 542,-412.3262 624,-412.3262 624,-387.3262 542,-387.3262"/>
<text text-anchor="start" x="598.3168" y="-394.9262" font-family="Helvetica,sans-Serif" font-size="16.00" fill="#000000">2 &gt;</text>
</a>
</g>
</g>
<!-- locations_cities&#45;&gt;locations_administrative_divisions_1 -->
<g id="edge5" class="edge">
<title>locations_cities:w&#45;&gt;locations_administrative_divisions_1:e</title>
<path fill="none" stroke="#000000" d="M1075.4342,-372.0215C922.4548,-383.8566 667.459,-403.6561 665,-404.3262 645.4386,-409.6567 644.2747,-424.3262 624,-424.3262"/>
<polygon fill="#000000" stroke="#000000" points="1081.9321,-371.5189 1090.1859,-374.4912 1085.9202,-371.2104 1089.9083,-370.9019 1089.9083,-370.9019 1089.9083,-370.9019 1085.9202,-371.2104 1089.6306,-367.3126 1081.9321,-371.5189 1081.9321,-371.5189"/>
<ellipse fill="none" stroke="#000000" cx="1078.7416" cy="-371.7657" rx="3.2" ry="3.2"/>
</g>
<!-- locations_countries -->
<g id="node4" class="node">
<title>locations_countries</title>
<g id="a_node4"><a xlink:href="../../tables/locations_countries.html" xlink:title="locations_countries" target="_top">
<polygon fill="#ffffff" stroke="transparent" points="8,-387.8262 8,-466.8262 221,-466.8262 221,-387.8262 8,-387.8262"/>
<polygon fill="#f5f5f5" stroke="transparent" points="8.5,-437.3262 8.5,-466.3262 221.5,-466.3262 221.5,-437.3262 8.5,-437.3262"/>
<polygon fill="none" stroke="#000000" points="8.5,-437.3262 8.5,-466.3262 221.5,-466.3262 221.5,-437.3262 8.5,-437.3262"/>
<text text-anchor="start" x="13.5" y="-444.4262" font-family="Helvetica,sans-Serif" font-weight="bold" font-size="16.00" fill="#000000">locations_countries</text>
<text text-anchor="start" x="173.2136" y="-446.9262" font-family="Helvetica,sans-Serif" font-size="16.00" fill="#000000">[table]</text>
<polygon fill="none" stroke="#000000" points="8.5,-412.3262 8.5,-437.3262 221.5,-437.3262 221.5,-412.3262 8.5,-412.3262"/>
<text text-anchor="start" x="11.5" y="-419.9262" font-family="Helvetica,sans-Serif" font-size="16.00" fill="#000000">...</text>
<polygon fill="#ffffff" stroke="transparent" points="8.5,-387.3262 8.5,-412.3262 79.5,-412.3262 79.5,-387.3262 8.5,-387.3262"/>
<polygon fill="none" stroke="#000000" points="8.5,-387.3262 8.5,-412.3262 79.5,-412.3262 79.5,-387.3262 8.5,-387.3262"/>
<text text-anchor="start" x="11.5" y="-394.9262" font-family="Helvetica,sans-Serif" font-size="16.00" fill="#000000">&lt; 1</text>
<polygon fill="#ffffff" stroke="transparent" points="79.5,-387.3262 79.5,-412.3262 171.5,-412.3262 171.5,-387.3262 79.5,-387.3262"/>
<polygon fill="none" stroke="#000000" points="79.5,-387.3262 79.5,-412.3262 171.5,-412.3262 171.5,-387.3262 79.5,-387.3262"/>
<text text-anchor="start" x="103.5992" y="-394.9262" font-family="Helvetica,sans-Serif" font-size="16.00" fill="#000000">252 rows</text>
<polygon fill="#ffffff" stroke="transparent" points="171.5,-387.3262 171.5,-412.3262 221.5,-412.3262 221.5,-387.3262 171.5,-387.3262"/>
<polygon fill="none" stroke="#000000" points="171.5,-387.3262 171.5,-412.3262 221.5,-412.3262 221.5,-387.3262 171.5,-387.3262"/>
<text text-anchor="start" x="195.8168" y="-394.9262" font-family="Helvetica,sans-Serif" font-size="16.00" fill="#000000">3 &gt;</text>
</a>
</g>
</g>
<!-- locations_cities&#45;&gt;locations_countries -->
<g id="edge7" class="edge">
<title>locations_cities:w&#45;&gt;locations_countries:e</title>
<path fill="none" stroke="#000000" d="M1075.4922,-359.8961C844.8157,-353.6041 333.8308,-343.7435 262,-377.3262 237.0208,-389.0046 249.0744,-424.3262 221.5,-424.3262"/>
<polygon fill="#000000" stroke="#000000" points="1081.9429,-360.0744 1089.8403,-363.8941 1085.9414,-360.1849 1089.9398,-360.2955 1089.9398,-360.2955 1089.9398,-360.2955 1085.9414,-360.1849 1090.0394,-356.6969 1081.9429,-360.0744 1081.9429,-360.0744"/>
<ellipse fill="none" stroke="#000000" cx="1078.7441" cy="-359.9859" rx="3.2" ry="3.2"/>
</g>
<!-- locations_administrative_divisions_2 -->
<g id="node5" class="node">
<title>locations_administrative_divisions_2</title>
<g id="a_node5"><a xlink:href="../../tables/locations_administrative_divisions_2.html" xlink:title="locations_administrative_divisions_2" target="_top">
<polygon fill="#ffffff" stroke="transparent" points="684,-414.8262 684,-493.8262 1038,-493.8262 1038,-414.8262 684,-414.8262"/>
<polygon fill="#f5f5f5" stroke="transparent" points="684,-464.3262 684,-493.3262 1038,-493.3262 1038,-464.3262 684,-464.3262"/>
<polygon fill="none" stroke="#000000" points="684,-464.3262 684,-493.3262 1038,-493.3262 1038,-464.3262 684,-464.3262"/>
<text text-anchor="start" x="689" y="-471.4262" font-family="Helvetica,sans-Serif" font-weight="bold" font-size="16.00" fill="#000000">locations_administrative_divisions_2</text>
<text text-anchor="start" x="989.7136" y="-473.9262" font-family="Helvetica,sans-Serif" font-size="16.00" fill="#000000">[table]</text>
<polygon fill="none" stroke="#000000" points="684,-439.3262 684,-464.3262 1038,-464.3262 1038,-439.3262 684,-439.3262"/>
<text text-anchor="start" x="687" y="-446.9262" font-family="Helvetica,sans-Serif" font-size="16.00" fill="#000000">...</text>
<polygon fill="#ffffff" stroke="transparent" points="684,-414.3262 684,-439.3262 814,-439.3262 814,-414.3262 684,-414.3262"/>
<polygon fill="none" stroke="#000000" points="684,-414.3262 684,-439.3262 814,-439.3262 814,-414.3262 684,-414.3262"/>
<text text-anchor="start" x="687" y="-421.9262" font-family="Helvetica,sans-Serif" font-size="16.00" fill="#000000">&lt; 2</text>
<polygon fill="#ffffff" stroke="transparent" points="814,-414.3262 814,-439.3262 958,-439.3262 958,-414.3262 814,-414.3262"/>
<polygon fill="none" stroke="#000000" points="814,-414.3262 814,-439.3262 958,-439.3262 958,-414.3262 814,-414.3262"/>
<text text-anchor="start" x="867.864" y="-421.9262" font-family="Helvetica,sans-Serif" font-size="16.00" fill="#000000">47,229 rows</text>
<polygon fill="#ffffff" stroke="transparent" points="958,-414.3262 958,-439.3262 1038,-439.3262 1038,-414.3262 958,-414.3262"/>
<polygon fill="none" stroke="#000000" points="958,-414.3262 958,-439.3262 1038,-439.3262 1038,-414.3262 958,-414.3262"/>
<text text-anchor="start" x="1012.3168" y="-421.9262" font-family="Helvetica,sans-Serif" font-size="16.00" fill="#000000">1 &gt;</text>
</a>
</g>
</g>
<!-- locations_cities&#45;&gt;locations_administrative_divisions_2 -->
<g id="edge6" class="edge">
<title>locations_cities:w&#45;&gt;locations_administrative_divisions_2:e</title>
<path fill="none" stroke="#000000" stroke-dasharray="5,2" d="M1130.7086,-415.8206C1104.4201,-434.6524 1071.6444,-451.3262 1038,-451.3262"/>
<polygon fill="#000000" stroke="#000000" points="1135.9239,-411.8863 1144.4785,-409.9424 1139.1172,-409.4773 1142.3105,-407.0684 1142.3105,-407.0684 1142.3105,-407.0684 1139.1172,-409.4773 1140.1424,-404.1944 1135.9239,-411.8863 1135.9239,-411.8863"/>
<ellipse fill="none" stroke="#000000" cx="1133.3693" cy="-413.8135" rx="3.2" ry="3.2"/>
</g>
<!-- locations_feature_classes -->
<g id="node6" class="node">
<title>locations_feature_classes</title>
<g id="a_node6"><a xlink:href="../../tables/locations_feature_classes.html" xlink:title="locations_feature_classes" target="_top">
<polygon fill="#ffffff" stroke="transparent" points="315,-135.8262 315,-214.8262 579,-214.8262 579,-135.8262 315,-135.8262"/>
<polygon fill="#f5f5f5" stroke="transparent" points="315,-185.3262 315,-214.3262 579,-214.3262 579,-185.3262 315,-185.3262"/>
<polygon fill="none" stroke="#000000" points="315,-185.3262 315,-214.3262 579,-214.3262 579,-185.3262 315,-185.3262"/>
<text text-anchor="start" x="320" y="-192.4262" font-family="Helvetica,sans-Serif" font-weight="bold" font-size="16.00" fill="#000000">locations_feature_classes</text>
<text text-anchor="start" x="530.7136" y="-194.9262" font-family="Helvetica,sans-Serif" font-size="16.00" fill="#000000">[table]</text>
<polygon fill="none" stroke="#000000" points="315,-160.3262 315,-185.3262 579,-185.3262 579,-160.3262 315,-160.3262"/>
<text text-anchor="start" x="318" y="-167.9262" font-family="Helvetica,sans-Serif" font-size="16.00" fill="#000000">...</text>
<polygon fill="#ffffff" stroke="transparent" points="315,-135.3262 315,-160.3262 413,-160.3262 413,-135.3262 315,-135.3262"/>
<polygon fill="none" stroke="#000000" points="315,-135.3262 315,-160.3262 413,-160.3262 413,-135.3262 315,-135.3262"/>
<text text-anchor="start" x="318" y="-142.9262" font-family="Helvetica,sans-Serif" font-size="16.00" fill="#000000"> &#160;</text>
<polygon fill="#ffffff" stroke="transparent" points="413,-135.3262 413,-160.3262 508,-160.3262 508,-135.3262 413,-135.3262"/>
<polygon fill="none" stroke="#000000" points="413,-135.3262 413,-160.3262 508,-160.3262 508,-135.3262 413,-135.3262"/>
<text text-anchor="start" x="457.888" y="-142.9262" font-family="Helvetica,sans-Serif" font-size="16.00" fill="#000000">9 rows</text>
<polygon fill="#ffffff" stroke="transparent" points="508,-135.3262 508,-160.3262 579,-160.3262 579,-135.3262 508,-135.3262"/>
<polygon fill="none" stroke="#000000" points="508,-135.3262 508,-160.3262 579,-160.3262 579,-135.3262 508,-135.3262"/>
<text text-anchor="start" x="553.3168" y="-142.9262" font-family="Helvetica,sans-Serif" font-size="16.00" fill="#000000">2 &gt;</text>
</a>
</g>
</g>
<!-- locations_cities&#45;&gt;locations_feature_classes -->
<g id="edge8" class="edge">
<title>locations_cities:w&#45;&gt;locations_feature_classes:e</title>
<path fill="none" stroke="#000000" d="M1178.1687,-305.5376C1163.8487,-241.488 1130.4637,-141.1872 1057,-95.3262 893.5726,6.6961 657.6112,-74.7651 532.4623,-131.7972"/>
<polygon fill="#000000" stroke="#000000" points="1179.5266,-311.9746 1177.6555,-320.5454 1180.3523,-315.8884 1181.178,-319.8023 1181.178,-319.8023 1181.178,-319.8023 1180.3523,-315.8884 1184.7005,-319.0592 1179.5266,-311.9746 1179.5266,-311.9746"/>
<ellipse fill="none" stroke="#000000" cx="1178.8661" cy="-308.8435" rx="3.2" ry="3.2"/>
</g>
<!-- locations_feature_codes -->
<g id="node7" class="node">
<title>locations_feature_codes</title>
<g id="a_node7"><a xlink:href="../../tables/locations_feature_codes.html" xlink:title="locations_feature_codes" target="_top">
<polygon fill="#ffffff" stroke="transparent" points="673,-105.8262 673,-338.8262 1049,-338.8262 1049,-105.8262 673,-105.8262"/>
<polygon fill="#f5f5f5" stroke="transparent" points="675,-307.3262 675,-336.3262 1047,-336.3262 1047,-307.3262 675,-307.3262"/>
<polygon fill="none" stroke="#000000" points="675,-307.3262 675,-336.3262 1047,-336.3262 1047,-307.3262 675,-307.3262"/>
<text text-anchor="start" x="680" y="-314.4262" font-family="Helvetica,sans-Serif" font-weight="bold" font-size="16.00" fill="#000000">locations_feature_codes</text>
<text text-anchor="start" x="998.4272" y="-316.9262" font-family="Helvetica,sans-Serif" font-size="16.00" fill="#000000">[table]</text>
<polygon fill="none" stroke="#000000" points="675,-282.3262 675,-307.3262 895,-307.3262 895,-282.3262 675,-282.3262"/>
<image xlink:href="../../images/primaryKeys.png" width="11px" height="12px" preserveAspectRatio="xMinYMin meet" x="680" y="-300.826"/>
<text text-anchor="start" x="695" y="-286.4262" font-family="Helvetica,sans-Serif" font-size="16.00" fill="#000000">feature_code</text>
<polygon fill="none" stroke="#000000" points="895,-282.3262 895,-307.3262 1047,-307.3262 1047,-282.3262 895,-282.3262"/>
<text text-anchor="start" x="898" y="-289.9262" font-family="Helvetica,sans-Serif" font-size="16.00" fill="#000000">text[2000000000]</text>
<polygon fill="#ffffff" stroke="transparent" points="675,-257.3262 675,-282.3262 895,-282.3262 895,-257.3262 675,-257.3262"/>
<polygon fill="none" stroke="#000000" points="675,-257.3262 675,-282.3262 895,-282.3262 895,-257.3262 675,-257.3262"/>
<image xlink:href="../../images/foreignKeys.png" width="11px" height="12px" preserveAspectRatio="xMinYMin meet" x="680" y="-275.826"/>
<text text-anchor="start" x="695" y="-261.4262" font-family="Helvetica,sans-Serif" font-size="16.00" fill="#000000">feature_class</text>
<polygon fill="none" stroke="#000000" points="895,-257.3262 895,-282.3262 1047,-282.3262 1047,-257.3262 895,-257.3262"/>
<text text-anchor="start" x="898" y="-264.9262" font-family="Helvetica,sans-Serif" font-size="16.00" fill="#000000">text[2000000000]</text>
<polygon fill="#ffffff" stroke="transparent" points="675,-232.3262 675,-257.3262 895,-257.3262 895,-232.3262 675,-232.3262"/>
<polygon fill="none" stroke="#000000" points="675,-232.3262 675,-257.3262 895,-257.3262 895,-232.3262 675,-232.3262"/>
<text text-anchor="start" x="695" y="-236.4262" font-family="Helvetica,sans-Serif" font-size="16.00" fill="#000000">order</text>
<polygon fill="none" stroke="#000000" points="895,-232.3262 895,-257.3262 1047,-257.3262 1047,-232.3262 895,-232.3262"/>
<text text-anchor="start" x="897.6312" y="-239.9262" font-family="Helvetica,sans-Serif" font-size="16.00" fill="#000000">integer[2000000000]</text>
<polygon fill="none" stroke="#000000" points="675,-207.3262 675,-232.3262 895,-232.3262 895,-207.3262 675,-207.3262"/>
<text text-anchor="start" x="695" y="-211.4262" font-family="Helvetica,sans-Serif" font-size="16.00" fill="#000000">description</text>
<polygon fill="none" stroke="#000000" points="895,-207.3262 895,-232.3262 1047,-232.3262 1047,-207.3262 895,-207.3262"/>
<text text-anchor="start" x="898" y="-214.9262" font-family="Helvetica,sans-Serif" font-size="16.00" fill="#000000">text[2000000000]</text>
<polygon fill="none" stroke="#000000" points="675,-182.3262 675,-207.3262 895,-207.3262 895,-182.3262 675,-182.3262"/>
<text text-anchor="start" x="695" y="-186.4262" font-family="Helvetica,sans-Serif" font-size="16.00" fill="#000000">note</text>
<polygon fill="none" stroke="#000000" points="895,-182.3262 895,-207.3262 1047,-207.3262 1047,-182.3262 895,-182.3262"/>
<text text-anchor="start" x="898" y="-189.9262" font-family="Helvetica,sans-Serif" font-size="16.00" fill="#000000">text[2000000000]</text>
<polygon fill="none" stroke="#000000" points="675,-157.3262 675,-182.3262 895,-182.3262 895,-157.3262 675,-157.3262"/>
<text text-anchor="start" x="695" y="-161.4262" font-family="Helvetica,sans-Serif" font-size="16.00" fill="#000000">inserted_at</text>
<polygon fill="none" stroke="#000000" points="895,-157.3262 895,-182.3262 1047,-182.3262 1047,-157.3262 895,-157.3262"/>
<text text-anchor="start" x="898" y="-164.9262" font-family="Helvetica,sans-Serif" font-size="16.00" fill="#000000">text[2000000000]</text>
<polygon fill="none" stroke="#000000" points="675,-132.3262 675,-157.3262 895,-157.3262 895,-132.3262 675,-132.3262"/>
<text text-anchor="start" x="695" y="-136.4262" font-family="Helvetica,sans-Serif" font-size="16.00" fill="#000000">updated_at</text>
<polygon fill="none" stroke="#000000" points="895,-132.3262 895,-157.3262 1047,-157.3262 1047,-132.3262 895,-132.3262"/>
<text text-anchor="start" x="898" y="-139.9262" font-family="Helvetica,sans-Serif" font-size="16.00" fill="#000000">text[2000000000]</text>
<polygon fill="#ffffff" stroke="transparent" points="675,-107.3262 675,-132.3262 764,-132.3262 764,-107.3262 675,-107.3262"/>
<polygon fill="none" stroke="#000000" points="675,-107.3262 675,-132.3262 764,-132.3262 764,-107.3262 675,-107.3262"/>
<text text-anchor="start" x="678" y="-114.9262" font-family="Helvetica,sans-Serif" font-size="16.00" fill="#000000">&lt; 1</text>
<polygon fill="#ffffff" stroke="transparent" points="764,-107.3262 764,-132.3262 895,-132.3262 895,-107.3262 764,-107.3262"/>
<polygon fill="none" stroke="#000000" points="764,-107.3262 764,-132.3262 895,-132.3262 895,-107.3262 764,-107.3262"/>
<text text-anchor="start" x="827.0992" y="-114.9262" font-family="Helvetica,sans-Serif" font-size="16.00" fill="#000000">684 rows</text>
<polygon fill="#ffffff" stroke="transparent" points="895,-107.3262 895,-132.3262 1047,-132.3262 1047,-107.3262 895,-107.3262"/>
<polygon fill="none" stroke="#000000" points="895,-107.3262 895,-132.3262 1047,-132.3262 1047,-107.3262 895,-107.3262"/>
<text text-anchor="start" x="1021.3168" y="-114.9262" font-family="Helvetica,sans-Serif" font-size="16.00" fill="#000000">1 &gt;</text>
<polygon fill="none" stroke="#000000" stroke-width="2" points="674,-106.8262 674,-337.8262 1048,-337.8262 1048,-106.8262 674,-106.8262"/>
</a>
</g>
</g>
<!-- locations_cities&#45;&gt;locations_feature_codes -->
<g id="edge9" class="edge">
<title>locations_cities:w&#45;&gt;locations_feature_codes:e</title>
<path fill="none" stroke="#000000" d="M1114.4576,-312.9464C1093.5737,-302.877 1070.184,-295.3262 1047,-295.3262"/>
<polygon fill="#000000" stroke="#000000" points="1120.3491,-316.0012 1125.794,-322.8796 1123.9001,-317.8424 1127.4511,-319.6837 1127.4511,-319.6837 1127.4511,-319.6837 1123.9001,-317.8424 1129.1083,-316.4878 1120.3491,-316.0012 1120.3491,-316.0012"/>
<ellipse fill="none" stroke="#000000" cx="1117.5082" cy="-314.5282" rx="3.2" ry="3.2"/>
</g>
<!-- locations_administrative_divisions_1&#45;&gt;locations_countries -->
<g id="edge2" class="edge">
<title>locations_administrative_divisions_1:w&#45;&gt;locations_countries:e</title>
<path fill="none" stroke="#000000" d="M255.2829,-424.3262C244.2886,-424.3262 237.1615,-424.3262 221.5,-424.3262"/>
<polygon fill="#000000" stroke="#000000" points="262,-424.3263 270,-427.9262 266,-424.3262 270,-424.3262 270,-424.3262 270,-424.3262 266,-424.3262 270,-420.7262 262,-424.3263 262,-424.3263"/>
<ellipse fill="none" stroke="#000000" cx="258.8" cy="-424.3263" rx="3.2" ry="3.2"/>
</g>
<!-- locations_administrative_divisions_2&#45;&gt;locations_administrative_divisions_1 -->
<g id="edge3" class="edge">
<title>locations_administrative_divisions_2:w&#45;&gt;locations_administrative_divisions_1:e</title>
<path fill="none" stroke="#000000" d="M669.6258,-448.6386C653.1081,-441.8093 647.5309,-424.3262 624,-424.3262"/>
<polygon fill="#000000" stroke="#000000" points="676.1363,-449.8559 683.3383,-454.8649 680.0681,-450.591 684,-451.3262 684,-451.3262 684,-451.3262 680.0681,-450.591 684.6617,-447.7875 676.1363,-449.8559 676.1363,-449.8559"/>
<ellipse fill="none" stroke="#000000" cx="672.9908" cy="-449.2677" rx="3.2" ry="3.2"/>
</g>
<!-- locations_administrative_divisions_2&#45;&gt;locations_countries -->
<g id="edge4" class="edge">
<title>locations_administrative_divisions_2:w&#45;&gt;locations_countries:e</title>
<path fill="none" stroke="#000000" d="M669.6911,-454.0182C656.463,-459.6923 651.4502,-472.7346 632,-477.3262 471.9546,-515.1078 409.4129,-550.2057 262,-477.3262 235.4248,-464.1877 251.1456,-424.3262 221.5,-424.3262"/>
<polygon fill="#000000" stroke="#000000" points="676.1379,-452.8054 684.6656,-454.8641 680.069,-452.0658 684,-451.3262 684,-451.3262 684,-451.3262 680.069,-452.0658 683.3344,-447.7883 676.1379,-452.8054 676.1379,-452.8054"/>
<ellipse fill="none" stroke="#000000" cx="672.9931" cy="-453.397" rx="3.2" ry="3.2"/>
</g>
<!-- locations_feature_codes&#45;&gt;locations_feature_classes -->
<g id="edge10" class="edge">
<title>locations_feature_codes:w&#45;&gt;locations_feature_classes:e</title>
<path fill="none" stroke="#000000" d="M660.3756,-269.7837C607.1056,-265.8989 553.1741,-241.8101 512.8588,-218.9336"/>
<polygon fill="#000000" stroke="#000000" points="667.0055,-270.0296 674.8665,-273.9237 671.0027,-270.1779 675,-270.3262 675,-270.3262 675,-270.3262 671.0027,-270.1779 675.1335,-266.7287 667.0055,-270.0296 667.0055,-270.0296"/>
<ellipse fill="none" stroke="#000000" cx="663.8077" cy="-269.9109" rx="3.2" ry="3.2"/>
</g>
</g>
</svg>
