<?xml version="1.0" encoding="UTF-8" standalone="no"?>
<!DOCTYPE svg PUBLIC "-//W3C//DTD SVG 1.1//EN"
 "http://www.w3.org/Graphics/SVG/1.1/DTD/svg11.dtd">
<!-- Generated by graphviz version 2.40.1 (20161225.0304)
 -->
<!-- Title: twoDegreesRelationshipsDiagram Pages: 1 -->
<svg width="1974pt" height="971pt"
 viewBox="0.00 0.00 1974.00 970.70" xmlns="http://www.w3.org/2000/svg" xmlns:xlink="http://www.w3.org/1999/xlink">
<g id="graph0" class="graph" transform="scale(1 1) rotate(0) translate(4 966.7)">
<title>twoDegreesRelationshipsDiagram</title>
<polygon fill="#ffffff" stroke="transparent" points="-4,4 -4,-966.7 1970,-966.7 1970,4 -4,4"/>
<text text-anchor="middle" x="101.8088" y="-8.8" font-family="Helvetica,sans-Serif" font-size="16.00" fill="#000000">Generated by SchemaSpy</text>
<!-- journal_entries -->
<g id="node1" class="node">
<title>journal_entries</title>
<g id="a_node1"><a xlink:href="../../tables/journal_entries.html" xlink:title="journal_entries" target="_top">
<polygon fill="#ffffff" stroke="transparent" points="1508,-611.7 1508,-844.7 1704,-844.7 1704,-611.7 1508,-611.7"/>
<polygon fill="#f5f5f5" stroke="transparent" points="1508,-815.2 1508,-844.2 1704,-844.2 1704,-815.2 1508,-815.2"/>
<polygon fill="none" stroke="#000000" points="1508,-815.2 1508,-844.2 1704,-844.2 1704,-815.2 1508,-815.2"/>
<text text-anchor="start" x="1513" y="-822.3" font-family="Helvetica,sans-Serif" font-weight="bold" font-size="16.00" fill="#000000">journal_entries</text>
<text text-anchor="start" x="1655.4272" y="-824.8" font-family="Helvetica,sans-Serif" font-size="16.00" fill="#000000">[table]</text>
<polygon fill="none" stroke="#000000" points="1508,-793.2 1508,-815.2 1704,-815.2 1704,-793.2 1508,-793.2"/>
<image xlink:href="../../images/primaryKeys.png" width="11px" height="12px" preserveAspectRatio="xMinYMin meet" x="1513" y="-810.2"/>
<text text-anchor="start" x="1528" y="-795.8" font-family="Helvetica,sans-Serif" font-size="16.00" fill="#000000">id</text>
<polygon fill="#ffffff" stroke="transparent" points="1508,-771.2 1508,-793.2 1704,-793.2 1704,-771.2 1508,-771.2"/>
<polygon fill="none" stroke="#000000" points="1508,-771.2 1508,-793.2 1704,-793.2 1704,-771.2 1508,-771.2"/>
<text text-anchor="start" x="1528" y="-773.8" font-family="Helvetica,sans-Serif" font-size="16.00" fill="#000000">journal_for</text>
<polygon fill="#ffffff" stroke="transparent" points="1508,-749.2 1508,-771.2 1704,-771.2 1704,-749.2 1508,-749.2"/>
<polygon fill="none" stroke="#000000" points="1508,-749.2 1508,-771.2 1704,-771.2 1704,-749.2 1508,-749.2"/>
<image xlink:href="../../images/foreignKeys.png" width="11px" height="12px" preserveAspectRatio="xMinYMin meet" x="1513" y="-766.2"/>
<text text-anchor="start" x="1528" y="-751.8" font-family="Helvetica,sans-Serif" font-size="16.00" fill="#000000">entry_type_id</text>
<polygon fill="#ffffff" stroke="transparent" points="1508,-727.2 1508,-749.2 1704,-749.2 1704,-727.2 1508,-727.2"/>
<polygon fill="none" stroke="#000000" points="1508,-727.2 1508,-749.2 1704,-749.2 1704,-727.2 1508,-727.2"/>
<text text-anchor="start" x="1528" y="-729.8" font-family="Helvetica,sans-Serif" font-size="16.00" fill="#000000">is_private</text>
<polygon fill="#ffffff" stroke="transparent" points="1508,-705.2 1508,-727.2 1704,-727.2 1704,-705.2 1508,-705.2"/>
<polygon fill="none" stroke="#000000" points="1508,-705.2 1508,-727.2 1704,-727.2 1704,-705.2 1508,-705.2"/>
<image xlink:href="../../images/foreignKeys.png" width="11px" height="12px" preserveAspectRatio="xMinYMin meet" x="1513" y="-722.2"/>
<text text-anchor="start" x="1528" y="-707.8" font-family="Helvetica,sans-Serif" font-size="16.00" fill="#000000">user_id</text>
<polygon fill="#ffffff" stroke="transparent" points="1508,-683.2 1508,-705.2 1704,-705.2 1704,-683.2 1508,-683.2"/>
<polygon fill="none" stroke="#000000" points="1508,-683.2 1508,-705.2 1704,-705.2 1704,-683.2 1508,-683.2"/>
<text text-anchor="start" x="1528" y="-685.8" font-family="Helvetica,sans-Serif" font-size="16.00" fill="#000000">inserted_at</text>
<polygon fill="none" stroke="#000000" points="1508,-661.2 1508,-683.2 1704,-683.2 1704,-661.2 1508,-661.2"/>
<image xlink:href="../../images/foreignKeys.png" width="11px" height="12px" preserveAspectRatio="xMinYMin meet" x="1513" y="-678.2"/>
<text text-anchor="start" x="1528" y="-663.8" font-family="Helvetica,sans-Serif" font-size="16.00" fill="#000000">location_id</text>
<polygon fill="none" stroke="#000000" points="1508,-636.2 1508,-661.2 1704,-661.2 1704,-636.2 1508,-636.2"/>
<text text-anchor="start" x="1511" y="-643.8" font-family="Helvetica,sans-Serif" font-size="16.00" fill="#000000">...</text>
<polygon fill="#ffffff" stroke="transparent" points="1508,-611.2 1508,-636.2 1579,-636.2 1579,-611.2 1508,-611.2"/>
<polygon fill="none" stroke="#000000" points="1508,-611.2 1508,-636.2 1579,-636.2 1579,-611.2 1508,-611.2"/>
<text text-anchor="start" x="1511" y="-618.8" font-family="Helvetica,sans-Serif" font-size="16.00" fill="#000000">&lt; 3</text>
<polygon fill="#ffffff" stroke="transparent" points="1579,-611.2 1579,-636.2 1654,-636.2 1654,-611.2 1579,-611.2"/>
<polygon fill="none" stroke="#000000" points="1579,-611.2 1579,-636.2 1654,-636.2 1654,-611.2 1579,-611.2"/>
<text text-anchor="start" x="1603.888" y="-618.8" font-family="Helvetica,sans-Serif" font-size="16.00" fill="#000000">2 rows</text>
<polygon fill="#ffffff" stroke="transparent" points="1654,-611.2 1654,-636.2 1704,-636.2 1704,-611.2 1654,-611.2"/>
<polygon fill="none" stroke="#000000" points="1654,-611.2 1654,-636.2 1704,-636.2 1704,-611.2 1654,-611.2"/>
<text text-anchor="start" x="1678.3168" y="-618.8" font-family="Helvetica,sans-Serif" font-size="16.00" fill="#000000">1 &gt;</text>
</a>
</g>
</g>
<!-- journal_entry_types -->
<g id="node2" class="node">
<title>journal_entry_types</title>
<g id="a_node2"><a xlink:href="../../tables/journal_entry_types.html" xlink:title="journal_entry_types" target="_top">
<polygon fill="#ffffff" stroke="transparent" points="1120.5,-879.7 1120.5,-958.7 1334.5,-958.7 1334.5,-879.7 1120.5,-879.7"/>
<polygon fill="#f5f5f5" stroke="transparent" points="1120.5,-929.2 1120.5,-958.2 1334.5,-958.2 1334.5,-929.2 1120.5,-929.2"/>
<polygon fill="none" stroke="#000000" points="1120.5,-929.2 1120.5,-958.2 1334.5,-958.2 1334.5,-929.2 1120.5,-929.2"/>
<text text-anchor="start" x="1125.5" y="-936.3" font-family="Helvetica,sans-Serif" font-weight="bold" font-size="16.00" fill="#000000">journal_entry_types</text>
<text text-anchor="start" x="1286.2136" y="-938.8" font-family="Helvetica,sans-Serif" font-size="16.00" fill="#000000">[table]</text>
<polygon fill="none" stroke="#000000" points="1120.5,-904.2 1120.5,-929.2 1334.5,-929.2 1334.5,-904.2 1120.5,-904.2"/>
<text text-anchor="start" x="1123.5" y="-911.8" font-family="Helvetica,sans-Serif" font-size="16.00" fill="#000000">...</text>
<polygon fill="#ffffff" stroke="transparent" points="1120.5,-879.2 1120.5,-904.2 1193.5,-904.2 1193.5,-879.2 1120.5,-879.2"/>
<polygon fill="none" stroke="#000000" points="1120.5,-879.2 1120.5,-904.2 1193.5,-904.2 1193.5,-879.2 1120.5,-879.2"/>
<text text-anchor="start" x="1123.5" y="-886.8" font-family="Helvetica,sans-Serif" font-size="16.00" fill="#000000"> &#160;</text>
<polygon fill="#ffffff" stroke="transparent" points="1193.5,-879.2 1193.5,-904.2 1276.5,-904.2 1276.5,-879.2 1193.5,-879.2"/>
<polygon fill="none" stroke="#000000" points="1193.5,-879.2 1193.5,-904.2 1276.5,-904.2 1276.5,-879.2 1193.5,-879.2"/>
<text text-anchor="start" x="1226.388" y="-886.8" font-family="Helvetica,sans-Serif" font-size="16.00" fill="#000000">2 rows</text>
<polygon fill="#ffffff" stroke="transparent" points="1276.5,-879.2 1276.5,-904.2 1334.5,-904.2 1334.5,-879.2 1276.5,-879.2"/>
<polygon fill="none" stroke="#000000" points="1276.5,-879.2 1276.5,-904.2 1334.5,-904.2 1334.5,-879.2 1276.5,-879.2"/>
<text text-anchor="start" x="1308.8168" y="-886.8" font-family="Helvetica,sans-Serif" font-size="16.00" fill="#000000">1 &gt;</text>
</a>
</g>
</g>
<!-- journal_entries&#45;&gt;journal_entry_types -->
<g id="edge1" class="edge">
<title>journal_entries:w&#45;&gt;journal_entry_types:e</title>
<path fill="none" stroke="#000000" d="M1493.6051,-763.0214C1466.2593,-776.7493 1499.6136,-837.1972 1467,-869.2 1422.4015,-912.9632 1396.984,-916.2 1334.5,-916.2"/>
<polygon fill="#000000" stroke="#000000" points="1500.1494,-761.7387 1508.6924,-763.7328 1504.0747,-760.9694 1508,-760.2 1508,-760.2 1508,-760.2 1504.0747,-760.9694 1507.3076,-756.6672 1500.1494,-761.7387 1500.1494,-761.7387"/>
<ellipse fill="none" stroke="#000000" cx="1497.0091" cy="-762.3542" rx="3.2" ry="3.2"/>
</g>
<!-- locations_cities -->
<g id="node3" class="node">
<title>locations_cities</title>
<g id="a_node3"><a xlink:href="../../tables/locations_cities.html" xlink:title="locations_cities" target="_top">
<polygon fill="#ffffff" stroke="transparent" points="996,-50.2 996,-658.2 1459,-658.2 1459,-50.2 996,-50.2"/>
<polygon fill="#f5f5f5" stroke="transparent" points="998.5,-627.2 998.5,-656.2 1457.5,-656.2 1457.5,-627.2 998.5,-627.2"/>
<polygon fill="none" stroke="#000000" points="998.5,-627.2 998.5,-656.2 1457.5,-656.2 1457.5,-627.2 998.5,-627.2"/>
<text text-anchor="start" x="1003.5" y="-634.3" font-family="Helvetica,sans-Serif" font-weight="bold" font-size="16.00" fill="#000000">locations_cities</text>
<text text-anchor="start" x="1408.9272" y="-636.8" font-family="Helvetica,sans-Serif" font-size="16.00" fill="#000000">[table]</text>
<polygon fill="none" stroke="#000000" points="998.5,-602.2 998.5,-627.2 1275.5,-627.2 1275.5,-602.2 998.5,-602.2"/>
<image xlink:href="../../images/primaryKeys.png" width="11px" height="12px" preserveAspectRatio="xMinYMin meet" x="1003.5" y="-620.7"/>
<text text-anchor="start" x="1018.5" y="-606.3" font-family="Helvetica,sans-Serif" font-size="16.00" fill="#000000">id</text>
<polygon fill="none" stroke="#000000" points="1275.5,-602.2 1275.5,-627.2 1457.5,-627.2 1457.5,-602.2 1275.5,-602.2"/>
<text text-anchor="start" x="1278.5" y="-609.8" font-family="Helvetica,sans-Serif" font-size="16.00" fill="#000000">text[2000000000]</text>
<polygon fill="#ffffff" stroke="transparent" points="998.5,-577.2 998.5,-602.2 1275.5,-602.2 1275.5,-577.2 998.5,-577.2"/>
<polygon fill="none" stroke="#000000" points="998.5,-577.2 998.5,-602.2 1275.5,-602.2 1275.5,-577.2 998.5,-577.2"/>
<text text-anchor="start" x="1018.5" y="-581.3" font-family="Helvetica,sans-Serif" font-size="16.00" fill="#000000">geoname_id</text>
<polygon fill="none" stroke="#000000" points="1275.5,-577.2 1275.5,-602.2 1457.5,-602.2 1457.5,-577.2 1275.5,-577.2"/>
<text text-anchor="start" x="1278.5" y="-584.8" font-family="Helvetica,sans-Serif" font-size="16.00" fill="#000000">integer[2000000000]</text>
<polygon fill="#ffffff" stroke="transparent" points="998.5,-552.2 998.5,-577.2 1275.5,-577.2 1275.5,-552.2 998.5,-552.2"/>
<polygon fill="none" stroke="#000000" points="998.5,-552.2 998.5,-577.2 1275.5,-577.2 1275.5,-552.2 998.5,-552.2"/>
<text text-anchor="start" x="1018.5" y="-556.3" font-family="Helvetica,sans-Serif" font-size="16.00" fill="#000000">name</text>
<polygon fill="none" stroke="#000000" points="1275.5,-552.2 1275.5,-577.2 1457.5,-577.2 1457.5,-552.2 1275.5,-552.2"/>
<text text-anchor="start" x="1278.5" y="-559.8" font-family="Helvetica,sans-Serif" font-size="16.00" fill="#000000">text[2000000000]</text>
<polygon fill="none" stroke="#000000" points="998.5,-527.2 998.5,-552.2 1275.5,-552.2 1275.5,-527.2 998.5,-527.2"/>
<text text-anchor="start" x="1018.5" y="-531.3" font-family="Helvetica,sans-Serif" font-size="16.00" fill="#000000">ascii_name</text>
<polygon fill="none" stroke="#000000" points="1275.5,-527.2 1275.5,-552.2 1457.5,-552.2 1457.5,-527.2 1275.5,-527.2"/>
<text text-anchor="start" x="1278.5" y="-534.8" font-family="Helvetica,sans-Serif" font-size="16.00" fill="#000000">text[2000000000]</text>
<polygon fill="none" stroke="#000000" points="998.5,-502.2 998.5,-527.2 1275.5,-527.2 1275.5,-502.2 998.5,-502.2"/>
<text text-anchor="start" x="1018.5" y="-506.3" font-family="Helvetica,sans-Serif" font-size="16.00" fill="#000000">alternate_names</text>
<polygon fill="none" stroke="#000000" points="1275.5,-502.2 1275.5,-527.2 1457.5,-527.2 1457.5,-502.2 1275.5,-502.2"/>
<text text-anchor="start" x="1278.5" y="-509.8" font-family="Helvetica,sans-Serif" font-size="16.00" fill="#000000">text[2000000000]</text>
<polygon fill="#ffffff" stroke="transparent" points="998.5,-477.2 998.5,-502.2 1275.5,-502.2 1275.5,-477.2 998.5,-477.2"/>
<polygon fill="none" stroke="#000000" points="998.5,-477.2 998.5,-502.2 1275.5,-502.2 1275.5,-477.2 998.5,-477.2"/>
<text text-anchor="start" x="1018.5" y="-481.3" font-family="Helvetica,sans-Serif" font-size="16.00" fill="#000000">latitude</text>
<polygon fill="none" stroke="#000000" points="1275.5,-477.2 1275.5,-502.2 1457.5,-502.2 1457.5,-477.2 1275.5,-477.2"/>
<text text-anchor="start" x="1278.0208" y="-484.8" font-family="Helvetica,sans-Serif" font-size="16.00" fill="#000000">numeric[2000000000,10]</text>
<polygon fill="#ffffff" stroke="transparent" points="998.5,-452.2 998.5,-477.2 1275.5,-477.2 1275.5,-452.2 998.5,-452.2"/>
<polygon fill="none" stroke="#000000" points="998.5,-452.2 998.5,-477.2 1275.5,-477.2 1275.5,-452.2 998.5,-452.2"/>
<text text-anchor="start" x="1018.5" y="-456.3" font-family="Helvetica,sans-Serif" font-size="16.00" fill="#000000">longitude</text>
<polygon fill="none" stroke="#000000" points="1275.5,-452.2 1275.5,-477.2 1457.5,-477.2 1457.5,-452.2 1275.5,-452.2"/>
<text text-anchor="start" x="1278.0208" y="-459.8" font-family="Helvetica,sans-Serif" font-size="16.00" fill="#000000">numeric[2000000000,10]</text>
<polygon fill="none" stroke="#000000" points="998.5,-427.2 998.5,-452.2 1275.5,-452.2 1275.5,-427.2 998.5,-427.2"/>
<image xlink:href="../../images/foreignKeys.png" width="11px" height="12px" preserveAspectRatio="xMinYMin meet" x="1003.5" y="-445.7"/>
<text text-anchor="start" x="1018.5" y="-431.3" font-family="Helvetica,sans-Serif" font-size="16.00" fill="#000000">feature_class</text>
<polygon fill="none" stroke="#000000" points="1275.5,-427.2 1275.5,-452.2 1457.5,-452.2 1457.5,-427.2 1275.5,-427.2"/>
<text text-anchor="start" x="1278.5" y="-434.8" font-family="Helvetica,sans-Serif" font-size="16.00" fill="#000000">text[2000000000]</text>
<polygon fill="#ffffff" stroke="transparent" points="998.5,-402.2 998.5,-427.2 1275.5,-427.2 1275.5,-402.2 998.5,-402.2"/>
<polygon fill="none" stroke="#000000" points="998.5,-402.2 998.5,-427.2 1275.5,-427.2 1275.5,-402.2 998.5,-402.2"/>
<image xlink:href="../../images/foreignKeys.png" width="11px" height="12px" preserveAspectRatio="xMinYMin meet" x="1003.5" y="-420.7"/>
<text text-anchor="start" x="1018.5" y="-406.3" font-family="Helvetica,sans-Serif" font-size="16.00" fill="#000000">feature_code</text>
<polygon fill="none" stroke="#000000" points="1275.5,-402.2 1275.5,-427.2 1457.5,-427.2 1457.5,-402.2 1275.5,-402.2"/>
<text text-anchor="start" x="1278.5" y="-409.8" font-family="Helvetica,sans-Serif" font-size="16.00" fill="#000000">text[2000000000]</text>
<polygon fill="#ffffff" stroke="transparent" points="998.5,-377.2 998.5,-402.2 1275.5,-402.2 1275.5,-377.2 998.5,-377.2"/>
<polygon fill="none" stroke="#000000" points="998.5,-377.2 998.5,-402.2 1275.5,-402.2 1275.5,-377.2 998.5,-377.2"/>
<image xlink:href="../../images/foreignKeys.png" width="11px" height="12px" preserveAspectRatio="xMinYMin meet" x="1003.5" y="-395.7"/>
<text text-anchor="start" x="1018.5" y="-381.3" font-family="Helvetica,sans-Serif" font-size="16.00" fill="#000000">country_code</text>
<polygon fill="none" stroke="#000000" points="1275.5,-377.2 1275.5,-402.2 1457.5,-402.2 1457.5,-377.2 1275.5,-377.2"/>
<text text-anchor="start" x="1278.5" y="-384.8" font-family="Helvetica,sans-Serif" font-size="16.00" fill="#000000">text[2000000000]</text>
<polygon fill="none" stroke="#000000" points="998.5,-352.2 998.5,-377.2 1275.5,-377.2 1275.5,-352.2 998.5,-352.2"/>
<text text-anchor="start" x="1018.5" y="-356.3" font-family="Helvetica,sans-Serif" font-size="16.00" fill="#000000">cc2</text>
<polygon fill="none" stroke="#000000" points="1275.5,-352.2 1275.5,-377.2 1457.5,-377.2 1457.5,-352.2 1275.5,-352.2"/>
<text text-anchor="start" x="1278.5" y="-359.8" font-family="Helvetica,sans-Serif" font-size="16.00" fill="#000000">text[2000000000]</text>
<polygon fill="#ffffff" stroke="transparent" points="998.5,-327.2 998.5,-352.2 1275.5,-352.2 1275.5,-327.2 998.5,-327.2"/>
<polygon fill="none" stroke="#000000" points="998.5,-327.2 998.5,-352.2 1275.5,-352.2 1275.5,-327.2 998.5,-327.2"/>
<image xlink:href="../../images/foreignKeys.png" width="11px" height="12px" preserveAspectRatio="xMinYMin meet" x="1003.5" y="-345.7"/>
<text text-anchor="start" x="1018.5" y="-331.3" font-family="Helvetica,sans-Serif" font-size="16.00" fill="#000000">administrative_division_1_code</text>
<polygon fill="none" stroke="#000000" points="1275.5,-327.2 1275.5,-352.2 1457.5,-352.2 1457.5,-327.2 1275.5,-327.2"/>
<text text-anchor="start" x="1278.5" y="-334.8" font-family="Helvetica,sans-Serif" font-size="16.00" fill="#000000">text[2000000000]</text>
<polygon fill="#ffffff" stroke="transparent" points="998.5,-302.2 998.5,-327.2 1275.5,-327.2 1275.5,-302.2 998.5,-302.2"/>
<polygon fill="none" stroke="#000000" points="998.5,-302.2 998.5,-327.2 1275.5,-327.2 1275.5,-302.2 998.5,-302.2"/>
<image xlink:href="../../images/foreignKeys.png" width="11px" height="12px" preserveAspectRatio="xMinYMin meet" x="1003.5" y="-320.7"/>
<text text-anchor="start" x="1018.5" y="-306.3" font-family="Helvetica,sans-Serif" font-size="16.00" fill="#000000">administrative_division_2_code</text>
<polygon fill="none" stroke="#000000" points="1275.5,-302.2 1275.5,-327.2 1457.5,-327.2 1457.5,-302.2 1275.5,-302.2"/>
<text text-anchor="start" x="1278.5" y="-309.8" font-family="Helvetica,sans-Serif" font-size="16.00" fill="#000000">text[2000000000]</text>
<polygon fill="none" stroke="#000000" points="998.5,-277.2 998.5,-302.2 1275.5,-302.2 1275.5,-277.2 998.5,-277.2"/>
<text text-anchor="start" x="1018.5" y="-281.3" font-family="Helvetica,sans-Serif" font-size="16.00" fill="#000000">administrative_division_3_code</text>
<polygon fill="none" stroke="#000000" points="1275.5,-277.2 1275.5,-302.2 1457.5,-302.2 1457.5,-277.2 1275.5,-277.2"/>
<text text-anchor="start" x="1278.5" y="-284.8" font-family="Helvetica,sans-Serif" font-size="16.00" fill="#000000">text[2000000000]</text>
<polygon fill="none" stroke="#000000" points="998.5,-252.2 998.5,-277.2 1275.5,-277.2 1275.5,-252.2 998.5,-252.2"/>
<text text-anchor="start" x="1018.5" y="-256.3" font-family="Helvetica,sans-Serif" font-size="16.00" fill="#000000">administrative_division_4_code</text>
<polygon fill="none" stroke="#000000" points="1275.5,-252.2 1275.5,-277.2 1457.5,-277.2 1457.5,-252.2 1275.5,-252.2"/>
<text text-anchor="start" x="1278.5" y="-259.8" font-family="Helvetica,sans-Serif" font-size="16.00" fill="#000000">text[2000000000]</text>
<polygon fill="#ffffff" stroke="transparent" points="998.5,-227.2 998.5,-252.2 1275.5,-252.2 1275.5,-227.2 998.5,-227.2"/>
<polygon fill="none" stroke="#000000" points="998.5,-227.2 998.5,-252.2 1275.5,-252.2 1275.5,-227.2 998.5,-227.2"/>
<text text-anchor="start" x="1018.5" y="-231.3" font-family="Helvetica,sans-Serif" font-size="16.00" fill="#000000">population</text>
<polygon fill="none" stroke="#000000" points="1275.5,-227.2 1275.5,-252.2 1457.5,-252.2 1457.5,-227.2 1275.5,-227.2"/>
<text text-anchor="start" x="1278.5" y="-234.8" font-family="Helvetica,sans-Serif" font-size="16.00" fill="#000000">integer[2000000000]</text>
<polygon fill="none" stroke="#000000" points="998.5,-202.2 998.5,-227.2 1275.5,-227.2 1275.5,-202.2 998.5,-202.2"/>
<text text-anchor="start" x="1018.5" y="-206.3" font-family="Helvetica,sans-Serif" font-size="16.00" fill="#000000">elevation</text>
<polygon fill="none" stroke="#000000" points="1275.5,-202.2 1275.5,-227.2 1457.5,-227.2 1457.5,-202.2 1275.5,-202.2"/>
<text text-anchor="start" x="1278.5" y="-209.8" font-family="Helvetica,sans-Serif" font-size="16.00" fill="#000000">integer[2000000000]</text>
<polygon fill="none" stroke="#000000" points="998.5,-177.2 998.5,-202.2 1275.5,-202.2 1275.5,-177.2 998.5,-177.2"/>
<text text-anchor="start" x="1018.5" y="-181.3" font-family="Helvetica,sans-Serif" font-size="16.00" fill="#000000">dem</text>
<polygon fill="none" stroke="#000000" points="1275.5,-177.2 1275.5,-202.2 1457.5,-202.2 1457.5,-177.2 1275.5,-177.2"/>
<text text-anchor="start" x="1278.5" y="-184.8" font-family="Helvetica,sans-Serif" font-size="16.00" fill="#000000">integer[2000000000]</text>
<polygon fill="#ffffff" stroke="transparent" points="998.5,-152.2 998.5,-177.2 1275.5,-177.2 1275.5,-152.2 998.5,-152.2"/>
<polygon fill="none" stroke="#000000" points="998.5,-152.2 998.5,-177.2 1275.5,-177.2 1275.5,-152.2 998.5,-152.2"/>
<text text-anchor="start" x="1018.5" y="-156.3" font-family="Helvetica,sans-Serif" font-size="16.00" fill="#000000">timezone</text>
<polygon fill="none" stroke="#000000" points="1275.5,-152.2 1275.5,-177.2 1457.5,-177.2 1457.5,-152.2 1275.5,-152.2"/>
<text text-anchor="start" x="1278.5" y="-159.8" font-family="Helvetica,sans-Serif" font-size="16.00" fill="#000000">text[2000000000]</text>
<polygon fill="none" stroke="#000000" points="998.5,-127.2 998.5,-152.2 1275.5,-152.2 1275.5,-127.2 998.5,-127.2"/>
<text text-anchor="start" x="1018.5" y="-131.3" font-family="Helvetica,sans-Serif" font-size="16.00" fill="#000000">modification_date</text>
<polygon fill="none" stroke="#000000" points="1275.5,-127.2 1275.5,-152.2 1457.5,-152.2 1457.5,-127.2 1275.5,-127.2"/>
<text text-anchor="start" x="1278.5" y="-134.8" font-family="Helvetica,sans-Serif" font-size="16.00" fill="#000000">text[2000000000]</text>
<polygon fill="none" stroke="#000000" points="998.5,-102.2 998.5,-127.2 1275.5,-127.2 1275.5,-102.2 998.5,-102.2"/>
<text text-anchor="start" x="1018.5" y="-106.3" font-family="Helvetica,sans-Serif" font-size="16.00" fill="#000000">inserted_at</text>
<polygon fill="none" stroke="#000000" points="1275.5,-102.2 1275.5,-127.2 1457.5,-127.2 1457.5,-102.2 1275.5,-102.2"/>
<text text-anchor="start" x="1278.5" y="-109.8" font-family="Helvetica,sans-Serif" font-size="16.00" fill="#000000">text[2000000000]</text>
<polygon fill="none" stroke="#000000" points="998.5,-77.2 998.5,-102.2 1275.5,-102.2 1275.5,-77.2 998.5,-77.2"/>
<text text-anchor="start" x="1018.5" y="-81.3" font-family="Helvetica,sans-Serif" font-size="16.00" fill="#000000">updated_at</text>
<polygon fill="none" stroke="#000000" points="1275.5,-77.2 1275.5,-102.2 1457.5,-102.2 1457.5,-77.2 1275.5,-77.2"/>
<text text-anchor="start" x="1278.5" y="-84.8" font-family="Helvetica,sans-Serif" font-size="16.00" fill="#000000">text[2000000000]</text>
<polygon fill="#ffffff" stroke="transparent" points="998.5,-52.2 998.5,-77.2 1099.5,-77.2 1099.5,-52.2 998.5,-52.2"/>
<polygon fill="none" stroke="#000000" points="998.5,-52.2 998.5,-77.2 1099.5,-77.2 1099.5,-52.2 998.5,-52.2"/>
<text text-anchor="start" x="1001.5" y="-59.8" font-family="Helvetica,sans-Serif" font-size="16.00" fill="#000000">&lt; 4</text>
<polygon fill="#ffffff" stroke="transparent" points="1099.5,-52.2 1099.5,-77.2 1275.5,-77.2 1275.5,-52.2 1099.5,-52.2"/>
<polygon fill="none" stroke="#000000" points="1099.5,-52.2 1099.5,-77.2 1275.5,-77.2 1275.5,-52.2 1099.5,-52.2"/>
<text text-anchor="start" x="1176.4696" y="-59.8" font-family="Helvetica,sans-Serif" font-size="16.00" fill="#000000">210,698 rows</text>
<polygon fill="#ffffff" stroke="transparent" points="1275.5,-52.2 1275.5,-77.2 1457.5,-77.2 1457.5,-52.2 1275.5,-52.2"/>
<polygon fill="none" stroke="#000000" points="1275.5,-52.2 1275.5,-77.2 1457.5,-77.2 1457.5,-52.2 1275.5,-52.2"/>
<text text-anchor="start" x="1431.8168" y="-59.8" font-family="Helvetica,sans-Serif" font-size="16.00" fill="#000000">1 &gt;</text>
<polygon fill="none" stroke="#000000" stroke-width="2" points="997,-51.2 997,-657.2 1458,-657.2 1458,-51.2 997,-51.2"/>
</a>
</g>
</g>
<!-- journal_entries&#45;&gt;locations_cities -->
<g id="edge2" class="edge">
<title>journal_entries:w&#45;&gt;locations_cities:e</title>
<path fill="none" stroke="#000000" d="M1494.1064,-667.3402C1478.6846,-653.556 1485.264,-615.2 1457.5,-615.2"/>
<polygon fill="#000000" stroke="#000000" points="1500.4486,-669.5586 1506.8114,-675.5981 1504.2243,-670.8793 1508,-672.2 1508,-672.2 1508,-672.2 1504.2243,-670.8793 1509.1886,-668.8019 1500.4486,-669.5586 1500.4486,-669.5586"/>
<ellipse fill="none" stroke="#000000" cx="1497.4281" cy="-668.502" rx="3.2" ry="3.2"/>
</g>
<!-- users -->
<g id="node4" class="node">
<title>users</title>
<g id="a_node4"><a xlink:href="../../tables/users.html" xlink:title="users" target="_top">
<polygon fill="#ffffff" stroke="transparent" points="1178.5,-679.7 1178.5,-758.7 1276.5,-758.7 1276.5,-679.7 1178.5,-679.7"/>
<polygon fill="#f5f5f5" stroke="transparent" points="1178.5,-729.2 1178.5,-758.2 1276.5,-758.2 1276.5,-729.2 1178.5,-729.2"/>
<polygon fill="none" stroke="#000000" points="1178.5,-729.2 1178.5,-758.2 1276.5,-758.2 1276.5,-729.2 1178.5,-729.2"/>
<text text-anchor="start" x="1183.5" y="-736.3" font-family="Helvetica,sans-Serif" font-weight="bold" font-size="16.00" fill="#000000">users</text>
<text text-anchor="start" x="1228.2136" y="-738.8" font-family="Helvetica,sans-Serif" font-size="16.00" fill="#000000">[table]</text>
<polygon fill="none" stroke="#000000" points="1178.5,-704.2 1178.5,-729.2 1276.5,-729.2 1276.5,-704.2 1178.5,-704.2"/>
<text text-anchor="start" x="1181.5" y="-711.8" font-family="Helvetica,sans-Serif" font-size="16.00" fill="#000000">...</text>
<polygon fill="#ffffff" stroke="transparent" points="1178.5,-679.2 1178.5,-704.2 1193.5,-704.2 1193.5,-679.2 1178.5,-679.2"/>
<polygon fill="none" stroke="#000000" points="1178.5,-679.2 1178.5,-704.2 1193.5,-704.2 1193.5,-679.2 1178.5,-679.2"/>
<text text-anchor="start" x="1181.5" y="-686.8" font-family="Helvetica,sans-Serif" font-size="16.00" fill="#000000"> &#160;</text>
<polygon fill="#ffffff" stroke="transparent" points="1193.5,-679.2 1193.5,-704.2 1247.5,-704.2 1247.5,-679.2 1193.5,-679.2"/>
<polygon fill="none" stroke="#000000" points="1193.5,-679.2 1193.5,-704.2 1247.5,-704.2 1247.5,-679.2 1193.5,-679.2"/>
<text text-anchor="start" x="1197.388" y="-686.8" font-family="Helvetica,sans-Serif" font-size="16.00" fill="#000000">0 rows</text>
<polygon fill="#ffffff" stroke="transparent" points="1247.5,-679.2 1247.5,-704.2 1276.5,-704.2 1276.5,-679.2 1247.5,-679.2"/>
<polygon fill="none" stroke="#000000" points="1247.5,-679.2 1247.5,-704.2 1276.5,-704.2 1276.5,-679.2 1247.5,-679.2"/>
<text text-anchor="start" x="1250.8168" y="-686.8" font-family="Helvetica,sans-Serif" font-size="16.00" fill="#000000">1 &gt;</text>
</a>
</g>
</g>
<!-- journal_entries&#45;&gt;users -->
<g id="edge3" class="edge">
<title>journal_entries:w&#45;&gt;users:e</title>
<path fill="none" stroke="#000000" d="M1493.4624,-716.2C1402.4152,-716.2 1374.365,-716.2 1276.5,-716.2"/>
<polygon fill="#000000" stroke="#000000" points="1500,-716.2001 1508,-719.8 1504,-716.2 1508,-716.2 1508,-716.2 1508,-716.2 1504,-716.2 1508,-712.6 1500,-716.2001 1500,-716.2001"/>
<ellipse fill="none" stroke="#000000" cx="1496.8" cy="-716.2001" rx="3.2" ry="3.2"/>
</g>
<!-- locations_administrative_divisions_1 -->
<g id="node6" class="node">
<title>locations_administrative_divisions_1</title>
<g id="a_node6"><a xlink:href="../../tables/locations_administrative_divisions_1.html" xlink:title="locations_administrative_divisions_1" target="_top">
<polygon fill="#ffffff" stroke="transparent" points="593,-538.7 593,-617.7 947,-617.7 947,-538.7 593,-538.7"/>
<polygon fill="#f5f5f5" stroke="transparent" points="593,-588.2 593,-617.2 947,-617.2 947,-588.2 593,-588.2"/>
<polygon fill="none" stroke="#000000" points="593,-588.2 593,-617.2 947,-617.2 947,-588.2 593,-588.2"/>
<text text-anchor="start" x="598" y="-595.3" font-family="Helvetica,sans-Serif" font-weight="bold" font-size="16.00" fill="#000000">locations_administrative_divisions_1</text>
<text text-anchor="start" x="898.7136" y="-597.8" font-family="Helvetica,sans-Serif" font-size="16.00" fill="#000000">[table]</text>
<polygon fill="none" stroke="#000000" points="593,-563.2 593,-588.2 947,-588.2 947,-563.2 593,-563.2"/>
<text text-anchor="start" x="596" y="-570.8" font-family="Helvetica,sans-Serif" font-size="16.00" fill="#000000">...</text>
<polygon fill="#ffffff" stroke="transparent" points="593,-538.2 593,-563.2 728,-563.2 728,-538.2 593,-538.2"/>
<polygon fill="none" stroke="#000000" points="593,-538.2 593,-563.2 728,-563.2 728,-538.2 593,-538.2"/>
<text text-anchor="start" x="596" y="-545.8" font-family="Helvetica,sans-Serif" font-size="16.00" fill="#000000">&lt; 1</text>
<polygon fill="#ffffff" stroke="transparent" points="728,-538.2 728,-563.2 865,-563.2 865,-538.2 728,-538.2"/>
<polygon fill="none" stroke="#000000" points="728,-538.2 728,-563.2 865,-563.2 865,-538.2 728,-538.2"/>
<text text-anchor="start" x="783.7584" y="-545.8" font-family="Helvetica,sans-Serif" font-size="16.00" fill="#000000">3,893 rows</text>
<polygon fill="#ffffff" stroke="transparent" points="865,-538.2 865,-563.2 947,-563.2 947,-538.2 865,-538.2"/>
<polygon fill="none" stroke="#000000" points="865,-538.2 865,-563.2 947,-563.2 947,-538.2 865,-538.2"/>
<text text-anchor="start" x="921.3168" y="-545.8" font-family="Helvetica,sans-Serif" font-size="16.00" fill="#000000">2 &gt;</text>
</a>
</g>
</g>
<!-- locations_cities&#45;&gt;locations_administrative_divisions_1 -->
<g id="edge8" class="edge">
<title>locations_cities:w&#45;&gt;locations_administrative_divisions_1:e</title>
<path fill="none" stroke="#000000" d="M983.9458,-340.8694C930.0766,-355.318 1005.646,-460.0043 955,-515.2 948.3476,-522.45 940.8284,-528.8658 932.7241,-534.5435"/>
<polygon fill="#000000" stroke="#000000" points="990.5521,-340.1117 998.9102,-342.7766 994.5261,-339.6558 998.5,-339.2 998.5,-339.2 998.5,-339.2 994.5261,-339.6558 998.0898,-335.6234 990.5521,-340.1117 990.5521,-340.1117"/>
<ellipse fill="none" stroke="#000000" cx="987.373" cy="-340.4763" rx="3.2" ry="3.2"/>
</g>
<!-- locations_countries -->
<g id="node7" class="node">
<title>locations_countries</title>
<g id="a_node7"><a xlink:href="../../tables/locations_countries.html" xlink:title="locations_countries" target="_top">
<polygon fill="#ffffff" stroke="transparent" points="305.5,-538.7 305.5,-617.7 518.5,-617.7 518.5,-538.7 305.5,-538.7"/>
<polygon fill="#f5f5f5" stroke="transparent" points="306,-588.2 306,-617.2 519,-617.2 519,-588.2 306,-588.2"/>
<polygon fill="none" stroke="#000000" points="306,-588.2 306,-617.2 519,-617.2 519,-588.2 306,-588.2"/>
<text text-anchor="start" x="311" y="-595.3" font-family="Helvetica,sans-Serif" font-weight="bold" font-size="16.00" fill="#000000">locations_countries</text>
<text text-anchor="start" x="470.7136" y="-597.8" font-family="Helvetica,sans-Serif" font-size="16.00" fill="#000000">[table]</text>
<polygon fill="none" stroke="#000000" points="306,-563.2 306,-588.2 519,-588.2 519,-563.2 306,-563.2"/>
<text text-anchor="start" x="309" y="-570.8" font-family="Helvetica,sans-Serif" font-size="16.00" fill="#000000">...</text>
<polygon fill="#ffffff" stroke="transparent" points="306,-538.2 306,-563.2 377,-563.2 377,-538.2 306,-538.2"/>
<polygon fill="none" stroke="#000000" points="306,-538.2 306,-563.2 377,-563.2 377,-538.2 306,-538.2"/>
<text text-anchor="start" x="309" y="-545.8" font-family="Helvetica,sans-Serif" font-size="16.00" fill="#000000">&lt; 1</text>
<polygon fill="#ffffff" stroke="transparent" points="377,-538.2 377,-563.2 469,-563.2 469,-538.2 377,-538.2"/>
<polygon fill="none" stroke="#000000" points="377,-538.2 377,-563.2 469,-563.2 469,-538.2 377,-538.2"/>
<text text-anchor="start" x="401.0992" y="-545.8" font-family="Helvetica,sans-Serif" font-size="16.00" fill="#000000">252 rows</text>
<polygon fill="#ffffff" stroke="transparent" points="469,-538.2 469,-563.2 519,-563.2 519,-538.2 469,-538.2"/>
<polygon fill="none" stroke="#000000" points="469,-538.2 469,-563.2 519,-563.2 519,-538.2 469,-538.2"/>
<text text-anchor="start" x="493.3168" y="-545.8" font-family="Helvetica,sans-Serif" font-size="16.00" fill="#000000">3 &gt;</text>
</a>
</g>
</g>
<!-- locations_cities&#45;&gt;locations_countries -->
<g id="edge9" class="edge">
<title>locations_cities:w&#45;&gt;locations_countries:e</title>
<path fill="none" stroke="#000000" d="M984.2419,-394.2374C968.1467,-406.5594 980.2916,-443.8925 955,-461.2 817.0826,-555.5795 747.7086,-490.0608 585,-528.2 566.1279,-532.6237 546.2496,-537.8374 526.9596,-543.1989"/>
<polygon fill="#000000" stroke="#000000" points="990.8026,-392.3797 999.4809,-393.6638 994.6513,-391.2898 998.5,-390.2 998.5,-390.2 998.5,-390.2 994.6513,-391.2898 997.5191,-386.7362 990.8026,-392.3797 990.8026,-392.3797"/>
<ellipse fill="none" stroke="#000000" cx="987.7237" cy="-393.2515" rx="3.2" ry="3.2"/>
</g>
<!-- locations_feature_classes -->
<g id="node9" class="node">
<title>locations_feature_classes</title>
<g id="a_node9"><a xlink:href="../../tables/locations_feature_classes.html" xlink:title="locations_feature_classes" target="_top">
<polygon fill="#ffffff" stroke="transparent" points="280,-411.7 280,-490.7 544,-490.7 544,-411.7 280,-411.7"/>
<polygon fill="#f5f5f5" stroke="transparent" points="280,-461.2 280,-490.2 544,-490.2 544,-461.2 280,-461.2"/>
<polygon fill="none" stroke="#000000" points="280,-461.2 280,-490.2 544,-490.2 544,-461.2 280,-461.2"/>
<text text-anchor="start" x="285" y="-468.3" font-family="Helvetica,sans-Serif" font-weight="bold" font-size="16.00" fill="#000000">locations_feature_classes</text>
<text text-anchor="start" x="495.7136" y="-470.8" font-family="Helvetica,sans-Serif" font-size="16.00" fill="#000000">[table]</text>
<polygon fill="none" stroke="#000000" points="280,-436.2 280,-461.2 544,-461.2 544,-436.2 280,-436.2"/>
<text text-anchor="start" x="283" y="-443.8" font-family="Helvetica,sans-Serif" font-size="16.00" fill="#000000">...</text>
<polygon fill="#ffffff" stroke="transparent" points="280,-411.2 280,-436.2 378,-436.2 378,-411.2 280,-411.2"/>
<polygon fill="none" stroke="#000000" points="280,-411.2 280,-436.2 378,-436.2 378,-411.2 280,-411.2"/>
<text text-anchor="start" x="283" y="-418.8" font-family="Helvetica,sans-Serif" font-size="16.00" fill="#000000"> &#160;</text>
<polygon fill="#ffffff" stroke="transparent" points="378,-411.2 378,-436.2 473,-436.2 473,-411.2 378,-411.2"/>
<polygon fill="none" stroke="#000000" points="378,-411.2 378,-436.2 473,-436.2 473,-411.2 378,-411.2"/>
<text text-anchor="start" x="422.888" y="-418.8" font-family="Helvetica,sans-Serif" font-size="16.00" fill="#000000">9 rows</text>
<polygon fill="#ffffff" stroke="transparent" points="473,-411.2 473,-436.2 544,-436.2 544,-411.2 473,-411.2"/>
<polygon fill="none" stroke="#000000" points="473,-411.2 473,-436.2 544,-436.2 544,-411.2 473,-411.2"/>
<text text-anchor="start" x="518.3168" y="-418.8" font-family="Helvetica,sans-Serif" font-size="16.00" fill="#000000">2 &gt;</text>
</a>
</g>
</g>
<!-- locations_cities&#45;&gt;locations_feature_classes -->
<g id="edge10" class="edge">
<title>locations_cities:w&#45;&gt;locations_feature_classes:e</title>
<path fill="none" stroke="#000000" d="M983.9906,-441.2554C974.8422,-442.695 968.5337,-445.2084 955,-446.2 818.4319,-456.206 662.0322,-456.4672 552.2697,-454.8204"/>
<polygon fill="#000000" stroke="#000000" points="990.5211,-440.7804 998.7612,-443.7905 994.5105,-440.4902 998.5,-440.2 998.5,-440.2 998.5,-440.2 994.5105,-440.4902 998.2388,-436.6095 990.5211,-440.7804 990.5211,-440.7804"/>
<ellipse fill="none" stroke="#000000" cx="987.3295" cy="-441.0126" rx="3.2" ry="3.2"/>
</g>
<!-- locations_feature_codes -->
<g id="node10" class="node">
<title>locations_feature_codes</title>
<g id="a_node10"><a xlink:href="../../tables/locations_feature_codes.html" xlink:title="locations_feature_codes" target="_top">
<polygon fill="#ffffff" stroke="transparent" points="644,-356.7 644,-435.7 896,-435.7 896,-356.7 644,-356.7"/>
<polygon fill="#f5f5f5" stroke="transparent" points="644,-406.2 644,-435.2 896,-435.2 896,-406.2 644,-406.2"/>
<polygon fill="none" stroke="#000000" points="644,-406.2 644,-435.2 896,-435.2 896,-406.2 644,-406.2"/>
<text text-anchor="start" x="649" y="-413.3" font-family="Helvetica,sans-Serif" font-weight="bold" font-size="16.00" fill="#000000">locations_feature_codes</text>
<text text-anchor="start" x="847.7136" y="-415.8" font-family="Helvetica,sans-Serif" font-size="16.00" fill="#000000">[table]</text>
<polygon fill="none" stroke="#000000" points="644,-381.2 644,-406.2 896,-406.2 896,-381.2 644,-381.2"/>
<text text-anchor="start" x="647" y="-388.8" font-family="Helvetica,sans-Serif" font-size="16.00" fill="#000000">...</text>
<polygon fill="#ffffff" stroke="transparent" points="644,-356.2 644,-381.2 735,-381.2 735,-356.2 644,-356.2"/>
<polygon fill="none" stroke="#000000" points="644,-356.2 644,-381.2 735,-381.2 735,-356.2 644,-356.2"/>
<text text-anchor="start" x="647" y="-363.8" font-family="Helvetica,sans-Serif" font-size="16.00" fill="#000000">&lt; 1</text>
<polygon fill="#ffffff" stroke="transparent" points="735,-356.2 735,-381.2 836,-381.2 836,-356.2 735,-356.2"/>
<polygon fill="none" stroke="#000000" points="735,-356.2 735,-381.2 836,-381.2 836,-356.2 735,-356.2"/>
<text text-anchor="start" x="768.0992" y="-363.8" font-family="Helvetica,sans-Serif" font-size="16.00" fill="#000000">684 rows</text>
<polygon fill="#ffffff" stroke="transparent" points="836,-356.2 836,-381.2 896,-381.2 896,-356.2 836,-356.2"/>
<polygon fill="none" stroke="#000000" points="836,-356.2 836,-381.2 896,-381.2 896,-356.2 836,-356.2"/>
<text text-anchor="start" x="870.3168" y="-363.8" font-family="Helvetica,sans-Serif" font-size="16.00" fill="#000000">1 &gt;</text>
</a>
</g>
</g>
<!-- locations_cities&#45;&gt;locations_feature_codes -->
<g id="edge11" class="edge">
<title>locations_cities:w&#45;&gt;locations_feature_codes:e</title>
<path fill="none" stroke="#000000" d="M984.0318,-415.0788C957.7525,-414.6496 930.347,-413.1185 904.2639,-411.1007"/>
<polygon fill="#000000" stroke="#000000" points="990.5003,-415.1329 998.4698,-418.7999 994.5001,-415.1665 998.5,-415.2 998.5,-415.2 998.5,-415.2 994.5001,-415.1665 998.5302,-411.6001 990.5003,-415.1329 990.5003,-415.1329"/>
<ellipse fill="none" stroke="#000000" cx="987.3004" cy="-415.1061" rx="3.2" ry="3.2"/>
</g>
<!-- journal_entry_tags -->
<g id="node5" class="node">
<title>journal_entry_tags</title>
<g id="a_node5"><a xlink:href="../../tables/journal_entry_tags.html" xlink:title="journal_entry_tags" target="_top">
<polygon fill="#ffffff" stroke="transparent" points="1753,-767.7 1753,-846.7 1958,-846.7 1958,-767.7 1753,-767.7"/>
<polygon fill="#f5f5f5" stroke="transparent" points="1753.5,-817.2 1753.5,-846.2 1958.5,-846.2 1958.5,-817.2 1753.5,-817.2"/>
<polygon fill="none" stroke="#000000" points="1753.5,-817.2 1753.5,-846.2 1958.5,-846.2 1958.5,-817.2 1753.5,-817.2"/>
<text text-anchor="start" x="1758.5" y="-824.3" font-family="Helvetica,sans-Serif" font-weight="bold" font-size="16.00" fill="#000000">journal_entry_tags</text>
<text text-anchor="start" x="1910.2136" y="-826.8" font-family="Helvetica,sans-Serif" font-size="16.00" fill="#000000">[table]</text>
<polygon fill="none" stroke="#000000" points="1753.5,-792.2 1753.5,-817.2 1958.5,-817.2 1958.5,-792.2 1753.5,-792.2"/>
<text text-anchor="start" x="1756.5" y="-799.8" font-family="Helvetica,sans-Serif" font-size="16.00" fill="#000000">...</text>
<polygon fill="#ffffff" stroke="transparent" points="1753.5,-767.2 1753.5,-792.2 1836.5,-792.2 1836.5,-767.2 1753.5,-767.2"/>
<polygon fill="none" stroke="#000000" points="1753.5,-767.2 1753.5,-792.2 1836.5,-792.2 1836.5,-767.2 1753.5,-767.2"/>
<text text-anchor="start" x="1756.5" y="-774.8" font-family="Helvetica,sans-Serif" font-size="16.00" fill="#000000">&lt; 2</text>
<polygon fill="#ffffff" stroke="transparent" points="1836.5,-767.2 1836.5,-792.2 1916.5,-792.2 1916.5,-767.2 1836.5,-767.2"/>
<polygon fill="none" stroke="#000000" points="1836.5,-767.2 1836.5,-792.2 1916.5,-792.2 1916.5,-767.2 1836.5,-767.2"/>
<text text-anchor="start" x="1866.388" y="-774.8" font-family="Helvetica,sans-Serif" font-size="16.00" fill="#000000">2 rows</text>
<polygon fill="#ffffff" stroke="transparent" points="1916.5,-767.2 1916.5,-792.2 1958.5,-792.2 1958.5,-767.2 1916.5,-767.2"/>
<polygon fill="none" stroke="#000000" points="1916.5,-767.2 1916.5,-792.2 1958.5,-792.2 1958.5,-767.2 1916.5,-767.2"/>
<text text-anchor="start" x="1946.6072" y="-774.8" font-family="Helvetica,sans-Serif" font-size="16.00" fill="#000000"> &#160;</text>
</a>
</g>
</g>
<!-- journal_entry_tags&#45;&gt;journal_entries -->
<g id="edge4" class="edge">
<title>journal_entry_tags:w&#45;&gt;journal_entries:e</title>
<path fill="none" stroke="#000000" d="M1738.8428,-804.2C1727.4139,-804.2 1720.1563,-804.2 1704,-804.2"/>
<polygon fill="#000000" stroke="#000000" points="1745.5,-804.2001 1753.5,-807.8 1749.5,-804.2 1753.5,-804.2 1753.5,-804.2 1753.5,-804.2 1749.5,-804.2 1753.5,-800.6 1745.5,-804.2001 1745.5,-804.2001"/>
<ellipse fill="none" stroke="#000000" cx="1742.3" cy="-804.2001" rx="3.2" ry="3.2"/>
</g>
<!-- locations_administrative_divisions_1&#45;&gt;locations_countries -->
<g id="edge5" class="edge">
<title>locations_administrative_divisions_1:w&#45;&gt;locations_countries:e</title>
<path fill="none" stroke="#000000" d="M570.145,-578.2C555.3686,-578.2 540.7845,-578.2 526.8027,-578.2"/>
<polygon fill="#000000" stroke="#000000" points="576.9703,-578.2001 584.9703,-581.8 580.9703,-578.2 584.9703,-578.2 584.9703,-578.2 584.9703,-578.2 580.9703,-578.2 584.9702,-574.6 576.9703,-578.2001 576.9703,-578.2001"/>
<ellipse fill="none" stroke="#000000" cx="573.7703" cy="-578.2001" rx="3.2" ry="3.2"/>
</g>
<!-- locations_continents -->
<g id="node11" class="node">
<title>locations_continents</title>
<g id="a_node11"><a xlink:href="../../tables/locations_continents.html" xlink:title="locations_continents" target="_top">
<polygon fill="#ffffff" stroke="transparent" points="8,-541.7 8,-620.7 231,-620.7 231,-541.7 8,-541.7"/>
<polygon fill="#f5f5f5" stroke="transparent" points="8.5,-591.2 8.5,-620.2 231.5,-620.2 231.5,-591.2 8.5,-591.2"/>
<polygon fill="none" stroke="#000000" points="8.5,-591.2 8.5,-620.2 231.5,-620.2 231.5,-591.2 8.5,-591.2"/>
<text text-anchor="start" x="13.5" y="-598.3" font-family="Helvetica,sans-Serif" font-weight="bold" font-size="16.00" fill="#000000">locations_continents</text>
<text text-anchor="start" x="183.2136" y="-600.8" font-family="Helvetica,sans-Serif" font-size="16.00" fill="#000000">[table]</text>
<polygon fill="none" stroke="#000000" points="8.5,-566.2 8.5,-591.2 231.5,-591.2 231.5,-566.2 8.5,-566.2"/>
<text text-anchor="start" x="11.5" y="-573.8" font-family="Helvetica,sans-Serif" font-size="16.00" fill="#000000">...</text>
<polygon fill="#ffffff" stroke="transparent" points="8.5,-541.2 8.5,-566.2 86.5,-566.2 86.5,-541.2 8.5,-541.2"/>
<polygon fill="none" stroke="#000000" points="8.5,-541.2 8.5,-566.2 86.5,-566.2 86.5,-541.2 8.5,-541.2"/>
<text text-anchor="start" x="11.5" y="-548.8" font-family="Helvetica,sans-Serif" font-size="16.00" fill="#000000"> &#160;</text>
<polygon fill="#ffffff" stroke="transparent" points="86.5,-541.2 86.5,-566.2 171.5,-566.2 171.5,-541.2 86.5,-541.2"/>
<polygon fill="none" stroke="#000000" points="86.5,-541.2 86.5,-566.2 171.5,-566.2 171.5,-541.2 86.5,-541.2"/>
<text text-anchor="start" x="121.388" y="-548.8" font-family="Helvetica,sans-Serif" font-size="16.00" fill="#000000">7 rows</text>
<polygon fill="#ffffff" stroke="transparent" points="171.5,-541.2 171.5,-566.2 231.5,-566.2 231.5,-541.2 171.5,-541.2"/>
<polygon fill="none" stroke="#000000" points="171.5,-541.2 171.5,-566.2 231.5,-566.2 231.5,-541.2 171.5,-541.2"/>
<text text-anchor="start" x="205.8168" y="-548.8" font-family="Helvetica,sans-Serif" font-size="16.00" fill="#000000">1 &gt;</text>
</a>
</g>
</g>
<!-- locations_countries&#45;&gt;locations_continents -->
<g id="edge12" class="edge">
<title>locations_countries:w&#45;&gt;locations_continents:e</title>
<path fill="none" stroke="#000000" d="M282.9587,-578.2C265.659,-578.2 248.1477,-578.2 231.5,-578.2"/>
<polygon fill="#000000" stroke="#000000" points="289.417,-578.2001 297.417,-581.8 293.417,-578.2 297.417,-578.2 297.417,-578.2 297.417,-578.2 293.417,-578.2 297.417,-574.6 289.417,-578.2001 289.417,-578.2001"/>
<ellipse fill="none" stroke="#000000" cx="286.217" cy="-578.2001" rx="3.2" ry="3.2"/>
</g>
<!-- locations_administrative_divisions_2 -->
<g id="node8" class="node">
<title>locations_administrative_divisions_2</title>
<g id="a_node8"><a xlink:href="../../tables/locations_administrative_divisions_2.html" xlink:title="locations_administrative_divisions_2" target="_top">
<polygon fill="#ffffff" stroke="transparent" points="1050.5,-779.7 1050.5,-858.7 1404.5,-858.7 1404.5,-779.7 1050.5,-779.7"/>
<polygon fill="#f5f5f5" stroke="transparent" points="1050.5,-829.2 1050.5,-858.2 1404.5,-858.2 1404.5,-829.2 1050.5,-829.2"/>
<polygon fill="none" stroke="#000000" points="1050.5,-829.2 1050.5,-858.2 1404.5,-858.2 1404.5,-829.2 1050.5,-829.2"/>
<text text-anchor="start" x="1055.5" y="-836.3" font-family="Helvetica,sans-Serif" font-weight="bold" font-size="16.00" fill="#000000">locations_administrative_divisions_2</text>
<text text-anchor="start" x="1356.2136" y="-838.8" font-family="Helvetica,sans-Serif" font-size="16.00" fill="#000000">[table]</text>
<polygon fill="none" stroke="#000000" points="1050.5,-804.2 1050.5,-829.2 1404.5,-829.2 1404.5,-804.2 1050.5,-804.2"/>
<text text-anchor="start" x="1053.5" y="-811.8" font-family="Helvetica,sans-Serif" font-size="16.00" fill="#000000">...</text>
<polygon fill="#ffffff" stroke="transparent" points="1050.5,-779.2 1050.5,-804.2 1187.5,-804.2 1187.5,-779.2 1050.5,-779.2"/>
<polygon fill="none" stroke="#000000" points="1050.5,-779.2 1050.5,-804.2 1187.5,-804.2 1187.5,-779.2 1050.5,-779.2"/>
<text text-anchor="start" x="1053.5" y="-786.8" font-family="Helvetica,sans-Serif" font-size="16.00" fill="#000000">&lt; 2</text>
<polygon fill="#ffffff" stroke="transparent" points="1187.5,-779.2 1187.5,-804.2 1335.5,-804.2 1335.5,-779.2 1187.5,-779.2"/>
<polygon fill="none" stroke="#000000" points="1187.5,-779.2 1187.5,-804.2 1335.5,-804.2 1335.5,-779.2 1187.5,-779.2"/>
<text text-anchor="start" x="1245.364" y="-786.8" font-family="Helvetica,sans-Serif" font-size="16.00" fill="#000000">47,229 rows</text>
<polygon fill="#ffffff" stroke="transparent" points="1335.5,-779.2 1335.5,-804.2 1404.5,-804.2 1404.5,-779.2 1335.5,-779.2"/>
<polygon fill="none" stroke="#000000" points="1335.5,-779.2 1335.5,-804.2 1404.5,-804.2 1404.5,-779.2 1335.5,-779.2"/>
<text text-anchor="start" x="1392.6072" y="-786.8" font-family="Helvetica,sans-Serif" font-size="16.00" fill="#000000"> &#160;</text>
</a>
</g>
</g>
<!-- locations_administrative_divisions_2&#45;&gt;locations_administrative_divisions_1 -->
<g id="edge6" class="edge">
<title>locations_administrative_divisions_2:w&#45;&gt;locations_administrative_divisions_1:e</title>
<path fill="none" stroke="#000000" d="M1035.8973,-814.6664C1013.695,-809.4142 1007.1244,-791.2515 988,-769.2 968.0601,-746.2082 975.267,-731.904 955,-709.2 924.3368,-674.8497 883.0593,-644.5348 847.2746,-621.7416"/>
<polygon fill="#000000" stroke="#000000" points="1042.5438,-815.3644 1050.124,-819.7803 1046.5219,-815.7822 1050.5,-816.2 1050.5,-816.2 1050.5,-816.2 1046.5219,-815.7822 1050.876,-812.6197 1042.5438,-815.3644 1042.5438,-815.3644"/>
<ellipse fill="none" stroke="#000000" cx="1039.3613" cy="-815.0301" rx="3.2" ry="3.2"/>
</g>
<!-- locations_administrative_divisions_2&#45;&gt;locations_countries -->
<g id="edge7" class="edge">
<title>locations_administrative_divisions_2:w&#45;&gt;locations_countries:e</title>
<path fill="none" stroke="#000000" d="M1035.9718,-816.02C820.089,-810.7063 590.6152,-689.0517 479.7548,-621.8529"/>
<polygon fill="#000000" stroke="#000000" points="1042.5006,-816.1008 1050.4554,-819.7997 1046.5003,-816.1504 1050.5,-816.2 1050.5,-816.2 1050.5,-816.2 1046.5003,-816.1504 1050.5446,-812.6003 1042.5006,-816.1008 1042.5006,-816.1008"/>
<ellipse fill="none" stroke="#000000" cx="1039.3009" cy="-816.0611" rx="3.2" ry="3.2"/>
</g>
<!-- locations_feature_codes&#45;&gt;locations_feature_classes -->
<g id="edge13" class="edge">
<title>locations_feature_codes:w&#45;&gt;locations_feature_classes:e</title>
<path fill="none" stroke="#000000" d="M621.6866,-418.9856C598.6424,-422.5259 574.8988,-426.1737 552.0455,-429.6846"/>
<polygon fill="#000000" stroke="#000000" points="628.023,-418.0122 636.4769,-420.3556 631.9766,-417.4047 635.9302,-416.7973 635.9302,-416.7973 635.9302,-416.7973 631.9766,-417.4047 635.3836,-413.2391 628.023,-418.0122 628.023,-418.0122"/>
<ellipse fill="none" stroke="#000000" cx="624.8601" cy="-418.4981" rx="3.2" ry="3.2"/>
</g>
</g>
</svg>
