<?xml version="1.0" encoding="UTF-8" standalone="no"?>
<!DOCTYPE svg PUBLIC "-//W3C//DTD SVG 1.1//EN"
 "http://www.w3.org/Graphics/SVG/1.1/DTD/svg11.dtd">
<!-- Generated by graphviz version 2.40.1 (20161225.0304)
 -->
<!-- Title: oneDegreeRelationshipsDiagram Pages: 1 -->
<svg width="1203pt" height="459pt"
 viewBox="0.00 0.00 1203.00 459.20" xmlns="http://www.w3.org/2000/svg" xmlns:xlink="http://www.w3.org/1999/xlink">
<g id="graph0" class="graph" transform="scale(1 1) rotate(0) translate(4 455.2)">
<title>oneDegreeRelationshipsDiagram</title>
<polygon fill="#ffffff" stroke="transparent" points="-4,4 -4,-455.2 1199,-455.2 1199,4 -4,4"/>
<text text-anchor="middle" x="101.8088" y="-8.8" font-family="Helvetica,sans-Serif" font-size="16.00" fill="#000000">Generated by SchemaSpy</text>
<!-- locations_administrative_divisions_1 -->
<g id="node1" class="node">
<title>locations_administrative_divisions_1</title>
<g id="a_node1"><a xlink:href="../../tables/locations_administrative_divisions_1.html" xlink:title="locations_administrative_divisions_1" target="_top">
<polygon fill="#ffffff" stroke="transparent" points="299,-258.2 299,-447.2 653,-447.2 653,-258.2 299,-258.2"/>
<polygon fill="#f5f5f5" stroke="transparent" points="299,-417.7 299,-446.7 653,-446.7 653,-417.7 299,-417.7"/>
<polygon fill="none" stroke="#000000" points="299,-417.7 299,-446.7 653,-446.7 653,-417.7 299,-417.7"/>
<text text-anchor="start" x="304" y="-424.8" font-family="Helvetica,sans-Serif" font-weight="bold" font-size="16.00" fill="#000000">locations_administrative_divisions_1</text>
<text text-anchor="start" x="604.7136" y="-427.3" font-family="Helvetica,sans-Serif" font-size="16.00" fill="#000000">[table]</text>
<polygon fill="none" stroke="#000000" points="299,-395.7 299,-417.7 653,-417.7 653,-395.7 299,-395.7"/>
<image xlink:href="../../images/primaryKeys.png" width="11px" height="12px" preserveAspectRatio="xMinYMin meet" x="304" y="-412.7"/>
<text text-anchor="start" x="332" y="-398.3" font-family="Helvetica,sans-Serif" font-size="16.00" fill="#000000">administrative_division_1_code</text>
<polygon fill="#ffffff" stroke="transparent" points="299,-373.7 299,-395.7 653,-395.7 653,-373.7 299,-373.7"/>
<polygon fill="none" stroke="#000000" points="299,-373.7 299,-395.7 653,-395.7 653,-373.7 299,-373.7"/>
<image xlink:href="../../images/foreignKeys.png" width="11px" height="12px" preserveAspectRatio="xMinYMin meet" x="304" y="-390.7"/>
<text text-anchor="start" x="332" y="-376.3" font-family="Helvetica,sans-Serif" font-size="16.00" fill="#000000">country_code</text>
<polygon fill="#ffffff" stroke="transparent" points="299,-351.7 299,-373.7 653,-373.7 653,-351.7 299,-351.7"/>
<polygon fill="none" stroke="#000000" points="299,-351.7 299,-373.7 653,-373.7 653,-351.7 299,-351.7"/>
<text text-anchor="start" x="332" y="-354.3" font-family="Helvetica,sans-Serif" font-size="16.00" fill="#000000">administrative_division_1_name</text>
<polygon fill="#ffffff" stroke="transparent" points="299,-329.7 299,-351.7 653,-351.7 653,-329.7 299,-329.7"/>
<polygon fill="none" stroke="#000000" points="299,-329.7 299,-351.7 653,-351.7 653,-329.7 299,-329.7"/>
<text text-anchor="start" x="332" y="-332.3" font-family="Helvetica,sans-Serif" font-size="16.00" fill="#000000">administrative_division_1_ascii_name</text>
<polygon fill="#ffffff" stroke="transparent" points="299,-307.7 299,-329.7 653,-329.7 653,-307.7 299,-307.7"/>
<polygon fill="none" stroke="#000000" points="299,-307.7 299,-329.7 653,-329.7 653,-307.7 299,-307.7"/>
<text text-anchor="start" x="332" y="-310.3" font-family="Helvetica,sans-Serif" font-size="16.00" fill="#000000">geoname_id</text>
<polygon fill="none" stroke="#000000" points="299,-282.7 299,-307.7 653,-307.7 653,-282.7 299,-282.7"/>
<text text-anchor="start" x="302" y="-290.3" font-family="Helvetica,sans-Serif" font-size="16.00" fill="#000000">...</text>
<polygon fill="#ffffff" stroke="transparent" points="299,-257.7 299,-282.7 434,-282.7 434,-257.7 299,-257.7"/>
<polygon fill="none" stroke="#000000" points="299,-257.7 299,-282.7 434,-282.7 434,-257.7 299,-257.7"/>
<text text-anchor="start" x="302" y="-265.3" font-family="Helvetica,sans-Serif" font-size="16.00" fill="#000000">&lt; 1</text>
<polygon fill="#ffffff" stroke="transparent" points="434,-257.7 434,-282.7 571,-282.7 571,-257.7 434,-257.7"/>
<polygon fill="none" stroke="#000000" points="434,-257.7 434,-282.7 571,-282.7 571,-257.7 434,-257.7"/>
<text text-anchor="start" x="489.7584" y="-265.3" font-family="Helvetica,sans-Serif" font-size="16.00" fill="#000000">3,893 rows</text>
<polygon fill="#ffffff" stroke="transparent" points="571,-257.7 571,-282.7 653,-282.7 653,-257.7 571,-257.7"/>
<polygon fill="none" stroke="#000000" points="571,-257.7 571,-282.7 653,-282.7 653,-257.7 571,-257.7"/>
<text text-anchor="start" x="627.3168" y="-265.3" font-family="Helvetica,sans-Serif" font-size="16.00" fill="#000000">2 &gt;</text>
</a>
</g>
</g>
<!-- locations_countries -->
<g id="node2" class="node">
<title>locations_countries</title>
<g id="a_node2"><a xlink:href="../../tables/locations_countries.html" xlink:title="locations_countries" target="_top">
<polygon fill="#ffffff" stroke="transparent" points="8,-50.2 8,-349.2 250,-349.2 250,-50.2 8,-50.2"/>
<polygon fill="#f5f5f5" stroke="transparent" points="8,-319.7 8,-348.7 250,-348.7 250,-319.7 8,-319.7"/>
<polygon fill="none" stroke="#000000" points="8,-319.7 8,-348.7 250,-348.7 250,-319.7 8,-319.7"/>
<text text-anchor="start" x="13" y="-326.8" font-family="Helvetica,sans-Serif" font-weight="bold" font-size="16.00" fill="#000000">locations_countries</text>
<text text-anchor="start" x="201.4272" y="-329.3" font-family="Helvetica,sans-Serif" font-size="16.00" fill="#000000">[table]</text>
<polygon fill="none" stroke="#000000" points="8,-297.7 8,-319.7 250,-319.7 250,-297.7 8,-297.7"/>
<image xlink:href="../../images/primaryKeys.png" width="11px" height="12px" preserveAspectRatio="xMinYMin meet" x="13" y="-314.7"/>
<text text-anchor="start" x="28" y="-300.3" font-family="Helvetica,sans-Serif" font-size="16.00" fill="#000000">iso_country_code</text>
<polygon fill="#ffffff" stroke="transparent" points="8,-275.7 8,-297.7 250,-297.7 250,-275.7 8,-275.7"/>
<polygon fill="none" stroke="#000000" points="8,-275.7 8,-297.7 250,-297.7 250,-275.7 8,-275.7"/>
<text text-anchor="start" x="28" y="-278.3" font-family="Helvetica,sans-Serif" font-size="16.00" fill="#000000">iso_3_country_code</text>
<polygon fill="#ffffff" stroke="transparent" points="8,-253.7 8,-275.7 250,-275.7 250,-253.7 8,-253.7"/>
<polygon fill="none" stroke="#000000" points="8,-253.7 8,-275.7 250,-275.7 250,-253.7 8,-253.7"/>
<text text-anchor="start" x="28" y="-256.3" font-family="Helvetica,sans-Serif" font-size="16.00" fill="#000000">iso_numeric_country_code</text>
<polygon fill="#ffffff" stroke="transparent" points="8,-231.7 8,-253.7 250,-253.7 250,-231.7 8,-231.7"/>
<polygon fill="none" stroke="#000000" points="8,-231.7 8,-253.7 250,-253.7 250,-231.7 8,-231.7"/>
<text text-anchor="start" x="28" y="-234.3" font-family="Helvetica,sans-Serif" font-size="16.00" fill="#000000">country_name</text>
<polygon fill="#ffffff" stroke="transparent" points="8,-209.7 8,-231.7 250,-231.7 250,-209.7 8,-209.7"/>
<polygon fill="none" stroke="#000000" points="8,-209.7 8,-231.7 250,-231.7 250,-209.7 8,-209.7"/>
<text text-anchor="start" x="28" y="-212.3" font-family="Helvetica,sans-Serif" font-size="16.00" fill="#000000">area</text>
<polygon fill="#ffffff" stroke="transparent" points="8,-187.7 8,-209.7 250,-209.7 250,-187.7 8,-187.7"/>
<polygon fill="none" stroke="#000000" points="8,-187.7 8,-209.7 250,-209.7 250,-187.7 8,-187.7"/>
<text text-anchor="start" x="28" y="-190.3" font-family="Helvetica,sans-Serif" font-size="16.00" fill="#000000">population</text>
<polygon fill="#ffffff" stroke="transparent" points="8,-165.7 8,-187.7 250,-187.7 250,-165.7 8,-165.7"/>
<polygon fill="none" stroke="#000000" points="8,-165.7 8,-187.7 250,-187.7 250,-165.7 8,-165.7"/>
<image xlink:href="../../images/foreignKeys.png" width="11px" height="12px" preserveAspectRatio="xMinYMin meet" x="13" y="-182.7"/>
<text text-anchor="start" x="28" y="-168.3" font-family="Helvetica,sans-Serif" font-size="16.00" fill="#000000">continent_code</text>
<polygon fill="#ffffff" stroke="transparent" points="8,-143.7 8,-165.7 250,-165.7 250,-143.7 8,-143.7"/>
<polygon fill="none" stroke="#000000" points="8,-143.7 8,-165.7 250,-165.7 250,-143.7 8,-143.7"/>
<text text-anchor="start" x="28" y="-146.3" font-family="Helvetica,sans-Serif" font-size="16.00" fill="#000000">tld</text>
<polygon fill="#ffffff" stroke="transparent" points="8,-121.7 8,-143.7 250,-143.7 250,-121.7 8,-121.7"/>
<polygon fill="none" stroke="#000000" points="8,-121.7 8,-143.7 250,-143.7 250,-121.7 8,-121.7"/>
<text text-anchor="start" x="28" y="-124.3" font-family="Helvetica,sans-Serif" font-size="16.00" fill="#000000">currency_code</text>
<polygon fill="#ffffff" stroke="transparent" points="8,-99.7 8,-121.7 250,-121.7 250,-99.7 8,-99.7"/>
<polygon fill="none" stroke="#000000" points="8,-99.7 8,-121.7 250,-121.7 250,-99.7 8,-99.7"/>
<text text-anchor="start" x="28" y="-102.3" font-family="Helvetica,sans-Serif" font-size="16.00" fill="#000000">geoname_id</text>
<polygon fill="none" stroke="#000000" points="8,-74.7 8,-99.7 250,-99.7 250,-74.7 8,-74.7"/>
<text text-anchor="start" x="11" y="-82.3" font-family="Helvetica,sans-Serif" font-size="16.00" fill="#000000">...</text>
<polygon fill="#ffffff" stroke="transparent" points="8,-49.7 8,-74.7 94,-74.7 94,-49.7 8,-49.7"/>
<polygon fill="none" stroke="#000000" points="8,-49.7 8,-74.7 94,-74.7 94,-49.7 8,-49.7"/>
<text text-anchor="start" x="11" y="-57.3" font-family="Helvetica,sans-Serif" font-size="16.00" fill="#000000">&lt; 1</text>
<polygon fill="#ffffff" stroke="transparent" points="94,-49.7 94,-74.7 193,-74.7 193,-49.7 94,-49.7"/>
<polygon fill="none" stroke="#000000" points="94,-49.7 94,-74.7 193,-74.7 193,-49.7 94,-49.7"/>
<text text-anchor="start" x="125.0992" y="-57.3" font-family="Helvetica,sans-Serif" font-size="16.00" fill="#000000">252 rows</text>
<polygon fill="#ffffff" stroke="transparent" points="193,-49.7 193,-74.7 250,-74.7 250,-49.7 193,-49.7"/>
<polygon fill="none" stroke="#000000" points="193,-49.7 193,-74.7 250,-74.7 250,-49.7 193,-49.7"/>
<text text-anchor="start" x="224.3168" y="-57.3" font-family="Helvetica,sans-Serif" font-size="16.00" fill="#000000">3 &gt;</text>
</a>
</g>
</g>
<!-- locations_administrative_divisions_1&#45;&gt;locations_countries -->
<g id="edge1" class="edge">
<title>locations_administrative_divisions_1:w&#45;&gt;locations_countries:e</title>
<path fill="none" stroke="#000000" d="M285.109,-379.9459C266.7102,-363.3076 284.067,-308.7 250,-308.7"/>
<polygon fill="#000000" stroke="#000000" points="291.431,-382.1095 297.8343,-388.106 295.2155,-383.4048 299,-384.7 299,-384.7 299,-384.7 295.2155,-383.4048 300.1657,-381.294 291.431,-382.1095 291.431,-382.1095"/>
<ellipse fill="none" stroke="#000000" cx="288.4034" cy="-381.0733" rx="3.2" ry="3.2"/>
</g>
<!-- locations_administrative_divisions_2 -->
<g id="node3" class="node">
<title>locations_administrative_divisions_2</title>
<g id="a_node3"><a xlink:href="../../tables/locations_administrative_divisions_2.html" xlink:title="locations_administrative_divisions_2" target="_top">
<polygon fill="#ffffff" stroke="transparent" points="702,-142.7 702,-400.7 1187,-400.7 1187,-142.7 702,-142.7"/>
<polygon fill="#f5f5f5" stroke="transparent" points="704.5,-369.7 704.5,-398.7 1185.5,-398.7 1185.5,-369.7 704.5,-369.7"/>
<polygon fill="none" stroke="#000000" points="704.5,-369.7 704.5,-398.7 1185.5,-398.7 1185.5,-369.7 704.5,-369.7"/>
<text text-anchor="start" x="709.5" y="-376.8" font-family="Helvetica,sans-Serif" font-weight="bold" font-size="16.00" fill="#000000">locations_administrative_divisions_2</text>
<text text-anchor="start" x="1136.9272" y="-379.3" font-family="Helvetica,sans-Serif" font-size="16.00" fill="#000000">[table]</text>
<polygon fill="none" stroke="#000000" points="704.5,-344.7 704.5,-369.7 1033.5,-369.7 1033.5,-344.7 704.5,-344.7"/>
<image xlink:href="../../images/primaryKeys.png" width="11px" height="12px" preserveAspectRatio="xMinYMin meet" x="709.5" y="-363.2"/>
<text text-anchor="start" x="724.5" y="-348.8" font-family="Helvetica,sans-Serif" font-size="16.00" fill="#000000">administrative_division_2_code</text>
<polygon fill="none" stroke="#000000" points="1033.5,-344.7 1033.5,-369.7 1185.5,-369.7 1185.5,-344.7 1033.5,-344.7"/>
<text text-anchor="start" x="1036.5" y="-352.3" font-family="Helvetica,sans-Serif" font-size="16.00" fill="#000000">text[2000000000]</text>
<polygon fill="#ffffff" stroke="transparent" points="704.5,-319.7 704.5,-344.7 1033.5,-344.7 1033.5,-319.7 704.5,-319.7"/>
<polygon fill="none" stroke="#000000" points="704.5,-319.7 704.5,-344.7 1033.5,-344.7 1033.5,-319.7 704.5,-319.7"/>
<image xlink:href="../../images/foreignKeys.png" width="11px" height="12px" preserveAspectRatio="xMinYMin meet" x="709.5" y="-338.2"/>
<text text-anchor="start" x="724.5" y="-323.8" font-family="Helvetica,sans-Serif" font-size="16.00" fill="#000000">administrative_division_1_code</text>
<polygon fill="none" stroke="#000000" points="1033.5,-319.7 1033.5,-344.7 1185.5,-344.7 1185.5,-319.7 1033.5,-319.7"/>
<text text-anchor="start" x="1036.5" y="-327.3" font-family="Helvetica,sans-Serif" font-size="16.00" fill="#000000">text[2000000000]</text>
<polygon fill="#ffffff" stroke="transparent" points="704.5,-294.7 704.5,-319.7 1033.5,-319.7 1033.5,-294.7 704.5,-294.7"/>
<polygon fill="none" stroke="#000000" points="704.5,-294.7 704.5,-319.7 1033.5,-319.7 1033.5,-294.7 704.5,-294.7"/>
<image xlink:href="../../images/foreignKeys.png" width="11px" height="12px" preserveAspectRatio="xMinYMin meet" x="709.5" y="-313.2"/>
<text text-anchor="start" x="724.5" y="-298.8" font-family="Helvetica,sans-Serif" font-size="16.00" fill="#000000">country_code</text>
<polygon fill="none" stroke="#000000" points="1033.5,-294.7 1033.5,-319.7 1185.5,-319.7 1185.5,-294.7 1033.5,-294.7"/>
<text text-anchor="start" x="1036.5" y="-302.3" font-family="Helvetica,sans-Serif" font-size="16.00" fill="#000000">text[2000000000]</text>
<polygon fill="#ffffff" stroke="transparent" points="704.5,-269.7 704.5,-294.7 1033.5,-294.7 1033.5,-269.7 704.5,-269.7"/>
<polygon fill="none" stroke="#000000" points="704.5,-269.7 704.5,-294.7 1033.5,-294.7 1033.5,-269.7 704.5,-269.7"/>
<text text-anchor="start" x="724.5" y="-273.8" font-family="Helvetica,sans-Serif" font-size="16.00" fill="#000000">administrative_division_2_name</text>
<polygon fill="none" stroke="#000000" points="1033.5,-269.7 1033.5,-294.7 1185.5,-294.7 1185.5,-269.7 1033.5,-269.7"/>
<text text-anchor="start" x="1036.5" y="-277.3" font-family="Helvetica,sans-Serif" font-size="16.00" fill="#000000">text[2000000000]</text>
<polygon fill="#ffffff" stroke="transparent" points="704.5,-244.7 704.5,-269.7 1033.5,-269.7 1033.5,-244.7 704.5,-244.7"/>
<polygon fill="none" stroke="#000000" points="704.5,-244.7 704.5,-269.7 1033.5,-269.7 1033.5,-244.7 704.5,-244.7"/>
<text text-anchor="start" x="724.5" y="-248.8" font-family="Helvetica,sans-Serif" font-size="16.00" fill="#000000">administrative_division_2_ascii_name</text>
<polygon fill="none" stroke="#000000" points="1033.5,-244.7 1033.5,-269.7 1185.5,-269.7 1185.5,-244.7 1033.5,-244.7"/>
<text text-anchor="start" x="1036.5" y="-252.3" font-family="Helvetica,sans-Serif" font-size="16.00" fill="#000000">text[2000000000]</text>
<polygon fill="#ffffff" stroke="transparent" points="704.5,-219.7 704.5,-244.7 1033.5,-244.7 1033.5,-219.7 704.5,-219.7"/>
<polygon fill="none" stroke="#000000" points="704.5,-219.7 704.5,-244.7 1033.5,-244.7 1033.5,-219.7 704.5,-219.7"/>
<text text-anchor="start" x="724.5" y="-223.8" font-family="Helvetica,sans-Serif" font-size="16.00" fill="#000000">geoname_id</text>
<polygon fill="none" stroke="#000000" points="1033.5,-219.7 1033.5,-244.7 1185.5,-244.7 1185.5,-219.7 1033.5,-219.7"/>
<text text-anchor="start" x="1036.1312" y="-227.3" font-family="Helvetica,sans-Serif" font-size="16.00" fill="#000000">integer[2000000000]</text>
<polygon fill="none" stroke="#000000" points="704.5,-194.7 704.5,-219.7 1033.5,-219.7 1033.5,-194.7 704.5,-194.7"/>
<text text-anchor="start" x="724.5" y="-198.8" font-family="Helvetica,sans-Serif" font-size="16.00" fill="#000000">inserted_at</text>
<polygon fill="none" stroke="#000000" points="1033.5,-194.7 1033.5,-219.7 1185.5,-219.7 1185.5,-194.7 1033.5,-194.7"/>
<text text-anchor="start" x="1036.5" y="-202.3" font-family="Helvetica,sans-Serif" font-size="16.00" fill="#000000">text[2000000000]</text>
<polygon fill="none" stroke="#000000" points="704.5,-169.7 704.5,-194.7 1033.5,-194.7 1033.5,-169.7 704.5,-169.7"/>
<text text-anchor="start" x="724.5" y="-173.8" font-family="Helvetica,sans-Serif" font-size="16.00" fill="#000000">updated_at</text>
<polygon fill="none" stroke="#000000" points="1033.5,-169.7 1033.5,-194.7 1185.5,-194.7 1185.5,-169.7 1033.5,-169.7"/>
<text text-anchor="start" x="1036.5" y="-177.3" font-family="Helvetica,sans-Serif" font-size="16.00" fill="#000000">text[2000000000]</text>
<polygon fill="#ffffff" stroke="transparent" points="704.5,-144.7 704.5,-169.7 836.5,-169.7 836.5,-144.7 704.5,-144.7"/>
<polygon fill="none" stroke="#000000" points="704.5,-144.7 704.5,-169.7 836.5,-169.7 836.5,-144.7 704.5,-144.7"/>
<text text-anchor="start" x="707.5" y="-152.3" font-family="Helvetica,sans-Serif" font-size="16.00" fill="#000000">&lt; 2</text>
<polygon fill="#ffffff" stroke="transparent" points="836.5,-144.7 836.5,-169.7 1033.5,-169.7 1033.5,-144.7 836.5,-144.7"/>
<polygon fill="none" stroke="#000000" points="836.5,-144.7 836.5,-169.7 1033.5,-169.7 1033.5,-144.7 836.5,-144.7"/>
<text text-anchor="start" x="943.364" y="-152.3" font-family="Helvetica,sans-Serif" font-size="16.00" fill="#000000">47,229 rows</text>
<polygon fill="#ffffff" stroke="transparent" points="1033.5,-144.7 1033.5,-169.7 1185.5,-169.7 1185.5,-144.7 1033.5,-144.7"/>
<polygon fill="none" stroke="#000000" points="1033.5,-144.7 1033.5,-169.7 1185.5,-169.7 1185.5,-144.7 1033.5,-144.7"/>
<text text-anchor="start" x="1159.8168" y="-152.3" font-family="Helvetica,sans-Serif" font-size="16.00" fill="#000000">0 &gt;</text>
<polygon fill="none" stroke="#000000" stroke-width="2" points="703,-143.7 703,-399.7 1186,-399.7 1186,-143.7 703,-143.7"/>
</a>
</g>
</g>
<!-- locations_administrative_divisions_2&#45;&gt;locations_administrative_divisions_1 -->
<g id="edge2" class="edge">
<title>locations_administrative_divisions_2:w&#45;&gt;locations_administrative_divisions_1:e</title>
<path fill="none" stroke="#000000" d="M690.7488,-337.1074C671.4187,-353.0383 687.1218,-406.7 653,-406.7"/>
<polygon fill="#000000" stroke="#000000" points="696.8817,-335.1418 705.5988,-336.1282 700.6909,-333.9209 704.5,-332.7 704.5,-332.7 704.5,-332.7 700.6909,-333.9209 703.4012,-329.2718 696.8817,-335.1418 696.8817,-335.1418"/>
<ellipse fill="none" stroke="#000000" cx="693.8344" cy="-336.1185" rx="3.2" ry="3.2"/>
</g>
<!-- locations_administrative_divisions_2&#45;&gt;locations_countries -->
<g id="edge3" class="edge">
<title>locations_administrative_divisions_2:w&#45;&gt;locations_countries:e</title>
<path fill="none" stroke="#000000" d="M690.3751,-303.106C677.0619,-291.2563 684.6096,-259.7447 661,-247.7 514.5167,-172.9698 436.1326,-170.3793 291,-247.7 262.1703,-263.0593 282.6659,-308.7 250,-308.7"/>
<polygon fill="#000000" stroke="#000000" points="696.8923,-305.2256 703.3865,-311.1235 700.6961,-306.4628 704.5,-307.7 704.5,-307.7 704.5,-307.7 700.6961,-306.4628 705.6135,-304.2765 696.8923,-305.2256 696.8923,-305.2256"/>
<ellipse fill="none" stroke="#000000" cx="693.8492" cy="-304.2359" rx="3.2" ry="3.2"/>
</g>
</g>
</svg>
