<?xml version="1.0" encoding="UTF-8" standalone="no"?>
<!DOCTYPE svg PUBLIC "-//W3C//DTD SVG 1.1//EN"
 "http://www.w3.org/Graphics/SVG/1.1/DTD/svg11.dtd">
<!-- Generated by graphviz version 2.40.1 (20161225.0304)
 -->
<!-- Title: oneDegreeRelationshipsDiagram Pages: 1 -->
<svg width="662pt" height="374pt"
 viewBox="0.00 0.00 662.00 374.20" xmlns="http://www.w3.org/2000/svg" xmlns:xlink="http://www.w3.org/1999/xlink">
<g id="graph0" class="graph" transform="scale(1 1) rotate(0) translate(4 370.2)">
<title>oneDegreeRelationshipsDiagram</title>
<polygon fill="#ffffff" stroke="transparent" points="-4,4 -4,-370.2 658,-370.2 658,4 -4,4"/>
<text text-anchor="middle" x="101.8088" y="-8.8" font-family="Helvetica,sans-Serif" font-size="16.00" fill="#000000">Generated by SchemaSpy</text>
<!-- locations_countries -->
<g id="node1" class="node">
<title>locations_countries</title>
<g id="a_node1"><a xlink:href="../../tables/locations_countries.html" xlink:title="locations_countries" target="_top">
<polygon fill="#ffffff" stroke="transparent" points="404,-63.2 404,-362.2 646,-362.2 646,-63.2 404,-63.2"/>
<polygon fill="#f5f5f5" stroke="transparent" points="404,-332.7 404,-361.7 646,-361.7 646,-332.7 404,-332.7"/>
<polygon fill="none" stroke="#000000" points="404,-332.7 404,-361.7 646,-361.7 646,-332.7 404,-332.7"/>
<text text-anchor="start" x="409" y="-339.8" font-family="Helvetica,sans-Serif" font-weight="bold" font-size="16.00" fill="#000000">locations_countries</text>
<text text-anchor="start" x="597.4272" y="-342.3" font-family="Helvetica,sans-Serif" font-size="16.00" fill="#000000">[table]</text>
<polygon fill="none" stroke="#000000" points="404,-310.7 404,-332.7 646,-332.7 646,-310.7 404,-310.7"/>
<image xlink:href="../../images/primaryKeys.png" width="11px" height="12px" preserveAspectRatio="xMinYMin meet" x="409" y="-327.7"/>
<text text-anchor="start" x="424" y="-313.3" font-family="Helvetica,sans-Serif" font-size="16.00" fill="#000000">iso_country_code</text>
<polygon fill="#ffffff" stroke="transparent" points="404,-288.7 404,-310.7 646,-310.7 646,-288.7 404,-288.7"/>
<polygon fill="none" stroke="#000000" points="404,-288.7 404,-310.7 646,-310.7 646,-288.7 404,-288.7"/>
<text text-anchor="start" x="424" y="-291.3" font-family="Helvetica,sans-Serif" font-size="16.00" fill="#000000">iso_3_country_code</text>
<polygon fill="#ffffff" stroke="transparent" points="404,-266.7 404,-288.7 646,-288.7 646,-266.7 404,-266.7"/>
<polygon fill="none" stroke="#000000" points="404,-266.7 404,-288.7 646,-288.7 646,-266.7 404,-266.7"/>
<text text-anchor="start" x="424" y="-269.3" font-family="Helvetica,sans-Serif" font-size="16.00" fill="#000000">iso_numeric_country_code</text>
<polygon fill="#ffffff" stroke="transparent" points="404,-244.7 404,-266.7 646,-266.7 646,-244.7 404,-244.7"/>
<polygon fill="none" stroke="#000000" points="404,-244.7 404,-266.7 646,-266.7 646,-244.7 404,-244.7"/>
<text text-anchor="start" x="424" y="-247.3" font-family="Helvetica,sans-Serif" font-size="16.00" fill="#000000">country_name</text>
<polygon fill="#ffffff" stroke="transparent" points="404,-222.7 404,-244.7 646,-244.7 646,-222.7 404,-222.7"/>
<polygon fill="none" stroke="#000000" points="404,-222.7 404,-244.7 646,-244.7 646,-222.7 404,-222.7"/>
<text text-anchor="start" x="424" y="-225.3" font-family="Helvetica,sans-Serif" font-size="16.00" fill="#000000">area</text>
<polygon fill="#ffffff" stroke="transparent" points="404,-200.7 404,-222.7 646,-222.7 646,-200.7 404,-200.7"/>
<polygon fill="none" stroke="#000000" points="404,-200.7 404,-222.7 646,-222.7 646,-200.7 404,-200.7"/>
<text text-anchor="start" x="424" y="-203.3" font-family="Helvetica,sans-Serif" font-size="16.00" fill="#000000">population</text>
<polygon fill="#ffffff" stroke="transparent" points="404,-178.7 404,-200.7 646,-200.7 646,-178.7 404,-178.7"/>
<polygon fill="none" stroke="#000000" points="404,-178.7 404,-200.7 646,-200.7 646,-178.7 404,-178.7"/>
<image xlink:href="../../images/foreignKeys.png" width="11px" height="12px" preserveAspectRatio="xMinYMin meet" x="409" y="-195.7"/>
<text text-anchor="start" x="424" y="-181.3" font-family="Helvetica,sans-Serif" font-size="16.00" fill="#000000">continent_code</text>
<polygon fill="#ffffff" stroke="transparent" points="404,-156.7 404,-178.7 646,-178.7 646,-156.7 404,-156.7"/>
<polygon fill="none" stroke="#000000" points="404,-156.7 404,-178.7 646,-178.7 646,-156.7 404,-156.7"/>
<text text-anchor="start" x="424" y="-159.3" font-family="Helvetica,sans-Serif" font-size="16.00" fill="#000000">tld</text>
<polygon fill="#ffffff" stroke="transparent" points="404,-134.7 404,-156.7 646,-156.7 646,-134.7 404,-134.7"/>
<polygon fill="none" stroke="#000000" points="404,-134.7 404,-156.7 646,-156.7 646,-134.7 404,-134.7"/>
<text text-anchor="start" x="424" y="-137.3" font-family="Helvetica,sans-Serif" font-size="16.00" fill="#000000">currency_code</text>
<polygon fill="#ffffff" stroke="transparent" points="404,-112.7 404,-134.7 646,-134.7 646,-112.7 404,-112.7"/>
<polygon fill="none" stroke="#000000" points="404,-112.7 404,-134.7 646,-134.7 646,-112.7 404,-112.7"/>
<text text-anchor="start" x="424" y="-115.3" font-family="Helvetica,sans-Serif" font-size="16.00" fill="#000000">geoname_id</text>
<polygon fill="none" stroke="#000000" points="404,-87.7 404,-112.7 646,-112.7 646,-87.7 404,-87.7"/>
<text text-anchor="start" x="407" y="-95.3" font-family="Helvetica,sans-Serif" font-size="16.00" fill="#000000">...</text>
<polygon fill="#ffffff" stroke="transparent" points="404,-62.7 404,-87.7 490,-87.7 490,-62.7 404,-62.7"/>
<polygon fill="none" stroke="#000000" points="404,-62.7 404,-87.7 490,-87.7 490,-62.7 404,-62.7"/>
<text text-anchor="start" x="407" y="-70.3" font-family="Helvetica,sans-Serif" font-size="16.00" fill="#000000">&lt; 1</text>
<polygon fill="#ffffff" stroke="transparent" points="490,-62.7 490,-87.7 589,-87.7 589,-62.7 490,-62.7"/>
<polygon fill="none" stroke="#000000" points="490,-62.7 490,-87.7 589,-87.7 589,-62.7 490,-62.7"/>
<text text-anchor="start" x="521.0992" y="-70.3" font-family="Helvetica,sans-Serif" font-size="16.00" fill="#000000">252 rows</text>
<polygon fill="#ffffff" stroke="transparent" points="589,-62.7 589,-87.7 646,-87.7 646,-62.7 589,-62.7"/>
<polygon fill="none" stroke="#000000" points="589,-62.7 589,-87.7 646,-87.7 646,-62.7 589,-62.7"/>
<text text-anchor="start" x="620.3168" y="-70.3" font-family="Helvetica,sans-Serif" font-size="16.00" fill="#000000">3 &gt;</text>
</a>
</g>
</g>
<!-- locations_continents -->
<g id="node2" class="node">
<title>locations_continents</title>
<g id="a_node2"><a xlink:href="../../tables/locations_continents.html" xlink:title="locations_continents" target="_top">
<polygon fill="#ffffff" stroke="transparent" points="8,-50.2 8,-233.2 355,-233.2 355,-50.2 8,-50.2"/>
<polygon fill="#f5f5f5" stroke="transparent" points="10.5,-201.7 10.5,-230.7 353.5,-230.7 353.5,-201.7 10.5,-201.7"/>
<polygon fill="none" stroke="#000000" points="10.5,-201.7 10.5,-230.7 353.5,-230.7 353.5,-201.7 10.5,-201.7"/>
<text text-anchor="start" x="15.5" y="-208.8" font-family="Helvetica,sans-Serif" font-weight="bold" font-size="16.00" fill="#000000">locations_continents</text>
<text text-anchor="start" x="304.9272" y="-211.3" font-family="Helvetica,sans-Serif" font-size="16.00" fill="#000000">[table]</text>
<polygon fill="none" stroke="#000000" points="10.5,-176.7 10.5,-201.7 201.5,-201.7 201.5,-176.7 10.5,-176.7"/>
<image xlink:href="../../images/primaryKeys.png" width="11px" height="12px" preserveAspectRatio="xMinYMin meet" x="15.5" y="-195.2"/>
<text text-anchor="start" x="30.5" y="-180.8" font-family="Helvetica,sans-Serif" font-size="16.00" fill="#000000">continent_code</text>
<polygon fill="none" stroke="#000000" points="201.5,-176.7 201.5,-201.7 353.5,-201.7 353.5,-176.7 201.5,-176.7"/>
<text text-anchor="start" x="204.5" y="-184.3" font-family="Helvetica,sans-Serif" font-size="16.00" fill="#000000">text[2000000000]</text>
<polygon fill="#ffffff" stroke="transparent" points="10.5,-151.7 10.5,-176.7 201.5,-176.7 201.5,-151.7 10.5,-151.7"/>
<polygon fill="none" stroke="#000000" points="10.5,-151.7 10.5,-176.7 201.5,-176.7 201.5,-151.7 10.5,-151.7"/>
<text text-anchor="start" x="30.5" y="-155.8" font-family="Helvetica,sans-Serif" font-size="16.00" fill="#000000">continent_name</text>
<polygon fill="none" stroke="#000000" points="201.5,-151.7 201.5,-176.7 353.5,-176.7 353.5,-151.7 201.5,-151.7"/>
<text text-anchor="start" x="204.5" y="-159.3" font-family="Helvetica,sans-Serif" font-size="16.00" fill="#000000">text[2000000000]</text>
<polygon fill="none" stroke="#000000" points="10.5,-126.7 10.5,-151.7 201.5,-151.7 201.5,-126.7 10.5,-126.7"/>
<text text-anchor="start" x="30.5" y="-130.8" font-family="Helvetica,sans-Serif" font-size="16.00" fill="#000000">geoname_id</text>
<polygon fill="none" stroke="#000000" points="201.5,-126.7 201.5,-151.7 353.5,-151.7 353.5,-126.7 201.5,-126.7"/>
<text text-anchor="start" x="204.1312" y="-134.3" font-family="Helvetica,sans-Serif" font-size="16.00" fill="#000000">integer[2000000000]</text>
<polygon fill="none" stroke="#000000" points="10.5,-101.7 10.5,-126.7 201.5,-126.7 201.5,-101.7 10.5,-101.7"/>
<text text-anchor="start" x="30.5" y="-105.8" font-family="Helvetica,sans-Serif" font-size="16.00" fill="#000000">inserted_at</text>
<polygon fill="none" stroke="#000000" points="201.5,-101.7 201.5,-126.7 353.5,-126.7 353.5,-101.7 201.5,-101.7"/>
<text text-anchor="start" x="204.5" y="-109.3" font-family="Helvetica,sans-Serif" font-size="16.00" fill="#000000">text[2000000000]</text>
<polygon fill="none" stroke="#000000" points="10.5,-76.7 10.5,-101.7 201.5,-101.7 201.5,-76.7 10.5,-76.7"/>
<text text-anchor="start" x="30.5" y="-80.8" font-family="Helvetica,sans-Serif" font-size="16.00" fill="#000000">updated_at</text>
<polygon fill="none" stroke="#000000" points="201.5,-76.7 201.5,-101.7 353.5,-101.7 353.5,-76.7 201.5,-76.7"/>
<text text-anchor="start" x="204.5" y="-84.3" font-family="Helvetica,sans-Serif" font-size="16.00" fill="#000000">text[2000000000]</text>
<polygon fill="#ffffff" stroke="transparent" points="10.5,-51.7 10.5,-76.7 93.5,-76.7 93.5,-51.7 10.5,-51.7"/>
<polygon fill="none" stroke="#000000" points="10.5,-51.7 10.5,-76.7 93.5,-76.7 93.5,-51.7 10.5,-51.7"/>
<text text-anchor="start" x="13.5" y="-59.3" font-family="Helvetica,sans-Serif" font-size="16.00" fill="#000000">&lt; 0</text>
<polygon fill="#ffffff" stroke="transparent" points="93.5,-51.7 93.5,-76.7 201.5,-76.7 201.5,-51.7 93.5,-51.7"/>
<polygon fill="none" stroke="#000000" points="93.5,-51.7 93.5,-76.7 201.5,-76.7 201.5,-51.7 93.5,-51.7"/>
<text text-anchor="start" x="151.388" y="-59.3" font-family="Helvetica,sans-Serif" font-size="16.00" fill="#000000">7 rows</text>
<polygon fill="#ffffff" stroke="transparent" points="201.5,-51.7 201.5,-76.7 353.5,-76.7 353.5,-51.7 201.5,-51.7"/>
<polygon fill="none" stroke="#000000" points="201.5,-51.7 201.5,-76.7 353.5,-76.7 353.5,-51.7 201.5,-51.7"/>
<text text-anchor="start" x="327.8168" y="-59.3" font-family="Helvetica,sans-Serif" font-size="16.00" fill="#000000">1 &gt;</text>
<polygon fill="none" stroke="#000000" stroke-width="2" points="9,-51.2 9,-232.2 354,-232.2 354,-51.2 9,-51.2"/>
</a>
</g>
</g>
<!-- locations_countries&#45;&gt;locations_continents -->
<g id="edge1" class="edge">
<title>locations_countries:w&#45;&gt;locations_continents:e</title>
<path fill="none" stroke="#000000" d="M389.4203,-189.7C377.5435,-189.7 370.158,-189.7 353.5,-189.7"/>
<polygon fill="#000000" stroke="#000000" points="396,-189.7001 404,-193.3 400,-189.7 404,-189.7 404,-189.7 404,-189.7 400,-189.7 404,-186.1 396,-189.7001 396,-189.7001"/>
<ellipse fill="none" stroke="#000000" cx="392.8" cy="-189.7001" rx="3.2" ry="3.2"/>
</g>
</g>
</svg>
