<?xml version="1.0" encoding="UTF-8" standalone="no"?>
<!DOCTYPE svg PUBLIC "-//W3C//DTD SVG 1.1//EN"
 "http://www.w3.org/Graphics/SVG/1.1/DTD/svg11.dtd">
<!-- Generated by graphviz version 2.40.1 (20161225.0304)
 -->
<!-- Title: oneDegreeRelationshipsDiagram Pages: 1 -->
<svg width="1028pt" height="746pt"
 viewBox="0.00 0.00 1028.00 746.32" xmlns="http://www.w3.org/2000/svg" xmlns:xlink="http://www.w3.org/1999/xlink">
<g id="graph0" class="graph" transform="scale(1 1) rotate(0) translate(4 742.3185)">
<title>oneDegreeRelationshipsDiagram</title>
<polygon fill="#ffffff" stroke="transparent" points="-4,4 -4,-742.3185 1024,-742.3185 1024,4 -4,4"/>
<text text-anchor="middle" x="101.8088" y="-8.8" font-family="Helvetica,sans-Serif" font-size="16.00" fill="#000000">Generated by SchemaSpy</text>
<!-- project_notes -->
<g id="node1" class="node">
<title>project_notes</title>
<g id="a_node1"><a xlink:href="../../tables/project_notes.html" xlink:title="project_notes" target="_top">
<polygon fill="#ffffff" stroke="transparent" points="813.5,-423.3185 813.5,-590.3185 977.5,-590.3185 977.5,-423.3185 813.5,-423.3185"/>
<polygon fill="#f5f5f5" stroke="transparent" points="813.5,-560.8185 813.5,-589.8185 977.5,-589.8185 977.5,-560.8185 813.5,-560.8185"/>
<polygon fill="none" stroke="#000000" points="813.5,-560.8185 813.5,-589.8185 977.5,-589.8185 977.5,-560.8185 813.5,-560.8185"/>
<text text-anchor="start" x="818.5" y="-567.9185" font-family="Helvetica,sans-Serif" font-weight="bold" font-size="16.00" fill="#000000">project_notes</text>
<text text-anchor="start" x="929.2136" y="-570.4185" font-family="Helvetica,sans-Serif" font-size="16.00" fill="#000000">[table]</text>
<polygon fill="none" stroke="#000000" points="813.5,-538.8185 813.5,-560.8185 977.5,-560.8185 977.5,-538.8185 813.5,-538.8185"/>
<image xlink:href="../../images/primaryKeys.png" width="11px" height="12px" preserveAspectRatio="xMinYMin meet" x="818.5" y="-555.819"/>
<text text-anchor="start" x="849.5" y="-541.4185" font-family="Helvetica,sans-Serif" font-size="16.00" fill="#000000">id</text>
<polygon fill="#ffffff" stroke="transparent" points="813.5,-516.8185 813.5,-538.8185 977.5,-538.8185 977.5,-516.8185 813.5,-516.8185"/>
<polygon fill="none" stroke="#000000" points="813.5,-516.8185 813.5,-538.8185 977.5,-538.8185 977.5,-516.8185 813.5,-516.8185"/>
<image xlink:href="../../images/foreignKeys.png" width="11px" height="12px" preserveAspectRatio="xMinYMin meet" x="818.5" y="-533.819"/>
<text text-anchor="start" x="849.5" y="-519.4185" font-family="Helvetica,sans-Serif" font-size="16.00" fill="#000000">project_id</text>
<polygon fill="#ffffff" stroke="transparent" points="813.5,-494.8185 813.5,-516.8185 977.5,-516.8185 977.5,-494.8185 813.5,-494.8185"/>
<polygon fill="none" stroke="#000000" points="813.5,-494.8185 813.5,-516.8185 977.5,-516.8185 977.5,-494.8185 813.5,-494.8185"/>
<text text-anchor="start" x="849.5" y="-497.4185" font-family="Helvetica,sans-Serif" font-size="16.00" fill="#000000">inserted_at</text>
<polygon fill="#ffffff" stroke="transparent" points="813.5,-472.8185 813.5,-494.8185 977.5,-494.8185 977.5,-472.8185 813.5,-472.8185"/>
<polygon fill="none" stroke="#000000" points="813.5,-472.8185 813.5,-494.8185 977.5,-494.8185 977.5,-472.8185 813.5,-472.8185"/>
<text text-anchor="start" x="849.5" y="-475.4185" font-family="Helvetica,sans-Serif" font-size="16.00" fill="#000000">updated_at</text>
<polygon fill="none" stroke="#000000" points="813.5,-447.8185 813.5,-472.8185 977.5,-472.8185 977.5,-447.8185 813.5,-447.8185"/>
<text text-anchor="start" x="816.5" y="-455.4185" font-family="Helvetica,sans-Serif" font-size="16.00" fill="#000000">...</text>
<polygon fill="#ffffff" stroke="transparent" points="813.5,-422.8185 813.5,-447.8185 875.5,-447.8185 875.5,-422.8185 813.5,-422.8185"/>
<polygon fill="none" stroke="#000000" points="813.5,-422.8185 813.5,-447.8185 875.5,-447.8185 875.5,-422.8185 813.5,-422.8185"/>
<text text-anchor="start" x="816.5" y="-430.4185" font-family="Helvetica,sans-Serif" font-size="16.00" fill="#000000">&lt; 1</text>
<polygon fill="#ffffff" stroke="transparent" points="875.5,-422.8185 875.5,-447.8185 945.5,-447.8185 945.5,-422.8185 875.5,-422.8185"/>
<polygon fill="none" stroke="#000000" points="875.5,-422.8185 875.5,-447.8185 945.5,-447.8185 945.5,-422.8185 875.5,-422.8185"/>
<text text-anchor="start" x="895.388" y="-430.4185" font-family="Helvetica,sans-Serif" font-size="16.00" fill="#000000">0 rows</text>
<polygon fill="#ffffff" stroke="transparent" points="945.5,-422.8185 945.5,-447.8185 977.5,-447.8185 977.5,-422.8185 945.5,-422.8185"/>
<polygon fill="none" stroke="#000000" points="945.5,-422.8185 945.5,-447.8185 977.5,-447.8185 977.5,-422.8185 945.5,-422.8185"/>
<text text-anchor="start" x="965.6072" y="-430.4185" font-family="Helvetica,sans-Serif" font-size="16.00" fill="#000000"> &#160;</text>
</a>
</g>
</g>
<!-- projects -->
<g id="node2" class="node">
<title>projects</title>
<g id="a_node2"><a xlink:href="../../tables/projects.html" xlink:title="projects" target="_top">
<polygon fill="#ffffff" stroke="transparent" points="261,-145.8185 261,-653.8185 730,-653.8185 730,-145.8185 261,-145.8185"/>
<polygon fill="#f5f5f5" stroke="transparent" points="263.5,-622.8185 263.5,-651.8185 728.5,-651.8185 728.5,-622.8185 263.5,-622.8185"/>
<polygon fill="none" stroke="#000000" points="263.5,-622.8185 263.5,-651.8185 728.5,-651.8185 728.5,-622.8185 263.5,-622.8185"/>
<text text-anchor="start" x="268.5" y="-629.9185" font-family="Helvetica,sans-Serif" font-weight="bold" font-size="16.00" fill="#000000">projects</text>
<text text-anchor="start" x="679.9272" y="-632.4185" font-family="Helvetica,sans-Serif" font-size="16.00" fill="#000000">[table]</text>
<polygon fill="none" stroke="#000000" points="263.5,-597.8185 263.5,-622.8185 547.5,-622.8185 547.5,-597.8185 263.5,-597.8185"/>
<image xlink:href="../../images/primaryKeys.png" width="11px" height="12px" preserveAspectRatio="xMinYMin meet" x="268.5" y="-616.319"/>
<text text-anchor="start" x="283.5" y="-601.9185" font-family="Helvetica,sans-Serif" font-size="16.00" fill="#000000">id</text>
<polygon fill="none" stroke="#000000" points="547.5,-597.8185 547.5,-622.8185 728.5,-622.8185 728.5,-597.8185 547.5,-597.8185"/>
<text text-anchor="start" x="550.5" y="-605.4185" font-family="Helvetica,sans-Serif" font-size="16.00" fill="#000000">text[2000000000]</text>
<polygon fill="#ffffff" stroke="transparent" points="263.5,-572.8185 263.5,-597.8185 547.5,-597.8185 547.5,-572.8185 263.5,-572.8185"/>
<polygon fill="none" stroke="#000000" points="263.5,-572.8185 263.5,-597.8185 547.5,-597.8185 547.5,-572.8185 263.5,-572.8185"/>
<text text-anchor="start" x="283.5" y="-576.9185" font-family="Helvetica,sans-Serif" font-size="16.00" fill="#000000">name</text>
<polygon fill="none" stroke="#000000" points="547.5,-572.8185 547.5,-597.8185 728.5,-597.8185 728.5,-572.8185 547.5,-572.8185"/>
<text text-anchor="start" x="550.5" y="-580.4185" font-family="Helvetica,sans-Serif" font-size="16.00" fill="#000000">text[2000000000]</text>
<polygon fill="none" stroke="#000000" points="263.5,-547.8185 263.5,-572.8185 547.5,-572.8185 547.5,-547.8185 263.5,-547.8185"/>
<text text-anchor="start" x="283.5" y="-551.9185" font-family="Helvetica,sans-Serif" font-size="16.00" fill="#000000">description</text>
<polygon fill="none" stroke="#000000" points="547.5,-547.8185 547.5,-572.8185 728.5,-572.8185 728.5,-547.8185 547.5,-547.8185"/>
<text text-anchor="start" x="550.5" y="-555.4185" font-family="Helvetica,sans-Serif" font-size="16.00" fill="#000000">text[2000000000]</text>
<polygon fill="#ffffff" stroke="transparent" points="263.5,-522.8185 263.5,-547.8185 547.5,-547.8185 547.5,-522.8185 263.5,-522.8185"/>
<polygon fill="none" stroke="#000000" points="263.5,-522.8185 263.5,-547.8185 547.5,-547.8185 547.5,-522.8185 263.5,-522.8185"/>
<text text-anchor="start" x="283.5" y="-526.9185" font-family="Helvetica,sans-Serif" font-size="16.00" fill="#000000">status</text>
<polygon fill="none" stroke="#000000" points="547.5,-522.8185 547.5,-547.8185 728.5,-547.8185 728.5,-522.8185 547.5,-522.8185"/>
<text text-anchor="start" x="550.5" y="-530.4185" font-family="Helvetica,sans-Serif" font-size="16.00" fill="#000000">text[2000000000]</text>
<polygon fill="#ffffff" stroke="transparent" points="263.5,-497.8185 263.5,-522.8185 547.5,-522.8185 547.5,-497.8185 263.5,-497.8185"/>
<polygon fill="none" stroke="#000000" points="263.5,-497.8185 263.5,-522.8185 547.5,-522.8185 547.5,-497.8185 263.5,-497.8185"/>
<text text-anchor="start" x="283.5" y="-501.9185" font-family="Helvetica,sans-Serif" font-size="16.00" fill="#000000">project_type</text>
<polygon fill="none" stroke="#000000" points="547.5,-497.8185 547.5,-522.8185 728.5,-522.8185 728.5,-497.8185 547.5,-497.8185"/>
<text text-anchor="start" x="550.5" y="-505.4185" font-family="Helvetica,sans-Serif" font-size="16.00" fill="#000000">text[2000000000]</text>
<polygon fill="#ffffff" stroke="transparent" points="263.5,-472.8185 263.5,-497.8185 547.5,-497.8185 547.5,-472.8185 263.5,-472.8185"/>
<polygon fill="none" stroke="#000000" points="263.5,-472.8185 263.5,-497.8185 547.5,-497.8185 547.5,-472.8185 263.5,-472.8185"/>
<text text-anchor="start" x="283.5" y="-476.9185" font-family="Helvetica,sans-Serif" font-size="16.00" fill="#000000">priority</text>
<polygon fill="none" stroke="#000000" points="547.5,-472.8185 547.5,-497.8185 728.5,-497.8185 728.5,-472.8185 547.5,-472.8185"/>
<text text-anchor="start" x="550.5" y="-480.4185" font-family="Helvetica,sans-Serif" font-size="16.00" fill="#000000">text[2000000000]</text>
<polygon fill="#ffffff" stroke="transparent" points="263.5,-447.8185 263.5,-472.8185 547.5,-472.8185 547.5,-447.8185 263.5,-447.8185"/>
<polygon fill="none" stroke="#000000" points="263.5,-447.8185 263.5,-472.8185 547.5,-472.8185 547.5,-447.8185 263.5,-447.8185"/>
<image xlink:href="../../images/foreignKeys.png" width="11px" height="12px" preserveAspectRatio="xMinYMin meet" x="268.5" y="-466.319"/>
<text text-anchor="start" x="283.5" y="-451.9185" font-family="Helvetica,sans-Serif" font-size="16.00" fill="#000000">business_partner_id</text>
<polygon fill="none" stroke="#000000" points="547.5,-447.8185 547.5,-472.8185 728.5,-472.8185 728.5,-447.8185 547.5,-447.8185"/>
<text text-anchor="start" x="550.5" y="-455.4185" font-family="Helvetica,sans-Serif" font-size="16.00" fill="#000000">text[2000000000]</text>
<polygon fill="none" stroke="#000000" points="263.5,-422.8185 263.5,-447.8185 547.5,-447.8185 547.5,-422.8185 263.5,-422.8185"/>
<text text-anchor="start" x="283.5" y="-426.9185" font-family="Helvetica,sans-Serif" font-size="16.00" fill="#000000">expected_start_date</text>
<polygon fill="none" stroke="#000000" points="547.5,-422.8185 547.5,-447.8185 728.5,-447.8185 728.5,-422.8185 547.5,-422.8185"/>
<text text-anchor="start" x="550.5" y="-430.4185" font-family="Helvetica,sans-Serif" font-size="16.00" fill="#000000">text[2000000000]</text>
<polygon fill="none" stroke="#000000" points="263.5,-397.8185 263.5,-422.8185 547.5,-422.8185 547.5,-397.8185 263.5,-397.8185"/>
<text text-anchor="start" x="283.5" y="-401.9185" font-family="Helvetica,sans-Serif" font-size="16.00" fill="#000000">expected_end_date</text>
<polygon fill="none" stroke="#000000" points="547.5,-397.8185 547.5,-422.8185 728.5,-422.8185 728.5,-397.8185 547.5,-397.8185"/>
<text text-anchor="start" x="550.5" y="-405.4185" font-family="Helvetica,sans-Serif" font-size="16.00" fill="#000000">text[2000000000]</text>
<polygon fill="none" stroke="#000000" points="263.5,-372.8185 263.5,-397.8185 547.5,-397.8185 547.5,-372.8185 263.5,-372.8185"/>
<text text-anchor="start" x="283.5" y="-376.9185" font-family="Helvetica,sans-Serif" font-size="16.00" fill="#000000">actual_start_date</text>
<polygon fill="none" stroke="#000000" points="547.5,-372.8185 547.5,-397.8185 728.5,-397.8185 728.5,-372.8185 547.5,-372.8185"/>
<text text-anchor="start" x="550.5" y="-380.4185" font-family="Helvetica,sans-Serif" font-size="16.00" fill="#000000">text[2000000000]</text>
<polygon fill="none" stroke="#000000" points="263.5,-347.8185 263.5,-372.8185 547.5,-372.8185 547.5,-347.8185 263.5,-347.8185"/>
<text text-anchor="start" x="283.5" y="-351.9185" font-family="Helvetica,sans-Serif" font-size="16.00" fill="#000000">actual_end_date</text>
<polygon fill="none" stroke="#000000" points="547.5,-347.8185 547.5,-372.8185 728.5,-372.8185 728.5,-347.8185 547.5,-347.8185"/>
<text text-anchor="start" x="550.5" y="-355.4185" font-family="Helvetica,sans-Serif" font-size="16.00" fill="#000000">text[2000000000]</text>
<polygon fill="none" stroke="#000000" points="263.5,-322.8185 263.5,-347.8185 547.5,-347.8185 547.5,-322.8185 263.5,-322.8185"/>
<text text-anchor="start" x="283.5" y="-326.9185" font-family="Helvetica,sans-Serif" font-size="16.00" fill="#000000">estimated_duration</text>
<polygon fill="none" stroke="#000000" points="547.5,-322.8185 547.5,-347.8185 728.5,-347.8185 728.5,-322.8185 547.5,-322.8185"/>
<text text-anchor="start" x="550.5" y="-330.4185" font-family="Helvetica,sans-Serif" font-size="16.00" fill="#000000">integer[2000000000]</text>
<polygon fill="none" stroke="#000000" points="263.5,-297.8185 263.5,-322.8185 547.5,-322.8185 547.5,-297.8185 263.5,-297.8185"/>
<text text-anchor="start" x="283.5" y="-301.9185" font-family="Helvetica,sans-Serif" font-size="16.00" fill="#000000">estimated_duration_time_unit</text>
<polygon fill="none" stroke="#000000" points="547.5,-297.8185 547.5,-322.8185 728.5,-322.8185 728.5,-297.8185 547.5,-297.8185"/>
<text text-anchor="start" x="550.5" y="-305.4185" font-family="Helvetica,sans-Serif" font-size="16.00" fill="#000000">text[2000000000]</text>
<polygon fill="#ffffff" stroke="transparent" points="263.5,-272.8185 263.5,-297.8185 547.5,-297.8185 547.5,-272.8185 263.5,-272.8185"/>
<polygon fill="none" stroke="#000000" points="263.5,-272.8185 263.5,-297.8185 547.5,-297.8185 547.5,-272.8185 263.5,-272.8185"/>
<text text-anchor="start" x="283.5" y="-276.9185" font-family="Helvetica,sans-Serif" font-size="16.00" fill="#000000">billable</text>
<polygon fill="none" stroke="#000000" points="547.5,-272.8185 547.5,-297.8185 728.5,-297.8185 728.5,-272.8185 547.5,-272.8185"/>
<text text-anchor="start" x="550.5" y="-280.4185" font-family="Helvetica,sans-Serif" font-size="16.00" fill="#000000">integer[2000000000]</text>
<polygon fill="none" stroke="#000000" points="263.5,-247.8185 263.5,-272.8185 547.5,-272.8185 547.5,-247.8185 263.5,-247.8185"/>
<text text-anchor="start" x="283.5" y="-251.9185" font-family="Helvetica,sans-Serif" font-size="16.00" fill="#000000">estimated_total_billable_amount</text>
<polygon fill="none" stroke="#000000" points="547.5,-247.8185 547.5,-272.8185 728.5,-272.8185 728.5,-247.8185 547.5,-247.8185"/>
<text text-anchor="start" x="550.4088" y="-255.4185" font-family="Helvetica,sans-Serif" font-size="16.00" fill="#000000">decimal[2000000000,10]</text>
<polygon fill="#ffffff" stroke="transparent" points="263.5,-222.8185 263.5,-247.8185 547.5,-247.8185 547.5,-222.8185 263.5,-222.8185"/>
<polygon fill="none" stroke="#000000" points="263.5,-222.8185 263.5,-247.8185 547.5,-247.8185 547.5,-222.8185 263.5,-222.8185"/>
<text text-anchor="start" x="283.5" y="-226.9185" font-family="Helvetica,sans-Serif" font-size="16.00" fill="#000000">active</text>
<polygon fill="none" stroke="#000000" points="547.5,-222.8185 547.5,-247.8185 728.5,-247.8185 728.5,-222.8185 547.5,-222.8185"/>
<text text-anchor="start" x="550.5" y="-230.4185" font-family="Helvetica,sans-Serif" font-size="16.00" fill="#000000">integer[2000000000]</text>
<polygon fill="#ffffff" stroke="transparent" points="263.5,-197.8185 263.5,-222.8185 547.5,-222.8185 547.5,-197.8185 263.5,-197.8185"/>
<polygon fill="none" stroke="#000000" points="263.5,-197.8185 263.5,-222.8185 547.5,-222.8185 547.5,-197.8185 263.5,-197.8185"/>
<text text-anchor="start" x="283.5" y="-201.9185" font-family="Helvetica,sans-Serif" font-size="16.00" fill="#000000">inserted_at</text>
<polygon fill="none" stroke="#000000" points="547.5,-197.8185 547.5,-222.8185 728.5,-222.8185 728.5,-197.8185 547.5,-197.8185"/>
<text text-anchor="start" x="550.5" y="-205.4185" font-family="Helvetica,sans-Serif" font-size="16.00" fill="#000000">text[2000000000]</text>
<polygon fill="none" stroke="#000000" points="263.5,-172.8185 263.5,-197.8185 547.5,-197.8185 547.5,-172.8185 263.5,-172.8185"/>
<text text-anchor="start" x="283.5" y="-176.9185" font-family="Helvetica,sans-Serif" font-size="16.00" fill="#000000">updated_at</text>
<polygon fill="none" stroke="#000000" points="547.5,-172.8185 547.5,-197.8185 728.5,-197.8185 728.5,-172.8185 547.5,-172.8185"/>
<text text-anchor="start" x="550.5" y="-180.4185" font-family="Helvetica,sans-Serif" font-size="16.00" fill="#000000">text[2000000000]</text>
<polygon fill="#ffffff" stroke="transparent" points="263.5,-147.8185 263.5,-172.8185 388.5,-172.8185 388.5,-147.8185 263.5,-147.8185"/>
<polygon fill="none" stroke="#000000" points="263.5,-147.8185 263.5,-172.8185 388.5,-172.8185 388.5,-147.8185 263.5,-147.8185"/>
<text text-anchor="start" x="266.5" y="-155.4185" font-family="Helvetica,sans-Serif" font-size="16.00" fill="#000000">&lt; 1</text>
<polygon fill="#ffffff" stroke="transparent" points="388.5,-147.8185 388.5,-172.8185 547.5,-172.8185 547.5,-147.8185 388.5,-147.8185"/>
<polygon fill="none" stroke="#000000" points="388.5,-147.8185 388.5,-172.8185 547.5,-172.8185 547.5,-147.8185 388.5,-147.8185"/>
<text text-anchor="start" x="488.4936" y="-155.4185" font-family="Helvetica,sans-Serif" font-size="16.00" fill="#000000">13 rows</text>
<polygon fill="#ffffff" stroke="transparent" points="547.5,-147.8185 547.5,-172.8185 728.5,-172.8185 728.5,-147.8185 547.5,-147.8185"/>
<polygon fill="none" stroke="#000000" points="547.5,-147.8185 547.5,-172.8185 728.5,-172.8185 728.5,-147.8185 547.5,-147.8185"/>
<text text-anchor="start" x="702.8168" y="-155.4185" font-family="Helvetica,sans-Serif" font-size="16.00" fill="#000000">3 &gt;</text>
<polygon fill="none" stroke="#000000" stroke-width="2" points="262,-146.8185 262,-652.8185 729,-652.8185 729,-146.8185 262,-146.8185"/>
</a>
</g>
</g>
<!-- project_notes&#45;&gt;projects -->
<g id="edge1" class="edge">
<title>project_notes:w&#45;&gt;projects:e</title>
<path fill="none" stroke="#000000" d="M799.0707,-530.3936C764.2282,-544.4031 775.7322,-610.8185 728.5,-610.8185"/>
<polygon fill="#000000" stroke="#000000" points="805.6244,-529.2241 814.1325,-531.3626 809.5622,-528.5213 813.5,-527.8185 813.5,-527.8185 813.5,-527.8185 809.5622,-528.5213 812.8675,-524.2745 805.6244,-529.2241 805.6244,-529.2241"/>
<ellipse fill="none" stroke="#000000" cx="802.4742" cy="-529.7863" rx="3.2" ry="3.2"/>
</g>
<!-- business_partners -->
<g id="node4" class="node">
<title>business_partners</title>
<g id="a_node4"><a xlink:href="../../tables/business_partners.html" xlink:title="business_partners" target="_top">
<polygon fill="#ffffff" stroke="transparent" points="8,-120.3185 8,-331.3185 212,-331.3185 212,-120.3185 8,-120.3185"/>
<polygon fill="#f5f5f5" stroke="transparent" points="8,-301.8185 8,-330.8185 212,-330.8185 212,-301.8185 8,-301.8185"/>
<polygon fill="none" stroke="#000000" points="8,-301.8185 8,-330.8185 212,-330.8185 212,-301.8185 8,-301.8185"/>
<text text-anchor="start" x="13" y="-308.9185" font-family="Helvetica,sans-Serif" font-weight="bold" font-size="16.00" fill="#000000">business_partners</text>
<text text-anchor="start" x="163.7136" y="-311.4185" font-family="Helvetica,sans-Serif" font-size="16.00" fill="#000000">[table]</text>
<polygon fill="none" stroke="#000000" points="8,-279.8185 8,-301.8185 212,-301.8185 212,-279.8185 8,-279.8185"/>
<image xlink:href="../../images/primaryKeys.png" width="11px" height="12px" preserveAspectRatio="xMinYMin meet" x="13" y="-296.819"/>
<text text-anchor="start" x="44" y="-282.4185" font-family="Helvetica,sans-Serif" font-size="16.00" fill="#000000">id</text>
<polygon fill="#ffffff" stroke="transparent" points="8,-257.8185 8,-279.8185 212,-279.8185 212,-257.8185 8,-257.8185"/>
<polygon fill="none" stroke="#000000" points="8,-257.8185 8,-279.8185 212,-279.8185 212,-257.8185 8,-257.8185"/>
<text text-anchor="start" x="44" y="-260.4185" font-family="Helvetica,sans-Serif" font-size="16.00" fill="#000000">name</text>
<polygon fill="#ffffff" stroke="transparent" points="8,-235.8185 8,-257.8185 212,-257.8185 212,-235.8185 8,-235.8185"/>
<polygon fill="none" stroke="#000000" points="8,-235.8185 8,-257.8185 212,-257.8185 212,-235.8185 8,-235.8185"/>
<text text-anchor="start" x="44" y="-238.4185" font-family="Helvetica,sans-Serif" font-size="16.00" fill="#000000">customer</text>
<polygon fill="#ffffff" stroke="transparent" points="8,-213.8185 8,-235.8185 212,-235.8185 212,-213.8185 8,-213.8185"/>
<polygon fill="none" stroke="#000000" points="8,-213.8185 8,-235.8185 212,-235.8185 212,-213.8185 8,-213.8185"/>
<text text-anchor="start" x="44" y="-216.4185" font-family="Helvetica,sans-Serif" font-size="16.00" fill="#000000">supplier</text>
<polygon fill="#ffffff" stroke="transparent" points="8,-191.8185 8,-213.8185 212,-213.8185 212,-191.8185 8,-191.8185"/>
<polygon fill="none" stroke="#000000" points="8,-191.8185 8,-213.8185 212,-213.8185 212,-191.8185 8,-191.8185"/>
<text text-anchor="start" x="44" y="-194.4185" font-family="Helvetica,sans-Serif" font-size="16.00" fill="#000000">frozen</text>
<polygon fill="#ffffff" stroke="transparent" points="8,-169.8185 8,-191.8185 212,-191.8185 212,-169.8185 8,-169.8185"/>
<polygon fill="none" stroke="#000000" points="8,-169.8185 8,-191.8185 212,-191.8185 212,-169.8185 8,-169.8185"/>
<text text-anchor="start" x="44" y="-172.4185" font-family="Helvetica,sans-Serif" font-size="16.00" fill="#000000">active</text>
<polygon fill="none" stroke="#000000" points="8,-144.8185 8,-169.8185 212,-169.8185 212,-144.8185 8,-144.8185"/>
<text text-anchor="start" x="11" y="-152.4185" font-family="Helvetica,sans-Serif" font-size="16.00" fill="#000000">...</text>
<polygon fill="#ffffff" stroke="transparent" points="8,-119.8185 8,-144.8185 76,-144.8185 76,-119.8185 8,-119.8185"/>
<polygon fill="none" stroke="#000000" points="8,-119.8185 8,-144.8185 76,-144.8185 76,-119.8185 8,-119.8185"/>
<text text-anchor="start" x="11" y="-127.4185" font-family="Helvetica,sans-Serif" font-size="16.00" fill="#000000"> &#160;</text>
<polygon fill="#ffffff" stroke="transparent" points="76,-119.8185 76,-144.8185 156,-144.8185 156,-119.8185 76,-119.8185"/>
<polygon fill="none" stroke="#000000" points="76,-119.8185 76,-144.8185 156,-144.8185 156,-119.8185 76,-119.8185"/>
<text text-anchor="start" x="105.888" y="-127.4185" font-family="Helvetica,sans-Serif" font-size="16.00" fill="#000000">3 rows</text>
<polygon fill="#ffffff" stroke="transparent" points="156,-119.8185 156,-144.8185 212,-144.8185 212,-119.8185 156,-119.8185"/>
<polygon fill="none" stroke="#000000" points="156,-119.8185 156,-144.8185 212,-144.8185 212,-119.8185 156,-119.8185"/>
<text text-anchor="start" x="186.3168" y="-127.4185" font-family="Helvetica,sans-Serif" font-size="16.00" fill="#000000">3 &gt;</text>
</a>
</g>
</g>
<!-- projects&#45;&gt;business_partners -->
<g id="edge3" class="edge">
<title>projects:w&#45;&gt;business_partners:e</title>
<path fill="none" stroke="#000000" d="M249.1485,-458.2835C198.9627,-437.136 285.2413,-290.8185 212,-290.8185"/>
<polygon fill="#000000" stroke="#000000" points="255.622,-459.4269 262.8738,-464.3637 259.561,-460.1227 263.5,-460.8185 263.5,-460.8185 263.5,-460.8185 259.561,-460.1227 264.1262,-457.2734 255.622,-459.4269 255.622,-459.4269"/>
<ellipse fill="none" stroke="#000000" cx="252.4707" cy="-458.8703" rx="3.2" ry="3.2"/>
</g>
<!-- project_tags -->
<g id="node3" class="node">
<title>project_tags</title>
<g id="a_node3"><a xlink:href="../../tables/project_tags.html" xlink:title="project_tags" target="_top">
<polygon fill="#ffffff" stroke="transparent" points="818.5,-611.3185 818.5,-734.3185 972.5,-734.3185 972.5,-611.3185 818.5,-611.3185"/>
<polygon fill="#f5f5f5" stroke="transparent" points="818.5,-704.8185 818.5,-733.8185 972.5,-733.8185 972.5,-704.8185 818.5,-704.8185"/>
<polygon fill="none" stroke="#000000" points="818.5,-704.8185 818.5,-733.8185 972.5,-733.8185 972.5,-704.8185 818.5,-704.8185"/>
<text text-anchor="start" x="823.5" y="-711.9185" font-family="Helvetica,sans-Serif" font-weight="bold" font-size="16.00" fill="#000000">project_tags</text>
<text text-anchor="start" x="924.2136" y="-714.4185" font-family="Helvetica,sans-Serif" font-size="16.00" fill="#000000">[table]</text>
<polygon fill="#ffffff" stroke="transparent" points="818.5,-682.8185 818.5,-704.8185 972.5,-704.8185 972.5,-682.8185 818.5,-682.8185"/>
<polygon fill="none" stroke="#000000" points="818.5,-682.8185 818.5,-704.8185 972.5,-704.8185 972.5,-682.8185 818.5,-682.8185"/>
<image xlink:href="../../images/foreignKeys.png" width="11px" height="12px" preserveAspectRatio="xMinYMin meet" x="823.5" y="-699.819"/>
<text text-anchor="start" x="854.5" y="-685.4185" font-family="Helvetica,sans-Serif" font-size="16.00" fill="#000000">project_id</text>
<polygon fill="#ffffff" stroke="transparent" points="818.5,-660.8185 818.5,-682.8185 972.5,-682.8185 972.5,-660.8185 818.5,-660.8185"/>
<polygon fill="none" stroke="#000000" points="818.5,-660.8185 818.5,-682.8185 972.5,-682.8185 972.5,-660.8185 818.5,-660.8185"/>
<image xlink:href="../../images/foreignKeys.png" width="11px" height="12px" preserveAspectRatio="xMinYMin meet" x="823.5" y="-677.819"/>
<text text-anchor="start" x="854.5" y="-663.4185" font-family="Helvetica,sans-Serif" font-size="16.00" fill="#000000">tag_id</text>
<polygon fill="none" stroke="#000000" points="818.5,-635.8185 818.5,-660.8185 972.5,-660.8185 972.5,-635.8185 818.5,-635.8185"/>
<text text-anchor="start" x="821.5" y="-643.4185" font-family="Helvetica,sans-Serif" font-size="16.00" fill="#000000">...</text>
<polygon fill="#ffffff" stroke="transparent" points="818.5,-610.8185 818.5,-635.8185 875.5,-635.8185 875.5,-610.8185 818.5,-610.8185"/>
<polygon fill="none" stroke="#000000" points="818.5,-610.8185 818.5,-635.8185 875.5,-635.8185 875.5,-610.8185 818.5,-610.8185"/>
<text text-anchor="start" x="821.5" y="-618.4185" font-family="Helvetica,sans-Serif" font-size="16.00" fill="#000000">&lt; 2</text>
<polygon fill="#ffffff" stroke="transparent" points="875.5,-610.8185 875.5,-635.8185 943.5,-635.8185 943.5,-610.8185 875.5,-610.8185"/>
<polygon fill="none" stroke="#000000" points="875.5,-610.8185 875.5,-635.8185 943.5,-635.8185 943.5,-610.8185 875.5,-610.8185"/>
<text text-anchor="start" x="893.388" y="-618.4185" font-family="Helvetica,sans-Serif" font-size="16.00" fill="#000000">0 rows</text>
<polygon fill="#ffffff" stroke="transparent" points="943.5,-610.8185 943.5,-635.8185 972.5,-635.8185 972.5,-610.8185 943.5,-610.8185"/>
<polygon fill="none" stroke="#000000" points="943.5,-610.8185 943.5,-635.8185 972.5,-635.8185 972.5,-610.8185 943.5,-610.8185"/>
<text text-anchor="start" x="960.6072" y="-618.4185" font-family="Helvetica,sans-Serif" font-size="16.00" fill="#000000"> &#160;</text>
</a>
</g>
</g>
<!-- project_tags&#45;&gt;projects -->
<g id="edge2" class="edge">
<title>project_tags:w&#45;&gt;projects:e</title>
<path fill="none" stroke="#000000" d="M804.0339,-691.424C767.1555,-677.8153 777.3868,-610.8185 728.5,-610.8185"/>
<polygon fill="#000000" stroke="#000000" points="810.6074,-692.5121 817.9121,-697.3702 814.5537,-693.1653 818.5,-693.8185 818.5,-693.8185 818.5,-693.8185 814.5537,-693.1653 819.0879,-690.2669 810.6074,-692.5121 810.6074,-692.5121"/>
<ellipse fill="none" stroke="#000000" cx="807.4504" cy="-691.9895" rx="3.2" ry="3.2"/>
</g>
<!-- timers -->
<g id="node5" class="node">
<title>timers</title>
<g id="a_node5"><a xlink:href="../../tables/timers.html" xlink:title="timers" target="_top">
<polygon fill="#ffffff" stroke="transparent" points="779,-71.3185 779,-326.3185 1012,-326.3185 1012,-71.3185 779,-71.3185"/>
<polygon fill="#f5f5f5" stroke="transparent" points="779.5,-296.8185 779.5,-325.8185 1012.5,-325.8185 1012.5,-296.8185 779.5,-296.8185"/>
<polygon fill="none" stroke="#000000" points="779.5,-296.8185 779.5,-325.8185 1012.5,-325.8185 1012.5,-296.8185 779.5,-296.8185"/>
<text text-anchor="start" x="784.5" y="-303.9185" font-family="Helvetica,sans-Serif" font-weight="bold" font-size="16.00" fill="#000000">timers</text>
<text text-anchor="start" x="963.9272" y="-306.4185" font-family="Helvetica,sans-Serif" font-size="16.00" fill="#000000">[table]</text>
<polygon fill="none" stroke="#000000" points="779.5,-274.8185 779.5,-296.8185 1012.5,-296.8185 1012.5,-274.8185 779.5,-274.8185"/>
<image xlink:href="../../images/primaryKeys.png" width="11px" height="12px" preserveAspectRatio="xMinYMin meet" x="784.5" y="-291.819"/>
<text text-anchor="start" x="799.5" y="-277.4185" font-family="Helvetica,sans-Serif" font-size="16.00" fill="#000000">id</text>
<polygon fill="#ffffff" stroke="transparent" points="779.5,-252.8185 779.5,-274.8185 1012.5,-274.8185 1012.5,-252.8185 779.5,-252.8185"/>
<polygon fill="none" stroke="#000000" points="779.5,-252.8185 779.5,-274.8185 1012.5,-274.8185 1012.5,-252.8185 779.5,-252.8185"/>
<text text-anchor="start" x="799.5" y="-255.4185" font-family="Helvetica,sans-Serif" font-size="16.00" fill="#000000">start_stamp</text>
<polygon fill="#ffffff" stroke="transparent" points="779.5,-230.8185 779.5,-252.8185 1012.5,-252.8185 1012.5,-230.8185 779.5,-230.8185"/>
<polygon fill="none" stroke="#000000" points="779.5,-230.8185 779.5,-252.8185 1012.5,-252.8185 1012.5,-230.8185 779.5,-230.8185"/>
<text text-anchor="start" x="799.5" y="-233.4185" font-family="Helvetica,sans-Serif" font-size="16.00" fill="#000000">end_stamp</text>
<polygon fill="#ffffff" stroke="transparent" points="779.5,-208.8185 779.5,-230.8185 1012.5,-230.8185 1012.5,-208.8185 779.5,-208.8185"/>
<polygon fill="none" stroke="#000000" points="779.5,-208.8185 779.5,-230.8185 1012.5,-230.8185 1012.5,-208.8185 779.5,-208.8185"/>
<text text-anchor="start" x="799.5" y="-211.4185" font-family="Helvetica,sans-Serif" font-size="16.00" fill="#000000">billable</text>
<polygon fill="#ffffff" stroke="transparent" points="779.5,-186.8185 779.5,-208.8185 1012.5,-208.8185 1012.5,-186.8185 779.5,-186.8185"/>
<polygon fill="none" stroke="#000000" points="779.5,-186.8185 779.5,-208.8185 1012.5,-208.8185 1012.5,-186.8185 779.5,-186.8185"/>
<image xlink:href="../../images/foreignKeys.png" width="11px" height="12px" preserveAspectRatio="xMinYMin meet" x="784.5" y="-203.819"/>
<text text-anchor="start" x="799.5" y="-189.4185" font-family="Helvetica,sans-Serif" font-size="16.00" fill="#000000">business_partner_id</text>
<polygon fill="none" stroke="#000000" points="779.5,-164.8185 779.5,-186.8185 1012.5,-186.8185 1012.5,-164.8185 779.5,-164.8185"/>
<image xlink:href="../../images/foreignKeys.png" width="11px" height="12px" preserveAspectRatio="xMinYMin meet" x="784.5" y="-181.819"/>
<text text-anchor="start" x="799.5" y="-167.4185" font-family="Helvetica,sans-Serif" font-size="16.00" fill="#000000">activity_type_id</text>
<polygon fill="#ffffff" stroke="transparent" points="779.5,-142.8185 779.5,-164.8185 1012.5,-164.8185 1012.5,-142.8185 779.5,-142.8185"/>
<polygon fill="none" stroke="#000000" points="779.5,-142.8185 779.5,-164.8185 1012.5,-164.8185 1012.5,-142.8185 779.5,-142.8185"/>
<image xlink:href="../../images/foreignKeys.png" width="11px" height="12px" preserveAspectRatio="xMinYMin meet" x="784.5" y="-159.819"/>
<text text-anchor="start" x="799.5" y="-145.4185" font-family="Helvetica,sans-Serif" font-size="16.00" fill="#000000">project_id</text>
<polygon fill="#ffffff" stroke="transparent" points="779.5,-120.8185 779.5,-142.8185 1012.5,-142.8185 1012.5,-120.8185 779.5,-120.8185"/>
<polygon fill="none" stroke="#000000" points="779.5,-120.8185 779.5,-142.8185 1012.5,-142.8185 1012.5,-120.8185 779.5,-120.8185"/>
<text text-anchor="start" x="799.5" y="-123.4185" font-family="Helvetica,sans-Serif" font-size="16.00" fill="#000000">inserted_at</text>
<polygon fill="none" stroke="#000000" points="779.5,-95.8185 779.5,-120.8185 1012.5,-120.8185 1012.5,-95.8185 779.5,-95.8185"/>
<text text-anchor="start" x="782.5" y="-103.4185" font-family="Helvetica,sans-Serif" font-size="16.00" fill="#000000">...</text>
<polygon fill="#ffffff" stroke="transparent" points="779.5,-70.8185 779.5,-95.8185 860.5,-95.8185 860.5,-70.8185 779.5,-70.8185"/>
<polygon fill="none" stroke="#000000" points="779.5,-70.8185 779.5,-95.8185 860.5,-95.8185 860.5,-70.8185 779.5,-70.8185"/>
<text text-anchor="start" x="782.5" y="-78.4185" font-family="Helvetica,sans-Serif" font-size="16.00" fill="#000000">&lt; 3</text>
<polygon fill="#ffffff" stroke="transparent" points="860.5,-70.8185 860.5,-95.8185 957.5,-95.8185 957.5,-70.8185 860.5,-70.8185"/>
<polygon fill="none" stroke="#000000" points="860.5,-70.8185 860.5,-95.8185 957.5,-95.8185 957.5,-70.8185 860.5,-70.8185"/>
<text text-anchor="start" x="889.5992" y="-78.4185" font-family="Helvetica,sans-Serif" font-size="16.00" fill="#000000">277 rows</text>
<polygon fill="#ffffff" stroke="transparent" points="957.5,-70.8185 957.5,-95.8185 1012.5,-95.8185 1012.5,-70.8185 957.5,-70.8185"/>
<polygon fill="none" stroke="#000000" points="957.5,-70.8185 957.5,-95.8185 1012.5,-95.8185 1012.5,-70.8185 957.5,-70.8185"/>
<text text-anchor="start" x="986.8168" y="-78.4185" font-family="Helvetica,sans-Serif" font-size="16.00" fill="#000000">2 &gt;</text>
</a>
</g>
</g>
<!-- timers&#45;&gt;projects -->
<g id="edge5" class="edge">
<title>timers:w&#45;&gt;projects:e</title>
<path fill="none" stroke="#000000" d="M765.391,-157.4971C692.7793,-200.7469 825.2973,-610.8185 728.5,-610.8185"/>
<polygon fill="#000000" stroke="#000000" points="771.7588,-155.8369 780.4083,-157.3021 775.6294,-154.8277 779.5,-153.8185 779.5,-153.8185 779.5,-153.8185 775.6294,-154.8277 778.5917,-150.335 771.7588,-155.8369 771.7588,-155.8369"/>
<ellipse fill="none" stroke="#000000" cx="768.6623" cy="-156.6443" rx="3.2" ry="3.2"/>
</g>
<!-- timers&#45;&gt;business_partners -->
<g id="edge4" class="edge">
<title>timers:w&#45;&gt;business_partners:e</title>
<path fill="none" stroke="#000000" d="M765.7491,-193.3673C752.2558,-181.2536 761.9834,-147.7392 738,-134.8185 548.2313,-32.5833 423.6969,-3.1873 253,-134.8185 196.2308,-178.5955 283.6879,-290.8185 212,-290.8185"/>
<polygon fill="#000000" stroke="#000000" points="771.8888,-195.3547 778.3913,-201.2436 775.6944,-196.5866 779.5,-197.8185 779.5,-197.8185 779.5,-197.8185 775.6944,-196.5866 780.6087,-194.3935 771.8888,-195.3547 771.8888,-195.3547"/>
<ellipse fill="none" stroke="#000000" cx="768.8444" cy="-194.3692" rx="3.2" ry="3.2"/>
</g>
</g>
</svg>
