<?xml version="1.0" encoding="UTF-8" standalone="no"?>
<!DOCTYPE svg PUBLIC "-//W3C//DTD SVG 1.1//EN"
 "http://www.w3.org/Graphics/SVG/1.1/DTD/svg11.dtd">
<!-- Generated by graphviz version 2.40.1 (20161225.0304)
 -->
<!-- Title: twoDegreesRelationshipsDiagram Pages: 1 -->
<svg width="875pt" height="543pt"
 viewBox="0.00 0.00 875.00 543.33" xmlns="http://www.w3.org/2000/svg" xmlns:xlink="http://www.w3.org/1999/xlink">
<g id="graph0" class="graph" transform="scale(1 1) rotate(0) translate(4 539.3316)">
<title>twoDegreesRelationshipsDiagram</title>
<polygon fill="#ffffff" stroke="transparent" points="-4,4 -4,-539.3316 871,-539.3316 871,4 -4,4"/>
<text text-anchor="middle" x="101.8088" y="-8.8" font-family="Helvetica,sans-Serif" font-size="16.00" fill="#000000">Generated by SchemaSpy</text>
<!-- project_notes -->
<g id="node1" class="node">
<title>project_notes</title>
<g id="a_node1"><a xlink:href="../../tables/project_notes.html" xlink:title="project_notes" target="_top">
<polygon fill="#ffffff" stroke="transparent" points="594,-348.3316 594,-531.3316 859,-531.3316 859,-348.3316 594,-348.3316"/>
<polygon fill="#f5f5f5" stroke="transparent" points="596.5,-499.8316 596.5,-528.8316 857.5,-528.8316 857.5,-499.8316 596.5,-499.8316"/>
<polygon fill="none" stroke="#000000" points="596.5,-499.8316 596.5,-528.8316 857.5,-528.8316 857.5,-499.8316 596.5,-499.8316"/>
<text text-anchor="start" x="601.5" y="-506.9316" font-family="Helvetica,sans-Serif" font-weight="bold" font-size="16.00" fill="#000000">project_notes</text>
<text text-anchor="start" x="808.9272" y="-509.4316" font-family="Helvetica,sans-Serif" font-size="16.00" fill="#000000">[table]</text>
<polygon fill="none" stroke="#000000" points="596.5,-474.8316 596.5,-499.8316 728.5,-499.8316 728.5,-474.8316 596.5,-474.8316"/>
<image xlink:href="../../images/primaryKeys.png" width="11px" height="12px" preserveAspectRatio="xMinYMin meet" x="601.5" y="-493.332"/>
<text text-anchor="start" x="616.5" y="-478.9316" font-family="Helvetica,sans-Serif" font-size="16.00" fill="#000000">id</text>
<polygon fill="none" stroke="#000000" points="728.5,-474.8316 728.5,-499.8316 857.5,-499.8316 857.5,-474.8316 728.5,-474.8316"/>
<text text-anchor="start" x="731.188" y="-482.4316" font-family="Helvetica,sans-Serif" font-size="16.00" fill="#000000">text[2000000000]</text>
<polygon fill="none" stroke="#000000" points="596.5,-449.8316 596.5,-474.8316 728.5,-474.8316 728.5,-449.8316 596.5,-449.8316"/>
<text text-anchor="start" x="616.5" y="-453.9316" font-family="Helvetica,sans-Serif" font-size="16.00" fill="#000000">note</text>
<polygon fill="none" stroke="#000000" points="728.5,-449.8316 728.5,-474.8316 857.5,-474.8316 857.5,-449.8316 728.5,-449.8316"/>
<text text-anchor="start" x="731.188" y="-457.4316" font-family="Helvetica,sans-Serif" font-size="16.00" fill="#000000">text[2000000000]</text>
<polygon fill="#ffffff" stroke="transparent" points="596.5,-424.8316 596.5,-449.8316 728.5,-449.8316 728.5,-424.8316 596.5,-424.8316"/>
<polygon fill="none" stroke="#000000" points="596.5,-424.8316 596.5,-449.8316 728.5,-449.8316 728.5,-424.8316 596.5,-424.8316"/>
<image xlink:href="../../images/foreignKeys.png" width="11px" height="12px" preserveAspectRatio="xMinYMin meet" x="601.5" y="-443.332"/>
<text text-anchor="start" x="616.5" y="-428.9316" font-family="Helvetica,sans-Serif" font-size="16.00" fill="#000000">project_id</text>
<polygon fill="none" stroke="#000000" points="728.5,-424.8316 728.5,-449.8316 857.5,-449.8316 857.5,-424.8316 728.5,-424.8316"/>
<text text-anchor="start" x="731.188" y="-432.4316" font-family="Helvetica,sans-Serif" font-size="16.00" fill="#000000">text[2000000000]</text>
<polygon fill="#ffffff" stroke="transparent" points="596.5,-399.8316 596.5,-424.8316 728.5,-424.8316 728.5,-399.8316 596.5,-399.8316"/>
<polygon fill="none" stroke="#000000" points="596.5,-399.8316 596.5,-424.8316 728.5,-424.8316 728.5,-399.8316 596.5,-399.8316"/>
<text text-anchor="start" x="616.5" y="-403.9316" font-family="Helvetica,sans-Serif" font-size="16.00" fill="#000000">inserted_at</text>
<polygon fill="none" stroke="#000000" points="728.5,-399.8316 728.5,-424.8316 857.5,-424.8316 857.5,-399.8316 728.5,-399.8316"/>
<text text-anchor="start" x="731.188" y="-407.4316" font-family="Helvetica,sans-Serif" font-size="16.00" fill="#000000">text[2000000000]</text>
<polygon fill="#ffffff" stroke="transparent" points="596.5,-374.8316 596.5,-399.8316 728.5,-399.8316 728.5,-374.8316 596.5,-374.8316"/>
<polygon fill="none" stroke="#000000" points="596.5,-374.8316 596.5,-399.8316 728.5,-399.8316 728.5,-374.8316 596.5,-374.8316"/>
<text text-anchor="start" x="616.5" y="-378.9316" font-family="Helvetica,sans-Serif" font-size="16.00" fill="#000000">updated_at</text>
<polygon fill="none" stroke="#000000" points="728.5,-374.8316 728.5,-399.8316 857.5,-399.8316 857.5,-374.8316 728.5,-374.8316"/>
<text text-anchor="start" x="731.188" y="-382.4316" font-family="Helvetica,sans-Serif" font-size="16.00" fill="#000000">text[2000000000]</text>
<polygon fill="#ffffff" stroke="transparent" points="596.5,-349.8316 596.5,-374.8316 649.5,-374.8316 649.5,-349.8316 596.5,-349.8316"/>
<polygon fill="none" stroke="#000000" points="596.5,-349.8316 596.5,-374.8316 649.5,-374.8316 649.5,-349.8316 596.5,-349.8316"/>
<text text-anchor="start" x="599.5" y="-357.4316" font-family="Helvetica,sans-Serif" font-size="16.00" fill="#000000">&lt; 1</text>
<polygon fill="#ffffff" stroke="transparent" points="649.5,-349.8316 649.5,-374.8316 728.5,-374.8316 728.5,-349.8316 649.5,-349.8316"/>
<polygon fill="none" stroke="#000000" points="649.5,-349.8316 649.5,-374.8316 728.5,-374.8316 728.5,-349.8316 649.5,-349.8316"/>
<text text-anchor="start" x="678.388" y="-357.4316" font-family="Helvetica,sans-Serif" font-size="16.00" fill="#000000">0 rows</text>
<polygon fill="#ffffff" stroke="transparent" points="728.5,-349.8316 728.5,-374.8316 857.5,-374.8316 857.5,-349.8316 728.5,-349.8316"/>
<polygon fill="none" stroke="#000000" points="728.5,-349.8316 728.5,-374.8316 857.5,-374.8316 857.5,-349.8316 728.5,-349.8316"/>
<text text-anchor="start" x="831.8168" y="-357.4316" font-family="Helvetica,sans-Serif" font-size="16.00" fill="#000000">0 &gt;</text>
<polygon fill="none" stroke="#000000" stroke-width="2" points="595,-349.3316 595,-530.3316 858,-530.3316 858,-349.3316 595,-349.3316"/>
</a>
</g>
</g>
<!-- projects -->
<g id="node2" class="node">
<title>projects</title>
<g id="a_node2"><a xlink:href="../../tables/projects.html" xlink:title="projects" target="_top">
<polygon fill="#ffffff" stroke="transparent" points="261,-88.3316 261,-365.3316 545,-365.3316 545,-88.3316 261,-88.3316"/>
<polygon fill="#f5f5f5" stroke="transparent" points="261,-335.8316 261,-364.8316 545,-364.8316 545,-335.8316 261,-335.8316"/>
<polygon fill="none" stroke="#000000" points="261,-335.8316 261,-364.8316 545,-364.8316 545,-335.8316 261,-335.8316"/>
<text text-anchor="start" x="266" y="-342.9316" font-family="Helvetica,sans-Serif" font-weight="bold" font-size="16.00" fill="#000000">projects</text>
<text text-anchor="start" x="496.4272" y="-345.4316" font-family="Helvetica,sans-Serif" font-size="16.00" fill="#000000">[table]</text>
<polygon fill="none" stroke="#000000" points="261,-313.8316 261,-335.8316 545,-335.8316 545,-313.8316 261,-313.8316"/>
<image xlink:href="../../images/primaryKeys.png" width="11px" height="12px" preserveAspectRatio="xMinYMin meet" x="266" y="-330.832"/>
<text text-anchor="start" x="281" y="-316.4316" font-family="Helvetica,sans-Serif" font-size="16.00" fill="#000000">id</text>
<polygon fill="#ffffff" stroke="transparent" points="261,-291.8316 261,-313.8316 545,-313.8316 545,-291.8316 261,-291.8316"/>
<polygon fill="none" stroke="#000000" points="261,-291.8316 261,-313.8316 545,-313.8316 545,-291.8316 261,-291.8316"/>
<text text-anchor="start" x="281" y="-294.4316" font-family="Helvetica,sans-Serif" font-size="16.00" fill="#000000">name</text>
<polygon fill="#ffffff" stroke="transparent" points="261,-269.8316 261,-291.8316 545,-291.8316 545,-269.8316 261,-269.8316"/>
<polygon fill="none" stroke="#000000" points="261,-269.8316 261,-291.8316 545,-291.8316 545,-269.8316 261,-269.8316"/>
<text text-anchor="start" x="281" y="-272.4316" font-family="Helvetica,sans-Serif" font-size="16.00" fill="#000000">status</text>
<polygon fill="#ffffff" stroke="transparent" points="261,-247.8316 261,-269.8316 545,-269.8316 545,-247.8316 261,-247.8316"/>
<polygon fill="none" stroke="#000000" points="261,-247.8316 261,-269.8316 545,-269.8316 545,-247.8316 261,-247.8316"/>
<text text-anchor="start" x="281" y="-250.4316" font-family="Helvetica,sans-Serif" font-size="16.00" fill="#000000">project_type</text>
<polygon fill="#ffffff" stroke="transparent" points="261,-225.8316 261,-247.8316 545,-247.8316 545,-225.8316 261,-225.8316"/>
<polygon fill="none" stroke="#000000" points="261,-225.8316 261,-247.8316 545,-247.8316 545,-225.8316 261,-225.8316"/>
<text text-anchor="start" x="281" y="-228.4316" font-family="Helvetica,sans-Serif" font-size="16.00" fill="#000000">priority</text>
<polygon fill="#ffffff" stroke="transparent" points="261,-203.8316 261,-225.8316 545,-225.8316 545,-203.8316 261,-203.8316"/>
<polygon fill="none" stroke="#000000" points="261,-203.8316 261,-225.8316 545,-225.8316 545,-203.8316 261,-203.8316"/>
<image xlink:href="../../images/foreignKeys.png" width="11px" height="12px" preserveAspectRatio="xMinYMin meet" x="266" y="-220.832"/>
<text text-anchor="start" x="281" y="-206.4316" font-family="Helvetica,sans-Serif" font-size="16.00" fill="#000000">business_partner_id</text>
<polygon fill="#ffffff" stroke="transparent" points="261,-181.8316 261,-203.8316 545,-203.8316 545,-181.8316 261,-181.8316"/>
<polygon fill="none" stroke="#000000" points="261,-181.8316 261,-203.8316 545,-203.8316 545,-181.8316 261,-181.8316"/>
<text text-anchor="start" x="281" y="-184.4316" font-family="Helvetica,sans-Serif" font-size="16.00" fill="#000000">billable</text>
<polygon fill="#ffffff" stroke="transparent" points="261,-159.8316 261,-181.8316 545,-181.8316 545,-159.8316 261,-159.8316"/>
<polygon fill="none" stroke="#000000" points="261,-159.8316 261,-181.8316 545,-181.8316 545,-159.8316 261,-159.8316"/>
<text text-anchor="start" x="281" y="-162.4316" font-family="Helvetica,sans-Serif" font-size="16.00" fill="#000000">active</text>
<polygon fill="#ffffff" stroke="transparent" points="261,-137.8316 261,-159.8316 545,-159.8316 545,-137.8316 261,-137.8316"/>
<polygon fill="none" stroke="#000000" points="261,-137.8316 261,-159.8316 545,-159.8316 545,-137.8316 261,-137.8316"/>
<text text-anchor="start" x="281" y="-140.4316" font-family="Helvetica,sans-Serif" font-size="16.00" fill="#000000">inserted_at</text>
<polygon fill="none" stroke="#000000" points="261,-112.8316 261,-137.8316 545,-137.8316 545,-112.8316 261,-112.8316"/>
<text text-anchor="start" x="264" y="-120.4316" font-family="Helvetica,sans-Serif" font-size="16.00" fill="#000000">...</text>
<polygon fill="#ffffff" stroke="transparent" points="261,-87.8316 261,-112.8316 376,-112.8316 376,-87.8316 261,-87.8316"/>
<polygon fill="none" stroke="#000000" points="261,-87.8316 261,-112.8316 376,-112.8316 376,-87.8316 261,-87.8316"/>
<text text-anchor="start" x="264" y="-95.4316" font-family="Helvetica,sans-Serif" font-size="16.00" fill="#000000">&lt; 1</text>
<polygon fill="#ffffff" stroke="transparent" points="376,-87.8316 376,-112.8316 473,-112.8316 473,-87.8316 376,-87.8316"/>
<polygon fill="none" stroke="#000000" points="376,-87.8316 376,-112.8316 473,-112.8316 473,-87.8316 376,-87.8316"/>
<text text-anchor="start" x="422.888" y="-95.4316" font-family="Helvetica,sans-Serif" font-size="16.00" fill="#000000">5 rows</text>
<polygon fill="#ffffff" stroke="transparent" points="473,-87.8316 473,-112.8316 545,-112.8316 545,-87.8316 473,-87.8316"/>
<polygon fill="none" stroke="#000000" points="473,-87.8316 473,-112.8316 545,-112.8316 545,-87.8316 473,-87.8316"/>
<text text-anchor="start" x="519.3168" y="-95.4316" font-family="Helvetica,sans-Serif" font-size="16.00" fill="#000000">3 &gt;</text>
</a>
</g>
</g>
<!-- project_notes&#45;&gt;projects -->
<g id="edge1" class="edge">
<title>project_notes:w&#45;&gt;projects:e</title>
<path fill="none" stroke="#000000" d="M582.2779,-433.1051C553.0659,-413.6714 593.7956,-324.8316 545,-324.8316"/>
<polygon fill="#000000" stroke="#000000" points="588.7612,-434.8039 595.5875,-440.314 592.6306,-435.8177 596.5,-436.8316 596.5,-436.8316 596.5,-436.8316 592.6306,-435.8177 597.4125,-433.3491 588.7612,-434.8039 588.7612,-434.8039"/>
<ellipse fill="none" stroke="#000000" cx="585.6657" cy="-433.9928" rx="3.2" ry="3.2"/>
</g>
<!-- business_partners -->
<g id="node4" class="node">
<title>business_partners</title>
<g id="a_node4"><a xlink:href="../../tables/business_partners.html" xlink:title="business_partners" target="_top">
<polygon fill="#ffffff" stroke="transparent" points="8,-102.3316 8,-181.3316 212,-181.3316 212,-102.3316 8,-102.3316"/>
<polygon fill="#f5f5f5" stroke="transparent" points="8,-151.8316 8,-180.8316 212,-180.8316 212,-151.8316 8,-151.8316"/>
<polygon fill="none" stroke="#000000" points="8,-151.8316 8,-180.8316 212,-180.8316 212,-151.8316 8,-151.8316"/>
<text text-anchor="start" x="13" y="-158.9316" font-family="Helvetica,sans-Serif" font-weight="bold" font-size="16.00" fill="#000000">business_partners</text>
<text text-anchor="start" x="163.7136" y="-161.4316" font-family="Helvetica,sans-Serif" font-size="16.00" fill="#000000">[table]</text>
<polygon fill="none" stroke="#000000" points="8,-126.8316 8,-151.8316 212,-151.8316 212,-126.8316 8,-126.8316"/>
<text text-anchor="start" x="11" y="-134.4316" font-family="Helvetica,sans-Serif" font-size="16.00" fill="#000000">...</text>
<polygon fill="#ffffff" stroke="transparent" points="8,-101.8316 8,-126.8316 76,-126.8316 76,-101.8316 8,-101.8316"/>
<polygon fill="none" stroke="#000000" points="8,-101.8316 8,-126.8316 76,-126.8316 76,-101.8316 8,-101.8316"/>
<text text-anchor="start" x="11" y="-109.4316" font-family="Helvetica,sans-Serif" font-size="16.00" fill="#000000"> &#160;</text>
<polygon fill="#ffffff" stroke="transparent" points="76,-101.8316 76,-126.8316 156,-126.8316 156,-101.8316 76,-101.8316"/>
<polygon fill="none" stroke="#000000" points="76,-101.8316 76,-126.8316 156,-126.8316 156,-101.8316 76,-101.8316"/>
<text text-anchor="start" x="105.888" y="-109.4316" font-family="Helvetica,sans-Serif" font-size="16.00" fill="#000000">4 rows</text>
<polygon fill="#ffffff" stroke="transparent" points="156,-101.8316 156,-126.8316 212,-126.8316 212,-101.8316 156,-101.8316"/>
<polygon fill="none" stroke="#000000" points="156,-101.8316 156,-126.8316 212,-126.8316 212,-101.8316 156,-101.8316"/>
<text text-anchor="start" x="186.3168" y="-109.4316" font-family="Helvetica,sans-Serif" font-size="16.00" fill="#000000">3 &gt;</text>
</a>
</g>
</g>
<!-- projects&#45;&gt;business_partners -->
<g id="edge3" class="edge">
<title>projects:w&#45;&gt;business_partners:e</title>
<path fill="none" stroke="#000000" d="M247.109,-210.0774C228.7102,-193.4392 246.067,-138.8316 212,-138.8316"/>
<polygon fill="#000000" stroke="#000000" points="253.431,-212.2411 259.8343,-218.2376 257.2155,-213.5363 261,-214.8316 261,-214.8316 261,-214.8316 257.2155,-213.5363 262.1657,-211.4255 253.431,-212.2411 253.431,-212.2411"/>
<ellipse fill="none" stroke="#000000" cx="250.4034" cy="-211.2049" rx="3.2" ry="3.2"/>
</g>
<!-- project_tags -->
<g id="node3" class="node">
<title>project_tags</title>
<g id="a_node3"><a xlink:href="../../tables/project_tags.html" xlink:title="project_tags" target="_top">
<polygon fill="#ffffff" stroke="transparent" points="649.5,-248.3316 649.5,-327.3316 803.5,-327.3316 803.5,-248.3316 649.5,-248.3316"/>
<polygon fill="#f5f5f5" stroke="transparent" points="649.5,-297.8316 649.5,-326.8316 803.5,-326.8316 803.5,-297.8316 649.5,-297.8316"/>
<polygon fill="none" stroke="#000000" points="649.5,-297.8316 649.5,-326.8316 803.5,-326.8316 803.5,-297.8316 649.5,-297.8316"/>
<text text-anchor="start" x="654.5" y="-304.9316" font-family="Helvetica,sans-Serif" font-weight="bold" font-size="16.00" fill="#000000">project_tags</text>
<text text-anchor="start" x="755.2136" y="-307.4316" font-family="Helvetica,sans-Serif" font-size="16.00" fill="#000000">[table]</text>
<polygon fill="none" stroke="#000000" points="649.5,-272.8316 649.5,-297.8316 803.5,-297.8316 803.5,-272.8316 649.5,-272.8316"/>
<text text-anchor="start" x="652.5" y="-280.4316" font-family="Helvetica,sans-Serif" font-size="16.00" fill="#000000">...</text>
<polygon fill="#ffffff" stroke="transparent" points="649.5,-247.8316 649.5,-272.8316 706.5,-272.8316 706.5,-247.8316 649.5,-247.8316"/>
<polygon fill="none" stroke="#000000" points="649.5,-247.8316 649.5,-272.8316 706.5,-272.8316 706.5,-247.8316 649.5,-247.8316"/>
<text text-anchor="start" x="652.5" y="-255.4316" font-family="Helvetica,sans-Serif" font-size="16.00" fill="#000000">&lt; 2</text>
<polygon fill="#ffffff" stroke="transparent" points="706.5,-247.8316 706.5,-272.8316 774.5,-272.8316 774.5,-247.8316 706.5,-247.8316"/>
<polygon fill="none" stroke="#000000" points="706.5,-247.8316 706.5,-272.8316 774.5,-272.8316 774.5,-247.8316 706.5,-247.8316"/>
<text text-anchor="start" x="724.388" y="-255.4316" font-family="Helvetica,sans-Serif" font-size="16.00" fill="#000000">0 rows</text>
<polygon fill="#ffffff" stroke="transparent" points="774.5,-247.8316 774.5,-272.8316 803.5,-272.8316 803.5,-247.8316 774.5,-247.8316"/>
<polygon fill="none" stroke="#000000" points="774.5,-247.8316 774.5,-272.8316 803.5,-272.8316 803.5,-247.8316 774.5,-247.8316"/>
<text text-anchor="start" x="791.6072" y="-255.4316" font-family="Helvetica,sans-Serif" font-size="16.00" fill="#000000"> &#160;</text>
</a>
</g>
</g>
<!-- project_tags&#45;&gt;projects -->
<g id="edge2" class="edge">
<title>project_tags:w&#45;&gt;projects:e</title>
<path fill="none" stroke="#000000" d="M635.1515,-286.0726C598.2094,-292.8241 589.4856,-324.8316 545,-324.8316"/>
<polygon fill="#000000" stroke="#000000" points="641.5298,-285.521 649.8102,-288.4182 645.5149,-285.1763 649.5,-284.8316 649.5,-284.8316 649.5,-284.8316 645.5149,-285.1763 649.1898,-281.245 641.5298,-285.521 641.5298,-285.521"/>
<ellipse fill="none" stroke="#000000" cx="638.3417" cy="-285.7967" rx="3.2" ry="3.2"/>
</g>
<!-- timers -->
<g id="node5" class="node">
<title>timers</title>
<g id="a_node5"><a xlink:href="../../tables/timers.html" xlink:title="timers" target="_top">
<polygon fill="#ffffff" stroke="transparent" points="667.5,-68.3316 667.5,-147.3316 785.5,-147.3316 785.5,-68.3316 667.5,-68.3316"/>
<polygon fill="#f5f5f5" stroke="transparent" points="667.5,-117.8316 667.5,-146.8316 785.5,-146.8316 785.5,-117.8316 667.5,-117.8316"/>
<polygon fill="none" stroke="#000000" points="667.5,-117.8316 667.5,-146.8316 785.5,-146.8316 785.5,-117.8316 667.5,-117.8316"/>
<text text-anchor="start" x="672.5" y="-124.9316" font-family="Helvetica,sans-Serif" font-weight="bold" font-size="16.00" fill="#000000">timers</text>
<text text-anchor="start" x="736.9272" y="-127.4316" font-family="Helvetica,sans-Serif" font-size="16.00" fill="#000000">[table]</text>
<polygon fill="none" stroke="#000000" points="667.5,-92.8316 667.5,-117.8316 785.5,-117.8316 785.5,-92.8316 667.5,-92.8316"/>
<text text-anchor="start" x="670.5" y="-100.4316" font-family="Helvetica,sans-Serif" font-size="16.00" fill="#000000">...</text>
<polygon fill="#ffffff" stroke="transparent" points="667.5,-67.8316 667.5,-92.8316 695.5,-92.8316 695.5,-67.8316 667.5,-67.8316"/>
<polygon fill="none" stroke="#000000" points="667.5,-67.8316 667.5,-92.8316 695.5,-92.8316 695.5,-67.8316 667.5,-67.8316"/>
<text text-anchor="start" x="670.1584" y="-75.4316" font-family="Helvetica,sans-Serif" font-size="16.00" fill="#000000">&lt; 3</text>
<polygon fill="#ffffff" stroke="transparent" points="695.5,-67.8316 695.5,-92.8316 757.5,-92.8316 757.5,-67.8316 695.5,-67.8316"/>
<polygon fill="none" stroke="#000000" points="695.5,-67.8316 695.5,-92.8316 757.5,-92.8316 757.5,-67.8316 695.5,-67.8316"/>
<text text-anchor="start" x="698.4968" y="-75.4316" font-family="Helvetica,sans-Serif" font-size="16.00" fill="#000000">65 rows</text>
<polygon fill="#ffffff" stroke="transparent" points="757.5,-67.8316 757.5,-92.8316 785.5,-92.8316 785.5,-67.8316 757.5,-67.8316"/>
<polygon fill="none" stroke="#000000" points="757.5,-67.8316 757.5,-92.8316 785.5,-92.8316 785.5,-67.8316 757.5,-67.8316"/>
<text text-anchor="start" x="760.1584" y="-75.4316" font-family="Helvetica,sans-Serif" font-size="16.00" fill="#000000">2 &gt;</text>
</a>
</g>
</g>
<!-- timers&#45;&gt;projects -->
<g id="edge5" class="edge">
<title>timers:w&#45;&gt;projects:e</title>
<path fill="none" stroke="#000000" d="M652.8326,-106.1103C601.09,-116.0141 616.364,-181.5949 586,-237.8316 565.6916,-275.4445 587.7453,-324.8316 545,-324.8316"/>
<polygon fill="#000000" stroke="#000000" points="659.5302,-105.5265 667.8127,-108.418 663.5151,-105.179 667.5,-104.8316 667.5,-104.8316 667.5,-104.8316 663.5151,-105.179 667.1873,-101.2452 659.5302,-105.5265 659.5302,-105.5265"/>
<ellipse fill="none" stroke="#000000" cx="656.3423" cy="-105.8044" rx="3.2" ry="3.2"/>
</g>
<!-- timers&#45;&gt;business_partners -->
<g id="edge4" class="edge">
<title>timers:w&#45;&gt;business_partners:e</title>
<path fill="none" stroke="#000000" d="M653.0435,-104.2432C612.754,-100.8041 599.7613,-83.2703 553,-77.8316 420.5595,-62.4276 370.6751,-15.1391 253,-77.8316 224.1703,-93.1909 244.6659,-138.8316 212,-138.8316"/>
<polygon fill="#000000" stroke="#000000" points="659.5066,-104.5062 667.3536,-108.4286 663.5033,-104.6689 667.5,-104.8316 667.5,-104.8316 667.5,-104.8316 663.5033,-104.6689 667.6464,-101.2346 659.5066,-104.5062 659.5066,-104.5062"/>
<ellipse fill="none" stroke="#000000" cx="656.3093" cy="-104.376" rx="3.2" ry="3.2"/>
</g>
</g>
</svg>
