<?xml version="1.0" encoding="UTF-8" standalone="no"?>
<!DOCTYPE svg PUBLIC "-//W3C//DTD SVG 1.1//EN"
 "http://www.w3.org/Graphics/SVG/1.1/DTD/svg11.dtd">
<!-- Generated by graphviz version 2.40.1 (20161225.0304)
 -->
<!-- Title: twoDegreesRelationshipsDiagram Pages: 1 -->
<svg width="1162pt" height="798pt"
 viewBox="0.00 0.00 1162.00 798.20" xmlns="http://www.w3.org/2000/svg" xmlns:xlink="http://www.w3.org/1999/xlink">
<g id="graph0" class="graph" transform="scale(1 1) rotate(0) translate(4 794.2)">
<title>twoDegreesRelationshipsDiagram</title>
<polygon fill="#ffffff" stroke="transparent" points="-4,4 -4,-794.2 1158,-794.2 1158,4 -4,4"/>
<text text-anchor="middle" x="101.8088" y="-8.8" font-family="Helvetica,sans-Serif" font-size="16.00" fill="#000000">Generated by SchemaSpy</text>
<!-- business_partner_notes -->
<g id="node1" class="node">
<title>business_partner_notes</title>
<g id="a_node1"><a xlink:href="../../tables/business_partner_notes.html" xlink:title="business_partner_notes" target="_top">
<polygon fill="#ffffff" stroke="transparent" points="371,-707.2 371,-786.2 620,-786.2 620,-707.2 371,-707.2"/>
<polygon fill="#f5f5f5" stroke="transparent" points="371.5,-756.7 371.5,-785.7 620.5,-785.7 620.5,-756.7 371.5,-756.7"/>
<polygon fill="none" stroke="#000000" points="371.5,-756.7 371.5,-785.7 620.5,-785.7 620.5,-756.7 371.5,-756.7"/>
<text text-anchor="start" x="376.5" y="-763.8" font-family="Helvetica,sans-Serif" font-weight="bold" font-size="16.00" fill="#000000">business_partner_notes</text>
<text text-anchor="start" x="572.2136" y="-766.3" font-family="Helvetica,sans-Serif" font-size="16.00" fill="#000000">[table]</text>
<polygon fill="none" stroke="#000000" points="371.5,-731.7 371.5,-756.7 620.5,-756.7 620.5,-731.7 371.5,-731.7"/>
<text text-anchor="start" x="374.5" y="-739.3" font-family="Helvetica,sans-Serif" font-size="16.00" fill="#000000">...</text>
<polygon fill="#ffffff" stroke="transparent" points="371.5,-706.7 371.5,-731.7 476.5,-731.7 476.5,-706.7 371.5,-706.7"/>
<polygon fill="none" stroke="#000000" points="371.5,-706.7 371.5,-731.7 476.5,-731.7 476.5,-706.7 371.5,-706.7"/>
<text text-anchor="start" x="374.5" y="-714.3" font-family="Helvetica,sans-Serif" font-size="16.00" fill="#000000">&lt; 1</text>
<polygon fill="#ffffff" stroke="transparent" points="476.5,-706.7 476.5,-731.7 567.5,-731.7 567.5,-706.7 476.5,-706.7"/>
<polygon fill="none" stroke="#000000" points="476.5,-706.7 476.5,-731.7 567.5,-731.7 567.5,-706.7 476.5,-706.7"/>
<text text-anchor="start" x="517.388" y="-714.3" font-family="Helvetica,sans-Serif" font-size="16.00" fill="#000000">0 rows</text>
<polygon fill="#ffffff" stroke="transparent" points="567.5,-706.7 567.5,-731.7 620.5,-731.7 620.5,-706.7 567.5,-706.7"/>
<polygon fill="none" stroke="#000000" points="567.5,-706.7 567.5,-731.7 620.5,-731.7 620.5,-706.7 567.5,-706.7"/>
<text text-anchor="start" x="608.6072" y="-714.3" font-family="Helvetica,sans-Serif" font-size="16.00" fill="#000000"> &#160;</text>
</a>
</g>
</g>
<!-- business_partners -->
<g id="node2" class="node">
<title>business_partners</title>
<g id="a_node2"><a xlink:href="../../tables/business_partners.html" xlink:title="business_partners" target="_top">
<polygon fill="#ffffff" stroke="transparent" points="8,-453.2 8,-532.2 212,-532.2 212,-453.2 8,-453.2"/>
<polygon fill="#f5f5f5" stroke="transparent" points="8,-502.7 8,-531.7 212,-531.7 212,-502.7 8,-502.7"/>
<polygon fill="none" stroke="#000000" points="8,-502.7 8,-531.7 212,-531.7 212,-502.7 8,-502.7"/>
<text text-anchor="start" x="13" y="-509.8" font-family="Helvetica,sans-Serif" font-weight="bold" font-size="16.00" fill="#000000">business_partners</text>
<text text-anchor="start" x="163.7136" y="-512.3" font-family="Helvetica,sans-Serif" font-size="16.00" fill="#000000">[table]</text>
<polygon fill="none" stroke="#000000" points="8,-477.7 8,-502.7 212,-502.7 212,-477.7 8,-477.7"/>
<text text-anchor="start" x="11" y="-485.3" font-family="Helvetica,sans-Serif" font-size="16.00" fill="#000000">...</text>
<polygon fill="#ffffff" stroke="transparent" points="8,-452.7 8,-477.7 76,-477.7 76,-452.7 8,-452.7"/>
<polygon fill="none" stroke="#000000" points="8,-452.7 8,-477.7 76,-477.7 76,-452.7 8,-452.7"/>
<text text-anchor="start" x="11" y="-460.3" font-family="Helvetica,sans-Serif" font-size="16.00" fill="#000000"> &#160;</text>
<polygon fill="#ffffff" stroke="transparent" points="76,-452.7 76,-477.7 156,-477.7 156,-452.7 76,-452.7"/>
<polygon fill="none" stroke="#000000" points="76,-452.7 76,-477.7 156,-477.7 156,-452.7 76,-452.7"/>
<text text-anchor="start" x="105.888" y="-460.3" font-family="Helvetica,sans-Serif" font-size="16.00" fill="#000000">3 rows</text>
<polygon fill="#ffffff" stroke="transparent" points="156,-452.7 156,-477.7 212,-477.7 212,-452.7 156,-452.7"/>
<polygon fill="none" stroke="#000000" points="156,-452.7 156,-477.7 212,-477.7 212,-452.7 156,-452.7"/>
<text text-anchor="start" x="186.3168" y="-460.3" font-family="Helvetica,sans-Serif" font-size="16.00" fill="#000000">3 &gt;</text>
</a>
</g>
</g>
<!-- business_partner_notes&#45;&gt;business_partners -->
<g id="edge1" class="edge">
<title>business_partner_notes:w&#45;&gt;business_partners:e</title>
<path fill="none" stroke="#000000" d="M357.1091,-743.0305C246.2563,-732.7025 166.0992,-605.3845 130.5081,-536.4209"/>
<polygon fill="#000000" stroke="#000000" points="363.5086,-743.3282 371.3327,-747.2961 367.5043,-743.5141 371.5,-743.7 371.5,-743.7 371.5,-743.7 367.5043,-743.5141 371.6673,-740.1039 363.5086,-743.3282 363.5086,-743.3282"/>
<ellipse fill="none" stroke="#000000" cx="360.3121" cy="-743.1795" rx="3.2" ry="3.2"/>
</g>
<!-- project_notes -->
<g id="node3" class="node">
<title>project_notes</title>
<g id="a_node3"><a xlink:href="../../tables/project_notes.html" xlink:title="project_notes" target="_top">
<polygon fill="#ffffff" stroke="transparent" points="779,-538.2 779,-705.2 943,-705.2 943,-538.2 779,-538.2"/>
<polygon fill="#f5f5f5" stroke="transparent" points="779,-675.7 779,-704.7 943,-704.7 943,-675.7 779,-675.7"/>
<polygon fill="none" stroke="#000000" points="779,-675.7 779,-704.7 943,-704.7 943,-675.7 779,-675.7"/>
<text text-anchor="start" x="784" y="-682.8" font-family="Helvetica,sans-Serif" font-weight="bold" font-size="16.00" fill="#000000">project_notes</text>
<text text-anchor="start" x="894.7136" y="-685.3" font-family="Helvetica,sans-Serif" font-size="16.00" fill="#000000">[table]</text>
<polygon fill="none" stroke="#000000" points="779,-653.7 779,-675.7 943,-675.7 943,-653.7 779,-653.7"/>
<image xlink:href="../../images/primaryKeys.png" width="11px" height="12px" preserveAspectRatio="xMinYMin meet" x="784" y="-670.7"/>
<text text-anchor="start" x="815" y="-656.3" font-family="Helvetica,sans-Serif" font-size="16.00" fill="#000000">id</text>
<polygon fill="#ffffff" stroke="transparent" points="779,-631.7 779,-653.7 943,-653.7 943,-631.7 779,-631.7"/>
<polygon fill="none" stroke="#000000" points="779,-631.7 779,-653.7 943,-653.7 943,-631.7 779,-631.7"/>
<image xlink:href="../../images/foreignKeys.png" width="11px" height="12px" preserveAspectRatio="xMinYMin meet" x="784" y="-648.7"/>
<text text-anchor="start" x="815" y="-634.3" font-family="Helvetica,sans-Serif" font-size="16.00" fill="#000000">project_id</text>
<polygon fill="#ffffff" stroke="transparent" points="779,-609.7 779,-631.7 943,-631.7 943,-609.7 779,-609.7"/>
<polygon fill="none" stroke="#000000" points="779,-609.7 779,-631.7 943,-631.7 943,-609.7 779,-609.7"/>
<text text-anchor="start" x="815" y="-612.3" font-family="Helvetica,sans-Serif" font-size="16.00" fill="#000000">inserted_at</text>
<polygon fill="#ffffff" stroke="transparent" points="779,-587.7 779,-609.7 943,-609.7 943,-587.7 779,-587.7"/>
<polygon fill="none" stroke="#000000" points="779,-587.7 779,-609.7 943,-609.7 943,-587.7 779,-587.7"/>
<text text-anchor="start" x="815" y="-590.3" font-family="Helvetica,sans-Serif" font-size="16.00" fill="#000000">updated_at</text>
<polygon fill="none" stroke="#000000" points="779,-562.7 779,-587.7 943,-587.7 943,-562.7 779,-562.7"/>
<text text-anchor="start" x="782" y="-570.3" font-family="Helvetica,sans-Serif" font-size="16.00" fill="#000000">...</text>
<polygon fill="#ffffff" stroke="transparent" points="779,-537.7 779,-562.7 841,-562.7 841,-537.7 779,-537.7"/>
<polygon fill="none" stroke="#000000" points="779,-537.7 779,-562.7 841,-562.7 841,-537.7 779,-537.7"/>
<text text-anchor="start" x="782" y="-545.3" font-family="Helvetica,sans-Serif" font-size="16.00" fill="#000000">&lt; 1</text>
<polygon fill="#ffffff" stroke="transparent" points="841,-537.7 841,-562.7 911,-562.7 911,-537.7 841,-537.7"/>
<polygon fill="none" stroke="#000000" points="841,-537.7 841,-562.7 911,-562.7 911,-537.7 841,-537.7"/>
<text text-anchor="start" x="860.888" y="-545.3" font-family="Helvetica,sans-Serif" font-size="16.00" fill="#000000">0 rows</text>
<polygon fill="#ffffff" stroke="transparent" points="911,-537.7 911,-562.7 943,-562.7 943,-537.7 911,-537.7"/>
<polygon fill="none" stroke="#000000" points="911,-537.7 911,-562.7 943,-562.7 943,-537.7 911,-537.7"/>
<text text-anchor="start" x="931.1072" y="-545.3" font-family="Helvetica,sans-Serif" font-size="16.00" fill="#000000"> &#160;</text>
</a>
</g>
</g>
<!-- projects -->
<g id="node4" class="node">
<title>projects</title>
<g id="a_node4"><a xlink:href="../../tables/projects.html" xlink:title="projects" target="_top">
<polygon fill="#ffffff" stroke="transparent" points="261,-177.7 261,-685.7 730,-685.7 730,-177.7 261,-177.7"/>
<polygon fill="#f5f5f5" stroke="transparent" points="263.5,-654.7 263.5,-683.7 728.5,-683.7 728.5,-654.7 263.5,-654.7"/>
<polygon fill="none" stroke="#000000" points="263.5,-654.7 263.5,-683.7 728.5,-683.7 728.5,-654.7 263.5,-654.7"/>
<text text-anchor="start" x="268.5" y="-661.8" font-family="Helvetica,sans-Serif" font-weight="bold" font-size="16.00" fill="#000000">projects</text>
<text text-anchor="start" x="679.9272" y="-664.3" font-family="Helvetica,sans-Serif" font-size="16.00" fill="#000000">[table]</text>
<polygon fill="none" stroke="#000000" points="263.5,-629.7 263.5,-654.7 547.5,-654.7 547.5,-629.7 263.5,-629.7"/>
<image xlink:href="../../images/primaryKeys.png" width="11px" height="12px" preserveAspectRatio="xMinYMin meet" x="268.5" y="-648.2"/>
<text text-anchor="start" x="283.5" y="-633.8" font-family="Helvetica,sans-Serif" font-size="16.00" fill="#000000">id</text>
<polygon fill="none" stroke="#000000" points="547.5,-629.7 547.5,-654.7 728.5,-654.7 728.5,-629.7 547.5,-629.7"/>
<text text-anchor="start" x="550.5" y="-637.3" font-family="Helvetica,sans-Serif" font-size="16.00" fill="#000000">text[2000000000]</text>
<polygon fill="#ffffff" stroke="transparent" points="263.5,-604.7 263.5,-629.7 547.5,-629.7 547.5,-604.7 263.5,-604.7"/>
<polygon fill="none" stroke="#000000" points="263.5,-604.7 263.5,-629.7 547.5,-629.7 547.5,-604.7 263.5,-604.7"/>
<text text-anchor="start" x="283.5" y="-608.8" font-family="Helvetica,sans-Serif" font-size="16.00" fill="#000000">name</text>
<polygon fill="none" stroke="#000000" points="547.5,-604.7 547.5,-629.7 728.5,-629.7 728.5,-604.7 547.5,-604.7"/>
<text text-anchor="start" x="550.5" y="-612.3" font-family="Helvetica,sans-Serif" font-size="16.00" fill="#000000">text[2000000000]</text>
<polygon fill="none" stroke="#000000" points="263.5,-579.7 263.5,-604.7 547.5,-604.7 547.5,-579.7 263.5,-579.7"/>
<text text-anchor="start" x="283.5" y="-583.8" font-family="Helvetica,sans-Serif" font-size="16.00" fill="#000000">description</text>
<polygon fill="none" stroke="#000000" points="547.5,-579.7 547.5,-604.7 728.5,-604.7 728.5,-579.7 547.5,-579.7"/>
<text text-anchor="start" x="550.5" y="-587.3" font-family="Helvetica,sans-Serif" font-size="16.00" fill="#000000">text[2000000000]</text>
<polygon fill="#ffffff" stroke="transparent" points="263.5,-554.7 263.5,-579.7 547.5,-579.7 547.5,-554.7 263.5,-554.7"/>
<polygon fill="none" stroke="#000000" points="263.5,-554.7 263.5,-579.7 547.5,-579.7 547.5,-554.7 263.5,-554.7"/>
<text text-anchor="start" x="283.5" y="-558.8" font-family="Helvetica,sans-Serif" font-size="16.00" fill="#000000">status</text>
<polygon fill="none" stroke="#000000" points="547.5,-554.7 547.5,-579.7 728.5,-579.7 728.5,-554.7 547.5,-554.7"/>
<text text-anchor="start" x="550.5" y="-562.3" font-family="Helvetica,sans-Serif" font-size="16.00" fill="#000000">text[2000000000]</text>
<polygon fill="#ffffff" stroke="transparent" points="263.5,-529.7 263.5,-554.7 547.5,-554.7 547.5,-529.7 263.5,-529.7"/>
<polygon fill="none" stroke="#000000" points="263.5,-529.7 263.5,-554.7 547.5,-554.7 547.5,-529.7 263.5,-529.7"/>
<text text-anchor="start" x="283.5" y="-533.8" font-family="Helvetica,sans-Serif" font-size="16.00" fill="#000000">project_type</text>
<polygon fill="none" stroke="#000000" points="547.5,-529.7 547.5,-554.7 728.5,-554.7 728.5,-529.7 547.5,-529.7"/>
<text text-anchor="start" x="550.5" y="-537.3" font-family="Helvetica,sans-Serif" font-size="16.00" fill="#000000">text[2000000000]</text>
<polygon fill="#ffffff" stroke="transparent" points="263.5,-504.7 263.5,-529.7 547.5,-529.7 547.5,-504.7 263.5,-504.7"/>
<polygon fill="none" stroke="#000000" points="263.5,-504.7 263.5,-529.7 547.5,-529.7 547.5,-504.7 263.5,-504.7"/>
<text text-anchor="start" x="283.5" y="-508.8" font-family="Helvetica,sans-Serif" font-size="16.00" fill="#000000">priority</text>
<polygon fill="none" stroke="#000000" points="547.5,-504.7 547.5,-529.7 728.5,-529.7 728.5,-504.7 547.5,-504.7"/>
<text text-anchor="start" x="550.5" y="-512.3" font-family="Helvetica,sans-Serif" font-size="16.00" fill="#000000">text[2000000000]</text>
<polygon fill="#ffffff" stroke="transparent" points="263.5,-479.7 263.5,-504.7 547.5,-504.7 547.5,-479.7 263.5,-479.7"/>
<polygon fill="none" stroke="#000000" points="263.5,-479.7 263.5,-504.7 547.5,-504.7 547.5,-479.7 263.5,-479.7"/>
<image xlink:href="../../images/foreignKeys.png" width="11px" height="12px" preserveAspectRatio="xMinYMin meet" x="268.5" y="-498.2"/>
<text text-anchor="start" x="283.5" y="-483.8" font-family="Helvetica,sans-Serif" font-size="16.00" fill="#000000">business_partner_id</text>
<polygon fill="none" stroke="#000000" points="547.5,-479.7 547.5,-504.7 728.5,-504.7 728.5,-479.7 547.5,-479.7"/>
<text text-anchor="start" x="550.5" y="-487.3" font-family="Helvetica,sans-Serif" font-size="16.00" fill="#000000">text[2000000000]</text>
<polygon fill="none" stroke="#000000" points="263.5,-454.7 263.5,-479.7 547.5,-479.7 547.5,-454.7 263.5,-454.7"/>
<text text-anchor="start" x="283.5" y="-458.8" font-family="Helvetica,sans-Serif" font-size="16.00" fill="#000000">expected_start_date</text>
<polygon fill="none" stroke="#000000" points="547.5,-454.7 547.5,-479.7 728.5,-479.7 728.5,-454.7 547.5,-454.7"/>
<text text-anchor="start" x="550.5" y="-462.3" font-family="Helvetica,sans-Serif" font-size="16.00" fill="#000000">text[2000000000]</text>
<polygon fill="none" stroke="#000000" points="263.5,-429.7 263.5,-454.7 547.5,-454.7 547.5,-429.7 263.5,-429.7"/>
<text text-anchor="start" x="283.5" y="-433.8" font-family="Helvetica,sans-Serif" font-size="16.00" fill="#000000">expected_end_date</text>
<polygon fill="none" stroke="#000000" points="547.5,-429.7 547.5,-454.7 728.5,-454.7 728.5,-429.7 547.5,-429.7"/>
<text text-anchor="start" x="550.5" y="-437.3" font-family="Helvetica,sans-Serif" font-size="16.00" fill="#000000">text[2000000000]</text>
<polygon fill="none" stroke="#000000" points="263.5,-404.7 263.5,-429.7 547.5,-429.7 547.5,-404.7 263.5,-404.7"/>
<text text-anchor="start" x="283.5" y="-408.8" font-family="Helvetica,sans-Serif" font-size="16.00" fill="#000000">actual_start_date</text>
<polygon fill="none" stroke="#000000" points="547.5,-404.7 547.5,-429.7 728.5,-429.7 728.5,-404.7 547.5,-404.7"/>
<text text-anchor="start" x="550.5" y="-412.3" font-family="Helvetica,sans-Serif" font-size="16.00" fill="#000000">text[2000000000]</text>
<polygon fill="none" stroke="#000000" points="263.5,-379.7 263.5,-404.7 547.5,-404.7 547.5,-379.7 263.5,-379.7"/>
<text text-anchor="start" x="283.5" y="-383.8" font-family="Helvetica,sans-Serif" font-size="16.00" fill="#000000">actual_end_date</text>
<polygon fill="none" stroke="#000000" points="547.5,-379.7 547.5,-404.7 728.5,-404.7 728.5,-379.7 547.5,-379.7"/>
<text text-anchor="start" x="550.5" y="-387.3" font-family="Helvetica,sans-Serif" font-size="16.00" fill="#000000">text[2000000000]</text>
<polygon fill="none" stroke="#000000" points="263.5,-354.7 263.5,-379.7 547.5,-379.7 547.5,-354.7 263.5,-354.7"/>
<text text-anchor="start" x="283.5" y="-358.8" font-family="Helvetica,sans-Serif" font-size="16.00" fill="#000000">estimated_duration</text>
<polygon fill="none" stroke="#000000" points="547.5,-354.7 547.5,-379.7 728.5,-379.7 728.5,-354.7 547.5,-354.7"/>
<text text-anchor="start" x="550.5" y="-362.3" font-family="Helvetica,sans-Serif" font-size="16.00" fill="#000000">integer[2000000000]</text>
<polygon fill="none" stroke="#000000" points="263.5,-329.7 263.5,-354.7 547.5,-354.7 547.5,-329.7 263.5,-329.7"/>
<text text-anchor="start" x="283.5" y="-333.8" font-family="Helvetica,sans-Serif" font-size="16.00" fill="#000000">estimated_duration_time_unit</text>
<polygon fill="none" stroke="#000000" points="547.5,-329.7 547.5,-354.7 728.5,-354.7 728.5,-329.7 547.5,-329.7"/>
<text text-anchor="start" x="550.5" y="-337.3" font-family="Helvetica,sans-Serif" font-size="16.00" fill="#000000">text[2000000000]</text>
<polygon fill="#ffffff" stroke="transparent" points="263.5,-304.7 263.5,-329.7 547.5,-329.7 547.5,-304.7 263.5,-304.7"/>
<polygon fill="none" stroke="#000000" points="263.5,-304.7 263.5,-329.7 547.5,-329.7 547.5,-304.7 263.5,-304.7"/>
<text text-anchor="start" x="283.5" y="-308.8" font-family="Helvetica,sans-Serif" font-size="16.00" fill="#000000">billable</text>
<polygon fill="none" stroke="#000000" points="547.5,-304.7 547.5,-329.7 728.5,-329.7 728.5,-304.7 547.5,-304.7"/>
<text text-anchor="start" x="550.5" y="-312.3" font-family="Helvetica,sans-Serif" font-size="16.00" fill="#000000">integer[2000000000]</text>
<polygon fill="none" stroke="#000000" points="263.5,-279.7 263.5,-304.7 547.5,-304.7 547.5,-279.7 263.5,-279.7"/>
<text text-anchor="start" x="283.5" y="-283.8" font-family="Helvetica,sans-Serif" font-size="16.00" fill="#000000">estimated_total_billable_amount</text>
<polygon fill="none" stroke="#000000" points="547.5,-279.7 547.5,-304.7 728.5,-304.7 728.5,-279.7 547.5,-279.7"/>
<text text-anchor="start" x="550.4088" y="-287.3" font-family="Helvetica,sans-Serif" font-size="16.00" fill="#000000">decimal[2000000000,10]</text>
<polygon fill="#ffffff" stroke="transparent" points="263.5,-254.7 263.5,-279.7 547.5,-279.7 547.5,-254.7 263.5,-254.7"/>
<polygon fill="none" stroke="#000000" points="263.5,-254.7 263.5,-279.7 547.5,-279.7 547.5,-254.7 263.5,-254.7"/>
<text text-anchor="start" x="283.5" y="-258.8" font-family="Helvetica,sans-Serif" font-size="16.00" fill="#000000">active</text>
<polygon fill="none" stroke="#000000" points="547.5,-254.7 547.5,-279.7 728.5,-279.7 728.5,-254.7 547.5,-254.7"/>
<text text-anchor="start" x="550.5" y="-262.3" font-family="Helvetica,sans-Serif" font-size="16.00" fill="#000000">integer[2000000000]</text>
<polygon fill="#ffffff" stroke="transparent" points="263.5,-229.7 263.5,-254.7 547.5,-254.7 547.5,-229.7 263.5,-229.7"/>
<polygon fill="none" stroke="#000000" points="263.5,-229.7 263.5,-254.7 547.5,-254.7 547.5,-229.7 263.5,-229.7"/>
<text text-anchor="start" x="283.5" y="-233.8" font-family="Helvetica,sans-Serif" font-size="16.00" fill="#000000">inserted_at</text>
<polygon fill="none" stroke="#000000" points="547.5,-229.7 547.5,-254.7 728.5,-254.7 728.5,-229.7 547.5,-229.7"/>
<text text-anchor="start" x="550.5" y="-237.3" font-family="Helvetica,sans-Serif" font-size="16.00" fill="#000000">text[2000000000]</text>
<polygon fill="none" stroke="#000000" points="263.5,-204.7 263.5,-229.7 547.5,-229.7 547.5,-204.7 263.5,-204.7"/>
<text text-anchor="start" x="283.5" y="-208.8" font-family="Helvetica,sans-Serif" font-size="16.00" fill="#000000">updated_at</text>
<polygon fill="none" stroke="#000000" points="547.5,-204.7 547.5,-229.7 728.5,-229.7 728.5,-204.7 547.5,-204.7"/>
<text text-anchor="start" x="550.5" y="-212.3" font-family="Helvetica,sans-Serif" font-size="16.00" fill="#000000">text[2000000000]</text>
<polygon fill="#ffffff" stroke="transparent" points="263.5,-179.7 263.5,-204.7 388.5,-204.7 388.5,-179.7 263.5,-179.7"/>
<polygon fill="none" stroke="#000000" points="263.5,-179.7 263.5,-204.7 388.5,-204.7 388.5,-179.7 263.5,-179.7"/>
<text text-anchor="start" x="266.5" y="-187.3" font-family="Helvetica,sans-Serif" font-size="16.00" fill="#000000">&lt; 1</text>
<polygon fill="#ffffff" stroke="transparent" points="388.5,-179.7 388.5,-204.7 547.5,-204.7 547.5,-179.7 388.5,-179.7"/>
<polygon fill="none" stroke="#000000" points="388.5,-179.7 388.5,-204.7 547.5,-204.7 547.5,-179.7 388.5,-179.7"/>
<text text-anchor="start" x="488.4936" y="-187.3" font-family="Helvetica,sans-Serif" font-size="16.00" fill="#000000">13 rows</text>
<polygon fill="#ffffff" stroke="transparent" points="547.5,-179.7 547.5,-204.7 728.5,-204.7 728.5,-179.7 547.5,-179.7"/>
<polygon fill="none" stroke="#000000" points="547.5,-179.7 547.5,-204.7 728.5,-204.7 728.5,-179.7 547.5,-179.7"/>
<text text-anchor="start" x="702.8168" y="-187.3" font-family="Helvetica,sans-Serif" font-size="16.00" fill="#000000">3 &gt;</text>
<polygon fill="none" stroke="#000000" stroke-width="2" points="262,-178.7 262,-684.7 729,-684.7 729,-178.7 262,-178.7"/>
</a>
</g>
</g>
<!-- project_notes&#45;&gt;projects -->
<g id="edge2" class="edge">
<title>project_notes:w&#45;&gt;projects:e</title>
<path fill="none" stroke="#000000" d="M764.4203,-642.7C752.5435,-642.7 745.158,-642.7 728.5,-642.7"/>
<polygon fill="#000000" stroke="#000000" points="771,-642.7001 779,-646.3 775,-642.7 779,-642.7 779,-642.7 779,-642.7 775,-642.7 779,-639.1 771,-642.7001 771,-642.7001"/>
<ellipse fill="none" stroke="#000000" cx="767.8" cy="-642.7001" rx="3.2" ry="3.2"/>
</g>
<!-- projects&#45;&gt;business_partners -->
<g id="edge5" class="edge">
<title>projects:w&#45;&gt;business_partners:e</title>
<path fill="none" stroke="#000000" d="M248.8535,-492.7C239.4168,-492.7 229.8018,-492.7 220.258,-492.7"/>
<polygon fill="#000000" stroke="#000000" points="255.5,-492.7001 263.5,-496.3 259.5,-492.7 263.5,-492.7 263.5,-492.7 263.5,-492.7 259.5,-492.7 263.5,-489.1 255.5,-492.7001 255.5,-492.7001"/>
<ellipse fill="none" stroke="#000000" cx="252.3" cy="-492.7001" rx="3.2" ry="3.2"/>
</g>
<!-- project_tags -->
<g id="node5" class="node">
<title>project_tags</title>
<g id="a_node5"><a xlink:href="../../tables/project_tags.html" xlink:title="project_tags" target="_top">
<polygon fill="#ffffff" stroke="transparent" points="992,-400.2 992,-523.2 1146,-523.2 1146,-400.2 992,-400.2"/>
<polygon fill="#f5f5f5" stroke="transparent" points="992,-493.7 992,-522.7 1146,-522.7 1146,-493.7 992,-493.7"/>
<polygon fill="none" stroke="#000000" points="992,-493.7 992,-522.7 1146,-522.7 1146,-493.7 992,-493.7"/>
<text text-anchor="start" x="997" y="-500.8" font-family="Helvetica,sans-Serif" font-weight="bold" font-size="16.00" fill="#000000">project_tags</text>
<text text-anchor="start" x="1097.7136" y="-503.3" font-family="Helvetica,sans-Serif" font-size="16.00" fill="#000000">[table]</text>
<polygon fill="#ffffff" stroke="transparent" points="992,-471.7 992,-493.7 1146,-493.7 1146,-471.7 992,-471.7"/>
<polygon fill="none" stroke="#000000" points="992,-471.7 992,-493.7 1146,-493.7 1146,-471.7 992,-471.7"/>
<image xlink:href="../../images/foreignKeys.png" width="11px" height="12px" preserveAspectRatio="xMinYMin meet" x="997" y="-488.7"/>
<text text-anchor="start" x="1028" y="-474.3" font-family="Helvetica,sans-Serif" font-size="16.00" fill="#000000">project_id</text>
<polygon fill="#ffffff" stroke="transparent" points="992,-449.7 992,-471.7 1146,-471.7 1146,-449.7 992,-449.7"/>
<polygon fill="none" stroke="#000000" points="992,-449.7 992,-471.7 1146,-471.7 1146,-449.7 992,-449.7"/>
<image xlink:href="../../images/foreignKeys.png" width="11px" height="12px" preserveAspectRatio="xMinYMin meet" x="997" y="-466.7"/>
<text text-anchor="start" x="1028" y="-452.3" font-family="Helvetica,sans-Serif" font-size="16.00" fill="#000000">tag_id</text>
<polygon fill="none" stroke="#000000" points="992,-424.7 992,-449.7 1146,-449.7 1146,-424.7 992,-424.7"/>
<text text-anchor="start" x="995" y="-432.3" font-family="Helvetica,sans-Serif" font-size="16.00" fill="#000000">...</text>
<polygon fill="#ffffff" stroke="transparent" points="992,-399.7 992,-424.7 1049,-424.7 1049,-399.7 992,-399.7"/>
<polygon fill="none" stroke="#000000" points="992,-399.7 992,-424.7 1049,-424.7 1049,-399.7 992,-399.7"/>
<text text-anchor="start" x="995" y="-407.3" font-family="Helvetica,sans-Serif" font-size="16.00" fill="#000000">&lt; 2</text>
<polygon fill="#ffffff" stroke="transparent" points="1049,-399.7 1049,-424.7 1117,-424.7 1117,-399.7 1049,-399.7"/>
<polygon fill="none" stroke="#000000" points="1049,-399.7 1049,-424.7 1117,-424.7 1117,-399.7 1049,-399.7"/>
<text text-anchor="start" x="1066.888" y="-407.3" font-family="Helvetica,sans-Serif" font-size="16.00" fill="#000000">0 rows</text>
<polygon fill="#ffffff" stroke="transparent" points="1117,-399.7 1117,-424.7 1146,-424.7 1146,-399.7 1117,-399.7"/>
<polygon fill="none" stroke="#000000" points="1117,-399.7 1117,-424.7 1146,-424.7 1146,-399.7 1117,-399.7"/>
<text text-anchor="start" x="1134.1072" y="-407.3" font-family="Helvetica,sans-Serif" font-size="16.00" fill="#000000"> &#160;</text>
</a>
</g>
</g>
<!-- project_tags&#45;&gt;projects -->
<g id="edge3" class="edge">
<title>project_tags:w&#45;&gt;projects:e</title>
<path fill="none" stroke="#000000" d="M977.4322,-483.8158C927.6439,-489.2537 787.7938,-513.2992 771,-527.7 729.6357,-563.1702 782.9898,-642.7 728.5,-642.7"/>
<polygon fill="#000000" stroke="#000000" points="984.0234,-483.311 992.275,-486.2895 988.0117,-483.0055 992,-482.7 992,-482.7 992,-482.7 988.0117,-483.0055 991.725,-479.1105 984.0234,-483.311 984.0234,-483.311"/>
<ellipse fill="none" stroke="#000000" cx="980.8327" cy="-483.5554" rx="3.2" ry="3.2"/>
</g>
<!-- tags -->
<g id="node6" class="node">
<title>tags</title>
<g id="a_node6"><a xlink:href="../../tables/tags.html" xlink:title="tags" target="_top">
<polygon fill="#ffffff" stroke="transparent" points="805,-397.2 805,-476.2 917,-476.2 917,-397.2 805,-397.2"/>
<polygon fill="#f5f5f5" stroke="transparent" points="805,-446.7 805,-475.7 917,-475.7 917,-446.7 805,-446.7"/>
<polygon fill="none" stroke="#000000" points="805,-446.7 805,-475.7 917,-475.7 917,-446.7 805,-446.7"/>
<text text-anchor="start" x="809.8824" y="-453.8" font-family="Helvetica,sans-Serif" font-weight="bold" font-size="16.00" fill="#000000">tags</text>
<text text-anchor="start" x="868.4272" y="-456.3" font-family="Helvetica,sans-Serif" font-size="16.00" fill="#000000">[table]</text>
<polygon fill="none" stroke="#000000" points="805,-421.7 805,-446.7 917,-446.7 917,-421.7 805,-421.7"/>
<text text-anchor="start" x="808" y="-429.3" font-family="Helvetica,sans-Serif" font-size="16.00" fill="#000000">...</text>
<polygon fill="#ffffff" stroke="transparent" points="805,-396.7 805,-421.7 819,-421.7 819,-396.7 805,-396.7"/>
<polygon fill="none" stroke="#000000" points="805,-396.7 805,-421.7 819,-421.7 819,-396.7 805,-396.7"/>
<text text-anchor="start" x="807.5536" y="-404.3" font-family="Helvetica,sans-Serif" font-size="16.00" fill="#000000"> &#160;</text>
<polygon fill="#ffffff" stroke="transparent" points="819,-396.7 819,-421.7 889,-421.7 889,-396.7 819,-396.7"/>
<polygon fill="none" stroke="#000000" points="819,-396.7 819,-421.7 889,-421.7 889,-396.7 819,-396.7"/>
<text text-anchor="start" x="821.5496" y="-404.3" font-family="Helvetica,sans-Serif" font-size="16.00" fill="#000000">167 rows</text>
<polygon fill="#ffffff" stroke="transparent" points="889,-396.7 889,-421.7 917,-421.7 917,-396.7 889,-396.7"/>
<polygon fill="none" stroke="#000000" points="889,-396.7 889,-421.7 917,-421.7 917,-396.7 889,-396.7"/>
<text text-anchor="start" x="891.6584" y="-404.3" font-family="Helvetica,sans-Serif" font-size="16.00" fill="#000000">3 &gt;</text>
</a>
</g>
</g>
<!-- project_tags&#45;&gt;tags -->
<g id="edge4" class="edge">
<title>project_tags:w&#45;&gt;tags:e</title>
<path fill="none" stroke="#000000" d="M977.4459,-458.9285C954.5134,-452.9217 946.892,-433.7 917,-433.7"/>
<polygon fill="#000000" stroke="#000000" points="984.0586,-459.7333 991.565,-464.2736 988.0293,-460.2167 992,-460.7 992,-460.7 992,-460.7 988.0293,-460.2167 992.435,-457.1264 984.0586,-459.7333 984.0586,-459.7333"/>
<ellipse fill="none" stroke="#000000" cx="980.8821" cy="-459.3466" rx="3.2" ry="3.2"/>
</g>
<!-- timer_notes -->
<g id="node7" class="node">
<title>timer_notes</title>
<g id="a_node7"><a xlink:href="../../tables/timer_notes.html" xlink:title="timer_notes" target="_top">
<polygon fill="#ffffff" stroke="transparent" points="994.5,-149.2 994.5,-228.2 1143.5,-228.2 1143.5,-149.2 994.5,-149.2"/>
<polygon fill="#f5f5f5" stroke="transparent" points="995,-198.7 995,-227.7 1144,-227.7 1144,-198.7 995,-198.7"/>
<polygon fill="none" stroke="#000000" points="995,-198.7 995,-227.7 1144,-227.7 1144,-198.7 995,-198.7"/>
<text text-anchor="start" x="1000" y="-205.8" font-family="Helvetica,sans-Serif" font-weight="bold" font-size="16.00" fill="#000000">timer_notes</text>
<text text-anchor="start" x="1095.7136" y="-208.3" font-family="Helvetica,sans-Serif" font-size="16.00" fill="#000000">[table]</text>
<polygon fill="none" stroke="#000000" points="995,-173.7 995,-198.7 1144,-198.7 1144,-173.7 995,-173.7"/>
<text text-anchor="start" x="998" y="-181.3" font-family="Helvetica,sans-Serif" font-size="16.00" fill="#000000">...</text>
<polygon fill="#ffffff" stroke="transparent" points="995,-148.7 995,-173.7 1045,-173.7 1045,-148.7 995,-148.7"/>
<polygon fill="none" stroke="#000000" points="995,-148.7 995,-173.7 1045,-173.7 1045,-148.7 995,-148.7"/>
<text text-anchor="start" x="998" y="-156.3" font-family="Helvetica,sans-Serif" font-size="16.00" fill="#000000">&lt; 1</text>
<polygon fill="#ffffff" stroke="transparent" points="1045,-148.7 1045,-173.7 1118,-173.7 1118,-148.7 1045,-148.7"/>
<polygon fill="none" stroke="#000000" points="1045,-148.7 1045,-173.7 1118,-173.7 1118,-148.7 1045,-148.7"/>
<text text-anchor="start" x="1058.9936" y="-156.3" font-family="Helvetica,sans-Serif" font-size="16.00" fill="#000000">52 rows</text>
<polygon fill="#ffffff" stroke="transparent" points="1118,-148.7 1118,-173.7 1144,-173.7 1144,-148.7 1118,-148.7"/>
<polygon fill="none" stroke="#000000" points="1118,-148.7 1118,-173.7 1144,-173.7 1144,-148.7 1118,-148.7"/>
<text text-anchor="start" x="1132.1072" y="-156.3" font-family="Helvetica,sans-Serif" font-size="16.00" fill="#000000"> &#160;</text>
</a>
</g>
</g>
<!-- timers -->
<g id="node8" class="node">
<title>timers</title>
<g id="a_node8"><a xlink:href="../../tables/timers.html" xlink:title="timers" target="_top">
<polygon fill="#ffffff" stroke="transparent" points="798,-146.2 798,-225.2 924,-225.2 924,-146.2 798,-146.2"/>
<polygon fill="#f5f5f5" stroke="transparent" points="798,-195.7 798,-224.7 924,-224.7 924,-195.7 798,-195.7"/>
<polygon fill="none" stroke="#000000" points="798,-195.7 798,-224.7 924,-224.7 924,-195.7 798,-195.7"/>
<text text-anchor="start" x="803" y="-202.8" font-family="Helvetica,sans-Serif" font-weight="bold" font-size="16.00" fill="#000000">timers</text>
<text text-anchor="start" x="875.4272" y="-205.3" font-family="Helvetica,sans-Serif" font-size="16.00" fill="#000000">[table]</text>
<polygon fill="none" stroke="#000000" points="798,-170.7 798,-195.7 924,-195.7 924,-170.7 798,-170.7"/>
<text text-anchor="start" x="801" y="-178.3" font-family="Helvetica,sans-Serif" font-size="16.00" fill="#000000">...</text>
<polygon fill="#ffffff" stroke="transparent" points="798,-145.7 798,-170.7 826,-170.7 826,-145.7 798,-145.7"/>
<polygon fill="none" stroke="#000000" points="798,-145.7 798,-170.7 826,-170.7 826,-145.7 798,-145.7"/>
<text text-anchor="start" x="800.6584" y="-153.3" font-family="Helvetica,sans-Serif" font-size="16.00" fill="#000000">&lt; 3</text>
<polygon fill="#ffffff" stroke="transparent" points="826,-145.7 826,-170.7 896,-170.7 896,-145.7 826,-145.7"/>
<polygon fill="none" stroke="#000000" points="826,-145.7 826,-170.7 896,-170.7 896,-145.7 826,-145.7"/>
<text text-anchor="start" x="828.5496" y="-153.3" font-family="Helvetica,sans-Serif" font-size="16.00" fill="#000000">277 rows</text>
<polygon fill="#ffffff" stroke="transparent" points="896,-145.7 896,-170.7 924,-170.7 924,-145.7 896,-145.7"/>
<polygon fill="none" stroke="#000000" points="896,-145.7 896,-170.7 924,-170.7 924,-145.7 896,-145.7"/>
<text text-anchor="start" x="898.6584" y="-153.3" font-family="Helvetica,sans-Serif" font-size="16.00" fill="#000000">2 &gt;</text>
</a>
</g>
</g>
<!-- timer_notes&#45;&gt;timers -->
<g id="edge6" class="edge">
<title>timer_notes:w&#45;&gt;timers:e</title>
<path fill="none" stroke="#000000" d="M980.4465,-185.7C964.3873,-185.7 947.7986,-185.7 932.2812,-185.7"/>
<polygon fill="#000000" stroke="#000000" points="987,-185.7001 995,-189.3 991,-185.7 995,-185.7 995,-185.7 995,-185.7 991,-185.7 995,-182.1 987,-185.7001 987,-185.7001"/>
<ellipse fill="none" stroke="#000000" cx="983.8" cy="-185.7001" rx="3.2" ry="3.2"/>
</g>
<!-- timers&#45;&gt;business_partners -->
<g id="edge10" class="edge">
<title>timers:w&#45;&gt;business_partners:e</title>
<path fill="none" stroke="#000000" d="M775.4344,-171.5493C762.9107,-169.9526 750.1446,-168.5839 738,-167.7 684.2533,-163.7881 298.1308,-138.2513 253,-167.7 156.2023,-230.8624 124.4869,-375.8454 114.4448,-448.9116"/>
<polygon fill="#000000" stroke="#000000" points="782.045,-172.4423 789.491,-177.0808 786.009,-172.9777 789.973,-173.5132 789.973,-173.5132 789.973,-173.5132 786.009,-172.9777 790.4549,-169.9456 782.045,-172.4423 782.045,-172.4423"/>
<ellipse fill="none" stroke="#000000" cx="778.8738" cy="-172.0139" rx="3.2" ry="3.2"/>
</g>
<!-- timers&#45;&gt;projects -->
<g id="edge11" class="edge">
<title>timers:w&#45;&gt;projects:e</title>
<path fill="none" stroke="#000000" d="M830.8005,-242.5814C811.0494,-282.0276 786.1839,-336.3243 771,-386.7 754.3578,-441.9139 786.1675,-642.7 728.5,-642.7"/>
<polygon fill="#000000" stroke="#000000" points="833.7964,-236.6747 840.6257,-231.1684 835.6057,-233.1073 837.4151,-229.54 837.4151,-229.54 837.4151,-229.54 835.6057,-233.1073 834.2045,-227.9115 833.7964,-236.6747 833.7964,-236.6747"/>
<ellipse fill="none" stroke="#000000" cx="832.3489" cy="-239.5286" rx="3.2" ry="3.2"/>
</g>
<!-- activity_types -->
<g id="node10" class="node">
<title>activity_types</title>
<g id="a_node10"><a xlink:href="../../tables/activity_types.html" xlink:title="activity_types" target="_top">
<polygon fill="#ffffff" stroke="transparent" points="413,-50.2 413,-129.2 578,-129.2 578,-50.2 413,-50.2"/>
<polygon fill="#f5f5f5" stroke="transparent" points="413.5,-99.7 413.5,-128.7 578.5,-128.7 578.5,-99.7 413.5,-99.7"/>
<polygon fill="none" stroke="#000000" points="413.5,-99.7 413.5,-128.7 578.5,-128.7 578.5,-99.7 413.5,-99.7"/>
<text text-anchor="start" x="418.5" y="-106.8" font-family="Helvetica,sans-Serif" font-weight="bold" font-size="16.00" fill="#000000">activity_types</text>
<text text-anchor="start" x="530.2136" y="-109.3" font-family="Helvetica,sans-Serif" font-size="16.00" fill="#000000">[table]</text>
<polygon fill="none" stroke="#000000" points="413.5,-74.7 413.5,-99.7 578.5,-99.7 578.5,-74.7 413.5,-74.7"/>
<text text-anchor="start" x="416.5" y="-82.3" font-family="Helvetica,sans-Serif" font-size="16.00" fill="#000000">...</text>
<polygon fill="#ffffff" stroke="transparent" points="413.5,-49.7 413.5,-74.7 462.5,-74.7 462.5,-49.7 413.5,-49.7"/>
<polygon fill="none" stroke="#000000" points="413.5,-49.7 413.5,-74.7 462.5,-74.7 462.5,-49.7 413.5,-49.7"/>
<text text-anchor="start" x="416.5" y="-57.3" font-family="Helvetica,sans-Serif" font-size="16.00" fill="#000000"> &#160;</text>
<polygon fill="#ffffff" stroke="transparent" points="462.5,-49.7 462.5,-74.7 532.5,-74.7 532.5,-49.7 462.5,-49.7"/>
<polygon fill="none" stroke="#000000" points="462.5,-49.7 462.5,-74.7 532.5,-74.7 532.5,-49.7 462.5,-49.7"/>
<text text-anchor="start" x="482.388" y="-57.3" font-family="Helvetica,sans-Serif" font-size="16.00" fill="#000000">2 rows</text>
<polygon fill="#ffffff" stroke="transparent" points="532.5,-49.7 532.5,-74.7 578.5,-74.7 578.5,-49.7 532.5,-49.7"/>
<polygon fill="none" stroke="#000000" points="532.5,-49.7 532.5,-74.7 578.5,-74.7 578.5,-49.7 532.5,-49.7"/>
<text text-anchor="start" x="552.8168" y="-57.3" font-family="Helvetica,sans-Serif" font-size="16.00" fill="#000000">1 &gt;</text>
</a>
</g>
</g>
<!-- timers&#45;&gt;activity_types -->
<g id="edge9" class="edge">
<title>timers:w&#45;&gt;activity_types:e</title>
<path fill="none" stroke="#000000" d="M776.783,-139.5182C721.9709,-113.7131 647.9958,-86.7 578.5,-86.7"/>
<polygon fill="#000000" stroke="#000000" points="782.7311,-142.3862 788.3736,-149.1036 786.3341,-144.1235 789.9371,-145.8608 789.9371,-145.8608 789.9371,-145.8608 786.3341,-144.1235 791.5007,-142.6181 782.7311,-142.3862 782.7311,-142.3862"/>
<ellipse fill="none" stroke="#000000" cx="779.8487" cy="-140.9964" rx="3.2" ry="3.2"/>
</g>
<!-- timer_tags -->
<g id="node9" class="node">
<title>timer_tags</title>
<g id="a_node9"><a xlink:href="../../tables/timer_tags.html" xlink:title="timer_tags" target="_top">
<polygon fill="#ffffff" stroke="transparent" points="1000,-283.2 1000,-362.2 1138,-362.2 1138,-283.2 1000,-283.2"/>
<polygon fill="#f5f5f5" stroke="transparent" points="1000,-332.7 1000,-361.7 1138,-361.7 1138,-332.7 1000,-332.7"/>
<polygon fill="none" stroke="#000000" points="1000,-332.7 1000,-361.7 1138,-361.7 1138,-332.7 1000,-332.7"/>
<text text-anchor="start" x="1005" y="-339.8" font-family="Helvetica,sans-Serif" font-weight="bold" font-size="16.00" fill="#000000">timer_tags</text>
<text text-anchor="start" x="1089.7136" y="-342.3" font-family="Helvetica,sans-Serif" font-size="16.00" fill="#000000">[table]</text>
<polygon fill="none" stroke="#000000" points="1000,-307.7 1000,-332.7 1138,-332.7 1138,-307.7 1000,-307.7"/>
<text text-anchor="start" x="1003" y="-315.3" font-family="Helvetica,sans-Serif" font-size="16.00" fill="#000000">...</text>
<polygon fill="#ffffff" stroke="transparent" points="1000,-282.7 1000,-307.7 1041,-307.7 1041,-282.7 1000,-282.7"/>
<polygon fill="none" stroke="#000000" points="1000,-282.7 1000,-307.7 1041,-307.7 1041,-282.7 1000,-282.7"/>
<text text-anchor="start" x="1003" y="-290.3" font-family="Helvetica,sans-Serif" font-size="16.00" fill="#000000">&lt; 2</text>
<polygon fill="#ffffff" stroke="transparent" points="1041,-282.7 1041,-307.7 1117,-307.7 1117,-282.7 1041,-282.7"/>
<polygon fill="none" stroke="#000000" points="1041,-282.7 1041,-307.7 1117,-307.7 1117,-282.7 1041,-282.7"/>
<text text-anchor="start" x="1049.0992" y="-290.3" font-family="Helvetica,sans-Serif" font-size="16.00" fill="#000000">629 rows</text>
<polygon fill="#ffffff" stroke="transparent" points="1117,-282.7 1117,-307.7 1138,-307.7 1138,-282.7 1117,-282.7"/>
<polygon fill="none" stroke="#000000" points="1117,-282.7 1117,-307.7 1138,-307.7 1138,-282.7 1117,-282.7"/>
<text text-anchor="start" x="1126.1072" y="-290.3" font-family="Helvetica,sans-Serif" font-size="16.00" fill="#000000"> &#160;</text>
</a>
</g>
</g>
<!-- timer_tags&#45;&gt;tags -->
<g id="edge7" class="edge">
<title>timer_tags:w&#45;&gt;tags:e</title>
<path fill="none" stroke="#000000" d="M985.766,-322.1871C943.9594,-338.8584 974.1646,-433.7 917,-433.7"/>
<polygon fill="#000000" stroke="#000000" points="992.1194,-321.077 1000.6197,-323.2463 996.0597,-320.3885 1000,-319.7 1000,-319.7 1000,-319.7 996.0597,-320.3885 999.3803,-316.1537 992.1194,-321.077 992.1194,-321.077"/>
<ellipse fill="none" stroke="#000000" cx="988.9671" cy="-321.6278" rx="3.2" ry="3.2"/>
</g>
<!-- timer_tags&#45;&gt;timers -->
<g id="edge8" class="edge">
<title>timer_tags:w&#45;&gt;timers:e</title>
<path fill="none" stroke="#000000" d="M985.3913,-318.398C939.4073,-310.1763 904.0689,-264.6649 883.0098,-229.206"/>
<polygon fill="#000000" stroke="#000000" points="992.0316,-318.9898 999.6804,-323.2858 996.0158,-319.3449 1000,-319.7 1000,-319.7 1000,-319.7 996.0158,-319.3449 1000.3196,-316.1142 992.0316,-318.9898 992.0316,-318.9898"/>
<ellipse fill="none" stroke="#000000" cx="988.8442" cy="-318.7057" rx="3.2" ry="3.2"/>
</g>
</g>
</svg>
