<?xml version="1.0" encoding="UTF-8" standalone="no"?>
<!DOCTYPE svg PUBLIC "-//W3C//DTD SVG 1.1//EN"
 "http://www.w3.org/Graphics/SVG/1.1/DTD/svg11.dtd">
<!-- Generated by graphviz version 2.40.1 (20161225.0304)
 -->
<!-- Title: twoDegreesRelationshipsDiagram Pages: 1 -->
<svg width="875pt" height="543pt"
 viewBox="0.00 0.00 875.00 543.49" xmlns="http://www.w3.org/2000/svg" xmlns:xlink="http://www.w3.org/1999/xlink">
<g id="graph0" class="graph" transform="scale(1 1) rotate(0) translate(4 539.4944)">
<title>twoDegreesRelationshipsDiagram</title>
<polygon fill="#ffffff" stroke="transparent" points="-4,4 -4,-539.4944 871,-539.4944 871,4 -4,4"/>
<text text-anchor="middle" x="101.8088" y="-8.8" font-family="Helvetica,sans-Serif" font-size="16.00" fill="#000000">Generated by SchemaSpy</text>
<!-- project_notes -->
<g id="node1" class="node">
<title>project_notes</title>
<g id="a_node1"><a xlink:href="../../tables/project_notes.html" xlink:title="project_notes" target="_top">
<polygon fill="#ffffff" stroke="transparent" points="594,-348.4944 594,-531.4944 859,-531.4944 859,-348.4944 594,-348.4944"/>
<polygon fill="#f5f5f5" stroke="transparent" points="596.5,-499.9944 596.5,-528.9944 857.5,-528.9944 857.5,-499.9944 596.5,-499.9944"/>
<polygon fill="none" stroke="#000000" points="596.5,-499.9944 596.5,-528.9944 857.5,-528.9944 857.5,-499.9944 596.5,-499.9944"/>
<text text-anchor="start" x="601.5" y="-507.0944" font-family="Helvetica,sans-Serif" font-weight="bold" font-size="16.00" fill="#000000">project_notes</text>
<text text-anchor="start" x="808.9272" y="-509.5944" font-family="Helvetica,sans-Serif" font-size="16.00" fill="#000000">[table]</text>
<polygon fill="none" stroke="#000000" points="596.5,-474.9944 596.5,-499.9944 728.5,-499.9944 728.5,-474.9944 596.5,-474.9944"/>
<image xlink:href="../../images/primaryKeys.png" width="11px" height="12px" preserveAspectRatio="xMinYMin meet" x="601.5" y="-493.494"/>
<text text-anchor="start" x="616.5" y="-479.0944" font-family="Helvetica,sans-Serif" font-size="16.00" fill="#000000">id</text>
<polygon fill="none" stroke="#000000" points="728.5,-474.9944 728.5,-499.9944 857.5,-499.9944 857.5,-474.9944 728.5,-474.9944"/>
<text text-anchor="start" x="731.188" y="-482.5944" font-family="Helvetica,sans-Serif" font-size="16.00" fill="#000000">text[2000000000]</text>
<polygon fill="none" stroke="#000000" points="596.5,-449.9944 596.5,-474.9944 728.5,-474.9944 728.5,-449.9944 596.5,-449.9944"/>
<text text-anchor="start" x="616.5" y="-454.0944" font-family="Helvetica,sans-Serif" font-size="16.00" fill="#000000">note</text>
<polygon fill="none" stroke="#000000" points="728.5,-449.9944 728.5,-474.9944 857.5,-474.9944 857.5,-449.9944 728.5,-449.9944"/>
<text text-anchor="start" x="731.188" y="-457.5944" font-family="Helvetica,sans-Serif" font-size="16.00" fill="#000000">text[2000000000]</text>
<polygon fill="#ffffff" stroke="transparent" points="596.5,-424.9944 596.5,-449.9944 728.5,-449.9944 728.5,-424.9944 596.5,-424.9944"/>
<polygon fill="none" stroke="#000000" points="596.5,-424.9944 596.5,-449.9944 728.5,-449.9944 728.5,-424.9944 596.5,-424.9944"/>
<image xlink:href="../../images/foreignKeys.png" width="11px" height="12px" preserveAspectRatio="xMinYMin meet" x="601.5" y="-443.494"/>
<text text-anchor="start" x="616.5" y="-429.0944" font-family="Helvetica,sans-Serif" font-size="16.00" fill="#000000">project_id</text>
<polygon fill="none" stroke="#000000" points="728.5,-424.9944 728.5,-449.9944 857.5,-449.9944 857.5,-424.9944 728.5,-424.9944"/>
<text text-anchor="start" x="731.188" y="-432.5944" font-family="Helvetica,sans-Serif" font-size="16.00" fill="#000000">text[2000000000]</text>
<polygon fill="#ffffff" stroke="transparent" points="596.5,-399.9944 596.5,-424.9944 728.5,-424.9944 728.5,-399.9944 596.5,-399.9944"/>
<polygon fill="none" stroke="#000000" points="596.5,-399.9944 596.5,-424.9944 728.5,-424.9944 728.5,-399.9944 596.5,-399.9944"/>
<text text-anchor="start" x="616.5" y="-404.0944" font-family="Helvetica,sans-Serif" font-size="16.00" fill="#000000">inserted_at</text>
<polygon fill="none" stroke="#000000" points="728.5,-399.9944 728.5,-424.9944 857.5,-424.9944 857.5,-399.9944 728.5,-399.9944"/>
<text text-anchor="start" x="731.188" y="-407.5944" font-family="Helvetica,sans-Serif" font-size="16.00" fill="#000000">text[2000000000]</text>
<polygon fill="#ffffff" stroke="transparent" points="596.5,-374.9944 596.5,-399.9944 728.5,-399.9944 728.5,-374.9944 596.5,-374.9944"/>
<polygon fill="none" stroke="#000000" points="596.5,-374.9944 596.5,-399.9944 728.5,-399.9944 728.5,-374.9944 596.5,-374.9944"/>
<text text-anchor="start" x="616.5" y="-379.0944" font-family="Helvetica,sans-Serif" font-size="16.00" fill="#000000">updated_at</text>
<polygon fill="none" stroke="#000000" points="728.5,-374.9944 728.5,-399.9944 857.5,-399.9944 857.5,-374.9944 728.5,-374.9944"/>
<text text-anchor="start" x="731.188" y="-382.5944" font-family="Helvetica,sans-Serif" font-size="16.00" fill="#000000">text[2000000000]</text>
<polygon fill="#ffffff" stroke="transparent" points="596.5,-349.9944 596.5,-374.9944 649.5,-374.9944 649.5,-349.9944 596.5,-349.9944"/>
<polygon fill="none" stroke="#000000" points="596.5,-349.9944 596.5,-374.9944 649.5,-374.9944 649.5,-349.9944 596.5,-349.9944"/>
<text text-anchor="start" x="599.5" y="-357.5944" font-family="Helvetica,sans-Serif" font-size="16.00" fill="#000000">&lt; 1</text>
<polygon fill="#ffffff" stroke="transparent" points="649.5,-349.9944 649.5,-374.9944 728.5,-374.9944 728.5,-349.9944 649.5,-349.9944"/>
<polygon fill="none" stroke="#000000" points="649.5,-349.9944 649.5,-374.9944 728.5,-374.9944 728.5,-349.9944 649.5,-349.9944"/>
<text text-anchor="start" x="678.388" y="-357.5944" font-family="Helvetica,sans-Serif" font-size="16.00" fill="#000000">0 rows</text>
<polygon fill="#ffffff" stroke="transparent" points="728.5,-349.9944 728.5,-374.9944 857.5,-374.9944 857.5,-349.9944 728.5,-349.9944"/>
<polygon fill="none" stroke="#000000" points="728.5,-349.9944 728.5,-374.9944 857.5,-374.9944 857.5,-349.9944 728.5,-349.9944"/>
<text text-anchor="start" x="831.8168" y="-357.5944" font-family="Helvetica,sans-Serif" font-size="16.00" fill="#000000">0 &gt;</text>
<polygon fill="none" stroke="#000000" stroke-width="2" points="595,-349.4944 595,-530.4944 858,-530.4944 858,-349.4944 595,-349.4944"/>
</a>
</g>
</g>
<!-- projects -->
<g id="node2" class="node">
<title>projects</title>
<g id="a_node2"><a xlink:href="../../tables/projects.html" xlink:title="projects" target="_top">
<polygon fill="#ffffff" stroke="transparent" points="261,-88.4944 261,-365.4944 545,-365.4944 545,-88.4944 261,-88.4944"/>
<polygon fill="#f5f5f5" stroke="transparent" points="261,-335.9944 261,-364.9944 545,-364.9944 545,-335.9944 261,-335.9944"/>
<polygon fill="none" stroke="#000000" points="261,-335.9944 261,-364.9944 545,-364.9944 545,-335.9944 261,-335.9944"/>
<text text-anchor="start" x="266" y="-343.0944" font-family="Helvetica,sans-Serif" font-weight="bold" font-size="16.00" fill="#000000">projects</text>
<text text-anchor="start" x="496.4272" y="-345.5944" font-family="Helvetica,sans-Serif" font-size="16.00" fill="#000000">[table]</text>
<polygon fill="none" stroke="#000000" points="261,-313.9944 261,-335.9944 545,-335.9944 545,-313.9944 261,-313.9944"/>
<image xlink:href="../../images/primaryKeys.png" width="11px" height="12px" preserveAspectRatio="xMinYMin meet" x="266" y="-330.994"/>
<text text-anchor="start" x="281" y="-316.5944" font-family="Helvetica,sans-Serif" font-size="16.00" fill="#000000">id</text>
<polygon fill="#ffffff" stroke="transparent" points="261,-291.9944 261,-313.9944 545,-313.9944 545,-291.9944 261,-291.9944"/>
<polygon fill="none" stroke="#000000" points="261,-291.9944 261,-313.9944 545,-313.9944 545,-291.9944 261,-291.9944"/>
<text text-anchor="start" x="281" y="-294.5944" font-family="Helvetica,sans-Serif" font-size="16.00" fill="#000000">name</text>
<polygon fill="#ffffff" stroke="transparent" points="261,-269.9944 261,-291.9944 545,-291.9944 545,-269.9944 261,-269.9944"/>
<polygon fill="none" stroke="#000000" points="261,-269.9944 261,-291.9944 545,-291.9944 545,-269.9944 261,-269.9944"/>
<text text-anchor="start" x="281" y="-272.5944" font-family="Helvetica,sans-Serif" font-size="16.00" fill="#000000">status</text>
<polygon fill="#ffffff" stroke="transparent" points="261,-247.9944 261,-269.9944 545,-269.9944 545,-247.9944 261,-247.9944"/>
<polygon fill="none" stroke="#000000" points="261,-247.9944 261,-269.9944 545,-269.9944 545,-247.9944 261,-247.9944"/>
<text text-anchor="start" x="281" y="-250.5944" font-family="Helvetica,sans-Serif" font-size="16.00" fill="#000000">project_type</text>
<polygon fill="#ffffff" stroke="transparent" points="261,-225.9944 261,-247.9944 545,-247.9944 545,-225.9944 261,-225.9944"/>
<polygon fill="none" stroke="#000000" points="261,-225.9944 261,-247.9944 545,-247.9944 545,-225.9944 261,-225.9944"/>
<text text-anchor="start" x="281" y="-228.5944" font-family="Helvetica,sans-Serif" font-size="16.00" fill="#000000">priority</text>
<polygon fill="#ffffff" stroke="transparent" points="261,-203.9944 261,-225.9944 545,-225.9944 545,-203.9944 261,-203.9944"/>
<polygon fill="none" stroke="#000000" points="261,-203.9944 261,-225.9944 545,-225.9944 545,-203.9944 261,-203.9944"/>
<image xlink:href="../../images/foreignKeys.png" width="11px" height="12px" preserveAspectRatio="xMinYMin meet" x="266" y="-220.994"/>
<text text-anchor="start" x="281" y="-206.5944" font-family="Helvetica,sans-Serif" font-size="16.00" fill="#000000">business_partner_id</text>
<polygon fill="#ffffff" stroke="transparent" points="261,-181.9944 261,-203.9944 545,-203.9944 545,-181.9944 261,-181.9944"/>
<polygon fill="none" stroke="#000000" points="261,-181.9944 261,-203.9944 545,-203.9944 545,-181.9944 261,-181.9944"/>
<text text-anchor="start" x="281" y="-184.5944" font-family="Helvetica,sans-Serif" font-size="16.00" fill="#000000">billable</text>
<polygon fill="#ffffff" stroke="transparent" points="261,-159.9944 261,-181.9944 545,-181.9944 545,-159.9944 261,-159.9944"/>
<polygon fill="none" stroke="#000000" points="261,-159.9944 261,-181.9944 545,-181.9944 545,-159.9944 261,-159.9944"/>
<text text-anchor="start" x="281" y="-162.5944" font-family="Helvetica,sans-Serif" font-size="16.00" fill="#000000">active</text>
<polygon fill="#ffffff" stroke="transparent" points="261,-137.9944 261,-159.9944 545,-159.9944 545,-137.9944 261,-137.9944"/>
<polygon fill="none" stroke="#000000" points="261,-137.9944 261,-159.9944 545,-159.9944 545,-137.9944 261,-137.9944"/>
<text text-anchor="start" x="281" y="-140.5944" font-family="Helvetica,sans-Serif" font-size="16.00" fill="#000000">inserted_at</text>
<polygon fill="none" stroke="#000000" points="261,-112.9944 261,-137.9944 545,-137.9944 545,-112.9944 261,-112.9944"/>
<text text-anchor="start" x="264" y="-120.5944" font-family="Helvetica,sans-Serif" font-size="16.00" fill="#000000">...</text>
<polygon fill="#ffffff" stroke="transparent" points="261,-87.9944 261,-112.9944 372,-112.9944 372,-87.9944 261,-87.9944"/>
<polygon fill="none" stroke="#000000" points="261,-87.9944 261,-112.9944 372,-112.9944 372,-87.9944 261,-87.9944"/>
<text text-anchor="start" x="264" y="-95.5944" font-family="Helvetica,sans-Serif" font-size="16.00" fill="#000000">&lt; 1</text>
<polygon fill="#ffffff" stroke="transparent" points="372,-87.9944 372,-112.9944 475,-112.9944 475,-87.9944 372,-87.9944"/>
<polygon fill="none" stroke="#000000" points="372,-87.9944 372,-112.9944 475,-112.9944 475,-87.9944 372,-87.9944"/>
<text text-anchor="start" x="415.9936" y="-95.5944" font-family="Helvetica,sans-Serif" font-size="16.00" fill="#000000">13 rows</text>
<polygon fill="#ffffff" stroke="transparent" points="475,-87.9944 475,-112.9944 545,-112.9944 545,-87.9944 475,-87.9944"/>
<polygon fill="none" stroke="#000000" points="475,-87.9944 475,-112.9944 545,-112.9944 545,-87.9944 475,-87.9944"/>
<text text-anchor="start" x="519.3168" y="-95.5944" font-family="Helvetica,sans-Serif" font-size="16.00" fill="#000000">3 &gt;</text>
</a>
</g>
</g>
<!-- project_notes&#45;&gt;projects -->
<g id="edge1" class="edge">
<title>project_notes:w&#45;&gt;projects:e</title>
<path fill="none" stroke="#000000" d="M582.2779,-433.2679C553.0659,-413.8342 593.7956,-324.9944 545,-324.9944"/>
<polygon fill="#000000" stroke="#000000" points="588.7612,-434.9667 595.5875,-440.4768 592.6306,-435.9805 596.5,-436.9944 596.5,-436.9944 596.5,-436.9944 592.6306,-435.9805 597.4125,-433.5119 588.7612,-434.9667 588.7612,-434.9667"/>
<ellipse fill="none" stroke="#000000" cx="585.6657" cy="-434.1556" rx="3.2" ry="3.2"/>
</g>
<!-- business_partners -->
<g id="node4" class="node">
<title>business_partners</title>
<g id="a_node4"><a xlink:href="../../tables/business_partners.html" xlink:title="business_partners" target="_top">
<polygon fill="#ffffff" stroke="transparent" points="8,-102.4944 8,-181.4944 212,-181.4944 212,-102.4944 8,-102.4944"/>
<polygon fill="#f5f5f5" stroke="transparent" points="8,-151.9944 8,-180.9944 212,-180.9944 212,-151.9944 8,-151.9944"/>
<polygon fill="none" stroke="#000000" points="8,-151.9944 8,-180.9944 212,-180.9944 212,-151.9944 8,-151.9944"/>
<text text-anchor="start" x="13" y="-159.0944" font-family="Helvetica,sans-Serif" font-weight="bold" font-size="16.00" fill="#000000">business_partners</text>
<text text-anchor="start" x="163.7136" y="-161.5944" font-family="Helvetica,sans-Serif" font-size="16.00" fill="#000000">[table]</text>
<polygon fill="none" stroke="#000000" points="8,-126.9944 8,-151.9944 212,-151.9944 212,-126.9944 8,-126.9944"/>
<text text-anchor="start" x="11" y="-134.5944" font-family="Helvetica,sans-Serif" font-size="16.00" fill="#000000">...</text>
<polygon fill="#ffffff" stroke="transparent" points="8,-101.9944 8,-126.9944 76,-126.9944 76,-101.9944 8,-101.9944"/>
<polygon fill="none" stroke="#000000" points="8,-101.9944 8,-126.9944 76,-126.9944 76,-101.9944 8,-101.9944"/>
<text text-anchor="start" x="11" y="-109.5944" font-family="Helvetica,sans-Serif" font-size="16.00" fill="#000000"> &#160;</text>
<polygon fill="#ffffff" stroke="transparent" points="76,-101.9944 76,-126.9944 156,-126.9944 156,-101.9944 76,-101.9944"/>
<polygon fill="none" stroke="#000000" points="76,-101.9944 76,-126.9944 156,-126.9944 156,-101.9944 76,-101.9944"/>
<text text-anchor="start" x="105.888" y="-109.5944" font-family="Helvetica,sans-Serif" font-size="16.00" fill="#000000">3 rows</text>
<polygon fill="#ffffff" stroke="transparent" points="156,-101.9944 156,-126.9944 212,-126.9944 212,-101.9944 156,-101.9944"/>
<polygon fill="none" stroke="#000000" points="156,-101.9944 156,-126.9944 212,-126.9944 212,-101.9944 156,-101.9944"/>
<text text-anchor="start" x="186.3168" y="-109.5944" font-family="Helvetica,sans-Serif" font-size="16.00" fill="#000000">3 &gt;</text>
</a>
</g>
</g>
<!-- projects&#45;&gt;business_partners -->
<g id="edge3" class="edge">
<title>projects:w&#45;&gt;business_partners:e</title>
<path fill="none" stroke="#000000" d="M247.109,-210.2402C228.7102,-193.602 246.067,-138.9944 212,-138.9944"/>
<polygon fill="#000000" stroke="#000000" points="253.431,-212.4039 259.8343,-218.4004 257.2155,-213.6991 261,-214.9944 261,-214.9944 261,-214.9944 257.2155,-213.6991 262.1657,-211.5883 253.431,-212.4039 253.431,-212.4039"/>
<ellipse fill="none" stroke="#000000" cx="250.4034" cy="-211.3677" rx="3.2" ry="3.2"/>
</g>
<!-- project_tags -->
<g id="node3" class="node">
<title>project_tags</title>
<g id="a_node3"><a xlink:href="../../tables/project_tags.html" xlink:title="project_tags" target="_top">
<polygon fill="#ffffff" stroke="transparent" points="649.5,-248.4944 649.5,-327.4944 803.5,-327.4944 803.5,-248.4944 649.5,-248.4944"/>
<polygon fill="#f5f5f5" stroke="transparent" points="649.5,-297.9944 649.5,-326.9944 803.5,-326.9944 803.5,-297.9944 649.5,-297.9944"/>
<polygon fill="none" stroke="#000000" points="649.5,-297.9944 649.5,-326.9944 803.5,-326.9944 803.5,-297.9944 649.5,-297.9944"/>
<text text-anchor="start" x="654.5" y="-305.0944" font-family="Helvetica,sans-Serif" font-weight="bold" font-size="16.00" fill="#000000">project_tags</text>
<text text-anchor="start" x="755.2136" y="-307.5944" font-family="Helvetica,sans-Serif" font-size="16.00" fill="#000000">[table]</text>
<polygon fill="none" stroke="#000000" points="649.5,-272.9944 649.5,-297.9944 803.5,-297.9944 803.5,-272.9944 649.5,-272.9944"/>
<text text-anchor="start" x="652.5" y="-280.5944" font-family="Helvetica,sans-Serif" font-size="16.00" fill="#000000">...</text>
<polygon fill="#ffffff" stroke="transparent" points="649.5,-247.9944 649.5,-272.9944 706.5,-272.9944 706.5,-247.9944 649.5,-247.9944"/>
<polygon fill="none" stroke="#000000" points="649.5,-247.9944 649.5,-272.9944 706.5,-272.9944 706.5,-247.9944 649.5,-247.9944"/>
<text text-anchor="start" x="652.5" y="-255.5944" font-family="Helvetica,sans-Serif" font-size="16.00" fill="#000000">&lt; 2</text>
<polygon fill="#ffffff" stroke="transparent" points="706.5,-247.9944 706.5,-272.9944 774.5,-272.9944 774.5,-247.9944 706.5,-247.9944"/>
<polygon fill="none" stroke="#000000" points="706.5,-247.9944 706.5,-272.9944 774.5,-272.9944 774.5,-247.9944 706.5,-247.9944"/>
<text text-anchor="start" x="724.388" y="-255.5944" font-family="Helvetica,sans-Serif" font-size="16.00" fill="#000000">0 rows</text>
<polygon fill="#ffffff" stroke="transparent" points="774.5,-247.9944 774.5,-272.9944 803.5,-272.9944 803.5,-247.9944 774.5,-247.9944"/>
<polygon fill="none" stroke="#000000" points="774.5,-247.9944 774.5,-272.9944 803.5,-272.9944 803.5,-247.9944 774.5,-247.9944"/>
<text text-anchor="start" x="791.6072" y="-255.5944" font-family="Helvetica,sans-Serif" font-size="16.00" fill="#000000"> &#160;</text>
</a>
</g>
</g>
<!-- project_tags&#45;&gt;projects -->
<g id="edge2" class="edge">
<title>project_tags:w&#45;&gt;projects:e</title>
<path fill="none" stroke="#000000" d="M635.1515,-286.2354C598.2094,-292.9869 589.4856,-324.9944 545,-324.9944"/>
<polygon fill="#000000" stroke="#000000" points="641.5298,-285.6838 649.8102,-288.581 645.5149,-285.3391 649.5,-284.9944 649.5,-284.9944 649.5,-284.9944 645.5149,-285.3391 649.1898,-281.4078 641.5298,-285.6838 641.5298,-285.6838"/>
<ellipse fill="none" stroke="#000000" cx="638.3417" cy="-285.9595" rx="3.2" ry="3.2"/>
</g>
<!-- timers -->
<g id="node5" class="node">
<title>timers</title>
<g id="a_node5"><a xlink:href="../../tables/timers.html" xlink:title="timers" target="_top">
<polygon fill="#ffffff" stroke="transparent" points="663.5,-68.4944 663.5,-147.4944 789.5,-147.4944 789.5,-68.4944 663.5,-68.4944"/>
<polygon fill="#f5f5f5" stroke="transparent" points="663.5,-117.9944 663.5,-146.9944 789.5,-146.9944 789.5,-117.9944 663.5,-117.9944"/>
<polygon fill="none" stroke="#000000" points="663.5,-117.9944 663.5,-146.9944 789.5,-146.9944 789.5,-117.9944 663.5,-117.9944"/>
<text text-anchor="start" x="668.5" y="-125.0944" font-family="Helvetica,sans-Serif" font-weight="bold" font-size="16.00" fill="#000000">timers</text>
<text text-anchor="start" x="740.9272" y="-127.5944" font-family="Helvetica,sans-Serif" font-size="16.00" fill="#000000">[table]</text>
<polygon fill="none" stroke="#000000" points="663.5,-92.9944 663.5,-117.9944 789.5,-117.9944 789.5,-92.9944 663.5,-92.9944"/>
<text text-anchor="start" x="666.5" y="-100.5944" font-family="Helvetica,sans-Serif" font-size="16.00" fill="#000000">...</text>
<polygon fill="#ffffff" stroke="transparent" points="663.5,-67.9944 663.5,-92.9944 691.5,-92.9944 691.5,-67.9944 663.5,-67.9944"/>
<polygon fill="none" stroke="#000000" points="663.5,-67.9944 663.5,-92.9944 691.5,-92.9944 691.5,-67.9944 663.5,-67.9944"/>
<text text-anchor="start" x="666.1584" y="-75.5944" font-family="Helvetica,sans-Serif" font-size="16.00" fill="#000000">&lt; 3</text>
<polygon fill="#ffffff" stroke="transparent" points="691.5,-67.9944 691.5,-92.9944 761.5,-92.9944 761.5,-67.9944 691.5,-67.9944"/>
<polygon fill="none" stroke="#000000" points="691.5,-67.9944 691.5,-92.9944 761.5,-92.9944 761.5,-67.9944 691.5,-67.9944"/>
<text text-anchor="start" x="694.0496" y="-75.5944" font-family="Helvetica,sans-Serif" font-size="16.00" fill="#000000">277 rows</text>
<polygon fill="#ffffff" stroke="transparent" points="761.5,-67.9944 761.5,-92.9944 789.5,-92.9944 789.5,-67.9944 761.5,-67.9944"/>
<polygon fill="none" stroke="#000000" points="761.5,-67.9944 761.5,-92.9944 789.5,-92.9944 789.5,-67.9944 761.5,-67.9944"/>
<text text-anchor="start" x="764.1584" y="-75.5944" font-family="Helvetica,sans-Serif" font-size="16.00" fill="#000000">2 &gt;</text>
</a>
</g>
</g>
<!-- timers&#45;&gt;projects -->
<g id="edge5" class="edge">
<title>timers:w&#45;&gt;projects:e</title>
<path fill="none" stroke="#000000" d="M649.0651,-106.2807C598.3069,-116.2411 615.3478,-182.1689 586,-237.9944 566.1096,-275.83 587.7453,-324.9944 545,-324.9944"/>
<polygon fill="#000000" stroke="#000000" points="655.5316,-105.7045 663.8195,-108.5802 659.5158,-105.3494 663.5,-104.9944 663.5,-104.9944 663.5,-104.9944 659.5158,-105.3494 663.1805,-101.4086 655.5316,-105.7045 655.5316,-105.7045"/>
<ellipse fill="none" stroke="#000000" cx="652.3442" cy="-105.9885" rx="3.2" ry="3.2"/>
</g>
<!-- timers&#45;&gt;business_partners -->
<g id="edge4" class="edge">
<title>timers:w&#45;&gt;business_partners:e</title>
<path fill="none" stroke="#000000" d="M649.0216,-104.3605C610.492,-100.8155 597.9976,-83.4121 553,-77.9944 420.6227,-62.056 370.6751,-15.3019 253,-77.9944 224.1703,-93.3537 244.6659,-138.9944 212,-138.9944"/>
<polygon fill="#000000" stroke="#000000" points="655.5077,-104.6444 663.3425,-108.5909 659.5038,-104.8194 663.5,-104.9944 663.5,-104.9944 663.5,-104.9944 659.5038,-104.8194 663.6575,-101.3978 655.5077,-104.6444 655.5077,-104.6444"/>
<ellipse fill="none" stroke="#000000" cx="652.3107" cy="-104.5044" rx="3.2" ry="3.2"/>
</g>
</g>
</svg>
