<?xml version="1.0" encoding="UTF-8" standalone="no"?>
<!DOCTYPE svg PUBLIC "-//W3C//DTD SVG 1.1//EN"
 "http://www.w3.org/Graphics/SVG/1.1/DTD/svg11.dtd">
<!-- Generated by graphviz version 2.40.1 (20161225.0304)
 -->
<!-- Title: twoDegreesRelationshipsDiagram Pages: 1 -->
<svg width="1078pt" height="414pt"
 viewBox="0.00 0.00 1078.00 414.21" xmlns="http://www.w3.org/2000/svg" xmlns:xlink="http://www.w3.org/1999/xlink">
<g id="graph0" class="graph" transform="scale(1 1) rotate(0) translate(4 410.2068)">
<title>twoDegreesRelationshipsDiagram</title>
<polygon fill="#ffffff" stroke="transparent" points="-4,4 -4,-410.2068 1074,-410.2068 1074,4 -4,4"/>
<text text-anchor="middle" x="101.8088" y="-8.8" font-family="Helvetica,sans-Serif" font-size="16.00" fill="#000000">Generated by SchemaSpy</text>
<!-- project_notes -->
<g id="node1" class="node">
<title>project_notes</title>
<g id="a_node1"><a xlink:href="../../tables/project_notes.html" xlink:title="project_notes" target="_top">
<polygon fill="#ffffff" stroke="transparent" points="594,-323.2068 594,-402.2068 758,-402.2068 758,-323.2068 594,-323.2068"/>
<polygon fill="#f5f5f5" stroke="transparent" points="594,-372.7068 594,-401.7068 758,-401.7068 758,-372.7068 594,-372.7068"/>
<polygon fill="none" stroke="#000000" points="594,-372.7068 594,-401.7068 758,-401.7068 758,-372.7068 594,-372.7068"/>
<text text-anchor="start" x="599" y="-379.8068" font-family="Helvetica,sans-Serif" font-weight="bold" font-size="16.00" fill="#000000">project_notes</text>
<text text-anchor="start" x="709.7136" y="-382.3068" font-family="Helvetica,sans-Serif" font-size="16.00" fill="#000000">[table]</text>
<polygon fill="none" stroke="#000000" points="594,-347.7068 594,-372.7068 758,-372.7068 758,-347.7068 594,-347.7068"/>
<text text-anchor="start" x="597" y="-355.3068" font-family="Helvetica,sans-Serif" font-size="16.00" fill="#000000">...</text>
<polygon fill="#ffffff" stroke="transparent" points="594,-322.7068 594,-347.7068 656,-347.7068 656,-322.7068 594,-322.7068"/>
<polygon fill="none" stroke="#000000" points="594,-322.7068 594,-347.7068 656,-347.7068 656,-322.7068 594,-322.7068"/>
<text text-anchor="start" x="597" y="-330.3068" font-family="Helvetica,sans-Serif" font-size="16.00" fill="#000000">&lt; 1</text>
<polygon fill="#ffffff" stroke="transparent" points="656,-322.7068 656,-347.7068 726,-347.7068 726,-322.7068 656,-322.7068"/>
<polygon fill="none" stroke="#000000" points="656,-322.7068 656,-347.7068 726,-347.7068 726,-322.7068 656,-322.7068"/>
<text text-anchor="start" x="675.888" y="-330.3068" font-family="Helvetica,sans-Serif" font-size="16.00" fill="#000000">0 rows</text>
<polygon fill="#ffffff" stroke="transparent" points="726,-322.7068 726,-347.7068 758,-347.7068 758,-322.7068 726,-322.7068"/>
<polygon fill="none" stroke="#000000" points="726,-322.7068 726,-347.7068 758,-347.7068 758,-322.7068 726,-322.7068"/>
<text text-anchor="start" x="746.1072" y="-330.3068" font-family="Helvetica,sans-Serif" font-size="16.00" fill="#000000"> &#160;</text>
</a>
</g>
</g>
<!-- projects -->
<g id="node2" class="node">
<title>projects</title>
<g id="a_node2"><a xlink:href="../../tables/projects.html" xlink:title="projects" target="_top">
<polygon fill="#ffffff" stroke="transparent" points="261,-87.2068 261,-364.2068 545,-364.2068 545,-87.2068 261,-87.2068"/>
<polygon fill="#f5f5f5" stroke="transparent" points="261,-334.7068 261,-363.7068 545,-363.7068 545,-334.7068 261,-334.7068"/>
<polygon fill="none" stroke="#000000" points="261,-334.7068 261,-363.7068 545,-363.7068 545,-334.7068 261,-334.7068"/>
<text text-anchor="start" x="266" y="-341.8068" font-family="Helvetica,sans-Serif" font-weight="bold" font-size="16.00" fill="#000000">projects</text>
<text text-anchor="start" x="496.4272" y="-344.3068" font-family="Helvetica,sans-Serif" font-size="16.00" fill="#000000">[table]</text>
<polygon fill="none" stroke="#000000" points="261,-312.7068 261,-334.7068 545,-334.7068 545,-312.7068 261,-312.7068"/>
<image xlink:href="../../images/primaryKeys.png" width="11px" height="12px" preserveAspectRatio="xMinYMin meet" x="266" y="-329.707"/>
<text text-anchor="start" x="281" y="-315.3068" font-family="Helvetica,sans-Serif" font-size="16.00" fill="#000000">id</text>
<polygon fill="#ffffff" stroke="transparent" points="261,-290.7068 261,-312.7068 545,-312.7068 545,-290.7068 261,-290.7068"/>
<polygon fill="none" stroke="#000000" points="261,-290.7068 261,-312.7068 545,-312.7068 545,-290.7068 261,-290.7068"/>
<text text-anchor="start" x="281" y="-293.3068" font-family="Helvetica,sans-Serif" font-size="16.00" fill="#000000">name</text>
<polygon fill="#ffffff" stroke="transparent" points="261,-268.7068 261,-290.7068 545,-290.7068 545,-268.7068 261,-268.7068"/>
<polygon fill="none" stroke="#000000" points="261,-268.7068 261,-290.7068 545,-290.7068 545,-268.7068 261,-268.7068"/>
<text text-anchor="start" x="281" y="-271.3068" font-family="Helvetica,sans-Serif" font-size="16.00" fill="#000000">status</text>
<polygon fill="#ffffff" stroke="transparent" points="261,-246.7068 261,-268.7068 545,-268.7068 545,-246.7068 261,-246.7068"/>
<polygon fill="none" stroke="#000000" points="261,-246.7068 261,-268.7068 545,-268.7068 545,-246.7068 261,-246.7068"/>
<text text-anchor="start" x="281" y="-249.3068" font-family="Helvetica,sans-Serif" font-size="16.00" fill="#000000">project_type</text>
<polygon fill="#ffffff" stroke="transparent" points="261,-224.7068 261,-246.7068 545,-246.7068 545,-224.7068 261,-224.7068"/>
<polygon fill="none" stroke="#000000" points="261,-224.7068 261,-246.7068 545,-246.7068 545,-224.7068 261,-224.7068"/>
<text text-anchor="start" x="281" y="-227.3068" font-family="Helvetica,sans-Serif" font-size="16.00" fill="#000000">priority</text>
<polygon fill="#ffffff" stroke="transparent" points="261,-202.7068 261,-224.7068 545,-224.7068 545,-202.7068 261,-202.7068"/>
<polygon fill="none" stroke="#000000" points="261,-202.7068 261,-224.7068 545,-224.7068 545,-202.7068 261,-202.7068"/>
<image xlink:href="../../images/foreignKeys.png" width="11px" height="12px" preserveAspectRatio="xMinYMin meet" x="266" y="-219.707"/>
<text text-anchor="start" x="281" y="-205.3068" font-family="Helvetica,sans-Serif" font-size="16.00" fill="#000000">business_partner_id</text>
<polygon fill="#ffffff" stroke="transparent" points="261,-180.7068 261,-202.7068 545,-202.7068 545,-180.7068 261,-180.7068"/>
<polygon fill="none" stroke="#000000" points="261,-180.7068 261,-202.7068 545,-202.7068 545,-180.7068 261,-180.7068"/>
<text text-anchor="start" x="281" y="-183.3068" font-family="Helvetica,sans-Serif" font-size="16.00" fill="#000000">billable</text>
<polygon fill="#ffffff" stroke="transparent" points="261,-158.7068 261,-180.7068 545,-180.7068 545,-158.7068 261,-158.7068"/>
<polygon fill="none" stroke="#000000" points="261,-158.7068 261,-180.7068 545,-180.7068 545,-158.7068 261,-158.7068"/>
<text text-anchor="start" x="281" y="-161.3068" font-family="Helvetica,sans-Serif" font-size="16.00" fill="#000000">active</text>
<polygon fill="#ffffff" stroke="transparent" points="261,-136.7068 261,-158.7068 545,-158.7068 545,-136.7068 261,-136.7068"/>
<polygon fill="none" stroke="#000000" points="261,-136.7068 261,-158.7068 545,-158.7068 545,-136.7068 261,-136.7068"/>
<text text-anchor="start" x="281" y="-139.3068" font-family="Helvetica,sans-Serif" font-size="16.00" fill="#000000">inserted_at</text>
<polygon fill="none" stroke="#000000" points="261,-111.7068 261,-136.7068 545,-136.7068 545,-111.7068 261,-111.7068"/>
<text text-anchor="start" x="264" y="-119.3068" font-family="Helvetica,sans-Serif" font-size="16.00" fill="#000000">...</text>
<polygon fill="#ffffff" stroke="transparent" points="261,-86.7068 261,-111.7068 376,-111.7068 376,-86.7068 261,-86.7068"/>
<polygon fill="none" stroke="#000000" points="261,-86.7068 261,-111.7068 376,-111.7068 376,-86.7068 261,-86.7068"/>
<text text-anchor="start" x="264" y="-94.3068" font-family="Helvetica,sans-Serif" font-size="16.00" fill="#000000">&lt; 1</text>
<polygon fill="#ffffff" stroke="transparent" points="376,-86.7068 376,-111.7068 473,-111.7068 473,-86.7068 376,-86.7068"/>
<polygon fill="none" stroke="#000000" points="376,-86.7068 376,-111.7068 473,-111.7068 473,-86.7068 376,-86.7068"/>
<text text-anchor="start" x="422.888" y="-94.3068" font-family="Helvetica,sans-Serif" font-size="16.00" fill="#000000">0 rows</text>
<polygon fill="#ffffff" stroke="transparent" points="473,-86.7068 473,-111.7068 545,-111.7068 545,-86.7068 473,-86.7068"/>
<polygon fill="none" stroke="#000000" points="473,-86.7068 473,-111.7068 545,-111.7068 545,-86.7068 473,-86.7068"/>
<text text-anchor="start" x="519.3168" y="-94.3068" font-family="Helvetica,sans-Serif" font-size="16.00" fill="#000000">3 &gt;</text>
</a>
</g>
</g>
<!-- project_notes&#45;&gt;projects -->
<g id="edge1" class="edge">
<title>project_notes:w&#45;&gt;projects:e</title>
<path fill="none" stroke="#000000" d="M580.1983,-355.2925C567.6499,-345.6795 566.1121,-323.7068 545,-323.7068"/>
<polygon fill="#000000" stroke="#000000" points="586.3802,-357.2697 592.9033,-363.1357 590.1901,-358.4883 594,-359.7068 594,-359.7068 594,-359.7068 590.1901,-358.4883 595.0967,-356.278 586.3802,-357.2697 586.3802,-357.2697"/>
<ellipse fill="none" stroke="#000000" cx="583.3323" cy="-356.2949" rx="3.2" ry="3.2"/>
</g>
<!-- business_partners -->
<g id="node5" class="node">
<title>business_partners</title>
<g id="a_node5"><a xlink:href="../../tables/business_partners.html" xlink:title="business_partners" target="_top">
<polygon fill="#ffffff" stroke="transparent" points="8,-101.2068 8,-180.2068 212,-180.2068 212,-101.2068 8,-101.2068"/>
<polygon fill="#f5f5f5" stroke="transparent" points="8,-150.7068 8,-179.7068 212,-179.7068 212,-150.7068 8,-150.7068"/>
<polygon fill="none" stroke="#000000" points="8,-150.7068 8,-179.7068 212,-179.7068 212,-150.7068 8,-150.7068"/>
<text text-anchor="start" x="13" y="-157.8068" font-family="Helvetica,sans-Serif" font-weight="bold" font-size="16.00" fill="#000000">business_partners</text>
<text text-anchor="start" x="163.7136" y="-160.3068" font-family="Helvetica,sans-Serif" font-size="16.00" fill="#000000">[table]</text>
<polygon fill="none" stroke="#000000" points="8,-125.7068 8,-150.7068 212,-150.7068 212,-125.7068 8,-125.7068"/>
<text text-anchor="start" x="11" y="-133.3068" font-family="Helvetica,sans-Serif" font-size="16.00" fill="#000000">...</text>
<polygon fill="#ffffff" stroke="transparent" points="8,-100.7068 8,-125.7068 76,-125.7068 76,-100.7068 8,-100.7068"/>
<polygon fill="none" stroke="#000000" points="8,-100.7068 8,-125.7068 76,-125.7068 76,-100.7068 8,-100.7068"/>
<text text-anchor="start" x="11" y="-108.3068" font-family="Helvetica,sans-Serif" font-size="16.00" fill="#000000"> &#160;</text>
<polygon fill="#ffffff" stroke="transparent" points="76,-100.7068 76,-125.7068 156,-125.7068 156,-100.7068 76,-100.7068"/>
<polygon fill="none" stroke="#000000" points="76,-100.7068 76,-125.7068 156,-125.7068 156,-100.7068 76,-100.7068"/>
<text text-anchor="start" x="105.888" y="-108.3068" font-family="Helvetica,sans-Serif" font-size="16.00" fill="#000000">0 rows</text>
<polygon fill="#ffffff" stroke="transparent" points="156,-100.7068 156,-125.7068 212,-125.7068 212,-100.7068 156,-100.7068"/>
<polygon fill="none" stroke="#000000" points="156,-100.7068 156,-125.7068 212,-125.7068 212,-100.7068 156,-100.7068"/>
<text text-anchor="start" x="186.3168" y="-108.3068" font-family="Helvetica,sans-Serif" font-size="16.00" fill="#000000">3 &gt;</text>
</a>
</g>
</g>
<!-- projects&#45;&gt;business_partners -->
<g id="edge4" class="edge">
<title>projects:w&#45;&gt;business_partners:e</title>
<path fill="none" stroke="#000000" d="M247.109,-208.9527C228.7102,-192.3144 246.067,-137.7068 212,-137.7068"/>
<polygon fill="#000000" stroke="#000000" points="253.431,-211.1163 259.8343,-217.1129 257.2155,-212.4116 261,-213.7068 261,-213.7068 261,-213.7068 257.2155,-212.4116 262.1657,-210.3008 253.431,-211.1163 253.431,-211.1163"/>
<ellipse fill="none" stroke="#000000" cx="250.4034" cy="-210.0801" rx="3.2" ry="3.2"/>
</g>
<!-- project_tags -->
<g id="node3" class="node">
<title>project_tags</title>
<g id="a_node3"><a xlink:href="../../tables/project_tags.html" xlink:title="project_tags" target="_top">
<polygon fill="#ffffff" stroke="transparent" points="807,-195.2068 807,-378.2068 1062,-378.2068 1062,-195.2068 807,-195.2068"/>
<polygon fill="#f5f5f5" stroke="transparent" points="809.5,-346.7068 809.5,-375.7068 1060.5,-375.7068 1060.5,-346.7068 809.5,-346.7068"/>
<polygon fill="none" stroke="#000000" points="809.5,-346.7068 809.5,-375.7068 1060.5,-375.7068 1060.5,-346.7068 809.5,-346.7068"/>
<text text-anchor="start" x="814.5" y="-353.8068" font-family="Helvetica,sans-Serif" font-weight="bold" font-size="16.00" fill="#000000">project_tags</text>
<text text-anchor="start" x="1011.9272" y="-356.3068" font-family="Helvetica,sans-Serif" font-size="16.00" fill="#000000">[table]</text>
<polygon fill="none" stroke="#000000" points="809.5,-321.7068 809.5,-346.7068 931.5,-346.7068 931.5,-321.7068 809.5,-321.7068"/>
<image xlink:href="../../images/primaryKeys.png" width="11px" height="12px" preserveAspectRatio="xMinYMin meet" x="814.5" y="-340.207"/>
<text text-anchor="start" x="829.5" y="-325.8068" font-family="Helvetica,sans-Serif" font-size="16.00" fill="#000000">id</text>
<polygon fill="none" stroke="#000000" points="931.5,-321.7068 931.5,-346.7068 1060.5,-346.7068 1060.5,-321.7068 931.5,-321.7068"/>
<text text-anchor="start" x="934.188" y="-329.3068" font-family="Helvetica,sans-Serif" font-size="16.00" fill="#000000">text[2000000000]</text>
<polygon fill="#ffffff" stroke="transparent" points="809.5,-296.7068 809.5,-321.7068 931.5,-321.7068 931.5,-296.7068 809.5,-296.7068"/>
<polygon fill="none" stroke="#000000" points="809.5,-296.7068 809.5,-321.7068 931.5,-321.7068 931.5,-296.7068 809.5,-296.7068"/>
<image xlink:href="../../images/foreignKeys.png" width="11px" height="12px" preserveAspectRatio="xMinYMin meet" x="814.5" y="-315.207"/>
<text text-anchor="start" x="829.5" y="-300.8068" font-family="Helvetica,sans-Serif" font-size="16.00" fill="#000000">tag_id</text>
<polygon fill="none" stroke="#000000" points="931.5,-296.7068 931.5,-321.7068 1060.5,-321.7068 1060.5,-296.7068 931.5,-296.7068"/>
<text text-anchor="start" x="934.188" y="-304.3068" font-family="Helvetica,sans-Serif" font-size="16.00" fill="#000000">text[2000000000]</text>
<polygon fill="#ffffff" stroke="transparent" points="809.5,-271.7068 809.5,-296.7068 931.5,-296.7068 931.5,-271.7068 809.5,-271.7068"/>
<polygon fill="none" stroke="#000000" points="809.5,-271.7068 809.5,-296.7068 931.5,-296.7068 931.5,-271.7068 809.5,-271.7068"/>
<image xlink:href="../../images/foreignKeys.png" width="11px" height="12px" preserveAspectRatio="xMinYMin meet" x="814.5" y="-290.207"/>
<text text-anchor="start" x="829.5" y="-275.8068" font-family="Helvetica,sans-Serif" font-size="16.00" fill="#000000">project_id</text>
<polygon fill="none" stroke="#000000" points="931.5,-271.7068 931.5,-296.7068 1060.5,-296.7068 1060.5,-271.7068 931.5,-271.7068"/>
<text text-anchor="start" x="934.188" y="-279.3068" font-family="Helvetica,sans-Serif" font-size="16.00" fill="#000000">text[2000000000]</text>
<polygon fill="none" stroke="#000000" points="809.5,-246.7068 809.5,-271.7068 931.5,-271.7068 931.5,-246.7068 809.5,-246.7068"/>
<text text-anchor="start" x="829.5" y="-250.8068" font-family="Helvetica,sans-Serif" font-size="16.00" fill="#000000">inserted_at</text>
<polygon fill="none" stroke="#000000" points="931.5,-246.7068 931.5,-271.7068 1060.5,-271.7068 1060.5,-246.7068 931.5,-246.7068"/>
<text text-anchor="start" x="934.188" y="-254.3068" font-family="Helvetica,sans-Serif" font-size="16.00" fill="#000000">text[2000000000]</text>
<polygon fill="none" stroke="#000000" points="809.5,-221.7068 809.5,-246.7068 931.5,-246.7068 931.5,-221.7068 809.5,-221.7068"/>
<text text-anchor="start" x="829.5" y="-225.8068" font-family="Helvetica,sans-Serif" font-size="16.00" fill="#000000">updated_at</text>
<polygon fill="none" stroke="#000000" points="931.5,-221.7068 931.5,-246.7068 1060.5,-246.7068 1060.5,-221.7068 931.5,-221.7068"/>
<text text-anchor="start" x="934.188" y="-229.3068" font-family="Helvetica,sans-Serif" font-size="16.00" fill="#000000">text[2000000000]</text>
<polygon fill="#ffffff" stroke="transparent" points="809.5,-196.7068 809.5,-221.7068 857.5,-221.7068 857.5,-196.7068 809.5,-196.7068"/>
<polygon fill="none" stroke="#000000" points="809.5,-196.7068 809.5,-221.7068 857.5,-221.7068 857.5,-196.7068 809.5,-196.7068"/>
<text text-anchor="start" x="812.5" y="-204.3068" font-family="Helvetica,sans-Serif" font-size="16.00" fill="#000000">&lt; 2</text>
<polygon fill="#ffffff" stroke="transparent" points="857.5,-196.7068 857.5,-221.7068 931.5,-221.7068 931.5,-196.7068 857.5,-196.7068"/>
<polygon fill="none" stroke="#000000" points="857.5,-196.7068 857.5,-221.7068 931.5,-221.7068 931.5,-196.7068 857.5,-196.7068"/>
<text text-anchor="start" x="881.388" y="-204.3068" font-family="Helvetica,sans-Serif" font-size="16.00" fill="#000000">0 rows</text>
<polygon fill="#ffffff" stroke="transparent" points="931.5,-196.7068 931.5,-221.7068 1060.5,-221.7068 1060.5,-196.7068 931.5,-196.7068"/>
<polygon fill="none" stroke="#000000" points="931.5,-196.7068 931.5,-221.7068 1060.5,-221.7068 1060.5,-196.7068 931.5,-196.7068"/>
<text text-anchor="start" x="1034.8168" y="-204.3068" font-family="Helvetica,sans-Serif" font-size="16.00" fill="#000000">0 &gt;</text>
<polygon fill="none" stroke="#000000" stroke-width="2" points="808,-196.2068 808,-377.2068 1061,-377.2068 1061,-196.2068 808,-196.2068"/>
</a>
</g>
</g>
<!-- project_tags&#45;&gt;projects -->
<g id="edge2" class="edge">
<title>project_tags:w&#45;&gt;projects:e</title>
<path fill="none" stroke="#000000" d="M795.0387,-284.1154C738.6099,-286.948 630.9063,-303.8105 586,-312.7068 567.493,-316.3732 563.8667,-323.7068 545,-323.7068"/>
<polygon fill="#000000" stroke="#000000" points="801.5032,-283.9328 809.6017,-287.3054 805.5016,-283.8198 809.5,-283.7068 809.5,-283.7068 809.5,-283.7068 805.5016,-283.8198 809.3983,-280.1083 801.5032,-283.9328 801.5032,-283.9328"/>
<ellipse fill="none" stroke="#000000" cx="798.3045" cy="-284.0232" rx="3.2" ry="3.2"/>
</g>
<!-- tags -->
<g id="node4" class="node">
<title>tags</title>
<g id="a_node4"><a xlink:href="../../tables/tags.html" xlink:title="tags" target="_top">
<polygon fill="#ffffff" stroke="transparent" points="620,-151.2068 620,-274.2068 732,-274.2068 732,-151.2068 620,-151.2068"/>
<polygon fill="#f5f5f5" stroke="transparent" points="620,-244.7068 620,-273.7068 732,-273.7068 732,-244.7068 620,-244.7068"/>
<polygon fill="none" stroke="#000000" points="620,-244.7068 620,-273.7068 732,-273.7068 732,-244.7068 620,-244.7068"/>
<text text-anchor="start" x="624.8824" y="-251.8068" font-family="Helvetica,sans-Serif" font-weight="bold" font-size="16.00" fill="#000000">tags</text>
<text text-anchor="start" x="683.4272" y="-254.3068" font-family="Helvetica,sans-Serif" font-size="16.00" fill="#000000">[table]</text>
<polygon fill="none" stroke="#000000" points="620,-222.7068 620,-244.7068 732,-244.7068 732,-222.7068 620,-222.7068"/>
<image xlink:href="../../images/primaryKeys.png" width="11px" height="12px" preserveAspectRatio="xMinYMin meet" x="625" y="-239.707"/>
<text text-anchor="start" x="640" y="-225.3068" font-family="Helvetica,sans-Serif" font-size="16.00" fill="#000000">id</text>
<polygon fill="#ffffff" stroke="transparent" points="620,-200.7068 620,-222.7068 732,-222.7068 732,-200.7068 620,-200.7068"/>
<polygon fill="none" stroke="#000000" points="620,-200.7068 620,-222.7068 732,-222.7068 732,-200.7068 620,-200.7068"/>
<text text-anchor="start" x="640" y="-203.3068" font-family="Helvetica,sans-Serif" font-size="16.00" fill="#000000">name</text>
<polygon fill="none" stroke="#000000" points="620,-175.7068 620,-200.7068 732,-200.7068 732,-175.7068 620,-175.7068"/>
<text text-anchor="start" x="623" y="-183.3068" font-family="Helvetica,sans-Serif" font-size="16.00" fill="#000000">...</text>
<polygon fill="#ffffff" stroke="transparent" points="620,-150.7068 620,-175.7068 642,-175.7068 642,-150.7068 620,-150.7068"/>
<polygon fill="none" stroke="#000000" points="620,-150.7068 620,-175.7068 642,-175.7068 642,-150.7068 620,-150.7068"/>
<text text-anchor="start" x="623" y="-158.3068" font-family="Helvetica,sans-Serif" font-size="16.00" fill="#000000"> &#160;</text>
<polygon fill="#ffffff" stroke="transparent" points="642,-150.7068 642,-175.7068 699,-175.7068 699,-150.7068 642,-150.7068"/>
<polygon fill="none" stroke="#000000" points="642,-150.7068 642,-175.7068 699,-175.7068 699,-150.7068 642,-150.7068"/>
<text text-anchor="start" x="648.888" y="-158.3068" font-family="Helvetica,sans-Serif" font-size="16.00" fill="#000000">0 rows</text>
<polygon fill="#ffffff" stroke="transparent" points="699,-150.7068 699,-175.7068 732,-175.7068 732,-150.7068 699,-150.7068"/>
<polygon fill="none" stroke="#000000" points="699,-150.7068 699,-175.7068 732,-175.7068 732,-150.7068 699,-150.7068"/>
<text text-anchor="start" x="706.3168" y="-158.3068" font-family="Helvetica,sans-Serif" font-size="16.00" fill="#000000">2 &gt;</text>
</a>
</g>
</g>
<!-- project_tags&#45;&gt;tags -->
<g id="edge3" class="edge">
<title>project_tags:w&#45;&gt;tags:e</title>
<path fill="none" stroke="#000000" d="M795.093,-306.8204C764.7838,-292.938 774.5893,-233.7068 732,-233.7068"/>
<polygon fill="#000000" stroke="#000000" points="801.6559,-308.1352 808.7928,-313.2367 805.5779,-308.921 809.5,-309.7068 809.5,-309.7068 809.5,-309.7068 805.5779,-308.921 810.2072,-306.177 801.6559,-308.1352 801.6559,-308.1352"/>
<ellipse fill="none" stroke="#000000" cx="798.5182" cy="-307.5065" rx="3.2" ry="3.2"/>
</g>
<!-- timer_tags -->
<g id="node6" class="node">
<title>timer_tags</title>
<g id="a_node6"><a xlink:href="../../tables/timer_tags.html" xlink:title="timer_tags" target="_top">
<polygon fill="#ffffff" stroke="transparent" points="865.5,-66.2068 865.5,-145.2068 1003.5,-145.2068 1003.5,-66.2068 865.5,-66.2068"/>
<polygon fill="#f5f5f5" stroke="transparent" points="865.5,-115.7068 865.5,-144.7068 1003.5,-144.7068 1003.5,-115.7068 865.5,-115.7068"/>
<polygon fill="none" stroke="#000000" points="865.5,-115.7068 865.5,-144.7068 1003.5,-144.7068 1003.5,-115.7068 865.5,-115.7068"/>
<text text-anchor="start" x="870.5" y="-122.8068" font-family="Helvetica,sans-Serif" font-weight="bold" font-size="16.00" fill="#000000">timer_tags</text>
<text text-anchor="start" x="955.2136" y="-125.3068" font-family="Helvetica,sans-Serif" font-size="16.00" fill="#000000">[table]</text>
<polygon fill="none" stroke="#000000" points="865.5,-90.7068 865.5,-115.7068 1003.5,-115.7068 1003.5,-90.7068 865.5,-90.7068"/>
<text text-anchor="start" x="868.5" y="-98.3068" font-family="Helvetica,sans-Serif" font-size="16.00" fill="#000000">...</text>
<polygon fill="#ffffff" stroke="transparent" points="865.5,-65.7068 865.5,-90.7068 914.5,-90.7068 914.5,-65.7068 865.5,-65.7068"/>
<polygon fill="none" stroke="#000000" points="865.5,-65.7068 865.5,-90.7068 914.5,-90.7068 914.5,-65.7068 865.5,-65.7068"/>
<text text-anchor="start" x="868.5" y="-73.3068" font-family="Helvetica,sans-Serif" font-size="16.00" fill="#000000">&lt; 2</text>
<polygon fill="#ffffff" stroke="transparent" points="914.5,-65.7068 914.5,-90.7068 978.5,-90.7068 978.5,-65.7068 914.5,-65.7068"/>
<polygon fill="none" stroke="#000000" points="914.5,-65.7068 914.5,-90.7068 978.5,-90.7068 978.5,-65.7068 914.5,-65.7068"/>
<text text-anchor="start" x="928.388" y="-73.3068" font-family="Helvetica,sans-Serif" font-size="16.00" fill="#000000">0 rows</text>
<polygon fill="#ffffff" stroke="transparent" points="978.5,-65.7068 978.5,-90.7068 1003.5,-90.7068 1003.5,-65.7068 978.5,-65.7068"/>
<polygon fill="none" stroke="#000000" points="978.5,-65.7068 978.5,-90.7068 1003.5,-90.7068 1003.5,-65.7068 978.5,-65.7068"/>
<text text-anchor="start" x="991.6072" y="-73.3068" font-family="Helvetica,sans-Serif" font-size="16.00" fill="#000000"> &#160;</text>
</a>
</g>
</g>
<!-- timer_tags&#45;&gt;tags -->
<g id="edge5" class="edge">
<title>timer_tags:w&#45;&gt;tags:e</title>
<path fill="none" stroke="#000000" d="M850.8086,-104.2693C786.113,-119.0494 809.7702,-233.7068 732,-233.7068"/>
<polygon fill="#000000" stroke="#000000" points="857.5449,-103.5529 865.8807,-106.2867 861.5224,-103.1299 865.5,-102.7068 865.5,-102.7068 865.5,-102.7068 861.5224,-103.1299 865.1193,-99.127 857.5449,-103.5529 857.5449,-103.5529"/>
<ellipse fill="none" stroke="#000000" cx="854.3628" cy="-103.8914" rx="3.2" ry="3.2"/>
</g>
<!-- timers -->
<g id="node7" class="node">
<title>timers</title>
<g id="a_node7"><a xlink:href="../../tables/timers.html" xlink:title="timers" target="_top">
<polygon fill="#ffffff" stroke="transparent" points="621.5,-51.2068 621.5,-130.2068 730.5,-130.2068 730.5,-51.2068 621.5,-51.2068"/>
<polygon fill="#f5f5f5" stroke="transparent" points="622,-100.7068 622,-129.7068 731,-129.7068 731,-100.7068 622,-100.7068"/>
<polygon fill="none" stroke="#000000" points="622,-100.7068 622,-129.7068 731,-129.7068 731,-100.7068 622,-100.7068"/>
<text text-anchor="start" x="627" y="-107.8068" font-family="Helvetica,sans-Serif" font-weight="bold" font-size="16.00" fill="#000000">timers</text>
<text text-anchor="start" x="682.4272" y="-110.3068" font-family="Helvetica,sans-Serif" font-size="16.00" fill="#000000">[table]</text>
<polygon fill="none" stroke="#000000" points="622,-75.7068 622,-100.7068 731,-100.7068 731,-75.7068 622,-75.7068"/>
<text text-anchor="start" x="625" y="-83.3068" font-family="Helvetica,sans-Serif" font-size="16.00" fill="#000000">...</text>
<polygon fill="#ffffff" stroke="transparent" points="622,-50.7068 622,-75.7068 650,-75.7068 650,-50.7068 622,-50.7068"/>
<polygon fill="none" stroke="#000000" points="622,-50.7068 622,-75.7068 650,-75.7068 650,-50.7068 622,-50.7068"/>
<text text-anchor="start" x="624.6584" y="-58.3068" font-family="Helvetica,sans-Serif" font-size="16.00" fill="#000000">&lt; 3</text>
<polygon fill="#ffffff" stroke="transparent" points="650,-50.7068 650,-75.7068 703,-75.7068 703,-50.7068 650,-50.7068"/>
<polygon fill="none" stroke="#000000" points="650,-50.7068 650,-75.7068 703,-75.7068 703,-50.7068 650,-50.7068"/>
<text text-anchor="start" x="652.944" y="-58.3068" font-family="Helvetica,sans-Serif" font-size="16.00" fill="#000000">0 rows</text>
<polygon fill="#ffffff" stroke="transparent" points="703,-50.7068 703,-75.7068 731,-75.7068 731,-50.7068 703,-50.7068"/>
<polygon fill="none" stroke="#000000" points="703,-50.7068 703,-75.7068 731,-75.7068 731,-50.7068 703,-50.7068"/>
<text text-anchor="start" x="705.6584" y="-58.3068" font-family="Helvetica,sans-Serif" font-size="16.00" fill="#000000">2 &gt;</text>
</a>
</g>
</g>
<!-- timer_tags&#45;&gt;timers -->
<g id="edge6" class="edge">
<title>timer_tags:w&#45;&gt;timers:e</title>
<path fill="none" stroke="#000000" d="M850.9526,-102.3935C802.5711,-100.2395 785.9794,-87.7068 731,-87.7068"/>
<polygon fill="#000000" stroke="#000000" points="857.5019,-102.5345 865.4225,-106.306 861.5009,-102.6207 865.5,-102.7068 865.5,-102.7068 865.5,-102.7068 861.5009,-102.6207 865.5775,-99.1077 857.5019,-102.5345 857.5019,-102.5345"/>
<ellipse fill="none" stroke="#000000" cx="854.3026" cy="-102.4656" rx="3.2" ry="3.2"/>
</g>
<!-- timers&#45;&gt;projects -->
<g id="edge8" class="edge">
<title>timers:w&#45;&gt;projects:e</title>
<path fill="none" stroke="#000000" d="M607.8424,-91.0342C594.4505,-99.0089 594.9261,-120.0868 586,-140.7068 552.8883,-217.1972 628.3496,-323.7068 545,-323.7068"/>
<polygon fill="#000000" stroke="#000000" points="614.2122,-89.5372 622.8237,-91.2114 618.1061,-88.622 622,-87.7068 622,-87.7068 622,-87.7068 618.1061,-88.622 621.1763,-84.2023 614.2122,-89.5372 614.2122,-89.5372"/>
<ellipse fill="none" stroke="#000000" cx="611.0971" cy="-90.2693" rx="3.2" ry="3.2"/>
</g>
<!-- timers&#45;&gt;business_partners -->
<g id="edge7" class="edge">
<title>timers:w&#45;&gt;business_partners:e</title>
<path fill="none" stroke="#000000" d="M607.5938,-86.994C587.7484,-84.8901 578.5153,-78.7279 553,-76.7068 420.083,-66.1785 370.6751,-14.0144 253,-76.7068 224.1703,-92.0661 244.6659,-137.7068 212,-137.7068"/>
<polygon fill="#000000" stroke="#000000" points="614.0098,-87.3114 621.8221,-91.3024 618.0049,-87.5091 622,-87.7068 622,-87.7068 622,-87.7068 618.0049,-87.5091 622.1779,-84.1112 614.0098,-87.3114 614.0098,-87.3114"/>
<ellipse fill="none" stroke="#000000" cx="610.8137" cy="-87.1533" rx="3.2" ry="3.2"/>
</g>
</g>
</svg>
