<?xml version="1.0" encoding="UTF-8" standalone="no"?>
<!DOCTYPE svg PUBLIC "-//W3C//DTD SVG 1.1//EN"
 "http://www.w3.org/Graphics/SVG/1.1/DTD/svg11.dtd">
<!-- Generated by graphviz version 2.40.1 (20161225.0304)
 -->
<!-- Title: twoDegreesRelationshipsDiagram Pages: 1 -->
<svg width="1078pt" height="414pt"
 viewBox="0.00 0.00 1078.00 414.39" xmlns="http://www.w3.org/2000/svg" xmlns:xlink="http://www.w3.org/1999/xlink">
<g id="graph0" class="graph" transform="scale(1 1) rotate(0) translate(4 410.3862)">
<title>twoDegreesRelationshipsDiagram</title>
<polygon fill="#ffffff" stroke="transparent" points="-4,4 -4,-410.3862 1074,-410.3862 1074,4 -4,4"/>
<text text-anchor="middle" x="101.8088" y="-8.8" font-family="Helvetica,sans-Serif" font-size="16.00" fill="#000000">Generated by SchemaSpy</text>
<!-- project_notes -->
<g id="node1" class="node">
<title>project_notes</title>
<g id="a_node1"><a xlink:href="../../tables/project_notes.html" xlink:title="project_notes" target="_top">
<polygon fill="#ffffff" stroke="transparent" points="594,-323.3862 594,-402.3862 758,-402.3862 758,-323.3862 594,-323.3862"/>
<polygon fill="#f5f5f5" stroke="transparent" points="594,-372.8862 594,-401.8862 758,-401.8862 758,-372.8862 594,-372.8862"/>
<polygon fill="none" stroke="#000000" points="594,-372.8862 594,-401.8862 758,-401.8862 758,-372.8862 594,-372.8862"/>
<text text-anchor="start" x="599" y="-379.9862" font-family="Helvetica,sans-Serif" font-weight="bold" font-size="16.00" fill="#000000">project_notes</text>
<text text-anchor="start" x="709.7136" y="-382.4862" font-family="Helvetica,sans-Serif" font-size="16.00" fill="#000000">[table]</text>
<polygon fill="none" stroke="#000000" points="594,-347.8862 594,-372.8862 758,-372.8862 758,-347.8862 594,-347.8862"/>
<text text-anchor="start" x="597" y="-355.4862" font-family="Helvetica,sans-Serif" font-size="16.00" fill="#000000">...</text>
<polygon fill="#ffffff" stroke="transparent" points="594,-322.8862 594,-347.8862 656,-347.8862 656,-322.8862 594,-322.8862"/>
<polygon fill="none" stroke="#000000" points="594,-322.8862 594,-347.8862 656,-347.8862 656,-322.8862 594,-322.8862"/>
<text text-anchor="start" x="597" y="-330.4862" font-family="Helvetica,sans-Serif" font-size="16.00" fill="#000000">&lt; 1</text>
<polygon fill="#ffffff" stroke="transparent" points="656,-322.8862 656,-347.8862 726,-347.8862 726,-322.8862 656,-322.8862"/>
<polygon fill="none" stroke="#000000" points="656,-322.8862 656,-347.8862 726,-347.8862 726,-322.8862 656,-322.8862"/>
<text text-anchor="start" x="675.888" y="-330.4862" font-family="Helvetica,sans-Serif" font-size="16.00" fill="#000000">0 rows</text>
<polygon fill="#ffffff" stroke="transparent" points="726,-322.8862 726,-347.8862 758,-347.8862 758,-322.8862 726,-322.8862"/>
<polygon fill="none" stroke="#000000" points="726,-322.8862 726,-347.8862 758,-347.8862 758,-322.8862 726,-322.8862"/>
<text text-anchor="start" x="746.1072" y="-330.4862" font-family="Helvetica,sans-Serif" font-size="16.00" fill="#000000"> &#160;</text>
</a>
</g>
</g>
<!-- projects -->
<g id="node2" class="node">
<title>projects</title>
<g id="a_node2"><a xlink:href="../../tables/projects.html" xlink:title="projects" target="_top">
<polygon fill="#ffffff" stroke="transparent" points="261,-87.3862 261,-364.3862 545,-364.3862 545,-87.3862 261,-87.3862"/>
<polygon fill="#f5f5f5" stroke="transparent" points="261,-334.8862 261,-363.8862 545,-363.8862 545,-334.8862 261,-334.8862"/>
<polygon fill="none" stroke="#000000" points="261,-334.8862 261,-363.8862 545,-363.8862 545,-334.8862 261,-334.8862"/>
<text text-anchor="start" x="266" y="-341.9862" font-family="Helvetica,sans-Serif" font-weight="bold" font-size="16.00" fill="#000000">projects</text>
<text text-anchor="start" x="496.4272" y="-344.4862" font-family="Helvetica,sans-Serif" font-size="16.00" fill="#000000">[table]</text>
<polygon fill="none" stroke="#000000" points="261,-312.8862 261,-334.8862 545,-334.8862 545,-312.8862 261,-312.8862"/>
<image xlink:href="../../images/primaryKeys.png" width="11px" height="12px" preserveAspectRatio="xMinYMin meet" x="266" y="-329.886"/>
<text text-anchor="start" x="281" y="-315.4862" font-family="Helvetica,sans-Serif" font-size="16.00" fill="#000000">id</text>
<polygon fill="#ffffff" stroke="transparent" points="261,-290.8862 261,-312.8862 545,-312.8862 545,-290.8862 261,-290.8862"/>
<polygon fill="none" stroke="#000000" points="261,-290.8862 261,-312.8862 545,-312.8862 545,-290.8862 261,-290.8862"/>
<text text-anchor="start" x="281" y="-293.4862" font-family="Helvetica,sans-Serif" font-size="16.00" fill="#000000">name</text>
<polygon fill="#ffffff" stroke="transparent" points="261,-268.8862 261,-290.8862 545,-290.8862 545,-268.8862 261,-268.8862"/>
<polygon fill="none" stroke="#000000" points="261,-268.8862 261,-290.8862 545,-290.8862 545,-268.8862 261,-268.8862"/>
<text text-anchor="start" x="281" y="-271.4862" font-family="Helvetica,sans-Serif" font-size="16.00" fill="#000000">status</text>
<polygon fill="#ffffff" stroke="transparent" points="261,-246.8862 261,-268.8862 545,-268.8862 545,-246.8862 261,-246.8862"/>
<polygon fill="none" stroke="#000000" points="261,-246.8862 261,-268.8862 545,-268.8862 545,-246.8862 261,-246.8862"/>
<text text-anchor="start" x="281" y="-249.4862" font-family="Helvetica,sans-Serif" font-size="16.00" fill="#000000">project_type</text>
<polygon fill="#ffffff" stroke="transparent" points="261,-224.8862 261,-246.8862 545,-246.8862 545,-224.8862 261,-224.8862"/>
<polygon fill="none" stroke="#000000" points="261,-224.8862 261,-246.8862 545,-246.8862 545,-224.8862 261,-224.8862"/>
<text text-anchor="start" x="281" y="-227.4862" font-family="Helvetica,sans-Serif" font-size="16.00" fill="#000000">priority</text>
<polygon fill="#ffffff" stroke="transparent" points="261,-202.8862 261,-224.8862 545,-224.8862 545,-202.8862 261,-202.8862"/>
<polygon fill="none" stroke="#000000" points="261,-202.8862 261,-224.8862 545,-224.8862 545,-202.8862 261,-202.8862"/>
<image xlink:href="../../images/foreignKeys.png" width="11px" height="12px" preserveAspectRatio="xMinYMin meet" x="266" y="-219.886"/>
<text text-anchor="start" x="281" y="-205.4862" font-family="Helvetica,sans-Serif" font-size="16.00" fill="#000000">business_partner_id</text>
<polygon fill="#ffffff" stroke="transparent" points="261,-180.8862 261,-202.8862 545,-202.8862 545,-180.8862 261,-180.8862"/>
<polygon fill="none" stroke="#000000" points="261,-180.8862 261,-202.8862 545,-202.8862 545,-180.8862 261,-180.8862"/>
<text text-anchor="start" x="281" y="-183.4862" font-family="Helvetica,sans-Serif" font-size="16.00" fill="#000000">billable</text>
<polygon fill="#ffffff" stroke="transparent" points="261,-158.8862 261,-180.8862 545,-180.8862 545,-158.8862 261,-158.8862"/>
<polygon fill="none" stroke="#000000" points="261,-158.8862 261,-180.8862 545,-180.8862 545,-158.8862 261,-158.8862"/>
<text text-anchor="start" x="281" y="-161.4862" font-family="Helvetica,sans-Serif" font-size="16.00" fill="#000000">active</text>
<polygon fill="#ffffff" stroke="transparent" points="261,-136.8862 261,-158.8862 545,-158.8862 545,-136.8862 261,-136.8862"/>
<polygon fill="none" stroke="#000000" points="261,-136.8862 261,-158.8862 545,-158.8862 545,-136.8862 261,-136.8862"/>
<text text-anchor="start" x="281" y="-139.4862" font-family="Helvetica,sans-Serif" font-size="16.00" fill="#000000">inserted_at</text>
<polygon fill="none" stroke="#000000" points="261,-111.8862 261,-136.8862 545,-136.8862 545,-111.8862 261,-111.8862"/>
<text text-anchor="start" x="264" y="-119.4862" font-family="Helvetica,sans-Serif" font-size="16.00" fill="#000000">...</text>
<polygon fill="#ffffff" stroke="transparent" points="261,-86.8862 261,-111.8862 376,-111.8862 376,-86.8862 261,-86.8862"/>
<polygon fill="none" stroke="#000000" points="261,-86.8862 261,-111.8862 376,-111.8862 376,-86.8862 261,-86.8862"/>
<text text-anchor="start" x="264" y="-94.4862" font-family="Helvetica,sans-Serif" font-size="16.00" fill="#000000">&lt; 1</text>
<polygon fill="#ffffff" stroke="transparent" points="376,-86.8862 376,-111.8862 473,-111.8862 473,-86.8862 376,-86.8862"/>
<polygon fill="none" stroke="#000000" points="376,-86.8862 376,-111.8862 473,-111.8862 473,-86.8862 376,-86.8862"/>
<text text-anchor="start" x="422.888" y="-94.4862" font-family="Helvetica,sans-Serif" font-size="16.00" fill="#000000">5 rows</text>
<polygon fill="#ffffff" stroke="transparent" points="473,-86.8862 473,-111.8862 545,-111.8862 545,-86.8862 473,-86.8862"/>
<polygon fill="none" stroke="#000000" points="473,-86.8862 473,-111.8862 545,-111.8862 545,-86.8862 473,-86.8862"/>
<text text-anchor="start" x="519.3168" y="-94.4862" font-family="Helvetica,sans-Serif" font-size="16.00" fill="#000000">3 &gt;</text>
</a>
</g>
</g>
<!-- project_notes&#45;&gt;projects -->
<g id="edge1" class="edge">
<title>project_notes:w&#45;&gt;projects:e</title>
<path fill="none" stroke="#000000" d="M580.1983,-355.4719C567.6499,-345.8588 566.1121,-323.8862 545,-323.8862"/>
<polygon fill="#000000" stroke="#000000" points="586.3802,-357.449 592.9033,-363.3151 590.1901,-358.6676 594,-359.8862 594,-359.8862 594,-359.8862 590.1901,-358.6676 595.0967,-356.4573 586.3802,-357.449 586.3802,-357.449"/>
<ellipse fill="none" stroke="#000000" cx="583.3323" cy="-356.4742" rx="3.2" ry="3.2"/>
</g>
<!-- business_partners -->
<g id="node5" class="node">
<title>business_partners</title>
<g id="a_node5"><a xlink:href="../../tables/business_partners.html" xlink:title="business_partners" target="_top">
<polygon fill="#ffffff" stroke="transparent" points="8,-101.3862 8,-180.3862 212,-180.3862 212,-101.3862 8,-101.3862"/>
<polygon fill="#f5f5f5" stroke="transparent" points="8,-150.8862 8,-179.8862 212,-179.8862 212,-150.8862 8,-150.8862"/>
<polygon fill="none" stroke="#000000" points="8,-150.8862 8,-179.8862 212,-179.8862 212,-150.8862 8,-150.8862"/>
<text text-anchor="start" x="13" y="-157.9862" font-family="Helvetica,sans-Serif" font-weight="bold" font-size="16.00" fill="#000000">business_partners</text>
<text text-anchor="start" x="163.7136" y="-160.4862" font-family="Helvetica,sans-Serif" font-size="16.00" fill="#000000">[table]</text>
<polygon fill="none" stroke="#000000" points="8,-125.8862 8,-150.8862 212,-150.8862 212,-125.8862 8,-125.8862"/>
<text text-anchor="start" x="11" y="-133.4862" font-family="Helvetica,sans-Serif" font-size="16.00" fill="#000000">...</text>
<polygon fill="#ffffff" stroke="transparent" points="8,-100.8862 8,-125.8862 76,-125.8862 76,-100.8862 8,-100.8862"/>
<polygon fill="none" stroke="#000000" points="8,-100.8862 8,-125.8862 76,-125.8862 76,-100.8862 8,-100.8862"/>
<text text-anchor="start" x="11" y="-108.4862" font-family="Helvetica,sans-Serif" font-size="16.00" fill="#000000"> &#160;</text>
<polygon fill="#ffffff" stroke="transparent" points="76,-100.8862 76,-125.8862 156,-125.8862 156,-100.8862 76,-100.8862"/>
<polygon fill="none" stroke="#000000" points="76,-100.8862 76,-125.8862 156,-125.8862 156,-100.8862 76,-100.8862"/>
<text text-anchor="start" x="105.888" y="-108.4862" font-family="Helvetica,sans-Serif" font-size="16.00" fill="#000000">4 rows</text>
<polygon fill="#ffffff" stroke="transparent" points="156,-100.8862 156,-125.8862 212,-125.8862 212,-100.8862 156,-100.8862"/>
<polygon fill="none" stroke="#000000" points="156,-100.8862 156,-125.8862 212,-125.8862 212,-100.8862 156,-100.8862"/>
<text text-anchor="start" x="186.3168" y="-108.4862" font-family="Helvetica,sans-Serif" font-size="16.00" fill="#000000">3 &gt;</text>
</a>
</g>
</g>
<!-- projects&#45;&gt;business_partners -->
<g id="edge4" class="edge">
<title>projects:w&#45;&gt;business_partners:e</title>
<path fill="none" stroke="#000000" d="M247.109,-209.132C228.7102,-192.4938 246.067,-137.8862 212,-137.8862"/>
<polygon fill="#000000" stroke="#000000" points="253.431,-211.2957 259.8343,-217.2922 257.2155,-212.5909 261,-213.8862 261,-213.8862 261,-213.8862 257.2155,-212.5909 262.1657,-210.4801 253.431,-211.2957 253.431,-211.2957"/>
<ellipse fill="none" stroke="#000000" cx="250.4034" cy="-210.2595" rx="3.2" ry="3.2"/>
</g>
<!-- project_tags -->
<g id="node3" class="node">
<title>project_tags</title>
<g id="a_node3"><a xlink:href="../../tables/project_tags.html" xlink:title="project_tags" target="_top">
<polygon fill="#ffffff" stroke="transparent" points="807,-195.3862 807,-378.3862 1062,-378.3862 1062,-195.3862 807,-195.3862"/>
<polygon fill="#f5f5f5" stroke="transparent" points="809.5,-346.8862 809.5,-375.8862 1060.5,-375.8862 1060.5,-346.8862 809.5,-346.8862"/>
<polygon fill="none" stroke="#000000" points="809.5,-346.8862 809.5,-375.8862 1060.5,-375.8862 1060.5,-346.8862 809.5,-346.8862"/>
<text text-anchor="start" x="814.5" y="-353.9862" font-family="Helvetica,sans-Serif" font-weight="bold" font-size="16.00" fill="#000000">project_tags</text>
<text text-anchor="start" x="1011.9272" y="-356.4862" font-family="Helvetica,sans-Serif" font-size="16.00" fill="#000000">[table]</text>
<polygon fill="none" stroke="#000000" points="809.5,-321.8862 809.5,-346.8862 931.5,-346.8862 931.5,-321.8862 809.5,-321.8862"/>
<image xlink:href="../../images/primaryKeys.png" width="11px" height="12px" preserveAspectRatio="xMinYMin meet" x="814.5" y="-340.386"/>
<text text-anchor="start" x="829.5" y="-325.9862" font-family="Helvetica,sans-Serif" font-size="16.00" fill="#000000">id</text>
<polygon fill="none" stroke="#000000" points="931.5,-321.8862 931.5,-346.8862 1060.5,-346.8862 1060.5,-321.8862 931.5,-321.8862"/>
<text text-anchor="start" x="934.188" y="-329.4862" font-family="Helvetica,sans-Serif" font-size="16.00" fill="#000000">text[2000000000]</text>
<polygon fill="#ffffff" stroke="transparent" points="809.5,-296.8862 809.5,-321.8862 931.5,-321.8862 931.5,-296.8862 809.5,-296.8862"/>
<polygon fill="none" stroke="#000000" points="809.5,-296.8862 809.5,-321.8862 931.5,-321.8862 931.5,-296.8862 809.5,-296.8862"/>
<image xlink:href="../../images/foreignKeys.png" width="11px" height="12px" preserveAspectRatio="xMinYMin meet" x="814.5" y="-315.386"/>
<text text-anchor="start" x="829.5" y="-300.9862" font-family="Helvetica,sans-Serif" font-size="16.00" fill="#000000">tag_id</text>
<polygon fill="none" stroke="#000000" points="931.5,-296.8862 931.5,-321.8862 1060.5,-321.8862 1060.5,-296.8862 931.5,-296.8862"/>
<text text-anchor="start" x="934.188" y="-304.4862" font-family="Helvetica,sans-Serif" font-size="16.00" fill="#000000">text[2000000000]</text>
<polygon fill="#ffffff" stroke="transparent" points="809.5,-271.8862 809.5,-296.8862 931.5,-296.8862 931.5,-271.8862 809.5,-271.8862"/>
<polygon fill="none" stroke="#000000" points="809.5,-271.8862 809.5,-296.8862 931.5,-296.8862 931.5,-271.8862 809.5,-271.8862"/>
<image xlink:href="../../images/foreignKeys.png" width="11px" height="12px" preserveAspectRatio="xMinYMin meet" x="814.5" y="-290.386"/>
<text text-anchor="start" x="829.5" y="-275.9862" font-family="Helvetica,sans-Serif" font-size="16.00" fill="#000000">project_id</text>
<polygon fill="none" stroke="#000000" points="931.5,-271.8862 931.5,-296.8862 1060.5,-296.8862 1060.5,-271.8862 931.5,-271.8862"/>
<text text-anchor="start" x="934.188" y="-279.4862" font-family="Helvetica,sans-Serif" font-size="16.00" fill="#000000">text[2000000000]</text>
<polygon fill="none" stroke="#000000" points="809.5,-246.8862 809.5,-271.8862 931.5,-271.8862 931.5,-246.8862 809.5,-246.8862"/>
<text text-anchor="start" x="829.5" y="-250.9862" font-family="Helvetica,sans-Serif" font-size="16.00" fill="#000000">inserted_at</text>
<polygon fill="none" stroke="#000000" points="931.5,-246.8862 931.5,-271.8862 1060.5,-271.8862 1060.5,-246.8862 931.5,-246.8862"/>
<text text-anchor="start" x="934.188" y="-254.4862" font-family="Helvetica,sans-Serif" font-size="16.00" fill="#000000">text[2000000000]</text>
<polygon fill="none" stroke="#000000" points="809.5,-221.8862 809.5,-246.8862 931.5,-246.8862 931.5,-221.8862 809.5,-221.8862"/>
<text text-anchor="start" x="829.5" y="-225.9862" font-family="Helvetica,sans-Serif" font-size="16.00" fill="#000000">updated_at</text>
<polygon fill="none" stroke="#000000" points="931.5,-221.8862 931.5,-246.8862 1060.5,-246.8862 1060.5,-221.8862 931.5,-221.8862"/>
<text text-anchor="start" x="934.188" y="-229.4862" font-family="Helvetica,sans-Serif" font-size="16.00" fill="#000000">text[2000000000]</text>
<polygon fill="#ffffff" stroke="transparent" points="809.5,-196.8862 809.5,-221.8862 857.5,-221.8862 857.5,-196.8862 809.5,-196.8862"/>
<polygon fill="none" stroke="#000000" points="809.5,-196.8862 809.5,-221.8862 857.5,-221.8862 857.5,-196.8862 809.5,-196.8862"/>
<text text-anchor="start" x="812.5" y="-204.4862" font-family="Helvetica,sans-Serif" font-size="16.00" fill="#000000">&lt; 2</text>
<polygon fill="#ffffff" stroke="transparent" points="857.5,-196.8862 857.5,-221.8862 931.5,-221.8862 931.5,-196.8862 857.5,-196.8862"/>
<polygon fill="none" stroke="#000000" points="857.5,-196.8862 857.5,-221.8862 931.5,-221.8862 931.5,-196.8862 857.5,-196.8862"/>
<text text-anchor="start" x="881.388" y="-204.4862" font-family="Helvetica,sans-Serif" font-size="16.00" fill="#000000">0 rows</text>
<polygon fill="#ffffff" stroke="transparent" points="931.5,-196.8862 931.5,-221.8862 1060.5,-221.8862 1060.5,-196.8862 931.5,-196.8862"/>
<polygon fill="none" stroke="#000000" points="931.5,-196.8862 931.5,-221.8862 1060.5,-221.8862 1060.5,-196.8862 931.5,-196.8862"/>
<text text-anchor="start" x="1034.8168" y="-204.4862" font-family="Helvetica,sans-Serif" font-size="16.00" fill="#000000">0 &gt;</text>
<polygon fill="none" stroke="#000000" stroke-width="2" points="808,-196.3862 808,-377.3862 1061,-377.3862 1061,-196.3862 808,-196.3862"/>
</a>
</g>
</g>
<!-- project_tags&#45;&gt;projects -->
<g id="edge2" class="edge">
<title>project_tags:w&#45;&gt;projects:e</title>
<path fill="none" stroke="#000000" d="M795.0387,-284.2948C738.6099,-287.1273 630.9063,-303.9898 586,-312.8862 567.493,-316.5526 563.8667,-323.8862 545,-323.8862"/>
<polygon fill="#000000" stroke="#000000" points="801.5032,-284.1122 809.6017,-287.4847 805.5016,-283.9992 809.5,-283.8862 809.5,-283.8862 809.5,-283.8862 805.5016,-283.9992 809.3983,-280.2876 801.5032,-284.1122 801.5032,-284.1122"/>
<ellipse fill="none" stroke="#000000" cx="798.3045" cy="-284.2026" rx="3.2" ry="3.2"/>
</g>
<!-- tags -->
<g id="node4" class="node">
<title>tags</title>
<g id="a_node4"><a xlink:href="../../tables/tags.html" xlink:title="tags" target="_top">
<polygon fill="#ffffff" stroke="transparent" points="620,-151.3862 620,-274.3862 732,-274.3862 732,-151.3862 620,-151.3862"/>
<polygon fill="#f5f5f5" stroke="transparent" points="620,-244.8862 620,-273.8862 732,-273.8862 732,-244.8862 620,-244.8862"/>
<polygon fill="none" stroke="#000000" points="620,-244.8862 620,-273.8862 732,-273.8862 732,-244.8862 620,-244.8862"/>
<text text-anchor="start" x="624.8824" y="-251.9862" font-family="Helvetica,sans-Serif" font-weight="bold" font-size="16.00" fill="#000000">tags</text>
<text text-anchor="start" x="683.4272" y="-254.4862" font-family="Helvetica,sans-Serif" font-size="16.00" fill="#000000">[table]</text>
<polygon fill="none" stroke="#000000" points="620,-222.8862 620,-244.8862 732,-244.8862 732,-222.8862 620,-222.8862"/>
<image xlink:href="../../images/primaryKeys.png" width="11px" height="12px" preserveAspectRatio="xMinYMin meet" x="625" y="-239.886"/>
<text text-anchor="start" x="640" y="-225.4862" font-family="Helvetica,sans-Serif" font-size="16.00" fill="#000000">id</text>
<polygon fill="#ffffff" stroke="transparent" points="620,-200.8862 620,-222.8862 732,-222.8862 732,-200.8862 620,-200.8862"/>
<polygon fill="none" stroke="#000000" points="620,-200.8862 620,-222.8862 732,-222.8862 732,-200.8862 620,-200.8862"/>
<text text-anchor="start" x="640" y="-203.4862" font-family="Helvetica,sans-Serif" font-size="16.00" fill="#000000">name</text>
<polygon fill="none" stroke="#000000" points="620,-175.8862 620,-200.8862 732,-200.8862 732,-175.8862 620,-175.8862"/>
<text text-anchor="start" x="623" y="-183.4862" font-family="Helvetica,sans-Serif" font-size="16.00" fill="#000000">...</text>
<polygon fill="#ffffff" stroke="transparent" points="620,-150.8862 620,-175.8862 642,-175.8862 642,-150.8862 620,-150.8862"/>
<polygon fill="none" stroke="#000000" points="620,-150.8862 620,-175.8862 642,-175.8862 642,-150.8862 620,-150.8862"/>
<text text-anchor="start" x="623" y="-158.4862" font-family="Helvetica,sans-Serif" font-size="16.00" fill="#000000"> &#160;</text>
<polygon fill="#ffffff" stroke="transparent" points="642,-150.8862 642,-175.8862 699,-175.8862 699,-150.8862 642,-150.8862"/>
<polygon fill="none" stroke="#000000" points="642,-150.8862 642,-175.8862 699,-175.8862 699,-150.8862 642,-150.8862"/>
<text text-anchor="start" x="648.888" y="-158.4862" font-family="Helvetica,sans-Serif" font-size="16.00" fill="#000000">5 rows</text>
<polygon fill="#ffffff" stroke="transparent" points="699,-150.8862 699,-175.8862 732,-175.8862 732,-150.8862 699,-150.8862"/>
<polygon fill="none" stroke="#000000" points="699,-150.8862 699,-175.8862 732,-175.8862 732,-150.8862 699,-150.8862"/>
<text text-anchor="start" x="706.3168" y="-158.4862" font-family="Helvetica,sans-Serif" font-size="16.00" fill="#000000">2 &gt;</text>
</a>
</g>
</g>
<!-- project_tags&#45;&gt;tags -->
<g id="edge3" class="edge">
<title>project_tags:w&#45;&gt;tags:e</title>
<path fill="none" stroke="#000000" d="M795.093,-306.9997C764.7838,-293.1174 774.5893,-233.8862 732,-233.8862"/>
<polygon fill="#000000" stroke="#000000" points="801.6559,-308.3145 808.7928,-313.416 805.5779,-309.1004 809.5,-309.8862 809.5,-309.8862 809.5,-309.8862 805.5779,-309.1004 810.2072,-306.3563 801.6559,-308.3145 801.6559,-308.3145"/>
<ellipse fill="none" stroke="#000000" cx="798.5182" cy="-307.6859" rx="3.2" ry="3.2"/>
</g>
<!-- timer_tags -->
<g id="node6" class="node">
<title>timer_tags</title>
<g id="a_node6"><a xlink:href="../../tables/timer_tags.html" xlink:title="timer_tags" target="_top">
<polygon fill="#ffffff" stroke="transparent" points="865.5,-66.3862 865.5,-145.3862 1003.5,-145.3862 1003.5,-66.3862 865.5,-66.3862"/>
<polygon fill="#f5f5f5" stroke="transparent" points="865.5,-115.8862 865.5,-144.8862 1003.5,-144.8862 1003.5,-115.8862 865.5,-115.8862"/>
<polygon fill="none" stroke="#000000" points="865.5,-115.8862 865.5,-144.8862 1003.5,-144.8862 1003.5,-115.8862 865.5,-115.8862"/>
<text text-anchor="start" x="870.5" y="-122.9862" font-family="Helvetica,sans-Serif" font-weight="bold" font-size="16.00" fill="#000000">timer_tags</text>
<text text-anchor="start" x="955.2136" y="-125.4862" font-family="Helvetica,sans-Serif" font-size="16.00" fill="#000000">[table]</text>
<polygon fill="none" stroke="#000000" points="865.5,-90.8862 865.5,-115.8862 1003.5,-115.8862 1003.5,-90.8862 865.5,-90.8862"/>
<text text-anchor="start" x="868.5" y="-98.4862" font-family="Helvetica,sans-Serif" font-size="16.00" fill="#000000">...</text>
<polygon fill="#ffffff" stroke="transparent" points="865.5,-65.8862 865.5,-90.8862 914.5,-90.8862 914.5,-65.8862 865.5,-65.8862"/>
<polygon fill="none" stroke="#000000" points="865.5,-65.8862 865.5,-90.8862 914.5,-90.8862 914.5,-65.8862 865.5,-65.8862"/>
<text text-anchor="start" x="868.5" y="-73.4862" font-family="Helvetica,sans-Serif" font-size="16.00" fill="#000000">&lt; 2</text>
<polygon fill="#ffffff" stroke="transparent" points="914.5,-65.8862 914.5,-90.8862 978.5,-90.8862 978.5,-65.8862 914.5,-65.8862"/>
<polygon fill="none" stroke="#000000" points="914.5,-65.8862 914.5,-90.8862 978.5,-90.8862 978.5,-65.8862 914.5,-65.8862"/>
<text text-anchor="start" x="928.388" y="-73.4862" font-family="Helvetica,sans-Serif" font-size="16.00" fill="#000000">2 rows</text>
<polygon fill="#ffffff" stroke="transparent" points="978.5,-65.8862 978.5,-90.8862 1003.5,-90.8862 1003.5,-65.8862 978.5,-65.8862"/>
<polygon fill="none" stroke="#000000" points="978.5,-65.8862 978.5,-90.8862 1003.5,-90.8862 1003.5,-65.8862 978.5,-65.8862"/>
<text text-anchor="start" x="991.6072" y="-73.4862" font-family="Helvetica,sans-Serif" font-size="16.00" fill="#000000"> &#160;</text>
</a>
</g>
</g>
<!-- timer_tags&#45;&gt;tags -->
<g id="edge5" class="edge">
<title>timer_tags:w&#45;&gt;tags:e</title>
<path fill="none" stroke="#000000" d="M850.8086,-104.4486C786.113,-119.2287 809.7702,-233.8862 732,-233.8862"/>
<polygon fill="#000000" stroke="#000000" points="857.5449,-103.7323 865.8807,-106.466 861.5224,-103.3092 865.5,-102.8862 865.5,-102.8862 865.5,-102.8862 861.5224,-103.3092 865.1193,-99.3064 857.5449,-103.7323 857.5449,-103.7323"/>
<ellipse fill="none" stroke="#000000" cx="854.3628" cy="-104.0707" rx="3.2" ry="3.2"/>
</g>
<!-- timers -->
<g id="node7" class="node">
<title>timers</title>
<g id="a_node7"><a xlink:href="../../tables/timers.html" xlink:title="timers" target="_top">
<polygon fill="#ffffff" stroke="transparent" points="617,-51.3862 617,-130.3862 735,-130.3862 735,-51.3862 617,-51.3862"/>
<polygon fill="#f5f5f5" stroke="transparent" points="617,-100.8862 617,-129.8862 735,-129.8862 735,-100.8862 617,-100.8862"/>
<polygon fill="none" stroke="#000000" points="617,-100.8862 617,-129.8862 735,-129.8862 735,-100.8862 617,-100.8862"/>
<text text-anchor="start" x="622" y="-107.9862" font-family="Helvetica,sans-Serif" font-weight="bold" font-size="16.00" fill="#000000">timers</text>
<text text-anchor="start" x="686.4272" y="-110.4862" font-family="Helvetica,sans-Serif" font-size="16.00" fill="#000000">[table]</text>
<polygon fill="none" stroke="#000000" points="617,-75.8862 617,-100.8862 735,-100.8862 735,-75.8862 617,-75.8862"/>
<text text-anchor="start" x="620" y="-83.4862" font-family="Helvetica,sans-Serif" font-size="16.00" fill="#000000">...</text>
<polygon fill="#ffffff" stroke="transparent" points="617,-50.8862 617,-75.8862 645,-75.8862 645,-50.8862 617,-50.8862"/>
<polygon fill="none" stroke="#000000" points="617,-50.8862 617,-75.8862 645,-75.8862 645,-50.8862 617,-50.8862"/>
<text text-anchor="start" x="619.6584" y="-58.4862" font-family="Helvetica,sans-Serif" font-size="16.00" fill="#000000">&lt; 3</text>
<polygon fill="#ffffff" stroke="transparent" points="645,-50.8862 645,-75.8862 707,-75.8862 707,-50.8862 645,-50.8862"/>
<polygon fill="none" stroke="#000000" points="645,-50.8862 645,-75.8862 707,-75.8862 707,-50.8862 645,-50.8862"/>
<text text-anchor="start" x="647.9968" y="-58.4862" font-family="Helvetica,sans-Serif" font-size="16.00" fill="#000000">65 rows</text>
<polygon fill="#ffffff" stroke="transparent" points="707,-50.8862 707,-75.8862 735,-75.8862 735,-50.8862 707,-50.8862"/>
<polygon fill="none" stroke="#000000" points="707,-50.8862 707,-75.8862 735,-75.8862 735,-50.8862 707,-50.8862"/>
<text text-anchor="start" x="709.6584" y="-58.4862" font-family="Helvetica,sans-Serif" font-size="16.00" fill="#000000">2 &gt;</text>
</a>
</g>
</g>
<!-- timer_tags&#45;&gt;timers -->
<g id="edge6" class="edge">
<title>timer_tags:w&#45;&gt;timers:e</title>
<path fill="none" stroke="#000000" d="M851.0803,-102.5589C804.3587,-100.3653 788.2507,-87.8862 735,-87.8862"/>
<polygon fill="#000000" stroke="#000000" points="857.5021,-102.7046 865.4183,-106.4852 861.501,-102.7954 865.5,-102.8862 865.5,-102.8862 865.5,-102.8862 861.501,-102.7954 865.5817,-99.2871 857.5021,-102.7046 857.5021,-102.7046"/>
<ellipse fill="none" stroke="#000000" cx="854.3029" cy="-102.632" rx="3.2" ry="3.2"/>
</g>
<!-- timers&#45;&gt;projects -->
<g id="edge8" class="edge">
<title>timers:w&#45;&gt;projects:e</title>
<path fill="none" stroke="#000000" d="M603.0417,-91.7904C591.7213,-100.2815 593.7273,-121.2452 586,-140.8862 570.7424,-179.6676 586.6748,-323.8862 545,-323.8862"/>
<polygon fill="#000000" stroke="#000000" points="609.2957,-90.0412 617.9698,-91.3531 613.1479,-88.9637 617,-87.8862 617,-87.8862 617,-87.8862 613.1479,-88.9637 616.0302,-84.4192 609.2957,-90.0412 609.2957,-90.0412"/>
<ellipse fill="none" stroke="#000000" cx="606.214" cy="-90.9032" rx="3.2" ry="3.2"/>
</g>
<!-- timers&#45;&gt;business_partners -->
<g id="edge7" class="edge">
<title>timers:w&#45;&gt;business_partners:e</title>
<path fill="none" stroke="#000000" d="M602.5834,-87.0495C584.8758,-84.8376 576.2528,-78.8699 553,-76.8862 420.1492,-65.5524 370.6751,-14.1937 253,-76.8862 224.1703,-92.2455 244.6659,-137.8862 212,-137.8862"/>
<polygon fill="#000000" stroke="#000000" points="609.0134,-87.4226 616.7914,-91.4801 613.0067,-87.6544 617,-87.8862 617,-87.8862 617,-87.8862 613.0067,-87.6544 617.2086,-84.2922 609.0134,-87.4226 609.0134,-87.4226"/>
<ellipse fill="none" stroke="#000000" cx="605.8188" cy="-87.2372" rx="3.2" ry="3.2"/>
</g>
</g>
</svg>
