<?xml version="1.0" encoding="UTF-8" standalone="no"?>
<!DOCTYPE svg PUBLIC "-//W3C//DTD SVG 1.1//EN"
 "http://www.w3.org/Graphics/SVG/1.1/DTD/svg11.dtd">
<!-- Generated by graphviz version 2.40.1 (20161225.0304)
 -->
<!-- Title: oneDegreeRelationshipsDiagram Pages: 1 -->
<svg width="622pt" height="393pt"
 viewBox="0.00 0.00 622.00 393.20" xmlns="http://www.w3.org/2000/svg" xmlns:xlink="http://www.w3.org/1999/xlink">
<g id="graph0" class="graph" transform="scale(1 1) rotate(0) translate(4 389.2)">
<title>oneDegreeRelationshipsDiagram</title>
<polygon fill="#ffffff" stroke="transparent" points="-4,4 -4,-389.2 618,-389.2 618,4 -4,4"/>
<text text-anchor="middle" x="101.8088" y="-8.8" font-family="Helvetica,sans-Serif" font-size="16.00" fill="#000000">Generated by SchemaSpy</text>
<!-- project_notes -->
<g id="node1" class="node">
<title>project_notes</title>
<g id="a_node1"><a xlink:href="../../tables/project_notes.html" xlink:title="project_notes" target="_top">
<polygon fill="#ffffff" stroke="transparent" points="341,-198.2 341,-381.2 606,-381.2 606,-198.2 341,-198.2"/>
<polygon fill="#f5f5f5" stroke="transparent" points="343.5,-349.7 343.5,-378.7 604.5,-378.7 604.5,-349.7 343.5,-349.7"/>
<polygon fill="none" stroke="#000000" points="343.5,-349.7 343.5,-378.7 604.5,-378.7 604.5,-349.7 343.5,-349.7"/>
<text text-anchor="start" x="348.5" y="-356.8" font-family="Helvetica,sans-Serif" font-weight="bold" font-size="16.00" fill="#000000">project_notes</text>
<text text-anchor="start" x="555.9272" y="-359.3" font-family="Helvetica,sans-Serif" font-size="16.00" fill="#000000">[table]</text>
<polygon fill="none" stroke="#000000" points="343.5,-324.7 343.5,-349.7 475.5,-349.7 475.5,-324.7 343.5,-324.7"/>
<image xlink:href="../../images/primaryKeys.png" width="11px" height="12px" preserveAspectRatio="xMinYMin meet" x="348.5" y="-343.2"/>
<text text-anchor="start" x="363.5" y="-328.8" font-family="Helvetica,sans-Serif" font-size="16.00" fill="#000000">id</text>
<polygon fill="none" stroke="#000000" points="475.5,-324.7 475.5,-349.7 604.5,-349.7 604.5,-324.7 475.5,-324.7"/>
<text text-anchor="start" x="478.188" y="-332.3" font-family="Helvetica,sans-Serif" font-size="16.00" fill="#000000">text[2000000000]</text>
<polygon fill="none" stroke="#000000" points="343.5,-299.7 343.5,-324.7 475.5,-324.7 475.5,-299.7 343.5,-299.7"/>
<text text-anchor="start" x="363.5" y="-303.8" font-family="Helvetica,sans-Serif" font-size="16.00" fill="#000000">note</text>
<polygon fill="none" stroke="#000000" points="475.5,-299.7 475.5,-324.7 604.5,-324.7 604.5,-299.7 475.5,-299.7"/>
<text text-anchor="start" x="478.188" y="-307.3" font-family="Helvetica,sans-Serif" font-size="16.00" fill="#000000">text[2000000000]</text>
<polygon fill="#ffffff" stroke="transparent" points="343.5,-274.7 343.5,-299.7 475.5,-299.7 475.5,-274.7 343.5,-274.7"/>
<polygon fill="none" stroke="#000000" points="343.5,-274.7 343.5,-299.7 475.5,-299.7 475.5,-274.7 343.5,-274.7"/>
<image xlink:href="../../images/foreignKeys.png" width="11px" height="12px" preserveAspectRatio="xMinYMin meet" x="348.5" y="-293.2"/>
<text text-anchor="start" x="363.5" y="-278.8" font-family="Helvetica,sans-Serif" font-size="16.00" fill="#000000">project_id</text>
<polygon fill="none" stroke="#000000" points="475.5,-274.7 475.5,-299.7 604.5,-299.7 604.5,-274.7 475.5,-274.7"/>
<text text-anchor="start" x="478.188" y="-282.3" font-family="Helvetica,sans-Serif" font-size="16.00" fill="#000000">text[2000000000]</text>
<polygon fill="#ffffff" stroke="transparent" points="343.5,-249.7 343.5,-274.7 475.5,-274.7 475.5,-249.7 343.5,-249.7"/>
<polygon fill="none" stroke="#000000" points="343.5,-249.7 343.5,-274.7 475.5,-274.7 475.5,-249.7 343.5,-249.7"/>
<text text-anchor="start" x="363.5" y="-253.8" font-family="Helvetica,sans-Serif" font-size="16.00" fill="#000000">inserted_at</text>
<polygon fill="none" stroke="#000000" points="475.5,-249.7 475.5,-274.7 604.5,-274.7 604.5,-249.7 475.5,-249.7"/>
<text text-anchor="start" x="478.188" y="-257.3" font-family="Helvetica,sans-Serif" font-size="16.00" fill="#000000">text[2000000000]</text>
<polygon fill="#ffffff" stroke="transparent" points="343.5,-224.7 343.5,-249.7 475.5,-249.7 475.5,-224.7 343.5,-224.7"/>
<polygon fill="none" stroke="#000000" points="343.5,-224.7 343.5,-249.7 475.5,-249.7 475.5,-224.7 343.5,-224.7"/>
<text text-anchor="start" x="363.5" y="-228.8" font-family="Helvetica,sans-Serif" font-size="16.00" fill="#000000">updated_at</text>
<polygon fill="none" stroke="#000000" points="475.5,-224.7 475.5,-249.7 604.5,-249.7 604.5,-224.7 475.5,-224.7"/>
<text text-anchor="start" x="478.188" y="-232.3" font-family="Helvetica,sans-Serif" font-size="16.00" fill="#000000">text[2000000000]</text>
<polygon fill="#ffffff" stroke="transparent" points="343.5,-199.7 343.5,-224.7 396.5,-224.7 396.5,-199.7 343.5,-199.7"/>
<polygon fill="none" stroke="#000000" points="343.5,-199.7 343.5,-224.7 396.5,-224.7 396.5,-199.7 343.5,-199.7"/>
<text text-anchor="start" x="346.5" y="-207.3" font-family="Helvetica,sans-Serif" font-size="16.00" fill="#000000">&lt; 1</text>
<polygon fill="#ffffff" stroke="transparent" points="396.5,-199.7 396.5,-224.7 475.5,-224.7 475.5,-199.7 396.5,-199.7"/>
<polygon fill="none" stroke="#000000" points="396.5,-199.7 396.5,-224.7 475.5,-224.7 475.5,-199.7 396.5,-199.7"/>
<text text-anchor="start" x="425.388" y="-207.3" font-family="Helvetica,sans-Serif" font-size="16.00" fill="#000000">0 rows</text>
<polygon fill="#ffffff" stroke="transparent" points="475.5,-199.7 475.5,-224.7 604.5,-224.7 604.5,-199.7 475.5,-199.7"/>
<polygon fill="none" stroke="#000000" points="475.5,-199.7 475.5,-224.7 604.5,-224.7 604.5,-199.7 475.5,-199.7"/>
<text text-anchor="start" x="578.8168" y="-207.3" font-family="Helvetica,sans-Serif" font-size="16.00" fill="#000000">0 &gt;</text>
<polygon fill="none" stroke="#000000" stroke-width="2" points="342,-199.2 342,-380.2 605,-380.2 605,-199.2 342,-199.2"/>
</a>
</g>
</g>
<!-- projects -->
<g id="node2" class="node">
<title>projects</title>
<g id="a_node2"><a xlink:href="../../tables/projects.html" xlink:title="projects" target="_top">
<polygon fill="#ffffff" stroke="transparent" points="8,-50.2 8,-327.2 292,-327.2 292,-50.2 8,-50.2"/>
<polygon fill="#f5f5f5" stroke="transparent" points="8,-297.7 8,-326.7 292,-326.7 292,-297.7 8,-297.7"/>
<polygon fill="none" stroke="#000000" points="8,-297.7 8,-326.7 292,-326.7 292,-297.7 8,-297.7"/>
<text text-anchor="start" x="13" y="-304.8" font-family="Helvetica,sans-Serif" font-weight="bold" font-size="16.00" fill="#000000">projects</text>
<text text-anchor="start" x="243.4272" y="-307.3" font-family="Helvetica,sans-Serif" font-size="16.00" fill="#000000">[table]</text>
<polygon fill="none" stroke="#000000" points="8,-275.7 8,-297.7 292,-297.7 292,-275.7 8,-275.7"/>
<image xlink:href="../../images/primaryKeys.png" width="11px" height="12px" preserveAspectRatio="xMinYMin meet" x="13" y="-292.7"/>
<text text-anchor="start" x="28" y="-278.3" font-family="Helvetica,sans-Serif" font-size="16.00" fill="#000000">id</text>
<polygon fill="#ffffff" stroke="transparent" points="8,-253.7 8,-275.7 292,-275.7 292,-253.7 8,-253.7"/>
<polygon fill="none" stroke="#000000" points="8,-253.7 8,-275.7 292,-275.7 292,-253.7 8,-253.7"/>
<text text-anchor="start" x="28" y="-256.3" font-family="Helvetica,sans-Serif" font-size="16.00" fill="#000000">name</text>
<polygon fill="#ffffff" stroke="transparent" points="8,-231.7 8,-253.7 292,-253.7 292,-231.7 8,-231.7"/>
<polygon fill="none" stroke="#000000" points="8,-231.7 8,-253.7 292,-253.7 292,-231.7 8,-231.7"/>
<text text-anchor="start" x="28" y="-234.3" font-family="Helvetica,sans-Serif" font-size="16.00" fill="#000000">status</text>
<polygon fill="#ffffff" stroke="transparent" points="8,-209.7 8,-231.7 292,-231.7 292,-209.7 8,-209.7"/>
<polygon fill="none" stroke="#000000" points="8,-209.7 8,-231.7 292,-231.7 292,-209.7 8,-209.7"/>
<text text-anchor="start" x="28" y="-212.3" font-family="Helvetica,sans-Serif" font-size="16.00" fill="#000000">project_type</text>
<polygon fill="#ffffff" stroke="transparent" points="8,-187.7 8,-209.7 292,-209.7 292,-187.7 8,-187.7"/>
<polygon fill="none" stroke="#000000" points="8,-187.7 8,-209.7 292,-209.7 292,-187.7 8,-187.7"/>
<text text-anchor="start" x="28" y="-190.3" font-family="Helvetica,sans-Serif" font-size="16.00" fill="#000000">priority</text>
<polygon fill="#ffffff" stroke="transparent" points="8,-165.7 8,-187.7 292,-187.7 292,-165.7 8,-165.7"/>
<polygon fill="none" stroke="#000000" points="8,-165.7 8,-187.7 292,-187.7 292,-165.7 8,-165.7"/>
<image xlink:href="../../images/foreignKeys.png" width="11px" height="12px" preserveAspectRatio="xMinYMin meet" x="13" y="-182.7"/>
<text text-anchor="start" x="28" y="-168.3" font-family="Helvetica,sans-Serif" font-size="16.00" fill="#000000">business_partner_id</text>
<polygon fill="#ffffff" stroke="transparent" points="8,-143.7 8,-165.7 292,-165.7 292,-143.7 8,-143.7"/>
<polygon fill="none" stroke="#000000" points="8,-143.7 8,-165.7 292,-165.7 292,-143.7 8,-143.7"/>
<text text-anchor="start" x="28" y="-146.3" font-family="Helvetica,sans-Serif" font-size="16.00" fill="#000000">billable</text>
<polygon fill="#ffffff" stroke="transparent" points="8,-121.7 8,-143.7 292,-143.7 292,-121.7 8,-121.7"/>
<polygon fill="none" stroke="#000000" points="8,-121.7 8,-143.7 292,-143.7 292,-121.7 8,-121.7"/>
<text text-anchor="start" x="28" y="-124.3" font-family="Helvetica,sans-Serif" font-size="16.00" fill="#000000">active</text>
<polygon fill="#ffffff" stroke="transparent" points="8,-99.7 8,-121.7 292,-121.7 292,-99.7 8,-99.7"/>
<polygon fill="none" stroke="#000000" points="8,-99.7 8,-121.7 292,-121.7 292,-99.7 8,-99.7"/>
<text text-anchor="start" x="28" y="-102.3" font-family="Helvetica,sans-Serif" font-size="16.00" fill="#000000">inserted_at</text>
<polygon fill="none" stroke="#000000" points="8,-74.7 8,-99.7 292,-99.7 292,-74.7 8,-74.7"/>
<text text-anchor="start" x="11" y="-82.3" font-family="Helvetica,sans-Serif" font-size="16.00" fill="#000000">...</text>
<polygon fill="#ffffff" stroke="transparent" points="8,-49.7 8,-74.7 119,-74.7 119,-49.7 8,-49.7"/>
<polygon fill="none" stroke="#000000" points="8,-49.7 8,-74.7 119,-74.7 119,-49.7 8,-49.7"/>
<text text-anchor="start" x="11" y="-57.3" font-family="Helvetica,sans-Serif" font-size="16.00" fill="#000000">&lt; 1</text>
<polygon fill="#ffffff" stroke="transparent" points="119,-49.7 119,-74.7 222,-74.7 222,-49.7 119,-49.7"/>
<polygon fill="none" stroke="#000000" points="119,-49.7 119,-74.7 222,-74.7 222,-49.7 119,-49.7"/>
<text text-anchor="start" x="162.9936" y="-57.3" font-family="Helvetica,sans-Serif" font-size="16.00" fill="#000000">13 rows</text>
<polygon fill="#ffffff" stroke="transparent" points="222,-49.7 222,-74.7 292,-74.7 292,-49.7 222,-49.7"/>
<polygon fill="none" stroke="#000000" points="222,-49.7 222,-74.7 292,-74.7 292,-49.7 222,-49.7"/>
<text text-anchor="start" x="266.3168" y="-57.3" font-family="Helvetica,sans-Serif" font-size="16.00" fill="#000000">3 &gt;</text>
</a>
</g>
</g>
<!-- project_notes&#45;&gt;projects -->
<g id="edge1" class="edge">
<title>project_notes:w&#45;&gt;projects:e</title>
<path fill="none" stroke="#000000" d="M329.0156,-286.7C316.6771,-286.7 309.1667,-286.7 292,-286.7"/>
<polygon fill="#000000" stroke="#000000" points="335.5,-286.7001 343.5,-290.3 339.5,-286.7 343.5,-286.7 343.5,-286.7 343.5,-286.7 339.5,-286.7 343.5,-283.1 335.5,-286.7001 335.5,-286.7001"/>
<ellipse fill="none" stroke="#000000" cx="332.3" cy="-286.7001" rx="3.2" ry="3.2"/>
</g>
</g>
</svg>
