<?xml version="1.0" encoding="UTF-8" standalone="no"?>
<!DOCTYPE svg PUBLIC "-//W3C//DTD SVG 1.1//EN"
 "http://www.w3.org/Graphics/SVG/1.1/DTD/svg11.dtd">
<!-- Generated by graphviz version 2.40.1 (20161225.0304)
 -->
<!-- Title: oneDegreeRelationshipsDiagram Pages: 1 -->
<svg width="612pt" height="483pt"
 viewBox="0.00 0.00 612.00 483.20" xmlns="http://www.w3.org/2000/svg" xmlns:xlink="http://www.w3.org/1999/xlink">
<g id="graph0" class="graph" transform="scale(1 1) rotate(0) translate(4 479.2)">
<title>oneDegreeRelationshipsDiagram</title>
<polygon fill="#ffffff" stroke="transparent" points="-4,4 -4,-479.2 608,-479.2 608,4 -4,4"/>
<text text-anchor="middle" x="101.8088" y="-8.8" font-family="Helvetica,sans-Serif" font-size="16.00" fill="#000000">Generated by SchemaSpy</text>
<!-- project_tags -->
<g id="node1" class="node">
<title>project_tags</title>
<g id="a_node1"><a xlink:href="../../tables/project_tags.html" xlink:title="project_tags" target="_top">
<polygon fill="#ffffff" stroke="transparent" points="341,-257.2 341,-440.2 596,-440.2 596,-257.2 341,-257.2"/>
<polygon fill="#f5f5f5" stroke="transparent" points="343.5,-408.7 343.5,-437.7 594.5,-437.7 594.5,-408.7 343.5,-408.7"/>
<polygon fill="none" stroke="#000000" points="343.5,-408.7 343.5,-437.7 594.5,-437.7 594.5,-408.7 343.5,-408.7"/>
<text text-anchor="start" x="348.5" y="-415.8" font-family="Helvetica,sans-Serif" font-weight="bold" font-size="16.00" fill="#000000">project_tags</text>
<text text-anchor="start" x="545.9272" y="-418.3" font-family="Helvetica,sans-Serif" font-size="16.00" fill="#000000">[table]</text>
<polygon fill="none" stroke="#000000" points="343.5,-383.7 343.5,-408.7 465.5,-408.7 465.5,-383.7 343.5,-383.7"/>
<image xlink:href="../../images/primaryKeys.png" width="11px" height="12px" preserveAspectRatio="xMinYMin meet" x="348.5" y="-402.2"/>
<text text-anchor="start" x="363.5" y="-387.8" font-family="Helvetica,sans-Serif" font-size="16.00" fill="#000000">id</text>
<polygon fill="none" stroke="#000000" points="465.5,-383.7 465.5,-408.7 594.5,-408.7 594.5,-383.7 465.5,-383.7"/>
<text text-anchor="start" x="468.188" y="-391.3" font-family="Helvetica,sans-Serif" font-size="16.00" fill="#000000">text[2000000000]</text>
<polygon fill="#ffffff" stroke="transparent" points="343.5,-358.7 343.5,-383.7 465.5,-383.7 465.5,-358.7 343.5,-358.7"/>
<polygon fill="none" stroke="#000000" points="343.5,-358.7 343.5,-383.7 465.5,-383.7 465.5,-358.7 343.5,-358.7"/>
<image xlink:href="../../images/foreignKeys.png" width="11px" height="12px" preserveAspectRatio="xMinYMin meet" x="348.5" y="-377.2"/>
<text text-anchor="start" x="363.5" y="-362.8" font-family="Helvetica,sans-Serif" font-size="16.00" fill="#000000">tag_id</text>
<polygon fill="none" stroke="#000000" points="465.5,-358.7 465.5,-383.7 594.5,-383.7 594.5,-358.7 465.5,-358.7"/>
<text text-anchor="start" x="468.188" y="-366.3" font-family="Helvetica,sans-Serif" font-size="16.00" fill="#000000">text[2000000000]</text>
<polygon fill="#ffffff" stroke="transparent" points="343.5,-333.7 343.5,-358.7 465.5,-358.7 465.5,-333.7 343.5,-333.7"/>
<polygon fill="none" stroke="#000000" points="343.5,-333.7 343.5,-358.7 465.5,-358.7 465.5,-333.7 343.5,-333.7"/>
<image xlink:href="../../images/foreignKeys.png" width="11px" height="12px" preserveAspectRatio="xMinYMin meet" x="348.5" y="-352.2"/>
<text text-anchor="start" x="363.5" y="-337.8" font-family="Helvetica,sans-Serif" font-size="16.00" fill="#000000">project_id</text>
<polygon fill="none" stroke="#000000" points="465.5,-333.7 465.5,-358.7 594.5,-358.7 594.5,-333.7 465.5,-333.7"/>
<text text-anchor="start" x="468.188" y="-341.3" font-family="Helvetica,sans-Serif" font-size="16.00" fill="#000000">text[2000000000]</text>
<polygon fill="none" stroke="#000000" points="343.5,-308.7 343.5,-333.7 465.5,-333.7 465.5,-308.7 343.5,-308.7"/>
<text text-anchor="start" x="363.5" y="-312.8" font-family="Helvetica,sans-Serif" font-size="16.00" fill="#000000">inserted_at</text>
<polygon fill="none" stroke="#000000" points="465.5,-308.7 465.5,-333.7 594.5,-333.7 594.5,-308.7 465.5,-308.7"/>
<text text-anchor="start" x="468.188" y="-316.3" font-family="Helvetica,sans-Serif" font-size="16.00" fill="#000000">text[2000000000]</text>
<polygon fill="none" stroke="#000000" points="343.5,-283.7 343.5,-308.7 465.5,-308.7 465.5,-283.7 343.5,-283.7"/>
<text text-anchor="start" x="363.5" y="-287.8" font-family="Helvetica,sans-Serif" font-size="16.00" fill="#000000">updated_at</text>
<polygon fill="none" stroke="#000000" points="465.5,-283.7 465.5,-308.7 594.5,-308.7 594.5,-283.7 465.5,-283.7"/>
<text text-anchor="start" x="468.188" y="-291.3" font-family="Helvetica,sans-Serif" font-size="16.00" fill="#000000">text[2000000000]</text>
<polygon fill="#ffffff" stroke="transparent" points="343.5,-258.7 343.5,-283.7 391.5,-283.7 391.5,-258.7 343.5,-258.7"/>
<polygon fill="none" stroke="#000000" points="343.5,-258.7 343.5,-283.7 391.5,-283.7 391.5,-258.7 343.5,-258.7"/>
<text text-anchor="start" x="346.5" y="-266.3" font-family="Helvetica,sans-Serif" font-size="16.00" fill="#000000">&lt; 2</text>
<polygon fill="#ffffff" stroke="transparent" points="391.5,-258.7 391.5,-283.7 465.5,-283.7 465.5,-258.7 391.5,-258.7"/>
<polygon fill="none" stroke="#000000" points="391.5,-258.7 391.5,-283.7 465.5,-283.7 465.5,-258.7 391.5,-258.7"/>
<text text-anchor="start" x="415.388" y="-266.3" font-family="Helvetica,sans-Serif" font-size="16.00" fill="#000000">0 rows</text>
<polygon fill="#ffffff" stroke="transparent" points="465.5,-258.7 465.5,-283.7 594.5,-283.7 594.5,-258.7 465.5,-258.7"/>
<polygon fill="none" stroke="#000000" points="465.5,-258.7 465.5,-283.7 594.5,-283.7 594.5,-258.7 465.5,-258.7"/>
<text text-anchor="start" x="568.8168" y="-266.3" font-family="Helvetica,sans-Serif" font-size="16.00" fill="#000000">0 &gt;</text>
<polygon fill="none" stroke="#000000" stroke-width="2" points="342,-258.2 342,-439.2 595,-439.2 595,-258.2 342,-258.2"/>
</a>
</g>
</g>
<!-- projects -->
<g id="node2" class="node">
<title>projects</title>
<g id="a_node2"><a xlink:href="../../tables/projects.html" xlink:title="projects" target="_top">
<polygon fill="#ffffff" stroke="transparent" points="8,-50.2 8,-327.2 292,-327.2 292,-50.2 8,-50.2"/>
<polygon fill="#f5f5f5" stroke="transparent" points="8,-297.7 8,-326.7 292,-326.7 292,-297.7 8,-297.7"/>
<polygon fill="none" stroke="#000000" points="8,-297.7 8,-326.7 292,-326.7 292,-297.7 8,-297.7"/>
<text text-anchor="start" x="13" y="-304.8" font-family="Helvetica,sans-Serif" font-weight="bold" font-size="16.00" fill="#000000">projects</text>
<text text-anchor="start" x="243.4272" y="-307.3" font-family="Helvetica,sans-Serif" font-size="16.00" fill="#000000">[table]</text>
<polygon fill="none" stroke="#000000" points="8,-275.7 8,-297.7 292,-297.7 292,-275.7 8,-275.7"/>
<image xlink:href="../../images/primaryKeys.png" width="11px" height="12px" preserveAspectRatio="xMinYMin meet" x="13" y="-292.7"/>
<text text-anchor="start" x="28" y="-278.3" font-family="Helvetica,sans-Serif" font-size="16.00" fill="#000000">id</text>
<polygon fill="#ffffff" stroke="transparent" points="8,-253.7 8,-275.7 292,-275.7 292,-253.7 8,-253.7"/>
<polygon fill="none" stroke="#000000" points="8,-253.7 8,-275.7 292,-275.7 292,-253.7 8,-253.7"/>
<text text-anchor="start" x="28" y="-256.3" font-family="Helvetica,sans-Serif" font-size="16.00" fill="#000000">name</text>
<polygon fill="#ffffff" stroke="transparent" points="8,-231.7 8,-253.7 292,-253.7 292,-231.7 8,-231.7"/>
<polygon fill="none" stroke="#000000" points="8,-231.7 8,-253.7 292,-253.7 292,-231.7 8,-231.7"/>
<text text-anchor="start" x="28" y="-234.3" font-family="Helvetica,sans-Serif" font-size="16.00" fill="#000000">status</text>
<polygon fill="#ffffff" stroke="transparent" points="8,-209.7 8,-231.7 292,-231.7 292,-209.7 8,-209.7"/>
<polygon fill="none" stroke="#000000" points="8,-209.7 8,-231.7 292,-231.7 292,-209.7 8,-209.7"/>
<text text-anchor="start" x="28" y="-212.3" font-family="Helvetica,sans-Serif" font-size="16.00" fill="#000000">project_type</text>
<polygon fill="#ffffff" stroke="transparent" points="8,-187.7 8,-209.7 292,-209.7 292,-187.7 8,-187.7"/>
<polygon fill="none" stroke="#000000" points="8,-187.7 8,-209.7 292,-209.7 292,-187.7 8,-187.7"/>
<text text-anchor="start" x="28" y="-190.3" font-family="Helvetica,sans-Serif" font-size="16.00" fill="#000000">priority</text>
<polygon fill="#ffffff" stroke="transparent" points="8,-165.7 8,-187.7 292,-187.7 292,-165.7 8,-165.7"/>
<polygon fill="none" stroke="#000000" points="8,-165.7 8,-187.7 292,-187.7 292,-165.7 8,-165.7"/>
<image xlink:href="../../images/foreignKeys.png" width="11px" height="12px" preserveAspectRatio="xMinYMin meet" x="13" y="-182.7"/>
<text text-anchor="start" x="28" y="-168.3" font-family="Helvetica,sans-Serif" font-size="16.00" fill="#000000">business_partner_id</text>
<polygon fill="#ffffff" stroke="transparent" points="8,-143.7 8,-165.7 292,-165.7 292,-143.7 8,-143.7"/>
<polygon fill="none" stroke="#000000" points="8,-143.7 8,-165.7 292,-165.7 292,-143.7 8,-143.7"/>
<text text-anchor="start" x="28" y="-146.3" font-family="Helvetica,sans-Serif" font-size="16.00" fill="#000000">billable</text>
<polygon fill="#ffffff" stroke="transparent" points="8,-121.7 8,-143.7 292,-143.7 292,-121.7 8,-121.7"/>
<polygon fill="none" stroke="#000000" points="8,-121.7 8,-143.7 292,-143.7 292,-121.7 8,-121.7"/>
<text text-anchor="start" x="28" y="-124.3" font-family="Helvetica,sans-Serif" font-size="16.00" fill="#000000">active</text>
<polygon fill="#ffffff" stroke="transparent" points="8,-99.7 8,-121.7 292,-121.7 292,-99.7 8,-99.7"/>
<polygon fill="none" stroke="#000000" points="8,-99.7 8,-121.7 292,-121.7 292,-99.7 8,-99.7"/>
<text text-anchor="start" x="28" y="-102.3" font-family="Helvetica,sans-Serif" font-size="16.00" fill="#000000">inserted_at</text>
<polygon fill="none" stroke="#000000" points="8,-74.7 8,-99.7 292,-99.7 292,-74.7 8,-74.7"/>
<text text-anchor="start" x="11" y="-82.3" font-family="Helvetica,sans-Serif" font-size="16.00" fill="#000000">...</text>
<polygon fill="#ffffff" stroke="transparent" points="8,-49.7 8,-74.7 123,-74.7 123,-49.7 8,-49.7"/>
<polygon fill="none" stroke="#000000" points="8,-49.7 8,-74.7 123,-74.7 123,-49.7 8,-49.7"/>
<text text-anchor="start" x="11" y="-57.3" font-family="Helvetica,sans-Serif" font-size="16.00" fill="#000000">&lt; 1</text>
<polygon fill="#ffffff" stroke="transparent" points="123,-49.7 123,-74.7 220,-74.7 220,-49.7 123,-49.7"/>
<polygon fill="none" stroke="#000000" points="123,-49.7 123,-74.7 220,-74.7 220,-49.7 123,-49.7"/>
<text text-anchor="start" x="169.888" y="-57.3" font-family="Helvetica,sans-Serif" font-size="16.00" fill="#000000">0 rows</text>
<polygon fill="#ffffff" stroke="transparent" points="220,-49.7 220,-74.7 292,-74.7 292,-49.7 220,-49.7"/>
<polygon fill="none" stroke="#000000" points="220,-49.7 220,-74.7 292,-74.7 292,-49.7 220,-49.7"/>
<text text-anchor="start" x="266.3168" y="-57.3" font-family="Helvetica,sans-Serif" font-size="16.00" fill="#000000">3 &gt;</text>
</a>
</g>
</g>
<!-- project_tags&#45;&gt;projects -->
<g id="edge1" class="edge">
<title>project_tags:w&#45;&gt;projects:e</title>
<path fill="none" stroke="#000000" d="M329.7053,-341.0704C313.3565,-327.1617 320.8243,-286.7 292,-286.7"/>
<polygon fill="#000000" stroke="#000000" points="335.9157,-343.1546 342.3546,-349.1129 339.7079,-344.4273 343.5,-345.7 343.5,-345.7 343.5,-345.7 339.7079,-344.4273 344.6454,-342.2871 335.9157,-343.1546 335.9157,-343.1546"/>
<ellipse fill="none" stroke="#000000" cx="332.882" cy="-342.1364" rx="3.2" ry="3.2"/>
</g>
<!-- tags -->
<g id="node3" class="node">
<title>tags</title>
<g id="a_node3"><a xlink:href="../../tables/tags.html" xlink:title="tags" target="_top">
<polygon fill="#ffffff" stroke="transparent" points="94,-348.2 94,-471.2 206,-471.2 206,-348.2 94,-348.2"/>
<polygon fill="#f5f5f5" stroke="transparent" points="94,-441.7 94,-470.7 206,-470.7 206,-441.7 94,-441.7"/>
<polygon fill="none" stroke="#000000" points="94,-441.7 94,-470.7 206,-470.7 206,-441.7 94,-441.7"/>
<text text-anchor="start" x="98.8824" y="-448.8" font-family="Helvetica,sans-Serif" font-weight="bold" font-size="16.00" fill="#000000">tags</text>
<text text-anchor="start" x="157.4272" y="-451.3" font-family="Helvetica,sans-Serif" font-size="16.00" fill="#000000">[table]</text>
<polygon fill="none" stroke="#000000" points="94,-419.7 94,-441.7 206,-441.7 206,-419.7 94,-419.7"/>
<image xlink:href="../../images/primaryKeys.png" width="11px" height="12px" preserveAspectRatio="xMinYMin meet" x="99" y="-436.7"/>
<text text-anchor="start" x="114" y="-422.3" font-family="Helvetica,sans-Serif" font-size="16.00" fill="#000000">id</text>
<polygon fill="#ffffff" stroke="transparent" points="94,-397.7 94,-419.7 206,-419.7 206,-397.7 94,-397.7"/>
<polygon fill="none" stroke="#000000" points="94,-397.7 94,-419.7 206,-419.7 206,-397.7 94,-397.7"/>
<text text-anchor="start" x="114" y="-400.3" font-family="Helvetica,sans-Serif" font-size="16.00" fill="#000000">name</text>
<polygon fill="none" stroke="#000000" points="94,-372.7 94,-397.7 206,-397.7 206,-372.7 94,-372.7"/>
<text text-anchor="start" x="97" y="-380.3" font-family="Helvetica,sans-Serif" font-size="16.00" fill="#000000">...</text>
<polygon fill="#ffffff" stroke="transparent" points="94,-347.7 94,-372.7 116,-372.7 116,-347.7 94,-347.7"/>
<polygon fill="none" stroke="#000000" points="94,-347.7 94,-372.7 116,-372.7 116,-347.7 94,-347.7"/>
<text text-anchor="start" x="97" y="-355.3" font-family="Helvetica,sans-Serif" font-size="16.00" fill="#000000"> &#160;</text>
<polygon fill="#ffffff" stroke="transparent" points="116,-347.7 116,-372.7 173,-372.7 173,-347.7 116,-347.7"/>
<polygon fill="none" stroke="#000000" points="116,-347.7 116,-372.7 173,-372.7 173,-347.7 116,-347.7"/>
<text text-anchor="start" x="122.888" y="-355.3" font-family="Helvetica,sans-Serif" font-size="16.00" fill="#000000">0 rows</text>
<polygon fill="#ffffff" stroke="transparent" points="173,-347.7 173,-372.7 206,-372.7 206,-347.7 173,-347.7"/>
<polygon fill="none" stroke="#000000" points="173,-347.7 173,-372.7 206,-372.7 206,-347.7 173,-347.7"/>
<text text-anchor="start" x="180.3168" y="-355.3" font-family="Helvetica,sans-Serif" font-size="16.00" fill="#000000">2 &gt;</text>
</a>
</g>
</g>
<!-- project_tags&#45;&gt;tags -->
<g id="edge2" class="edge">
<title>project_tags:w&#45;&gt;tags:e</title>
<path fill="none" stroke="#000000" d="M328.9903,-372.7241C275.9189,-380.5586 267.3042,-430.7 206,-430.7"/>
<polygon fill="#000000" stroke="#000000" points="335.5199,-372.2633 343.7535,-375.2911 339.5099,-371.9816 343.5,-371.7 343.5,-371.7 343.5,-371.7 339.5099,-371.9816 343.2465,-368.1089 335.5199,-372.2633 335.5199,-372.2633"/>
<ellipse fill="none" stroke="#000000" cx="332.3278" cy="-372.4886" rx="3.2" ry="3.2"/>
</g>
</g>
</svg>
