<?xml version="1.0" encoding="UTF-8" standalone="no"?>
<!DOCTYPE svg PUBLIC "-//W3C//DTD SVG 1.1//EN"
 "http://www.w3.org/Graphics/SVG/1.1/DTD/svg11.dtd">
<!-- Generated by graphviz version 2.40.1 (20161225.0304)
 -->
<!-- Title: oneDegreeRelationshipsDiagram Pages: 1 -->
<svg width="1028pt" height="780pt"
 viewBox="0.00 0.00 1028.00 780.44" xmlns="http://www.w3.org/2000/svg" xmlns:xlink="http://www.w3.org/1999/xlink">
<g id="graph0" class="graph" transform="scale(1 1) rotate(0) translate(4 776.4396)">
<title>oneDegreeRelationshipsDiagram</title>
<polygon fill="#ffffff" stroke="transparent" points="-4,4 -4,-776.4396 1024,-776.4396 1024,4 -4,4"/>
<text text-anchor="middle" x="101.8088" y="-8.8" font-family="Helvetica,sans-Serif" font-size="16.00" fill="#000000">Generated by SchemaSpy</text>
<!-- project_notes -->
<g id="node1" class="node">
<title>project_notes</title>
<g id="a_node1"><a xlink:href="../../tables/project_notes.html" xlink:title="project_notes" target="_top">
<polygon fill="#ffffff" stroke="transparent" points="813.5,-435.4396 813.5,-602.4396 977.5,-602.4396 977.5,-435.4396 813.5,-435.4396"/>
<polygon fill="#f5f5f5" stroke="transparent" points="813.5,-572.9396 813.5,-601.9396 977.5,-601.9396 977.5,-572.9396 813.5,-572.9396"/>
<polygon fill="none" stroke="#000000" points="813.5,-572.9396 813.5,-601.9396 977.5,-601.9396 977.5,-572.9396 813.5,-572.9396"/>
<text text-anchor="start" x="818.5" y="-580.0396" font-family="Helvetica,sans-Serif" font-weight="bold" font-size="16.00" fill="#000000">project_notes</text>
<text text-anchor="start" x="929.2136" y="-582.5396" font-family="Helvetica,sans-Serif" font-size="16.00" fill="#000000">[table]</text>
<polygon fill="none" stroke="#000000" points="813.5,-550.9396 813.5,-572.9396 977.5,-572.9396 977.5,-550.9396 813.5,-550.9396"/>
<image xlink:href="../../images/primaryKeys.png" width="11px" height="12px" preserveAspectRatio="xMinYMin meet" x="818.5" y="-567.94"/>
<text text-anchor="start" x="849.5" y="-553.5396" font-family="Helvetica,sans-Serif" font-size="16.00" fill="#000000">id</text>
<polygon fill="#ffffff" stroke="transparent" points="813.5,-528.9396 813.5,-550.9396 977.5,-550.9396 977.5,-528.9396 813.5,-528.9396"/>
<polygon fill="none" stroke="#000000" points="813.5,-528.9396 813.5,-550.9396 977.5,-550.9396 977.5,-528.9396 813.5,-528.9396"/>
<image xlink:href="../../images/foreignKeys.png" width="11px" height="12px" preserveAspectRatio="xMinYMin meet" x="818.5" y="-545.94"/>
<text text-anchor="start" x="849.5" y="-531.5396" font-family="Helvetica,sans-Serif" font-size="16.00" fill="#000000">project_id</text>
<polygon fill="#ffffff" stroke="transparent" points="813.5,-506.9396 813.5,-528.9396 977.5,-528.9396 977.5,-506.9396 813.5,-506.9396"/>
<polygon fill="none" stroke="#000000" points="813.5,-506.9396 813.5,-528.9396 977.5,-528.9396 977.5,-506.9396 813.5,-506.9396"/>
<text text-anchor="start" x="849.5" y="-509.5396" font-family="Helvetica,sans-Serif" font-size="16.00" fill="#000000">inserted_at</text>
<polygon fill="#ffffff" stroke="transparent" points="813.5,-484.9396 813.5,-506.9396 977.5,-506.9396 977.5,-484.9396 813.5,-484.9396"/>
<polygon fill="none" stroke="#000000" points="813.5,-484.9396 813.5,-506.9396 977.5,-506.9396 977.5,-484.9396 813.5,-484.9396"/>
<text text-anchor="start" x="849.5" y="-487.5396" font-family="Helvetica,sans-Serif" font-size="16.00" fill="#000000">updated_at</text>
<polygon fill="none" stroke="#000000" points="813.5,-459.9396 813.5,-484.9396 977.5,-484.9396 977.5,-459.9396 813.5,-459.9396"/>
<text text-anchor="start" x="816.5" y="-467.5396" font-family="Helvetica,sans-Serif" font-size="16.00" fill="#000000">...</text>
<polygon fill="#ffffff" stroke="transparent" points="813.5,-434.9396 813.5,-459.9396 875.5,-459.9396 875.5,-434.9396 813.5,-434.9396"/>
<polygon fill="none" stroke="#000000" points="813.5,-434.9396 813.5,-459.9396 875.5,-459.9396 875.5,-434.9396 813.5,-434.9396"/>
<text text-anchor="start" x="816.5" y="-442.5396" font-family="Helvetica,sans-Serif" font-size="16.00" fill="#000000">&lt; 1</text>
<polygon fill="#ffffff" stroke="transparent" points="875.5,-434.9396 875.5,-459.9396 945.5,-459.9396 945.5,-434.9396 875.5,-434.9396"/>
<polygon fill="none" stroke="#000000" points="875.5,-434.9396 875.5,-459.9396 945.5,-459.9396 945.5,-434.9396 875.5,-434.9396"/>
<text text-anchor="start" x="895.388" y="-442.5396" font-family="Helvetica,sans-Serif" font-size="16.00" fill="#000000">0 rows</text>
<polygon fill="#ffffff" stroke="transparent" points="945.5,-434.9396 945.5,-459.9396 977.5,-459.9396 977.5,-434.9396 945.5,-434.9396"/>
<polygon fill="none" stroke="#000000" points="945.5,-434.9396 945.5,-459.9396 977.5,-459.9396 977.5,-434.9396 945.5,-434.9396"/>
<text text-anchor="start" x="965.6072" y="-442.5396" font-family="Helvetica,sans-Serif" font-size="16.00" fill="#000000"> &#160;</text>
</a>
</g>
</g>
<!-- projects -->
<g id="node2" class="node">
<title>projects</title>
<g id="a_node2"><a xlink:href="../../tables/projects.html" xlink:title="projects" target="_top">
<polygon fill="#ffffff" stroke="transparent" points="261,-146.9396 261,-654.9396 730,-654.9396 730,-146.9396 261,-146.9396"/>
<polygon fill="#f5f5f5" stroke="transparent" points="263.5,-623.9396 263.5,-652.9396 728.5,-652.9396 728.5,-623.9396 263.5,-623.9396"/>
<polygon fill="none" stroke="#000000" points="263.5,-623.9396 263.5,-652.9396 728.5,-652.9396 728.5,-623.9396 263.5,-623.9396"/>
<text text-anchor="start" x="268.5" y="-631.0396" font-family="Helvetica,sans-Serif" font-weight="bold" font-size="16.00" fill="#000000">projects</text>
<text text-anchor="start" x="679.9272" y="-633.5396" font-family="Helvetica,sans-Serif" font-size="16.00" fill="#000000">[table]</text>
<polygon fill="none" stroke="#000000" points="263.5,-598.9396 263.5,-623.9396 547.5,-623.9396 547.5,-598.9396 263.5,-598.9396"/>
<image xlink:href="../../images/primaryKeys.png" width="11px" height="12px" preserveAspectRatio="xMinYMin meet" x="268.5" y="-617.44"/>
<text text-anchor="start" x="283.5" y="-603.0396" font-family="Helvetica,sans-Serif" font-size="16.00" fill="#000000">id</text>
<polygon fill="none" stroke="#000000" points="547.5,-598.9396 547.5,-623.9396 728.5,-623.9396 728.5,-598.9396 547.5,-598.9396"/>
<text text-anchor="start" x="550.5" y="-606.5396" font-family="Helvetica,sans-Serif" font-size="16.00" fill="#000000">text[2000000000]</text>
<polygon fill="#ffffff" stroke="transparent" points="263.5,-573.9396 263.5,-598.9396 547.5,-598.9396 547.5,-573.9396 263.5,-573.9396"/>
<polygon fill="none" stroke="#000000" points="263.5,-573.9396 263.5,-598.9396 547.5,-598.9396 547.5,-573.9396 263.5,-573.9396"/>
<text text-anchor="start" x="283.5" y="-578.0396" font-family="Helvetica,sans-Serif" font-size="16.00" fill="#000000">name</text>
<polygon fill="none" stroke="#000000" points="547.5,-573.9396 547.5,-598.9396 728.5,-598.9396 728.5,-573.9396 547.5,-573.9396"/>
<text text-anchor="start" x="550.5" y="-581.5396" font-family="Helvetica,sans-Serif" font-size="16.00" fill="#000000">text[2000000000]</text>
<polygon fill="none" stroke="#000000" points="263.5,-548.9396 263.5,-573.9396 547.5,-573.9396 547.5,-548.9396 263.5,-548.9396"/>
<text text-anchor="start" x="283.5" y="-553.0396" font-family="Helvetica,sans-Serif" font-size="16.00" fill="#000000">description</text>
<polygon fill="none" stroke="#000000" points="547.5,-548.9396 547.5,-573.9396 728.5,-573.9396 728.5,-548.9396 547.5,-548.9396"/>
<text text-anchor="start" x="550.5" y="-556.5396" font-family="Helvetica,sans-Serif" font-size="16.00" fill="#000000">text[2000000000]</text>
<polygon fill="#ffffff" stroke="transparent" points="263.5,-523.9396 263.5,-548.9396 547.5,-548.9396 547.5,-523.9396 263.5,-523.9396"/>
<polygon fill="none" stroke="#000000" points="263.5,-523.9396 263.5,-548.9396 547.5,-548.9396 547.5,-523.9396 263.5,-523.9396"/>
<text text-anchor="start" x="283.5" y="-528.0396" font-family="Helvetica,sans-Serif" font-size="16.00" fill="#000000">status</text>
<polygon fill="none" stroke="#000000" points="547.5,-523.9396 547.5,-548.9396 728.5,-548.9396 728.5,-523.9396 547.5,-523.9396"/>
<text text-anchor="start" x="550.5" y="-531.5396" font-family="Helvetica,sans-Serif" font-size="16.00" fill="#000000">text[2000000000]</text>
<polygon fill="#ffffff" stroke="transparent" points="263.5,-498.9396 263.5,-523.9396 547.5,-523.9396 547.5,-498.9396 263.5,-498.9396"/>
<polygon fill="none" stroke="#000000" points="263.5,-498.9396 263.5,-523.9396 547.5,-523.9396 547.5,-498.9396 263.5,-498.9396"/>
<text text-anchor="start" x="283.5" y="-503.0396" font-family="Helvetica,sans-Serif" font-size="16.00" fill="#000000">project_type</text>
<polygon fill="none" stroke="#000000" points="547.5,-498.9396 547.5,-523.9396 728.5,-523.9396 728.5,-498.9396 547.5,-498.9396"/>
<text text-anchor="start" x="550.5" y="-506.5396" font-family="Helvetica,sans-Serif" font-size="16.00" fill="#000000">text[2000000000]</text>
<polygon fill="#ffffff" stroke="transparent" points="263.5,-473.9396 263.5,-498.9396 547.5,-498.9396 547.5,-473.9396 263.5,-473.9396"/>
<polygon fill="none" stroke="#000000" points="263.5,-473.9396 263.5,-498.9396 547.5,-498.9396 547.5,-473.9396 263.5,-473.9396"/>
<text text-anchor="start" x="283.5" y="-478.0396" font-family="Helvetica,sans-Serif" font-size="16.00" fill="#000000">priority</text>
<polygon fill="none" stroke="#000000" points="547.5,-473.9396 547.5,-498.9396 728.5,-498.9396 728.5,-473.9396 547.5,-473.9396"/>
<text text-anchor="start" x="550.5" y="-481.5396" font-family="Helvetica,sans-Serif" font-size="16.00" fill="#000000">text[2000000000]</text>
<polygon fill="#ffffff" stroke="transparent" points="263.5,-448.9396 263.5,-473.9396 547.5,-473.9396 547.5,-448.9396 263.5,-448.9396"/>
<polygon fill="none" stroke="#000000" points="263.5,-448.9396 263.5,-473.9396 547.5,-473.9396 547.5,-448.9396 263.5,-448.9396"/>
<image xlink:href="../../images/foreignKeys.png" width="11px" height="12px" preserveAspectRatio="xMinYMin meet" x="268.5" y="-467.44"/>
<text text-anchor="start" x="283.5" y="-453.0396" font-family="Helvetica,sans-Serif" font-size="16.00" fill="#000000">business_partner_id</text>
<polygon fill="none" stroke="#000000" points="547.5,-448.9396 547.5,-473.9396 728.5,-473.9396 728.5,-448.9396 547.5,-448.9396"/>
<text text-anchor="start" x="550.5" y="-456.5396" font-family="Helvetica,sans-Serif" font-size="16.00" fill="#000000">text[2000000000]</text>
<polygon fill="none" stroke="#000000" points="263.5,-423.9396 263.5,-448.9396 547.5,-448.9396 547.5,-423.9396 263.5,-423.9396"/>
<text text-anchor="start" x="283.5" y="-428.0396" font-family="Helvetica,sans-Serif" font-size="16.00" fill="#000000">expected_start_date</text>
<polygon fill="none" stroke="#000000" points="547.5,-423.9396 547.5,-448.9396 728.5,-448.9396 728.5,-423.9396 547.5,-423.9396"/>
<text text-anchor="start" x="550.5" y="-431.5396" font-family="Helvetica,sans-Serif" font-size="16.00" fill="#000000">text[2000000000]</text>
<polygon fill="none" stroke="#000000" points="263.5,-398.9396 263.5,-423.9396 547.5,-423.9396 547.5,-398.9396 263.5,-398.9396"/>
<text text-anchor="start" x="283.5" y="-403.0396" font-family="Helvetica,sans-Serif" font-size="16.00" fill="#000000">expected_end_date</text>
<polygon fill="none" stroke="#000000" points="547.5,-398.9396 547.5,-423.9396 728.5,-423.9396 728.5,-398.9396 547.5,-398.9396"/>
<text text-anchor="start" x="550.5" y="-406.5396" font-family="Helvetica,sans-Serif" font-size="16.00" fill="#000000">text[2000000000]</text>
<polygon fill="none" stroke="#000000" points="263.5,-373.9396 263.5,-398.9396 547.5,-398.9396 547.5,-373.9396 263.5,-373.9396"/>
<text text-anchor="start" x="283.5" y="-378.0396" font-family="Helvetica,sans-Serif" font-size="16.00" fill="#000000">actual_start_date</text>
<polygon fill="none" stroke="#000000" points="547.5,-373.9396 547.5,-398.9396 728.5,-398.9396 728.5,-373.9396 547.5,-373.9396"/>
<text text-anchor="start" x="550.5" y="-381.5396" font-family="Helvetica,sans-Serif" font-size="16.00" fill="#000000">text[2000000000]</text>
<polygon fill="none" stroke="#000000" points="263.5,-348.9396 263.5,-373.9396 547.5,-373.9396 547.5,-348.9396 263.5,-348.9396"/>
<text text-anchor="start" x="283.5" y="-353.0396" font-family="Helvetica,sans-Serif" font-size="16.00" fill="#000000">actual_end_date</text>
<polygon fill="none" stroke="#000000" points="547.5,-348.9396 547.5,-373.9396 728.5,-373.9396 728.5,-348.9396 547.5,-348.9396"/>
<text text-anchor="start" x="550.5" y="-356.5396" font-family="Helvetica,sans-Serif" font-size="16.00" fill="#000000">text[2000000000]</text>
<polygon fill="none" stroke="#000000" points="263.5,-323.9396 263.5,-348.9396 547.5,-348.9396 547.5,-323.9396 263.5,-323.9396"/>
<text text-anchor="start" x="283.5" y="-328.0396" font-family="Helvetica,sans-Serif" font-size="16.00" fill="#000000">estimated_duration</text>
<polygon fill="none" stroke="#000000" points="547.5,-323.9396 547.5,-348.9396 728.5,-348.9396 728.5,-323.9396 547.5,-323.9396"/>
<text text-anchor="start" x="550.5" y="-331.5396" font-family="Helvetica,sans-Serif" font-size="16.00" fill="#000000">integer[2000000000]</text>
<polygon fill="none" stroke="#000000" points="263.5,-298.9396 263.5,-323.9396 547.5,-323.9396 547.5,-298.9396 263.5,-298.9396"/>
<text text-anchor="start" x="283.5" y="-303.0396" font-family="Helvetica,sans-Serif" font-size="16.00" fill="#000000">estimated_duration_time_unit</text>
<polygon fill="none" stroke="#000000" points="547.5,-298.9396 547.5,-323.9396 728.5,-323.9396 728.5,-298.9396 547.5,-298.9396"/>
<text text-anchor="start" x="550.5" y="-306.5396" font-family="Helvetica,sans-Serif" font-size="16.00" fill="#000000">text[2000000000]</text>
<polygon fill="#ffffff" stroke="transparent" points="263.5,-273.9396 263.5,-298.9396 547.5,-298.9396 547.5,-273.9396 263.5,-273.9396"/>
<polygon fill="none" stroke="#000000" points="263.5,-273.9396 263.5,-298.9396 547.5,-298.9396 547.5,-273.9396 263.5,-273.9396"/>
<text text-anchor="start" x="283.5" y="-278.0396" font-family="Helvetica,sans-Serif" font-size="16.00" fill="#000000">billable</text>
<polygon fill="none" stroke="#000000" points="547.5,-273.9396 547.5,-298.9396 728.5,-298.9396 728.5,-273.9396 547.5,-273.9396"/>
<text text-anchor="start" x="550.5" y="-281.5396" font-family="Helvetica,sans-Serif" font-size="16.00" fill="#000000">integer[2000000000]</text>
<polygon fill="none" stroke="#000000" points="263.5,-248.9396 263.5,-273.9396 547.5,-273.9396 547.5,-248.9396 263.5,-248.9396"/>
<text text-anchor="start" x="283.5" y="-253.0396" font-family="Helvetica,sans-Serif" font-size="16.00" fill="#000000">estimated_total_billable_amount</text>
<polygon fill="none" stroke="#000000" points="547.5,-248.9396 547.5,-273.9396 728.5,-273.9396 728.5,-248.9396 547.5,-248.9396"/>
<text text-anchor="start" x="550.4088" y="-256.5396" font-family="Helvetica,sans-Serif" font-size="16.00" fill="#000000">decimal[2000000000,10]</text>
<polygon fill="#ffffff" stroke="transparent" points="263.5,-223.9396 263.5,-248.9396 547.5,-248.9396 547.5,-223.9396 263.5,-223.9396"/>
<polygon fill="none" stroke="#000000" points="263.5,-223.9396 263.5,-248.9396 547.5,-248.9396 547.5,-223.9396 263.5,-223.9396"/>
<text text-anchor="start" x="283.5" y="-228.0396" font-family="Helvetica,sans-Serif" font-size="16.00" fill="#000000">active</text>
<polygon fill="none" stroke="#000000" points="547.5,-223.9396 547.5,-248.9396 728.5,-248.9396 728.5,-223.9396 547.5,-223.9396"/>
<text text-anchor="start" x="550.5" y="-231.5396" font-family="Helvetica,sans-Serif" font-size="16.00" fill="#000000">integer[2000000000]</text>
<polygon fill="#ffffff" stroke="transparent" points="263.5,-198.9396 263.5,-223.9396 547.5,-223.9396 547.5,-198.9396 263.5,-198.9396"/>
<polygon fill="none" stroke="#000000" points="263.5,-198.9396 263.5,-223.9396 547.5,-223.9396 547.5,-198.9396 263.5,-198.9396"/>
<text text-anchor="start" x="283.5" y="-203.0396" font-family="Helvetica,sans-Serif" font-size="16.00" fill="#000000">inserted_at</text>
<polygon fill="none" stroke="#000000" points="547.5,-198.9396 547.5,-223.9396 728.5,-223.9396 728.5,-198.9396 547.5,-198.9396"/>
<text text-anchor="start" x="550.5" y="-206.5396" font-family="Helvetica,sans-Serif" font-size="16.00" fill="#000000">text[2000000000]</text>
<polygon fill="none" stroke="#000000" points="263.5,-173.9396 263.5,-198.9396 547.5,-198.9396 547.5,-173.9396 263.5,-173.9396"/>
<text text-anchor="start" x="283.5" y="-178.0396" font-family="Helvetica,sans-Serif" font-size="16.00" fill="#000000">updated_at</text>
<polygon fill="none" stroke="#000000" points="547.5,-173.9396 547.5,-198.9396 728.5,-198.9396 728.5,-173.9396 547.5,-173.9396"/>
<text text-anchor="start" x="550.5" y="-181.5396" font-family="Helvetica,sans-Serif" font-size="16.00" fill="#000000">text[2000000000]</text>
<polygon fill="#ffffff" stroke="transparent" points="263.5,-148.9396 263.5,-173.9396 392.5,-173.9396 392.5,-148.9396 263.5,-148.9396"/>
<polygon fill="none" stroke="#000000" points="263.5,-148.9396 263.5,-173.9396 392.5,-173.9396 392.5,-148.9396 263.5,-148.9396"/>
<text text-anchor="start" x="266.5" y="-156.5396" font-family="Helvetica,sans-Serif" font-size="16.00" fill="#000000">&lt; 1</text>
<polygon fill="#ffffff" stroke="transparent" points="392.5,-148.9396 392.5,-173.9396 547.5,-173.9396 547.5,-148.9396 392.5,-148.9396"/>
<polygon fill="none" stroke="#000000" points="392.5,-148.9396 392.5,-173.9396 547.5,-173.9396 547.5,-148.9396 392.5,-148.9396"/>
<text text-anchor="start" x="497.388" y="-156.5396" font-family="Helvetica,sans-Serif" font-size="16.00" fill="#000000">5 rows</text>
<polygon fill="#ffffff" stroke="transparent" points="547.5,-148.9396 547.5,-173.9396 728.5,-173.9396 728.5,-148.9396 547.5,-148.9396"/>
<polygon fill="none" stroke="#000000" points="547.5,-148.9396 547.5,-173.9396 728.5,-173.9396 728.5,-148.9396 547.5,-148.9396"/>
<text text-anchor="start" x="702.8168" y="-156.5396" font-family="Helvetica,sans-Serif" font-size="16.00" fill="#000000">3 &gt;</text>
<polygon fill="none" stroke="#000000" stroke-width="2" points="262,-147.9396 262,-653.9396 729,-653.9396 729,-147.9396 262,-147.9396"/>
</a>
</g>
</g>
<!-- project_notes&#45;&gt;projects -->
<g id="edge1" class="edge">
<title>project_notes:w&#45;&gt;projects:e</title>
<path fill="none" stroke="#000000" d="M798.9356,-542.5021C766.3516,-555.3282 772.4007,-611.9396 728.5,-611.9396"/>
<polygon fill="#000000" stroke="#000000" points="805.621,-541.3259 814.1238,-543.4852 809.5605,-540.6328 813.5,-539.9396 813.5,-539.9396 813.5,-539.9396 809.5605,-540.6328 812.8762,-536.3941 805.621,-541.3259 805.621,-541.3259"/>
<ellipse fill="none" stroke="#000000" cx="802.4694" cy="-541.8804" rx="3.2" ry="3.2"/>
</g>
<!-- business_partners -->
<g id="node4" class="node">
<title>business_partners</title>
<g id="a_node4"><a xlink:href="../../tables/business_partners.html" xlink:title="business_partners" target="_top">
<polygon fill="#ffffff" stroke="transparent" points="8,-121.4396 8,-332.4396 212,-332.4396 212,-121.4396 8,-121.4396"/>
<polygon fill="#f5f5f5" stroke="transparent" points="8,-302.9396 8,-331.9396 212,-331.9396 212,-302.9396 8,-302.9396"/>
<polygon fill="none" stroke="#000000" points="8,-302.9396 8,-331.9396 212,-331.9396 212,-302.9396 8,-302.9396"/>
<text text-anchor="start" x="13" y="-310.0396" font-family="Helvetica,sans-Serif" font-weight="bold" font-size="16.00" fill="#000000">business_partners</text>
<text text-anchor="start" x="163.7136" y="-312.5396" font-family="Helvetica,sans-Serif" font-size="16.00" fill="#000000">[table]</text>
<polygon fill="none" stroke="#000000" points="8,-280.9396 8,-302.9396 212,-302.9396 212,-280.9396 8,-280.9396"/>
<image xlink:href="../../images/primaryKeys.png" width="11px" height="12px" preserveAspectRatio="xMinYMin meet" x="13" y="-297.94"/>
<text text-anchor="start" x="44" y="-283.5396" font-family="Helvetica,sans-Serif" font-size="16.00" fill="#000000">id</text>
<polygon fill="#ffffff" stroke="transparent" points="8,-258.9396 8,-280.9396 212,-280.9396 212,-258.9396 8,-258.9396"/>
<polygon fill="none" stroke="#000000" points="8,-258.9396 8,-280.9396 212,-280.9396 212,-258.9396 8,-258.9396"/>
<text text-anchor="start" x="44" y="-261.5396" font-family="Helvetica,sans-Serif" font-size="16.00" fill="#000000">name</text>
<polygon fill="#ffffff" stroke="transparent" points="8,-236.9396 8,-258.9396 212,-258.9396 212,-236.9396 8,-236.9396"/>
<polygon fill="none" stroke="#000000" points="8,-236.9396 8,-258.9396 212,-258.9396 212,-236.9396 8,-236.9396"/>
<text text-anchor="start" x="44" y="-239.5396" font-family="Helvetica,sans-Serif" font-size="16.00" fill="#000000">customer</text>
<polygon fill="#ffffff" stroke="transparent" points="8,-214.9396 8,-236.9396 212,-236.9396 212,-214.9396 8,-214.9396"/>
<polygon fill="none" stroke="#000000" points="8,-214.9396 8,-236.9396 212,-236.9396 212,-214.9396 8,-214.9396"/>
<text text-anchor="start" x="44" y="-217.5396" font-family="Helvetica,sans-Serif" font-size="16.00" fill="#000000">supplier</text>
<polygon fill="#ffffff" stroke="transparent" points="8,-192.9396 8,-214.9396 212,-214.9396 212,-192.9396 8,-192.9396"/>
<polygon fill="none" stroke="#000000" points="8,-192.9396 8,-214.9396 212,-214.9396 212,-192.9396 8,-192.9396"/>
<text text-anchor="start" x="44" y="-195.5396" font-family="Helvetica,sans-Serif" font-size="16.00" fill="#000000">frozen</text>
<polygon fill="#ffffff" stroke="transparent" points="8,-170.9396 8,-192.9396 212,-192.9396 212,-170.9396 8,-170.9396"/>
<polygon fill="none" stroke="#000000" points="8,-170.9396 8,-192.9396 212,-192.9396 212,-170.9396 8,-170.9396"/>
<text text-anchor="start" x="44" y="-173.5396" font-family="Helvetica,sans-Serif" font-size="16.00" fill="#000000">active</text>
<polygon fill="none" stroke="#000000" points="8,-145.9396 8,-170.9396 212,-170.9396 212,-145.9396 8,-145.9396"/>
<text text-anchor="start" x="11" y="-153.5396" font-family="Helvetica,sans-Serif" font-size="16.00" fill="#000000">...</text>
<polygon fill="#ffffff" stroke="transparent" points="8,-120.9396 8,-145.9396 76,-145.9396 76,-120.9396 8,-120.9396"/>
<polygon fill="none" stroke="#000000" points="8,-120.9396 8,-145.9396 76,-145.9396 76,-120.9396 8,-120.9396"/>
<text text-anchor="start" x="11" y="-128.5396" font-family="Helvetica,sans-Serif" font-size="16.00" fill="#000000"> &#160;</text>
<polygon fill="#ffffff" stroke="transparent" points="76,-120.9396 76,-145.9396 156,-145.9396 156,-120.9396 76,-120.9396"/>
<polygon fill="none" stroke="#000000" points="76,-120.9396 76,-145.9396 156,-145.9396 156,-120.9396 76,-120.9396"/>
<text text-anchor="start" x="105.888" y="-128.5396" font-family="Helvetica,sans-Serif" font-size="16.00" fill="#000000">4 rows</text>
<polygon fill="#ffffff" stroke="transparent" points="156,-120.9396 156,-145.9396 212,-145.9396 212,-120.9396 156,-120.9396"/>
<polygon fill="none" stroke="#000000" points="156,-120.9396 156,-145.9396 212,-145.9396 212,-120.9396 156,-120.9396"/>
<text text-anchor="start" x="186.3168" y="-128.5396" font-family="Helvetica,sans-Serif" font-size="16.00" fill="#000000">3 &gt;</text>
</a>
</g>
</g>
<!-- projects&#45;&gt;business_partners -->
<g id="edge3" class="edge">
<title>projects:w&#45;&gt;business_partners:e</title>
<path fill="none" stroke="#000000" d="M249.1485,-459.4045C198.9627,-438.2571 285.2413,-291.9396 212,-291.9396"/>
<polygon fill="#000000" stroke="#000000" points="255.622,-460.548 262.8738,-465.4847 259.561,-461.2438 263.5,-461.9396 263.5,-461.9396 263.5,-461.9396 259.561,-461.2438 264.1262,-458.3945 255.622,-460.548 255.622,-460.548"/>
<ellipse fill="none" stroke="#000000" cx="252.4707" cy="-459.9913" rx="3.2" ry="3.2"/>
</g>
<!-- project_tags -->
<g id="node3" class="node">
<title>project_tags</title>
<g id="a_node3"><a xlink:href="../../tables/project_tags.html" xlink:title="project_tags" target="_top">
<polygon fill="#ffffff" stroke="transparent" points="818.5,-623.4396 818.5,-768.4396 972.5,-768.4396 972.5,-623.4396 818.5,-623.4396"/>
<polygon fill="#f5f5f5" stroke="transparent" points="818.5,-738.9396 818.5,-767.9396 972.5,-767.9396 972.5,-738.9396 818.5,-738.9396"/>
<polygon fill="none" stroke="#000000" points="818.5,-738.9396 818.5,-767.9396 972.5,-767.9396 972.5,-738.9396 818.5,-738.9396"/>
<text text-anchor="start" x="823.5" y="-746.0396" font-family="Helvetica,sans-Serif" font-weight="bold" font-size="16.00" fill="#000000">project_tags</text>
<text text-anchor="start" x="924.2136" y="-748.5396" font-family="Helvetica,sans-Serif" font-size="16.00" fill="#000000">[table]</text>
<polygon fill="none" stroke="#000000" points="818.5,-716.9396 818.5,-738.9396 972.5,-738.9396 972.5,-716.9396 818.5,-716.9396"/>
<image xlink:href="../../images/primaryKeys.png" width="11px" height="12px" preserveAspectRatio="xMinYMin meet" x="823.5" y="-733.94"/>
<text text-anchor="start" x="854.5" y="-719.5396" font-family="Helvetica,sans-Serif" font-size="16.00" fill="#000000">id</text>
<polygon fill="#ffffff" stroke="transparent" points="818.5,-694.9396 818.5,-716.9396 972.5,-716.9396 972.5,-694.9396 818.5,-694.9396"/>
<polygon fill="none" stroke="#000000" points="818.5,-694.9396 818.5,-716.9396 972.5,-716.9396 972.5,-694.9396 818.5,-694.9396"/>
<image xlink:href="../../images/foreignKeys.png" width="11px" height="12px" preserveAspectRatio="xMinYMin meet" x="823.5" y="-711.94"/>
<text text-anchor="start" x="854.5" y="-697.5396" font-family="Helvetica,sans-Serif" font-size="16.00" fill="#000000">tag_id</text>
<polygon fill="#ffffff" stroke="transparent" points="818.5,-672.9396 818.5,-694.9396 972.5,-694.9396 972.5,-672.9396 818.5,-672.9396"/>
<polygon fill="none" stroke="#000000" points="818.5,-672.9396 818.5,-694.9396 972.5,-694.9396 972.5,-672.9396 818.5,-672.9396"/>
<image xlink:href="../../images/foreignKeys.png" width="11px" height="12px" preserveAspectRatio="xMinYMin meet" x="823.5" y="-689.94"/>
<text text-anchor="start" x="854.5" y="-675.5396" font-family="Helvetica,sans-Serif" font-size="16.00" fill="#000000">project_id</text>
<polygon fill="none" stroke="#000000" points="818.5,-647.9396 818.5,-672.9396 972.5,-672.9396 972.5,-647.9396 818.5,-647.9396"/>
<text text-anchor="start" x="821.5" y="-655.5396" font-family="Helvetica,sans-Serif" font-size="16.00" fill="#000000">...</text>
<polygon fill="#ffffff" stroke="transparent" points="818.5,-622.9396 818.5,-647.9396 875.5,-647.9396 875.5,-622.9396 818.5,-622.9396"/>
<polygon fill="none" stroke="#000000" points="818.5,-622.9396 818.5,-647.9396 875.5,-647.9396 875.5,-622.9396 818.5,-622.9396"/>
<text text-anchor="start" x="821.5" y="-630.5396" font-family="Helvetica,sans-Serif" font-size="16.00" fill="#000000">&lt; 2</text>
<polygon fill="#ffffff" stroke="transparent" points="875.5,-622.9396 875.5,-647.9396 943.5,-647.9396 943.5,-622.9396 875.5,-622.9396"/>
<polygon fill="none" stroke="#000000" points="875.5,-622.9396 875.5,-647.9396 943.5,-647.9396 943.5,-622.9396 875.5,-622.9396"/>
<text text-anchor="start" x="893.388" y="-630.5396" font-family="Helvetica,sans-Serif" font-size="16.00" fill="#000000">0 rows</text>
<polygon fill="#ffffff" stroke="transparent" points="943.5,-622.9396 943.5,-647.9396 972.5,-647.9396 972.5,-622.9396 943.5,-622.9396"/>
<polygon fill="none" stroke="#000000" points="943.5,-622.9396 943.5,-647.9396 972.5,-647.9396 972.5,-622.9396 943.5,-622.9396"/>
<text text-anchor="start" x="960.6072" y="-630.5396" font-family="Helvetica,sans-Serif" font-size="16.00" fill="#000000"> &#160;</text>
</a>
</g>
</g>
<!-- project_tags&#45;&gt;projects -->
<g id="edge2" class="edge">
<title>project_tags:w&#45;&gt;projects:e</title>
<path fill="none" stroke="#000000" d="M804.2676,-681.7058C769.1929,-669.553 774.3224,-611.9396 728.5,-611.9396"/>
<polygon fill="#000000" stroke="#000000" points="810.5967,-682.6992 817.9418,-687.4961 814.5484,-683.3194 818.5,-683.9396 818.5,-683.9396 818.5,-683.9396 814.5484,-683.3194 819.0582,-680.3831 810.5967,-682.6992 810.5967,-682.6992"/>
<ellipse fill="none" stroke="#000000" cx="807.4354" cy="-682.203" rx="3.2" ry="3.2"/>
</g>
<!-- timers -->
<g id="node5" class="node">
<title>timers</title>
<g id="a_node5"><a xlink:href="../../tables/timers.html" xlink:title="timers" target="_top">
<polygon fill="#ffffff" stroke="transparent" points="779,-77.4396 779,-332.4396 1012,-332.4396 1012,-77.4396 779,-77.4396"/>
<polygon fill="#f5f5f5" stroke="transparent" points="779.5,-302.9396 779.5,-331.9396 1012.5,-331.9396 1012.5,-302.9396 779.5,-302.9396"/>
<polygon fill="none" stroke="#000000" points="779.5,-302.9396 779.5,-331.9396 1012.5,-331.9396 1012.5,-302.9396 779.5,-302.9396"/>
<text text-anchor="start" x="784.5" y="-310.0396" font-family="Helvetica,sans-Serif" font-weight="bold" font-size="16.00" fill="#000000">timers</text>
<text text-anchor="start" x="963.9272" y="-312.5396" font-family="Helvetica,sans-Serif" font-size="16.00" fill="#000000">[table]</text>
<polygon fill="none" stroke="#000000" points="779.5,-280.9396 779.5,-302.9396 1012.5,-302.9396 1012.5,-280.9396 779.5,-280.9396"/>
<image xlink:href="../../images/primaryKeys.png" width="11px" height="12px" preserveAspectRatio="xMinYMin meet" x="784.5" y="-297.94"/>
<text text-anchor="start" x="799.5" y="-283.5396" font-family="Helvetica,sans-Serif" font-size="16.00" fill="#000000">id</text>
<polygon fill="#ffffff" stroke="transparent" points="779.5,-258.9396 779.5,-280.9396 1012.5,-280.9396 1012.5,-258.9396 779.5,-258.9396"/>
<polygon fill="none" stroke="#000000" points="779.5,-258.9396 779.5,-280.9396 1012.5,-280.9396 1012.5,-258.9396 779.5,-258.9396"/>
<text text-anchor="start" x="799.5" y="-261.5396" font-family="Helvetica,sans-Serif" font-size="16.00" fill="#000000">start_stamp</text>
<polygon fill="#ffffff" stroke="transparent" points="779.5,-236.9396 779.5,-258.9396 1012.5,-258.9396 1012.5,-236.9396 779.5,-236.9396"/>
<polygon fill="none" stroke="#000000" points="779.5,-236.9396 779.5,-258.9396 1012.5,-258.9396 1012.5,-236.9396 779.5,-236.9396"/>
<text text-anchor="start" x="799.5" y="-239.5396" font-family="Helvetica,sans-Serif" font-size="16.00" fill="#000000">end_stamp</text>
<polygon fill="#ffffff" stroke="transparent" points="779.5,-214.9396 779.5,-236.9396 1012.5,-236.9396 1012.5,-214.9396 779.5,-214.9396"/>
<polygon fill="none" stroke="#000000" points="779.5,-214.9396 779.5,-236.9396 1012.5,-236.9396 1012.5,-214.9396 779.5,-214.9396"/>
<text text-anchor="start" x="799.5" y="-217.5396" font-family="Helvetica,sans-Serif" font-size="16.00" fill="#000000">billable</text>
<polygon fill="#ffffff" stroke="transparent" points="779.5,-192.9396 779.5,-214.9396 1012.5,-214.9396 1012.5,-192.9396 779.5,-192.9396"/>
<polygon fill="none" stroke="#000000" points="779.5,-192.9396 779.5,-214.9396 1012.5,-214.9396 1012.5,-192.9396 779.5,-192.9396"/>
<image xlink:href="../../images/foreignKeys.png" width="11px" height="12px" preserveAspectRatio="xMinYMin meet" x="784.5" y="-209.94"/>
<text text-anchor="start" x="799.5" y="-195.5396" font-family="Helvetica,sans-Serif" font-size="16.00" fill="#000000">business_partner_id</text>
<polygon fill="none" stroke="#000000" points="779.5,-170.9396 779.5,-192.9396 1012.5,-192.9396 1012.5,-170.9396 779.5,-170.9396"/>
<image xlink:href="../../images/foreignKeys.png" width="11px" height="12px" preserveAspectRatio="xMinYMin meet" x="784.5" y="-187.94"/>
<text text-anchor="start" x="799.5" y="-173.5396" font-family="Helvetica,sans-Serif" font-size="16.00" fill="#000000">activity_type_id</text>
<polygon fill="#ffffff" stroke="transparent" points="779.5,-148.9396 779.5,-170.9396 1012.5,-170.9396 1012.5,-148.9396 779.5,-148.9396"/>
<polygon fill="none" stroke="#000000" points="779.5,-148.9396 779.5,-170.9396 1012.5,-170.9396 1012.5,-148.9396 779.5,-148.9396"/>
<image xlink:href="../../images/foreignKeys.png" width="11px" height="12px" preserveAspectRatio="xMinYMin meet" x="784.5" y="-165.94"/>
<text text-anchor="start" x="799.5" y="-151.5396" font-family="Helvetica,sans-Serif" font-size="16.00" fill="#000000">project_id</text>
<polygon fill="#ffffff" stroke="transparent" points="779.5,-126.9396 779.5,-148.9396 1012.5,-148.9396 1012.5,-126.9396 779.5,-126.9396"/>
<polygon fill="none" stroke="#000000" points="779.5,-126.9396 779.5,-148.9396 1012.5,-148.9396 1012.5,-126.9396 779.5,-126.9396"/>
<text text-anchor="start" x="799.5" y="-129.5396" font-family="Helvetica,sans-Serif" font-size="16.00" fill="#000000">inserted_at</text>
<polygon fill="none" stroke="#000000" points="779.5,-101.9396 779.5,-126.9396 1012.5,-126.9396 1012.5,-101.9396 779.5,-101.9396"/>
<text text-anchor="start" x="782.5" y="-109.5396" font-family="Helvetica,sans-Serif" font-size="16.00" fill="#000000">...</text>
<polygon fill="#ffffff" stroke="transparent" points="779.5,-76.9396 779.5,-101.9396 864.5,-101.9396 864.5,-76.9396 779.5,-76.9396"/>
<polygon fill="none" stroke="#000000" points="779.5,-76.9396 779.5,-101.9396 864.5,-101.9396 864.5,-76.9396 779.5,-76.9396"/>
<text text-anchor="start" x="782.5" y="-84.5396" font-family="Helvetica,sans-Serif" font-size="16.00" fill="#000000">&lt; 3</text>
<polygon fill="#ffffff" stroke="transparent" points="864.5,-76.9396 864.5,-101.9396 955.5,-101.9396 955.5,-76.9396 864.5,-76.9396"/>
<polygon fill="none" stroke="#000000" points="864.5,-76.9396 864.5,-101.9396 955.5,-101.9396 955.5,-76.9396 864.5,-76.9396"/>
<text text-anchor="start" x="896.4936" y="-84.5396" font-family="Helvetica,sans-Serif" font-size="16.00" fill="#000000">65 rows</text>
<polygon fill="#ffffff" stroke="transparent" points="955.5,-76.9396 955.5,-101.9396 1012.5,-101.9396 1012.5,-76.9396 955.5,-76.9396"/>
<polygon fill="none" stroke="#000000" points="955.5,-76.9396 955.5,-101.9396 1012.5,-101.9396 1012.5,-76.9396 955.5,-76.9396"/>
<text text-anchor="start" x="986.8168" y="-84.5396" font-family="Helvetica,sans-Serif" font-size="16.00" fill="#000000">2 &gt;</text>
</a>
</g>
</g>
<!-- timers&#45;&gt;projects -->
<g id="edge5" class="edge">
<title>timers:w&#45;&gt;projects:e</title>
<path fill="none" stroke="#000000" d="M765.539,-163.578C693.6598,-206.3545 824.2513,-611.9396 728.5,-611.9396"/>
<polygon fill="#000000" stroke="#000000" points="771.7586,-161.9571 780.4079,-163.4233 775.6293,-160.9484 779.5,-159.9396 779.5,-159.9396 779.5,-159.9396 775.6293,-160.9484 778.5921,-156.456 771.7586,-161.9571 771.7586,-161.9571"/>
<ellipse fill="none" stroke="#000000" cx="768.662" cy="-162.7641" rx="3.2" ry="3.2"/>
</g>
<!-- timers&#45;&gt;business_partners -->
<g id="edge4" class="edge">
<title>timers:w&#45;&gt;business_partners:e</title>
<path fill="none" stroke="#000000" d="M765.5718,-199.5188C751.2029,-186.806 763.3278,-150.1542 738,-135.9396 550.0248,-30.4431 423.6969,-4.3084 253,-135.9396 196.2308,-179.7166 283.6879,-291.9396 212,-291.9396"/>
<polygon fill="#000000" stroke="#000000" points="771.8749,-201.5194 778.4109,-207.3709 775.6874,-202.7295 779.5,-203.9396 779.5,-203.9396 779.5,-203.9396 775.6874,-202.7295 780.5891,-200.5083 771.8749,-201.5194 771.8749,-201.5194"/>
<ellipse fill="none" stroke="#000000" cx="768.8248" cy="-200.5513" rx="3.2" ry="3.2"/>
</g>
</g>
</svg>
