<?xml version="1.0" encoding="UTF-8" standalone="no"?>
<!DOCTYPE svg PUBLIC "-//W3C//DTD SVG 1.1//EN"
 "http://www.w3.org/Graphics/SVG/1.1/DTD/svg11.dtd">
<!-- Generated by graphviz version 2.40.1 (20161225.0304)
 -->
<!-- Title: oneDegreeRelationshipsDiagram Pages: 1 -->
<svg width="612pt" height="483pt"
 viewBox="0.00 0.00 612.00 483.20" xmlns="http://www.w3.org/2000/svg" xmlns:xlink="http://www.w3.org/1999/xlink">
<g id="graph0" class="graph" transform="scale(1 1) rotate(0) translate(4 479.2)">
<title>oneDegreeRelationshipsDiagram</title>
<polygon fill="#ffffff" stroke="transparent" points="-4,4 -4,-479.2 608,-479.2 608,4 -4,4"/>
<text text-anchor="middle" x="101.8088" y="-8.8" font-family="Helvetica,sans-Serif" font-size="16.00" fill="#000000">Generated by SchemaSpy</text>
<!-- project_tags -->
<g id="node1" class="node">
<title>project_tags</title>
<g id="a_node1"><a xlink:href="../../tables/project_tags.html" xlink:title="project_tags" target="_top">
<polygon fill="#ffffff" stroke="transparent" points="341,-178.7 341,-336.7 596,-336.7 596,-178.7 341,-178.7"/>
<polygon fill="#f5f5f5" stroke="transparent" points="343.5,-305.7 343.5,-334.7 594.5,-334.7 594.5,-305.7 343.5,-305.7"/>
<polygon fill="none" stroke="#000000" points="343.5,-305.7 343.5,-334.7 594.5,-334.7 594.5,-305.7 343.5,-305.7"/>
<text text-anchor="start" x="348.5" y="-312.8" font-family="Helvetica,sans-Serif" font-weight="bold" font-size="16.00" fill="#000000">project_tags</text>
<text text-anchor="start" x="545.9272" y="-315.3" font-family="Helvetica,sans-Serif" font-size="16.00" fill="#000000">[table]</text>
<polygon fill="#ffffff" stroke="transparent" points="343.5,-280.7 343.5,-305.7 465.5,-305.7 465.5,-280.7 343.5,-280.7"/>
<polygon fill="none" stroke="#000000" points="343.5,-280.7 343.5,-305.7 465.5,-305.7 465.5,-280.7 343.5,-280.7"/>
<image xlink:href="../../images/foreignKeys.png" width="11px" height="12px" preserveAspectRatio="xMinYMin meet" x="348.5" y="-299.2"/>
<text text-anchor="start" x="363.5" y="-284.8" font-family="Helvetica,sans-Serif" font-size="16.00" fill="#000000">project_id</text>
<polygon fill="none" stroke="#000000" points="465.5,-280.7 465.5,-305.7 594.5,-305.7 594.5,-280.7 465.5,-280.7"/>
<text text-anchor="start" x="468.188" y="-288.3" font-family="Helvetica,sans-Serif" font-size="16.00" fill="#000000">text[2000000000]</text>
<polygon fill="#ffffff" stroke="transparent" points="343.5,-255.7 343.5,-280.7 465.5,-280.7 465.5,-255.7 343.5,-255.7"/>
<polygon fill="none" stroke="#000000" points="343.5,-255.7 343.5,-280.7 465.5,-280.7 465.5,-255.7 343.5,-255.7"/>
<image xlink:href="../../images/foreignKeys.png" width="11px" height="12px" preserveAspectRatio="xMinYMin meet" x="348.5" y="-274.2"/>
<text text-anchor="start" x="363.5" y="-259.8" font-family="Helvetica,sans-Serif" font-size="16.00" fill="#000000">tag_id</text>
<polygon fill="none" stroke="#000000" points="465.5,-255.7 465.5,-280.7 594.5,-280.7 594.5,-255.7 465.5,-255.7"/>
<text text-anchor="start" x="468.188" y="-263.3" font-family="Helvetica,sans-Serif" font-size="16.00" fill="#000000">text[2000000000]</text>
<polygon fill="none" stroke="#000000" points="343.5,-230.7 343.5,-255.7 465.5,-255.7 465.5,-230.7 343.5,-230.7"/>
<text text-anchor="start" x="363.5" y="-234.8" font-family="Helvetica,sans-Serif" font-size="16.00" fill="#000000">inserted_at</text>
<polygon fill="none" stroke="#000000" points="465.5,-230.7 465.5,-255.7 594.5,-255.7 594.5,-230.7 465.5,-230.7"/>
<text text-anchor="start" x="468.188" y="-238.3" font-family="Helvetica,sans-Serif" font-size="16.00" fill="#000000">text[2000000000]</text>
<polygon fill="none" stroke="#000000" points="343.5,-205.7 343.5,-230.7 465.5,-230.7 465.5,-205.7 343.5,-205.7"/>
<text text-anchor="start" x="363.5" y="-209.8" font-family="Helvetica,sans-Serif" font-size="16.00" fill="#000000">updated_at</text>
<polygon fill="none" stroke="#000000" points="465.5,-205.7 465.5,-230.7 594.5,-230.7 594.5,-205.7 465.5,-205.7"/>
<text text-anchor="start" x="468.188" y="-213.3" font-family="Helvetica,sans-Serif" font-size="16.00" fill="#000000">text[2000000000]</text>
<polygon fill="#ffffff" stroke="transparent" points="343.5,-180.7 343.5,-205.7 391.5,-205.7 391.5,-180.7 343.5,-180.7"/>
<polygon fill="none" stroke="#000000" points="343.5,-180.7 343.5,-205.7 391.5,-205.7 391.5,-180.7 343.5,-180.7"/>
<text text-anchor="start" x="346.5" y="-188.3" font-family="Helvetica,sans-Serif" font-size="16.00" fill="#000000">&lt; 2</text>
<polygon fill="#ffffff" stroke="transparent" points="391.5,-180.7 391.5,-205.7 465.5,-205.7 465.5,-180.7 391.5,-180.7"/>
<polygon fill="none" stroke="#000000" points="391.5,-180.7 391.5,-205.7 465.5,-205.7 465.5,-180.7 391.5,-180.7"/>
<text text-anchor="start" x="415.388" y="-188.3" font-family="Helvetica,sans-Serif" font-size="16.00" fill="#000000">0 rows</text>
<polygon fill="#ffffff" stroke="transparent" points="465.5,-180.7 465.5,-205.7 594.5,-205.7 594.5,-180.7 465.5,-180.7"/>
<polygon fill="none" stroke="#000000" points="465.5,-180.7 465.5,-205.7 594.5,-205.7 594.5,-180.7 465.5,-180.7"/>
<text text-anchor="start" x="568.8168" y="-188.3" font-family="Helvetica,sans-Serif" font-size="16.00" fill="#000000">0 &gt;</text>
<polygon fill="none" stroke="#000000" stroke-width="2" points="342,-179.7 342,-335.7 595,-335.7 595,-179.7 342,-179.7"/>
</a>
</g>
</g>
<!-- projects -->
<g id="node2" class="node">
<title>projects</title>
<g id="a_node2"><a xlink:href="../../tables/projects.html" xlink:title="projects" target="_top">
<polygon fill="#ffffff" stroke="transparent" points="8,-194.2 8,-471.2 292,-471.2 292,-194.2 8,-194.2"/>
<polygon fill="#f5f5f5" stroke="transparent" points="8,-441.7 8,-470.7 292,-470.7 292,-441.7 8,-441.7"/>
<polygon fill="none" stroke="#000000" points="8,-441.7 8,-470.7 292,-470.7 292,-441.7 8,-441.7"/>
<text text-anchor="start" x="13" y="-448.8" font-family="Helvetica,sans-Serif" font-weight="bold" font-size="16.00" fill="#000000">projects</text>
<text text-anchor="start" x="243.4272" y="-451.3" font-family="Helvetica,sans-Serif" font-size="16.00" fill="#000000">[table]</text>
<polygon fill="none" stroke="#000000" points="8,-419.7 8,-441.7 292,-441.7 292,-419.7 8,-419.7"/>
<image xlink:href="../../images/primaryKeys.png" width="11px" height="12px" preserveAspectRatio="xMinYMin meet" x="13" y="-436.7"/>
<text text-anchor="start" x="28" y="-422.3" font-family="Helvetica,sans-Serif" font-size="16.00" fill="#000000">id</text>
<polygon fill="#ffffff" stroke="transparent" points="8,-397.7 8,-419.7 292,-419.7 292,-397.7 8,-397.7"/>
<polygon fill="none" stroke="#000000" points="8,-397.7 8,-419.7 292,-419.7 292,-397.7 8,-397.7"/>
<text text-anchor="start" x="28" y="-400.3" font-family="Helvetica,sans-Serif" font-size="16.00" fill="#000000">name</text>
<polygon fill="#ffffff" stroke="transparent" points="8,-375.7 8,-397.7 292,-397.7 292,-375.7 8,-375.7"/>
<polygon fill="none" stroke="#000000" points="8,-375.7 8,-397.7 292,-397.7 292,-375.7 8,-375.7"/>
<text text-anchor="start" x="28" y="-378.3" font-family="Helvetica,sans-Serif" font-size="16.00" fill="#000000">status</text>
<polygon fill="#ffffff" stroke="transparent" points="8,-353.7 8,-375.7 292,-375.7 292,-353.7 8,-353.7"/>
<polygon fill="none" stroke="#000000" points="8,-353.7 8,-375.7 292,-375.7 292,-353.7 8,-353.7"/>
<text text-anchor="start" x="28" y="-356.3" font-family="Helvetica,sans-Serif" font-size="16.00" fill="#000000">project_type</text>
<polygon fill="#ffffff" stroke="transparent" points="8,-331.7 8,-353.7 292,-353.7 292,-331.7 8,-331.7"/>
<polygon fill="none" stroke="#000000" points="8,-331.7 8,-353.7 292,-353.7 292,-331.7 8,-331.7"/>
<text text-anchor="start" x="28" y="-334.3" font-family="Helvetica,sans-Serif" font-size="16.00" fill="#000000">priority</text>
<polygon fill="#ffffff" stroke="transparent" points="8,-309.7 8,-331.7 292,-331.7 292,-309.7 8,-309.7"/>
<polygon fill="none" stroke="#000000" points="8,-309.7 8,-331.7 292,-331.7 292,-309.7 8,-309.7"/>
<image xlink:href="../../images/foreignKeys.png" width="11px" height="12px" preserveAspectRatio="xMinYMin meet" x="13" y="-326.7"/>
<text text-anchor="start" x="28" y="-312.3" font-family="Helvetica,sans-Serif" font-size="16.00" fill="#000000">business_partner_id</text>
<polygon fill="#ffffff" stroke="transparent" points="8,-287.7 8,-309.7 292,-309.7 292,-287.7 8,-287.7"/>
<polygon fill="none" stroke="#000000" points="8,-287.7 8,-309.7 292,-309.7 292,-287.7 8,-287.7"/>
<text text-anchor="start" x="28" y="-290.3" font-family="Helvetica,sans-Serif" font-size="16.00" fill="#000000">billable</text>
<polygon fill="#ffffff" stroke="transparent" points="8,-265.7 8,-287.7 292,-287.7 292,-265.7 8,-265.7"/>
<polygon fill="none" stroke="#000000" points="8,-265.7 8,-287.7 292,-287.7 292,-265.7 8,-265.7"/>
<text text-anchor="start" x="28" y="-268.3" font-family="Helvetica,sans-Serif" font-size="16.00" fill="#000000">active</text>
<polygon fill="#ffffff" stroke="transparent" points="8,-243.7 8,-265.7 292,-265.7 292,-243.7 8,-243.7"/>
<polygon fill="none" stroke="#000000" points="8,-243.7 8,-265.7 292,-265.7 292,-243.7 8,-243.7"/>
<text text-anchor="start" x="28" y="-246.3" font-family="Helvetica,sans-Serif" font-size="16.00" fill="#000000">inserted_at</text>
<polygon fill="none" stroke="#000000" points="8,-218.7 8,-243.7 292,-243.7 292,-218.7 8,-218.7"/>
<text text-anchor="start" x="11" y="-226.3" font-family="Helvetica,sans-Serif" font-size="16.00" fill="#000000">...</text>
<polygon fill="#ffffff" stroke="transparent" points="8,-193.7 8,-218.7 119,-218.7 119,-193.7 8,-193.7"/>
<polygon fill="none" stroke="#000000" points="8,-193.7 8,-218.7 119,-218.7 119,-193.7 8,-193.7"/>
<text text-anchor="start" x="11" y="-201.3" font-family="Helvetica,sans-Serif" font-size="16.00" fill="#000000">&lt; 1</text>
<polygon fill="#ffffff" stroke="transparent" points="119,-193.7 119,-218.7 222,-218.7 222,-193.7 119,-193.7"/>
<polygon fill="none" stroke="#000000" points="119,-193.7 119,-218.7 222,-218.7 222,-193.7 119,-193.7"/>
<text text-anchor="start" x="162.9936" y="-201.3" font-family="Helvetica,sans-Serif" font-size="16.00" fill="#000000">13 rows</text>
<polygon fill="#ffffff" stroke="transparent" points="222,-193.7 222,-218.7 292,-218.7 292,-193.7 222,-193.7"/>
<polygon fill="none" stroke="#000000" points="222,-193.7 222,-218.7 292,-218.7 292,-193.7 222,-193.7"/>
<text text-anchor="start" x="266.3168" y="-201.3" font-family="Helvetica,sans-Serif" font-size="16.00" fill="#000000">3 &gt;</text>
</a>
</g>
</g>
<!-- project_tags&#45;&gt;projects -->
<g id="edge1" class="edge">
<title>project_tags:w&#45;&gt;projects:e</title>
<path fill="none" stroke="#000000" d="M329.2374,-296.8188C291.4146,-317.2113 351.2047,-430.7 292,-430.7"/>
<polygon fill="#000000" stroke="#000000" points="335.6847,-295.409 344.2691,-297.2169 339.5923,-294.5545 343.5,-293.7 343.5,-293.7 343.5,-293.7 339.5923,-294.5545 342.7309,-290.1831 335.6847,-295.409 335.6847,-295.409"/>
<ellipse fill="none" stroke="#000000" cx="332.5585" cy="-296.0927" rx="3.2" ry="3.2"/>
</g>
<!-- tags -->
<g id="node3" class="node">
<title>tags</title>
<g id="a_node3"><a xlink:href="../../tables/tags.html" xlink:title="tags" target="_top">
<polygon fill="#ffffff" stroke="transparent" points="94,-50.2 94,-173.2 206,-173.2 206,-50.2 94,-50.2"/>
<polygon fill="#f5f5f5" stroke="transparent" points="94,-143.7 94,-172.7 206,-172.7 206,-143.7 94,-143.7"/>
<polygon fill="none" stroke="#000000" points="94,-143.7 94,-172.7 206,-172.7 206,-143.7 94,-143.7"/>
<text text-anchor="start" x="98.8824" y="-150.8" font-family="Helvetica,sans-Serif" font-weight="bold" font-size="16.00" fill="#000000">tags</text>
<text text-anchor="start" x="157.4272" y="-153.3" font-family="Helvetica,sans-Serif" font-size="16.00" fill="#000000">[table]</text>
<polygon fill="none" stroke="#000000" points="94,-121.7 94,-143.7 206,-143.7 206,-121.7 94,-121.7"/>
<image xlink:href="../../images/primaryKeys.png" width="11px" height="12px" preserveAspectRatio="xMinYMin meet" x="99" y="-138.7"/>
<text text-anchor="start" x="114" y="-124.3" font-family="Helvetica,sans-Serif" font-size="16.00" fill="#000000">id</text>
<polygon fill="#ffffff" stroke="transparent" points="94,-99.7 94,-121.7 206,-121.7 206,-99.7 94,-99.7"/>
<polygon fill="none" stroke="#000000" points="94,-99.7 94,-121.7 206,-121.7 206,-99.7 94,-99.7"/>
<text text-anchor="start" x="114" y="-102.3" font-family="Helvetica,sans-Serif" font-size="16.00" fill="#000000">name</text>
<polygon fill="none" stroke="#000000" points="94,-74.7 94,-99.7 206,-99.7 206,-74.7 94,-74.7"/>
<text text-anchor="start" x="97" y="-82.3" font-family="Helvetica,sans-Serif" font-size="16.00" fill="#000000">...</text>
<polygon fill="#ffffff" stroke="transparent" points="94,-49.7 94,-74.7 108,-74.7 108,-49.7 94,-49.7"/>
<polygon fill="none" stroke="#000000" points="94,-49.7 94,-74.7 108,-74.7 108,-49.7 94,-49.7"/>
<text text-anchor="start" x="96.5536" y="-57.3" font-family="Helvetica,sans-Serif" font-size="16.00" fill="#000000"> &#160;</text>
<polygon fill="#ffffff" stroke="transparent" points="108,-49.7 108,-74.7 178,-74.7 178,-49.7 108,-49.7"/>
<polygon fill="none" stroke="#000000" points="108,-49.7 108,-74.7 178,-74.7 178,-49.7 108,-49.7"/>
<text text-anchor="start" x="110.5496" y="-57.3" font-family="Helvetica,sans-Serif" font-size="16.00" fill="#000000">167 rows</text>
<polygon fill="#ffffff" stroke="transparent" points="178,-49.7 178,-74.7 206,-74.7 206,-49.7 178,-49.7"/>
<polygon fill="none" stroke="#000000" points="178,-49.7 178,-74.7 206,-74.7 206,-49.7 178,-49.7"/>
<text text-anchor="start" x="180.6584" y="-57.3" font-family="Helvetica,sans-Serif" font-size="16.00" fill="#000000">3 &gt;</text>
</a>
</g>
</g>
<!-- project_tags&#45;&gt;tags -->
<g id="edge2" class="edge">
<title>project_tags:w&#45;&gt;tags:e</title>
<path fill="none" stroke="#000000" d="M329.1598,-265.5145C308.1081,-253.4146 325.3597,-209.6781 300,-183.7 266.7981,-149.6883 253.5306,-132.7 206,-132.7"/>
<polygon fill="#000000" stroke="#000000" points="335.6904,-266.9651 342.7193,-272.2143 339.5952,-267.8326 343.5,-268.7 343.5,-268.7 343.5,-268.7 339.5952,-267.8326 344.2807,-265.1857 335.6904,-266.9651 335.6904,-266.9651"/>
<ellipse fill="none" stroke="#000000" cx="332.5665" cy="-266.2712" rx="3.2" ry="3.2"/>
</g>
</g>
</svg>
