<?xml version="1.0" encoding="UTF-8" standalone="no"?>
<!DOCTYPE svg PUBLIC "-//W3C//DTD SVG 1.1//EN"
 "http://www.w3.org/Graphics/SVG/1.1/DTD/svg11.dtd">
<!-- Generated by graphviz version 2.40.1 (20161225.0304)
 -->
<!-- Title: twoDegreesRelationshipsDiagram Pages: 1 -->
<svg width="1078pt" height="523pt"
 viewBox="0.00 0.00 1078.00 523.37" xmlns="http://www.w3.org/2000/svg" xmlns:xlink="http://www.w3.org/1999/xlink">
<g id="graph0" class="graph" transform="scale(1 1) rotate(0) translate(4 519.3675)">
<title>twoDegreesRelationshipsDiagram</title>
<polygon fill="#ffffff" stroke="transparent" points="-4,4 -4,-519.3675 1074,-519.3675 1074,4 -4,4"/>
<text text-anchor="middle" x="101.8088" y="-8.8" font-family="Helvetica,sans-Serif" font-size="16.00" fill="#000000">Generated by SchemaSpy</text>
<!-- journal_entry_tags -->
<g id="node1" class="node">
<title>journal_entry_tags</title>
<g id="a_node1"><a xlink:href="../../tables/journal_entry_tags.html" xlink:title="journal_entry_tags" target="_top">
<polygon fill="#ffffff" stroke="transparent" points="832,-252.8675 832,-331.8675 1037,-331.8675 1037,-252.8675 832,-252.8675"/>
<polygon fill="#f5f5f5" stroke="transparent" points="832.5,-302.3675 832.5,-331.3675 1037.5,-331.3675 1037.5,-302.3675 832.5,-302.3675"/>
<polygon fill="none" stroke="#000000" points="832.5,-302.3675 832.5,-331.3675 1037.5,-331.3675 1037.5,-302.3675 832.5,-302.3675"/>
<text text-anchor="start" x="837.5" y="-309.4675" font-family="Helvetica,sans-Serif" font-weight="bold" font-size="16.00" fill="#000000">journal_entry_tags</text>
<text text-anchor="start" x="989.2136" y="-311.9675" font-family="Helvetica,sans-Serif" font-size="16.00" fill="#000000">[table]</text>
<polygon fill="none" stroke="#000000" points="832.5,-277.3675 832.5,-302.3675 1037.5,-302.3675 1037.5,-277.3675 832.5,-277.3675"/>
<text text-anchor="start" x="835.5" y="-284.9675" font-family="Helvetica,sans-Serif" font-size="16.00" fill="#000000">...</text>
<polygon fill="#ffffff" stroke="transparent" points="832.5,-252.3675 832.5,-277.3675 915.5,-277.3675 915.5,-252.3675 832.5,-252.3675"/>
<polygon fill="none" stroke="#000000" points="832.5,-252.3675 832.5,-277.3675 915.5,-277.3675 915.5,-252.3675 832.5,-252.3675"/>
<text text-anchor="start" x="835.5" y="-259.9675" font-family="Helvetica,sans-Serif" font-size="16.00" fill="#000000">&lt; 2</text>
<polygon fill="#ffffff" stroke="transparent" points="915.5,-252.3675 915.5,-277.3675 995.5,-277.3675 995.5,-252.3675 915.5,-252.3675"/>
<polygon fill="none" stroke="#000000" points="915.5,-252.3675 915.5,-277.3675 995.5,-277.3675 995.5,-252.3675 915.5,-252.3675"/>
<text text-anchor="start" x="945.388" y="-259.9675" font-family="Helvetica,sans-Serif" font-size="16.00" fill="#000000">2 rows</text>
<polygon fill="#ffffff" stroke="transparent" points="995.5,-252.3675 995.5,-277.3675 1037.5,-277.3675 1037.5,-252.3675 995.5,-252.3675"/>
<polygon fill="none" stroke="#000000" points="995.5,-252.3675 995.5,-277.3675 1037.5,-277.3675 1037.5,-252.3675 995.5,-252.3675"/>
<text text-anchor="start" x="1025.6072" y="-259.9675" font-family="Helvetica,sans-Serif" font-size="16.00" fill="#000000"> &#160;</text>
</a>
</g>
</g>
<!-- tags -->
<g id="node2" class="node">
<title>tags</title>
<g id="a_node2"><a xlink:href="../../tables/tags.html" xlink:title="tags" target="_top">
<polygon fill="#ffffff" stroke="transparent" points="620,-320.8675 620,-443.8675 732,-443.8675 732,-320.8675 620,-320.8675"/>
<polygon fill="#f5f5f5" stroke="transparent" points="620,-414.3675 620,-443.3675 732,-443.3675 732,-414.3675 620,-414.3675"/>
<polygon fill="none" stroke="#000000" points="620,-414.3675 620,-443.3675 732,-443.3675 732,-414.3675 620,-414.3675"/>
<text text-anchor="start" x="624.8824" y="-421.4675" font-family="Helvetica,sans-Serif" font-weight="bold" font-size="16.00" fill="#000000">tags</text>
<text text-anchor="start" x="683.4272" y="-423.9675" font-family="Helvetica,sans-Serif" font-size="16.00" fill="#000000">[table]</text>
<polygon fill="none" stroke="#000000" points="620,-392.3675 620,-414.3675 732,-414.3675 732,-392.3675 620,-392.3675"/>
<image xlink:href="../../images/primaryKeys.png" width="11px" height="12px" preserveAspectRatio="xMinYMin meet" x="625" y="-409.367"/>
<text text-anchor="start" x="640" y="-394.9675" font-family="Helvetica,sans-Serif" font-size="16.00" fill="#000000">id</text>
<polygon fill="#ffffff" stroke="transparent" points="620,-370.3675 620,-392.3675 732,-392.3675 732,-370.3675 620,-370.3675"/>
<polygon fill="none" stroke="#000000" points="620,-370.3675 620,-392.3675 732,-392.3675 732,-370.3675 620,-370.3675"/>
<text text-anchor="start" x="640" y="-372.9675" font-family="Helvetica,sans-Serif" font-size="16.00" fill="#000000">name</text>
<polygon fill="none" stroke="#000000" points="620,-345.3675 620,-370.3675 732,-370.3675 732,-345.3675 620,-345.3675"/>
<text text-anchor="start" x="623" y="-352.9675" font-family="Helvetica,sans-Serif" font-size="16.00" fill="#000000">...</text>
<polygon fill="#ffffff" stroke="transparent" points="620,-320.3675 620,-345.3675 634,-345.3675 634,-320.3675 620,-320.3675"/>
<polygon fill="none" stroke="#000000" points="620,-320.3675 620,-345.3675 634,-345.3675 634,-320.3675 620,-320.3675"/>
<text text-anchor="start" x="622.5536" y="-327.9675" font-family="Helvetica,sans-Serif" font-size="16.00" fill="#000000"> &#160;</text>
<polygon fill="#ffffff" stroke="transparent" points="634,-320.3675 634,-345.3675 704,-345.3675 704,-320.3675 634,-320.3675"/>
<polygon fill="none" stroke="#000000" points="634,-320.3675 634,-345.3675 704,-345.3675 704,-320.3675 634,-320.3675"/>
<text text-anchor="start" x="636.5496" y="-327.9675" font-family="Helvetica,sans-Serif" font-size="16.00" fill="#000000">167 rows</text>
<polygon fill="#ffffff" stroke="transparent" points="704,-320.3675 704,-345.3675 732,-345.3675 732,-320.3675 704,-320.3675"/>
<polygon fill="none" stroke="#000000" points="704,-320.3675 704,-345.3675 732,-345.3675 732,-320.3675 704,-320.3675"/>
<text text-anchor="start" x="706.6584" y="-327.9675" font-family="Helvetica,sans-Serif" font-size="16.00" fill="#000000">3 &gt;</text>
</a>
</g>
</g>
<!-- journal_entry_tags&#45;&gt;tags -->
<g id="edge1" class="edge">
<title>journal_entry_tags:w&#45;&gt;tags:e</title>
<path fill="none" stroke="#000000" d="M818.1334,-291.4435C769.8404,-306.8943 794.1354,-403.3675 732,-403.3675"/>
<polygon fill="#000000" stroke="#000000" points="824.5822,-290.5117 833.0149,-292.9305 828.5411,-289.9396 832.5,-289.3675 832.5,-289.3675 832.5,-289.3675 828.5411,-289.9396 831.9851,-285.8045 824.5822,-290.5117 824.5822,-290.5117"/>
<ellipse fill="none" stroke="#000000" cx="821.4151" cy="-290.9693" rx="3.2" ry="3.2"/>
</g>
<!-- project_notes -->
<g id="node3" class="node">
<title>project_notes</title>
<g id="a_node3"><a xlink:href="../../tables/project_notes.html" xlink:title="project_notes" target="_top">
<polygon fill="#ffffff" stroke="transparent" points="594,-220.8675 594,-299.8675 758,-299.8675 758,-220.8675 594,-220.8675"/>
<polygon fill="#f5f5f5" stroke="transparent" points="594,-270.3675 594,-299.3675 758,-299.3675 758,-270.3675 594,-270.3675"/>
<polygon fill="none" stroke="#000000" points="594,-270.3675 594,-299.3675 758,-299.3675 758,-270.3675 594,-270.3675"/>
<text text-anchor="start" x="599" y="-277.4675" font-family="Helvetica,sans-Serif" font-weight="bold" font-size="16.00" fill="#000000">project_notes</text>
<text text-anchor="start" x="709.7136" y="-279.9675" font-family="Helvetica,sans-Serif" font-size="16.00" fill="#000000">[table]</text>
<polygon fill="none" stroke="#000000" points="594,-245.3675 594,-270.3675 758,-270.3675 758,-245.3675 594,-245.3675"/>
<text text-anchor="start" x="597" y="-252.9675" font-family="Helvetica,sans-Serif" font-size="16.00" fill="#000000">...</text>
<polygon fill="#ffffff" stroke="transparent" points="594,-220.3675 594,-245.3675 656,-245.3675 656,-220.3675 594,-220.3675"/>
<polygon fill="none" stroke="#000000" points="594,-220.3675 594,-245.3675 656,-245.3675 656,-220.3675 594,-220.3675"/>
<text text-anchor="start" x="597" y="-227.9675" font-family="Helvetica,sans-Serif" font-size="16.00" fill="#000000">&lt; 1</text>
<polygon fill="#ffffff" stroke="transparent" points="656,-220.3675 656,-245.3675 726,-245.3675 726,-220.3675 656,-220.3675"/>
<polygon fill="none" stroke="#000000" points="656,-220.3675 656,-245.3675 726,-245.3675 726,-220.3675 656,-220.3675"/>
<text text-anchor="start" x="675.888" y="-227.9675" font-family="Helvetica,sans-Serif" font-size="16.00" fill="#000000">0 rows</text>
<polygon fill="#ffffff" stroke="transparent" points="726,-220.3675 726,-245.3675 758,-245.3675 758,-220.3675 726,-220.3675"/>
<polygon fill="none" stroke="#000000" points="726,-220.3675 726,-245.3675 758,-245.3675 758,-220.3675 726,-220.3675"/>
<text text-anchor="start" x="746.1072" y="-227.9675" font-family="Helvetica,sans-Serif" font-size="16.00" fill="#000000"> &#160;</text>
</a>
</g>
</g>
<!-- projects -->
<g id="node4" class="node">
<title>projects</title>
<g id="a_node4"><a xlink:href="../../tables/projects.html" xlink:title="projects" target="_top">
<polygon fill="#ffffff" stroke="transparent" points="261,-100.8675 261,-377.8675 545,-377.8675 545,-100.8675 261,-100.8675"/>
<polygon fill="#f5f5f5" stroke="transparent" points="261,-348.3675 261,-377.3675 545,-377.3675 545,-348.3675 261,-348.3675"/>
<polygon fill="none" stroke="#000000" points="261,-348.3675 261,-377.3675 545,-377.3675 545,-348.3675 261,-348.3675"/>
<text text-anchor="start" x="266" y="-355.4675" font-family="Helvetica,sans-Serif" font-weight="bold" font-size="16.00" fill="#000000">projects</text>
<text text-anchor="start" x="496.4272" y="-357.9675" font-family="Helvetica,sans-Serif" font-size="16.00" fill="#000000">[table]</text>
<polygon fill="none" stroke="#000000" points="261,-326.3675 261,-348.3675 545,-348.3675 545,-326.3675 261,-326.3675"/>
<image xlink:href="../../images/primaryKeys.png" width="11px" height="12px" preserveAspectRatio="xMinYMin meet" x="266" y="-343.367"/>
<text text-anchor="start" x="281" y="-328.9675" font-family="Helvetica,sans-Serif" font-size="16.00" fill="#000000">id</text>
<polygon fill="#ffffff" stroke="transparent" points="261,-304.3675 261,-326.3675 545,-326.3675 545,-304.3675 261,-304.3675"/>
<polygon fill="none" stroke="#000000" points="261,-304.3675 261,-326.3675 545,-326.3675 545,-304.3675 261,-304.3675"/>
<text text-anchor="start" x="281" y="-306.9675" font-family="Helvetica,sans-Serif" font-size="16.00" fill="#000000">name</text>
<polygon fill="#ffffff" stroke="transparent" points="261,-282.3675 261,-304.3675 545,-304.3675 545,-282.3675 261,-282.3675"/>
<polygon fill="none" stroke="#000000" points="261,-282.3675 261,-304.3675 545,-304.3675 545,-282.3675 261,-282.3675"/>
<text text-anchor="start" x="281" y="-284.9675" font-family="Helvetica,sans-Serif" font-size="16.00" fill="#000000">status</text>
<polygon fill="#ffffff" stroke="transparent" points="261,-260.3675 261,-282.3675 545,-282.3675 545,-260.3675 261,-260.3675"/>
<polygon fill="none" stroke="#000000" points="261,-260.3675 261,-282.3675 545,-282.3675 545,-260.3675 261,-260.3675"/>
<text text-anchor="start" x="281" y="-262.9675" font-family="Helvetica,sans-Serif" font-size="16.00" fill="#000000">project_type</text>
<polygon fill="#ffffff" stroke="transparent" points="261,-238.3675 261,-260.3675 545,-260.3675 545,-238.3675 261,-238.3675"/>
<polygon fill="none" stroke="#000000" points="261,-238.3675 261,-260.3675 545,-260.3675 545,-238.3675 261,-238.3675"/>
<text text-anchor="start" x="281" y="-240.9675" font-family="Helvetica,sans-Serif" font-size="16.00" fill="#000000">priority</text>
<polygon fill="#ffffff" stroke="transparent" points="261,-216.3675 261,-238.3675 545,-238.3675 545,-216.3675 261,-216.3675"/>
<polygon fill="none" stroke="#000000" points="261,-216.3675 261,-238.3675 545,-238.3675 545,-216.3675 261,-216.3675"/>
<image xlink:href="../../images/foreignKeys.png" width="11px" height="12px" preserveAspectRatio="xMinYMin meet" x="266" y="-233.367"/>
<text text-anchor="start" x="281" y="-218.9675" font-family="Helvetica,sans-Serif" font-size="16.00" fill="#000000">business_partner_id</text>
<polygon fill="#ffffff" stroke="transparent" points="261,-194.3675 261,-216.3675 545,-216.3675 545,-194.3675 261,-194.3675"/>
<polygon fill="none" stroke="#000000" points="261,-194.3675 261,-216.3675 545,-216.3675 545,-194.3675 261,-194.3675"/>
<text text-anchor="start" x="281" y="-196.9675" font-family="Helvetica,sans-Serif" font-size="16.00" fill="#000000">billable</text>
<polygon fill="#ffffff" stroke="transparent" points="261,-172.3675 261,-194.3675 545,-194.3675 545,-172.3675 261,-172.3675"/>
<polygon fill="none" stroke="#000000" points="261,-172.3675 261,-194.3675 545,-194.3675 545,-172.3675 261,-172.3675"/>
<text text-anchor="start" x="281" y="-174.9675" font-family="Helvetica,sans-Serif" font-size="16.00" fill="#000000">active</text>
<polygon fill="#ffffff" stroke="transparent" points="261,-150.3675 261,-172.3675 545,-172.3675 545,-150.3675 261,-150.3675"/>
<polygon fill="none" stroke="#000000" points="261,-150.3675 261,-172.3675 545,-172.3675 545,-150.3675 261,-150.3675"/>
<text text-anchor="start" x="281" y="-152.9675" font-family="Helvetica,sans-Serif" font-size="16.00" fill="#000000">inserted_at</text>
<polygon fill="none" stroke="#000000" points="261,-125.3675 261,-150.3675 545,-150.3675 545,-125.3675 261,-125.3675"/>
<text text-anchor="start" x="264" y="-132.9675" font-family="Helvetica,sans-Serif" font-size="16.00" fill="#000000">...</text>
<polygon fill="#ffffff" stroke="transparent" points="261,-100.3675 261,-125.3675 372,-125.3675 372,-100.3675 261,-100.3675"/>
<polygon fill="none" stroke="#000000" points="261,-100.3675 261,-125.3675 372,-125.3675 372,-100.3675 261,-100.3675"/>
<text text-anchor="start" x="264" y="-107.9675" font-family="Helvetica,sans-Serif" font-size="16.00" fill="#000000">&lt; 1</text>
<polygon fill="#ffffff" stroke="transparent" points="372,-100.3675 372,-125.3675 475,-125.3675 475,-100.3675 372,-100.3675"/>
<polygon fill="none" stroke="#000000" points="372,-100.3675 372,-125.3675 475,-125.3675 475,-100.3675 372,-100.3675"/>
<text text-anchor="start" x="415.9936" y="-107.9675" font-family="Helvetica,sans-Serif" font-size="16.00" fill="#000000">13 rows</text>
<polygon fill="#ffffff" stroke="transparent" points="475,-100.3675 475,-125.3675 545,-125.3675 545,-100.3675 475,-100.3675"/>
<polygon fill="none" stroke="#000000" points="475,-100.3675 475,-125.3675 545,-125.3675 545,-100.3675 475,-100.3675"/>
<text text-anchor="start" x="519.3168" y="-107.9675" font-family="Helvetica,sans-Serif" font-size="16.00" fill="#000000">3 &gt;</text>
</a>
</g>
</g>
<!-- project_notes&#45;&gt;projects -->
<g id="edge2" class="edge">
<title>project_notes:w&#45;&gt;projects:e</title>
<path fill="none" stroke="#000000" d="M580.23,-261.8978C560.6565,-278.8213 580.6687,-337.3675 545,-337.3675"/>
<polygon fill="#000000" stroke="#000000" points="586.4007,-259.8677 595.1251,-260.7872 590.2004,-258.6176 594,-257.3675 594,-257.3675 594,-257.3675 590.2004,-258.6176 592.8749,-253.9478 586.4007,-259.8677 586.4007,-259.8677"/>
<ellipse fill="none" stroke="#000000" cx="583.361" cy="-260.8678" rx="3.2" ry="3.2"/>
</g>
<!-- business_partners -->
<g id="node6" class="node">
<title>business_partners</title>
<g id="a_node6"><a xlink:href="../../tables/business_partners.html" xlink:title="business_partners" target="_top">
<polygon fill="#ffffff" stroke="transparent" points="8,-114.8675 8,-193.8675 212,-193.8675 212,-114.8675 8,-114.8675"/>
<polygon fill="#f5f5f5" stroke="transparent" points="8,-164.3675 8,-193.3675 212,-193.3675 212,-164.3675 8,-164.3675"/>
<polygon fill="none" stroke="#000000" points="8,-164.3675 8,-193.3675 212,-193.3675 212,-164.3675 8,-164.3675"/>
<text text-anchor="start" x="13" y="-171.4675" font-family="Helvetica,sans-Serif" font-weight="bold" font-size="16.00" fill="#000000">business_partners</text>
<text text-anchor="start" x="163.7136" y="-173.9675" font-family="Helvetica,sans-Serif" font-size="16.00" fill="#000000">[table]</text>
<polygon fill="none" stroke="#000000" points="8,-139.3675 8,-164.3675 212,-164.3675 212,-139.3675 8,-139.3675"/>
<text text-anchor="start" x="11" y="-146.9675" font-family="Helvetica,sans-Serif" font-size="16.00" fill="#000000">...</text>
<polygon fill="#ffffff" stroke="transparent" points="8,-114.3675 8,-139.3675 76,-139.3675 76,-114.3675 8,-114.3675"/>
<polygon fill="none" stroke="#000000" points="8,-114.3675 8,-139.3675 76,-139.3675 76,-114.3675 8,-114.3675"/>
<text text-anchor="start" x="11" y="-121.9675" font-family="Helvetica,sans-Serif" font-size="16.00" fill="#000000"> &#160;</text>
<polygon fill="#ffffff" stroke="transparent" points="76,-114.3675 76,-139.3675 156,-139.3675 156,-114.3675 76,-114.3675"/>
<polygon fill="none" stroke="#000000" points="76,-114.3675 76,-139.3675 156,-139.3675 156,-114.3675 76,-114.3675"/>
<text text-anchor="start" x="105.888" y="-121.9675" font-family="Helvetica,sans-Serif" font-size="16.00" fill="#000000">3 rows</text>
<polygon fill="#ffffff" stroke="transparent" points="156,-114.3675 156,-139.3675 212,-139.3675 212,-114.3675 156,-114.3675"/>
<polygon fill="none" stroke="#000000" points="156,-114.3675 156,-139.3675 212,-139.3675 212,-114.3675 156,-114.3675"/>
<text text-anchor="start" x="186.3168" y="-121.9675" font-family="Helvetica,sans-Serif" font-size="16.00" fill="#000000">3 &gt;</text>
</a>
</g>
</g>
<!-- projects&#45;&gt;business_partners -->
<g id="edge5" class="edge">
<title>projects:w&#45;&gt;business_partners:e</title>
<path fill="none" stroke="#000000" d="M247.109,-222.6133C228.7102,-205.9751 246.067,-151.3675 212,-151.3675"/>
<polygon fill="#000000" stroke="#000000" points="253.431,-224.777 259.8343,-230.7735 257.2155,-226.0722 261,-227.3675 261,-227.3675 261,-227.3675 257.2155,-226.0722 262.1657,-223.9614 253.431,-224.777 253.431,-224.777"/>
<ellipse fill="none" stroke="#000000" cx="250.4034" cy="-223.7408" rx="3.2" ry="3.2"/>
</g>
<!-- project_tags -->
<g id="node5" class="node">
<title>project_tags</title>
<g id="a_node5"><a xlink:href="../../tables/project_tags.html" xlink:title="project_tags" target="_top">
<polygon fill="#ffffff" stroke="transparent" points="807,-353.3675 807,-511.3675 1062,-511.3675 1062,-353.3675 807,-353.3675"/>
<polygon fill="#f5f5f5" stroke="transparent" points="809.5,-480.3675 809.5,-509.3675 1060.5,-509.3675 1060.5,-480.3675 809.5,-480.3675"/>
<polygon fill="none" stroke="#000000" points="809.5,-480.3675 809.5,-509.3675 1060.5,-509.3675 1060.5,-480.3675 809.5,-480.3675"/>
<text text-anchor="start" x="814.5" y="-487.4675" font-family="Helvetica,sans-Serif" font-weight="bold" font-size="16.00" fill="#000000">project_tags</text>
<text text-anchor="start" x="1011.9272" y="-489.9675" font-family="Helvetica,sans-Serif" font-size="16.00" fill="#000000">[table]</text>
<polygon fill="#ffffff" stroke="transparent" points="809.5,-455.3675 809.5,-480.3675 931.5,-480.3675 931.5,-455.3675 809.5,-455.3675"/>
<polygon fill="none" stroke="#000000" points="809.5,-455.3675 809.5,-480.3675 931.5,-480.3675 931.5,-455.3675 809.5,-455.3675"/>
<image xlink:href="../../images/foreignKeys.png" width="11px" height="12px" preserveAspectRatio="xMinYMin meet" x="814.5" y="-473.867"/>
<text text-anchor="start" x="829.5" y="-459.4675" font-family="Helvetica,sans-Serif" font-size="16.00" fill="#000000">project_id</text>
<polygon fill="none" stroke="#000000" points="931.5,-455.3675 931.5,-480.3675 1060.5,-480.3675 1060.5,-455.3675 931.5,-455.3675"/>
<text text-anchor="start" x="934.188" y="-462.9675" font-family="Helvetica,sans-Serif" font-size="16.00" fill="#000000">text[2000000000]</text>
<polygon fill="#ffffff" stroke="transparent" points="809.5,-430.3675 809.5,-455.3675 931.5,-455.3675 931.5,-430.3675 809.5,-430.3675"/>
<polygon fill="none" stroke="#000000" points="809.5,-430.3675 809.5,-455.3675 931.5,-455.3675 931.5,-430.3675 809.5,-430.3675"/>
<image xlink:href="../../images/foreignKeys.png" width="11px" height="12px" preserveAspectRatio="xMinYMin meet" x="814.5" y="-448.867"/>
<text text-anchor="start" x="829.5" y="-434.4675" font-family="Helvetica,sans-Serif" font-size="16.00" fill="#000000">tag_id</text>
<polygon fill="none" stroke="#000000" points="931.5,-430.3675 931.5,-455.3675 1060.5,-455.3675 1060.5,-430.3675 931.5,-430.3675"/>
<text text-anchor="start" x="934.188" y="-437.9675" font-family="Helvetica,sans-Serif" font-size="16.00" fill="#000000">text[2000000000]</text>
<polygon fill="none" stroke="#000000" points="809.5,-405.3675 809.5,-430.3675 931.5,-430.3675 931.5,-405.3675 809.5,-405.3675"/>
<text text-anchor="start" x="829.5" y="-409.4675" font-family="Helvetica,sans-Serif" font-size="16.00" fill="#000000">inserted_at</text>
<polygon fill="none" stroke="#000000" points="931.5,-405.3675 931.5,-430.3675 1060.5,-430.3675 1060.5,-405.3675 931.5,-405.3675"/>
<text text-anchor="start" x="934.188" y="-412.9675" font-family="Helvetica,sans-Serif" font-size="16.00" fill="#000000">text[2000000000]</text>
<polygon fill="none" stroke="#000000" points="809.5,-380.3675 809.5,-405.3675 931.5,-405.3675 931.5,-380.3675 809.5,-380.3675"/>
<text text-anchor="start" x="829.5" y="-384.4675" font-family="Helvetica,sans-Serif" font-size="16.00" fill="#000000">updated_at</text>
<polygon fill="none" stroke="#000000" points="931.5,-380.3675 931.5,-405.3675 1060.5,-405.3675 1060.5,-380.3675 931.5,-380.3675"/>
<text text-anchor="start" x="934.188" y="-387.9675" font-family="Helvetica,sans-Serif" font-size="16.00" fill="#000000">text[2000000000]</text>
<polygon fill="#ffffff" stroke="transparent" points="809.5,-355.3675 809.5,-380.3675 857.5,-380.3675 857.5,-355.3675 809.5,-355.3675"/>
<polygon fill="none" stroke="#000000" points="809.5,-355.3675 809.5,-380.3675 857.5,-380.3675 857.5,-355.3675 809.5,-355.3675"/>
<text text-anchor="start" x="812.5" y="-362.9675" font-family="Helvetica,sans-Serif" font-size="16.00" fill="#000000">&lt; 2</text>
<polygon fill="#ffffff" stroke="transparent" points="857.5,-355.3675 857.5,-380.3675 931.5,-380.3675 931.5,-355.3675 857.5,-355.3675"/>
<polygon fill="none" stroke="#000000" points="857.5,-355.3675 857.5,-380.3675 931.5,-380.3675 931.5,-355.3675 857.5,-355.3675"/>
<text text-anchor="start" x="881.388" y="-362.9675" font-family="Helvetica,sans-Serif" font-size="16.00" fill="#000000">0 rows</text>
<polygon fill="#ffffff" stroke="transparent" points="931.5,-355.3675 931.5,-380.3675 1060.5,-380.3675 1060.5,-355.3675 931.5,-355.3675"/>
<polygon fill="none" stroke="#000000" points="931.5,-355.3675 931.5,-380.3675 1060.5,-380.3675 1060.5,-355.3675 931.5,-355.3675"/>
<text text-anchor="start" x="1034.8168" y="-362.9675" font-family="Helvetica,sans-Serif" font-size="16.00" fill="#000000">0 &gt;</text>
<polygon fill="none" stroke="#000000" stroke-width="2" points="808,-354.3675 808,-510.3675 1061,-510.3675 1061,-354.3675 808,-354.3675"/>
</a>
</g>
</g>
<!-- project_tags&#45;&gt;tags -->
<g id="edge4" class="edge">
<title>project_tags:w&#45;&gt;tags:e</title>
<path fill="none" stroke="#000000" d="M795.2327,-441.2169C769.9779,-432.9085 765.3108,-403.3675 732,-403.3675"/>
<polygon fill="#000000" stroke="#000000" points="801.5894,-442.175 808.9634,-446.9273 805.5447,-442.7713 809.5,-443.3675 809.5,-443.3675 809.5,-443.3675 805.5447,-442.7713 810.0366,-439.8077 801.5894,-442.175 801.5894,-442.175"/>
<ellipse fill="none" stroke="#000000" cx="798.4251" cy="-441.698" rx="3.2" ry="3.2"/>
</g>
<!-- project_tags&#45;&gt;projects -->
<g id="edge3" class="edge">
<title>project_tags:w&#45;&gt;projects:e</title>
<path fill="none" stroke="#000000" d="M795.0266,-468.6916C705.4405,-472.6947 661.3923,-511.4612 586,-454.3675 542.0739,-421.1027 600.1004,-337.3675 545,-337.3675"/>
<polygon fill="#000000" stroke="#000000" points="801.502,-468.5466 809.5806,-471.9666 805.501,-468.4571 809.5,-468.3675 809.5,-468.3675 809.5,-468.3675 805.501,-468.4571 809.4194,-464.7684 801.502,-468.5466 801.502,-468.5466"/>
<ellipse fill="none" stroke="#000000" cx="798.3028" cy="-468.6183" rx="3.2" ry="3.2"/>
</g>
<!-- timer_tags -->
<g id="node7" class="node">
<title>timer_tags</title>
<g id="a_node7"><a xlink:href="../../tables/timer_tags.html" xlink:title="timer_tags" target="_top">
<polygon fill="#ffffff" stroke="transparent" points="865.5,-136.8675 865.5,-215.8675 1003.5,-215.8675 1003.5,-136.8675 865.5,-136.8675"/>
<polygon fill="#f5f5f5" stroke="transparent" points="865.5,-186.3675 865.5,-215.3675 1003.5,-215.3675 1003.5,-186.3675 865.5,-186.3675"/>
<polygon fill="none" stroke="#000000" points="865.5,-186.3675 865.5,-215.3675 1003.5,-215.3675 1003.5,-186.3675 865.5,-186.3675"/>
<text text-anchor="start" x="870.5" y="-193.4675" font-family="Helvetica,sans-Serif" font-weight="bold" font-size="16.00" fill="#000000">timer_tags</text>
<text text-anchor="start" x="955.2136" y="-195.9675" font-family="Helvetica,sans-Serif" font-size="16.00" fill="#000000">[table]</text>
<polygon fill="none" stroke="#000000" points="865.5,-161.3675 865.5,-186.3675 1003.5,-186.3675 1003.5,-161.3675 865.5,-161.3675"/>
<text text-anchor="start" x="868.5" y="-168.9675" font-family="Helvetica,sans-Serif" font-size="16.00" fill="#000000">...</text>
<polygon fill="#ffffff" stroke="transparent" points="865.5,-136.3675 865.5,-161.3675 906.5,-161.3675 906.5,-136.3675 865.5,-136.3675"/>
<polygon fill="none" stroke="#000000" points="865.5,-136.3675 865.5,-161.3675 906.5,-161.3675 906.5,-136.3675 865.5,-136.3675"/>
<text text-anchor="start" x="868.5" y="-143.9675" font-family="Helvetica,sans-Serif" font-size="16.00" fill="#000000">&lt; 2</text>
<polygon fill="#ffffff" stroke="transparent" points="906.5,-136.3675 906.5,-161.3675 982.5,-161.3675 982.5,-136.3675 906.5,-136.3675"/>
<polygon fill="none" stroke="#000000" points="906.5,-136.3675 906.5,-161.3675 982.5,-161.3675 982.5,-136.3675 906.5,-136.3675"/>
<text text-anchor="start" x="914.5992" y="-143.9675" font-family="Helvetica,sans-Serif" font-size="16.00" fill="#000000">629 rows</text>
<polygon fill="#ffffff" stroke="transparent" points="982.5,-136.3675 982.5,-161.3675 1003.5,-161.3675 1003.5,-136.3675 982.5,-136.3675"/>
<polygon fill="none" stroke="#000000" points="982.5,-136.3675 982.5,-161.3675 1003.5,-161.3675 1003.5,-136.3675 982.5,-136.3675"/>
<text text-anchor="start" x="991.6072" y="-143.9675" font-family="Helvetica,sans-Serif" font-size="16.00" fill="#000000"> &#160;</text>
</a>
</g>
</g>
<!-- timer_tags&#45;&gt;tags -->
<g id="edge6" class="edge">
<title>timer_tags:w&#45;&gt;tags:e</title>
<path fill="none" stroke="#000000" d="M850.9864,-174.9652C822.3895,-182.0126 819.3522,-211.3475 799,-242.3675 756.4837,-307.1693 809.5043,-403.3675 732,-403.3675"/>
<polygon fill="#000000" stroke="#000000" points="857.548,-174.2429 865.8939,-176.9459 861.524,-173.8052 865.5,-173.3675 865.5,-173.3675 865.5,-173.3675 861.524,-173.8052 865.1061,-169.7891 857.548,-174.2429 857.548,-174.2429"/>
<ellipse fill="none" stroke="#000000" cx="854.3673" cy="-174.5931" rx="3.2" ry="3.2"/>
</g>
<!-- timers -->
<g id="node8" class="node">
<title>timers</title>
<g id="a_node8"><a xlink:href="../../tables/timers.html" xlink:title="timers" target="_top">
<polygon fill="#ffffff" stroke="transparent" points="613,-120.8675 613,-199.8675 739,-199.8675 739,-120.8675 613,-120.8675"/>
<polygon fill="#f5f5f5" stroke="transparent" points="613,-170.3675 613,-199.3675 739,-199.3675 739,-170.3675 613,-170.3675"/>
<polygon fill="none" stroke="#000000" points="613,-170.3675 613,-199.3675 739,-199.3675 739,-170.3675 613,-170.3675"/>
<text text-anchor="start" x="618" y="-177.4675" font-family="Helvetica,sans-Serif" font-weight="bold" font-size="16.00" fill="#000000">timers</text>
<text text-anchor="start" x="690.4272" y="-179.9675" font-family="Helvetica,sans-Serif" font-size="16.00" fill="#000000">[table]</text>
<polygon fill="none" stroke="#000000" points="613,-145.3675 613,-170.3675 739,-170.3675 739,-145.3675 613,-145.3675"/>
<text text-anchor="start" x="616" y="-152.9675" font-family="Helvetica,sans-Serif" font-size="16.00" fill="#000000">...</text>
<polygon fill="#ffffff" stroke="transparent" points="613,-120.3675 613,-145.3675 641,-145.3675 641,-120.3675 613,-120.3675"/>
<polygon fill="none" stroke="#000000" points="613,-120.3675 613,-145.3675 641,-145.3675 641,-120.3675 613,-120.3675"/>
<text text-anchor="start" x="615.6584" y="-127.9675" font-family="Helvetica,sans-Serif" font-size="16.00" fill="#000000">&lt; 3</text>
<polygon fill="#ffffff" stroke="transparent" points="641,-120.3675 641,-145.3675 711,-145.3675 711,-120.3675 641,-120.3675"/>
<polygon fill="none" stroke="#000000" points="641,-120.3675 641,-145.3675 711,-145.3675 711,-120.3675 641,-120.3675"/>
<text text-anchor="start" x="643.5496" y="-127.9675" font-family="Helvetica,sans-Serif" font-size="16.00" fill="#000000">277 rows</text>
<polygon fill="#ffffff" stroke="transparent" points="711,-120.3675 711,-145.3675 739,-145.3675 739,-120.3675 711,-120.3675"/>
<polygon fill="none" stroke="#000000" points="711,-120.3675 711,-145.3675 739,-145.3675 739,-120.3675 711,-120.3675"/>
<text text-anchor="start" x="713.6584" y="-127.9675" font-family="Helvetica,sans-Serif" font-size="16.00" fill="#000000">2 &gt;</text>
</a>
</g>
</g>
<!-- timer_tags&#45;&gt;timers -->
<g id="edge7" class="edge">
<title>timer_tags:w&#45;&gt;timers:e</title>
<path fill="none" stroke="#000000" d="M850.9262,-172.9877C806.0472,-170.5648 790.468,-157.3675 739,-157.3675"/>
<polygon fill="#000000" stroke="#000000" points="857.5027,-173.159 865.4062,-176.9663 861.5014,-173.2633 865.5,-173.3675 865.5,-173.3675 865.5,-173.3675 861.5014,-173.2633 865.5938,-169.7687 857.5027,-173.159 857.5027,-173.159"/>
<ellipse fill="none" stroke="#000000" cx="854.3038" cy="-173.0757" rx="3.2" ry="3.2"/>
</g>
<!-- timers&#45;&gt;projects -->
<g id="edge9" class="edge">
<title>timers:w&#45;&gt;projects:e</title>
<path fill="none" stroke="#000000" d="M598.7131,-159.5144C539.9805,-179.8228 625.0064,-337.3675 545,-337.3675"/>
<polygon fill="#000000" stroke="#000000" points="605.0888,-158.5563 613.535,-160.9275 609.0444,-157.9619 613,-157.3675 613,-157.3675 613,-157.3675 609.0444,-157.9619 612.465,-153.8074 605.0888,-158.5563 605.0888,-158.5563"/>
<ellipse fill="none" stroke="#000000" cx="601.9244" cy="-159.0319" rx="3.2" ry="3.2"/>
</g>
<!-- timers&#45;&gt;business_partners -->
<g id="edge8" class="edge">
<title>timers:w&#45;&gt;business_partners:e</title>
<path fill="none" stroke="#000000" d="M598.8747,-154.4476C576.681,-143.4325 584.2203,-104.3182 553,-90.3675 431.2673,-35.9714 370.6751,-27.675 253,-90.3675 224.1703,-105.7268 244.6659,-151.3675 212,-151.3675"/>
<polygon fill="#000000" stroke="#000000" points="605.1656,-155.7479 612.2712,-160.8929 609.0828,-156.5577 613,-157.3675 613,-157.3675 613,-157.3675 609.0828,-156.5577 613.7288,-153.842 605.1656,-155.7479 605.1656,-155.7479"/>
<ellipse fill="none" stroke="#000000" cx="602.0319" cy="-155.1001" rx="3.2" ry="3.2"/>
</g>
</g>
</svg>
