<?xml version="1.0" encoding="UTF-8" standalone="no"?>
<!DOCTYPE svg PUBLIC "-//W3C//DTD SVG 1.1//EN"
 "http://www.w3.org/Graphics/SVG/1.1/DTD/svg11.dtd">
<!-- Generated by graphviz version 2.40.1 (20161225.0304)
 -->
<!-- Title: twoDegreesRelationshipsDiagram Pages: 1 -->
<svg width="1162pt" height="826pt"
 viewBox="0.00 0.00 1162.00 825.58" xmlns="http://www.w3.org/2000/svg" xmlns:xlink="http://www.w3.org/1999/xlink">
<g id="graph0" class="graph" transform="scale(1 1) rotate(0) translate(4 821.5818)">
<title>twoDegreesRelationshipsDiagram</title>
<polygon fill="#ffffff" stroke="transparent" points="-4,4 -4,-821.5818 1158,-821.5818 1158,4 -4,4"/>
<text text-anchor="middle" x="101.8088" y="-8.8" font-family="Helvetica,sans-Serif" font-size="16.00" fill="#000000">Generated by SchemaSpy</text>
<!-- business_partner_notes -->
<g id="node1" class="node">
<title>business_partner_notes</title>
<g id="a_node1"><a xlink:href="../../tables/business_partner_notes.html" xlink:title="business_partner_notes" target="_top">
<polygon fill="#ffffff" stroke="transparent" points="371,-679.7 371,-758.7 620,-758.7 620,-679.7 371,-679.7"/>
<polygon fill="#f5f5f5" stroke="transparent" points="371.5,-729.2 371.5,-758.2 620.5,-758.2 620.5,-729.2 371.5,-729.2"/>
<polygon fill="none" stroke="#000000" points="371.5,-729.2 371.5,-758.2 620.5,-758.2 620.5,-729.2 371.5,-729.2"/>
<text text-anchor="start" x="376.5" y="-736.3" font-family="Helvetica,sans-Serif" font-weight="bold" font-size="16.00" fill="#000000">business_partner_notes</text>
<text text-anchor="start" x="572.2136" y="-738.8" font-family="Helvetica,sans-Serif" font-size="16.00" fill="#000000">[table]</text>
<polygon fill="none" stroke="#000000" points="371.5,-704.2 371.5,-729.2 620.5,-729.2 620.5,-704.2 371.5,-704.2"/>
<text text-anchor="start" x="374.5" y="-711.8" font-family="Helvetica,sans-Serif" font-size="16.00" fill="#000000">...</text>
<polygon fill="#ffffff" stroke="transparent" points="371.5,-679.2 371.5,-704.2 476.5,-704.2 476.5,-679.2 371.5,-679.2"/>
<polygon fill="none" stroke="#000000" points="371.5,-679.2 371.5,-704.2 476.5,-704.2 476.5,-679.2 371.5,-679.2"/>
<text text-anchor="start" x="374.5" y="-686.8" font-family="Helvetica,sans-Serif" font-size="16.00" fill="#000000">&lt; 1</text>
<polygon fill="#ffffff" stroke="transparent" points="476.5,-679.2 476.5,-704.2 567.5,-704.2 567.5,-679.2 476.5,-679.2"/>
<polygon fill="none" stroke="#000000" points="476.5,-679.2 476.5,-704.2 567.5,-704.2 567.5,-679.2 476.5,-679.2"/>
<text text-anchor="start" x="517.388" y="-686.8" font-family="Helvetica,sans-Serif" font-size="16.00" fill="#000000">0 rows</text>
<polygon fill="#ffffff" stroke="transparent" points="567.5,-679.2 567.5,-704.2 620.5,-704.2 620.5,-679.2 567.5,-679.2"/>
<polygon fill="none" stroke="#000000" points="567.5,-679.2 567.5,-704.2 620.5,-704.2 620.5,-679.2 567.5,-679.2"/>
<text text-anchor="start" x="608.6072" y="-686.8" font-family="Helvetica,sans-Serif" font-size="16.00" fill="#000000"> &#160;</text>
</a>
</g>
</g>
<!-- business_partners -->
<g id="node2" class="node">
<title>business_partners</title>
<g id="a_node2"><a xlink:href="../../tables/business_partners.html" xlink:title="business_partners" target="_top">
<polygon fill="#ffffff" stroke="transparent" points="8,-676.7 8,-755.7 212,-755.7 212,-676.7 8,-676.7"/>
<polygon fill="#f5f5f5" stroke="transparent" points="8,-726.2 8,-755.2 212,-755.2 212,-726.2 8,-726.2"/>
<polygon fill="none" stroke="#000000" points="8,-726.2 8,-755.2 212,-755.2 212,-726.2 8,-726.2"/>
<text text-anchor="start" x="13" y="-733.3" font-family="Helvetica,sans-Serif" font-weight="bold" font-size="16.00" fill="#000000">business_partners</text>
<text text-anchor="start" x="163.7136" y="-735.8" font-family="Helvetica,sans-Serif" font-size="16.00" fill="#000000">[table]</text>
<polygon fill="none" stroke="#000000" points="8,-701.2 8,-726.2 212,-726.2 212,-701.2 8,-701.2"/>
<text text-anchor="start" x="11" y="-708.8" font-family="Helvetica,sans-Serif" font-size="16.00" fill="#000000">...</text>
<polygon fill="#ffffff" stroke="transparent" points="8,-676.2 8,-701.2 76,-701.2 76,-676.2 8,-676.2"/>
<polygon fill="none" stroke="#000000" points="8,-676.2 8,-701.2 76,-701.2 76,-676.2 8,-676.2"/>
<text text-anchor="start" x="11" y="-683.8" font-family="Helvetica,sans-Serif" font-size="16.00" fill="#000000"> &#160;</text>
<polygon fill="#ffffff" stroke="transparent" points="76,-676.2 76,-701.2 156,-701.2 156,-676.2 76,-676.2"/>
<polygon fill="none" stroke="#000000" points="76,-676.2 76,-701.2 156,-701.2 156,-676.2 76,-676.2"/>
<text text-anchor="start" x="105.888" y="-683.8" font-family="Helvetica,sans-Serif" font-size="16.00" fill="#000000">4 rows</text>
<polygon fill="#ffffff" stroke="transparent" points="156,-676.2 156,-701.2 212,-701.2 212,-676.2 156,-676.2"/>
<polygon fill="none" stroke="#000000" points="156,-676.2 156,-701.2 212,-701.2 212,-676.2 156,-676.2"/>
<text text-anchor="start" x="186.3168" y="-683.8" font-family="Helvetica,sans-Serif" font-size="16.00" fill="#000000">3 &gt;</text>
</a>
</g>
</g>
<!-- business_partner_notes&#45;&gt;business_partners -->
<g id="edge1" class="edge">
<title>business_partner_notes:w&#45;&gt;business_partners:e</title>
<path fill="none" stroke="#000000" d="M357.093,-716.2C311.3313,-716.2 262.2902,-716.2 220.0583,-716.2"/>
<polygon fill="#000000" stroke="#000000" points="363.5,-716.2001 371.5,-719.8 367.5,-716.2 371.5,-716.2 371.5,-716.2 371.5,-716.2 367.5,-716.2 371.5,-712.6 363.5,-716.2001 363.5,-716.2001"/>
<ellipse fill="none" stroke="#000000" cx="360.3" cy="-716.2001" rx="3.2" ry="3.2"/>
</g>
<!-- project_notes -->
<g id="node3" class="node">
<title>project_notes</title>
<g id="a_node3"><a xlink:href="../../tables/project_notes.html" xlink:title="project_notes" target="_top">
<polygon fill="#ffffff" stroke="transparent" points="779,-410.7 779,-577.7 943,-577.7 943,-410.7 779,-410.7"/>
<polygon fill="#f5f5f5" stroke="transparent" points="779,-548.2 779,-577.2 943,-577.2 943,-548.2 779,-548.2"/>
<polygon fill="none" stroke="#000000" points="779,-548.2 779,-577.2 943,-577.2 943,-548.2 779,-548.2"/>
<text text-anchor="start" x="784" y="-555.3" font-family="Helvetica,sans-Serif" font-weight="bold" font-size="16.00" fill="#000000">project_notes</text>
<text text-anchor="start" x="894.7136" y="-557.8" font-family="Helvetica,sans-Serif" font-size="16.00" fill="#000000">[table]</text>
<polygon fill="none" stroke="#000000" points="779,-526.2 779,-548.2 943,-548.2 943,-526.2 779,-526.2"/>
<image xlink:href="../../images/primaryKeys.png" width="11px" height="12px" preserveAspectRatio="xMinYMin meet" x="784" y="-543.2"/>
<text text-anchor="start" x="815" y="-528.8" font-family="Helvetica,sans-Serif" font-size="16.00" fill="#000000">id</text>
<polygon fill="#ffffff" stroke="transparent" points="779,-504.2 779,-526.2 943,-526.2 943,-504.2 779,-504.2"/>
<polygon fill="none" stroke="#000000" points="779,-504.2 779,-526.2 943,-526.2 943,-504.2 779,-504.2"/>
<image xlink:href="../../images/foreignKeys.png" width="11px" height="12px" preserveAspectRatio="xMinYMin meet" x="784" y="-521.2"/>
<text text-anchor="start" x="815" y="-506.8" font-family="Helvetica,sans-Serif" font-size="16.00" fill="#000000">project_id</text>
<polygon fill="#ffffff" stroke="transparent" points="779,-482.2 779,-504.2 943,-504.2 943,-482.2 779,-482.2"/>
<polygon fill="none" stroke="#000000" points="779,-482.2 779,-504.2 943,-504.2 943,-482.2 779,-482.2"/>
<text text-anchor="start" x="815" y="-484.8" font-family="Helvetica,sans-Serif" font-size="16.00" fill="#000000">inserted_at</text>
<polygon fill="#ffffff" stroke="transparent" points="779,-460.2 779,-482.2 943,-482.2 943,-460.2 779,-460.2"/>
<polygon fill="none" stroke="#000000" points="779,-460.2 779,-482.2 943,-482.2 943,-460.2 779,-460.2"/>
<text text-anchor="start" x="815" y="-462.8" font-family="Helvetica,sans-Serif" font-size="16.00" fill="#000000">updated_at</text>
<polygon fill="none" stroke="#000000" points="779,-435.2 779,-460.2 943,-460.2 943,-435.2 779,-435.2"/>
<text text-anchor="start" x="782" y="-442.8" font-family="Helvetica,sans-Serif" font-size="16.00" fill="#000000">...</text>
<polygon fill="#ffffff" stroke="transparent" points="779,-410.2 779,-435.2 841,-435.2 841,-410.2 779,-410.2"/>
<polygon fill="none" stroke="#000000" points="779,-410.2 779,-435.2 841,-435.2 841,-410.2 779,-410.2"/>
<text text-anchor="start" x="782" y="-417.8" font-family="Helvetica,sans-Serif" font-size="16.00" fill="#000000">&lt; 1</text>
<polygon fill="#ffffff" stroke="transparent" points="841,-410.2 841,-435.2 911,-435.2 911,-410.2 841,-410.2"/>
<polygon fill="none" stroke="#000000" points="841,-410.2 841,-435.2 911,-435.2 911,-410.2 841,-410.2"/>
<text text-anchor="start" x="860.888" y="-417.8" font-family="Helvetica,sans-Serif" font-size="16.00" fill="#000000">0 rows</text>
<polygon fill="#ffffff" stroke="transparent" points="911,-410.2 911,-435.2 943,-435.2 943,-410.2 911,-410.2"/>
<polygon fill="none" stroke="#000000" points="911,-410.2 911,-435.2 943,-435.2 943,-410.2 911,-410.2"/>
<text text-anchor="start" x="931.1072" y="-417.8" font-family="Helvetica,sans-Serif" font-size="16.00" fill="#000000"> &#160;</text>
</a>
</g>
</g>
<!-- projects -->
<g id="node4" class="node">
<title>projects</title>
<g id="a_node4"><a xlink:href="../../tables/projects.html" xlink:title="projects" target="_top">
<polygon fill="#ffffff" stroke="transparent" points="261,-50.2 261,-558.2 730,-558.2 730,-50.2 261,-50.2"/>
<polygon fill="#f5f5f5" stroke="transparent" points="263.5,-527.2 263.5,-556.2 728.5,-556.2 728.5,-527.2 263.5,-527.2"/>
<polygon fill="none" stroke="#000000" points="263.5,-527.2 263.5,-556.2 728.5,-556.2 728.5,-527.2 263.5,-527.2"/>
<text text-anchor="start" x="268.5" y="-534.3" font-family="Helvetica,sans-Serif" font-weight="bold" font-size="16.00" fill="#000000">projects</text>
<text text-anchor="start" x="679.9272" y="-536.8" font-family="Helvetica,sans-Serif" font-size="16.00" fill="#000000">[table]</text>
<polygon fill="none" stroke="#000000" points="263.5,-502.2 263.5,-527.2 547.5,-527.2 547.5,-502.2 263.5,-502.2"/>
<image xlink:href="../../images/primaryKeys.png" width="11px" height="12px" preserveAspectRatio="xMinYMin meet" x="268.5" y="-520.7"/>
<text text-anchor="start" x="283.5" y="-506.3" font-family="Helvetica,sans-Serif" font-size="16.00" fill="#000000">id</text>
<polygon fill="none" stroke="#000000" points="547.5,-502.2 547.5,-527.2 728.5,-527.2 728.5,-502.2 547.5,-502.2"/>
<text text-anchor="start" x="550.5" y="-509.8" font-family="Helvetica,sans-Serif" font-size="16.00" fill="#000000">text[2000000000]</text>
<polygon fill="#ffffff" stroke="transparent" points="263.5,-477.2 263.5,-502.2 547.5,-502.2 547.5,-477.2 263.5,-477.2"/>
<polygon fill="none" stroke="#000000" points="263.5,-477.2 263.5,-502.2 547.5,-502.2 547.5,-477.2 263.5,-477.2"/>
<text text-anchor="start" x="283.5" y="-481.3" font-family="Helvetica,sans-Serif" font-size="16.00" fill="#000000">name</text>
<polygon fill="none" stroke="#000000" points="547.5,-477.2 547.5,-502.2 728.5,-502.2 728.5,-477.2 547.5,-477.2"/>
<text text-anchor="start" x="550.5" y="-484.8" font-family="Helvetica,sans-Serif" font-size="16.00" fill="#000000">text[2000000000]</text>
<polygon fill="none" stroke="#000000" points="263.5,-452.2 263.5,-477.2 547.5,-477.2 547.5,-452.2 263.5,-452.2"/>
<text text-anchor="start" x="283.5" y="-456.3" font-family="Helvetica,sans-Serif" font-size="16.00" fill="#000000">description</text>
<polygon fill="none" stroke="#000000" points="547.5,-452.2 547.5,-477.2 728.5,-477.2 728.5,-452.2 547.5,-452.2"/>
<text text-anchor="start" x="550.5" y="-459.8" font-family="Helvetica,sans-Serif" font-size="16.00" fill="#000000">text[2000000000]</text>
<polygon fill="#ffffff" stroke="transparent" points="263.5,-427.2 263.5,-452.2 547.5,-452.2 547.5,-427.2 263.5,-427.2"/>
<polygon fill="none" stroke="#000000" points="263.5,-427.2 263.5,-452.2 547.5,-452.2 547.5,-427.2 263.5,-427.2"/>
<text text-anchor="start" x="283.5" y="-431.3" font-family="Helvetica,sans-Serif" font-size="16.00" fill="#000000">status</text>
<polygon fill="none" stroke="#000000" points="547.5,-427.2 547.5,-452.2 728.5,-452.2 728.5,-427.2 547.5,-427.2"/>
<text text-anchor="start" x="550.5" y="-434.8" font-family="Helvetica,sans-Serif" font-size="16.00" fill="#000000">text[2000000000]</text>
<polygon fill="#ffffff" stroke="transparent" points="263.5,-402.2 263.5,-427.2 547.5,-427.2 547.5,-402.2 263.5,-402.2"/>
<polygon fill="none" stroke="#000000" points="263.5,-402.2 263.5,-427.2 547.5,-427.2 547.5,-402.2 263.5,-402.2"/>
<text text-anchor="start" x="283.5" y="-406.3" font-family="Helvetica,sans-Serif" font-size="16.00" fill="#000000">project_type</text>
<polygon fill="none" stroke="#000000" points="547.5,-402.2 547.5,-427.2 728.5,-427.2 728.5,-402.2 547.5,-402.2"/>
<text text-anchor="start" x="550.5" y="-409.8" font-family="Helvetica,sans-Serif" font-size="16.00" fill="#000000">text[2000000000]</text>
<polygon fill="#ffffff" stroke="transparent" points="263.5,-377.2 263.5,-402.2 547.5,-402.2 547.5,-377.2 263.5,-377.2"/>
<polygon fill="none" stroke="#000000" points="263.5,-377.2 263.5,-402.2 547.5,-402.2 547.5,-377.2 263.5,-377.2"/>
<text text-anchor="start" x="283.5" y="-381.3" font-family="Helvetica,sans-Serif" font-size="16.00" fill="#000000">priority</text>
<polygon fill="none" stroke="#000000" points="547.5,-377.2 547.5,-402.2 728.5,-402.2 728.5,-377.2 547.5,-377.2"/>
<text text-anchor="start" x="550.5" y="-384.8" font-family="Helvetica,sans-Serif" font-size="16.00" fill="#000000">text[2000000000]</text>
<polygon fill="#ffffff" stroke="transparent" points="263.5,-352.2 263.5,-377.2 547.5,-377.2 547.5,-352.2 263.5,-352.2"/>
<polygon fill="none" stroke="#000000" points="263.5,-352.2 263.5,-377.2 547.5,-377.2 547.5,-352.2 263.5,-352.2"/>
<image xlink:href="../../images/foreignKeys.png" width="11px" height="12px" preserveAspectRatio="xMinYMin meet" x="268.5" y="-370.7"/>
<text text-anchor="start" x="283.5" y="-356.3" font-family="Helvetica,sans-Serif" font-size="16.00" fill="#000000">business_partner_id</text>
<polygon fill="none" stroke="#000000" points="547.5,-352.2 547.5,-377.2 728.5,-377.2 728.5,-352.2 547.5,-352.2"/>
<text text-anchor="start" x="550.5" y="-359.8" font-family="Helvetica,sans-Serif" font-size="16.00" fill="#000000">text[2000000000]</text>
<polygon fill="none" stroke="#000000" points="263.5,-327.2 263.5,-352.2 547.5,-352.2 547.5,-327.2 263.5,-327.2"/>
<text text-anchor="start" x="283.5" y="-331.3" font-family="Helvetica,sans-Serif" font-size="16.00" fill="#000000">expected_start_date</text>
<polygon fill="none" stroke="#000000" points="547.5,-327.2 547.5,-352.2 728.5,-352.2 728.5,-327.2 547.5,-327.2"/>
<text text-anchor="start" x="550.5" y="-334.8" font-family="Helvetica,sans-Serif" font-size="16.00" fill="#000000">text[2000000000]</text>
<polygon fill="none" stroke="#000000" points="263.5,-302.2 263.5,-327.2 547.5,-327.2 547.5,-302.2 263.5,-302.2"/>
<text text-anchor="start" x="283.5" y="-306.3" font-family="Helvetica,sans-Serif" font-size="16.00" fill="#000000">expected_end_date</text>
<polygon fill="none" stroke="#000000" points="547.5,-302.2 547.5,-327.2 728.5,-327.2 728.5,-302.2 547.5,-302.2"/>
<text text-anchor="start" x="550.5" y="-309.8" font-family="Helvetica,sans-Serif" font-size="16.00" fill="#000000">text[2000000000]</text>
<polygon fill="none" stroke="#000000" points="263.5,-277.2 263.5,-302.2 547.5,-302.2 547.5,-277.2 263.5,-277.2"/>
<text text-anchor="start" x="283.5" y="-281.3" font-family="Helvetica,sans-Serif" font-size="16.00" fill="#000000">actual_start_date</text>
<polygon fill="none" stroke="#000000" points="547.5,-277.2 547.5,-302.2 728.5,-302.2 728.5,-277.2 547.5,-277.2"/>
<text text-anchor="start" x="550.5" y="-284.8" font-family="Helvetica,sans-Serif" font-size="16.00" fill="#000000">text[2000000000]</text>
<polygon fill="none" stroke="#000000" points="263.5,-252.2 263.5,-277.2 547.5,-277.2 547.5,-252.2 263.5,-252.2"/>
<text text-anchor="start" x="283.5" y="-256.3" font-family="Helvetica,sans-Serif" font-size="16.00" fill="#000000">actual_end_date</text>
<polygon fill="none" stroke="#000000" points="547.5,-252.2 547.5,-277.2 728.5,-277.2 728.5,-252.2 547.5,-252.2"/>
<text text-anchor="start" x="550.5" y="-259.8" font-family="Helvetica,sans-Serif" font-size="16.00" fill="#000000">text[2000000000]</text>
<polygon fill="none" stroke="#000000" points="263.5,-227.2 263.5,-252.2 547.5,-252.2 547.5,-227.2 263.5,-227.2"/>
<text text-anchor="start" x="283.5" y="-231.3" font-family="Helvetica,sans-Serif" font-size="16.00" fill="#000000">estimated_duration</text>
<polygon fill="none" stroke="#000000" points="547.5,-227.2 547.5,-252.2 728.5,-252.2 728.5,-227.2 547.5,-227.2"/>
<text text-anchor="start" x="550.5" y="-234.8" font-family="Helvetica,sans-Serif" font-size="16.00" fill="#000000">integer[2000000000]</text>
<polygon fill="none" stroke="#000000" points="263.5,-202.2 263.5,-227.2 547.5,-227.2 547.5,-202.2 263.5,-202.2"/>
<text text-anchor="start" x="283.5" y="-206.3" font-family="Helvetica,sans-Serif" font-size="16.00" fill="#000000">estimated_duration_time_unit</text>
<polygon fill="none" stroke="#000000" points="547.5,-202.2 547.5,-227.2 728.5,-227.2 728.5,-202.2 547.5,-202.2"/>
<text text-anchor="start" x="550.5" y="-209.8" font-family="Helvetica,sans-Serif" font-size="16.00" fill="#000000">text[2000000000]</text>
<polygon fill="#ffffff" stroke="transparent" points="263.5,-177.2 263.5,-202.2 547.5,-202.2 547.5,-177.2 263.5,-177.2"/>
<polygon fill="none" stroke="#000000" points="263.5,-177.2 263.5,-202.2 547.5,-202.2 547.5,-177.2 263.5,-177.2"/>
<text text-anchor="start" x="283.5" y="-181.3" font-family="Helvetica,sans-Serif" font-size="16.00" fill="#000000">billable</text>
<polygon fill="none" stroke="#000000" points="547.5,-177.2 547.5,-202.2 728.5,-202.2 728.5,-177.2 547.5,-177.2"/>
<text text-anchor="start" x="550.5" y="-184.8" font-family="Helvetica,sans-Serif" font-size="16.00" fill="#000000">integer[2000000000]</text>
<polygon fill="none" stroke="#000000" points="263.5,-152.2 263.5,-177.2 547.5,-177.2 547.5,-152.2 263.5,-152.2"/>
<text text-anchor="start" x="283.5" y="-156.3" font-family="Helvetica,sans-Serif" font-size="16.00" fill="#000000">estimated_total_billable_amount</text>
<polygon fill="none" stroke="#000000" points="547.5,-152.2 547.5,-177.2 728.5,-177.2 728.5,-152.2 547.5,-152.2"/>
<text text-anchor="start" x="550.4088" y="-159.8" font-family="Helvetica,sans-Serif" font-size="16.00" fill="#000000">decimal[2000000000,10]</text>
<polygon fill="#ffffff" stroke="transparent" points="263.5,-127.2 263.5,-152.2 547.5,-152.2 547.5,-127.2 263.5,-127.2"/>
<polygon fill="none" stroke="#000000" points="263.5,-127.2 263.5,-152.2 547.5,-152.2 547.5,-127.2 263.5,-127.2"/>
<text text-anchor="start" x="283.5" y="-131.3" font-family="Helvetica,sans-Serif" font-size="16.00" fill="#000000">active</text>
<polygon fill="none" stroke="#000000" points="547.5,-127.2 547.5,-152.2 728.5,-152.2 728.5,-127.2 547.5,-127.2"/>
<text text-anchor="start" x="550.5" y="-134.8" font-family="Helvetica,sans-Serif" font-size="16.00" fill="#000000">integer[2000000000]</text>
<polygon fill="#ffffff" stroke="transparent" points="263.5,-102.2 263.5,-127.2 547.5,-127.2 547.5,-102.2 263.5,-102.2"/>
<polygon fill="none" stroke="#000000" points="263.5,-102.2 263.5,-127.2 547.5,-127.2 547.5,-102.2 263.5,-102.2"/>
<text text-anchor="start" x="283.5" y="-106.3" font-family="Helvetica,sans-Serif" font-size="16.00" fill="#000000">inserted_at</text>
<polygon fill="none" stroke="#000000" points="547.5,-102.2 547.5,-127.2 728.5,-127.2 728.5,-102.2 547.5,-102.2"/>
<text text-anchor="start" x="550.5" y="-109.8" font-family="Helvetica,sans-Serif" font-size="16.00" fill="#000000">text[2000000000]</text>
<polygon fill="none" stroke="#000000" points="263.5,-77.2 263.5,-102.2 547.5,-102.2 547.5,-77.2 263.5,-77.2"/>
<text text-anchor="start" x="283.5" y="-81.3" font-family="Helvetica,sans-Serif" font-size="16.00" fill="#000000">updated_at</text>
<polygon fill="none" stroke="#000000" points="547.5,-77.2 547.5,-102.2 728.5,-102.2 728.5,-77.2 547.5,-77.2"/>
<text text-anchor="start" x="550.5" y="-84.8" font-family="Helvetica,sans-Serif" font-size="16.00" fill="#000000">text[2000000000]</text>
<polygon fill="#ffffff" stroke="transparent" points="263.5,-52.2 263.5,-77.2 392.5,-77.2 392.5,-52.2 263.5,-52.2"/>
<polygon fill="none" stroke="#000000" points="263.5,-52.2 263.5,-77.2 392.5,-77.2 392.5,-52.2 263.5,-52.2"/>
<text text-anchor="start" x="266.5" y="-59.8" font-family="Helvetica,sans-Serif" font-size="16.00" fill="#000000">&lt; 1</text>
<polygon fill="#ffffff" stroke="transparent" points="392.5,-52.2 392.5,-77.2 547.5,-77.2 547.5,-52.2 392.5,-52.2"/>
<polygon fill="none" stroke="#000000" points="392.5,-52.2 392.5,-77.2 547.5,-77.2 547.5,-52.2 392.5,-52.2"/>
<text text-anchor="start" x="497.388" y="-59.8" font-family="Helvetica,sans-Serif" font-size="16.00" fill="#000000">5 rows</text>
<polygon fill="#ffffff" stroke="transparent" points="547.5,-52.2 547.5,-77.2 728.5,-77.2 728.5,-52.2 547.5,-52.2"/>
<polygon fill="none" stroke="#000000" points="547.5,-52.2 547.5,-77.2 728.5,-77.2 728.5,-52.2 547.5,-52.2"/>
<text text-anchor="start" x="702.8168" y="-59.8" font-family="Helvetica,sans-Serif" font-size="16.00" fill="#000000">3 &gt;</text>
<polygon fill="none" stroke="#000000" stroke-width="2" points="262,-51.2 262,-557.2 729,-557.2 729,-51.2 262,-51.2"/>
</a>
</g>
</g>
<!-- project_notes&#45;&gt;projects -->
<g id="edge2" class="edge">
<title>project_notes:w&#45;&gt;projects:e</title>
<path fill="none" stroke="#000000" d="M764.4203,-515.2C752.5435,-515.2 745.158,-515.2 728.5,-515.2"/>
<polygon fill="#000000" stroke="#000000" points="771,-515.2001 779,-518.8 775,-515.2 779,-515.2 779,-515.2 779,-515.2 775,-515.2 779,-511.6 771,-515.2001 771,-515.2001"/>
<ellipse fill="none" stroke="#000000" cx="767.8" cy="-515.2001" rx="3.2" ry="3.2"/>
</g>
<!-- projects&#45;&gt;business_partners -->
<g id="edge5" class="edge">
<title>projects:w&#45;&gt;business_partners:e</title>
<path fill="none" stroke="#000000" d="M249.2856,-368.4142C189.2199,-395.387 139.4365,-585.1632 119.4358,-672.4553"/>
<polygon fill="#000000" stroke="#000000" points="255.697,-366.9645 264.294,-368.7113 259.5985,-366.0823 263.5,-365.2 263.5,-365.2 263.5,-365.2 259.5985,-366.0823 262.706,-361.6887 255.697,-366.9645 255.697,-366.9645"/>
<ellipse fill="none" stroke="#000000" cx="252.5758" cy="-367.6703" rx="3.2" ry="3.2"/>
</g>
<!-- project_tags -->
<g id="node5" class="node">
<title>project_tags</title>
<g id="a_node5"><a xlink:href="../../tables/project_tags.html" xlink:title="project_tags" target="_top">
<polygon fill="#ffffff" stroke="transparent" points="992,-245.7 992,-390.7 1146,-390.7 1146,-245.7 992,-245.7"/>
<polygon fill="#f5f5f5" stroke="transparent" points="992,-361.2 992,-390.2 1146,-390.2 1146,-361.2 992,-361.2"/>
<polygon fill="none" stroke="#000000" points="992,-361.2 992,-390.2 1146,-390.2 1146,-361.2 992,-361.2"/>
<text text-anchor="start" x="997" y="-368.3" font-family="Helvetica,sans-Serif" font-weight="bold" font-size="16.00" fill="#000000">project_tags</text>
<text text-anchor="start" x="1097.7136" y="-370.8" font-family="Helvetica,sans-Serif" font-size="16.00" fill="#000000">[table]</text>
<polygon fill="none" stroke="#000000" points="992,-339.2 992,-361.2 1146,-361.2 1146,-339.2 992,-339.2"/>
<image xlink:href="../../images/primaryKeys.png" width="11px" height="12px" preserveAspectRatio="xMinYMin meet" x="997" y="-356.2"/>
<text text-anchor="start" x="1028" y="-341.8" font-family="Helvetica,sans-Serif" font-size="16.00" fill="#000000">id</text>
<polygon fill="#ffffff" stroke="transparent" points="992,-317.2 992,-339.2 1146,-339.2 1146,-317.2 992,-317.2"/>
<polygon fill="none" stroke="#000000" points="992,-317.2 992,-339.2 1146,-339.2 1146,-317.2 992,-317.2"/>
<image xlink:href="../../images/foreignKeys.png" width="11px" height="12px" preserveAspectRatio="xMinYMin meet" x="997" y="-334.2"/>
<text text-anchor="start" x="1028" y="-319.8" font-family="Helvetica,sans-Serif" font-size="16.00" fill="#000000">tag_id</text>
<polygon fill="#ffffff" stroke="transparent" points="992,-295.2 992,-317.2 1146,-317.2 1146,-295.2 992,-295.2"/>
<polygon fill="none" stroke="#000000" points="992,-295.2 992,-317.2 1146,-317.2 1146,-295.2 992,-295.2"/>
<image xlink:href="../../images/foreignKeys.png" width="11px" height="12px" preserveAspectRatio="xMinYMin meet" x="997" y="-312.2"/>
<text text-anchor="start" x="1028" y="-297.8" font-family="Helvetica,sans-Serif" font-size="16.00" fill="#000000">project_id</text>
<polygon fill="none" stroke="#000000" points="992,-270.2 992,-295.2 1146,-295.2 1146,-270.2 992,-270.2"/>
<text text-anchor="start" x="995" y="-277.8" font-family="Helvetica,sans-Serif" font-size="16.00" fill="#000000">...</text>
<polygon fill="#ffffff" stroke="transparent" points="992,-245.2 992,-270.2 1049,-270.2 1049,-245.2 992,-245.2"/>
<polygon fill="none" stroke="#000000" points="992,-245.2 992,-270.2 1049,-270.2 1049,-245.2 992,-245.2"/>
<text text-anchor="start" x="995" y="-252.8" font-family="Helvetica,sans-Serif" font-size="16.00" fill="#000000">&lt; 2</text>
<polygon fill="#ffffff" stroke="transparent" points="1049,-245.2 1049,-270.2 1117,-270.2 1117,-245.2 1049,-245.2"/>
<polygon fill="none" stroke="#000000" points="1049,-245.2 1049,-270.2 1117,-270.2 1117,-245.2 1049,-245.2"/>
<text text-anchor="start" x="1066.888" y="-252.8" font-family="Helvetica,sans-Serif" font-size="16.00" fill="#000000">0 rows</text>
<polygon fill="#ffffff" stroke="transparent" points="1117,-245.2 1117,-270.2 1146,-270.2 1146,-245.2 1117,-245.2"/>
<polygon fill="none" stroke="#000000" points="1117,-245.2 1117,-270.2 1146,-270.2 1146,-245.2 1117,-245.2"/>
<text text-anchor="start" x="1134.1072" y="-252.8" font-family="Helvetica,sans-Serif" font-size="16.00" fill="#000000"> &#160;</text>
</a>
</g>
</g>
<!-- project_tags&#45;&gt;projects -->
<g id="edge3" class="edge">
<title>project_tags:w&#45;&gt;projects:e</title>
<path fill="none" stroke="#000000" d="M977.4565,-304.9761C969.2933,-303.4979 963.3408,-301.0982 951,-300.2 871.2111,-294.3927 832.8106,-249.4117 771,-300.2 695.742,-362.0376 825.9046,-515.2 728.5,-515.2"/>
<polygon fill="#000000" stroke="#000000" points="984.0282,-305.5291 991.6981,-309.7873 988.0141,-305.8645 992,-306.2 992,-306.2 992,-306.2 988.0141,-305.8645 992.3019,-302.6127 984.0282,-305.5291 984.0282,-305.5291"/>
<ellipse fill="none" stroke="#000000" cx="980.8395" cy="-305.2607" rx="3.2" ry="3.2"/>
</g>
<!-- tags -->
<g id="node6" class="node">
<title>tags</title>
<g id="a_node6"><a xlink:href="../../tables/tags.html" xlink:title="tags" target="_top">
<polygon fill="#ffffff" stroke="transparent" points="813.5,-310.7 813.5,-389.7 908.5,-389.7 908.5,-310.7 813.5,-310.7"/>
<polygon fill="#f5f5f5" stroke="transparent" points="814,-360.2 814,-389.2 909,-389.2 909,-360.2 814,-360.2"/>
<polygon fill="none" stroke="#000000" points="814,-360.2 814,-389.2 909,-389.2 909,-360.2 814,-360.2"/>
<text text-anchor="start" x="818.8824" y="-367.3" font-family="Helvetica,sans-Serif" font-weight="bold" font-size="16.00" fill="#000000">tags</text>
<text text-anchor="start" x="860.4272" y="-369.8" font-family="Helvetica,sans-Serif" font-size="16.00" fill="#000000">[table]</text>
<polygon fill="none" stroke="#000000" points="814,-335.2 814,-360.2 909,-360.2 909,-335.2 814,-335.2"/>
<text text-anchor="start" x="817" y="-342.8" font-family="Helvetica,sans-Serif" font-size="16.00" fill="#000000">...</text>
<polygon fill="#ffffff" stroke="transparent" points="814,-310.2 814,-335.2 828,-335.2 828,-310.2 814,-310.2"/>
<polygon fill="none" stroke="#000000" points="814,-310.2 814,-335.2 828,-335.2 828,-310.2 814,-310.2"/>
<text text-anchor="start" x="816.5536" y="-317.8" font-family="Helvetica,sans-Serif" font-size="16.00" fill="#000000"> &#160;</text>
<polygon fill="#ffffff" stroke="transparent" points="828,-310.2 828,-335.2 881,-335.2 881,-310.2 828,-310.2"/>
<polygon fill="none" stroke="#000000" points="828,-310.2 828,-335.2 881,-335.2 881,-310.2 828,-310.2"/>
<text text-anchor="start" x="830.944" y="-317.8" font-family="Helvetica,sans-Serif" font-size="16.00" fill="#000000">5 rows</text>
<polygon fill="#ffffff" stroke="transparent" points="881,-310.2 881,-335.2 909,-335.2 909,-310.2 881,-310.2"/>
<polygon fill="none" stroke="#000000" points="881,-310.2 881,-335.2 909,-335.2 909,-310.2 881,-310.2"/>
<text text-anchor="start" x="883.6584" y="-317.8" font-family="Helvetica,sans-Serif" font-size="16.00" fill="#000000">2 &gt;</text>
</a>
</g>
</g>
<!-- project_tags&#45;&gt;tags -->
<g id="edge4" class="edge">
<title>project_tags:w&#45;&gt;tags:e</title>
<path fill="none" stroke="#000000" d="M977.3203,-329.276C951.405,-333.2953 941.3736,-347.2 909,-347.2"/>
<polygon fill="#000000" stroke="#000000" points="984.0214,-328.7848 992.2632,-331.7904 988.0107,-328.4924 992,-328.2 992,-328.2 992,-328.2 988.0107,-328.4924 991.7368,-324.6096 984.0214,-328.7848 984.0214,-328.7848"/>
<ellipse fill="none" stroke="#000000" cx="980.83" cy="-329.0188" rx="3.2" ry="3.2"/>
</g>
<!-- timer_notes -->
<g id="node7" class="node">
<title>timer_notes</title>
<g id="a_node7"><a xlink:href="../../tables/timer_notes.html" xlink:title="timer_notes" target="_top">
<polygon fill="#ffffff" stroke="transparent" points="994.5,-601.7 994.5,-680.7 1143.5,-680.7 1143.5,-601.7 994.5,-601.7"/>
<polygon fill="#f5f5f5" stroke="transparent" points="995,-651.2 995,-680.2 1144,-680.2 1144,-651.2 995,-651.2"/>
<polygon fill="none" stroke="#000000" points="995,-651.2 995,-680.2 1144,-680.2 1144,-651.2 995,-651.2"/>
<text text-anchor="start" x="1000" y="-658.3" font-family="Helvetica,sans-Serif" font-weight="bold" font-size="16.00" fill="#000000">timer_notes</text>
<text text-anchor="start" x="1095.7136" y="-660.8" font-family="Helvetica,sans-Serif" font-size="16.00" fill="#000000">[table]</text>
<polygon fill="none" stroke="#000000" points="995,-626.2 995,-651.2 1144,-651.2 1144,-626.2 995,-626.2"/>
<text text-anchor="start" x="998" y="-633.8" font-family="Helvetica,sans-Serif" font-size="16.00" fill="#000000">...</text>
<polygon fill="#ffffff" stroke="transparent" points="995,-601.2 995,-626.2 1045,-626.2 1045,-601.2 995,-601.2"/>
<polygon fill="none" stroke="#000000" points="995,-601.2 995,-626.2 1045,-626.2 1045,-601.2 995,-601.2"/>
<text text-anchor="start" x="998" y="-608.8" font-family="Helvetica,sans-Serif" font-size="16.00" fill="#000000">&lt; 1</text>
<polygon fill="#ffffff" stroke="transparent" points="1045,-601.2 1045,-626.2 1118,-626.2 1118,-601.2 1045,-601.2"/>
<polygon fill="none" stroke="#000000" points="1045,-601.2 1045,-626.2 1118,-626.2 1118,-601.2 1045,-601.2"/>
<text text-anchor="start" x="1058.9936" y="-608.8" font-family="Helvetica,sans-Serif" font-size="16.00" fill="#000000">29 rows</text>
<polygon fill="#ffffff" stroke="transparent" points="1118,-601.2 1118,-626.2 1144,-626.2 1144,-601.2 1118,-601.2"/>
<polygon fill="none" stroke="#000000" points="1118,-601.2 1118,-626.2 1144,-626.2 1144,-601.2 1118,-601.2"/>
<text text-anchor="start" x="1132.1072" y="-608.8" font-family="Helvetica,sans-Serif" font-size="16.00" fill="#000000"> &#160;</text>
</a>
</g>
</g>
<!-- timers -->
<g id="node8" class="node">
<title>timers</title>
<g id="a_node8"><a xlink:href="../../tables/timers.html" xlink:title="timers" target="_top">
<polygon fill="#ffffff" stroke="transparent" points="802,-598.7 802,-677.7 920,-677.7 920,-598.7 802,-598.7"/>
<polygon fill="#f5f5f5" stroke="transparent" points="802,-648.2 802,-677.2 920,-677.2 920,-648.2 802,-648.2"/>
<polygon fill="none" stroke="#000000" points="802,-648.2 802,-677.2 920,-677.2 920,-648.2 802,-648.2"/>
<text text-anchor="start" x="807" y="-655.3" font-family="Helvetica,sans-Serif" font-weight="bold" font-size="16.00" fill="#000000">timers</text>
<text text-anchor="start" x="871.4272" y="-657.8" font-family="Helvetica,sans-Serif" font-size="16.00" fill="#000000">[table]</text>
<polygon fill="none" stroke="#000000" points="802,-623.2 802,-648.2 920,-648.2 920,-623.2 802,-623.2"/>
<text text-anchor="start" x="805" y="-630.8" font-family="Helvetica,sans-Serif" font-size="16.00" fill="#000000">...</text>
<polygon fill="#ffffff" stroke="transparent" points="802,-598.2 802,-623.2 830,-623.2 830,-598.2 802,-598.2"/>
<polygon fill="none" stroke="#000000" points="802,-598.2 802,-623.2 830,-623.2 830,-598.2 802,-598.2"/>
<text text-anchor="start" x="804.6584" y="-605.8" font-family="Helvetica,sans-Serif" font-size="16.00" fill="#000000">&lt; 3</text>
<polygon fill="#ffffff" stroke="transparent" points="830,-598.2 830,-623.2 892,-623.2 892,-598.2 830,-598.2"/>
<polygon fill="none" stroke="#000000" points="830,-598.2 830,-623.2 892,-623.2 892,-598.2 830,-598.2"/>
<text text-anchor="start" x="832.9968" y="-605.8" font-family="Helvetica,sans-Serif" font-size="16.00" fill="#000000">65 rows</text>
<polygon fill="#ffffff" stroke="transparent" points="892,-598.2 892,-623.2 920,-623.2 920,-598.2 892,-598.2"/>
<polygon fill="none" stroke="#000000" points="892,-598.2 892,-623.2 920,-623.2 920,-598.2 892,-598.2"/>
<text text-anchor="start" x="894.6584" y="-605.8" font-family="Helvetica,sans-Serif" font-size="16.00" fill="#000000">2 &gt;</text>
</a>
</g>
</g>
<!-- timer_notes&#45;&gt;timers -->
<g id="edge6" class="edge">
<title>timer_notes:w&#45;&gt;timers:e</title>
<path fill="none" stroke="#000000" d="M980.4859,-638.2C962.9762,-638.2 944.8354,-638.2 928.1388,-638.2"/>
<polygon fill="#000000" stroke="#000000" points="987,-638.2001 995,-641.8 991,-638.2 995,-638.2 995,-638.2 995,-638.2 991,-638.2 995,-634.6 987,-638.2001 987,-638.2001"/>
<ellipse fill="none" stroke="#000000" cx="983.8" cy="-638.2001" rx="3.2" ry="3.2"/>
</g>
<!-- timers&#45;&gt;business_partners -->
<g id="edge10" class="edge">
<title>timers:w&#45;&gt;business_partners:e</title>
<path fill="none" stroke="#000000" d="M825.5169,-693.7502C804.0129,-722.0525 773.8241,-753.696 738,-769.2 540.1759,-854.8143 465.1701,-807.2535 253,-769.2 240.3605,-766.9331 227.3775,-763.6228 214.635,-759.7458"/>
<polygon fill="#000000" stroke="#000000" points="829.4713,-688.3405 837.0987,-684.0065 831.8318,-685.1113 834.1923,-681.8821 834.1923,-681.8821 834.1923,-681.8821 831.8318,-685.1113 831.286,-679.7576 829.4713,-688.3405 829.4713,-688.3405"/>
<ellipse fill="none" stroke="#000000" cx="827.5829" cy="-690.9239" rx="3.2" ry="3.2"/>
</g>
<!-- timers&#45;&gt;projects -->
<g id="edge11" class="edge">
<title>timers:w&#45;&gt;projects:e</title>
<path fill="none" stroke="#000000" d="M781.8498,-597.6902C778.0298,-594.6803 774.3829,-591.5155 771,-588.2 744.1878,-561.922 766.0424,-515.2 728.5,-515.2"/>
<polygon fill="#000000" stroke="#000000" points="787.2463,-601.5759 791.6348,-609.172 790.4923,-603.9132 793.7384,-606.2506 793.7384,-606.2506 793.7384,-606.2506 790.4923,-603.9132 795.842,-603.3291 787.2463,-601.5759 787.2463,-601.5759"/>
<ellipse fill="none" stroke="#000000" cx="784.6494" cy="-599.706" rx="3.2" ry="3.2"/>
</g>
<!-- activity_types -->
<g id="node10" class="node">
<title>activity_types</title>
<g id="a_node10"><a xlink:href="../../tables/activity_types.html" xlink:title="activity_types" target="_top">
<polygon fill="#ffffff" stroke="transparent" points="413,-579.7 413,-658.7 578,-658.7 578,-579.7 413,-579.7"/>
<polygon fill="#f5f5f5" stroke="transparent" points="413.5,-629.2 413.5,-658.2 578.5,-658.2 578.5,-629.2 413.5,-629.2"/>
<polygon fill="none" stroke="#000000" points="413.5,-629.2 413.5,-658.2 578.5,-658.2 578.5,-629.2 413.5,-629.2"/>
<text text-anchor="start" x="418.5" y="-636.3" font-family="Helvetica,sans-Serif" font-weight="bold" font-size="16.00" fill="#000000">activity_types</text>
<text text-anchor="start" x="530.2136" y="-638.8" font-family="Helvetica,sans-Serif" font-size="16.00" fill="#000000">[table]</text>
<polygon fill="none" stroke="#000000" points="413.5,-604.2 413.5,-629.2 578.5,-629.2 578.5,-604.2 413.5,-604.2"/>
<text text-anchor="start" x="416.5" y="-611.8" font-family="Helvetica,sans-Serif" font-size="16.00" fill="#000000">...</text>
<polygon fill="#ffffff" stroke="transparent" points="413.5,-579.2 413.5,-604.2 462.5,-604.2 462.5,-579.2 413.5,-579.2"/>
<polygon fill="none" stroke="#000000" points="413.5,-579.2 413.5,-604.2 462.5,-604.2 462.5,-579.2 413.5,-579.2"/>
<text text-anchor="start" x="416.5" y="-586.8" font-family="Helvetica,sans-Serif" font-size="16.00" fill="#000000"> &#160;</text>
<polygon fill="#ffffff" stroke="transparent" points="462.5,-579.2 462.5,-604.2 532.5,-604.2 532.5,-579.2 462.5,-579.2"/>
<polygon fill="none" stroke="#000000" points="462.5,-579.2 462.5,-604.2 532.5,-604.2 532.5,-579.2 462.5,-579.2"/>
<text text-anchor="start" x="482.388" y="-586.8" font-family="Helvetica,sans-Serif" font-size="16.00" fill="#000000">5 rows</text>
<polygon fill="#ffffff" stroke="transparent" points="532.5,-579.2 532.5,-604.2 578.5,-604.2 578.5,-579.2 532.5,-579.2"/>
<polygon fill="none" stroke="#000000" points="532.5,-579.2 532.5,-604.2 578.5,-604.2 578.5,-579.2 532.5,-579.2"/>
<text text-anchor="start" x="552.8168" y="-586.8" font-family="Helvetica,sans-Serif" font-size="16.00" fill="#000000">1 &gt;</text>
</a>
</g>
</g>
<!-- timers&#45;&gt;activity_types -->
<g id="edge9" class="edge">
<title>timers:w&#45;&gt;activity_types:e</title>
<path fill="none" stroke="#000000" d="M779.1661,-628.4474C722.8357,-622.5647 646.2373,-616.2 578.5,-616.2"/>
<polygon fill="#000000" stroke="#000000" points="785.8064,-629.1574 793.3783,-633.5876 789.7837,-629.5827 793.761,-630.008 793.761,-630.008 793.761,-630.008 789.7837,-629.5827 794.1438,-626.4284 785.8064,-629.1574 785.8064,-629.1574"/>
<ellipse fill="none" stroke="#000000" cx="782.6245" cy="-628.8171" rx="3.2" ry="3.2"/>
</g>
<!-- timer_tags -->
<g id="node9" class="node">
<title>timer_tags</title>
<g id="a_node9"><a xlink:href="../../tables/timer_tags.html" xlink:title="timer_tags" target="_top">
<polygon fill="#ffffff" stroke="transparent" points="1000,-456.7 1000,-535.7 1138,-535.7 1138,-456.7 1000,-456.7"/>
<polygon fill="#f5f5f5" stroke="transparent" points="1000,-506.2 1000,-535.2 1138,-535.2 1138,-506.2 1000,-506.2"/>
<polygon fill="none" stroke="#000000" points="1000,-506.2 1000,-535.2 1138,-535.2 1138,-506.2 1000,-506.2"/>
<text text-anchor="start" x="1005" y="-513.3" font-family="Helvetica,sans-Serif" font-weight="bold" font-size="16.00" fill="#000000">timer_tags</text>
<text text-anchor="start" x="1089.7136" y="-515.8" font-family="Helvetica,sans-Serif" font-size="16.00" fill="#000000">[table]</text>
<polygon fill="none" stroke="#000000" points="1000,-481.2 1000,-506.2 1138,-506.2 1138,-481.2 1000,-481.2"/>
<text text-anchor="start" x="1003" y="-488.8" font-family="Helvetica,sans-Serif" font-size="16.00" fill="#000000">...</text>
<polygon fill="#ffffff" stroke="transparent" points="1000,-456.2 1000,-481.2 1049,-481.2 1049,-456.2 1000,-456.2"/>
<polygon fill="none" stroke="#000000" points="1000,-456.2 1000,-481.2 1049,-481.2 1049,-456.2 1000,-456.2"/>
<text text-anchor="start" x="1003" y="-463.8" font-family="Helvetica,sans-Serif" font-size="16.00" fill="#000000">&lt; 2</text>
<polygon fill="#ffffff" stroke="transparent" points="1049,-456.2 1049,-481.2 1113,-481.2 1113,-456.2 1049,-456.2"/>
<polygon fill="none" stroke="#000000" points="1049,-456.2 1049,-481.2 1113,-481.2 1113,-456.2 1049,-456.2"/>
<text text-anchor="start" x="1062.888" y="-463.8" font-family="Helvetica,sans-Serif" font-size="16.00" fill="#000000">2 rows</text>
<polygon fill="#ffffff" stroke="transparent" points="1113,-456.2 1113,-481.2 1138,-481.2 1138,-456.2 1113,-456.2"/>
<polygon fill="none" stroke="#000000" points="1113,-456.2 1113,-481.2 1138,-481.2 1138,-456.2 1113,-456.2"/>
<text text-anchor="start" x="1126.1072" y="-463.8" font-family="Helvetica,sans-Serif" font-size="16.00" fill="#000000"> &#160;</text>
</a>
</g>
</g>
<!-- timer_tags&#45;&gt;tags -->
<g id="edge7" class="edge">
<title>timer_tags:w&#45;&gt;tags:e</title>
<path fill="none" stroke="#000000" d="M985.487,-491.0228C931.7658,-472.8609 979.9357,-347.2 909,-347.2"/>
<polygon fill="#000000" stroke="#000000" points="992.0885,-492.0131 999.4659,-496.7602 996.0443,-492.6066 1000,-493.2 1000,-493.2 1000,-493.2 996.0443,-492.6066 1000.5341,-489.6398 992.0885,-492.0131 992.0885,-492.0131"/>
<ellipse fill="none" stroke="#000000" cx="988.9239" cy="-491.5383" rx="3.2" ry="3.2"/>
</g>
<!-- timer_tags&#45;&gt;timers -->
<g id="edge8" class="edge">
<title>timer_tags:w&#45;&gt;timers:e</title>
<path fill="none" stroke="#000000" d="M985.611,-495.8831C959.3766,-508.0045 979.9363,-558.3555 951,-588.2 944.2812,-595.1297 936.3923,-601.3607 928.126,-606.8794"/>
<polygon fill="#000000" stroke="#000000" points="992.1356,-494.6665 1000.6599,-496.739 996.0678,-493.9333 1000,-493.2 1000,-493.2 1000,-493.2 996.0678,-493.9333 999.3401,-489.661 992.1356,-494.6665 992.1356,-494.6665"/>
<ellipse fill="none" stroke="#000000" cx="988.9898" cy="-495.2531" rx="3.2" ry="3.2"/>
</g>
</g>
</svg>
