<?xml version="1.0" encoding="UTF-8" standalone="no"?>
<!DOCTYPE svg PUBLIC "-//W3C//DTD SVG 1.1//EN"
 "http://www.w3.org/Graphics/SVG/1.1/DTD/svg11.dtd">
<!-- Generated by graphviz version 2.40.1 (20161225.0304)
 -->
<!-- Title: twoDegreesRelationshipsDiagram Pages: 1 -->
<svg width="875pt" height="543pt"
 viewBox="0.00 0.00 875.00 543.15" xmlns="http://www.w3.org/2000/svg" xmlns:xlink="http://www.w3.org/1999/xlink">
<g id="graph0" class="graph" transform="scale(1 1) rotate(0) translate(4 539.1543)">
<title>twoDegreesRelationshipsDiagram</title>
<polygon fill="#ffffff" stroke="transparent" points="-4,4 -4,-539.1543 871,-539.1543 871,4 -4,4"/>
<text text-anchor="middle" x="101.8088" y="-8.8" font-family="Helvetica,sans-Serif" font-size="16.00" fill="#000000">Generated by SchemaSpy</text>
<!-- project_notes -->
<g id="node1" class="node">
<title>project_notes</title>
<g id="a_node1"><a xlink:href="../../tables/project_notes.html" xlink:title="project_notes" target="_top">
<polygon fill="#ffffff" stroke="transparent" points="594,-348.1543 594,-531.1543 859,-531.1543 859,-348.1543 594,-348.1543"/>
<polygon fill="#f5f5f5" stroke="transparent" points="596.5,-499.6543 596.5,-528.6543 857.5,-528.6543 857.5,-499.6543 596.5,-499.6543"/>
<polygon fill="none" stroke="#000000" points="596.5,-499.6543 596.5,-528.6543 857.5,-528.6543 857.5,-499.6543 596.5,-499.6543"/>
<text text-anchor="start" x="601.5" y="-506.7543" font-family="Helvetica,sans-Serif" font-weight="bold" font-size="16.00" fill="#000000">project_notes</text>
<text text-anchor="start" x="808.9272" y="-509.2543" font-family="Helvetica,sans-Serif" font-size="16.00" fill="#000000">[table]</text>
<polygon fill="none" stroke="#000000" points="596.5,-474.6543 596.5,-499.6543 728.5,-499.6543 728.5,-474.6543 596.5,-474.6543"/>
<image xlink:href="../../images/primaryKeys.png" width="11px" height="12px" preserveAspectRatio="xMinYMin meet" x="601.5" y="-493.154"/>
<text text-anchor="start" x="616.5" y="-478.7543" font-family="Helvetica,sans-Serif" font-size="16.00" fill="#000000">id</text>
<polygon fill="none" stroke="#000000" points="728.5,-474.6543 728.5,-499.6543 857.5,-499.6543 857.5,-474.6543 728.5,-474.6543"/>
<text text-anchor="start" x="731.188" y="-482.2543" font-family="Helvetica,sans-Serif" font-size="16.00" fill="#000000">text[2000000000]</text>
<polygon fill="none" stroke="#000000" points="596.5,-449.6543 596.5,-474.6543 728.5,-474.6543 728.5,-449.6543 596.5,-449.6543"/>
<text text-anchor="start" x="616.5" y="-453.7543" font-family="Helvetica,sans-Serif" font-size="16.00" fill="#000000">note</text>
<polygon fill="none" stroke="#000000" points="728.5,-449.6543 728.5,-474.6543 857.5,-474.6543 857.5,-449.6543 728.5,-449.6543"/>
<text text-anchor="start" x="731.188" y="-457.2543" font-family="Helvetica,sans-Serif" font-size="16.00" fill="#000000">text[2000000000]</text>
<polygon fill="#ffffff" stroke="transparent" points="596.5,-424.6543 596.5,-449.6543 728.5,-449.6543 728.5,-424.6543 596.5,-424.6543"/>
<polygon fill="none" stroke="#000000" points="596.5,-424.6543 596.5,-449.6543 728.5,-449.6543 728.5,-424.6543 596.5,-424.6543"/>
<image xlink:href="../../images/foreignKeys.png" width="11px" height="12px" preserveAspectRatio="xMinYMin meet" x="601.5" y="-443.154"/>
<text text-anchor="start" x="616.5" y="-428.7543" font-family="Helvetica,sans-Serif" font-size="16.00" fill="#000000">project_id</text>
<polygon fill="none" stroke="#000000" points="728.5,-424.6543 728.5,-449.6543 857.5,-449.6543 857.5,-424.6543 728.5,-424.6543"/>
<text text-anchor="start" x="731.188" y="-432.2543" font-family="Helvetica,sans-Serif" font-size="16.00" fill="#000000">text[2000000000]</text>
<polygon fill="#ffffff" stroke="transparent" points="596.5,-399.6543 596.5,-424.6543 728.5,-424.6543 728.5,-399.6543 596.5,-399.6543"/>
<polygon fill="none" stroke="#000000" points="596.5,-399.6543 596.5,-424.6543 728.5,-424.6543 728.5,-399.6543 596.5,-399.6543"/>
<text text-anchor="start" x="616.5" y="-403.7543" font-family="Helvetica,sans-Serif" font-size="16.00" fill="#000000">inserted_at</text>
<polygon fill="none" stroke="#000000" points="728.5,-399.6543 728.5,-424.6543 857.5,-424.6543 857.5,-399.6543 728.5,-399.6543"/>
<text text-anchor="start" x="731.188" y="-407.2543" font-family="Helvetica,sans-Serif" font-size="16.00" fill="#000000">text[2000000000]</text>
<polygon fill="#ffffff" stroke="transparent" points="596.5,-374.6543 596.5,-399.6543 728.5,-399.6543 728.5,-374.6543 596.5,-374.6543"/>
<polygon fill="none" stroke="#000000" points="596.5,-374.6543 596.5,-399.6543 728.5,-399.6543 728.5,-374.6543 596.5,-374.6543"/>
<text text-anchor="start" x="616.5" y="-378.7543" font-family="Helvetica,sans-Serif" font-size="16.00" fill="#000000">updated_at</text>
<polygon fill="none" stroke="#000000" points="728.5,-374.6543 728.5,-399.6543 857.5,-399.6543 857.5,-374.6543 728.5,-374.6543"/>
<text text-anchor="start" x="731.188" y="-382.2543" font-family="Helvetica,sans-Serif" font-size="16.00" fill="#000000">text[2000000000]</text>
<polygon fill="#ffffff" stroke="transparent" points="596.5,-349.6543 596.5,-374.6543 649.5,-374.6543 649.5,-349.6543 596.5,-349.6543"/>
<polygon fill="none" stroke="#000000" points="596.5,-349.6543 596.5,-374.6543 649.5,-374.6543 649.5,-349.6543 596.5,-349.6543"/>
<text text-anchor="start" x="599.5" y="-357.2543" font-family="Helvetica,sans-Serif" font-size="16.00" fill="#000000">&lt; 1</text>
<polygon fill="#ffffff" stroke="transparent" points="649.5,-349.6543 649.5,-374.6543 728.5,-374.6543 728.5,-349.6543 649.5,-349.6543"/>
<polygon fill="none" stroke="#000000" points="649.5,-349.6543 649.5,-374.6543 728.5,-374.6543 728.5,-349.6543 649.5,-349.6543"/>
<text text-anchor="start" x="678.388" y="-357.2543" font-family="Helvetica,sans-Serif" font-size="16.00" fill="#000000">0 rows</text>
<polygon fill="#ffffff" stroke="transparent" points="728.5,-349.6543 728.5,-374.6543 857.5,-374.6543 857.5,-349.6543 728.5,-349.6543"/>
<polygon fill="none" stroke="#000000" points="728.5,-349.6543 728.5,-374.6543 857.5,-374.6543 857.5,-349.6543 728.5,-349.6543"/>
<text text-anchor="start" x="831.8168" y="-357.2543" font-family="Helvetica,sans-Serif" font-size="16.00" fill="#000000">0 &gt;</text>
<polygon fill="none" stroke="#000000" stroke-width="2" points="595,-349.1543 595,-530.1543 858,-530.1543 858,-349.1543 595,-349.1543"/>
</a>
</g>
</g>
<!-- projects -->
<g id="node2" class="node">
<title>projects</title>
<g id="a_node2"><a xlink:href="../../tables/projects.html" xlink:title="projects" target="_top">
<polygon fill="#ffffff" stroke="transparent" points="261,-88.1543 261,-365.1543 545,-365.1543 545,-88.1543 261,-88.1543"/>
<polygon fill="#f5f5f5" stroke="transparent" points="261,-335.6543 261,-364.6543 545,-364.6543 545,-335.6543 261,-335.6543"/>
<polygon fill="none" stroke="#000000" points="261,-335.6543 261,-364.6543 545,-364.6543 545,-335.6543 261,-335.6543"/>
<text text-anchor="start" x="266" y="-342.7543" font-family="Helvetica,sans-Serif" font-weight="bold" font-size="16.00" fill="#000000">projects</text>
<text text-anchor="start" x="496.4272" y="-345.2543" font-family="Helvetica,sans-Serif" font-size="16.00" fill="#000000">[table]</text>
<polygon fill="none" stroke="#000000" points="261,-313.6543 261,-335.6543 545,-335.6543 545,-313.6543 261,-313.6543"/>
<image xlink:href="../../images/primaryKeys.png" width="11px" height="12px" preserveAspectRatio="xMinYMin meet" x="266" y="-330.654"/>
<text text-anchor="start" x="281" y="-316.2543" font-family="Helvetica,sans-Serif" font-size="16.00" fill="#000000">id</text>
<polygon fill="#ffffff" stroke="transparent" points="261,-291.6543 261,-313.6543 545,-313.6543 545,-291.6543 261,-291.6543"/>
<polygon fill="none" stroke="#000000" points="261,-291.6543 261,-313.6543 545,-313.6543 545,-291.6543 261,-291.6543"/>
<text text-anchor="start" x="281" y="-294.2543" font-family="Helvetica,sans-Serif" font-size="16.00" fill="#000000">name</text>
<polygon fill="#ffffff" stroke="transparent" points="261,-269.6543 261,-291.6543 545,-291.6543 545,-269.6543 261,-269.6543"/>
<polygon fill="none" stroke="#000000" points="261,-269.6543 261,-291.6543 545,-291.6543 545,-269.6543 261,-269.6543"/>
<text text-anchor="start" x="281" y="-272.2543" font-family="Helvetica,sans-Serif" font-size="16.00" fill="#000000">status</text>
<polygon fill="#ffffff" stroke="transparent" points="261,-247.6543 261,-269.6543 545,-269.6543 545,-247.6543 261,-247.6543"/>
<polygon fill="none" stroke="#000000" points="261,-247.6543 261,-269.6543 545,-269.6543 545,-247.6543 261,-247.6543"/>
<text text-anchor="start" x="281" y="-250.2543" font-family="Helvetica,sans-Serif" font-size="16.00" fill="#000000">project_type</text>
<polygon fill="#ffffff" stroke="transparent" points="261,-225.6543 261,-247.6543 545,-247.6543 545,-225.6543 261,-225.6543"/>
<polygon fill="none" stroke="#000000" points="261,-225.6543 261,-247.6543 545,-247.6543 545,-225.6543 261,-225.6543"/>
<text text-anchor="start" x="281" y="-228.2543" font-family="Helvetica,sans-Serif" font-size="16.00" fill="#000000">priority</text>
<polygon fill="#ffffff" stroke="transparent" points="261,-203.6543 261,-225.6543 545,-225.6543 545,-203.6543 261,-203.6543"/>
<polygon fill="none" stroke="#000000" points="261,-203.6543 261,-225.6543 545,-225.6543 545,-203.6543 261,-203.6543"/>
<image xlink:href="../../images/foreignKeys.png" width="11px" height="12px" preserveAspectRatio="xMinYMin meet" x="266" y="-220.654"/>
<text text-anchor="start" x="281" y="-206.2543" font-family="Helvetica,sans-Serif" font-size="16.00" fill="#000000">business_partner_id</text>
<polygon fill="#ffffff" stroke="transparent" points="261,-181.6543 261,-203.6543 545,-203.6543 545,-181.6543 261,-181.6543"/>
<polygon fill="none" stroke="#000000" points="261,-181.6543 261,-203.6543 545,-203.6543 545,-181.6543 261,-181.6543"/>
<text text-anchor="start" x="281" y="-184.2543" font-family="Helvetica,sans-Serif" font-size="16.00" fill="#000000">billable</text>
<polygon fill="#ffffff" stroke="transparent" points="261,-159.6543 261,-181.6543 545,-181.6543 545,-159.6543 261,-159.6543"/>
<polygon fill="none" stroke="#000000" points="261,-159.6543 261,-181.6543 545,-181.6543 545,-159.6543 261,-159.6543"/>
<text text-anchor="start" x="281" y="-162.2543" font-family="Helvetica,sans-Serif" font-size="16.00" fill="#000000">active</text>
<polygon fill="#ffffff" stroke="transparent" points="261,-137.6543 261,-159.6543 545,-159.6543 545,-137.6543 261,-137.6543"/>
<polygon fill="none" stroke="#000000" points="261,-137.6543 261,-159.6543 545,-159.6543 545,-137.6543 261,-137.6543"/>
<text text-anchor="start" x="281" y="-140.2543" font-family="Helvetica,sans-Serif" font-size="16.00" fill="#000000">inserted_at</text>
<polygon fill="none" stroke="#000000" points="261,-112.6543 261,-137.6543 545,-137.6543 545,-112.6543 261,-112.6543"/>
<text text-anchor="start" x="264" y="-120.2543" font-family="Helvetica,sans-Serif" font-size="16.00" fill="#000000">...</text>
<polygon fill="#ffffff" stroke="transparent" points="261,-87.6543 261,-112.6543 376,-112.6543 376,-87.6543 261,-87.6543"/>
<polygon fill="none" stroke="#000000" points="261,-87.6543 261,-112.6543 376,-112.6543 376,-87.6543 261,-87.6543"/>
<text text-anchor="start" x="264" y="-95.2543" font-family="Helvetica,sans-Serif" font-size="16.00" fill="#000000">&lt; 1</text>
<polygon fill="#ffffff" stroke="transparent" points="376,-87.6543 376,-112.6543 473,-112.6543 473,-87.6543 376,-87.6543"/>
<polygon fill="none" stroke="#000000" points="376,-87.6543 376,-112.6543 473,-112.6543 473,-87.6543 376,-87.6543"/>
<text text-anchor="start" x="422.888" y="-95.2543" font-family="Helvetica,sans-Serif" font-size="16.00" fill="#000000">0 rows</text>
<polygon fill="#ffffff" stroke="transparent" points="473,-87.6543 473,-112.6543 545,-112.6543 545,-87.6543 473,-87.6543"/>
<polygon fill="none" stroke="#000000" points="473,-87.6543 473,-112.6543 545,-112.6543 545,-87.6543 473,-87.6543"/>
<text text-anchor="start" x="519.3168" y="-95.2543" font-family="Helvetica,sans-Serif" font-size="16.00" fill="#000000">3 &gt;</text>
</a>
</g>
</g>
<!-- project_notes&#45;&gt;projects -->
<g id="edge1" class="edge">
<title>project_notes:w&#45;&gt;projects:e</title>
<path fill="none" stroke="#000000" d="M582.2779,-432.9278C553.0659,-413.4941 593.7956,-324.6543 545,-324.6543"/>
<polygon fill="#000000" stroke="#000000" points="588.7612,-434.6266 595.5875,-440.1367 592.6306,-435.6404 596.5,-436.6543 596.5,-436.6543 596.5,-436.6543 592.6306,-435.6404 597.4125,-433.1718 588.7612,-434.6266 588.7612,-434.6266"/>
<ellipse fill="none" stroke="#000000" cx="585.6657" cy="-433.8155" rx="3.2" ry="3.2"/>
</g>
<!-- business_partners -->
<g id="node4" class="node">
<title>business_partners</title>
<g id="a_node4"><a xlink:href="../../tables/business_partners.html" xlink:title="business_partners" target="_top">
<polygon fill="#ffffff" stroke="transparent" points="8,-102.1543 8,-181.1543 212,-181.1543 212,-102.1543 8,-102.1543"/>
<polygon fill="#f5f5f5" stroke="transparent" points="8,-151.6543 8,-180.6543 212,-180.6543 212,-151.6543 8,-151.6543"/>
<polygon fill="none" stroke="#000000" points="8,-151.6543 8,-180.6543 212,-180.6543 212,-151.6543 8,-151.6543"/>
<text text-anchor="start" x="13" y="-158.7543" font-family="Helvetica,sans-Serif" font-weight="bold" font-size="16.00" fill="#000000">business_partners</text>
<text text-anchor="start" x="163.7136" y="-161.2543" font-family="Helvetica,sans-Serif" font-size="16.00" fill="#000000">[table]</text>
<polygon fill="none" stroke="#000000" points="8,-126.6543 8,-151.6543 212,-151.6543 212,-126.6543 8,-126.6543"/>
<text text-anchor="start" x="11" y="-134.2543" font-family="Helvetica,sans-Serif" font-size="16.00" fill="#000000">...</text>
<polygon fill="#ffffff" stroke="transparent" points="8,-101.6543 8,-126.6543 76,-126.6543 76,-101.6543 8,-101.6543"/>
<polygon fill="none" stroke="#000000" points="8,-101.6543 8,-126.6543 76,-126.6543 76,-101.6543 8,-101.6543"/>
<text text-anchor="start" x="11" y="-109.2543" font-family="Helvetica,sans-Serif" font-size="16.00" fill="#000000"> &#160;</text>
<polygon fill="#ffffff" stroke="transparent" points="76,-101.6543 76,-126.6543 156,-126.6543 156,-101.6543 76,-101.6543"/>
<polygon fill="none" stroke="#000000" points="76,-101.6543 76,-126.6543 156,-126.6543 156,-101.6543 76,-101.6543"/>
<text text-anchor="start" x="105.888" y="-109.2543" font-family="Helvetica,sans-Serif" font-size="16.00" fill="#000000">0 rows</text>
<polygon fill="#ffffff" stroke="transparent" points="156,-101.6543 156,-126.6543 212,-126.6543 212,-101.6543 156,-101.6543"/>
<polygon fill="none" stroke="#000000" points="156,-101.6543 156,-126.6543 212,-126.6543 212,-101.6543 156,-101.6543"/>
<text text-anchor="start" x="186.3168" y="-109.2543" font-family="Helvetica,sans-Serif" font-size="16.00" fill="#000000">3 &gt;</text>
</a>
</g>
</g>
<!-- projects&#45;&gt;business_partners -->
<g id="edge3" class="edge">
<title>projects:w&#45;&gt;business_partners:e</title>
<path fill="none" stroke="#000000" d="M247.109,-209.9001C228.7102,-193.2619 246.067,-138.6543 212,-138.6543"/>
<polygon fill="#000000" stroke="#000000" points="253.431,-212.0638 259.8343,-218.0603 257.2155,-213.359 261,-214.6543 261,-214.6543 261,-214.6543 257.2155,-213.359 262.1657,-211.2482 253.431,-212.0638 253.431,-212.0638"/>
<ellipse fill="none" stroke="#000000" cx="250.4034" cy="-211.0276" rx="3.2" ry="3.2"/>
</g>
<!-- project_tags -->
<g id="node3" class="node">
<title>project_tags</title>
<g id="a_node3"><a xlink:href="../../tables/project_tags.html" xlink:title="project_tags" target="_top">
<polygon fill="#ffffff" stroke="transparent" points="649.5,-248.1543 649.5,-327.1543 803.5,-327.1543 803.5,-248.1543 649.5,-248.1543"/>
<polygon fill="#f5f5f5" stroke="transparent" points="649.5,-297.6543 649.5,-326.6543 803.5,-326.6543 803.5,-297.6543 649.5,-297.6543"/>
<polygon fill="none" stroke="#000000" points="649.5,-297.6543 649.5,-326.6543 803.5,-326.6543 803.5,-297.6543 649.5,-297.6543"/>
<text text-anchor="start" x="654.5" y="-304.7543" font-family="Helvetica,sans-Serif" font-weight="bold" font-size="16.00" fill="#000000">project_tags</text>
<text text-anchor="start" x="755.2136" y="-307.2543" font-family="Helvetica,sans-Serif" font-size="16.00" fill="#000000">[table]</text>
<polygon fill="none" stroke="#000000" points="649.5,-272.6543 649.5,-297.6543 803.5,-297.6543 803.5,-272.6543 649.5,-272.6543"/>
<text text-anchor="start" x="652.5" y="-280.2543" font-family="Helvetica,sans-Serif" font-size="16.00" fill="#000000">...</text>
<polygon fill="#ffffff" stroke="transparent" points="649.5,-247.6543 649.5,-272.6543 706.5,-272.6543 706.5,-247.6543 649.5,-247.6543"/>
<polygon fill="none" stroke="#000000" points="649.5,-247.6543 649.5,-272.6543 706.5,-272.6543 706.5,-247.6543 649.5,-247.6543"/>
<text text-anchor="start" x="652.5" y="-255.2543" font-family="Helvetica,sans-Serif" font-size="16.00" fill="#000000">&lt; 2</text>
<polygon fill="#ffffff" stroke="transparent" points="706.5,-247.6543 706.5,-272.6543 774.5,-272.6543 774.5,-247.6543 706.5,-247.6543"/>
<polygon fill="none" stroke="#000000" points="706.5,-247.6543 706.5,-272.6543 774.5,-272.6543 774.5,-247.6543 706.5,-247.6543"/>
<text text-anchor="start" x="724.388" y="-255.2543" font-family="Helvetica,sans-Serif" font-size="16.00" fill="#000000">0 rows</text>
<polygon fill="#ffffff" stroke="transparent" points="774.5,-247.6543 774.5,-272.6543 803.5,-272.6543 803.5,-247.6543 774.5,-247.6543"/>
<polygon fill="none" stroke="#000000" points="774.5,-247.6543 774.5,-272.6543 803.5,-272.6543 803.5,-247.6543 774.5,-247.6543"/>
<text text-anchor="start" x="791.6072" y="-255.2543" font-family="Helvetica,sans-Serif" font-size="16.00" fill="#000000"> &#160;</text>
</a>
</g>
</g>
<!-- project_tags&#45;&gt;projects -->
<g id="edge2" class="edge">
<title>project_tags:w&#45;&gt;projects:e</title>
<path fill="none" stroke="#000000" d="M635.1515,-285.8953C598.2094,-292.6468 589.4856,-324.6543 545,-324.6543"/>
<polygon fill="#000000" stroke="#000000" points="641.5298,-285.3437 649.8102,-288.2409 645.5149,-284.999 649.5,-284.6543 649.5,-284.6543 649.5,-284.6543 645.5149,-284.999 649.1898,-281.0677 641.5298,-285.3437 641.5298,-285.3437"/>
<ellipse fill="none" stroke="#000000" cx="638.3417" cy="-285.6194" rx="3.2" ry="3.2"/>
</g>
<!-- timers -->
<g id="node5" class="node">
<title>timers</title>
<g id="a_node5"><a xlink:href="../../tables/timers.html" xlink:title="timers" target="_top">
<polygon fill="#ffffff" stroke="transparent" points="672,-68.1543 672,-147.1543 781,-147.1543 781,-68.1543 672,-68.1543"/>
<polygon fill="#f5f5f5" stroke="transparent" points="672.5,-117.6543 672.5,-146.6543 781.5,-146.6543 781.5,-117.6543 672.5,-117.6543"/>
<polygon fill="none" stroke="#000000" points="672.5,-117.6543 672.5,-146.6543 781.5,-146.6543 781.5,-117.6543 672.5,-117.6543"/>
<text text-anchor="start" x="677.5" y="-124.7543" font-family="Helvetica,sans-Serif" font-weight="bold" font-size="16.00" fill="#000000">timers</text>
<text text-anchor="start" x="732.9272" y="-127.2543" font-family="Helvetica,sans-Serif" font-size="16.00" fill="#000000">[table]</text>
<polygon fill="none" stroke="#000000" points="672.5,-92.6543 672.5,-117.6543 781.5,-117.6543 781.5,-92.6543 672.5,-92.6543"/>
<text text-anchor="start" x="675.5" y="-100.2543" font-family="Helvetica,sans-Serif" font-size="16.00" fill="#000000">...</text>
<polygon fill="#ffffff" stroke="transparent" points="672.5,-67.6543 672.5,-92.6543 700.5,-92.6543 700.5,-67.6543 672.5,-67.6543"/>
<polygon fill="none" stroke="#000000" points="672.5,-67.6543 672.5,-92.6543 700.5,-92.6543 700.5,-67.6543 672.5,-67.6543"/>
<text text-anchor="start" x="675.1584" y="-75.2543" font-family="Helvetica,sans-Serif" font-size="16.00" fill="#000000">&lt; 3</text>
<polygon fill="#ffffff" stroke="transparent" points="700.5,-67.6543 700.5,-92.6543 753.5,-92.6543 753.5,-67.6543 700.5,-67.6543"/>
<polygon fill="none" stroke="#000000" points="700.5,-67.6543 700.5,-92.6543 753.5,-92.6543 753.5,-67.6543 700.5,-67.6543"/>
<text text-anchor="start" x="703.444" y="-75.2543" font-family="Helvetica,sans-Serif" font-size="16.00" fill="#000000">0 rows</text>
<polygon fill="#ffffff" stroke="transparent" points="753.5,-67.6543 753.5,-92.6543 781.5,-92.6543 781.5,-67.6543 753.5,-67.6543"/>
<polygon fill="none" stroke="#000000" points="753.5,-67.6543 753.5,-92.6543 781.5,-92.6543 781.5,-67.6543 753.5,-67.6543"/>
<text text-anchor="start" x="756.1584" y="-75.2543" font-family="Helvetica,sans-Serif" font-size="16.00" fill="#000000">2 &gt;</text>
</a>
</g>
</g>
<!-- timers&#45;&gt;projects -->
<g id="edge5" class="edge">
<title>timers:w&#45;&gt;projects:e</title>
<path fill="none" stroke="#000000" d="M657.8708,-105.8614C604.476,-115.4761 617.7165,-180.7549 586,-237.6543 565.188,-274.9909 587.7453,-324.6543 545,-324.6543"/>
<polygon fill="#000000" stroke="#000000" points="664.5271,-105.3122 672.7961,-108.2421 668.5135,-104.9832 672.5,-104.6543 672.5,-104.6543 672.5,-104.6543 668.5135,-104.9832 672.2039,-101.0665 664.5271,-105.3122 664.5271,-105.3122"/>
<ellipse fill="none" stroke="#000000" cx="661.3379" cy="-105.5754" rx="3.2" ry="3.2"/>
</g>
<!-- timers&#45;&gt;business_partners -->
<g id="edge4" class="edge">
<title>timers:w&#45;&gt;business_partners:e</title>
<path fill="none" stroke="#000000" d="M657.9866,-104.1097C615.5614,-100.7786 601.9353,-83.1137 553,-77.6543 420.4888,-62.8707 370.6751,-14.9618 253,-77.6543 224.1703,-93.0136 244.6659,-138.6543 212,-138.6543"/>
<polygon fill="#000000" stroke="#000000" points="664.5056,-104.3543 672.365,-108.2518 668.5028,-104.5043 672.5,-104.6543 672.5,-104.6543 672.5,-104.6543 668.5028,-104.5043 672.635,-101.0568 664.5056,-104.3543 664.5056,-104.3543"/>
<ellipse fill="none" stroke="#000000" cx="661.3079" cy="-104.2343" rx="3.2" ry="3.2"/>
</g>
</g>
</svg>
