<?xml version="1.0" encoding="UTF-8" standalone="no"?>
<!DOCTYPE svg PUBLIC "-//W3C//DTD SVG 1.1//EN"
 "http://www.w3.org/Graphics/SVG/1.1/DTD/svg11.dtd">
<!-- Generated by graphviz version 2.40.1 (20161225.0304)
 -->
<!-- Title: oneDegreeRelationshipsDiagram Pages: 1 -->
<svg width="523pt" height="473pt"
 viewBox="0.00 0.00 523.00 473.20" xmlns="http://www.w3.org/2000/svg" xmlns:xlink="http://www.w3.org/1999/xlink">
<g id="graph0" class="graph" transform="scale(1 1) rotate(0) translate(4 469.2)">
<title>oneDegreeRelationshipsDiagram</title>
<polygon fill="#ffffff" stroke="transparent" points="-4,4 -4,-469.2 519,-469.2 519,4 -4,4"/>
<text text-anchor="middle" x="101.8088" y="-8.8" font-family="Helvetica,sans-Serif" font-size="16.00" fill="#000000">Generated by SchemaSpy</text>
<!-- journal_entry_tags -->
<g id="node1" class="node">
<title>journal_entry_tags</title>
<g id="a_node1"><a xlink:href="../../tables/journal_entry_tags.html" xlink:title="journal_entry_tags" target="_top">
<polygon fill="#ffffff" stroke="transparent" points="302,-338.2 302,-461.2 507,-461.2 507,-338.2 302,-338.2"/>
<polygon fill="#f5f5f5" stroke="transparent" points="302.5,-431.7 302.5,-460.7 507.5,-460.7 507.5,-431.7 302.5,-431.7"/>
<polygon fill="none" stroke="#000000" points="302.5,-431.7 302.5,-460.7 507.5,-460.7 507.5,-431.7 302.5,-431.7"/>
<text text-anchor="start" x="307.5" y="-438.8" font-family="Helvetica,sans-Serif" font-weight="bold" font-size="16.00" fill="#000000">journal_entry_tags</text>
<text text-anchor="start" x="459.2136" y="-441.3" font-family="Helvetica,sans-Serif" font-size="16.00" fill="#000000">[table]</text>
<polygon fill="#ffffff" stroke="transparent" points="302.5,-409.7 302.5,-431.7 507.5,-431.7 507.5,-409.7 302.5,-409.7"/>
<polygon fill="none" stroke="#000000" points="302.5,-409.7 302.5,-431.7 507.5,-431.7 507.5,-409.7 302.5,-409.7"/>
<image xlink:href="../../images/foreignKeys.png" width="11px" height="12px" preserveAspectRatio="xMinYMin meet" x="307.5" y="-426.7"/>
<text text-anchor="start" x="338.5" y="-412.3" font-family="Helvetica,sans-Serif" font-size="16.00" fill="#000000">journal_entry_id</text>
<polygon fill="#ffffff" stroke="transparent" points="302.5,-387.7 302.5,-409.7 507.5,-409.7 507.5,-387.7 302.5,-387.7"/>
<polygon fill="none" stroke="#000000" points="302.5,-387.7 302.5,-409.7 507.5,-409.7 507.5,-387.7 302.5,-387.7"/>
<image xlink:href="../../images/foreignKeys.png" width="11px" height="12px" preserveAspectRatio="xMinYMin meet" x="307.5" y="-404.7"/>
<text text-anchor="start" x="338.5" y="-390.3" font-family="Helvetica,sans-Serif" font-size="16.00" fill="#000000">tag_id</text>
<polygon fill="none" stroke="#000000" points="302.5,-362.7 302.5,-387.7 507.5,-387.7 507.5,-362.7 302.5,-362.7"/>
<text text-anchor="start" x="305.5" y="-370.3" font-family="Helvetica,sans-Serif" font-size="16.00" fill="#000000">...</text>
<polygon fill="#ffffff" stroke="transparent" points="302.5,-337.7 302.5,-362.7 385.5,-362.7 385.5,-337.7 302.5,-337.7"/>
<polygon fill="none" stroke="#000000" points="302.5,-337.7 302.5,-362.7 385.5,-362.7 385.5,-337.7 302.5,-337.7"/>
<text text-anchor="start" x="305.5" y="-345.3" font-family="Helvetica,sans-Serif" font-size="16.00" fill="#000000">&lt; 2</text>
<polygon fill="#ffffff" stroke="transparent" points="385.5,-337.7 385.5,-362.7 465.5,-362.7 465.5,-337.7 385.5,-337.7"/>
<polygon fill="none" stroke="#000000" points="385.5,-337.7 385.5,-362.7 465.5,-362.7 465.5,-337.7 385.5,-337.7"/>
<text text-anchor="start" x="415.388" y="-345.3" font-family="Helvetica,sans-Serif" font-size="16.00" fill="#000000">2 rows</text>
<polygon fill="#ffffff" stroke="transparent" points="465.5,-337.7 465.5,-362.7 507.5,-362.7 507.5,-337.7 465.5,-337.7"/>
<polygon fill="none" stroke="#000000" points="465.5,-337.7 465.5,-362.7 507.5,-362.7 507.5,-337.7 465.5,-337.7"/>
<text text-anchor="start" x="495.6072" y="-345.3" font-family="Helvetica,sans-Serif" font-size="16.00" fill="#000000"> &#160;</text>
</a>
</g>
</g>
<!-- tags -->
<g id="node2" class="node">
<title>tags</title>
<g id="a_node2"><a xlink:href="../../tables/tags.html" xlink:title="tags" target="_top">
<polygon fill="#ffffff" stroke="transparent" points="8,-65.2 8,-298.2 253,-298.2 253,-65.2 8,-65.2"/>
<polygon fill="#f5f5f5" stroke="transparent" points="10.5,-266.7 10.5,-295.7 251.5,-295.7 251.5,-266.7 10.5,-266.7"/>
<polygon fill="none" stroke="#000000" points="10.5,-266.7 10.5,-295.7 251.5,-295.7 251.5,-266.7 10.5,-266.7"/>
<text text-anchor="start" x="15.3824" y="-273.8" font-family="Helvetica,sans-Serif" font-weight="bold" font-size="16.00" fill="#000000">tags</text>
<text text-anchor="start" x="202.9272" y="-276.3" font-family="Helvetica,sans-Serif" font-size="16.00" fill="#000000">[table]</text>
<polygon fill="none" stroke="#000000" points="10.5,-241.7 10.5,-266.7 122.5,-266.7 122.5,-241.7 10.5,-241.7"/>
<image xlink:href="../../images/primaryKeys.png" width="11px" height="12px" preserveAspectRatio="xMinYMin meet" x="15.5" y="-260.2"/>
<text text-anchor="start" x="30.5" y="-245.8" font-family="Helvetica,sans-Serif" font-size="16.00" fill="#000000">id</text>
<polygon fill="none" stroke="#000000" points="122.5,-241.7 122.5,-266.7 251.5,-266.7 251.5,-241.7 122.5,-241.7"/>
<text text-anchor="start" x="125.188" y="-249.3" font-family="Helvetica,sans-Serif" font-size="16.00" fill="#000000">text[2000000000]</text>
<polygon fill="#ffffff" stroke="transparent" points="10.5,-216.7 10.5,-241.7 122.5,-241.7 122.5,-216.7 10.5,-216.7"/>
<polygon fill="none" stroke="#000000" points="10.5,-216.7 10.5,-241.7 122.5,-241.7 122.5,-216.7 10.5,-216.7"/>
<text text-anchor="start" x="30.5" y="-220.8" font-family="Helvetica,sans-Serif" font-size="16.00" fill="#000000">name</text>
<polygon fill="none" stroke="#000000" points="122.5,-216.7 122.5,-241.7 251.5,-241.7 251.5,-216.7 122.5,-216.7"/>
<text text-anchor="start" x="125.188" y="-224.3" font-family="Helvetica,sans-Serif" font-size="16.00" fill="#000000">text[2000000000]</text>
<polygon fill="none" stroke="#000000" points="10.5,-191.7 10.5,-216.7 122.5,-216.7 122.5,-191.7 10.5,-191.7"/>
<text text-anchor="start" x="30.5" y="-195.8" font-family="Helvetica,sans-Serif" font-size="16.00" fill="#000000">description</text>
<polygon fill="none" stroke="#000000" points="122.5,-191.7 122.5,-216.7 251.5,-216.7 251.5,-191.7 122.5,-191.7"/>
<text text-anchor="start" x="125.188" y="-199.3" font-family="Helvetica,sans-Serif" font-size="16.00" fill="#000000">text[2000000000]</text>
<polygon fill="none" stroke="#000000" points="10.5,-166.7 10.5,-191.7 122.5,-191.7 122.5,-166.7 10.5,-166.7"/>
<text text-anchor="start" x="30.5" y="-170.8" font-family="Helvetica,sans-Serif" font-size="16.00" fill="#000000">colour</text>
<polygon fill="none" stroke="#000000" points="122.5,-166.7 122.5,-191.7 251.5,-191.7 251.5,-166.7 122.5,-166.7"/>
<text text-anchor="start" x="125.188" y="-174.3" font-family="Helvetica,sans-Serif" font-size="16.00" fill="#000000">text[2000000000]</text>
<polygon fill="none" stroke="#000000" points="10.5,-141.7 10.5,-166.7 122.5,-166.7 122.5,-141.7 10.5,-141.7"/>
<text text-anchor="start" x="30.5" y="-145.8" font-family="Helvetica,sans-Serif" font-size="16.00" fill="#000000">fg_colour</text>
<polygon fill="none" stroke="#000000" points="122.5,-141.7 122.5,-166.7 251.5,-166.7 251.5,-141.7 122.5,-141.7"/>
<text text-anchor="start" x="125.188" y="-149.3" font-family="Helvetica,sans-Serif" font-size="16.00" fill="#000000">text[2000000000]</text>
<polygon fill="none" stroke="#000000" points="10.5,-116.7 10.5,-141.7 122.5,-141.7 122.5,-116.7 10.5,-116.7"/>
<text text-anchor="start" x="30.5" y="-120.8" font-family="Helvetica,sans-Serif" font-size="16.00" fill="#000000">inserted_at</text>
<polygon fill="none" stroke="#000000" points="122.5,-116.7 122.5,-141.7 251.5,-141.7 251.5,-116.7 122.5,-116.7"/>
<text text-anchor="start" x="125.188" y="-124.3" font-family="Helvetica,sans-Serif" font-size="16.00" fill="#000000">text[2000000000]</text>
<polygon fill="none" stroke="#000000" points="10.5,-91.7 10.5,-116.7 122.5,-116.7 122.5,-91.7 10.5,-91.7"/>
<text text-anchor="start" x="30.5" y="-95.8" font-family="Helvetica,sans-Serif" font-size="16.00" fill="#000000">updated_at</text>
<polygon fill="none" stroke="#000000" points="122.5,-91.7 122.5,-116.7 251.5,-116.7 251.5,-91.7 122.5,-91.7"/>
<text text-anchor="start" x="125.188" y="-99.3" font-family="Helvetica,sans-Serif" font-size="16.00" fill="#000000">text[2000000000]</text>
<polygon fill="#ffffff" stroke="transparent" points="10.5,-66.7 10.5,-91.7 45.5,-91.7 45.5,-66.7 10.5,-66.7"/>
<polygon fill="none" stroke="#000000" points="10.5,-66.7 10.5,-91.7 45.5,-91.7 45.5,-66.7 10.5,-66.7"/>
<text text-anchor="start" x="13.5" y="-74.3" font-family="Helvetica,sans-Serif" font-size="16.00" fill="#000000">&lt; 0</text>
<polygon fill="#ffffff" stroke="transparent" points="45.5,-66.7 45.5,-91.7 122.5,-91.7 122.5,-66.7 45.5,-66.7"/>
<polygon fill="none" stroke="#000000" points="45.5,-66.7 45.5,-91.7 122.5,-91.7 122.5,-66.7 45.5,-66.7"/>
<text text-anchor="start" x="54.5992" y="-74.3" font-family="Helvetica,sans-Serif" font-size="16.00" fill="#000000">167 rows</text>
<polygon fill="#ffffff" stroke="transparent" points="122.5,-66.7 122.5,-91.7 251.5,-91.7 251.5,-66.7 122.5,-66.7"/>
<polygon fill="none" stroke="#000000" points="122.5,-66.7 122.5,-91.7 251.5,-91.7 251.5,-66.7 122.5,-66.7"/>
<text text-anchor="start" x="225.8168" y="-74.3" font-family="Helvetica,sans-Serif" font-size="16.00" fill="#000000">3 &gt;</text>
<polygon fill="none" stroke="#000000" stroke-width="2" points="9,-66.2 9,-297.2 252,-297.2 252,-66.2 9,-66.2"/>
</a>
</g>
</g>
<!-- journal_entry_tags&#45;&gt;tags -->
<g id="edge1" class="edge">
<title>journal_entry_tags:w&#45;&gt;tags:e</title>
<path fill="none" stroke="#000000" d="M288.1848,-395.6924C248.0504,-375.0135 313.5606,-254.7 251.5,-254.7"/>
<polygon fill="#000000" stroke="#000000" points="294.6709,-397.0551 301.7598,-402.2231 298.5855,-397.8775 302.5,-398.7 302.5,-398.7 302.5,-398.7 298.5855,-397.8775 303.2402,-395.1769 294.6709,-397.0551 294.6709,-397.0551"/>
<ellipse fill="none" stroke="#000000" cx="291.5393" cy="-396.3971" rx="3.2" ry="3.2"/>
</g>
<!-- project_tags -->
<g id="node3" class="node">
<title>project_tags</title>
<g id="a_node3"><a xlink:href="../../tables/project_tags.html" xlink:title="project_tags" target="_top">
<polygon fill="#ffffff" stroke="transparent" points="327.5,-194.2 327.5,-317.2 481.5,-317.2 481.5,-194.2 327.5,-194.2"/>
<polygon fill="#f5f5f5" stroke="transparent" points="327.5,-287.7 327.5,-316.7 481.5,-316.7 481.5,-287.7 327.5,-287.7"/>
<polygon fill="none" stroke="#000000" points="327.5,-287.7 327.5,-316.7 481.5,-316.7 481.5,-287.7 327.5,-287.7"/>
<text text-anchor="start" x="332.5" y="-294.8" font-family="Helvetica,sans-Serif" font-weight="bold" font-size="16.00" fill="#000000">project_tags</text>
<text text-anchor="start" x="433.2136" y="-297.3" font-family="Helvetica,sans-Serif" font-size="16.00" fill="#000000">[table]</text>
<polygon fill="#ffffff" stroke="transparent" points="327.5,-265.7 327.5,-287.7 481.5,-287.7 481.5,-265.7 327.5,-265.7"/>
<polygon fill="none" stroke="#000000" points="327.5,-265.7 327.5,-287.7 481.5,-287.7 481.5,-265.7 327.5,-265.7"/>
<image xlink:href="../../images/foreignKeys.png" width="11px" height="12px" preserveAspectRatio="xMinYMin meet" x="332.5" y="-282.7"/>
<text text-anchor="start" x="363.5" y="-268.3" font-family="Helvetica,sans-Serif" font-size="16.00" fill="#000000">project_id</text>
<polygon fill="#ffffff" stroke="transparent" points="327.5,-243.7 327.5,-265.7 481.5,-265.7 481.5,-243.7 327.5,-243.7"/>
<polygon fill="none" stroke="#000000" points="327.5,-243.7 327.5,-265.7 481.5,-265.7 481.5,-243.7 327.5,-243.7"/>
<image xlink:href="../../images/foreignKeys.png" width="11px" height="12px" preserveAspectRatio="xMinYMin meet" x="332.5" y="-260.7"/>
<text text-anchor="start" x="363.5" y="-246.3" font-family="Helvetica,sans-Serif" font-size="16.00" fill="#000000">tag_id</text>
<polygon fill="none" stroke="#000000" points="327.5,-218.7 327.5,-243.7 481.5,-243.7 481.5,-218.7 327.5,-218.7"/>
<text text-anchor="start" x="330.5" y="-226.3" font-family="Helvetica,sans-Serif" font-size="16.00" fill="#000000">...</text>
<polygon fill="#ffffff" stroke="transparent" points="327.5,-193.7 327.5,-218.7 384.5,-218.7 384.5,-193.7 327.5,-193.7"/>
<polygon fill="none" stroke="#000000" points="327.5,-193.7 327.5,-218.7 384.5,-218.7 384.5,-193.7 327.5,-193.7"/>
<text text-anchor="start" x="330.5" y="-201.3" font-family="Helvetica,sans-Serif" font-size="16.00" fill="#000000">&lt; 2</text>
<polygon fill="#ffffff" stroke="transparent" points="384.5,-193.7 384.5,-218.7 452.5,-218.7 452.5,-193.7 384.5,-193.7"/>
<polygon fill="none" stroke="#000000" points="384.5,-193.7 384.5,-218.7 452.5,-218.7 452.5,-193.7 384.5,-193.7"/>
<text text-anchor="start" x="402.388" y="-201.3" font-family="Helvetica,sans-Serif" font-size="16.00" fill="#000000">0 rows</text>
<polygon fill="#ffffff" stroke="transparent" points="452.5,-193.7 452.5,-218.7 481.5,-218.7 481.5,-193.7 452.5,-193.7"/>
<polygon fill="none" stroke="#000000" points="452.5,-193.7 452.5,-218.7 481.5,-218.7 481.5,-193.7 452.5,-193.7"/>
<text text-anchor="start" x="469.6072" y="-201.3" font-family="Helvetica,sans-Serif" font-size="16.00" fill="#000000"> &#160;</text>
</a>
</g>
</g>
<!-- project_tags&#45;&gt;tags -->
<g id="edge2" class="edge">
<title>project_tags:w&#45;&gt;tags:e</title>
<path fill="none" stroke="#000000" d="M313.0121,-254.7C290.3676,-254.7 279.8681,-254.7 251.5,-254.7"/>
<polygon fill="#000000" stroke="#000000" points="319.5,-254.7001 327.5,-258.3 323.5,-254.7 327.5,-254.7 327.5,-254.7 327.5,-254.7 323.5,-254.7 327.5,-251.1 319.5,-254.7001 319.5,-254.7001"/>
<ellipse fill="none" stroke="#000000" cx="316.3" cy="-254.7001" rx="3.2" ry="3.2"/>
</g>
<!-- timer_tags -->
<g id="node4" class="node">
<title>timer_tags</title>
<g id="a_node4"><a xlink:href="../../tables/timer_tags.html" xlink:title="timer_tags" target="_top">
<polygon fill="#ffffff" stroke="transparent" points="335.5,-50.2 335.5,-173.2 473.5,-173.2 473.5,-50.2 335.5,-50.2"/>
<polygon fill="#f5f5f5" stroke="transparent" points="335.5,-143.7 335.5,-172.7 473.5,-172.7 473.5,-143.7 335.5,-143.7"/>
<polygon fill="none" stroke="#000000" points="335.5,-143.7 335.5,-172.7 473.5,-172.7 473.5,-143.7 335.5,-143.7"/>
<text text-anchor="start" x="340.5" y="-150.8" font-family="Helvetica,sans-Serif" font-weight="bold" font-size="16.00" fill="#000000">timer_tags</text>
<text text-anchor="start" x="425.2136" y="-153.3" font-family="Helvetica,sans-Serif" font-size="16.00" fill="#000000">[table]</text>
<polygon fill="#ffffff" stroke="transparent" points="335.5,-121.7 335.5,-143.7 473.5,-143.7 473.5,-121.7 335.5,-121.7"/>
<polygon fill="none" stroke="#000000" points="335.5,-121.7 335.5,-143.7 473.5,-143.7 473.5,-121.7 335.5,-121.7"/>
<image xlink:href="../../images/foreignKeys.png" width="11px" height="12px" preserveAspectRatio="xMinYMin meet" x="340.5" y="-138.7"/>
<text text-anchor="start" x="369.5" y="-124.3" font-family="Helvetica,sans-Serif" font-size="16.00" fill="#000000">timer_id</text>
<polygon fill="#ffffff" stroke="transparent" points="335.5,-99.7 335.5,-121.7 473.5,-121.7 473.5,-99.7 335.5,-99.7"/>
<polygon fill="none" stroke="#000000" points="335.5,-99.7 335.5,-121.7 473.5,-121.7 473.5,-99.7 335.5,-99.7"/>
<image xlink:href="../../images/foreignKeys.png" width="11px" height="12px" preserveAspectRatio="xMinYMin meet" x="340.5" y="-116.7"/>
<text text-anchor="start" x="369.5" y="-102.3" font-family="Helvetica,sans-Serif" font-size="16.00" fill="#000000">tag_id</text>
<polygon fill="none" stroke="#000000" points="335.5,-74.7 335.5,-99.7 473.5,-99.7 473.5,-74.7 335.5,-74.7"/>
<text text-anchor="start" x="338.5" y="-82.3" font-family="Helvetica,sans-Serif" font-size="16.00" fill="#000000">...</text>
<polygon fill="#ffffff" stroke="transparent" points="335.5,-49.7 335.5,-74.7 376.5,-74.7 376.5,-49.7 335.5,-49.7"/>
<polygon fill="none" stroke="#000000" points="335.5,-49.7 335.5,-74.7 376.5,-74.7 376.5,-49.7 335.5,-49.7"/>
<text text-anchor="start" x="338.5" y="-57.3" font-family="Helvetica,sans-Serif" font-size="16.00" fill="#000000">&lt; 2</text>
<polygon fill="#ffffff" stroke="transparent" points="376.5,-49.7 376.5,-74.7 452.5,-74.7 452.5,-49.7 376.5,-49.7"/>
<polygon fill="none" stroke="#000000" points="376.5,-49.7 376.5,-74.7 452.5,-74.7 452.5,-49.7 376.5,-49.7"/>
<text text-anchor="start" x="384.5992" y="-57.3" font-family="Helvetica,sans-Serif" font-size="16.00" fill="#000000">629 rows</text>
<polygon fill="#ffffff" stroke="transparent" points="452.5,-49.7 452.5,-74.7 473.5,-74.7 473.5,-49.7 452.5,-49.7"/>
<polygon fill="none" stroke="#000000" points="452.5,-49.7 452.5,-74.7 473.5,-74.7 473.5,-49.7 452.5,-49.7"/>
<text text-anchor="start" x="461.6072" y="-57.3" font-family="Helvetica,sans-Serif" font-size="16.00" fill="#000000"> &#160;</text>
</a>
</g>
</g>
<!-- timer_tags&#45;&gt;tags -->
<g id="edge3" class="edge">
<title>timer_tags:w&#45;&gt;tags:e</title>
<path fill="none" stroke="#000000" d="M321.1748,-112.9619C270.1729,-131.2818 320.0939,-254.7 251.5,-254.7"/>
<polygon fill="#000000" stroke="#000000" points="327.5979,-111.9478 336.0615,-114.2559 331.5489,-111.3239 335.5,-110.7 335.5,-110.7 335.5,-110.7 331.5489,-111.3239 334.9385,-107.1441 327.5979,-111.9478 327.5979,-111.9478"/>
<ellipse fill="none" stroke="#000000" cx="324.4371" cy="-112.4469" rx="3.2" ry="3.2"/>
</g>
</g>
</svg>
