<?xml version="1.0" encoding="UTF-8" standalone="no"?>
<!DOCTYPE svg PUBLIC "-//W3C//DTD SVG 1.1//EN"
 "http://www.w3.org/Graphics/SVG/1.1/DTD/svg11.dtd">
<!-- Generated by graphviz version 2.40.1 (20161225.0304)
 -->
<!-- Title: twoDegreesRelationshipsDiagram Pages: 1 -->
<svg width="640pt" height="467pt"
 viewBox="0.00 0.00 640.00 467.20" xmlns="http://www.w3.org/2000/svg" xmlns:xlink="http://www.w3.org/1999/xlink">
<g id="graph0" class="graph" transform="scale(1 1) rotate(0) translate(4 463.2)">
<title>twoDegreesRelationshipsDiagram</title>
<polygon fill="#ffffff" stroke="transparent" points="-4,4 -4,-463.2 636,-463.2 636,4 -4,4"/>
<text text-anchor="middle" x="101.8088" y="-8.8" font-family="Helvetica,sans-Serif" font-size="16.00" fill="#000000">Generated by SchemaSpy</text>
<!-- project_tags -->
<g id="node1" class="node">
<title>project_tags</title>
<g id="a_node1"><a xlink:href="../../tables/project_tags.html" xlink:title="project_tags" target="_top">
<polygon fill="#ffffff" stroke="transparent" points="470,-50.2 470,-195.2 624,-195.2 624,-50.2 470,-50.2"/>
<polygon fill="#f5f5f5" stroke="transparent" points="470,-165.7 470,-194.7 624,-194.7 624,-165.7 470,-165.7"/>
<polygon fill="none" stroke="#000000" points="470,-165.7 470,-194.7 624,-194.7 624,-165.7 470,-165.7"/>
<text text-anchor="start" x="475" y="-172.8" font-family="Helvetica,sans-Serif" font-weight="bold" font-size="16.00" fill="#000000">project_tags</text>
<text text-anchor="start" x="575.7136" y="-175.3" font-family="Helvetica,sans-Serif" font-size="16.00" fill="#000000">[table]</text>
<polygon fill="none" stroke="#000000" points="470,-143.7 470,-165.7 624,-165.7 624,-143.7 470,-143.7"/>
<image xlink:href="../../images/primaryKeys.png" width="11px" height="12px" preserveAspectRatio="xMinYMin meet" x="475" y="-160.7"/>
<text text-anchor="start" x="506" y="-146.3" font-family="Helvetica,sans-Serif" font-size="16.00" fill="#000000">id</text>
<polygon fill="#ffffff" stroke="transparent" points="470,-121.7 470,-143.7 624,-143.7 624,-121.7 470,-121.7"/>
<polygon fill="none" stroke="#000000" points="470,-121.7 470,-143.7 624,-143.7 624,-121.7 470,-121.7"/>
<image xlink:href="../../images/foreignKeys.png" width="11px" height="12px" preserveAspectRatio="xMinYMin meet" x="475" y="-138.7"/>
<text text-anchor="start" x="506" y="-124.3" font-family="Helvetica,sans-Serif" font-size="16.00" fill="#000000">tag_id</text>
<polygon fill="#ffffff" stroke="transparent" points="470,-99.7 470,-121.7 624,-121.7 624,-99.7 470,-99.7"/>
<polygon fill="none" stroke="#000000" points="470,-99.7 470,-121.7 624,-121.7 624,-99.7 470,-99.7"/>
<image xlink:href="../../images/foreignKeys.png" width="11px" height="12px" preserveAspectRatio="xMinYMin meet" x="475" y="-116.7"/>
<text text-anchor="start" x="506" y="-102.3" font-family="Helvetica,sans-Serif" font-size="16.00" fill="#000000">project_id</text>
<polygon fill="none" stroke="#000000" points="470,-74.7 470,-99.7 624,-99.7 624,-74.7 470,-74.7"/>
<text text-anchor="start" x="473" y="-82.3" font-family="Helvetica,sans-Serif" font-size="16.00" fill="#000000">...</text>
<polygon fill="#ffffff" stroke="transparent" points="470,-49.7 470,-74.7 527,-74.7 527,-49.7 470,-49.7"/>
<polygon fill="none" stroke="#000000" points="470,-49.7 470,-74.7 527,-74.7 527,-49.7 470,-49.7"/>
<text text-anchor="start" x="473" y="-57.3" font-family="Helvetica,sans-Serif" font-size="16.00" fill="#000000">&lt; 2</text>
<polygon fill="#ffffff" stroke="transparent" points="527,-49.7 527,-74.7 595,-74.7 595,-49.7 527,-49.7"/>
<polygon fill="none" stroke="#000000" points="527,-49.7 527,-74.7 595,-74.7 595,-49.7 527,-49.7"/>
<text text-anchor="start" x="544.888" y="-57.3" font-family="Helvetica,sans-Serif" font-size="16.00" fill="#000000">0 rows</text>
<polygon fill="#ffffff" stroke="transparent" points="595,-49.7 595,-74.7 624,-74.7 624,-49.7 595,-49.7"/>
<polygon fill="none" stroke="#000000" points="595,-49.7 595,-74.7 624,-74.7 624,-49.7 595,-49.7"/>
<text text-anchor="start" x="612.1072" y="-57.3" font-family="Helvetica,sans-Serif" font-size="16.00" fill="#000000"> &#160;</text>
</a>
</g>
</g>
<!-- projects -->
<g id="node2" class="node">
<title>projects</title>
<g id="a_node2"><a xlink:href="../../tables/projects.html" xlink:title="projects" target="_top">
<polygon fill="#ffffff" stroke="transparent" points="8,-218.2 8,-297.2 127,-297.2 127,-218.2 8,-218.2"/>
<polygon fill="#f5f5f5" stroke="transparent" points="8.5,-267.7 8.5,-296.7 127.5,-296.7 127.5,-267.7 8.5,-267.7"/>
<polygon fill="none" stroke="#000000" points="8.5,-267.7 8.5,-296.7 127.5,-296.7 127.5,-267.7 8.5,-267.7"/>
<text text-anchor="start" x="13.5" y="-274.8" font-family="Helvetica,sans-Serif" font-weight="bold" font-size="16.00" fill="#000000">projects</text>
<text text-anchor="start" x="79.2136" y="-277.3" font-family="Helvetica,sans-Serif" font-size="16.00" fill="#000000">[table]</text>
<polygon fill="none" stroke="#000000" points="8.5,-242.7 8.5,-267.7 127.5,-267.7 127.5,-242.7 8.5,-242.7"/>
<text text-anchor="start" x="11.5" y="-250.3" font-family="Helvetica,sans-Serif" font-size="16.00" fill="#000000">...</text>
<polygon fill="#ffffff" stroke="transparent" points="8.5,-217.7 8.5,-242.7 41.5,-242.7 41.5,-217.7 8.5,-217.7"/>
<polygon fill="none" stroke="#000000" points="8.5,-217.7 8.5,-242.7 41.5,-242.7 41.5,-217.7 8.5,-217.7"/>
<text text-anchor="start" x="11.5" y="-225.3" font-family="Helvetica,sans-Serif" font-size="16.00" fill="#000000">&lt; 1</text>
<polygon fill="#ffffff" stroke="transparent" points="41.5,-217.7 41.5,-242.7 96.5,-242.7 96.5,-217.7 41.5,-217.7"/>
<polygon fill="none" stroke="#000000" points="41.5,-217.7 41.5,-242.7 96.5,-242.7 96.5,-217.7 41.5,-217.7"/>
<text text-anchor="start" x="46.388" y="-225.3" font-family="Helvetica,sans-Serif" font-size="16.00" fill="#000000">0 rows</text>
<polygon fill="#ffffff" stroke="transparent" points="96.5,-217.7 96.5,-242.7 127.5,-242.7 127.5,-217.7 96.5,-217.7"/>
<polygon fill="none" stroke="#000000" points="96.5,-217.7 96.5,-242.7 127.5,-242.7 127.5,-217.7 96.5,-217.7"/>
<text text-anchor="start" x="101.8168" y="-225.3" font-family="Helvetica,sans-Serif" font-size="16.00" fill="#000000">3 &gt;</text>
</a>
</g>
</g>
<!-- project_tags&#45;&gt;projects -->
<g id="edge1" class="edge">
<title>project_tags:w&#45;&gt;projects:e</title>
<path fill="none" stroke="#000000" d="M455.3542,-110.3813C331.1975,-104.975 270.961,-33.5813 168,-111.7 115.3768,-151.6263 193.5553,-254.7 127.5,-254.7"/>
<polygon fill="#000000" stroke="#000000" points="462.0019,-110.5259 469.9217,-114.2991 466.0009,-110.613 470,-110.7 470,-110.7 470,-110.7 466.0009,-110.613 470.0783,-107.1009 462.0019,-110.5259 462.0019,-110.5259"/>
<ellipse fill="none" stroke="#000000" cx="458.8027" cy="-110.4563" rx="3.2" ry="3.2"/>
</g>
<!-- tags -->
<g id="node3" class="node">
<title>tags</title>
<g id="a_node3"><a xlink:href="../../tables/tags.html" xlink:title="tags" target="_top">
<polygon fill="#ffffff" stroke="transparent" points="176,-122.2 176,-355.2 421,-355.2 421,-122.2 176,-122.2"/>
<polygon fill="#f5f5f5" stroke="transparent" points="178.5,-323.7 178.5,-352.7 419.5,-352.7 419.5,-323.7 178.5,-323.7"/>
<polygon fill="none" stroke="#000000" points="178.5,-323.7 178.5,-352.7 419.5,-352.7 419.5,-323.7 178.5,-323.7"/>
<text text-anchor="start" x="183.3824" y="-330.8" font-family="Helvetica,sans-Serif" font-weight="bold" font-size="16.00" fill="#000000">tags</text>
<text text-anchor="start" x="370.9272" y="-333.3" font-family="Helvetica,sans-Serif" font-size="16.00" fill="#000000">[table]</text>
<polygon fill="none" stroke="#000000" points="178.5,-298.7 178.5,-323.7 290.5,-323.7 290.5,-298.7 178.5,-298.7"/>
<image xlink:href="../../images/primaryKeys.png" width="11px" height="12px" preserveAspectRatio="xMinYMin meet" x="183.5" y="-317.2"/>
<text text-anchor="start" x="198.5" y="-302.8" font-family="Helvetica,sans-Serif" font-size="16.00" fill="#000000">id</text>
<polygon fill="none" stroke="#000000" points="290.5,-298.7 290.5,-323.7 419.5,-323.7 419.5,-298.7 290.5,-298.7"/>
<text text-anchor="start" x="293.188" y="-306.3" font-family="Helvetica,sans-Serif" font-size="16.00" fill="#000000">text[2000000000]</text>
<polygon fill="#ffffff" stroke="transparent" points="178.5,-273.7 178.5,-298.7 290.5,-298.7 290.5,-273.7 178.5,-273.7"/>
<polygon fill="none" stroke="#000000" points="178.5,-273.7 178.5,-298.7 290.5,-298.7 290.5,-273.7 178.5,-273.7"/>
<text text-anchor="start" x="198.5" y="-277.8" font-family="Helvetica,sans-Serif" font-size="16.00" fill="#000000">name</text>
<polygon fill="none" stroke="#000000" points="290.5,-273.7 290.5,-298.7 419.5,-298.7 419.5,-273.7 290.5,-273.7"/>
<text text-anchor="start" x="293.188" y="-281.3" font-family="Helvetica,sans-Serif" font-size="16.00" fill="#000000">text[2000000000]</text>
<polygon fill="none" stroke="#000000" points="178.5,-248.7 178.5,-273.7 290.5,-273.7 290.5,-248.7 178.5,-248.7"/>
<text text-anchor="start" x="198.5" y="-252.8" font-family="Helvetica,sans-Serif" font-size="16.00" fill="#000000">description</text>
<polygon fill="none" stroke="#000000" points="290.5,-248.7 290.5,-273.7 419.5,-273.7 419.5,-248.7 290.5,-248.7"/>
<text text-anchor="start" x="293.188" y="-256.3" font-family="Helvetica,sans-Serif" font-size="16.00" fill="#000000">text[2000000000]</text>
<polygon fill="none" stroke="#000000" points="178.5,-223.7 178.5,-248.7 290.5,-248.7 290.5,-223.7 178.5,-223.7"/>
<text text-anchor="start" x="198.5" y="-227.8" font-family="Helvetica,sans-Serif" font-size="16.00" fill="#000000">colour</text>
<polygon fill="none" stroke="#000000" points="290.5,-223.7 290.5,-248.7 419.5,-248.7 419.5,-223.7 290.5,-223.7"/>
<text text-anchor="start" x="293.188" y="-231.3" font-family="Helvetica,sans-Serif" font-size="16.00" fill="#000000">text[2000000000]</text>
<polygon fill="none" stroke="#000000" points="178.5,-198.7 178.5,-223.7 290.5,-223.7 290.5,-198.7 178.5,-198.7"/>
<text text-anchor="start" x="198.5" y="-202.8" font-family="Helvetica,sans-Serif" font-size="16.00" fill="#000000">fg_colour</text>
<polygon fill="none" stroke="#000000" points="290.5,-198.7 290.5,-223.7 419.5,-223.7 419.5,-198.7 290.5,-198.7"/>
<text text-anchor="start" x="293.188" y="-206.3" font-family="Helvetica,sans-Serif" font-size="16.00" fill="#000000">text[2000000000]</text>
<polygon fill="none" stroke="#000000" points="178.5,-173.7 178.5,-198.7 290.5,-198.7 290.5,-173.7 178.5,-173.7"/>
<text text-anchor="start" x="198.5" y="-177.8" font-family="Helvetica,sans-Serif" font-size="16.00" fill="#000000">inserted_at</text>
<polygon fill="none" stroke="#000000" points="290.5,-173.7 290.5,-198.7 419.5,-198.7 419.5,-173.7 290.5,-173.7"/>
<text text-anchor="start" x="293.188" y="-181.3" font-family="Helvetica,sans-Serif" font-size="16.00" fill="#000000">text[2000000000]</text>
<polygon fill="none" stroke="#000000" points="178.5,-148.7 178.5,-173.7 290.5,-173.7 290.5,-148.7 178.5,-148.7"/>
<text text-anchor="start" x="198.5" y="-152.8" font-family="Helvetica,sans-Serif" font-size="16.00" fill="#000000">updated_at</text>
<polygon fill="none" stroke="#000000" points="290.5,-148.7 290.5,-173.7 419.5,-173.7 419.5,-148.7 290.5,-148.7"/>
<text text-anchor="start" x="293.188" y="-156.3" font-family="Helvetica,sans-Serif" font-size="16.00" fill="#000000">text[2000000000]</text>
<polygon fill="#ffffff" stroke="transparent" points="178.5,-123.7 178.5,-148.7 221.5,-148.7 221.5,-123.7 178.5,-123.7"/>
<polygon fill="none" stroke="#000000" points="178.5,-123.7 178.5,-148.7 221.5,-148.7 221.5,-123.7 178.5,-123.7"/>
<text text-anchor="start" x="181.5" y="-131.3" font-family="Helvetica,sans-Serif" font-size="16.00" fill="#000000">&lt; 0</text>
<polygon fill="#ffffff" stroke="transparent" points="221.5,-123.7 221.5,-148.7 290.5,-148.7 290.5,-123.7 221.5,-123.7"/>
<polygon fill="none" stroke="#000000" points="221.5,-123.7 221.5,-148.7 290.5,-148.7 290.5,-123.7 221.5,-123.7"/>
<text text-anchor="start" x="240.388" y="-131.3" font-family="Helvetica,sans-Serif" font-size="16.00" fill="#000000">0 rows</text>
<polygon fill="#ffffff" stroke="transparent" points="290.5,-123.7 290.5,-148.7 419.5,-148.7 419.5,-123.7 290.5,-123.7"/>
<polygon fill="none" stroke="#000000" points="290.5,-123.7 290.5,-148.7 419.5,-148.7 419.5,-123.7 290.5,-123.7"/>
<text text-anchor="start" x="393.8168" y="-131.3" font-family="Helvetica,sans-Serif" font-size="16.00" fill="#000000">2 &gt;</text>
<polygon fill="none" stroke="#000000" stroke-width="2" points="177,-123.2 177,-354.2 420,-354.2 420,-123.2 177,-123.2"/>
</a>
</g>
</g>
<!-- project_tags&#45;&gt;tags -->
<g id="edge2" class="edge">
<title>project_tags:w&#45;&gt;tags:e</title>
<path fill="none" stroke="#000000" d="M455.6904,-135.095C402.1145,-156.3362 496.5103,-311.7 419.5,-311.7"/>
<polygon fill="#000000" stroke="#000000" points="462.1098,-134.0207 470.5943,-136.2506 466.0549,-133.3603 470,-132.7 470,-132.7 470,-132.7 466.0549,-133.3603 469.4057,-129.1494 462.1098,-134.0207 462.1098,-134.0207"/>
<ellipse fill="none" stroke="#000000" cx="458.9537" cy="-134.5489" rx="3.2" ry="3.2"/>
</g>
<!-- timer_tags -->
<g id="node4" class="node">
<title>timer_tags</title>
<g id="a_node4"><a xlink:href="../../tables/timer_tags.html" xlink:title="timer_tags" target="_top">
<polygon fill="#ffffff" stroke="transparent" points="478,-290.2 478,-435.2 616,-435.2 616,-290.2 478,-290.2"/>
<polygon fill="#f5f5f5" stroke="transparent" points="478,-405.7 478,-434.7 616,-434.7 616,-405.7 478,-405.7"/>
<polygon fill="none" stroke="#000000" points="478,-405.7 478,-434.7 616,-434.7 616,-405.7 478,-405.7"/>
<text text-anchor="start" x="483" y="-412.8" font-family="Helvetica,sans-Serif" font-weight="bold" font-size="16.00" fill="#000000">timer_tags</text>
<text text-anchor="start" x="567.7136" y="-415.3" font-family="Helvetica,sans-Serif" font-size="16.00" fill="#000000">[table]</text>
<polygon fill="none" stroke="#000000" points="478,-383.7 478,-405.7 616,-405.7 616,-383.7 478,-383.7"/>
<image xlink:href="../../images/primaryKeys.png" width="11px" height="12px" preserveAspectRatio="xMinYMin meet" x="483" y="-400.7"/>
<text text-anchor="start" x="512" y="-386.3" font-family="Helvetica,sans-Serif" font-size="16.00" fill="#000000">id</text>
<polygon fill="#ffffff" stroke="transparent" points="478,-361.7 478,-383.7 616,-383.7 616,-361.7 478,-361.7"/>
<polygon fill="none" stroke="#000000" points="478,-361.7 478,-383.7 616,-383.7 616,-361.7 478,-361.7"/>
<image xlink:href="../../images/foreignKeys.png" width="11px" height="12px" preserveAspectRatio="xMinYMin meet" x="483" y="-378.7"/>
<text text-anchor="start" x="512" y="-364.3" font-family="Helvetica,sans-Serif" font-size="16.00" fill="#000000">tag_id</text>
<polygon fill="#ffffff" stroke="transparent" points="478,-339.7 478,-361.7 616,-361.7 616,-339.7 478,-339.7"/>
<polygon fill="none" stroke="#000000" points="478,-339.7 478,-361.7 616,-361.7 616,-339.7 478,-339.7"/>
<image xlink:href="../../images/foreignKeys.png" width="11px" height="12px" preserveAspectRatio="xMinYMin meet" x="483" y="-356.7"/>
<text text-anchor="start" x="512" y="-342.3" font-family="Helvetica,sans-Serif" font-size="16.00" fill="#000000">timer_id</text>
<polygon fill="none" stroke="#000000" points="478,-314.7 478,-339.7 616,-339.7 616,-314.7 478,-314.7"/>
<text text-anchor="start" x="481" y="-322.3" font-family="Helvetica,sans-Serif" font-size="16.00" fill="#000000">...</text>
<polygon fill="#ffffff" stroke="transparent" points="478,-289.7 478,-314.7 527,-314.7 527,-289.7 478,-289.7"/>
<polygon fill="none" stroke="#000000" points="478,-289.7 478,-314.7 527,-314.7 527,-289.7 478,-289.7"/>
<text text-anchor="start" x="481" y="-297.3" font-family="Helvetica,sans-Serif" font-size="16.00" fill="#000000">&lt; 2</text>
<polygon fill="#ffffff" stroke="transparent" points="527,-289.7 527,-314.7 591,-314.7 591,-289.7 527,-289.7"/>
<polygon fill="none" stroke="#000000" points="527,-289.7 527,-314.7 591,-314.7 591,-289.7 527,-289.7"/>
<text text-anchor="start" x="540.888" y="-297.3" font-family="Helvetica,sans-Serif" font-size="16.00" fill="#000000">0 rows</text>
<polygon fill="#ffffff" stroke="transparent" points="591,-289.7 591,-314.7 616,-314.7 616,-289.7 591,-289.7"/>
<polygon fill="none" stroke="#000000" points="591,-289.7 591,-314.7 616,-314.7 616,-289.7 591,-289.7"/>
<text text-anchor="start" x="604.1072" y="-297.3" font-family="Helvetica,sans-Serif" font-size="16.00" fill="#000000"> &#160;</text>
</a>
</g>
</g>
<!-- timer_tags&#45;&gt;tags -->
<g id="edge3" class="edge">
<title>timer_tags:w&#45;&gt;tags:e</title>
<path fill="none" stroke="#000000" d="M463.9477,-368.6976C444.3095,-355.1268 451.1942,-311.7 419.5,-311.7"/>
<polygon fill="#000000" stroke="#000000" points="470.306,-370.5085 477.0138,-376.1623 474.153,-371.6043 478,-372.7 478,-372.7 478,-372.7 474.153,-371.6043 478.9862,-369.2377 470.306,-370.5085 470.306,-370.5085"/>
<ellipse fill="none" stroke="#000000" cx="467.2284" cy="-369.632" rx="3.2" ry="3.2"/>
</g>
<!-- timers -->
<g id="node5" class="node">
<title>timers</title>
<g id="a_node5"><a xlink:href="../../tables/timers.html" xlink:title="timers" target="_top">
<polygon fill="#ffffff" stroke="transparent" points="244,-376.2 244,-455.2 353,-455.2 353,-376.2 244,-376.2"/>
<polygon fill="#f5f5f5" stroke="transparent" points="244.5,-425.7 244.5,-454.7 353.5,-454.7 353.5,-425.7 244.5,-425.7"/>
<polygon fill="none" stroke="#000000" points="244.5,-425.7 244.5,-454.7 353.5,-454.7 353.5,-425.7 244.5,-425.7"/>
<text text-anchor="start" x="249.5" y="-432.8" font-family="Helvetica,sans-Serif" font-weight="bold" font-size="16.00" fill="#000000">timers</text>
<text text-anchor="start" x="304.9272" y="-435.3" font-family="Helvetica,sans-Serif" font-size="16.00" fill="#000000">[table]</text>
<polygon fill="none" stroke="#000000" points="244.5,-400.7 244.5,-425.7 353.5,-425.7 353.5,-400.7 244.5,-400.7"/>
<text text-anchor="start" x="247.5" y="-408.3" font-family="Helvetica,sans-Serif" font-size="16.00" fill="#000000">...</text>
<polygon fill="#ffffff" stroke="transparent" points="244.5,-375.7 244.5,-400.7 272.5,-400.7 272.5,-375.7 244.5,-375.7"/>
<polygon fill="none" stroke="#000000" points="244.5,-375.7 244.5,-400.7 272.5,-400.7 272.5,-375.7 244.5,-375.7"/>
<text text-anchor="start" x="247.1584" y="-383.3" font-family="Helvetica,sans-Serif" font-size="16.00" fill="#000000">&lt; 3</text>
<polygon fill="#ffffff" stroke="transparent" points="272.5,-375.7 272.5,-400.7 325.5,-400.7 325.5,-375.7 272.5,-375.7"/>
<polygon fill="none" stroke="#000000" points="272.5,-375.7 272.5,-400.7 325.5,-400.7 325.5,-375.7 272.5,-375.7"/>
<text text-anchor="start" x="275.444" y="-383.3" font-family="Helvetica,sans-Serif" font-size="16.00" fill="#000000">0 rows</text>
<polygon fill="#ffffff" stroke="transparent" points="325.5,-375.7 325.5,-400.7 353.5,-400.7 353.5,-375.7 325.5,-375.7"/>
<polygon fill="none" stroke="#000000" points="325.5,-375.7 325.5,-400.7 353.5,-400.7 353.5,-375.7 325.5,-375.7"/>
<text text-anchor="start" x="328.1584" y="-383.3" font-family="Helvetica,sans-Serif" font-size="16.00" fill="#000000">2 &gt;</text>
</a>
</g>
</g>
<!-- timer_tags&#45;&gt;timers -->
<g id="edge4" class="edge">
<title>timer_tags:w&#45;&gt;timers:e</title>
<path fill="none" stroke="#000000" d="M463.6429,-351.9385C415.609,-360.6768 410.1234,-412.7 353.5,-412.7"/>
<polygon fill="#000000" stroke="#000000" points="470.0296,-351.3876 478.3094,-354.2867 474.0148,-351.0438 478,-350.7 478,-350.7 478,-350.7 474.0148,-351.0438 477.6906,-347.1133 470.0296,-351.3876 470.0296,-351.3876"/>
<ellipse fill="none" stroke="#000000" cx="466.8414" cy="-351.6626" rx="3.2" ry="3.2"/>
</g>
<!-- timers&#45;&gt;projects -->
<g id="edge5" class="edge">
<title>timers:w&#45;&gt;projects:e</title>
<path fill="none" stroke="#000000" d="M230.0121,-411.8514C201.335,-408.1638 189.8896,-392.5013 168,-365.7 134.781,-325.0272 180.0145,-254.7 127.5,-254.7"/>
<polygon fill="#000000" stroke="#000000" points="236.5137,-412.2321 244.2895,-416.2938 240.5068,-412.4661 244.5,-412.7 244.5,-412.7 244.5,-412.7 240.5068,-412.4661 244.7105,-409.1062 236.5137,-412.2321 236.5137,-412.2321"/>
<ellipse fill="none" stroke="#000000" cx="233.3192" cy="-412.045" rx="3.2" ry="3.2"/>
</g>
</g>
</svg>
