<?xml version="1.0" encoding="UTF-8" standalone="no"?>
<!DOCTYPE svg PUBLIC "-//W3C//DTD SVG 1.1//EN"
 "http://www.w3.org/Graphics/SVG/1.1/DTD/svg11.dtd">
<!-- Generated by graphviz version 2.40.1 (20161225.0304)
 -->
<!-- Title: oneDegreeRelationshipsDiagram Pages: 1 -->
<svg width="472pt" height="397pt"
 viewBox="0.00 0.00 472.00 397.20" xmlns="http://www.w3.org/2000/svg" xmlns:xlink="http://www.w3.org/1999/xlink">
<g id="graph0" class="graph" transform="scale(1 1) rotate(0) translate(4 393.2)">
<title>oneDegreeRelationshipsDiagram</title>
<polygon fill="#ffffff" stroke="transparent" points="-4,4 -4,-393.2 468,-393.2 468,4 -4,4"/>
<text text-anchor="middle" x="101.8088" y="-8.8" font-family="Helvetica,sans-Serif" font-size="16.00" fill="#000000">Generated by SchemaSpy</text>
<!-- project_tags -->
<g id="node1" class="node">
<title>project_tags</title>
<g id="a_node1"><a xlink:href="../../tables/project_tags.html" xlink:title="project_tags" target="_top">
<polygon fill="#ffffff" stroke="transparent" points="302,-240.2 302,-385.2 456,-385.2 456,-240.2 302,-240.2"/>
<polygon fill="#f5f5f5" stroke="transparent" points="302,-355.7 302,-384.7 456,-384.7 456,-355.7 302,-355.7"/>
<polygon fill="none" stroke="#000000" points="302,-355.7 302,-384.7 456,-384.7 456,-355.7 302,-355.7"/>
<text text-anchor="start" x="307" y="-362.8" font-family="Helvetica,sans-Serif" font-weight="bold" font-size="16.00" fill="#000000">project_tags</text>
<text text-anchor="start" x="407.7136" y="-365.3" font-family="Helvetica,sans-Serif" font-size="16.00" fill="#000000">[table]</text>
<polygon fill="none" stroke="#000000" points="302,-333.7 302,-355.7 456,-355.7 456,-333.7 302,-333.7"/>
<image xlink:href="../../images/primaryKeys.png" width="11px" height="12px" preserveAspectRatio="xMinYMin meet" x="307" y="-350.7"/>
<text text-anchor="start" x="338" y="-336.3" font-family="Helvetica,sans-Serif" font-size="16.00" fill="#000000">id</text>
<polygon fill="#ffffff" stroke="transparent" points="302,-311.7 302,-333.7 456,-333.7 456,-311.7 302,-311.7"/>
<polygon fill="none" stroke="#000000" points="302,-311.7 302,-333.7 456,-333.7 456,-311.7 302,-311.7"/>
<image xlink:href="../../images/foreignKeys.png" width="11px" height="12px" preserveAspectRatio="xMinYMin meet" x="307" y="-328.7"/>
<text text-anchor="start" x="338" y="-314.3" font-family="Helvetica,sans-Serif" font-size="16.00" fill="#000000">tag_id</text>
<polygon fill="#ffffff" stroke="transparent" points="302,-289.7 302,-311.7 456,-311.7 456,-289.7 302,-289.7"/>
<polygon fill="none" stroke="#000000" points="302,-289.7 302,-311.7 456,-311.7 456,-289.7 302,-289.7"/>
<image xlink:href="../../images/foreignKeys.png" width="11px" height="12px" preserveAspectRatio="xMinYMin meet" x="307" y="-306.7"/>
<text text-anchor="start" x="338" y="-292.3" font-family="Helvetica,sans-Serif" font-size="16.00" fill="#000000">project_id</text>
<polygon fill="none" stroke="#000000" points="302,-264.7 302,-289.7 456,-289.7 456,-264.7 302,-264.7"/>
<text text-anchor="start" x="305" y="-272.3" font-family="Helvetica,sans-Serif" font-size="16.00" fill="#000000">...</text>
<polygon fill="#ffffff" stroke="transparent" points="302,-239.7 302,-264.7 359,-264.7 359,-239.7 302,-239.7"/>
<polygon fill="none" stroke="#000000" points="302,-239.7 302,-264.7 359,-264.7 359,-239.7 302,-239.7"/>
<text text-anchor="start" x="305" y="-247.3" font-family="Helvetica,sans-Serif" font-size="16.00" fill="#000000">&lt; 2</text>
<polygon fill="#ffffff" stroke="transparent" points="359,-239.7 359,-264.7 427,-264.7 427,-239.7 359,-239.7"/>
<polygon fill="none" stroke="#000000" points="359,-239.7 359,-264.7 427,-264.7 427,-239.7 359,-239.7"/>
<text text-anchor="start" x="376.888" y="-247.3" font-family="Helvetica,sans-Serif" font-size="16.00" fill="#000000">0 rows</text>
<polygon fill="#ffffff" stroke="transparent" points="427,-239.7 427,-264.7 456,-264.7 456,-239.7 427,-239.7"/>
<polygon fill="none" stroke="#000000" points="427,-239.7 427,-264.7 456,-264.7 456,-239.7 427,-239.7"/>
<text text-anchor="start" x="444.1072" y="-247.3" font-family="Helvetica,sans-Serif" font-size="16.00" fill="#000000"> &#160;</text>
</a>
</g>
</g>
<!-- tags -->
<g id="node2" class="node">
<title>tags</title>
<g id="a_node2"><a xlink:href="../../tables/tags.html" xlink:title="tags" target="_top">
<polygon fill="#ffffff" stroke="transparent" points="8,-50.2 8,-283.2 253,-283.2 253,-50.2 8,-50.2"/>
<polygon fill="#f5f5f5" stroke="transparent" points="10.5,-251.7 10.5,-280.7 251.5,-280.7 251.5,-251.7 10.5,-251.7"/>
<polygon fill="none" stroke="#000000" points="10.5,-251.7 10.5,-280.7 251.5,-280.7 251.5,-251.7 10.5,-251.7"/>
<text text-anchor="start" x="15.3824" y="-258.8" font-family="Helvetica,sans-Serif" font-weight="bold" font-size="16.00" fill="#000000">tags</text>
<text text-anchor="start" x="202.9272" y="-261.3" font-family="Helvetica,sans-Serif" font-size="16.00" fill="#000000">[table]</text>
<polygon fill="none" stroke="#000000" points="10.5,-226.7 10.5,-251.7 122.5,-251.7 122.5,-226.7 10.5,-226.7"/>
<image xlink:href="../../images/primaryKeys.png" width="11px" height="12px" preserveAspectRatio="xMinYMin meet" x="15.5" y="-245.2"/>
<text text-anchor="start" x="30.5" y="-230.8" font-family="Helvetica,sans-Serif" font-size="16.00" fill="#000000">id</text>
<polygon fill="none" stroke="#000000" points="122.5,-226.7 122.5,-251.7 251.5,-251.7 251.5,-226.7 122.5,-226.7"/>
<text text-anchor="start" x="125.188" y="-234.3" font-family="Helvetica,sans-Serif" font-size="16.00" fill="#000000">text[2000000000]</text>
<polygon fill="#ffffff" stroke="transparent" points="10.5,-201.7 10.5,-226.7 122.5,-226.7 122.5,-201.7 10.5,-201.7"/>
<polygon fill="none" stroke="#000000" points="10.5,-201.7 10.5,-226.7 122.5,-226.7 122.5,-201.7 10.5,-201.7"/>
<text text-anchor="start" x="30.5" y="-205.8" font-family="Helvetica,sans-Serif" font-size="16.00" fill="#000000">name</text>
<polygon fill="none" stroke="#000000" points="122.5,-201.7 122.5,-226.7 251.5,-226.7 251.5,-201.7 122.5,-201.7"/>
<text text-anchor="start" x="125.188" y="-209.3" font-family="Helvetica,sans-Serif" font-size="16.00" fill="#000000">text[2000000000]</text>
<polygon fill="none" stroke="#000000" points="10.5,-176.7 10.5,-201.7 122.5,-201.7 122.5,-176.7 10.5,-176.7"/>
<text text-anchor="start" x="30.5" y="-180.8" font-family="Helvetica,sans-Serif" font-size="16.00" fill="#000000">description</text>
<polygon fill="none" stroke="#000000" points="122.5,-176.7 122.5,-201.7 251.5,-201.7 251.5,-176.7 122.5,-176.7"/>
<text text-anchor="start" x="125.188" y="-184.3" font-family="Helvetica,sans-Serif" font-size="16.00" fill="#000000">text[2000000000]</text>
<polygon fill="none" stroke="#000000" points="10.5,-151.7 10.5,-176.7 122.5,-176.7 122.5,-151.7 10.5,-151.7"/>
<text text-anchor="start" x="30.5" y="-155.8" font-family="Helvetica,sans-Serif" font-size="16.00" fill="#000000">colour</text>
<polygon fill="none" stroke="#000000" points="122.5,-151.7 122.5,-176.7 251.5,-176.7 251.5,-151.7 122.5,-151.7"/>
<text text-anchor="start" x="125.188" y="-159.3" font-family="Helvetica,sans-Serif" font-size="16.00" fill="#000000">text[2000000000]</text>
<polygon fill="none" stroke="#000000" points="10.5,-126.7 10.5,-151.7 122.5,-151.7 122.5,-126.7 10.5,-126.7"/>
<text text-anchor="start" x="30.5" y="-130.8" font-family="Helvetica,sans-Serif" font-size="16.00" fill="#000000">fg_colour</text>
<polygon fill="none" stroke="#000000" points="122.5,-126.7 122.5,-151.7 251.5,-151.7 251.5,-126.7 122.5,-126.7"/>
<text text-anchor="start" x="125.188" y="-134.3" font-family="Helvetica,sans-Serif" font-size="16.00" fill="#000000">text[2000000000]</text>
<polygon fill="none" stroke="#000000" points="10.5,-101.7 10.5,-126.7 122.5,-126.7 122.5,-101.7 10.5,-101.7"/>
<text text-anchor="start" x="30.5" y="-105.8" font-family="Helvetica,sans-Serif" font-size="16.00" fill="#000000">inserted_at</text>
<polygon fill="none" stroke="#000000" points="122.5,-101.7 122.5,-126.7 251.5,-126.7 251.5,-101.7 122.5,-101.7"/>
<text text-anchor="start" x="125.188" y="-109.3" font-family="Helvetica,sans-Serif" font-size="16.00" fill="#000000">text[2000000000]</text>
<polygon fill="none" stroke="#000000" points="10.5,-76.7 10.5,-101.7 122.5,-101.7 122.5,-76.7 10.5,-76.7"/>
<text text-anchor="start" x="30.5" y="-80.8" font-family="Helvetica,sans-Serif" font-size="16.00" fill="#000000">updated_at</text>
<polygon fill="none" stroke="#000000" points="122.5,-76.7 122.5,-101.7 251.5,-101.7 251.5,-76.7 122.5,-76.7"/>
<text text-anchor="start" x="125.188" y="-84.3" font-family="Helvetica,sans-Serif" font-size="16.00" fill="#000000">text[2000000000]</text>
<polygon fill="#ffffff" stroke="transparent" points="10.5,-51.7 10.5,-76.7 53.5,-76.7 53.5,-51.7 10.5,-51.7"/>
<polygon fill="none" stroke="#000000" points="10.5,-51.7 10.5,-76.7 53.5,-76.7 53.5,-51.7 10.5,-51.7"/>
<text text-anchor="start" x="13.5" y="-59.3" font-family="Helvetica,sans-Serif" font-size="16.00" fill="#000000">&lt; 0</text>
<polygon fill="#ffffff" stroke="transparent" points="53.5,-51.7 53.5,-76.7 122.5,-76.7 122.5,-51.7 53.5,-51.7"/>
<polygon fill="none" stroke="#000000" points="53.5,-51.7 53.5,-76.7 122.5,-76.7 122.5,-51.7 53.5,-51.7"/>
<text text-anchor="start" x="72.388" y="-59.3" font-family="Helvetica,sans-Serif" font-size="16.00" fill="#000000">0 rows</text>
<polygon fill="#ffffff" stroke="transparent" points="122.5,-51.7 122.5,-76.7 251.5,-76.7 251.5,-51.7 122.5,-51.7"/>
<polygon fill="none" stroke="#000000" points="122.5,-51.7 122.5,-76.7 251.5,-76.7 251.5,-51.7 122.5,-51.7"/>
<text text-anchor="start" x="225.8168" y="-59.3" font-family="Helvetica,sans-Serif" font-size="16.00" fill="#000000">2 &gt;</text>
<polygon fill="none" stroke="#000000" stroke-width="2" points="9,-51.2 9,-282.2 252,-282.2 252,-51.2 9,-51.2"/>
</a>
</g>
</g>
<!-- project_tags&#45;&gt;tags -->
<g id="edge1" class="edge">
<title>project_tags:w&#45;&gt;tags:e</title>
<path fill="none" stroke="#000000" d="M288.0329,-318.2376C267.3424,-300.9976 288.6081,-239.7 251.5,-239.7"/>
<polygon fill="#000000" stroke="#000000" points="294.3795,-320.2652 300.9044,-326.1292 298.1897,-321.4826 302,-322.7 302,-322.7 302,-322.7 298.1897,-321.4826 303.0956,-319.2708 294.3795,-320.2652 294.3795,-320.2652"/>
<ellipse fill="none" stroke="#000000" cx="291.3313" cy="-319.2913" rx="3.2" ry="3.2"/>
</g>
<!-- timer_tags -->
<g id="node3" class="node">
<title>timer_tags</title>
<g id="a_node3"><a xlink:href="../../tables/timer_tags.html" xlink:title="timer_tags" target="_top">
<polygon fill="#ffffff" stroke="transparent" points="310,-74.2 310,-219.2 448,-219.2 448,-74.2 310,-74.2"/>
<polygon fill="#f5f5f5" stroke="transparent" points="310,-189.7 310,-218.7 448,-218.7 448,-189.7 310,-189.7"/>
<polygon fill="none" stroke="#000000" points="310,-189.7 310,-218.7 448,-218.7 448,-189.7 310,-189.7"/>
<text text-anchor="start" x="315" y="-196.8" font-family="Helvetica,sans-Serif" font-weight="bold" font-size="16.00" fill="#000000">timer_tags</text>
<text text-anchor="start" x="399.7136" y="-199.3" font-family="Helvetica,sans-Serif" font-size="16.00" fill="#000000">[table]</text>
<polygon fill="none" stroke="#000000" points="310,-167.7 310,-189.7 448,-189.7 448,-167.7 310,-167.7"/>
<image xlink:href="../../images/primaryKeys.png" width="11px" height="12px" preserveAspectRatio="xMinYMin meet" x="315" y="-184.7"/>
<text text-anchor="start" x="344" y="-170.3" font-family="Helvetica,sans-Serif" font-size="16.00" fill="#000000">id</text>
<polygon fill="#ffffff" stroke="transparent" points="310,-145.7 310,-167.7 448,-167.7 448,-145.7 310,-145.7"/>
<polygon fill="none" stroke="#000000" points="310,-145.7 310,-167.7 448,-167.7 448,-145.7 310,-145.7"/>
<image xlink:href="../../images/foreignKeys.png" width="11px" height="12px" preserveAspectRatio="xMinYMin meet" x="315" y="-162.7"/>
<text text-anchor="start" x="344" y="-148.3" font-family="Helvetica,sans-Serif" font-size="16.00" fill="#000000">tag_id</text>
<polygon fill="#ffffff" stroke="transparent" points="310,-123.7 310,-145.7 448,-145.7 448,-123.7 310,-123.7"/>
<polygon fill="none" stroke="#000000" points="310,-123.7 310,-145.7 448,-145.7 448,-123.7 310,-123.7"/>
<image xlink:href="../../images/foreignKeys.png" width="11px" height="12px" preserveAspectRatio="xMinYMin meet" x="315" y="-140.7"/>
<text text-anchor="start" x="344" y="-126.3" font-family="Helvetica,sans-Serif" font-size="16.00" fill="#000000">timer_id</text>
<polygon fill="none" stroke="#000000" points="310,-98.7 310,-123.7 448,-123.7 448,-98.7 310,-98.7"/>
<text text-anchor="start" x="313" y="-106.3" font-family="Helvetica,sans-Serif" font-size="16.00" fill="#000000">...</text>
<polygon fill="#ffffff" stroke="transparent" points="310,-73.7 310,-98.7 359,-98.7 359,-73.7 310,-73.7"/>
<polygon fill="none" stroke="#000000" points="310,-73.7 310,-98.7 359,-98.7 359,-73.7 310,-73.7"/>
<text text-anchor="start" x="313" y="-81.3" font-family="Helvetica,sans-Serif" font-size="16.00" fill="#000000">&lt; 2</text>
<polygon fill="#ffffff" stroke="transparent" points="359,-73.7 359,-98.7 423,-98.7 423,-73.7 359,-73.7"/>
<polygon fill="none" stroke="#000000" points="359,-73.7 359,-98.7 423,-98.7 423,-73.7 359,-73.7"/>
<text text-anchor="start" x="372.888" y="-81.3" font-family="Helvetica,sans-Serif" font-size="16.00" fill="#000000">0 rows</text>
<polygon fill="#ffffff" stroke="transparent" points="423,-73.7 423,-98.7 448,-98.7 448,-73.7 423,-73.7"/>
<polygon fill="none" stroke="#000000" points="423,-73.7 423,-98.7 448,-98.7 448,-73.7 423,-73.7"/>
<text text-anchor="start" x="436.1072" y="-81.3" font-family="Helvetica,sans-Serif" font-size="16.00" fill="#000000"> &#160;</text>
</a>
</g>
</g>
<!-- timer_tags&#45;&gt;tags -->
<g id="edge2" class="edge">
<title>timer_tags:w&#45;&gt;tags:e</title>
<path fill="none" stroke="#000000" d="M296.0508,-160.482C271.78,-176.7192 290.8132,-239.7 251.5,-239.7"/>
<polygon fill="#000000" stroke="#000000" points="302.2788,-158.7935 310.9421,-160.1746 306.1394,-157.7467 310,-156.7 310,-156.7 310,-156.7 306.1394,-157.7467 309.0579,-153.2254 302.2788,-158.7935 302.2788,-158.7935"/>
<ellipse fill="none" stroke="#000000" cx="299.1903" cy="-159.6309" rx="3.2" ry="3.2"/>
</g>
</g>
</svg>
