<?xml version="1.0" encoding="UTF-8" standalone="no"?>
<!DOCTYPE svg PUBLIC "-//W3C//DTD SVG 1.1//EN"
 "http://www.w3.org/Graphics/SVG/1.1/DTD/svg11.dtd">
<!-- Generated by graphviz version 2.40.1 (20161225.0304)
 -->
<!-- Title: twoDegreesRelationshipsDiagram Pages: 1 -->
<svg width="691pt" height="560pt"
 viewBox="0.00 0.00 691.00 560.20" xmlns="http://www.w3.org/2000/svg" xmlns:xlink="http://www.w3.org/1999/xlink">
<g id="graph0" class="graph" transform="scale(1 1) rotate(0) translate(4 556.2)">
<title>twoDegreesRelationshipsDiagram</title>
<polygon fill="#ffffff" stroke="transparent" points="-4,4 -4,-556.2 687,-556.2 687,4 -4,4"/>
<text text-anchor="middle" x="101.8088" y="-8.8" font-family="Helvetica,sans-Serif" font-size="16.00" fill="#000000">Generated by SchemaSpy</text>
<!-- journal_entry_tags -->
<g id="node1" class="node">
<title>journal_entry_tags</title>
<g id="a_node1"><a xlink:href="../../tables/journal_entry_tags.html" xlink:title="journal_entry_tags" target="_top">
<polygon fill="#ffffff" stroke="transparent" points="470,-423.2 470,-546.2 675,-546.2 675,-423.2 470,-423.2"/>
<polygon fill="#f5f5f5" stroke="transparent" points="470.5,-516.7 470.5,-545.7 675.5,-545.7 675.5,-516.7 470.5,-516.7"/>
<polygon fill="none" stroke="#000000" points="470.5,-516.7 470.5,-545.7 675.5,-545.7 675.5,-516.7 470.5,-516.7"/>
<text text-anchor="start" x="475.5" y="-523.8" font-family="Helvetica,sans-Serif" font-weight="bold" font-size="16.00" fill="#000000">journal_entry_tags</text>
<text text-anchor="start" x="627.2136" y="-526.3" font-family="Helvetica,sans-Serif" font-size="16.00" fill="#000000">[table]</text>
<polygon fill="#ffffff" stroke="transparent" points="470.5,-494.7 470.5,-516.7 675.5,-516.7 675.5,-494.7 470.5,-494.7"/>
<polygon fill="none" stroke="#000000" points="470.5,-494.7 470.5,-516.7 675.5,-516.7 675.5,-494.7 470.5,-494.7"/>
<image xlink:href="../../images/foreignKeys.png" width="11px" height="12px" preserveAspectRatio="xMinYMin meet" x="475.5" y="-511.7"/>
<text text-anchor="start" x="506.5" y="-497.3" font-family="Helvetica,sans-Serif" font-size="16.00" fill="#000000">journal_entry_id</text>
<polygon fill="#ffffff" stroke="transparent" points="470.5,-472.7 470.5,-494.7 675.5,-494.7 675.5,-472.7 470.5,-472.7"/>
<polygon fill="none" stroke="#000000" points="470.5,-472.7 470.5,-494.7 675.5,-494.7 675.5,-472.7 470.5,-472.7"/>
<image xlink:href="../../images/foreignKeys.png" width="11px" height="12px" preserveAspectRatio="xMinYMin meet" x="475.5" y="-489.7"/>
<text text-anchor="start" x="506.5" y="-475.3" font-family="Helvetica,sans-Serif" font-size="16.00" fill="#000000">tag_id</text>
<polygon fill="none" stroke="#000000" points="470.5,-447.7 470.5,-472.7 675.5,-472.7 675.5,-447.7 470.5,-447.7"/>
<text text-anchor="start" x="473.5" y="-455.3" font-family="Helvetica,sans-Serif" font-size="16.00" fill="#000000">...</text>
<polygon fill="#ffffff" stroke="transparent" points="470.5,-422.7 470.5,-447.7 553.5,-447.7 553.5,-422.7 470.5,-422.7"/>
<polygon fill="none" stroke="#000000" points="470.5,-422.7 470.5,-447.7 553.5,-447.7 553.5,-422.7 470.5,-422.7"/>
<text text-anchor="start" x="473.5" y="-430.3" font-family="Helvetica,sans-Serif" font-size="16.00" fill="#000000">&lt; 2</text>
<polygon fill="#ffffff" stroke="transparent" points="553.5,-422.7 553.5,-447.7 633.5,-447.7 633.5,-422.7 553.5,-422.7"/>
<polygon fill="none" stroke="#000000" points="553.5,-422.7 553.5,-447.7 633.5,-447.7 633.5,-422.7 553.5,-422.7"/>
<text text-anchor="start" x="583.388" y="-430.3" font-family="Helvetica,sans-Serif" font-size="16.00" fill="#000000">2 rows</text>
<polygon fill="#ffffff" stroke="transparent" points="633.5,-422.7 633.5,-447.7 675.5,-447.7 675.5,-422.7 633.5,-422.7"/>
<polygon fill="none" stroke="#000000" points="633.5,-422.7 633.5,-447.7 675.5,-447.7 675.5,-422.7 633.5,-422.7"/>
<text text-anchor="start" x="663.6072" y="-430.3" font-family="Helvetica,sans-Serif" font-size="16.00" fill="#000000"> &#160;</text>
</a>
</g>
</g>
<!-- journal_entries -->
<g id="node2" class="node">
<title>journal_entries</title>
<g id="a_node2"><a xlink:href="../../tables/journal_entries.html" xlink:title="journal_entries" target="_top">
<polygon fill="#ffffff" stroke="transparent" points="211.5,-469.2 211.5,-548.2 385.5,-548.2 385.5,-469.2 211.5,-469.2"/>
<polygon fill="#f5f5f5" stroke="transparent" points="211.5,-518.7 211.5,-547.7 385.5,-547.7 385.5,-518.7 211.5,-518.7"/>
<polygon fill="none" stroke="#000000" points="211.5,-518.7 211.5,-547.7 385.5,-547.7 385.5,-518.7 211.5,-518.7"/>
<text text-anchor="start" x="216.5" y="-525.8" font-family="Helvetica,sans-Serif" font-weight="bold" font-size="16.00" fill="#000000">journal_entries</text>
<text text-anchor="start" x="337.2136" y="-528.3" font-family="Helvetica,sans-Serif" font-size="16.00" fill="#000000">[table]</text>
<polygon fill="none" stroke="#000000" points="211.5,-493.7 211.5,-518.7 385.5,-518.7 385.5,-493.7 211.5,-493.7"/>
<text text-anchor="start" x="214.5" y="-501.3" font-family="Helvetica,sans-Serif" font-size="16.00" fill="#000000">...</text>
<polygon fill="#ffffff" stroke="transparent" points="211.5,-468.7 211.5,-493.7 271.5,-493.7 271.5,-468.7 211.5,-468.7"/>
<polygon fill="none" stroke="#000000" points="211.5,-468.7 211.5,-493.7 271.5,-493.7 271.5,-468.7 211.5,-468.7"/>
<text text-anchor="start" x="214.5" y="-476.3" font-family="Helvetica,sans-Serif" font-size="16.00" fill="#000000">&lt; 3</text>
<polygon fill="#ffffff" stroke="transparent" points="271.5,-468.7 271.5,-493.7 340.5,-493.7 340.5,-468.7 271.5,-468.7"/>
<polygon fill="none" stroke="#000000" points="271.5,-468.7 271.5,-493.7 340.5,-493.7 340.5,-468.7 271.5,-468.7"/>
<text text-anchor="start" x="290.388" y="-476.3" font-family="Helvetica,sans-Serif" font-size="16.00" fill="#000000">2 rows</text>
<polygon fill="#ffffff" stroke="transparent" points="340.5,-468.7 340.5,-493.7 385.5,-493.7 385.5,-468.7 340.5,-468.7"/>
<polygon fill="none" stroke="#000000" points="340.5,-468.7 340.5,-493.7 385.5,-493.7 385.5,-468.7 340.5,-468.7"/>
<text text-anchor="start" x="359.8168" y="-476.3" font-family="Helvetica,sans-Serif" font-size="16.00" fill="#000000">1 &gt;</text>
</a>
</g>
</g>
<!-- journal_entry_tags&#45;&gt;journal_entries -->
<g id="edge1" class="edge">
<title>journal_entry_tags:w&#45;&gt;journal_entries:e</title>
<path fill="none" stroke="#000000" d="M456.0858,-505.7C429.5057,-505.7 417.9653,-505.7 385.5,-505.7"/>
<polygon fill="#000000" stroke="#000000" points="462.5,-505.7001 470.5,-509.3 466.5,-505.7 470.5,-505.7 470.5,-505.7 470.5,-505.7 466.5,-505.7 470.5,-502.1 462.5,-505.7001 462.5,-505.7001"/>
<ellipse fill="none" stroke="#000000" cx="459.3" cy="-505.7001" rx="3.2" ry="3.2"/>
</g>
<!-- tags -->
<g id="node3" class="node">
<title>tags</title>
<g id="a_node3"><a xlink:href="../../tables/tags.html" xlink:title="tags" target="_top">
<polygon fill="#ffffff" stroke="transparent" points="176,-150.2 176,-383.2 421,-383.2 421,-150.2 176,-150.2"/>
<polygon fill="#f5f5f5" stroke="transparent" points="178.5,-351.7 178.5,-380.7 419.5,-380.7 419.5,-351.7 178.5,-351.7"/>
<polygon fill="none" stroke="#000000" points="178.5,-351.7 178.5,-380.7 419.5,-380.7 419.5,-351.7 178.5,-351.7"/>
<text text-anchor="start" x="183.3824" y="-358.8" font-family="Helvetica,sans-Serif" font-weight="bold" font-size="16.00" fill="#000000">tags</text>
<text text-anchor="start" x="370.9272" y="-361.3" font-family="Helvetica,sans-Serif" font-size="16.00" fill="#000000">[table]</text>
<polygon fill="none" stroke="#000000" points="178.5,-326.7 178.5,-351.7 290.5,-351.7 290.5,-326.7 178.5,-326.7"/>
<image xlink:href="../../images/primaryKeys.png" width="11px" height="12px" preserveAspectRatio="xMinYMin meet" x="183.5" y="-345.2"/>
<text text-anchor="start" x="198.5" y="-330.8" font-family="Helvetica,sans-Serif" font-size="16.00" fill="#000000">id</text>
<polygon fill="none" stroke="#000000" points="290.5,-326.7 290.5,-351.7 419.5,-351.7 419.5,-326.7 290.5,-326.7"/>
<text text-anchor="start" x="293.188" y="-334.3" font-family="Helvetica,sans-Serif" font-size="16.00" fill="#000000">text[2000000000]</text>
<polygon fill="#ffffff" stroke="transparent" points="178.5,-301.7 178.5,-326.7 290.5,-326.7 290.5,-301.7 178.5,-301.7"/>
<polygon fill="none" stroke="#000000" points="178.5,-301.7 178.5,-326.7 290.5,-326.7 290.5,-301.7 178.5,-301.7"/>
<text text-anchor="start" x="198.5" y="-305.8" font-family="Helvetica,sans-Serif" font-size="16.00" fill="#000000">name</text>
<polygon fill="none" stroke="#000000" points="290.5,-301.7 290.5,-326.7 419.5,-326.7 419.5,-301.7 290.5,-301.7"/>
<text text-anchor="start" x="293.188" y="-309.3" font-family="Helvetica,sans-Serif" font-size="16.00" fill="#000000">text[2000000000]</text>
<polygon fill="none" stroke="#000000" points="178.5,-276.7 178.5,-301.7 290.5,-301.7 290.5,-276.7 178.5,-276.7"/>
<text text-anchor="start" x="198.5" y="-280.8" font-family="Helvetica,sans-Serif" font-size="16.00" fill="#000000">description</text>
<polygon fill="none" stroke="#000000" points="290.5,-276.7 290.5,-301.7 419.5,-301.7 419.5,-276.7 290.5,-276.7"/>
<text text-anchor="start" x="293.188" y="-284.3" font-family="Helvetica,sans-Serif" font-size="16.00" fill="#000000">text[2000000000]</text>
<polygon fill="none" stroke="#000000" points="178.5,-251.7 178.5,-276.7 290.5,-276.7 290.5,-251.7 178.5,-251.7"/>
<text text-anchor="start" x="198.5" y="-255.8" font-family="Helvetica,sans-Serif" font-size="16.00" fill="#000000">colour</text>
<polygon fill="none" stroke="#000000" points="290.5,-251.7 290.5,-276.7 419.5,-276.7 419.5,-251.7 290.5,-251.7"/>
<text text-anchor="start" x="293.188" y="-259.3" font-family="Helvetica,sans-Serif" font-size="16.00" fill="#000000">text[2000000000]</text>
<polygon fill="none" stroke="#000000" points="178.5,-226.7 178.5,-251.7 290.5,-251.7 290.5,-226.7 178.5,-226.7"/>
<text text-anchor="start" x="198.5" y="-230.8" font-family="Helvetica,sans-Serif" font-size="16.00" fill="#000000">fg_colour</text>
<polygon fill="none" stroke="#000000" points="290.5,-226.7 290.5,-251.7 419.5,-251.7 419.5,-226.7 290.5,-226.7"/>
<text text-anchor="start" x="293.188" y="-234.3" font-family="Helvetica,sans-Serif" font-size="16.00" fill="#000000">text[2000000000]</text>
<polygon fill="none" stroke="#000000" points="178.5,-201.7 178.5,-226.7 290.5,-226.7 290.5,-201.7 178.5,-201.7"/>
<text text-anchor="start" x="198.5" y="-205.8" font-family="Helvetica,sans-Serif" font-size="16.00" fill="#000000">inserted_at</text>
<polygon fill="none" stroke="#000000" points="290.5,-201.7 290.5,-226.7 419.5,-226.7 419.5,-201.7 290.5,-201.7"/>
<text text-anchor="start" x="293.188" y="-209.3" font-family="Helvetica,sans-Serif" font-size="16.00" fill="#000000">text[2000000000]</text>
<polygon fill="none" stroke="#000000" points="178.5,-176.7 178.5,-201.7 290.5,-201.7 290.5,-176.7 178.5,-176.7"/>
<text text-anchor="start" x="198.5" y="-180.8" font-family="Helvetica,sans-Serif" font-size="16.00" fill="#000000">updated_at</text>
<polygon fill="none" stroke="#000000" points="290.5,-176.7 290.5,-201.7 419.5,-201.7 419.5,-176.7 290.5,-176.7"/>
<text text-anchor="start" x="293.188" y="-184.3" font-family="Helvetica,sans-Serif" font-size="16.00" fill="#000000">text[2000000000]</text>
<polygon fill="#ffffff" stroke="transparent" points="178.5,-151.7 178.5,-176.7 213.5,-176.7 213.5,-151.7 178.5,-151.7"/>
<polygon fill="none" stroke="#000000" points="178.5,-151.7 178.5,-176.7 213.5,-176.7 213.5,-151.7 178.5,-151.7"/>
<text text-anchor="start" x="181.5" y="-159.3" font-family="Helvetica,sans-Serif" font-size="16.00" fill="#000000">&lt; 0</text>
<polygon fill="#ffffff" stroke="transparent" points="213.5,-151.7 213.5,-176.7 290.5,-176.7 290.5,-151.7 213.5,-151.7"/>
<polygon fill="none" stroke="#000000" points="213.5,-151.7 213.5,-176.7 290.5,-176.7 290.5,-151.7 213.5,-151.7"/>
<text text-anchor="start" x="222.5992" y="-159.3" font-family="Helvetica,sans-Serif" font-size="16.00" fill="#000000">167 rows</text>
<polygon fill="#ffffff" stroke="transparent" points="290.5,-151.7 290.5,-176.7 419.5,-176.7 419.5,-151.7 290.5,-151.7"/>
<polygon fill="none" stroke="#000000" points="290.5,-151.7 290.5,-176.7 419.5,-176.7 419.5,-151.7 290.5,-151.7"/>
<text text-anchor="start" x="393.8168" y="-159.3" font-family="Helvetica,sans-Serif" font-size="16.00" fill="#000000">3 &gt;</text>
<polygon fill="none" stroke="#000000" stroke-width="2" points="177,-151.2 177,-382.2 420,-382.2 420,-151.2 177,-151.2"/>
</a>
</g>
</g>
<!-- journal_entry_tags&#45;&gt;tags -->
<g id="edge2" class="edge">
<title>journal_entry_tags:w&#45;&gt;tags:e</title>
<path fill="none" stroke="#000000" d="M456.1848,-480.6924C416.0504,-460.0135 481.5606,-339.7 419.5,-339.7"/>
<polygon fill="#000000" stroke="#000000" points="462.6709,-482.0551 469.7598,-487.2231 466.5855,-482.8775 470.5,-483.7 470.5,-483.7 470.5,-483.7 466.5855,-482.8775 471.2402,-480.1769 462.6709,-482.0551 462.6709,-482.0551"/>
<ellipse fill="none" stroke="#000000" cx="459.5393" cy="-481.3971" rx="3.2" ry="3.2"/>
</g>
<!-- project_tags -->
<g id="node4" class="node">
<title>project_tags</title>
<g id="a_node4"><a xlink:href="../../tables/project_tags.html" xlink:title="project_tags" target="_top">
<polygon fill="#ffffff" stroke="transparent" points="495.5,-279.2 495.5,-402.2 649.5,-402.2 649.5,-279.2 495.5,-279.2"/>
<polygon fill="#f5f5f5" stroke="transparent" points="495.5,-372.7 495.5,-401.7 649.5,-401.7 649.5,-372.7 495.5,-372.7"/>
<polygon fill="none" stroke="#000000" points="495.5,-372.7 495.5,-401.7 649.5,-401.7 649.5,-372.7 495.5,-372.7"/>
<text text-anchor="start" x="500.5" y="-379.8" font-family="Helvetica,sans-Serif" font-weight="bold" font-size="16.00" fill="#000000">project_tags</text>
<text text-anchor="start" x="601.2136" y="-382.3" font-family="Helvetica,sans-Serif" font-size="16.00" fill="#000000">[table]</text>
<polygon fill="#ffffff" stroke="transparent" points="495.5,-350.7 495.5,-372.7 649.5,-372.7 649.5,-350.7 495.5,-350.7"/>
<polygon fill="none" stroke="#000000" points="495.5,-350.7 495.5,-372.7 649.5,-372.7 649.5,-350.7 495.5,-350.7"/>
<image xlink:href="../../images/foreignKeys.png" width="11px" height="12px" preserveAspectRatio="xMinYMin meet" x="500.5" y="-367.7"/>
<text text-anchor="start" x="531.5" y="-353.3" font-family="Helvetica,sans-Serif" font-size="16.00" fill="#000000">project_id</text>
<polygon fill="#ffffff" stroke="transparent" points="495.5,-328.7 495.5,-350.7 649.5,-350.7 649.5,-328.7 495.5,-328.7"/>
<polygon fill="none" stroke="#000000" points="495.5,-328.7 495.5,-350.7 649.5,-350.7 649.5,-328.7 495.5,-328.7"/>
<image xlink:href="../../images/foreignKeys.png" width="11px" height="12px" preserveAspectRatio="xMinYMin meet" x="500.5" y="-345.7"/>
<text text-anchor="start" x="531.5" y="-331.3" font-family="Helvetica,sans-Serif" font-size="16.00" fill="#000000">tag_id</text>
<polygon fill="none" stroke="#000000" points="495.5,-303.7 495.5,-328.7 649.5,-328.7 649.5,-303.7 495.5,-303.7"/>
<text text-anchor="start" x="498.5" y="-311.3" font-family="Helvetica,sans-Serif" font-size="16.00" fill="#000000">...</text>
<polygon fill="#ffffff" stroke="transparent" points="495.5,-278.7 495.5,-303.7 552.5,-303.7 552.5,-278.7 495.5,-278.7"/>
<polygon fill="none" stroke="#000000" points="495.5,-278.7 495.5,-303.7 552.5,-303.7 552.5,-278.7 495.5,-278.7"/>
<text text-anchor="start" x="498.5" y="-286.3" font-family="Helvetica,sans-Serif" font-size="16.00" fill="#000000">&lt; 2</text>
<polygon fill="#ffffff" stroke="transparent" points="552.5,-278.7 552.5,-303.7 620.5,-303.7 620.5,-278.7 552.5,-278.7"/>
<polygon fill="none" stroke="#000000" points="552.5,-278.7 552.5,-303.7 620.5,-303.7 620.5,-278.7 552.5,-278.7"/>
<text text-anchor="start" x="570.388" y="-286.3" font-family="Helvetica,sans-Serif" font-size="16.00" fill="#000000">0 rows</text>
<polygon fill="#ffffff" stroke="transparent" points="620.5,-278.7 620.5,-303.7 649.5,-303.7 649.5,-278.7 620.5,-278.7"/>
<polygon fill="none" stroke="#000000" points="620.5,-278.7 620.5,-303.7 649.5,-303.7 649.5,-278.7 620.5,-278.7"/>
<text text-anchor="start" x="637.6072" y="-286.3" font-family="Helvetica,sans-Serif" font-size="16.00" fill="#000000"> &#160;</text>
</a>
</g>
</g>
<!-- project_tags&#45;&gt;tags -->
<g id="edge4" class="edge">
<title>project_tags:w&#45;&gt;tags:e</title>
<path fill="none" stroke="#000000" d="M481.0121,-339.7C458.3676,-339.7 447.8681,-339.7 419.5,-339.7"/>
<polygon fill="#000000" stroke="#000000" points="487.5,-339.7001 495.5,-343.3 491.5,-339.7 495.5,-339.7 495.5,-339.7 495.5,-339.7 491.5,-339.7 495.5,-336.1 487.5,-339.7001 487.5,-339.7001"/>
<ellipse fill="none" stroke="#000000" cx="484.3" cy="-339.7001" rx="3.2" ry="3.2"/>
</g>
<!-- projects -->
<g id="node5" class="node">
<title>projects</title>
<g id="a_node5"><a xlink:href="../../tables/projects.html" xlink:title="projects" target="_top">
<polygon fill="#ffffff" stroke="transparent" points="8,-210.2 8,-289.2 127,-289.2 127,-210.2 8,-210.2"/>
<polygon fill="#f5f5f5" stroke="transparent" points="8.5,-259.7 8.5,-288.7 127.5,-288.7 127.5,-259.7 8.5,-259.7"/>
<polygon fill="none" stroke="#000000" points="8.5,-259.7 8.5,-288.7 127.5,-288.7 127.5,-259.7 8.5,-259.7"/>
<text text-anchor="start" x="13.5" y="-266.8" font-family="Helvetica,sans-Serif" font-weight="bold" font-size="16.00" fill="#000000">projects</text>
<text text-anchor="start" x="79.2136" y="-269.3" font-family="Helvetica,sans-Serif" font-size="16.00" fill="#000000">[table]</text>
<polygon fill="none" stroke="#000000" points="8.5,-234.7 8.5,-259.7 127.5,-259.7 127.5,-234.7 8.5,-234.7"/>
<text text-anchor="start" x="11.5" y="-242.3" font-family="Helvetica,sans-Serif" font-size="16.00" fill="#000000">...</text>
<polygon fill="#ffffff" stroke="transparent" points="8.5,-209.7 8.5,-234.7 36.5,-234.7 36.5,-209.7 8.5,-209.7"/>
<polygon fill="none" stroke="#000000" points="8.5,-209.7 8.5,-234.7 36.5,-234.7 36.5,-209.7 8.5,-209.7"/>
<text text-anchor="start" x="11.1584" y="-217.3" font-family="Helvetica,sans-Serif" font-size="16.00" fill="#000000">&lt; 1</text>
<polygon fill="#ffffff" stroke="transparent" points="36.5,-209.7 36.5,-234.7 98.5,-234.7 98.5,-209.7 36.5,-209.7"/>
<polygon fill="none" stroke="#000000" points="36.5,-209.7 36.5,-234.7 98.5,-234.7 98.5,-209.7 36.5,-209.7"/>
<text text-anchor="start" x="39.4968" y="-217.3" font-family="Helvetica,sans-Serif" font-size="16.00" fill="#000000">13 rows</text>
<polygon fill="#ffffff" stroke="transparent" points="98.5,-209.7 98.5,-234.7 127.5,-234.7 127.5,-209.7 98.5,-209.7"/>
<polygon fill="none" stroke="#000000" points="98.5,-209.7 98.5,-234.7 127.5,-234.7 127.5,-209.7 98.5,-209.7"/>
<text text-anchor="start" x="101.8168" y="-217.3" font-family="Helvetica,sans-Serif" font-size="16.00" fill="#000000">3 &gt;</text>
</a>
</g>
</g>
<!-- project_tags&#45;&gt;projects -->
<g id="edge3" class="edge">
<title>project_tags:w&#45;&gt;projects:e</title>
<path fill="none" stroke="#000000" d="M481.0305,-363.6757C461.2147,-369.6784 455.4819,-387.6599 429,-393.7 315.9045,-419.4954 260.277,-463.9919 168,-393.7 114.0915,-352.6352 195.2676,-246.7 127.5,-246.7"/>
<polygon fill="#000000" stroke="#000000" points="487.5735,-362.7823 495.9871,-365.2669 491.5368,-362.2412 495.5,-361.7 495.5,-361.7 495.5,-361.7 491.5368,-362.2412 495.0129,-358.1331 487.5735,-362.7823 487.5735,-362.7823"/>
<ellipse fill="none" stroke="#000000" cx="484.403" cy="-363.2153" rx="3.2" ry="3.2"/>
</g>
<!-- timer_tags -->
<g id="node6" class="node">
<title>timer_tags</title>
<g id="a_node6"><a xlink:href="../../tables/timer_tags.html" xlink:title="timer_tags" target="_top">
<polygon fill="#ffffff" stroke="transparent" points="503.5,-70.2 503.5,-193.2 641.5,-193.2 641.5,-70.2 503.5,-70.2"/>
<polygon fill="#f5f5f5" stroke="transparent" points="503.5,-163.7 503.5,-192.7 641.5,-192.7 641.5,-163.7 503.5,-163.7"/>
<polygon fill="none" stroke="#000000" points="503.5,-163.7 503.5,-192.7 641.5,-192.7 641.5,-163.7 503.5,-163.7"/>
<text text-anchor="start" x="508.5" y="-170.8" font-family="Helvetica,sans-Serif" font-weight="bold" font-size="16.00" fill="#000000">timer_tags</text>
<text text-anchor="start" x="593.2136" y="-173.3" font-family="Helvetica,sans-Serif" font-size="16.00" fill="#000000">[table]</text>
<polygon fill="#ffffff" stroke="transparent" points="503.5,-141.7 503.5,-163.7 641.5,-163.7 641.5,-141.7 503.5,-141.7"/>
<polygon fill="none" stroke="#000000" points="503.5,-141.7 503.5,-163.7 641.5,-163.7 641.5,-141.7 503.5,-141.7"/>
<image xlink:href="../../images/foreignKeys.png" width="11px" height="12px" preserveAspectRatio="xMinYMin meet" x="508.5" y="-158.7"/>
<text text-anchor="start" x="537.5" y="-144.3" font-family="Helvetica,sans-Serif" font-size="16.00" fill="#000000">timer_id</text>
<polygon fill="#ffffff" stroke="transparent" points="503.5,-119.7 503.5,-141.7 641.5,-141.7 641.5,-119.7 503.5,-119.7"/>
<polygon fill="none" stroke="#000000" points="503.5,-119.7 503.5,-141.7 641.5,-141.7 641.5,-119.7 503.5,-119.7"/>
<image xlink:href="../../images/foreignKeys.png" width="11px" height="12px" preserveAspectRatio="xMinYMin meet" x="508.5" y="-136.7"/>
<text text-anchor="start" x="537.5" y="-122.3" font-family="Helvetica,sans-Serif" font-size="16.00" fill="#000000">tag_id</text>
<polygon fill="none" stroke="#000000" points="503.5,-94.7 503.5,-119.7 641.5,-119.7 641.5,-94.7 503.5,-94.7"/>
<text text-anchor="start" x="506.5" y="-102.3" font-family="Helvetica,sans-Serif" font-size="16.00" fill="#000000">...</text>
<polygon fill="#ffffff" stroke="transparent" points="503.5,-69.7 503.5,-94.7 544.5,-94.7 544.5,-69.7 503.5,-69.7"/>
<polygon fill="none" stroke="#000000" points="503.5,-69.7 503.5,-94.7 544.5,-94.7 544.5,-69.7 503.5,-69.7"/>
<text text-anchor="start" x="506.5" y="-77.3" font-family="Helvetica,sans-Serif" font-size="16.00" fill="#000000">&lt; 2</text>
<polygon fill="#ffffff" stroke="transparent" points="544.5,-69.7 544.5,-94.7 620.5,-94.7 620.5,-69.7 544.5,-69.7"/>
<polygon fill="none" stroke="#000000" points="544.5,-69.7 544.5,-94.7 620.5,-94.7 620.5,-69.7 544.5,-69.7"/>
<text text-anchor="start" x="552.5992" y="-77.3" font-family="Helvetica,sans-Serif" font-size="16.00" fill="#000000">629 rows</text>
<polygon fill="#ffffff" stroke="transparent" points="620.5,-69.7 620.5,-94.7 641.5,-94.7 641.5,-69.7 620.5,-69.7"/>
<polygon fill="none" stroke="#000000" points="620.5,-69.7 620.5,-94.7 641.5,-94.7 641.5,-69.7 620.5,-69.7"/>
<text text-anchor="start" x="629.6072" y="-77.3" font-family="Helvetica,sans-Serif" font-size="16.00" fill="#000000"> &#160;</text>
</a>
</g>
</g>
<!-- timer_tags&#45;&gt;tags -->
<g id="edge5" class="edge">
<title>timer_tags:w&#45;&gt;tags:e</title>
<path fill="none" stroke="#000000" d="M490.1576,-136.7296C456.0347,-170.9973 464.4715,-339.7 419.5,-339.7"/>
<polygon fill="#000000" stroke="#000000" points="496.2098,-133.9945 504.9825,-133.9806 499.8549,-132.3473 503.5,-130.7 503.5,-130.7 503.5,-130.7 499.8549,-132.3473 502.0175,-127.4194 496.2098,-133.9945 496.2098,-133.9945"/>
<ellipse fill="none" stroke="#000000" cx="493.2938" cy="-135.3123" rx="3.2" ry="3.2"/>
</g>
<!-- timers -->
<g id="node7" class="node">
<title>timers</title>
<g id="a_node7"><a xlink:href="../../tables/timers.html" xlink:title="timers" target="_top">
<polygon fill="#ffffff" stroke="transparent" points="235.5,-50.2 235.5,-129.2 361.5,-129.2 361.5,-50.2 235.5,-50.2"/>
<polygon fill="#f5f5f5" stroke="transparent" points="235.5,-99.7 235.5,-128.7 361.5,-128.7 361.5,-99.7 235.5,-99.7"/>
<polygon fill="none" stroke="#000000" points="235.5,-99.7 235.5,-128.7 361.5,-128.7 361.5,-99.7 235.5,-99.7"/>
<text text-anchor="start" x="240.5" y="-106.8" font-family="Helvetica,sans-Serif" font-weight="bold" font-size="16.00" fill="#000000">timers</text>
<text text-anchor="start" x="312.9272" y="-109.3" font-family="Helvetica,sans-Serif" font-size="16.00" fill="#000000">[table]</text>
<polygon fill="none" stroke="#000000" points="235.5,-74.7 235.5,-99.7 361.5,-99.7 361.5,-74.7 235.5,-74.7"/>
<text text-anchor="start" x="238.5" y="-82.3" font-family="Helvetica,sans-Serif" font-size="16.00" fill="#000000">...</text>
<polygon fill="#ffffff" stroke="transparent" points="235.5,-49.7 235.5,-74.7 263.5,-74.7 263.5,-49.7 235.5,-49.7"/>
<polygon fill="none" stroke="#000000" points="235.5,-49.7 235.5,-74.7 263.5,-74.7 263.5,-49.7 235.5,-49.7"/>
<text text-anchor="start" x="238.1584" y="-57.3" font-family="Helvetica,sans-Serif" font-size="16.00" fill="#000000">&lt; 3</text>
<polygon fill="#ffffff" stroke="transparent" points="263.5,-49.7 263.5,-74.7 333.5,-74.7 333.5,-49.7 263.5,-49.7"/>
<polygon fill="none" stroke="#000000" points="263.5,-49.7 263.5,-74.7 333.5,-74.7 333.5,-49.7 263.5,-49.7"/>
<text text-anchor="start" x="266.0496" y="-57.3" font-family="Helvetica,sans-Serif" font-size="16.00" fill="#000000">277 rows</text>
<polygon fill="#ffffff" stroke="transparent" points="333.5,-49.7 333.5,-74.7 361.5,-74.7 361.5,-49.7 333.5,-49.7"/>
<polygon fill="none" stroke="#000000" points="333.5,-49.7 333.5,-74.7 361.5,-74.7 361.5,-49.7 333.5,-49.7"/>
<text text-anchor="start" x="336.1584" y="-57.3" font-family="Helvetica,sans-Serif" font-size="16.00" fill="#000000">2 &gt;</text>
</a>
</g>
</g>
<!-- timer_tags&#45;&gt;timers -->
<g id="edge6" class="edge">
<title>timer_tags:w&#45;&gt;timers:e</title>
<path fill="none" stroke="#000000" d="M489.0533,-151.6633C433.12,-143.2667 425.9297,-86.7 361.5,-86.7"/>
<polygon fill="#000000" stroke="#000000" points="495.5205,-152.1273 503.2423,-156.2908 499.5103,-152.4137 503.5,-152.7 503.5,-152.7 503.5,-152.7 499.5103,-152.4137 503.7577,-149.1092 495.5205,-152.1273 495.5205,-152.1273"/>
<ellipse fill="none" stroke="#000000" cx="492.3287" cy="-151.8983" rx="3.2" ry="3.2"/>
</g>
<!-- timers&#45;&gt;projects -->
<g id="edge7" class="edge">
<title>timers:w&#45;&gt;projects:e</title>
<path fill="none" stroke="#000000" d="M221.1381,-87.9822C195.1385,-93.1279 187.404,-113.2815 168,-139.7 137.8996,-180.6817 178.3481,-246.7 127.5,-246.7"/>
<polygon fill="#000000" stroke="#000000" points="227.5317,-87.4114 235.8202,-90.2857 231.5158,-87.0557 235.5,-86.7 235.5,-86.7 235.5,-86.7 231.5158,-87.0557 235.1798,-83.1143 227.5317,-87.4114 227.5317,-87.4114"/>
<ellipse fill="none" stroke="#000000" cx="224.3444" cy="-87.696" rx="3.2" ry="3.2"/>
</g>
</g>
</svg>
