<?xml version="1.0" encoding="UTF-8" standalone="no"?>
<!DOCTYPE svg PUBLIC "-//W3C//DTD SVG 1.1//EN"
 "http://www.w3.org/Graphics/SVG/1.1/DTD/svg11.dtd">
<!-- Generated by graphviz version 2.40.1 (20161225.0304)
 -->
<!-- Title: twoDegreesRelationshipsDiagram Pages: 1 -->
<svg width="1196pt" height="762pt"
 viewBox="0.00 0.00 1196.00 761.62" xmlns="http://www.w3.org/2000/svg" xmlns:xlink="http://www.w3.org/1999/xlink">
<g id="graph0" class="graph" transform="scale(1 1) rotate(0) translate(4 757.6161)">
<title>twoDegreesRelationshipsDiagram</title>
<polygon fill="#ffffff" stroke="transparent" points="-4,4 -4,-757.6161 1192,-757.6161 1192,4 -4,4"/>
<text text-anchor="middle" x="101.8088" y="-8.8" font-family="Helvetica,sans-Serif" font-size="16.00" fill="#000000">Generated by SchemaSpy</text>
<!-- business_partner_notes -->
<g id="node1" class="node">
<title>business_partner_notes</title>
<g id="a_node1"><a xlink:href="../../tables/business_partner_notes.html" xlink:title="business_partner_notes" target="_top">
<polygon fill="#ffffff" stroke="transparent" points="261,-460.6161 261,-539.6161 510,-539.6161 510,-460.6161 261,-460.6161"/>
<polygon fill="#f5f5f5" stroke="transparent" points="261.5,-510.1161 261.5,-539.1161 510.5,-539.1161 510.5,-510.1161 261.5,-510.1161"/>
<polygon fill="none" stroke="#000000" points="261.5,-510.1161 261.5,-539.1161 510.5,-539.1161 510.5,-510.1161 261.5,-510.1161"/>
<text text-anchor="start" x="266.5" y="-517.2161" font-family="Helvetica,sans-Serif" font-weight="bold" font-size="16.00" fill="#000000">business_partner_notes</text>
<text text-anchor="start" x="462.2136" y="-519.7161" font-family="Helvetica,sans-Serif" font-size="16.00" fill="#000000">[table]</text>
<polygon fill="none" stroke="#000000" points="261.5,-485.1161 261.5,-510.1161 510.5,-510.1161 510.5,-485.1161 261.5,-485.1161"/>
<text text-anchor="start" x="264.5" y="-492.7161" font-family="Helvetica,sans-Serif" font-size="16.00" fill="#000000">...</text>
<polygon fill="#ffffff" stroke="transparent" points="261.5,-460.1161 261.5,-485.1161 366.5,-485.1161 366.5,-460.1161 261.5,-460.1161"/>
<polygon fill="none" stroke="#000000" points="261.5,-460.1161 261.5,-485.1161 366.5,-485.1161 366.5,-460.1161 261.5,-460.1161"/>
<text text-anchor="start" x="264.5" y="-467.7161" font-family="Helvetica,sans-Serif" font-size="16.00" fill="#000000">&lt; 1</text>
<polygon fill="#ffffff" stroke="transparent" points="366.5,-460.1161 366.5,-485.1161 457.5,-485.1161 457.5,-460.1161 366.5,-460.1161"/>
<polygon fill="none" stroke="#000000" points="366.5,-460.1161 366.5,-485.1161 457.5,-485.1161 457.5,-460.1161 366.5,-460.1161"/>
<text text-anchor="start" x="407.388" y="-467.7161" font-family="Helvetica,sans-Serif" font-size="16.00" fill="#000000">0 rows</text>
<polygon fill="#ffffff" stroke="transparent" points="457.5,-460.1161 457.5,-485.1161 510.5,-485.1161 510.5,-460.1161 457.5,-460.1161"/>
<polygon fill="none" stroke="#000000" points="457.5,-460.1161 457.5,-485.1161 510.5,-485.1161 510.5,-460.1161 457.5,-460.1161"/>
<text text-anchor="start" x="498.6072" y="-467.7161" font-family="Helvetica,sans-Serif" font-size="16.00" fill="#000000"> &#160;</text>
</a>
</g>
</g>
<!-- business_partners -->
<g id="node2" class="node">
<title>business_partners</title>
<g id="a_node2"><a xlink:href="../../tables/business_partners.html" xlink:title="business_partners" target="_top">
<polygon fill="#ffffff" stroke="transparent" points="8,-457.6161 8,-536.6161 212,-536.6161 212,-457.6161 8,-457.6161"/>
<polygon fill="#f5f5f5" stroke="transparent" points="8,-507.1161 8,-536.1161 212,-536.1161 212,-507.1161 8,-507.1161"/>
<polygon fill="none" stroke="#000000" points="8,-507.1161 8,-536.1161 212,-536.1161 212,-507.1161 8,-507.1161"/>
<text text-anchor="start" x="13" y="-514.2161" font-family="Helvetica,sans-Serif" font-weight="bold" font-size="16.00" fill="#000000">business_partners</text>
<text text-anchor="start" x="163.7136" y="-516.7161" font-family="Helvetica,sans-Serif" font-size="16.00" fill="#000000">[table]</text>
<polygon fill="none" stroke="#000000" points="8,-482.1161 8,-507.1161 212,-507.1161 212,-482.1161 8,-482.1161"/>
<text text-anchor="start" x="11" y="-489.7161" font-family="Helvetica,sans-Serif" font-size="16.00" fill="#000000">...</text>
<polygon fill="#ffffff" stroke="transparent" points="8,-457.1161 8,-482.1161 76,-482.1161 76,-457.1161 8,-457.1161"/>
<polygon fill="none" stroke="#000000" points="8,-457.1161 8,-482.1161 76,-482.1161 76,-457.1161 8,-457.1161"/>
<text text-anchor="start" x="11" y="-464.7161" font-family="Helvetica,sans-Serif" font-size="16.00" fill="#000000"> &#160;</text>
<polygon fill="#ffffff" stroke="transparent" points="76,-457.1161 76,-482.1161 156,-482.1161 156,-457.1161 76,-457.1161"/>
<polygon fill="none" stroke="#000000" points="76,-457.1161 76,-482.1161 156,-482.1161 156,-457.1161 76,-457.1161"/>
<text text-anchor="start" x="105.888" y="-464.7161" font-family="Helvetica,sans-Serif" font-size="16.00" fill="#000000">0 rows</text>
<polygon fill="#ffffff" stroke="transparent" points="156,-457.1161 156,-482.1161 212,-482.1161 212,-457.1161 156,-457.1161"/>
<polygon fill="none" stroke="#000000" points="156,-457.1161 156,-482.1161 212,-482.1161 212,-457.1161 156,-457.1161"/>
<text text-anchor="start" x="186.3168" y="-464.7161" font-family="Helvetica,sans-Serif" font-size="16.00" fill="#000000">3 &gt;</text>
</a>
</g>
</g>
<!-- business_partner_notes&#45;&gt;business_partners -->
<g id="edge1" class="edge">
<title>business_partner_notes:w&#45;&gt;business_partners:e</title>
<path fill="none" stroke="#000000" d="M246.8162,-497.1161C237.9812,-497.1161 228.9899,-497.1161 220.0521,-497.1161"/>
<polygon fill="#000000" stroke="#000000" points="253.5,-497.1161 261.5,-500.7161 257.5,-497.1161 261.5,-497.1161 261.5,-497.1161 261.5,-497.1161 257.5,-497.1161 261.5,-493.5161 253.5,-497.1161 253.5,-497.1161"/>
<ellipse fill="none" stroke="#000000" cx="250.3" cy="-497.1161" rx="3.2" ry="3.2"/>
</g>
<!-- project_notes -->
<g id="node3" class="node">
<title>project_notes</title>
<g id="a_node3"><a xlink:href="../../tables/project_notes.html" xlink:title="project_notes" target="_top">
<polygon fill="#ffffff" stroke="transparent" points="686,-197.6161 686,-276.6161 850,-276.6161 850,-197.6161 686,-197.6161"/>
<polygon fill="#f5f5f5" stroke="transparent" points="686,-247.1161 686,-276.1161 850,-276.1161 850,-247.1161 686,-247.1161"/>
<polygon fill="none" stroke="#000000" points="686,-247.1161 686,-276.1161 850,-276.1161 850,-247.1161 686,-247.1161"/>
<text text-anchor="start" x="691" y="-254.2161" font-family="Helvetica,sans-Serif" font-weight="bold" font-size="16.00" fill="#000000">project_notes</text>
<text text-anchor="start" x="801.7136" y="-256.7161" font-family="Helvetica,sans-Serif" font-size="16.00" fill="#000000">[table]</text>
<polygon fill="none" stroke="#000000" points="686,-222.1161 686,-247.1161 850,-247.1161 850,-222.1161 686,-222.1161"/>
<text text-anchor="start" x="689" y="-229.7161" font-family="Helvetica,sans-Serif" font-size="16.00" fill="#000000">...</text>
<polygon fill="#ffffff" stroke="transparent" points="686,-197.1161 686,-222.1161 748,-222.1161 748,-197.1161 686,-197.1161"/>
<polygon fill="none" stroke="#000000" points="686,-197.1161 686,-222.1161 748,-222.1161 748,-197.1161 686,-197.1161"/>
<text text-anchor="start" x="689" y="-204.7161" font-family="Helvetica,sans-Serif" font-size="16.00" fill="#000000">&lt; 1</text>
<polygon fill="#ffffff" stroke="transparent" points="748,-197.1161 748,-222.1161 818,-222.1161 818,-197.1161 748,-197.1161"/>
<polygon fill="none" stroke="#000000" points="748,-197.1161 748,-222.1161 818,-222.1161 818,-197.1161 748,-197.1161"/>
<text text-anchor="start" x="767.888" y="-204.7161" font-family="Helvetica,sans-Serif" font-size="16.00" fill="#000000">0 rows</text>
<polygon fill="#ffffff" stroke="transparent" points="818,-197.1161 818,-222.1161 850,-222.1161 850,-197.1161 818,-197.1161"/>
<polygon fill="none" stroke="#000000" points="818,-197.1161 818,-222.1161 850,-222.1161 850,-197.1161 818,-197.1161"/>
<text text-anchor="start" x="838.1072" y="-204.7161" font-family="Helvetica,sans-Serif" font-size="16.00" fill="#000000"> &#160;</text>
</a>
</g>
</g>
<!-- projects -->
<g id="node4" class="node">
<title>projects</title>
<g id="a_node4"><a xlink:href="../../tables/projects.html" xlink:title="projects" target="_top">
<polygon fill="#ffffff" stroke="transparent" points="326,-194.6161 326,-273.6161 445,-273.6161 445,-194.6161 326,-194.6161"/>
<polygon fill="#f5f5f5" stroke="transparent" points="326.5,-244.1161 326.5,-273.1161 445.5,-273.1161 445.5,-244.1161 326.5,-244.1161"/>
<polygon fill="none" stroke="#000000" points="326.5,-244.1161 326.5,-273.1161 445.5,-273.1161 445.5,-244.1161 326.5,-244.1161"/>
<text text-anchor="start" x="331.5" y="-251.2161" font-family="Helvetica,sans-Serif" font-weight="bold" font-size="16.00" fill="#000000">projects</text>
<text text-anchor="start" x="397.2136" y="-253.7161" font-family="Helvetica,sans-Serif" font-size="16.00" fill="#000000">[table]</text>
<polygon fill="none" stroke="#000000" points="326.5,-219.1161 326.5,-244.1161 445.5,-244.1161 445.5,-219.1161 326.5,-219.1161"/>
<text text-anchor="start" x="329.5" y="-226.7161" font-family="Helvetica,sans-Serif" font-size="16.00" fill="#000000">...</text>
<polygon fill="#ffffff" stroke="transparent" points="326.5,-194.1161 326.5,-219.1161 359.5,-219.1161 359.5,-194.1161 326.5,-194.1161"/>
<polygon fill="none" stroke="#000000" points="326.5,-194.1161 326.5,-219.1161 359.5,-219.1161 359.5,-194.1161 326.5,-194.1161"/>
<text text-anchor="start" x="329.5" y="-201.7161" font-family="Helvetica,sans-Serif" font-size="16.00" fill="#000000">&lt; 1</text>
<polygon fill="#ffffff" stroke="transparent" points="359.5,-194.1161 359.5,-219.1161 414.5,-219.1161 414.5,-194.1161 359.5,-194.1161"/>
<polygon fill="none" stroke="#000000" points="359.5,-194.1161 359.5,-219.1161 414.5,-219.1161 414.5,-194.1161 359.5,-194.1161"/>
<text text-anchor="start" x="364.388" y="-201.7161" font-family="Helvetica,sans-Serif" font-size="16.00" fill="#000000">0 rows</text>
<polygon fill="#ffffff" stroke="transparent" points="414.5,-194.1161 414.5,-219.1161 445.5,-219.1161 445.5,-194.1161 414.5,-194.1161"/>
<polygon fill="none" stroke="#000000" points="414.5,-194.1161 414.5,-219.1161 445.5,-219.1161 445.5,-194.1161 414.5,-194.1161"/>
<text text-anchor="start" x="419.8168" y="-201.7161" font-family="Helvetica,sans-Serif" font-size="16.00" fill="#000000">3 &gt;</text>
</a>
</g>
</g>
<!-- project_notes&#45;&gt;projects -->
<g id="edge2" class="edge">
<title>project_notes:w&#45;&gt;projects:e</title>
<path fill="none" stroke="#000000" d="M671.3556,-234.1161C595.0325,-234.1161 510.4457,-234.1161 453.2288,-234.1161"/>
<polygon fill="#000000" stroke="#000000" points="678,-234.1161 686,-237.7161 682,-234.1161 686,-234.1161 686,-234.1161 686,-234.1161 682,-234.1161 686,-230.5161 678,-234.1161 678,-234.1161"/>
<ellipse fill="none" stroke="#000000" cx="674.8" cy="-234.1161" rx="3.2" ry="3.2"/>
</g>
<!-- projects&#45;&gt;business_partners -->
<g id="edge5" class="edge">
<title>projects:w&#45;&gt;business_partners:e</title>
<path fill="none" stroke="#000000" d="M304.2696,-255.7167C286.2448,-262.8869 268.0477,-272.1897 253,-284.1161 195.2305,-329.9024 152.3895,-405.5101 129.3191,-453.245"/>
<polygon fill="#000000" stroke="#000000" points="310.4632,-253.4213 319.2157,-254.0168 314.2139,-252.0313 317.9646,-250.6412 317.9646,-250.6412 317.9646,-250.6412 314.2139,-252.0313 316.7136,-247.2656 310.4632,-253.4213 310.4632,-253.4213"/>
<ellipse fill="none" stroke="#000000" cx="307.4626" cy="-254.5334" rx="3.2" ry="3.2"/>
</g>
<!-- project_tags -->
<g id="node5" class="node">
<title>project_tags</title>
<g id="a_node5"><a xlink:href="../../tables/project_tags.html" xlink:title="project_tags" target="_top">
<polygon fill="#ffffff" stroke="transparent" points="1026,-67.6161 1026,-146.6161 1180,-146.6161 1180,-67.6161 1026,-67.6161"/>
<polygon fill="#f5f5f5" stroke="transparent" points="1026,-117.1161 1026,-146.1161 1180,-146.1161 1180,-117.1161 1026,-117.1161"/>
<polygon fill="none" stroke="#000000" points="1026,-117.1161 1026,-146.1161 1180,-146.1161 1180,-117.1161 1026,-117.1161"/>
<text text-anchor="start" x="1031" y="-124.2161" font-family="Helvetica,sans-Serif" font-weight="bold" font-size="16.00" fill="#000000">project_tags</text>
<text text-anchor="start" x="1131.7136" y="-126.7161" font-family="Helvetica,sans-Serif" font-size="16.00" fill="#000000">[table]</text>
<polygon fill="none" stroke="#000000" points="1026,-92.1161 1026,-117.1161 1180,-117.1161 1180,-92.1161 1026,-92.1161"/>
<text text-anchor="start" x="1029" y="-99.7161" font-family="Helvetica,sans-Serif" font-size="16.00" fill="#000000">...</text>
<polygon fill="#ffffff" stroke="transparent" points="1026,-67.1161 1026,-92.1161 1083,-92.1161 1083,-67.1161 1026,-67.1161"/>
<polygon fill="none" stroke="#000000" points="1026,-67.1161 1026,-92.1161 1083,-92.1161 1083,-67.1161 1026,-67.1161"/>
<text text-anchor="start" x="1029" y="-74.7161" font-family="Helvetica,sans-Serif" font-size="16.00" fill="#000000">&lt; 2</text>
<polygon fill="#ffffff" stroke="transparent" points="1083,-67.1161 1083,-92.1161 1151,-92.1161 1151,-67.1161 1083,-67.1161"/>
<polygon fill="none" stroke="#000000" points="1083,-67.1161 1083,-92.1161 1151,-92.1161 1151,-67.1161 1083,-67.1161"/>
<text text-anchor="start" x="1100.888" y="-74.7161" font-family="Helvetica,sans-Serif" font-size="16.00" fill="#000000">0 rows</text>
<polygon fill="#ffffff" stroke="transparent" points="1151,-67.1161 1151,-92.1161 1180,-92.1161 1180,-67.1161 1151,-67.1161"/>
<polygon fill="none" stroke="#000000" points="1151,-67.1161 1151,-92.1161 1180,-92.1161 1180,-67.1161 1151,-67.1161"/>
<text text-anchor="start" x="1168.1072" y="-74.7161" font-family="Helvetica,sans-Serif" font-size="16.00" fill="#000000"> &#160;</text>
</a>
</g>
</g>
<!-- project_tags&#45;&gt;projects -->
<g id="edge3" class="edge">
<title>project_tags:w&#45;&gt;projects:e</title>
<path fill="none" stroke="#000000" d="M1011.6464,-100.949C1003.3681,-96.8063 998.3009,-89.7643 985,-87.1161 795.8242,-49.4514 731.3103,-18.6009 551,-87.1161 496.9343,-107.6602 449.2387,-154.8544 419.1093,-190.2636"/>
<polygon fill="#000000" stroke="#000000" points="1018.1879,-102.3923 1025.2243,-107.6315 1022.0939,-103.2542 1026,-104.1161 1026,-104.1161 1026,-104.1161 1022.0939,-103.2542 1026.7757,-100.6006 1018.1879,-102.3923 1018.1879,-102.3923"/>
<ellipse fill="none" stroke="#000000" cx="1015.0631" cy="-101.7028" rx="3.2" ry="3.2"/>
</g>
<!-- tags -->
<g id="node6" class="node">
<title>tags</title>
<g id="a_node6"><a xlink:href="../../tables/tags.html" xlink:title="tags" target="_top">
<polygon fill="#ffffff" stroke="transparent" points="720.5,-97.6161 720.5,-176.6161 815.5,-176.6161 815.5,-97.6161 720.5,-97.6161"/>
<polygon fill="#f5f5f5" stroke="transparent" points="721,-147.1161 721,-176.1161 816,-176.1161 816,-147.1161 721,-147.1161"/>
<polygon fill="none" stroke="#000000" points="721,-147.1161 721,-176.1161 816,-176.1161 816,-147.1161 721,-147.1161"/>
<text text-anchor="start" x="725.8824" y="-154.2161" font-family="Helvetica,sans-Serif" font-weight="bold" font-size="16.00" fill="#000000">tags</text>
<text text-anchor="start" x="767.4272" y="-156.7161" font-family="Helvetica,sans-Serif" font-size="16.00" fill="#000000">[table]</text>
<polygon fill="none" stroke="#000000" points="721,-122.1161 721,-147.1161 816,-147.1161 816,-122.1161 721,-122.1161"/>
<text text-anchor="start" x="724" y="-129.7161" font-family="Helvetica,sans-Serif" font-size="16.00" fill="#000000">...</text>
<polygon fill="#ffffff" stroke="transparent" points="721,-97.1161 721,-122.1161 735,-122.1161 735,-97.1161 721,-97.1161"/>
<polygon fill="none" stroke="#000000" points="721,-97.1161 721,-122.1161 735,-122.1161 735,-97.1161 721,-97.1161"/>
<text text-anchor="start" x="723.5536" y="-104.7161" font-family="Helvetica,sans-Serif" font-size="16.00" fill="#000000"> &#160;</text>
<polygon fill="#ffffff" stroke="transparent" points="735,-97.1161 735,-122.1161 788,-122.1161 788,-97.1161 735,-97.1161"/>
<polygon fill="none" stroke="#000000" points="735,-97.1161 735,-122.1161 788,-122.1161 788,-97.1161 735,-97.1161"/>
<text text-anchor="start" x="737.944" y="-104.7161" font-family="Helvetica,sans-Serif" font-size="16.00" fill="#000000">0 rows</text>
<polygon fill="#ffffff" stroke="transparent" points="788,-97.1161 788,-122.1161 816,-122.1161 816,-97.1161 788,-97.1161"/>
<polygon fill="none" stroke="#000000" points="788,-97.1161 788,-122.1161 816,-122.1161 816,-97.1161 788,-97.1161"/>
<text text-anchor="start" x="790.6584" y="-104.7161" font-family="Helvetica,sans-Serif" font-size="16.00" fill="#000000">2 &gt;</text>
</a>
</g>
</g>
<!-- project_tags&#45;&gt;tags -->
<g id="edge4" class="edge">
<title>project_tags:w&#45;&gt;tags:e</title>
<path fill="none" stroke="#000000" d="M1011.4161,-104.3664C929.206,-107.2522 905.217,-134.1161 816,-134.1161"/>
<polygon fill="#000000" stroke="#000000" points="1018.0012,-104.2534 1026.0618,-107.7155 1022.0006,-104.1847 1026,-104.1161 1026,-104.1161 1026,-104.1161 1022.0006,-104.1847 1025.9382,-100.5166 1018.0012,-104.2534 1018.0012,-104.2534"/>
<ellipse fill="none" stroke="#000000" cx="1014.8016" cy="-104.3084" rx="3.2" ry="3.2"/>
</g>
<!-- timer_notes -->
<g id="node7" class="node">
<title>timer_notes</title>
<g id="a_node7"><a xlink:href="../../tables/timer_notes.html" xlink:title="timer_notes" target="_top">
<polygon fill="#ffffff" stroke="transparent" points="1028.5,-582.6161 1028.5,-749.6161 1177.5,-749.6161 1177.5,-582.6161 1028.5,-582.6161"/>
<polygon fill="#f5f5f5" stroke="transparent" points="1029,-720.1161 1029,-749.1161 1178,-749.1161 1178,-720.1161 1029,-720.1161"/>
<polygon fill="none" stroke="#000000" points="1029,-720.1161 1029,-749.1161 1178,-749.1161 1178,-720.1161 1029,-720.1161"/>
<text text-anchor="start" x="1034" y="-727.2161" font-family="Helvetica,sans-Serif" font-weight="bold" font-size="16.00" fill="#000000">timer_notes</text>
<text text-anchor="start" x="1129.7136" y="-729.7161" font-family="Helvetica,sans-Serif" font-size="16.00" fill="#000000">[table]</text>
<polygon fill="none" stroke="#000000" points="1029,-698.1161 1029,-720.1161 1178,-720.1161 1178,-698.1161 1029,-698.1161"/>
<image xlink:href="../../images/primaryKeys.png" width="11px" height="12px" preserveAspectRatio="xMinYMin meet" x="1034" y="-715.116"/>
<text text-anchor="start" x="1065" y="-700.7161" font-family="Helvetica,sans-Serif" font-size="16.00" fill="#000000">id</text>
<polygon fill="#ffffff" stroke="transparent" points="1029,-676.1161 1029,-698.1161 1178,-698.1161 1178,-676.1161 1029,-676.1161"/>
<polygon fill="none" stroke="#000000" points="1029,-676.1161 1029,-698.1161 1178,-698.1161 1178,-676.1161 1029,-676.1161"/>
<image xlink:href="../../images/foreignKeys.png" width="11px" height="12px" preserveAspectRatio="xMinYMin meet" x="1034" y="-693.116"/>
<text text-anchor="start" x="1065" y="-678.7161" font-family="Helvetica,sans-Serif" font-size="16.00" fill="#000000">timer_id</text>
<polygon fill="#ffffff" stroke="transparent" points="1029,-654.1161 1029,-676.1161 1178,-676.1161 1178,-654.1161 1029,-654.1161"/>
<polygon fill="none" stroke="#000000" points="1029,-654.1161 1029,-676.1161 1178,-676.1161 1178,-654.1161 1029,-654.1161"/>
<text text-anchor="start" x="1065" y="-656.7161" font-family="Helvetica,sans-Serif" font-size="16.00" fill="#000000">inserted_at</text>
<polygon fill="#ffffff" stroke="transparent" points="1029,-632.1161 1029,-654.1161 1178,-654.1161 1178,-632.1161 1029,-632.1161"/>
<polygon fill="none" stroke="#000000" points="1029,-632.1161 1029,-654.1161 1178,-654.1161 1178,-632.1161 1029,-632.1161"/>
<text text-anchor="start" x="1065" y="-634.7161" font-family="Helvetica,sans-Serif" font-size="16.00" fill="#000000">updated_at</text>
<polygon fill="none" stroke="#000000" points="1029,-607.1161 1029,-632.1161 1178,-632.1161 1178,-607.1161 1029,-607.1161"/>
<text text-anchor="start" x="1032" y="-614.7161" font-family="Helvetica,sans-Serif" font-size="16.00" fill="#000000">...</text>
<polygon fill="#ffffff" stroke="transparent" points="1029,-582.1161 1029,-607.1161 1084,-607.1161 1084,-582.1161 1029,-582.1161"/>
<polygon fill="none" stroke="#000000" points="1029,-582.1161 1029,-607.1161 1084,-607.1161 1084,-582.1161 1029,-582.1161"/>
<text text-anchor="start" x="1032" y="-589.7161" font-family="Helvetica,sans-Serif" font-size="16.00" fill="#000000">&lt; 1</text>
<polygon fill="#ffffff" stroke="transparent" points="1084,-582.1161 1084,-607.1161 1150,-607.1161 1150,-582.1161 1084,-582.1161"/>
<polygon fill="none" stroke="#000000" points="1084,-582.1161 1084,-607.1161 1150,-607.1161 1150,-582.1161 1084,-582.1161"/>
<text text-anchor="start" x="1099.888" y="-589.7161" font-family="Helvetica,sans-Serif" font-size="16.00" fill="#000000">0 rows</text>
<polygon fill="#ffffff" stroke="transparent" points="1150,-582.1161 1150,-607.1161 1178,-607.1161 1178,-582.1161 1150,-582.1161"/>
<polygon fill="none" stroke="#000000" points="1150,-582.1161 1150,-607.1161 1178,-607.1161 1178,-582.1161 1150,-582.1161"/>
<text text-anchor="start" x="1166.1072" y="-589.7161" font-family="Helvetica,sans-Serif" font-size="16.00" fill="#000000"> &#160;</text>
</a>
</g>
</g>
<!-- timers -->
<g id="node8" class="node">
<title>timers</title>
<g id="a_node8"><a xlink:href="../../tables/timers.html" xlink:title="timers" target="_top">
<polygon fill="#ffffff" stroke="transparent" points="559,-297.6161 559,-730.6161 977,-730.6161 977,-297.6161 559,-297.6161"/>
<polygon fill="#f5f5f5" stroke="transparent" points="561,-699.1161 561,-728.1161 975,-728.1161 975,-699.1161 561,-699.1161"/>
<polygon fill="none" stroke="#000000" points="561,-699.1161 561,-728.1161 975,-728.1161 975,-699.1161 561,-699.1161"/>
<text text-anchor="start" x="566" y="-706.2161" font-family="Helvetica,sans-Serif" font-weight="bold" font-size="16.00" fill="#000000">timers</text>
<text text-anchor="start" x="926.4272" y="-708.7161" font-family="Helvetica,sans-Serif" font-size="16.00" fill="#000000">[table]</text>
<polygon fill="none" stroke="#000000" points="561,-674.1161 561,-699.1161 794,-699.1161 794,-674.1161 561,-674.1161"/>
<image xlink:href="../../images/primaryKeys.png" width="11px" height="12px" preserveAspectRatio="xMinYMin meet" x="566" y="-692.616"/>
<text text-anchor="start" x="581" y="-678.2161" font-family="Helvetica,sans-Serif" font-size="16.00" fill="#000000">id</text>
<polygon fill="none" stroke="#000000" points="794,-674.1161 794,-699.1161 975,-699.1161 975,-674.1161 794,-674.1161"/>
<text text-anchor="start" x="797" y="-681.7161" font-family="Helvetica,sans-Serif" font-size="16.00" fill="#000000">text[2000000000]</text>
<polygon fill="#ffffff" stroke="transparent" points="561,-649.1161 561,-674.1161 794,-674.1161 794,-649.1161 561,-649.1161"/>
<polygon fill="none" stroke="#000000" points="561,-649.1161 561,-674.1161 794,-674.1161 794,-649.1161 561,-649.1161"/>
<text text-anchor="start" x="581" y="-653.2161" font-family="Helvetica,sans-Serif" font-size="16.00" fill="#000000">start_stamp</text>
<polygon fill="none" stroke="#000000" points="794,-649.1161 794,-674.1161 975,-674.1161 975,-649.1161 794,-649.1161"/>
<text text-anchor="start" x="797" y="-656.7161" font-family="Helvetica,sans-Serif" font-size="16.00" fill="#000000">text[2000000000]</text>
<polygon fill="#ffffff" stroke="transparent" points="561,-624.1161 561,-649.1161 794,-649.1161 794,-624.1161 561,-624.1161"/>
<polygon fill="none" stroke="#000000" points="561,-624.1161 561,-649.1161 794,-649.1161 794,-624.1161 561,-624.1161"/>
<text text-anchor="start" x="581" y="-628.2161" font-family="Helvetica,sans-Serif" font-size="16.00" fill="#000000">end_stamp</text>
<polygon fill="none" stroke="#000000" points="794,-624.1161 794,-649.1161 975,-649.1161 975,-624.1161 794,-624.1161"/>
<text text-anchor="start" x="797" y="-631.7161" font-family="Helvetica,sans-Serif" font-size="16.00" fill="#000000">text[2000000000]</text>
<polygon fill="none" stroke="#000000" points="561,-599.1161 561,-624.1161 794,-624.1161 794,-599.1161 561,-599.1161"/>
<text text-anchor="start" x="581" y="-603.2161" font-family="Helvetica,sans-Serif" font-size="16.00" fill="#000000">duration</text>
<polygon fill="none" stroke="#000000" points="794,-599.1161 794,-624.1161 975,-624.1161 975,-599.1161 794,-599.1161"/>
<text text-anchor="start" x="797" y="-606.7161" font-family="Helvetica,sans-Serif" font-size="16.00" fill="#000000">integer[2000000000]</text>
<polygon fill="none" stroke="#000000" points="561,-574.1161 561,-599.1161 794,-599.1161 794,-574.1161 561,-574.1161"/>
<text text-anchor="start" x="581" y="-578.2161" font-family="Helvetica,sans-Serif" font-size="16.00" fill="#000000">duration_time_unit</text>
<polygon fill="none" stroke="#000000" points="794,-574.1161 794,-599.1161 975,-599.1161 975,-574.1161 794,-574.1161"/>
<text text-anchor="start" x="797" y="-581.7161" font-family="Helvetica,sans-Serif" font-size="16.00" fill="#000000">text[2000000000]</text>
<polygon fill="#ffffff" stroke="transparent" points="561,-549.1161 561,-574.1161 794,-574.1161 794,-549.1161 561,-549.1161"/>
<polygon fill="none" stroke="#000000" points="561,-549.1161 561,-574.1161 794,-574.1161 794,-549.1161 561,-549.1161"/>
<text text-anchor="start" x="581" y="-553.2161" font-family="Helvetica,sans-Serif" font-size="16.00" fill="#000000">billable</text>
<polygon fill="none" stroke="#000000" points="794,-549.1161 794,-574.1161 975,-574.1161 975,-549.1161 794,-549.1161"/>
<text text-anchor="start" x="797" y="-556.7161" font-family="Helvetica,sans-Serif" font-size="16.00" fill="#000000">integer[2000000000]</text>
<polygon fill="#ffffff" stroke="transparent" points="561,-524.1161 561,-549.1161 794,-549.1161 794,-524.1161 561,-524.1161"/>
<polygon fill="none" stroke="#000000" points="561,-524.1161 561,-549.1161 794,-549.1161 794,-524.1161 561,-524.1161"/>
<image xlink:href="../../images/foreignKeys.png" width="11px" height="12px" preserveAspectRatio="xMinYMin meet" x="566" y="-542.616"/>
<text text-anchor="start" x="581" y="-528.2161" font-family="Helvetica,sans-Serif" font-size="16.00" fill="#000000">business_partner_id</text>
<polygon fill="none" stroke="#000000" points="794,-524.1161 794,-549.1161 975,-549.1161 975,-524.1161 794,-524.1161"/>
<text text-anchor="start" x="797" y="-531.7161" font-family="Helvetica,sans-Serif" font-size="16.00" fill="#000000">text[2000000000]</text>
<polygon fill="none" stroke="#000000" points="561,-499.1161 561,-524.1161 794,-524.1161 794,-499.1161 561,-499.1161"/>
<image xlink:href="../../images/foreignKeys.png" width="11px" height="12px" preserveAspectRatio="xMinYMin meet" x="566" y="-517.616"/>
<text text-anchor="start" x="581" y="-503.2161" font-family="Helvetica,sans-Serif" font-size="16.00" fill="#000000">activity_type_id</text>
<polygon fill="none" stroke="#000000" points="794,-499.1161 794,-524.1161 975,-524.1161 975,-499.1161 794,-499.1161"/>
<text text-anchor="start" x="797" y="-506.7161" font-family="Helvetica,sans-Serif" font-size="16.00" fill="#000000">text[2000000000]</text>
<polygon fill="none" stroke="#000000" points="561,-474.1161 561,-499.1161 794,-499.1161 794,-474.1161 561,-474.1161"/>
<text text-anchor="start" x="581" y="-478.2161" font-family="Helvetica,sans-Serif" font-size="16.00" fill="#000000">billing_rate</text>
<polygon fill="none" stroke="#000000" points="794,-474.1161 794,-499.1161 975,-499.1161 975,-474.1161 794,-474.1161"/>
<text text-anchor="start" x="796.9088" y="-481.7161" font-family="Helvetica,sans-Serif" font-size="16.00" fill="#000000">decimal[2000000000,10]</text>
<polygon fill="none" stroke="#000000" points="561,-449.1161 561,-474.1161 794,-474.1161 794,-449.1161 561,-449.1161"/>
<text text-anchor="start" x="581" y="-453.2161" font-family="Helvetica,sans-Serif" font-size="16.00" fill="#000000">billing_duration</text>
<polygon fill="none" stroke="#000000" points="794,-449.1161 794,-474.1161 975,-474.1161 975,-449.1161 794,-449.1161"/>
<text text-anchor="start" x="797" y="-456.7161" font-family="Helvetica,sans-Serif" font-size="16.00" fill="#000000">integer[2000000000]</text>
<polygon fill="none" stroke="#000000" points="561,-424.1161 561,-449.1161 794,-449.1161 794,-424.1161 561,-424.1161"/>
<text text-anchor="start" x="581" y="-428.2161" font-family="Helvetica,sans-Serif" font-size="16.00" fill="#000000">billing_duration_time_unit</text>
<polygon fill="none" stroke="#000000" points="794,-424.1161 794,-449.1161 975,-449.1161 975,-424.1161 794,-424.1161"/>
<text text-anchor="start" x="797" y="-431.7161" font-family="Helvetica,sans-Serif" font-size="16.00" fill="#000000">text[2000000000]</text>
<polygon fill="none" stroke="#000000" points="561,-399.1161 561,-424.1161 794,-424.1161 794,-399.1161 561,-399.1161"/>
<text text-anchor="start" x="581" y="-403.2161" font-family="Helvetica,sans-Serif" font-size="16.00" fill="#000000">description</text>
<polygon fill="none" stroke="#000000" points="794,-399.1161 794,-424.1161 975,-424.1161 975,-399.1161 794,-399.1161"/>
<text text-anchor="start" x="797" y="-406.7161" font-family="Helvetica,sans-Serif" font-size="16.00" fill="#000000">text[2000000000]</text>
<polygon fill="#ffffff" stroke="transparent" points="561,-374.1161 561,-399.1161 794,-399.1161 794,-374.1161 561,-374.1161"/>
<polygon fill="none" stroke="#000000" points="561,-374.1161 561,-399.1161 794,-399.1161 794,-374.1161 561,-374.1161"/>
<image xlink:href="../../images/foreignKeys.png" width="11px" height="12px" preserveAspectRatio="xMinYMin meet" x="566" y="-392.616"/>
<text text-anchor="start" x="581" y="-378.2161" font-family="Helvetica,sans-Serif" font-size="16.00" fill="#000000">project_id</text>
<polygon fill="none" stroke="#000000" points="794,-374.1161 794,-399.1161 975,-399.1161 975,-374.1161 794,-374.1161"/>
<text text-anchor="start" x="797" y="-381.7161" font-family="Helvetica,sans-Serif" font-size="16.00" fill="#000000">text[2000000000]</text>
<polygon fill="#ffffff" stroke="transparent" points="561,-349.1161 561,-374.1161 794,-374.1161 794,-349.1161 561,-349.1161"/>
<polygon fill="none" stroke="#000000" points="561,-349.1161 561,-374.1161 794,-374.1161 794,-349.1161 561,-349.1161"/>
<text text-anchor="start" x="581" y="-353.2161" font-family="Helvetica,sans-Serif" font-size="16.00" fill="#000000">inserted_at</text>
<polygon fill="none" stroke="#000000" points="794,-349.1161 794,-374.1161 975,-374.1161 975,-349.1161 794,-349.1161"/>
<text text-anchor="start" x="797" y="-356.7161" font-family="Helvetica,sans-Serif" font-size="16.00" fill="#000000">text[2000000000]</text>
<polygon fill="none" stroke="#000000" points="561,-324.1161 561,-349.1161 794,-349.1161 794,-324.1161 561,-324.1161"/>
<text text-anchor="start" x="581" y="-328.2161" font-family="Helvetica,sans-Serif" font-size="16.00" fill="#000000">updated_at</text>
<polygon fill="none" stroke="#000000" points="794,-324.1161 794,-349.1161 975,-349.1161 975,-324.1161 794,-324.1161"/>
<text text-anchor="start" x="797" y="-331.7161" font-family="Helvetica,sans-Serif" font-size="16.00" fill="#000000">text[2000000000]</text>
<polygon fill="#ffffff" stroke="transparent" points="561,-299.1161 561,-324.1161 665,-324.1161 665,-299.1161 561,-299.1161"/>
<polygon fill="none" stroke="#000000" points="561,-299.1161 561,-324.1161 665,-324.1161 665,-299.1161 561,-299.1161"/>
<text text-anchor="start" x="564" y="-306.7161" font-family="Helvetica,sans-Serif" font-size="16.00" fill="#000000">&lt; 3</text>
<polygon fill="#ffffff" stroke="transparent" points="665,-299.1161 665,-324.1161 794,-324.1161 794,-299.1161 665,-299.1161"/>
<polygon fill="none" stroke="#000000" points="665,-299.1161 665,-324.1161 794,-324.1161 794,-299.1161 665,-299.1161"/>
<text text-anchor="start" x="743.888" y="-306.7161" font-family="Helvetica,sans-Serif" font-size="16.00" fill="#000000">0 rows</text>
<polygon fill="#ffffff" stroke="transparent" points="794,-299.1161 794,-324.1161 975,-324.1161 975,-299.1161 794,-299.1161"/>
<polygon fill="none" stroke="#000000" points="794,-299.1161 794,-324.1161 975,-324.1161 975,-299.1161 794,-299.1161"/>
<text text-anchor="start" x="949.3168" y="-306.7161" font-family="Helvetica,sans-Serif" font-size="16.00" fill="#000000">2 &gt;</text>
<polygon fill="none" stroke="#000000" stroke-width="2" points="560,-298.6161 560,-729.6161 976,-729.6161 976,-298.6161 560,-298.6161"/>
</a>
</g>
</g>
<!-- timer_notes&#45;&gt;timers -->
<g id="edge6" class="edge">
<title>timer_notes:w&#45;&gt;timers:e</title>
<path fill="none" stroke="#000000" d="M1014.2185,-687.1161C1001.038,-687.1161 993.1875,-687.1161 975,-687.1161"/>
<polygon fill="#000000" stroke="#000000" points="1021,-687.1161 1029,-690.7161 1025,-687.1161 1029,-687.1161 1029,-687.1161 1029,-687.1161 1025,-687.1161 1029,-683.5161 1021,-687.1161 1021,-687.1161"/>
<ellipse fill="none" stroke="#000000" cx="1017.8" cy="-687.1161" rx="3.2" ry="3.2"/>
</g>
<!-- timers&#45;&gt;business_partners -->
<g id="edge10" class="edge">
<title>timers:w&#45;&gt;business_partners:e</title>
<path fill="none" stroke="#000000" d="M546.7616,-539.3301C537.6335,-542.4699 531.8872,-548.0627 518,-550.1161 401.4889,-567.3432 368.928,-570.9082 253,-550.1161 240.3605,-547.8491 227.3775,-544.5388 214.635,-540.6619"/>
<polygon fill="#000000" stroke="#000000" points="553.095,-538.3453 561.5532,-540.6733 557.0475,-537.7307 561,-537.1161 561,-537.1161 561,-537.1161 557.0475,-537.7307 560.4468,-533.5588 553.095,-538.3453 553.095,-538.3453"/>
<ellipse fill="none" stroke="#000000" cx="549.933" cy="-538.837" rx="3.2" ry="3.2"/>
</g>
<!-- timers&#45;&gt;projects -->
<g id="edge11" class="edge">
<title>timers:w&#45;&gt;projects:e</title>
<path fill="none" stroke="#000000" d="M546.8255,-383.3104C520.7576,-370.171 549.1522,-314.1027 518,-284.1161 500.1977,-266.9798 475.9524,-255.5924 453.0665,-248.0809"/>
<polygon fill="#000000" stroke="#000000" points="553.1523,-384.5626 560.301,-389.6475 557.0761,-385.3393 561,-386.1161 561,-386.1161 561,-386.1161 557.0761,-385.3393 561.699,-382.5846 553.1523,-384.5626 553.1523,-384.5626"/>
<ellipse fill="none" stroke="#000000" cx="550.0132" cy="-383.9413" rx="3.2" ry="3.2"/>
</g>
<!-- activity_types -->
<g id="node10" class="node">
<title>activity_types</title>
<g id="a_node10"><a xlink:href="../../tables/activity_types.html" xlink:title="activity_types" target="_top">
<polygon fill="#ffffff" stroke="transparent" points="303,-294.6161 303,-439.6161 468,-439.6161 468,-294.6161 303,-294.6161"/>
<polygon fill="#f5f5f5" stroke="transparent" points="303.5,-410.1161 303.5,-439.1161 468.5,-439.1161 468.5,-410.1161 303.5,-410.1161"/>
<polygon fill="none" stroke="#000000" points="303.5,-410.1161 303.5,-439.1161 468.5,-439.1161 468.5,-410.1161 303.5,-410.1161"/>
<text text-anchor="start" x="308.5" y="-417.2161" font-family="Helvetica,sans-Serif" font-weight="bold" font-size="16.00" fill="#000000">activity_types</text>
<text text-anchor="start" x="420.2136" y="-419.7161" font-family="Helvetica,sans-Serif" font-size="16.00" fill="#000000">[table]</text>
<polygon fill="none" stroke="#000000" points="303.5,-388.1161 303.5,-410.1161 468.5,-410.1161 468.5,-388.1161 303.5,-388.1161"/>
<image xlink:href="../../images/primaryKeys.png" width="11px" height="12px" preserveAspectRatio="xMinYMin meet" x="308.5" y="-405.116"/>
<text text-anchor="start" x="339.5" y="-390.7161" font-family="Helvetica,sans-Serif" font-size="16.00" fill="#000000">id</text>
<polygon fill="#ffffff" stroke="transparent" points="303.5,-366.1161 303.5,-388.1161 468.5,-388.1161 468.5,-366.1161 303.5,-366.1161"/>
<polygon fill="none" stroke="#000000" points="303.5,-366.1161 303.5,-388.1161 468.5,-388.1161 468.5,-366.1161 303.5,-366.1161"/>
<text text-anchor="start" x="339.5" y="-368.7161" font-family="Helvetica,sans-Serif" font-size="16.00" fill="#000000">name</text>
<polygon fill="#ffffff" stroke="transparent" points="303.5,-344.1161 303.5,-366.1161 468.5,-366.1161 468.5,-344.1161 303.5,-344.1161"/>
<polygon fill="none" stroke="#000000" points="303.5,-344.1161 303.5,-366.1161 468.5,-366.1161 468.5,-344.1161 303.5,-344.1161"/>
<text text-anchor="start" x="339.5" y="-346.7161" font-family="Helvetica,sans-Serif" font-size="16.00" fill="#000000">active</text>
<polygon fill="none" stroke="#000000" points="303.5,-319.1161 303.5,-344.1161 468.5,-344.1161 468.5,-319.1161 303.5,-319.1161"/>
<text text-anchor="start" x="306.5" y="-326.7161" font-family="Helvetica,sans-Serif" font-size="16.00" fill="#000000">...</text>
<polygon fill="#ffffff" stroke="transparent" points="303.5,-294.1161 303.5,-319.1161 352.5,-319.1161 352.5,-294.1161 303.5,-294.1161"/>
<polygon fill="none" stroke="#000000" points="303.5,-294.1161 303.5,-319.1161 352.5,-319.1161 352.5,-294.1161 303.5,-294.1161"/>
<text text-anchor="start" x="306.5" y="-301.7161" font-family="Helvetica,sans-Serif" font-size="16.00" fill="#000000"> &#160;</text>
<polygon fill="#ffffff" stroke="transparent" points="352.5,-294.1161 352.5,-319.1161 422.5,-319.1161 422.5,-294.1161 352.5,-294.1161"/>
<polygon fill="none" stroke="#000000" points="352.5,-294.1161 352.5,-319.1161 422.5,-319.1161 422.5,-294.1161 352.5,-294.1161"/>
<text text-anchor="start" x="372.388" y="-301.7161" font-family="Helvetica,sans-Serif" font-size="16.00" fill="#000000">0 rows</text>
<polygon fill="#ffffff" stroke="transparent" points="422.5,-294.1161 422.5,-319.1161 468.5,-319.1161 468.5,-294.1161 422.5,-294.1161"/>
<polygon fill="none" stroke="#000000" points="422.5,-294.1161 422.5,-319.1161 468.5,-319.1161 468.5,-294.1161 422.5,-294.1161"/>
<text text-anchor="start" x="442.8168" y="-301.7161" font-family="Helvetica,sans-Serif" font-size="16.00" fill="#000000">1 &gt;</text>
</a>
</g>
</g>
<!-- timers&#45;&gt;activity_types -->
<g id="edge9" class="edge">
<title>timers:w&#45;&gt;activity_types:e</title>
<path fill="none" stroke="#000000" d="M546.5287,-507.6748C530.94,-498.1657 535.2017,-470.863 518,-450.1161 497.8386,-425.7995 500.0876,-399.1161 468.5,-399.1161"/>
<polygon fill="#000000" stroke="#000000" points="553.217,-509.2652 560.1671,-514.6184 557.1085,-510.1907 561,-511.1161 561,-511.1161 561,-511.1161 557.1085,-510.1907 561.8329,-507.6137 553.217,-509.2652 553.217,-509.2652"/>
<ellipse fill="none" stroke="#000000" cx="550.1038" cy="-508.5249" rx="3.2" ry="3.2"/>
</g>
<!-- timer_tags -->
<g id="node9" class="node">
<title>timer_tags</title>
<g id="a_node9"><a xlink:href="../../tables/timer_tags.html" xlink:title="timer_tags" target="_top">
<polygon fill="#ffffff" stroke="transparent" points="1034,-291.6161 1034,-436.6161 1172,-436.6161 1172,-291.6161 1034,-291.6161"/>
<polygon fill="#f5f5f5" stroke="transparent" points="1034,-407.1161 1034,-436.1161 1172,-436.1161 1172,-407.1161 1034,-407.1161"/>
<polygon fill="none" stroke="#000000" points="1034,-407.1161 1034,-436.1161 1172,-436.1161 1172,-407.1161 1034,-407.1161"/>
<text text-anchor="start" x="1039" y="-414.2161" font-family="Helvetica,sans-Serif" font-weight="bold" font-size="16.00" fill="#000000">timer_tags</text>
<text text-anchor="start" x="1123.7136" y="-416.7161" font-family="Helvetica,sans-Serif" font-size="16.00" fill="#000000">[table]</text>
<polygon fill="none" stroke="#000000" points="1034,-385.1161 1034,-407.1161 1172,-407.1161 1172,-385.1161 1034,-385.1161"/>
<image xlink:href="../../images/primaryKeys.png" width="11px" height="12px" preserveAspectRatio="xMinYMin meet" x="1039" y="-402.116"/>
<text text-anchor="start" x="1068" y="-387.7161" font-family="Helvetica,sans-Serif" font-size="16.00" fill="#000000">id</text>
<polygon fill="#ffffff" stroke="transparent" points="1034,-363.1161 1034,-385.1161 1172,-385.1161 1172,-363.1161 1034,-363.1161"/>
<polygon fill="none" stroke="#000000" points="1034,-363.1161 1034,-385.1161 1172,-385.1161 1172,-363.1161 1034,-363.1161"/>
<image xlink:href="../../images/foreignKeys.png" width="11px" height="12px" preserveAspectRatio="xMinYMin meet" x="1039" y="-380.116"/>
<text text-anchor="start" x="1068" y="-365.7161" font-family="Helvetica,sans-Serif" font-size="16.00" fill="#000000">tag_id</text>
<polygon fill="#ffffff" stroke="transparent" points="1034,-341.1161 1034,-363.1161 1172,-363.1161 1172,-341.1161 1034,-341.1161"/>
<polygon fill="none" stroke="#000000" points="1034,-341.1161 1034,-363.1161 1172,-363.1161 1172,-341.1161 1034,-341.1161"/>
<image xlink:href="../../images/foreignKeys.png" width="11px" height="12px" preserveAspectRatio="xMinYMin meet" x="1039" y="-358.116"/>
<text text-anchor="start" x="1068" y="-343.7161" font-family="Helvetica,sans-Serif" font-size="16.00" fill="#000000">timer_id</text>
<polygon fill="none" stroke="#000000" points="1034,-316.1161 1034,-341.1161 1172,-341.1161 1172,-316.1161 1034,-316.1161"/>
<text text-anchor="start" x="1037" y="-323.7161" font-family="Helvetica,sans-Serif" font-size="16.00" fill="#000000">...</text>
<polygon fill="#ffffff" stroke="transparent" points="1034,-291.1161 1034,-316.1161 1083,-316.1161 1083,-291.1161 1034,-291.1161"/>
<polygon fill="none" stroke="#000000" points="1034,-291.1161 1034,-316.1161 1083,-316.1161 1083,-291.1161 1034,-291.1161"/>
<text text-anchor="start" x="1037" y="-298.7161" font-family="Helvetica,sans-Serif" font-size="16.00" fill="#000000">&lt; 2</text>
<polygon fill="#ffffff" stroke="transparent" points="1083,-291.1161 1083,-316.1161 1147,-316.1161 1147,-291.1161 1083,-291.1161"/>
<polygon fill="none" stroke="#000000" points="1083,-291.1161 1083,-316.1161 1147,-316.1161 1147,-291.1161 1083,-291.1161"/>
<text text-anchor="start" x="1096.888" y="-298.7161" font-family="Helvetica,sans-Serif" font-size="16.00" fill="#000000">0 rows</text>
<polygon fill="#ffffff" stroke="transparent" points="1147,-291.1161 1147,-316.1161 1172,-316.1161 1172,-291.1161 1147,-291.1161"/>
<polygon fill="none" stroke="#000000" points="1147,-291.1161 1147,-316.1161 1172,-316.1161 1172,-291.1161 1147,-291.1161"/>
<text text-anchor="start" x="1160.1072" y="-298.7161" font-family="Helvetica,sans-Serif" font-size="16.00" fill="#000000"> &#160;</text>
</a>
</g>
</g>
<!-- timer_tags&#45;&gt;tags -->
<g id="edge7" class="edge">
<title>timer_tags:w&#45;&gt;tags:e</title>
<path fill="none" stroke="#000000" d="M1019.5665,-372.6107C959.8386,-358.2864 1040.4674,-245.29 985,-187.1161 930.679,-130.1444 894.7181,-134.1161 816,-134.1161"/>
<polygon fill="#000000" stroke="#000000" points="1026.0432,-373.2861 1033.6265,-377.6966 1030.0216,-373.7011 1034,-374.1161 1034,-374.1161 1034,-374.1161 1030.0216,-373.7011 1034.3735,-370.5355 1026.0432,-373.2861 1026.0432,-373.2861"/>
<ellipse fill="none" stroke="#000000" cx="1022.8604" cy="-372.9542" rx="3.2" ry="3.2"/>
</g>
<!-- timer_tags&#45;&gt;timers -->
<g id="edge8" class="edge">
<title>timer_tags:w&#45;&gt;timers:e</title>
<path fill="none" stroke="#000000" d="M1020.1141,-357.1116C970.8566,-398.7846 1045.1276,-687.1161 975,-687.1161"/>
<polygon fill="#000000" stroke="#000000" points="1026.4723,-354.8243 1035.2187,-355.5035 1030.2362,-353.4702 1034,-352.1161 1034,-352.1161 1034,-352.1161 1030.2362,-353.4702 1032.7813,-348.7286 1026.4723,-354.8243 1026.4723,-354.8243"/>
<ellipse fill="none" stroke="#000000" cx="1023.4612" cy="-355.9075" rx="3.2" ry="3.2"/>
</g>
</g>
</svg>
