<?xml version="1.0" encoding="UTF-8" standalone="no"?>
<!DOCTYPE svg PUBLIC "-//W3C//DTD SVG 1.1//EN"
 "http://www.w3.org/Graphics/SVG/1.1/DTD/svg11.dtd">
<!-- Generated by graphviz version 2.40.1 (20161225.0304)
 -->
<!-- Title: oneDegreeRelationshipsDiagram Pages: 1 -->
<svg width="556pt" height="371pt"
 viewBox="0.00 0.00 556.00 371.20" xmlns="http://www.w3.org/2000/svg" xmlns:xlink="http://www.w3.org/1999/xlink">
<g id="graph0" class="graph" transform="scale(1 1) rotate(0) translate(4 367.2)">
<title>oneDegreeRelationshipsDiagram</title>
<polygon fill="#ffffff" stroke="transparent" points="-4,4 -4,-367.2 552,-367.2 552,4 -4,4"/>
<text text-anchor="middle" x="101.8088" y="-8.8" font-family="Helvetica,sans-Serif" font-size="16.00" fill="#000000">Generated by SchemaSpy</text>
<!-- timer_notes -->
<g id="node1" class="node">
<title>timer_notes</title>
<g id="a_node1"><a xlink:href="../../tables/timer_notes.html" xlink:title="timer_notes" target="_top">
<polygon fill="#ffffff" stroke="transparent" points="290,-176.2 290,-359.2 540,-359.2 540,-176.2 290,-176.2"/>
<polygon fill="#f5f5f5" stroke="transparent" points="292,-327.7 292,-356.7 538,-356.7 538,-327.7 292,-327.7"/>
<polygon fill="none" stroke="#000000" points="292,-327.7 292,-356.7 538,-356.7 538,-327.7 292,-327.7"/>
<text text-anchor="start" x="297" y="-334.8" font-family="Helvetica,sans-Serif" font-weight="bold" font-size="16.00" fill="#000000">timer_notes</text>
<text text-anchor="start" x="489.4272" y="-337.3" font-family="Helvetica,sans-Serif" font-size="16.00" fill="#000000">[table]</text>
<polygon fill="none" stroke="#000000" points="292,-302.7 292,-327.7 409,-327.7 409,-302.7 292,-302.7"/>
<image xlink:href="../../images/primaryKeys.png" width="11px" height="12px" preserveAspectRatio="xMinYMin meet" x="297" y="-321.2"/>
<text text-anchor="start" x="312" y="-306.8" font-family="Helvetica,sans-Serif" font-size="16.00" fill="#000000">id</text>
<polygon fill="none" stroke="#000000" points="409,-302.7 409,-327.7 538,-327.7 538,-302.7 409,-302.7"/>
<text text-anchor="start" x="411.688" y="-310.3" font-family="Helvetica,sans-Serif" font-size="16.00" fill="#000000">text[2000000000]</text>
<polygon fill="none" stroke="#000000" points="292,-277.7 292,-302.7 409,-302.7 409,-277.7 292,-277.7"/>
<text text-anchor="start" x="312" y="-281.8" font-family="Helvetica,sans-Serif" font-size="16.00" fill="#000000">note</text>
<polygon fill="none" stroke="#000000" points="409,-277.7 409,-302.7 538,-302.7 538,-277.7 409,-277.7"/>
<text text-anchor="start" x="411.688" y="-285.3" font-family="Helvetica,sans-Serif" font-size="16.00" fill="#000000">text[2000000000]</text>
<polygon fill="none" stroke="#000000" points="292,-252.7 292,-277.7 409,-277.7 409,-252.7 292,-252.7"/>
<image xlink:href="../../images/foreignKeys.png" width="11px" height="12px" preserveAspectRatio="xMinYMin meet" x="297" y="-271.2"/>
<text text-anchor="start" x="312" y="-256.8" font-family="Helvetica,sans-Serif" font-size="16.00" fill="#000000">timer_id</text>
<polygon fill="none" stroke="#000000" points="409,-252.7 409,-277.7 538,-277.7 538,-252.7 409,-252.7"/>
<text text-anchor="start" x="411.688" y="-260.3" font-family="Helvetica,sans-Serif" font-size="16.00" fill="#000000">text[2000000000]</text>
<polygon fill="none" stroke="#000000" points="292,-227.7 292,-252.7 409,-252.7 409,-227.7 292,-227.7"/>
<text text-anchor="start" x="312" y="-231.8" font-family="Helvetica,sans-Serif" font-size="16.00" fill="#000000">inserted_at</text>
<polygon fill="none" stroke="#000000" points="409,-227.7 409,-252.7 538,-252.7 538,-227.7 409,-227.7"/>
<text text-anchor="start" x="411.688" y="-235.3" font-family="Helvetica,sans-Serif" font-size="16.00" fill="#000000">text[2000000000]</text>
<polygon fill="none" stroke="#000000" points="292,-202.7 292,-227.7 409,-227.7 409,-202.7 292,-202.7"/>
<text text-anchor="start" x="312" y="-206.8" font-family="Helvetica,sans-Serif" font-size="16.00" fill="#000000">updated_at</text>
<polygon fill="none" stroke="#000000" points="409,-202.7 409,-227.7 538,-227.7 538,-202.7 409,-202.7"/>
<text text-anchor="start" x="411.688" y="-210.3" font-family="Helvetica,sans-Serif" font-size="16.00" fill="#000000">text[2000000000]</text>
<polygon fill="#ffffff" stroke="transparent" points="292,-177.7 292,-202.7 333,-202.7 333,-177.7 292,-177.7"/>
<polygon fill="none" stroke="#000000" points="292,-177.7 292,-202.7 333,-202.7 333,-177.7 292,-177.7"/>
<text text-anchor="start" x="295" y="-185.3" font-family="Helvetica,sans-Serif" font-size="16.00" fill="#000000">&lt; 1</text>
<polygon fill="#ffffff" stroke="transparent" points="333,-177.7 333,-202.7 409,-202.7 409,-177.7 333,-177.7"/>
<polygon fill="none" stroke="#000000" points="333,-177.7 333,-202.7 409,-202.7 409,-177.7 333,-177.7"/>
<text text-anchor="start" x="349.9936" y="-185.3" font-family="Helvetica,sans-Serif" font-size="16.00" fill="#000000">52 rows</text>
<polygon fill="#ffffff" stroke="transparent" points="409,-177.7 409,-202.7 538,-202.7 538,-177.7 409,-177.7"/>
<polygon fill="none" stroke="#000000" points="409,-177.7 409,-202.7 538,-202.7 538,-177.7 409,-177.7"/>
<text text-anchor="start" x="512.3168" y="-185.3" font-family="Helvetica,sans-Serif" font-size="16.00" fill="#000000">0 &gt;</text>
<polygon fill="none" stroke="#000000" stroke-width="2" points="291,-177.2 291,-358.2 539,-358.2 539,-177.2 291,-177.2"/>
</a>
</g>
</g>
<!-- timers -->
<g id="node2" class="node">
<title>timers</title>
<g id="a_node2"><a xlink:href="../../tables/timers.html" xlink:title="timers" target="_top">
<polygon fill="#ffffff" stroke="transparent" points="8,-50.2 8,-305.2 241,-305.2 241,-50.2 8,-50.2"/>
<polygon fill="#f5f5f5" stroke="transparent" points="8.5,-275.7 8.5,-304.7 241.5,-304.7 241.5,-275.7 8.5,-275.7"/>
<polygon fill="none" stroke="#000000" points="8.5,-275.7 8.5,-304.7 241.5,-304.7 241.5,-275.7 8.5,-275.7"/>
<text text-anchor="start" x="13.5" y="-282.8" font-family="Helvetica,sans-Serif" font-weight="bold" font-size="16.00" fill="#000000">timers</text>
<text text-anchor="start" x="192.9272" y="-285.3" font-family="Helvetica,sans-Serif" font-size="16.00" fill="#000000">[table]</text>
<polygon fill="none" stroke="#000000" points="8.5,-253.7 8.5,-275.7 241.5,-275.7 241.5,-253.7 8.5,-253.7"/>
<image xlink:href="../../images/primaryKeys.png" width="11px" height="12px" preserveAspectRatio="xMinYMin meet" x="13.5" y="-270.7"/>
<text text-anchor="start" x="28.5" y="-256.3" font-family="Helvetica,sans-Serif" font-size="16.00" fill="#000000">id</text>
<polygon fill="#ffffff" stroke="transparent" points="8.5,-231.7 8.5,-253.7 241.5,-253.7 241.5,-231.7 8.5,-231.7"/>
<polygon fill="none" stroke="#000000" points="8.5,-231.7 8.5,-253.7 241.5,-253.7 241.5,-231.7 8.5,-231.7"/>
<text text-anchor="start" x="28.5" y="-234.3" font-family="Helvetica,sans-Serif" font-size="16.00" fill="#000000">start_stamp</text>
<polygon fill="#ffffff" stroke="transparent" points="8.5,-209.7 8.5,-231.7 241.5,-231.7 241.5,-209.7 8.5,-209.7"/>
<polygon fill="none" stroke="#000000" points="8.5,-209.7 8.5,-231.7 241.5,-231.7 241.5,-209.7 8.5,-209.7"/>
<text text-anchor="start" x="28.5" y="-212.3" font-family="Helvetica,sans-Serif" font-size="16.00" fill="#000000">end_stamp</text>
<polygon fill="#ffffff" stroke="transparent" points="8.5,-187.7 8.5,-209.7 241.5,-209.7 241.5,-187.7 8.5,-187.7"/>
<polygon fill="none" stroke="#000000" points="8.5,-187.7 8.5,-209.7 241.5,-209.7 241.5,-187.7 8.5,-187.7"/>
<text text-anchor="start" x="28.5" y="-190.3" font-family="Helvetica,sans-Serif" font-size="16.00" fill="#000000">billable</text>
<polygon fill="#ffffff" stroke="transparent" points="8.5,-165.7 8.5,-187.7 241.5,-187.7 241.5,-165.7 8.5,-165.7"/>
<polygon fill="none" stroke="#000000" points="8.5,-165.7 8.5,-187.7 241.5,-187.7 241.5,-165.7 8.5,-165.7"/>
<image xlink:href="../../images/foreignKeys.png" width="11px" height="12px" preserveAspectRatio="xMinYMin meet" x="13.5" y="-182.7"/>
<text text-anchor="start" x="28.5" y="-168.3" font-family="Helvetica,sans-Serif" font-size="16.00" fill="#000000">business_partner_id</text>
<polygon fill="none" stroke="#000000" points="8.5,-143.7 8.5,-165.7 241.5,-165.7 241.5,-143.7 8.5,-143.7"/>
<image xlink:href="../../images/foreignKeys.png" width="11px" height="12px" preserveAspectRatio="xMinYMin meet" x="13.5" y="-160.7"/>
<text text-anchor="start" x="28.5" y="-146.3" font-family="Helvetica,sans-Serif" font-size="16.00" fill="#000000">activity_type_id</text>
<polygon fill="#ffffff" stroke="transparent" points="8.5,-121.7 8.5,-143.7 241.5,-143.7 241.5,-121.7 8.5,-121.7"/>
<polygon fill="none" stroke="#000000" points="8.5,-121.7 8.5,-143.7 241.5,-143.7 241.5,-121.7 8.5,-121.7"/>
<image xlink:href="../../images/foreignKeys.png" width="11px" height="12px" preserveAspectRatio="xMinYMin meet" x="13.5" y="-138.7"/>
<text text-anchor="start" x="28.5" y="-124.3" font-family="Helvetica,sans-Serif" font-size="16.00" fill="#000000">project_id</text>
<polygon fill="#ffffff" stroke="transparent" points="8.5,-99.7 8.5,-121.7 241.5,-121.7 241.5,-99.7 8.5,-99.7"/>
<polygon fill="none" stroke="#000000" points="8.5,-99.7 8.5,-121.7 241.5,-121.7 241.5,-99.7 8.5,-99.7"/>
<text text-anchor="start" x="28.5" y="-102.3" font-family="Helvetica,sans-Serif" font-size="16.00" fill="#000000">inserted_at</text>
<polygon fill="none" stroke="#000000" points="8.5,-74.7 8.5,-99.7 241.5,-99.7 241.5,-74.7 8.5,-74.7"/>
<text text-anchor="start" x="11.5" y="-82.3" font-family="Helvetica,sans-Serif" font-size="16.00" fill="#000000">...</text>
<polygon fill="#ffffff" stroke="transparent" points="8.5,-49.7 8.5,-74.7 89.5,-74.7 89.5,-49.7 8.5,-49.7"/>
<polygon fill="none" stroke="#000000" points="8.5,-49.7 8.5,-74.7 89.5,-74.7 89.5,-49.7 8.5,-49.7"/>
<text text-anchor="start" x="11.5" y="-57.3" font-family="Helvetica,sans-Serif" font-size="16.00" fill="#000000">&lt; 3</text>
<polygon fill="#ffffff" stroke="transparent" points="89.5,-49.7 89.5,-74.7 186.5,-74.7 186.5,-49.7 89.5,-49.7"/>
<polygon fill="none" stroke="#000000" points="89.5,-49.7 89.5,-74.7 186.5,-74.7 186.5,-49.7 89.5,-49.7"/>
<text text-anchor="start" x="118.5992" y="-57.3" font-family="Helvetica,sans-Serif" font-size="16.00" fill="#000000">277 rows</text>
<polygon fill="#ffffff" stroke="transparent" points="186.5,-49.7 186.5,-74.7 241.5,-74.7 241.5,-49.7 186.5,-49.7"/>
<polygon fill="none" stroke="#000000" points="186.5,-49.7 186.5,-74.7 241.5,-74.7 241.5,-49.7 186.5,-49.7"/>
<text text-anchor="start" x="215.8168" y="-57.3" font-family="Helvetica,sans-Serif" font-size="16.00" fill="#000000">2 &gt;</text>
</a>
</g>
</g>
<!-- timer_notes&#45;&gt;timers -->
<g id="edge1" class="edge">
<title>timer_notes:w&#45;&gt;timers:e</title>
<path fill="none" stroke="#000000" d="M277.4203,-264.7C265.5435,-264.7 258.158,-264.7 241.5,-264.7"/>
<polygon fill="#000000" stroke="#000000" points="284,-264.7001 292,-268.3 288,-264.7 292,-264.7 292,-264.7 292,-264.7 288,-264.7 292,-261.1 284,-264.7001 284,-264.7001"/>
<ellipse fill="none" stroke="#000000" cx="280.8" cy="-264.7001" rx="3.2" ry="3.2"/>
</g>
</g>
</svg>
