<?xml version="1.0" encoding="UTF-8" standalone="no"?>
<!DOCTYPE svg PUBLIC "-//W3C//DTD SVG 1.1//EN"
 "http://www.w3.org/Graphics/SVG/1.1/DTD/svg11.dtd">
<!-- Generated by graphviz version 2.40.1 (20161225.0304)
 -->
<!-- Title: twoDegreesRelationshipsDiagram Pages: 1 -->
<svg width="1023pt" height="479pt"
 viewBox="0.00 0.00 1023.00 479.20" xmlns="http://www.w3.org/2000/svg" xmlns:xlink="http://www.w3.org/1999/xlink">
<g id="graph0" class="graph" transform="scale(1 1) rotate(0) translate(4 475.2)">
<title>twoDegreesRelationshipsDiagram</title>
<polygon fill="#ffffff" stroke="transparent" points="-4,4 -4,-475.2 1019,-475.2 1019,4 -4,4"/>
<text text-anchor="middle" x="101.8088" y="-8.8" font-family="Helvetica,sans-Serif" font-size="16.00" fill="#000000">Generated by SchemaSpy</text>
<!-- projects -->
<g id="node1" class="node">
<title>projects</title>
<g id="a_node1"><a xlink:href="../../tables/projects.html" xlink:title="projects" target="_top">
<polygon fill="#ffffff" stroke="transparent" points="284,-50.2 284,-129.2 403,-129.2 403,-50.2 284,-50.2"/>
<polygon fill="#f5f5f5" stroke="transparent" points="284.5,-99.7 284.5,-128.7 403.5,-128.7 403.5,-99.7 284.5,-99.7"/>
<polygon fill="none" stroke="#000000" points="284.5,-99.7 284.5,-128.7 403.5,-128.7 403.5,-99.7 284.5,-99.7"/>
<text text-anchor="start" x="289.5" y="-106.8" font-family="Helvetica,sans-Serif" font-weight="bold" font-size="16.00" fill="#000000">projects</text>
<text text-anchor="start" x="355.2136" y="-109.3" font-family="Helvetica,sans-Serif" font-size="16.00" fill="#000000">[table]</text>
<polygon fill="none" stroke="#000000" points="284.5,-74.7 284.5,-99.7 403.5,-99.7 403.5,-74.7 284.5,-74.7"/>
<text text-anchor="start" x="287.5" y="-82.3" font-family="Helvetica,sans-Serif" font-size="16.00" fill="#000000">...</text>
<polygon fill="#ffffff" stroke="transparent" points="284.5,-49.7 284.5,-74.7 312.5,-74.7 312.5,-49.7 284.5,-49.7"/>
<polygon fill="none" stroke="#000000" points="284.5,-49.7 284.5,-74.7 312.5,-74.7 312.5,-49.7 284.5,-49.7"/>
<text text-anchor="start" x="287.1584" y="-57.3" font-family="Helvetica,sans-Serif" font-size="16.00" fill="#000000">&lt; 1</text>
<polygon fill="#ffffff" stroke="transparent" points="312.5,-49.7 312.5,-74.7 374.5,-74.7 374.5,-49.7 312.5,-49.7"/>
<polygon fill="none" stroke="#000000" points="312.5,-49.7 312.5,-74.7 374.5,-74.7 374.5,-49.7 312.5,-49.7"/>
<text text-anchor="start" x="315.4968" y="-57.3" font-family="Helvetica,sans-Serif" font-size="16.00" fill="#000000">13 rows</text>
<polygon fill="#ffffff" stroke="transparent" points="374.5,-49.7 374.5,-74.7 403.5,-74.7 403.5,-49.7 374.5,-49.7"/>
<polygon fill="none" stroke="#000000" points="374.5,-49.7 374.5,-74.7 403.5,-74.7 403.5,-49.7 374.5,-49.7"/>
<text text-anchor="start" x="377.8168" y="-57.3" font-family="Helvetica,sans-Serif" font-size="16.00" fill="#000000">3 &gt;</text>
</a>
</g>
</g>
<!-- business_partners -->
<g id="node2" class="node">
<title>business_partners</title>
<g id="a_node2"><a xlink:href="../../tables/business_partners.html" xlink:title="business_partners" target="_top">
<polygon fill="#ffffff" stroke="transparent" points="8,-133.2 8,-212.2 212,-212.2 212,-133.2 8,-133.2"/>
<polygon fill="#f5f5f5" stroke="transparent" points="8,-182.7 8,-211.7 212,-211.7 212,-182.7 8,-182.7"/>
<polygon fill="none" stroke="#000000" points="8,-182.7 8,-211.7 212,-211.7 212,-182.7 8,-182.7"/>
<text text-anchor="start" x="13" y="-189.8" font-family="Helvetica,sans-Serif" font-weight="bold" font-size="16.00" fill="#000000">business_partners</text>
<text text-anchor="start" x="163.7136" y="-192.3" font-family="Helvetica,sans-Serif" font-size="16.00" fill="#000000">[table]</text>
<polygon fill="none" stroke="#000000" points="8,-157.7 8,-182.7 212,-182.7 212,-157.7 8,-157.7"/>
<text text-anchor="start" x="11" y="-165.3" font-family="Helvetica,sans-Serif" font-size="16.00" fill="#000000">...</text>
<polygon fill="#ffffff" stroke="transparent" points="8,-132.7 8,-157.7 76,-157.7 76,-132.7 8,-132.7"/>
<polygon fill="none" stroke="#000000" points="8,-132.7 8,-157.7 76,-157.7 76,-132.7 8,-132.7"/>
<text text-anchor="start" x="11" y="-140.3" font-family="Helvetica,sans-Serif" font-size="16.00" fill="#000000"> &#160;</text>
<polygon fill="#ffffff" stroke="transparent" points="76,-132.7 76,-157.7 156,-157.7 156,-132.7 76,-132.7"/>
<polygon fill="none" stroke="#000000" points="76,-132.7 76,-157.7 156,-157.7 156,-132.7 76,-132.7"/>
<text text-anchor="start" x="105.888" y="-140.3" font-family="Helvetica,sans-Serif" font-size="16.00" fill="#000000">3 rows</text>
<polygon fill="#ffffff" stroke="transparent" points="156,-132.7 156,-157.7 212,-157.7 212,-132.7 156,-132.7"/>
<polygon fill="none" stroke="#000000" points="156,-132.7 156,-157.7 212,-157.7 212,-132.7 156,-132.7"/>
<text text-anchor="start" x="186.3168" y="-140.3" font-family="Helvetica,sans-Serif" font-size="16.00" fill="#000000">3 &gt;</text>
</a>
</g>
</g>
<!-- projects&#45;&gt;business_partners -->
<g id="edge1" class="edge">
<title>projects:w&#45;&gt;business_partners:e</title>
<path fill="none" stroke="#000000" d="M270.1077,-89.8523C240.4648,-105.0133 255.2403,-169.7 212,-169.7"/>
<polygon fill="#000000" stroke="#000000" points="276.6853,-88.4117 285.2703,-90.2166 280.5926,-87.5559 284.5,-86.7 284.5,-86.7 284.5,-86.7 280.5926,-87.5559 283.7297,-83.1834 276.6853,-88.4117 276.6853,-88.4117"/>
<ellipse fill="none" stroke="#000000" cx="273.5594" cy="-89.0964" rx="3.2" ry="3.2"/>
</g>
<!-- timer_notes -->
<g id="node3" class="node">
<title>timer_notes</title>
<g id="a_node3"><a xlink:href="../../tables/timer_notes.html" xlink:title="timer_notes" target="_top">
<polygon fill="#ffffff" stroke="transparent" points="757,-284.2 757,-467.2 1007,-467.2 1007,-284.2 757,-284.2"/>
<polygon fill="#f5f5f5" stroke="transparent" points="759,-435.7 759,-464.7 1005,-464.7 1005,-435.7 759,-435.7"/>
<polygon fill="none" stroke="#000000" points="759,-435.7 759,-464.7 1005,-464.7 1005,-435.7 759,-435.7"/>
<text text-anchor="start" x="764" y="-442.8" font-family="Helvetica,sans-Serif" font-weight="bold" font-size="16.00" fill="#000000">timer_notes</text>
<text text-anchor="start" x="956.4272" y="-445.3" font-family="Helvetica,sans-Serif" font-size="16.00" fill="#000000">[table]</text>
<polygon fill="none" stroke="#000000" points="759,-410.7 759,-435.7 876,-435.7 876,-410.7 759,-410.7"/>
<image xlink:href="../../images/primaryKeys.png" width="11px" height="12px" preserveAspectRatio="xMinYMin meet" x="764" y="-429.2"/>
<text text-anchor="start" x="779" y="-414.8" font-family="Helvetica,sans-Serif" font-size="16.00" fill="#000000">id</text>
<polygon fill="none" stroke="#000000" points="876,-410.7 876,-435.7 1005,-435.7 1005,-410.7 876,-410.7"/>
<text text-anchor="start" x="878.688" y="-418.3" font-family="Helvetica,sans-Serif" font-size="16.00" fill="#000000">text[2000000000]</text>
<polygon fill="none" stroke="#000000" points="759,-385.7 759,-410.7 876,-410.7 876,-385.7 759,-385.7"/>
<text text-anchor="start" x="779" y="-389.8" font-family="Helvetica,sans-Serif" font-size="16.00" fill="#000000">note</text>
<polygon fill="none" stroke="#000000" points="876,-385.7 876,-410.7 1005,-410.7 1005,-385.7 876,-385.7"/>
<text text-anchor="start" x="878.688" y="-393.3" font-family="Helvetica,sans-Serif" font-size="16.00" fill="#000000">text[2000000000]</text>
<polygon fill="none" stroke="#000000" points="759,-360.7 759,-385.7 876,-385.7 876,-360.7 759,-360.7"/>
<image xlink:href="../../images/foreignKeys.png" width="11px" height="12px" preserveAspectRatio="xMinYMin meet" x="764" y="-379.2"/>
<text text-anchor="start" x="779" y="-364.8" font-family="Helvetica,sans-Serif" font-size="16.00" fill="#000000">timer_id</text>
<polygon fill="none" stroke="#000000" points="876,-360.7 876,-385.7 1005,-385.7 1005,-360.7 876,-360.7"/>
<text text-anchor="start" x="878.688" y="-368.3" font-family="Helvetica,sans-Serif" font-size="16.00" fill="#000000">text[2000000000]</text>
<polygon fill="none" stroke="#000000" points="759,-335.7 759,-360.7 876,-360.7 876,-335.7 759,-335.7"/>
<text text-anchor="start" x="779" y="-339.8" font-family="Helvetica,sans-Serif" font-size="16.00" fill="#000000">inserted_at</text>
<polygon fill="none" stroke="#000000" points="876,-335.7 876,-360.7 1005,-360.7 1005,-335.7 876,-335.7"/>
<text text-anchor="start" x="878.688" y="-343.3" font-family="Helvetica,sans-Serif" font-size="16.00" fill="#000000">text[2000000000]</text>
<polygon fill="none" stroke="#000000" points="759,-310.7 759,-335.7 876,-335.7 876,-310.7 759,-310.7"/>
<text text-anchor="start" x="779" y="-314.8" font-family="Helvetica,sans-Serif" font-size="16.00" fill="#000000">updated_at</text>
<polygon fill="none" stroke="#000000" points="876,-310.7 876,-335.7 1005,-335.7 1005,-310.7 876,-310.7"/>
<text text-anchor="start" x="878.688" y="-318.3" font-family="Helvetica,sans-Serif" font-size="16.00" fill="#000000">text[2000000000]</text>
<polygon fill="#ffffff" stroke="transparent" points="759,-285.7 759,-310.7 800,-310.7 800,-285.7 759,-285.7"/>
<polygon fill="none" stroke="#000000" points="759,-285.7 759,-310.7 800,-310.7 800,-285.7 759,-285.7"/>
<text text-anchor="start" x="762" y="-293.3" font-family="Helvetica,sans-Serif" font-size="16.00" fill="#000000">&lt; 1</text>
<polygon fill="#ffffff" stroke="transparent" points="800,-285.7 800,-310.7 876,-310.7 876,-285.7 800,-285.7"/>
<polygon fill="none" stroke="#000000" points="800,-285.7 800,-310.7 876,-310.7 876,-285.7 800,-285.7"/>
<text text-anchor="start" x="816.9936" y="-293.3" font-family="Helvetica,sans-Serif" font-size="16.00" fill="#000000">52 rows</text>
<polygon fill="#ffffff" stroke="transparent" points="876,-285.7 876,-310.7 1005,-310.7 1005,-285.7 876,-285.7"/>
<polygon fill="none" stroke="#000000" points="876,-285.7 876,-310.7 1005,-310.7 1005,-285.7 876,-285.7"/>
<text text-anchor="start" x="979.3168" y="-293.3" font-family="Helvetica,sans-Serif" font-size="16.00" fill="#000000">0 &gt;</text>
<polygon fill="none" stroke="#000000" stroke-width="2" points="758,-285.2 758,-466.2 1006,-466.2 1006,-285.2 758,-285.2"/>
</a>
</g>
</g>
<!-- timers -->
<g id="node4" class="node">
<title>timers</title>
<g id="a_node4"><a xlink:href="../../tables/timers.html" xlink:title="timers" target="_top">
<polygon fill="#ffffff" stroke="transparent" points="475,-82.2 475,-337.2 708,-337.2 708,-82.2 475,-82.2"/>
<polygon fill="#f5f5f5" stroke="transparent" points="475.5,-307.7 475.5,-336.7 708.5,-336.7 708.5,-307.7 475.5,-307.7"/>
<polygon fill="none" stroke="#000000" points="475.5,-307.7 475.5,-336.7 708.5,-336.7 708.5,-307.7 475.5,-307.7"/>
<text text-anchor="start" x="480.5" y="-314.8" font-family="Helvetica,sans-Serif" font-weight="bold" font-size="16.00" fill="#000000">timers</text>
<text text-anchor="start" x="659.9272" y="-317.3" font-family="Helvetica,sans-Serif" font-size="16.00" fill="#000000">[table]</text>
<polygon fill="none" stroke="#000000" points="475.5,-285.7 475.5,-307.7 708.5,-307.7 708.5,-285.7 475.5,-285.7"/>
<image xlink:href="../../images/primaryKeys.png" width="11px" height="12px" preserveAspectRatio="xMinYMin meet" x="480.5" y="-302.7"/>
<text text-anchor="start" x="495.5" y="-288.3" font-family="Helvetica,sans-Serif" font-size="16.00" fill="#000000">id</text>
<polygon fill="#ffffff" stroke="transparent" points="475.5,-263.7 475.5,-285.7 708.5,-285.7 708.5,-263.7 475.5,-263.7"/>
<polygon fill="none" stroke="#000000" points="475.5,-263.7 475.5,-285.7 708.5,-285.7 708.5,-263.7 475.5,-263.7"/>
<text text-anchor="start" x="495.5" y="-266.3" font-family="Helvetica,sans-Serif" font-size="16.00" fill="#000000">start_stamp</text>
<polygon fill="#ffffff" stroke="transparent" points="475.5,-241.7 475.5,-263.7 708.5,-263.7 708.5,-241.7 475.5,-241.7"/>
<polygon fill="none" stroke="#000000" points="475.5,-241.7 475.5,-263.7 708.5,-263.7 708.5,-241.7 475.5,-241.7"/>
<text text-anchor="start" x="495.5" y="-244.3" font-family="Helvetica,sans-Serif" font-size="16.00" fill="#000000">end_stamp</text>
<polygon fill="#ffffff" stroke="transparent" points="475.5,-219.7 475.5,-241.7 708.5,-241.7 708.5,-219.7 475.5,-219.7"/>
<polygon fill="none" stroke="#000000" points="475.5,-219.7 475.5,-241.7 708.5,-241.7 708.5,-219.7 475.5,-219.7"/>
<text text-anchor="start" x="495.5" y="-222.3" font-family="Helvetica,sans-Serif" font-size="16.00" fill="#000000">billable</text>
<polygon fill="#ffffff" stroke="transparent" points="475.5,-197.7 475.5,-219.7 708.5,-219.7 708.5,-197.7 475.5,-197.7"/>
<polygon fill="none" stroke="#000000" points="475.5,-197.7 475.5,-219.7 708.5,-219.7 708.5,-197.7 475.5,-197.7"/>
<image xlink:href="../../images/foreignKeys.png" width="11px" height="12px" preserveAspectRatio="xMinYMin meet" x="480.5" y="-214.7"/>
<text text-anchor="start" x="495.5" y="-200.3" font-family="Helvetica,sans-Serif" font-size="16.00" fill="#000000">business_partner_id</text>
<polygon fill="none" stroke="#000000" points="475.5,-175.7 475.5,-197.7 708.5,-197.7 708.5,-175.7 475.5,-175.7"/>
<image xlink:href="../../images/foreignKeys.png" width="11px" height="12px" preserveAspectRatio="xMinYMin meet" x="480.5" y="-192.7"/>
<text text-anchor="start" x="495.5" y="-178.3" font-family="Helvetica,sans-Serif" font-size="16.00" fill="#000000">activity_type_id</text>
<polygon fill="#ffffff" stroke="transparent" points="475.5,-153.7 475.5,-175.7 708.5,-175.7 708.5,-153.7 475.5,-153.7"/>
<polygon fill="none" stroke="#000000" points="475.5,-153.7 475.5,-175.7 708.5,-175.7 708.5,-153.7 475.5,-153.7"/>
<image xlink:href="../../images/foreignKeys.png" width="11px" height="12px" preserveAspectRatio="xMinYMin meet" x="480.5" y="-170.7"/>
<text text-anchor="start" x="495.5" y="-156.3" font-family="Helvetica,sans-Serif" font-size="16.00" fill="#000000">project_id</text>
<polygon fill="#ffffff" stroke="transparent" points="475.5,-131.7 475.5,-153.7 708.5,-153.7 708.5,-131.7 475.5,-131.7"/>
<polygon fill="none" stroke="#000000" points="475.5,-131.7 475.5,-153.7 708.5,-153.7 708.5,-131.7 475.5,-131.7"/>
<text text-anchor="start" x="495.5" y="-134.3" font-family="Helvetica,sans-Serif" font-size="16.00" fill="#000000">inserted_at</text>
<polygon fill="none" stroke="#000000" points="475.5,-106.7 475.5,-131.7 708.5,-131.7 708.5,-106.7 475.5,-106.7"/>
<text text-anchor="start" x="478.5" y="-114.3" font-family="Helvetica,sans-Serif" font-size="16.00" fill="#000000">...</text>
<polygon fill="#ffffff" stroke="transparent" points="475.5,-81.7 475.5,-106.7 556.5,-106.7 556.5,-81.7 475.5,-81.7"/>
<polygon fill="none" stroke="#000000" points="475.5,-81.7 475.5,-106.7 556.5,-106.7 556.5,-81.7 475.5,-81.7"/>
<text text-anchor="start" x="478.5" y="-89.3" font-family="Helvetica,sans-Serif" font-size="16.00" fill="#000000">&lt; 3</text>
<polygon fill="#ffffff" stroke="transparent" points="556.5,-81.7 556.5,-106.7 653.5,-106.7 653.5,-81.7 556.5,-81.7"/>
<polygon fill="none" stroke="#000000" points="556.5,-81.7 556.5,-106.7 653.5,-106.7 653.5,-81.7 556.5,-81.7"/>
<text text-anchor="start" x="585.5992" y="-89.3" font-family="Helvetica,sans-Serif" font-size="16.00" fill="#000000">277 rows</text>
<polygon fill="#ffffff" stroke="transparent" points="653.5,-81.7 653.5,-106.7 708.5,-106.7 708.5,-81.7 653.5,-81.7"/>
<polygon fill="none" stroke="#000000" points="653.5,-81.7 653.5,-106.7 708.5,-106.7 708.5,-81.7 653.5,-81.7"/>
<text text-anchor="start" x="682.8168" y="-89.3" font-family="Helvetica,sans-Serif" font-size="16.00" fill="#000000">2 &gt;</text>
</a>
</g>
</g>
<!-- timer_notes&#45;&gt;timers -->
<g id="edge2" class="edge">
<title>timer_notes:w&#45;&gt;timers:e</title>
<path fill="none" stroke="#000000" d="M745.179,-368.1735C725.9644,-351.8121 743.0349,-296.7 708.5,-296.7"/>
<polygon fill="#000000" stroke="#000000" points="751.3974,-370.21 757.8795,-376.1212 755.1987,-371.455 759,-372.7 759,-372.7 759,-372.7 755.1987,-371.455 760.1205,-369.2788 751.3974,-370.21 751.3974,-370.21"/>
<ellipse fill="none" stroke="#000000" cx="748.3563" cy="-369.214" rx="3.2" ry="3.2"/>
</g>
<!-- timers&#45;&gt;projects -->
<g id="edge6" class="edge">
<title>timers:w&#45;&gt;projects:e</title>
<path fill="none" stroke="#000000" d="M461.173,-161.5457C432.7166,-146.9531 444.9652,-86.7 403.5,-86.7"/>
<polygon fill="#000000" stroke="#000000" points="467.6871,-162.9798 474.7259,-168.2158 471.5936,-163.8399 475.5,-164.7 475.5,-164.7 475.5,-164.7 471.5936,-163.8399 476.2741,-161.1842 467.6871,-162.9798 467.6871,-162.9798"/>
<ellipse fill="none" stroke="#000000" cx="464.562" cy="-162.2918" rx="3.2" ry="3.2"/>
</g>
<!-- timers&#45;&gt;business_partners -->
<g id="edge5" class="edge">
<title>timers:w&#45;&gt;business_partners:e</title>
<path fill="none" stroke="#000000" d="M461.4793,-213.2028C452.4353,-220.451 449.8738,-234.4257 434,-239.7 357.6592,-265.0651 322.7923,-279.7043 253,-239.7 221.7194,-221.7703 248.0548,-169.7 212,-169.7"/>
<polygon fill="#000000" stroke="#000000" points="467.8832,-211.1462 476.6008,-212.1276 471.6916,-209.9231 475.5,-208.7 475.5,-208.7 475.5,-208.7 471.6916,-209.9231 474.3992,-205.2724 467.8832,-211.1462 467.8832,-211.1462"/>
<ellipse fill="none" stroke="#000000" cx="464.8364" cy="-212.1247" rx="3.2" ry="3.2"/>
</g>
<!-- activity_types -->
<g id="node6" class="node">
<title>activity_types</title>
<g id="a_node6"><a xlink:href="../../tables/activity_types.html" xlink:title="activity_types" target="_top">
<polygon fill="#ffffff" stroke="transparent" points="261,-150.2 261,-229.2 426,-229.2 426,-150.2 261,-150.2"/>
<polygon fill="#f5f5f5" stroke="transparent" points="261.5,-199.7 261.5,-228.7 426.5,-228.7 426.5,-199.7 261.5,-199.7"/>
<polygon fill="none" stroke="#000000" points="261.5,-199.7 261.5,-228.7 426.5,-228.7 426.5,-199.7 261.5,-199.7"/>
<text text-anchor="start" x="266.5" y="-206.8" font-family="Helvetica,sans-Serif" font-weight="bold" font-size="16.00" fill="#000000">activity_types</text>
<text text-anchor="start" x="378.2136" y="-209.3" font-family="Helvetica,sans-Serif" font-size="16.00" fill="#000000">[table]</text>
<polygon fill="none" stroke="#000000" points="261.5,-174.7 261.5,-199.7 426.5,-199.7 426.5,-174.7 261.5,-174.7"/>
<text text-anchor="start" x="264.5" y="-182.3" font-family="Helvetica,sans-Serif" font-size="16.00" fill="#000000">...</text>
<polygon fill="#ffffff" stroke="transparent" points="261.5,-149.7 261.5,-174.7 310.5,-174.7 310.5,-149.7 261.5,-149.7"/>
<polygon fill="none" stroke="#000000" points="261.5,-149.7 261.5,-174.7 310.5,-174.7 310.5,-149.7 261.5,-149.7"/>
<text text-anchor="start" x="264.5" y="-157.3" font-family="Helvetica,sans-Serif" font-size="16.00" fill="#000000"> &#160;</text>
<polygon fill="#ffffff" stroke="transparent" points="310.5,-149.7 310.5,-174.7 380.5,-174.7 380.5,-149.7 310.5,-149.7"/>
<polygon fill="none" stroke="#000000" points="310.5,-149.7 310.5,-174.7 380.5,-174.7 380.5,-149.7 310.5,-149.7"/>
<text text-anchor="start" x="330.388" y="-157.3" font-family="Helvetica,sans-Serif" font-size="16.00" fill="#000000">2 rows</text>
<polygon fill="#ffffff" stroke="transparent" points="380.5,-149.7 380.5,-174.7 426.5,-174.7 426.5,-149.7 380.5,-149.7"/>
<polygon fill="none" stroke="#000000" points="380.5,-149.7 380.5,-174.7 426.5,-174.7 426.5,-149.7 380.5,-149.7"/>
<text text-anchor="start" x="400.8168" y="-157.3" font-family="Helvetica,sans-Serif" font-size="16.00" fill="#000000">1 &gt;</text>
</a>
</g>
</g>
<!-- timers&#45;&gt;activity_types -->
<g id="edge4" class="edge">
<title>timers:w&#45;&gt;activity_types:e</title>
<path fill="none" stroke="#000000" d="M460.9909,-186.7C449.6774,-186.7 442.4931,-186.7 426.5,-186.7"/>
<polygon fill="#000000" stroke="#000000" points="467.5,-186.7001 475.5,-190.3 471.5,-186.7 475.5,-186.7 475.5,-186.7 475.5,-186.7 471.5,-186.7 475.5,-183.1 467.5,-186.7001 467.5,-186.7001"/>
<ellipse fill="none" stroke="#000000" cx="464.3" cy="-186.7001" rx="3.2" ry="3.2"/>
</g>
<!-- timer_tags -->
<g id="node5" class="node">
<title>timer_tags</title>
<g id="a_node5"><a xlink:href="../../tables/timer_tags.html" xlink:title="timer_tags" target="_top">
<polygon fill="#ffffff" stroke="transparent" points="813,-184.2 813,-263.2 951,-263.2 951,-184.2 813,-184.2"/>
<polygon fill="#f5f5f5" stroke="transparent" points="813,-233.7 813,-262.7 951,-262.7 951,-233.7 813,-233.7"/>
<polygon fill="none" stroke="#000000" points="813,-233.7 813,-262.7 951,-262.7 951,-233.7 813,-233.7"/>
<text text-anchor="start" x="818" y="-240.8" font-family="Helvetica,sans-Serif" font-weight="bold" font-size="16.00" fill="#000000">timer_tags</text>
<text text-anchor="start" x="902.7136" y="-243.3" font-family="Helvetica,sans-Serif" font-size="16.00" fill="#000000">[table]</text>
<polygon fill="none" stroke="#000000" points="813,-208.7 813,-233.7 951,-233.7 951,-208.7 813,-208.7"/>
<text text-anchor="start" x="816" y="-216.3" font-family="Helvetica,sans-Serif" font-size="16.00" fill="#000000">...</text>
<polygon fill="#ffffff" stroke="transparent" points="813,-183.7 813,-208.7 854,-208.7 854,-183.7 813,-183.7"/>
<polygon fill="none" stroke="#000000" points="813,-183.7 813,-208.7 854,-208.7 854,-183.7 813,-183.7"/>
<text text-anchor="start" x="816" y="-191.3" font-family="Helvetica,sans-Serif" font-size="16.00" fill="#000000">&lt; 2</text>
<polygon fill="#ffffff" stroke="transparent" points="854,-183.7 854,-208.7 930,-208.7 930,-183.7 854,-183.7"/>
<polygon fill="none" stroke="#000000" points="854,-183.7 854,-208.7 930,-208.7 930,-183.7 854,-183.7"/>
<text text-anchor="start" x="862.0992" y="-191.3" font-family="Helvetica,sans-Serif" font-size="16.00" fill="#000000">629 rows</text>
<polygon fill="#ffffff" stroke="transparent" points="930,-183.7 930,-208.7 951,-208.7 951,-183.7 930,-183.7"/>
<polygon fill="none" stroke="#000000" points="930,-183.7 930,-208.7 951,-208.7 951,-183.7 930,-183.7"/>
<text text-anchor="start" x="939.1072" y="-191.3" font-family="Helvetica,sans-Serif" font-size="16.00" fill="#000000"> &#160;</text>
</a>
</g>
</g>
<!-- timer_tags&#45;&gt;timers -->
<g id="edge3" class="edge">
<title>timer_tags:w&#45;&gt;timers:e</title>
<path fill="none" stroke="#000000" d="M799.1198,-225.2265C770.7159,-241.5879 732.9519,-296.7 708.5,-296.7"/>
<polygon fill="#000000" stroke="#000000" points="805.3942,-223.1804 814.1162,-224.1226 809.1971,-221.9402 813,-220.7 813,-220.7 813,-220.7 809.1971,-221.9402 811.8838,-217.2774 805.3942,-223.1804 805.3942,-223.1804"/>
<ellipse fill="none" stroke="#000000" cx="802.3519" cy="-224.1726" rx="3.2" ry="3.2"/>
</g>
</g>
</svg>
