<?xml version="1.0" encoding="UTF-8" standalone="no"?>
<!DOCTYPE svg PUBLIC "-//W3C//DTD SVG 1.1//EN"
 "http://www.w3.org/Graphics/SVG/1.1/DTD/svg11.dtd">
<!-- Generated by graphviz version 2.40.1 (20161225.0304)
 -->
<!-- Title: oneDegreeRelationshipsDiagram Pages: 1 -->
<svg width="1226pt" height="786pt"
 viewBox="0.00 0.00 1226.00 786.20" xmlns="http://www.w3.org/2000/svg" xmlns:xlink="http://www.w3.org/1999/xlink">
<g id="graph0" class="graph" transform="scale(1 1) rotate(0) translate(4 782.2)">
<title>oneDegreeRelationshipsDiagram</title>
<polygon fill="#ffffff" stroke="transparent" points="-4,4 -4,-782.2 1222,-782.2 1222,4 -4,4"/>
<text text-anchor="middle" x="101.8088" y="-8.8" font-family="Helvetica,sans-Serif" font-size="16.00" fill="#000000">Generated by SchemaSpy</text>
<!-- projects -->
<g id="node1" class="node">
<title>projects</title>
<g id="a_node1"><a xlink:href="../../tables/projects.html" xlink:title="projects" target="_top">
<polygon fill="#ffffff" stroke="transparent" points="261,-50.2 261,-327.2 545,-327.2 545,-50.2 261,-50.2"/>
<polygon fill="#f5f5f5" stroke="transparent" points="261,-297.7 261,-326.7 545,-326.7 545,-297.7 261,-297.7"/>
<polygon fill="none" stroke="#000000" points="261,-297.7 261,-326.7 545,-326.7 545,-297.7 261,-297.7"/>
<text text-anchor="start" x="266" y="-304.8" font-family="Helvetica,sans-Serif" font-weight="bold" font-size="16.00" fill="#000000">projects</text>
<text text-anchor="start" x="496.4272" y="-307.3" font-family="Helvetica,sans-Serif" font-size="16.00" fill="#000000">[table]</text>
<polygon fill="none" stroke="#000000" points="261,-275.7 261,-297.7 545,-297.7 545,-275.7 261,-275.7"/>
<image xlink:href="../../images/primaryKeys.png" width="11px" height="12px" preserveAspectRatio="xMinYMin meet" x="266" y="-292.7"/>
<text text-anchor="start" x="281" y="-278.3" font-family="Helvetica,sans-Serif" font-size="16.00" fill="#000000">id</text>
<polygon fill="#ffffff" stroke="transparent" points="261,-253.7 261,-275.7 545,-275.7 545,-253.7 261,-253.7"/>
<polygon fill="none" stroke="#000000" points="261,-253.7 261,-275.7 545,-275.7 545,-253.7 261,-253.7"/>
<text text-anchor="start" x="281" y="-256.3" font-family="Helvetica,sans-Serif" font-size="16.00" fill="#000000">name</text>
<polygon fill="#ffffff" stroke="transparent" points="261,-231.7 261,-253.7 545,-253.7 545,-231.7 261,-231.7"/>
<polygon fill="none" stroke="#000000" points="261,-231.7 261,-253.7 545,-253.7 545,-231.7 261,-231.7"/>
<text text-anchor="start" x="281" y="-234.3" font-family="Helvetica,sans-Serif" font-size="16.00" fill="#000000">status</text>
<polygon fill="#ffffff" stroke="transparent" points="261,-209.7 261,-231.7 545,-231.7 545,-209.7 261,-209.7"/>
<polygon fill="none" stroke="#000000" points="261,-209.7 261,-231.7 545,-231.7 545,-209.7 261,-209.7"/>
<text text-anchor="start" x="281" y="-212.3" font-family="Helvetica,sans-Serif" font-size="16.00" fill="#000000">project_type</text>
<polygon fill="#ffffff" stroke="transparent" points="261,-187.7 261,-209.7 545,-209.7 545,-187.7 261,-187.7"/>
<polygon fill="none" stroke="#000000" points="261,-187.7 261,-209.7 545,-209.7 545,-187.7 261,-187.7"/>
<text text-anchor="start" x="281" y="-190.3" font-family="Helvetica,sans-Serif" font-size="16.00" fill="#000000">priority</text>
<polygon fill="#ffffff" stroke="transparent" points="261,-165.7 261,-187.7 545,-187.7 545,-165.7 261,-165.7"/>
<polygon fill="none" stroke="#000000" points="261,-165.7 261,-187.7 545,-187.7 545,-165.7 261,-165.7"/>
<image xlink:href="../../images/foreignKeys.png" width="11px" height="12px" preserveAspectRatio="xMinYMin meet" x="266" y="-182.7"/>
<text text-anchor="start" x="281" y="-168.3" font-family="Helvetica,sans-Serif" font-size="16.00" fill="#000000">business_partner_id</text>
<polygon fill="#ffffff" stroke="transparent" points="261,-143.7 261,-165.7 545,-165.7 545,-143.7 261,-143.7"/>
<polygon fill="none" stroke="#000000" points="261,-143.7 261,-165.7 545,-165.7 545,-143.7 261,-143.7"/>
<text text-anchor="start" x="281" y="-146.3" font-family="Helvetica,sans-Serif" font-size="16.00" fill="#000000">billable</text>
<polygon fill="#ffffff" stroke="transparent" points="261,-121.7 261,-143.7 545,-143.7 545,-121.7 261,-121.7"/>
<polygon fill="none" stroke="#000000" points="261,-121.7 261,-143.7 545,-143.7 545,-121.7 261,-121.7"/>
<text text-anchor="start" x="281" y="-124.3" font-family="Helvetica,sans-Serif" font-size="16.00" fill="#000000">active</text>
<polygon fill="#ffffff" stroke="transparent" points="261,-99.7 261,-121.7 545,-121.7 545,-99.7 261,-99.7"/>
<polygon fill="none" stroke="#000000" points="261,-99.7 261,-121.7 545,-121.7 545,-99.7 261,-99.7"/>
<text text-anchor="start" x="281" y="-102.3" font-family="Helvetica,sans-Serif" font-size="16.00" fill="#000000">inserted_at</text>
<polygon fill="none" stroke="#000000" points="261,-74.7 261,-99.7 545,-99.7 545,-74.7 261,-74.7"/>
<text text-anchor="start" x="264" y="-82.3" font-family="Helvetica,sans-Serif" font-size="16.00" fill="#000000">...</text>
<polygon fill="#ffffff" stroke="transparent" points="261,-49.7 261,-74.7 376,-74.7 376,-49.7 261,-49.7"/>
<polygon fill="none" stroke="#000000" points="261,-49.7 261,-74.7 376,-74.7 376,-49.7 261,-49.7"/>
<text text-anchor="start" x="264" y="-57.3" font-family="Helvetica,sans-Serif" font-size="16.00" fill="#000000">&lt; 1</text>
<polygon fill="#ffffff" stroke="transparent" points="376,-49.7 376,-74.7 473,-74.7 473,-49.7 376,-49.7"/>
<polygon fill="none" stroke="#000000" points="376,-49.7 376,-74.7 473,-74.7 473,-49.7 376,-49.7"/>
<text text-anchor="start" x="422.888" y="-57.3" font-family="Helvetica,sans-Serif" font-size="16.00" fill="#000000">5 rows</text>
<polygon fill="#ffffff" stroke="transparent" points="473,-49.7 473,-74.7 545,-74.7 545,-49.7 473,-49.7"/>
<polygon fill="none" stroke="#000000" points="473,-49.7 473,-74.7 545,-74.7 545,-49.7 473,-49.7"/>
<text text-anchor="start" x="519.3168" y="-57.3" font-family="Helvetica,sans-Serif" font-size="16.00" fill="#000000">3 &gt;</text>
</a>
</g>
</g>
<!-- business_partners -->
<g id="node2" class="node">
<title>business_partners</title>
<g id="a_node2"><a xlink:href="../../tables/business_partners.html" xlink:title="business_partners" target="_top">
<polygon fill="#ffffff" stroke="transparent" points="8,-176.2 8,-387.2 212,-387.2 212,-176.2 8,-176.2"/>
<polygon fill="#f5f5f5" stroke="transparent" points="8,-357.7 8,-386.7 212,-386.7 212,-357.7 8,-357.7"/>
<polygon fill="none" stroke="#000000" points="8,-357.7 8,-386.7 212,-386.7 212,-357.7 8,-357.7"/>
<text text-anchor="start" x="13" y="-364.8" font-family="Helvetica,sans-Serif" font-weight="bold" font-size="16.00" fill="#000000">business_partners</text>
<text text-anchor="start" x="163.7136" y="-367.3" font-family="Helvetica,sans-Serif" font-size="16.00" fill="#000000">[table]</text>
<polygon fill="none" stroke="#000000" points="8,-335.7 8,-357.7 212,-357.7 212,-335.7 8,-335.7"/>
<image xlink:href="../../images/primaryKeys.png" width="11px" height="12px" preserveAspectRatio="xMinYMin meet" x="13" y="-352.7"/>
<text text-anchor="start" x="44" y="-338.3" font-family="Helvetica,sans-Serif" font-size="16.00" fill="#000000">id</text>
<polygon fill="#ffffff" stroke="transparent" points="8,-313.7 8,-335.7 212,-335.7 212,-313.7 8,-313.7"/>
<polygon fill="none" stroke="#000000" points="8,-313.7 8,-335.7 212,-335.7 212,-313.7 8,-313.7"/>
<text text-anchor="start" x="44" y="-316.3" font-family="Helvetica,sans-Serif" font-size="16.00" fill="#000000">name</text>
<polygon fill="#ffffff" stroke="transparent" points="8,-291.7 8,-313.7 212,-313.7 212,-291.7 8,-291.7"/>
<polygon fill="none" stroke="#000000" points="8,-291.7 8,-313.7 212,-313.7 212,-291.7 8,-291.7"/>
<text text-anchor="start" x="44" y="-294.3" font-family="Helvetica,sans-Serif" font-size="16.00" fill="#000000">customer</text>
<polygon fill="#ffffff" stroke="transparent" points="8,-269.7 8,-291.7 212,-291.7 212,-269.7 8,-269.7"/>
<polygon fill="none" stroke="#000000" points="8,-269.7 8,-291.7 212,-291.7 212,-269.7 8,-269.7"/>
<text text-anchor="start" x="44" y="-272.3" font-family="Helvetica,sans-Serif" font-size="16.00" fill="#000000">supplier</text>
<polygon fill="#ffffff" stroke="transparent" points="8,-247.7 8,-269.7 212,-269.7 212,-247.7 8,-247.7"/>
<polygon fill="none" stroke="#000000" points="8,-247.7 8,-269.7 212,-269.7 212,-247.7 8,-247.7"/>
<text text-anchor="start" x="44" y="-250.3" font-family="Helvetica,sans-Serif" font-size="16.00" fill="#000000">frozen</text>
<polygon fill="#ffffff" stroke="transparent" points="8,-225.7 8,-247.7 212,-247.7 212,-225.7 8,-225.7"/>
<polygon fill="none" stroke="#000000" points="8,-225.7 8,-247.7 212,-247.7 212,-225.7 8,-225.7"/>
<text text-anchor="start" x="44" y="-228.3" font-family="Helvetica,sans-Serif" font-size="16.00" fill="#000000">active</text>
<polygon fill="none" stroke="#000000" points="8,-200.7 8,-225.7 212,-225.7 212,-200.7 8,-200.7"/>
<text text-anchor="start" x="11" y="-208.3" font-family="Helvetica,sans-Serif" font-size="16.00" fill="#000000">...</text>
<polygon fill="#ffffff" stroke="transparent" points="8,-175.7 8,-200.7 76,-200.7 76,-175.7 8,-175.7"/>
<polygon fill="none" stroke="#000000" points="8,-175.7 8,-200.7 76,-200.7 76,-175.7 8,-175.7"/>
<text text-anchor="start" x="11" y="-183.3" font-family="Helvetica,sans-Serif" font-size="16.00" fill="#000000"> &#160;</text>
<polygon fill="#ffffff" stroke="transparent" points="76,-175.7 76,-200.7 156,-200.7 156,-175.7 76,-175.7"/>
<polygon fill="none" stroke="#000000" points="76,-175.7 76,-200.7 156,-200.7 156,-175.7 76,-175.7"/>
<text text-anchor="start" x="105.888" y="-183.3" font-family="Helvetica,sans-Serif" font-size="16.00" fill="#000000">4 rows</text>
<polygon fill="#ffffff" stroke="transparent" points="156,-175.7 156,-200.7 212,-200.7 212,-175.7 156,-175.7"/>
<polygon fill="none" stroke="#000000" points="156,-175.7 156,-200.7 212,-200.7 212,-175.7 156,-175.7"/>
<text text-anchor="start" x="186.3168" y="-183.3" font-family="Helvetica,sans-Serif" font-size="16.00" fill="#000000">3 &gt;</text>
</a>
</g>
</g>
<!-- projects&#45;&gt;business_partners -->
<g id="edge1" class="edge">
<title>projects:w&#45;&gt;business_partners:e</title>
<path fill="none" stroke="#000000" d="M246.7399,-179.2351C197.0399,-200.3825 284.9492,-346.7 212,-346.7"/>
<polygon fill="#000000" stroke="#000000" points="253.1235,-178.1003 261.6301,-180.2444 257.0617,-177.4001 261,-176.7 261,-176.7 261,-176.7 257.0617,-177.4001 260.3699,-173.1556 253.1235,-178.1003 253.1235,-178.1003"/>
<ellipse fill="none" stroke="#000000" cx="249.9729" cy="-178.6604" rx="3.2" ry="3.2"/>
</g>
<!-- timer_notes -->
<g id="node3" class="node">
<title>timer_notes</title>
<g id="a_node3"><a xlink:href="../../tables/timer_notes.html" xlink:title="timer_notes" target="_top">
<polygon fill="#ffffff" stroke="transparent" points="1061,-651.2 1061,-774.2 1210,-774.2 1210,-651.2 1061,-651.2"/>
<polygon fill="#f5f5f5" stroke="transparent" points="1061.5,-744.7 1061.5,-773.7 1210.5,-773.7 1210.5,-744.7 1061.5,-744.7"/>
<polygon fill="none" stroke="#000000" points="1061.5,-744.7 1061.5,-773.7 1210.5,-773.7 1210.5,-744.7 1061.5,-744.7"/>
<text text-anchor="start" x="1066.5" y="-751.8" font-family="Helvetica,sans-Serif" font-weight="bold" font-size="16.00" fill="#000000">timer_notes</text>
<text text-anchor="start" x="1162.2136" y="-754.3" font-family="Helvetica,sans-Serif" font-size="16.00" fill="#000000">[table]</text>
<polygon fill="none" stroke="#000000" points="1061.5,-722.7 1061.5,-744.7 1210.5,-744.7 1210.5,-722.7 1061.5,-722.7"/>
<image xlink:href="../../images/primaryKeys.png" width="11px" height="12px" preserveAspectRatio="xMinYMin meet" x="1066.5" y="-739.7"/>
<text text-anchor="start" x="1097.5" y="-725.3" font-family="Helvetica,sans-Serif" font-size="16.00" fill="#000000">id</text>
<polygon fill="none" stroke="#000000" points="1061.5,-700.7 1061.5,-722.7 1210.5,-722.7 1210.5,-700.7 1061.5,-700.7"/>
<image xlink:href="../../images/foreignKeys.png" width="11px" height="12px" preserveAspectRatio="xMinYMin meet" x="1066.5" y="-717.7"/>
<text text-anchor="start" x="1097.5" y="-703.3" font-family="Helvetica,sans-Serif" font-size="16.00" fill="#000000">timer_id</text>
<polygon fill="none" stroke="#000000" points="1061.5,-675.7 1061.5,-700.7 1210.5,-700.7 1210.5,-675.7 1061.5,-675.7"/>
<text text-anchor="start" x="1064.5" y="-683.3" font-family="Helvetica,sans-Serif" font-size="16.00" fill="#000000">...</text>
<polygon fill="#ffffff" stroke="transparent" points="1061.5,-650.7 1061.5,-675.7 1111.5,-675.7 1111.5,-650.7 1061.5,-650.7"/>
<polygon fill="none" stroke="#000000" points="1061.5,-650.7 1061.5,-675.7 1111.5,-675.7 1111.5,-650.7 1061.5,-650.7"/>
<text text-anchor="start" x="1064.5" y="-658.3" font-family="Helvetica,sans-Serif" font-size="16.00" fill="#000000">&lt; 1</text>
<polygon fill="#ffffff" stroke="transparent" points="1111.5,-650.7 1111.5,-675.7 1184.5,-675.7 1184.5,-650.7 1111.5,-650.7"/>
<polygon fill="none" stroke="#000000" points="1111.5,-650.7 1111.5,-675.7 1184.5,-675.7 1184.5,-650.7 1111.5,-650.7"/>
<text text-anchor="start" x="1125.4936" y="-658.3" font-family="Helvetica,sans-Serif" font-size="16.00" fill="#000000">29 rows</text>
<polygon fill="#ffffff" stroke="transparent" points="1184.5,-650.7 1184.5,-675.7 1210.5,-675.7 1210.5,-650.7 1184.5,-650.7"/>
<polygon fill="none" stroke="#000000" points="1184.5,-650.7 1184.5,-675.7 1210.5,-675.7 1210.5,-650.7 1184.5,-650.7"/>
<text text-anchor="start" x="1198.6072" y="-658.3" font-family="Helvetica,sans-Serif" font-size="16.00" fill="#000000"> &#160;</text>
</a>
</g>
</g>
<!-- timers -->
<g id="node4" class="node">
<title>timers</title>
<g id="a_node4"><a xlink:href="../../tables/timers.html" xlink:title="timers" target="_top">
<polygon fill="#ffffff" stroke="transparent" points="594,-239.2 594,-672.2 1012,-672.2 1012,-239.2 594,-239.2"/>
<polygon fill="#f5f5f5" stroke="transparent" points="596,-640.7 596,-669.7 1010,-669.7 1010,-640.7 596,-640.7"/>
<polygon fill="none" stroke="#000000" points="596,-640.7 596,-669.7 1010,-669.7 1010,-640.7 596,-640.7"/>
<text text-anchor="start" x="601" y="-647.8" font-family="Helvetica,sans-Serif" font-weight="bold" font-size="16.00" fill="#000000">timers</text>
<text text-anchor="start" x="961.4272" y="-650.3" font-family="Helvetica,sans-Serif" font-size="16.00" fill="#000000">[table]</text>
<polygon fill="none" stroke="#000000" points="596,-615.7 596,-640.7 829,-640.7 829,-615.7 596,-615.7"/>
<image xlink:href="../../images/primaryKeys.png" width="11px" height="12px" preserveAspectRatio="xMinYMin meet" x="601" y="-634.2"/>
<text text-anchor="start" x="616" y="-619.8" font-family="Helvetica,sans-Serif" font-size="16.00" fill="#000000">id</text>
<polygon fill="none" stroke="#000000" points="829,-615.7 829,-640.7 1010,-640.7 1010,-615.7 829,-615.7"/>
<text text-anchor="start" x="832" y="-623.3" font-family="Helvetica,sans-Serif" font-size="16.00" fill="#000000">text[2000000000]</text>
<polygon fill="#ffffff" stroke="transparent" points="596,-590.7 596,-615.7 829,-615.7 829,-590.7 596,-590.7"/>
<polygon fill="none" stroke="#000000" points="596,-590.7 596,-615.7 829,-615.7 829,-590.7 596,-590.7"/>
<text text-anchor="start" x="616" y="-594.8" font-family="Helvetica,sans-Serif" font-size="16.00" fill="#000000">start_stamp</text>
<polygon fill="none" stroke="#000000" points="829,-590.7 829,-615.7 1010,-615.7 1010,-590.7 829,-590.7"/>
<text text-anchor="start" x="832" y="-598.3" font-family="Helvetica,sans-Serif" font-size="16.00" fill="#000000">text[2000000000]</text>
<polygon fill="#ffffff" stroke="transparent" points="596,-565.7 596,-590.7 829,-590.7 829,-565.7 596,-565.7"/>
<polygon fill="none" stroke="#000000" points="596,-565.7 596,-590.7 829,-590.7 829,-565.7 596,-565.7"/>
<text text-anchor="start" x="616" y="-569.8" font-family="Helvetica,sans-Serif" font-size="16.00" fill="#000000">end_stamp</text>
<polygon fill="none" stroke="#000000" points="829,-565.7 829,-590.7 1010,-590.7 1010,-565.7 829,-565.7"/>
<text text-anchor="start" x="832" y="-573.3" font-family="Helvetica,sans-Serif" font-size="16.00" fill="#000000">text[2000000000]</text>
<polygon fill="none" stroke="#000000" points="596,-540.7 596,-565.7 829,-565.7 829,-540.7 596,-540.7"/>
<text text-anchor="start" x="616" y="-544.8" font-family="Helvetica,sans-Serif" font-size="16.00" fill="#000000">duration</text>
<polygon fill="none" stroke="#000000" points="829,-540.7 829,-565.7 1010,-565.7 1010,-540.7 829,-540.7"/>
<text text-anchor="start" x="832" y="-548.3" font-family="Helvetica,sans-Serif" font-size="16.00" fill="#000000">integer[2000000000]</text>
<polygon fill="none" stroke="#000000" points="596,-515.7 596,-540.7 829,-540.7 829,-515.7 596,-515.7"/>
<text text-anchor="start" x="616" y="-519.8" font-family="Helvetica,sans-Serif" font-size="16.00" fill="#000000">duration_time_unit</text>
<polygon fill="none" stroke="#000000" points="829,-515.7 829,-540.7 1010,-540.7 1010,-515.7 829,-515.7"/>
<text text-anchor="start" x="832" y="-523.3" font-family="Helvetica,sans-Serif" font-size="16.00" fill="#000000">text[2000000000]</text>
<polygon fill="#ffffff" stroke="transparent" points="596,-490.7 596,-515.7 829,-515.7 829,-490.7 596,-490.7"/>
<polygon fill="none" stroke="#000000" points="596,-490.7 596,-515.7 829,-515.7 829,-490.7 596,-490.7"/>
<text text-anchor="start" x="616" y="-494.8" font-family="Helvetica,sans-Serif" font-size="16.00" fill="#000000">billable</text>
<polygon fill="none" stroke="#000000" points="829,-490.7 829,-515.7 1010,-515.7 1010,-490.7 829,-490.7"/>
<text text-anchor="start" x="832" y="-498.3" font-family="Helvetica,sans-Serif" font-size="16.00" fill="#000000">integer[2000000000]</text>
<polygon fill="#ffffff" stroke="transparent" points="596,-465.7 596,-490.7 829,-490.7 829,-465.7 596,-465.7"/>
<polygon fill="none" stroke="#000000" points="596,-465.7 596,-490.7 829,-490.7 829,-465.7 596,-465.7"/>
<image xlink:href="../../images/foreignKeys.png" width="11px" height="12px" preserveAspectRatio="xMinYMin meet" x="601" y="-484.2"/>
<text text-anchor="start" x="616" y="-469.8" font-family="Helvetica,sans-Serif" font-size="16.00" fill="#000000">business_partner_id</text>
<polygon fill="none" stroke="#000000" points="829,-465.7 829,-490.7 1010,-490.7 1010,-465.7 829,-465.7"/>
<text text-anchor="start" x="832" y="-473.3" font-family="Helvetica,sans-Serif" font-size="16.00" fill="#000000">text[2000000000]</text>
<polygon fill="none" stroke="#000000" points="596,-440.7 596,-465.7 829,-465.7 829,-440.7 596,-440.7"/>
<image xlink:href="../../images/foreignKeys.png" width="11px" height="12px" preserveAspectRatio="xMinYMin meet" x="601" y="-459.2"/>
<text text-anchor="start" x="616" y="-444.8" font-family="Helvetica,sans-Serif" font-size="16.00" fill="#000000">activity_type_id</text>
<polygon fill="none" stroke="#000000" points="829,-440.7 829,-465.7 1010,-465.7 1010,-440.7 829,-440.7"/>
<text text-anchor="start" x="832" y="-448.3" font-family="Helvetica,sans-Serif" font-size="16.00" fill="#000000">text[2000000000]</text>
<polygon fill="none" stroke="#000000" points="596,-415.7 596,-440.7 829,-440.7 829,-415.7 596,-415.7"/>
<text text-anchor="start" x="616" y="-419.8" font-family="Helvetica,sans-Serif" font-size="16.00" fill="#000000">billing_rate</text>
<polygon fill="none" stroke="#000000" points="829,-415.7 829,-440.7 1010,-440.7 1010,-415.7 829,-415.7"/>
<text text-anchor="start" x="831.9088" y="-423.3" font-family="Helvetica,sans-Serif" font-size="16.00" fill="#000000">decimal[2000000000,10]</text>
<polygon fill="none" stroke="#000000" points="596,-390.7 596,-415.7 829,-415.7 829,-390.7 596,-390.7"/>
<text text-anchor="start" x="616" y="-394.8" font-family="Helvetica,sans-Serif" font-size="16.00" fill="#000000">billing_duration</text>
<polygon fill="none" stroke="#000000" points="829,-390.7 829,-415.7 1010,-415.7 1010,-390.7 829,-390.7"/>
<text text-anchor="start" x="832" y="-398.3" font-family="Helvetica,sans-Serif" font-size="16.00" fill="#000000">integer[2000000000]</text>
<polygon fill="none" stroke="#000000" points="596,-365.7 596,-390.7 829,-390.7 829,-365.7 596,-365.7"/>
<text text-anchor="start" x="616" y="-369.8" font-family="Helvetica,sans-Serif" font-size="16.00" fill="#000000">billing_duration_time_unit</text>
<polygon fill="none" stroke="#000000" points="829,-365.7 829,-390.7 1010,-390.7 1010,-365.7 829,-365.7"/>
<text text-anchor="start" x="832" y="-373.3" font-family="Helvetica,sans-Serif" font-size="16.00" fill="#000000">text[2000000000]</text>
<polygon fill="none" stroke="#000000" points="596,-340.7 596,-365.7 829,-365.7 829,-340.7 596,-340.7"/>
<text text-anchor="start" x="616" y="-344.8" font-family="Helvetica,sans-Serif" font-size="16.00" fill="#000000">description</text>
<polygon fill="none" stroke="#000000" points="829,-340.7 829,-365.7 1010,-365.7 1010,-340.7 829,-340.7"/>
<text text-anchor="start" x="832" y="-348.3" font-family="Helvetica,sans-Serif" font-size="16.00" fill="#000000">text[2000000000]</text>
<polygon fill="#ffffff" stroke="transparent" points="596,-315.7 596,-340.7 829,-340.7 829,-315.7 596,-315.7"/>
<polygon fill="none" stroke="#000000" points="596,-315.7 596,-340.7 829,-340.7 829,-315.7 596,-315.7"/>
<image xlink:href="../../images/foreignKeys.png" width="11px" height="12px" preserveAspectRatio="xMinYMin meet" x="601" y="-334.2"/>
<text text-anchor="start" x="616" y="-319.8" font-family="Helvetica,sans-Serif" font-size="16.00" fill="#000000">project_id</text>
<polygon fill="none" stroke="#000000" points="829,-315.7 829,-340.7 1010,-340.7 1010,-315.7 829,-315.7"/>
<text text-anchor="start" x="832" y="-323.3" font-family="Helvetica,sans-Serif" font-size="16.00" fill="#000000">text[2000000000]</text>
<polygon fill="#ffffff" stroke="transparent" points="596,-290.7 596,-315.7 829,-315.7 829,-290.7 596,-290.7"/>
<polygon fill="none" stroke="#000000" points="596,-290.7 596,-315.7 829,-315.7 829,-290.7 596,-290.7"/>
<text text-anchor="start" x="616" y="-294.8" font-family="Helvetica,sans-Serif" font-size="16.00" fill="#000000">inserted_at</text>
<polygon fill="none" stroke="#000000" points="829,-290.7 829,-315.7 1010,-315.7 1010,-290.7 829,-290.7"/>
<text text-anchor="start" x="832" y="-298.3" font-family="Helvetica,sans-Serif" font-size="16.00" fill="#000000">text[2000000000]</text>
<polygon fill="none" stroke="#000000" points="596,-265.7 596,-290.7 829,-290.7 829,-265.7 596,-265.7"/>
<text text-anchor="start" x="616" y="-269.8" font-family="Helvetica,sans-Serif" font-size="16.00" fill="#000000">updated_at</text>
<polygon fill="none" stroke="#000000" points="829,-265.7 829,-290.7 1010,-290.7 1010,-265.7 829,-265.7"/>
<text text-anchor="start" x="832" y="-273.3" font-family="Helvetica,sans-Serif" font-size="16.00" fill="#000000">text[2000000000]</text>
<polygon fill="#ffffff" stroke="transparent" points="596,-240.7 596,-265.7 695,-265.7 695,-240.7 596,-240.7"/>
<polygon fill="none" stroke="#000000" points="596,-240.7 596,-265.7 695,-265.7 695,-240.7 596,-240.7"/>
<text text-anchor="start" x="599" y="-248.3" font-family="Helvetica,sans-Serif" font-size="16.00" fill="#000000">&lt; 3</text>
<polygon fill="#ffffff" stroke="transparent" points="695,-240.7 695,-265.7 829,-265.7 829,-240.7 695,-240.7"/>
<polygon fill="none" stroke="#000000" points="695,-240.7 695,-265.7 829,-265.7 829,-240.7 695,-240.7"/>
<text text-anchor="start" x="769.9936" y="-248.3" font-family="Helvetica,sans-Serif" font-size="16.00" fill="#000000">65 rows</text>
<polygon fill="#ffffff" stroke="transparent" points="829,-240.7 829,-265.7 1010,-265.7 1010,-240.7 829,-240.7"/>
<polygon fill="none" stroke="#000000" points="829,-240.7 829,-265.7 1010,-265.7 1010,-240.7 829,-240.7"/>
<text text-anchor="start" x="984.3168" y="-248.3" font-family="Helvetica,sans-Serif" font-size="16.00" fill="#000000">2 &gt;</text>
<polygon fill="none" stroke="#000000" stroke-width="2" points="595,-240.2 595,-671.2 1011,-671.2 1011,-240.2 595,-240.2"/>
</a>
</g>
</g>
<!-- timer_notes&#45;&gt;timers -->
<g id="edge2" class="edge">
<title>timer_notes:w&#45;&gt;timers:e</title>
<path fill="none" stroke="#000000" d="M1047.7068,-707.4699C1026.2746,-690.5561 1047.4777,-628.7 1010,-628.7"/>
<polygon fill="#000000" stroke="#000000" points="1053.8516,-709.3544 1060.4445,-715.1418 1057.6758,-710.5272 1061.5,-711.7 1061.5,-711.7 1061.5,-711.7 1057.6758,-710.5272 1062.5555,-708.2582 1053.8516,-709.3544 1053.8516,-709.3544"/>
<ellipse fill="none" stroke="#000000" cx="1050.7922" cy="-708.4161" rx="3.2" ry="3.2"/>
</g>
<!-- timers&#45;&gt;projects -->
<g id="edge6" class="edge">
<title>timers:w&#45;&gt;projects:e</title>
<path fill="none" stroke="#000000" d="M582.1568,-323.3123C568.3325,-312.7354 568.1756,-286.7 545,-286.7"/>
<polygon fill="#000000" stroke="#000000" points="588.3739,-325.2828 594.9123,-331.1317 592.1869,-326.4914 596,-327.7 596,-327.7 596,-327.7 592.1869,-326.4914 597.0877,-324.2683 588.3739,-325.2828 588.3739,-325.2828"/>
<ellipse fill="none" stroke="#000000" cx="585.3235" cy="-324.3159" rx="3.2" ry="3.2"/>
</g>
<!-- timers&#45;&gt;business_partners -->
<g id="edge5" class="edge">
<title>timers:w&#45;&gt;business_partners:e</title>
<path fill="none" stroke="#000000" d="M582.0188,-482.3477C572.5106,-488.2164 568.5081,-499.5194 553,-503.7 424.2623,-538.4042 358.5219,-585.204 253,-503.7 195.9249,-459.6158 284.1179,-346.7 212,-346.7"/>
<polygon fill="#000000" stroke="#000000" points="588.2591,-480.7196 596.9088,-482.1834 592.1296,-479.7098 596,-478.7 596,-478.7 596,-478.7 592.1296,-479.7098 595.0912,-475.2166 588.2591,-480.7196 588.2591,-480.7196"/>
<ellipse fill="none" stroke="#000000" cx="585.1628" cy="-481.5275" rx="3.2" ry="3.2"/>
</g>
<!-- activity_types -->
<g id="node6" class="node">
<title>activity_types</title>
<g id="a_node6"><a xlink:href="../../tables/activity_types.html" xlink:title="activity_types" target="_top">
<polygon fill="#ffffff" stroke="transparent" points="320.5,-348.2 320.5,-493.2 485.5,-493.2 485.5,-348.2 320.5,-348.2"/>
<polygon fill="#f5f5f5" stroke="transparent" points="321,-463.7 321,-492.7 486,-492.7 486,-463.7 321,-463.7"/>
<polygon fill="none" stroke="#000000" points="321,-463.7 321,-492.7 486,-492.7 486,-463.7 321,-463.7"/>
<text text-anchor="start" x="326" y="-470.8" font-family="Helvetica,sans-Serif" font-weight="bold" font-size="16.00" fill="#000000">activity_types</text>
<text text-anchor="start" x="437.7136" y="-473.3" font-family="Helvetica,sans-Serif" font-size="16.00" fill="#000000">[table]</text>
<polygon fill="none" stroke="#000000" points="321,-441.7 321,-463.7 486,-463.7 486,-441.7 321,-441.7"/>
<image xlink:href="../../images/primaryKeys.png" width="11px" height="12px" preserveAspectRatio="xMinYMin meet" x="326" y="-458.7"/>
<text text-anchor="start" x="357" y="-444.3" font-family="Helvetica,sans-Serif" font-size="16.00" fill="#000000">id</text>
<polygon fill="#ffffff" stroke="transparent" points="321,-419.7 321,-441.7 486,-441.7 486,-419.7 321,-419.7"/>
<polygon fill="none" stroke="#000000" points="321,-419.7 321,-441.7 486,-441.7 486,-419.7 321,-419.7"/>
<text text-anchor="start" x="357" y="-422.3" font-family="Helvetica,sans-Serif" font-size="16.00" fill="#000000">name</text>
<polygon fill="#ffffff" stroke="transparent" points="321,-397.7 321,-419.7 486,-419.7 486,-397.7 321,-397.7"/>
<polygon fill="none" stroke="#000000" points="321,-397.7 321,-419.7 486,-419.7 486,-397.7 321,-397.7"/>
<text text-anchor="start" x="357" y="-400.3" font-family="Helvetica,sans-Serif" font-size="16.00" fill="#000000">active</text>
<polygon fill="none" stroke="#000000" points="321,-372.7 321,-397.7 486,-397.7 486,-372.7 321,-372.7"/>
<text text-anchor="start" x="324" y="-380.3" font-family="Helvetica,sans-Serif" font-size="16.00" fill="#000000">...</text>
<polygon fill="#ffffff" stroke="transparent" points="321,-347.7 321,-372.7 370,-372.7 370,-347.7 321,-347.7"/>
<polygon fill="none" stroke="#000000" points="321,-347.7 321,-372.7 370,-372.7 370,-347.7 321,-347.7"/>
<text text-anchor="start" x="324" y="-355.3" font-family="Helvetica,sans-Serif" font-size="16.00" fill="#000000"> &#160;</text>
<polygon fill="#ffffff" stroke="transparent" points="370,-347.7 370,-372.7 440,-372.7 440,-347.7 370,-347.7"/>
<polygon fill="none" stroke="#000000" points="370,-347.7 370,-372.7 440,-372.7 440,-347.7 370,-347.7"/>
<text text-anchor="start" x="389.888" y="-355.3" font-family="Helvetica,sans-Serif" font-size="16.00" fill="#000000">5 rows</text>
<polygon fill="#ffffff" stroke="transparent" points="440,-347.7 440,-372.7 486,-372.7 486,-347.7 440,-347.7"/>
<polygon fill="none" stroke="#000000" points="440,-347.7 440,-372.7 486,-372.7 486,-347.7 440,-347.7"/>
<text text-anchor="start" x="460.3168" y="-355.3" font-family="Helvetica,sans-Serif" font-size="16.00" fill="#000000">1 &gt;</text>
</a>
</g>
</g>
<!-- timers&#45;&gt;activity_types -->
<g id="edge4" class="edge">
<title>timers:w&#45;&gt;activity_types:e</title>
<path fill="none" stroke="#000000" d="M581.1783,-452.7C543.9989,-452.7 529.5417,-452.7 486,-452.7"/>
<polygon fill="#000000" stroke="#000000" points="588,-452.7001 596,-456.3 592,-452.7 596,-452.7 596,-452.7 596,-452.7 592,-452.7 596,-449.1 588,-452.7001 588,-452.7001"/>
<ellipse fill="none" stroke="#000000" cx="584.8" cy="-452.7001" rx="3.2" ry="3.2"/>
</g>
<!-- timer_tags -->
<g id="node5" class="node">
<title>timer_tags</title>
<g id="a_node5"><a xlink:href="../../tables/timer_tags.html" xlink:title="timer_tags" target="_top">
<polygon fill="#ffffff" stroke="transparent" points="1066.5,-485.2 1066.5,-630.2 1204.5,-630.2 1204.5,-485.2 1066.5,-485.2"/>
<polygon fill="#f5f5f5" stroke="transparent" points="1066.5,-600.7 1066.5,-629.7 1204.5,-629.7 1204.5,-600.7 1066.5,-600.7"/>
<polygon fill="none" stroke="#000000" points="1066.5,-600.7 1066.5,-629.7 1204.5,-629.7 1204.5,-600.7 1066.5,-600.7"/>
<text text-anchor="start" x="1071.5" y="-607.8" font-family="Helvetica,sans-Serif" font-weight="bold" font-size="16.00" fill="#000000">timer_tags</text>
<text text-anchor="start" x="1156.2136" y="-610.3" font-family="Helvetica,sans-Serif" font-size="16.00" fill="#000000">[table]</text>
<polygon fill="none" stroke="#000000" points="1066.5,-578.7 1066.5,-600.7 1204.5,-600.7 1204.5,-578.7 1066.5,-578.7"/>
<image xlink:href="../../images/primaryKeys.png" width="11px" height="12px" preserveAspectRatio="xMinYMin meet" x="1071.5" y="-595.7"/>
<text text-anchor="start" x="1100.5" y="-581.3" font-family="Helvetica,sans-Serif" font-size="16.00" fill="#000000">id</text>
<polygon fill="#ffffff" stroke="transparent" points="1066.5,-556.7 1066.5,-578.7 1204.5,-578.7 1204.5,-556.7 1066.5,-556.7"/>
<polygon fill="none" stroke="#000000" points="1066.5,-556.7 1066.5,-578.7 1204.5,-578.7 1204.5,-556.7 1066.5,-556.7"/>
<image xlink:href="../../images/foreignKeys.png" width="11px" height="12px" preserveAspectRatio="xMinYMin meet" x="1071.5" y="-573.7"/>
<text text-anchor="start" x="1100.5" y="-559.3" font-family="Helvetica,sans-Serif" font-size="16.00" fill="#000000">tag_id</text>
<polygon fill="#ffffff" stroke="transparent" points="1066.5,-534.7 1066.5,-556.7 1204.5,-556.7 1204.5,-534.7 1066.5,-534.7"/>
<polygon fill="none" stroke="#000000" points="1066.5,-534.7 1066.5,-556.7 1204.5,-556.7 1204.5,-534.7 1066.5,-534.7"/>
<image xlink:href="../../images/foreignKeys.png" width="11px" height="12px" preserveAspectRatio="xMinYMin meet" x="1071.5" y="-551.7"/>
<text text-anchor="start" x="1100.5" y="-537.3" font-family="Helvetica,sans-Serif" font-size="16.00" fill="#000000">timer_id</text>
<polygon fill="none" stroke="#000000" points="1066.5,-509.7 1066.5,-534.7 1204.5,-534.7 1204.5,-509.7 1066.5,-509.7"/>
<text text-anchor="start" x="1069.5" y="-517.3" font-family="Helvetica,sans-Serif" font-size="16.00" fill="#000000">...</text>
<polygon fill="#ffffff" stroke="transparent" points="1066.5,-484.7 1066.5,-509.7 1115.5,-509.7 1115.5,-484.7 1066.5,-484.7"/>
<polygon fill="none" stroke="#000000" points="1066.5,-484.7 1066.5,-509.7 1115.5,-509.7 1115.5,-484.7 1066.5,-484.7"/>
<text text-anchor="start" x="1069.5" y="-492.3" font-family="Helvetica,sans-Serif" font-size="16.00" fill="#000000">&lt; 2</text>
<polygon fill="#ffffff" stroke="transparent" points="1115.5,-484.7 1115.5,-509.7 1179.5,-509.7 1179.5,-484.7 1115.5,-484.7"/>
<polygon fill="none" stroke="#000000" points="1115.5,-484.7 1115.5,-509.7 1179.5,-509.7 1179.5,-484.7 1115.5,-484.7"/>
<text text-anchor="start" x="1129.388" y="-492.3" font-family="Helvetica,sans-Serif" font-size="16.00" fill="#000000">2 rows</text>
<polygon fill="#ffffff" stroke="transparent" points="1179.5,-484.7 1179.5,-509.7 1204.5,-509.7 1204.5,-484.7 1179.5,-484.7"/>
<polygon fill="none" stroke="#000000" points="1179.5,-484.7 1179.5,-509.7 1204.5,-509.7 1204.5,-484.7 1179.5,-484.7"/>
<text text-anchor="start" x="1192.6072" y="-492.3" font-family="Helvetica,sans-Serif" font-size="16.00" fill="#000000"> &#160;</text>
</a>
</g>
</g>
<!-- timer_tags&#45;&gt;timers -->
<g id="edge3" class="edge">
<title>timer_tags:w&#45;&gt;timers:e</title>
<path fill="none" stroke="#000000" d="M1052.4518,-549.7033C1029.2096,-566.2828 1048.6979,-628.7 1010,-628.7"/>
<polygon fill="#000000" stroke="#000000" points="1058.8063,-547.8925 1067.4866,-549.1622 1062.6531,-546.7962 1066.5,-545.7 1066.5,-545.7 1066.5,-545.7 1062.6531,-546.7962 1065.5134,-542.2378 1058.8063,-547.8925 1058.8063,-547.8925"/>
<ellipse fill="none" stroke="#000000" cx="1055.7288" cy="-548.7695" rx="3.2" ry="3.2"/>
</g>
</g>
</svg>
