<?xml version="1.0" encoding="UTF-8" standalone="no"?>
<!DOCTYPE svg PUBLIC "-//W3C//DTD SVG 1.1//EN"
 "http://www.w3.org/Graphics/SVG/1.1/DTD/svg11.dtd">
<!-- Generated by graphviz version 2.40.1 (20161225.0304)
 -->
<!-- Title: oneDegreeRelationshipsDiagram Pages: 1 -->
<svg width="550pt" height="461pt"
 viewBox="0.00 0.00 550.00 461.20" xmlns="http://www.w3.org/2000/svg" xmlns:xlink="http://www.w3.org/1999/xlink">
<g id="graph0" class="graph" transform="scale(1 1) rotate(0) translate(4 457.2)">
<title>oneDegreeRelationshipsDiagram</title>
<polygon fill="#ffffff" stroke="transparent" points="-4,4 -4,-457.2 546,-457.2 546,4 -4,4"/>
<text text-anchor="middle" x="101.8088" y="-8.8" font-family="Helvetica,sans-Serif" font-size="16.00" fill="#000000">Generated by SchemaSpy</text>
<!-- timer_tags -->
<g id="node1" class="node">
<title>timer_tags</title>
<g id="a_node1"><a xlink:href="../../tables/timer_tags.html" xlink:title="timer_tags" target="_top">
<polygon fill="#ffffff" stroke="transparent" points="290,-167.7 290,-325.7 534,-325.7 534,-167.7 290,-167.7"/>
<polygon fill="#f5f5f5" stroke="transparent" points="292,-294.7 292,-323.7 532,-323.7 532,-294.7 292,-294.7"/>
<polygon fill="none" stroke="#000000" points="292,-294.7 292,-323.7 532,-323.7 532,-294.7 292,-294.7"/>
<text text-anchor="start" x="297" y="-301.8" font-family="Helvetica,sans-Serif" font-weight="bold" font-size="16.00" fill="#000000">timer_tags</text>
<text text-anchor="start" x="483.4272" y="-304.3" font-family="Helvetica,sans-Serif" font-size="16.00" fill="#000000">[table]</text>
<polygon fill="#ffffff" stroke="transparent" points="292,-269.7 292,-294.7 403,-294.7 403,-269.7 292,-269.7"/>
<polygon fill="none" stroke="#000000" points="292,-269.7 292,-294.7 403,-294.7 403,-269.7 292,-269.7"/>
<image xlink:href="../../images/foreignKeys.png" width="11px" height="12px" preserveAspectRatio="xMinYMin meet" x="297" y="-288.2"/>
<text text-anchor="start" x="312" y="-273.8" font-family="Helvetica,sans-Serif" font-size="16.00" fill="#000000">timer_id</text>
<polygon fill="none" stroke="#000000" points="403,-269.7 403,-294.7 532,-294.7 532,-269.7 403,-269.7"/>
<text text-anchor="start" x="405.688" y="-277.3" font-family="Helvetica,sans-Serif" font-size="16.00" fill="#000000">text[2000000000]</text>
<polygon fill="#ffffff" stroke="transparent" points="292,-244.7 292,-269.7 403,-269.7 403,-244.7 292,-244.7"/>
<polygon fill="none" stroke="#000000" points="292,-244.7 292,-269.7 403,-269.7 403,-244.7 292,-244.7"/>
<image xlink:href="../../images/foreignKeys.png" width="11px" height="12px" preserveAspectRatio="xMinYMin meet" x="297" y="-263.2"/>
<text text-anchor="start" x="312" y="-248.8" font-family="Helvetica,sans-Serif" font-size="16.00" fill="#000000">tag_id</text>
<polygon fill="none" stroke="#000000" points="403,-244.7 403,-269.7 532,-269.7 532,-244.7 403,-244.7"/>
<text text-anchor="start" x="405.688" y="-252.3" font-family="Helvetica,sans-Serif" font-size="16.00" fill="#000000">text[2000000000]</text>
<polygon fill="none" stroke="#000000" points="292,-219.7 292,-244.7 403,-244.7 403,-219.7 292,-219.7"/>
<text text-anchor="start" x="312" y="-223.8" font-family="Helvetica,sans-Serif" font-size="16.00" fill="#000000">inserted_at</text>
<polygon fill="none" stroke="#000000" points="403,-219.7 403,-244.7 532,-244.7 532,-219.7 403,-219.7"/>
<text text-anchor="start" x="405.688" y="-227.3" font-family="Helvetica,sans-Serif" font-size="16.00" fill="#000000">text[2000000000]</text>
<polygon fill="none" stroke="#000000" points="292,-194.7 292,-219.7 403,-219.7 403,-194.7 292,-194.7"/>
<text text-anchor="start" x="312" y="-198.8" font-family="Helvetica,sans-Serif" font-size="16.00" fill="#000000">updated_at</text>
<polygon fill="none" stroke="#000000" points="403,-194.7 403,-219.7 532,-219.7 532,-194.7 403,-194.7"/>
<text text-anchor="start" x="405.688" y="-202.3" font-family="Helvetica,sans-Serif" font-size="16.00" fill="#000000">text[2000000000]</text>
<polygon fill="#ffffff" stroke="transparent" points="292,-169.7 292,-194.7 326,-194.7 326,-169.7 292,-169.7"/>
<polygon fill="none" stroke="#000000" points="292,-169.7 292,-194.7 326,-194.7 326,-169.7 292,-169.7"/>
<text text-anchor="start" x="295" y="-177.3" font-family="Helvetica,sans-Serif" font-size="16.00" fill="#000000">&lt; 2</text>
<polygon fill="#ffffff" stroke="transparent" points="326,-169.7 326,-194.7 403,-194.7 403,-169.7 326,-169.7"/>
<polygon fill="none" stroke="#000000" points="326,-169.7 326,-194.7 403,-194.7 403,-169.7 326,-169.7"/>
<text text-anchor="start" x="335.0992" y="-177.3" font-family="Helvetica,sans-Serif" font-size="16.00" fill="#000000">629 rows</text>
<polygon fill="#ffffff" stroke="transparent" points="403,-169.7 403,-194.7 532,-194.7 532,-169.7 403,-169.7"/>
<polygon fill="none" stroke="#000000" points="403,-169.7 403,-194.7 532,-194.7 532,-169.7 403,-169.7"/>
<text text-anchor="start" x="506.3168" y="-177.3" font-family="Helvetica,sans-Serif" font-size="16.00" fill="#000000">0 &gt;</text>
<polygon fill="none" stroke="#000000" stroke-width="2" points="291,-168.7 291,-324.7 533,-324.7 533,-168.7 291,-168.7"/>
</a>
</g>
</g>
<!-- tags -->
<g id="node2" class="node">
<title>tags</title>
<g id="a_node2"><a xlink:href="../../tables/tags.html" xlink:title="tags" target="_top">
<polygon fill="#ffffff" stroke="transparent" points="68.5,-50.2 68.5,-173.2 180.5,-173.2 180.5,-50.2 68.5,-50.2"/>
<polygon fill="#f5f5f5" stroke="transparent" points="68.5,-143.7 68.5,-172.7 180.5,-172.7 180.5,-143.7 68.5,-143.7"/>
<polygon fill="none" stroke="#000000" points="68.5,-143.7 68.5,-172.7 180.5,-172.7 180.5,-143.7 68.5,-143.7"/>
<text text-anchor="start" x="73.3824" y="-150.8" font-family="Helvetica,sans-Serif" font-weight="bold" font-size="16.00" fill="#000000">tags</text>
<text text-anchor="start" x="131.9272" y="-153.3" font-family="Helvetica,sans-Serif" font-size="16.00" fill="#000000">[table]</text>
<polygon fill="none" stroke="#000000" points="68.5,-121.7 68.5,-143.7 180.5,-143.7 180.5,-121.7 68.5,-121.7"/>
<image xlink:href="../../images/primaryKeys.png" width="11px" height="12px" preserveAspectRatio="xMinYMin meet" x="73.5" y="-138.7"/>
<text text-anchor="start" x="88.5" y="-124.3" font-family="Helvetica,sans-Serif" font-size="16.00" fill="#000000">id</text>
<polygon fill="#ffffff" stroke="transparent" points="68.5,-99.7 68.5,-121.7 180.5,-121.7 180.5,-99.7 68.5,-99.7"/>
<polygon fill="none" stroke="#000000" points="68.5,-99.7 68.5,-121.7 180.5,-121.7 180.5,-99.7 68.5,-99.7"/>
<text text-anchor="start" x="88.5" y="-102.3" font-family="Helvetica,sans-Serif" font-size="16.00" fill="#000000">name</text>
<polygon fill="none" stroke="#000000" points="68.5,-74.7 68.5,-99.7 180.5,-99.7 180.5,-74.7 68.5,-74.7"/>
<text text-anchor="start" x="71.5" y="-82.3" font-family="Helvetica,sans-Serif" font-size="16.00" fill="#000000">...</text>
<polygon fill="#ffffff" stroke="transparent" points="68.5,-49.7 68.5,-74.7 82.5,-74.7 82.5,-49.7 68.5,-49.7"/>
<polygon fill="none" stroke="#000000" points="68.5,-49.7 68.5,-74.7 82.5,-74.7 82.5,-49.7 68.5,-49.7"/>
<text text-anchor="start" x="71.0536" y="-57.3" font-family="Helvetica,sans-Serif" font-size="16.00" fill="#000000"> &#160;</text>
<polygon fill="#ffffff" stroke="transparent" points="82.5,-49.7 82.5,-74.7 152.5,-74.7 152.5,-49.7 82.5,-49.7"/>
<polygon fill="none" stroke="#000000" points="82.5,-49.7 82.5,-74.7 152.5,-74.7 152.5,-49.7 82.5,-49.7"/>
<text text-anchor="start" x="85.0496" y="-57.3" font-family="Helvetica,sans-Serif" font-size="16.00" fill="#000000">167 rows</text>
<polygon fill="#ffffff" stroke="transparent" points="152.5,-49.7 152.5,-74.7 180.5,-74.7 180.5,-49.7 152.5,-49.7"/>
<polygon fill="none" stroke="#000000" points="152.5,-49.7 152.5,-74.7 180.5,-74.7 180.5,-49.7 152.5,-49.7"/>
<text text-anchor="start" x="155.1584" y="-57.3" font-family="Helvetica,sans-Serif" font-size="16.00" fill="#000000">3 &gt;</text>
</a>
</g>
</g>
<!-- timer_tags&#45;&gt;tags -->
<g id="edge1" class="edge">
<title>timer_tags:w&#45;&gt;tags:e</title>
<path fill="none" stroke="#000000" d="M277.7903,-254.4478C259.3129,-243.5297 270.2706,-207.5353 249,-183.7 223.7281,-155.3809 218.4558,-132.7 180.5,-132.7"/>
<polygon fill="#000000" stroke="#000000" points="284.2016,-255.9151 291.1968,-261.2093 288.1008,-256.8076 292,-257.7 292,-257.7 292,-257.7 288.1008,-256.8076 292.8032,-254.1907 284.2016,-255.9151 284.2016,-255.9151"/>
<ellipse fill="none" stroke="#000000" cx="281.0823" cy="-255.2012" rx="3.2" ry="3.2"/>
</g>
<!-- timers -->
<g id="node3" class="node">
<title>timers</title>
<g id="a_node3"><a xlink:href="../../tables/timers.html" xlink:title="timers" target="_top">
<polygon fill="#ffffff" stroke="transparent" points="8,-194.2 8,-449.2 241,-449.2 241,-194.2 8,-194.2"/>
<polygon fill="#f5f5f5" stroke="transparent" points="8.5,-419.7 8.5,-448.7 241.5,-448.7 241.5,-419.7 8.5,-419.7"/>
<polygon fill="none" stroke="#000000" points="8.5,-419.7 8.5,-448.7 241.5,-448.7 241.5,-419.7 8.5,-419.7"/>
<text text-anchor="start" x="13.5" y="-426.8" font-family="Helvetica,sans-Serif" font-weight="bold" font-size="16.00" fill="#000000">timers</text>
<text text-anchor="start" x="192.9272" y="-429.3" font-family="Helvetica,sans-Serif" font-size="16.00" fill="#000000">[table]</text>
<polygon fill="none" stroke="#000000" points="8.5,-397.7 8.5,-419.7 241.5,-419.7 241.5,-397.7 8.5,-397.7"/>
<image xlink:href="../../images/primaryKeys.png" width="11px" height="12px" preserveAspectRatio="xMinYMin meet" x="13.5" y="-414.7"/>
<text text-anchor="start" x="28.5" y="-400.3" font-family="Helvetica,sans-Serif" font-size="16.00" fill="#000000">id</text>
<polygon fill="#ffffff" stroke="transparent" points="8.5,-375.7 8.5,-397.7 241.5,-397.7 241.5,-375.7 8.5,-375.7"/>
<polygon fill="none" stroke="#000000" points="8.5,-375.7 8.5,-397.7 241.5,-397.7 241.5,-375.7 8.5,-375.7"/>
<text text-anchor="start" x="28.5" y="-378.3" font-family="Helvetica,sans-Serif" font-size="16.00" fill="#000000">start_stamp</text>
<polygon fill="#ffffff" stroke="transparent" points="8.5,-353.7 8.5,-375.7 241.5,-375.7 241.5,-353.7 8.5,-353.7"/>
<polygon fill="none" stroke="#000000" points="8.5,-353.7 8.5,-375.7 241.5,-375.7 241.5,-353.7 8.5,-353.7"/>
<text text-anchor="start" x="28.5" y="-356.3" font-family="Helvetica,sans-Serif" font-size="16.00" fill="#000000">end_stamp</text>
<polygon fill="#ffffff" stroke="transparent" points="8.5,-331.7 8.5,-353.7 241.5,-353.7 241.5,-331.7 8.5,-331.7"/>
<polygon fill="none" stroke="#000000" points="8.5,-331.7 8.5,-353.7 241.5,-353.7 241.5,-331.7 8.5,-331.7"/>
<text text-anchor="start" x="28.5" y="-334.3" font-family="Helvetica,sans-Serif" font-size="16.00" fill="#000000">billable</text>
<polygon fill="#ffffff" stroke="transparent" points="8.5,-309.7 8.5,-331.7 241.5,-331.7 241.5,-309.7 8.5,-309.7"/>
<polygon fill="none" stroke="#000000" points="8.5,-309.7 8.5,-331.7 241.5,-331.7 241.5,-309.7 8.5,-309.7"/>
<image xlink:href="../../images/foreignKeys.png" width="11px" height="12px" preserveAspectRatio="xMinYMin meet" x="13.5" y="-326.7"/>
<text text-anchor="start" x="28.5" y="-312.3" font-family="Helvetica,sans-Serif" font-size="16.00" fill="#000000">business_partner_id</text>
<polygon fill="none" stroke="#000000" points="8.5,-287.7 8.5,-309.7 241.5,-309.7 241.5,-287.7 8.5,-287.7"/>
<image xlink:href="../../images/foreignKeys.png" width="11px" height="12px" preserveAspectRatio="xMinYMin meet" x="13.5" y="-304.7"/>
<text text-anchor="start" x="28.5" y="-290.3" font-family="Helvetica,sans-Serif" font-size="16.00" fill="#000000">activity_type_id</text>
<polygon fill="#ffffff" stroke="transparent" points="8.5,-265.7 8.5,-287.7 241.5,-287.7 241.5,-265.7 8.5,-265.7"/>
<polygon fill="none" stroke="#000000" points="8.5,-265.7 8.5,-287.7 241.5,-287.7 241.5,-265.7 8.5,-265.7"/>
<image xlink:href="../../images/foreignKeys.png" width="11px" height="12px" preserveAspectRatio="xMinYMin meet" x="13.5" y="-282.7"/>
<text text-anchor="start" x="28.5" y="-268.3" font-family="Helvetica,sans-Serif" font-size="16.00" fill="#000000">project_id</text>
<polygon fill="#ffffff" stroke="transparent" points="8.5,-243.7 8.5,-265.7 241.5,-265.7 241.5,-243.7 8.5,-243.7"/>
<polygon fill="none" stroke="#000000" points="8.5,-243.7 8.5,-265.7 241.5,-265.7 241.5,-243.7 8.5,-243.7"/>
<text text-anchor="start" x="28.5" y="-246.3" font-family="Helvetica,sans-Serif" font-size="16.00" fill="#000000">inserted_at</text>
<polygon fill="none" stroke="#000000" points="8.5,-218.7 8.5,-243.7 241.5,-243.7 241.5,-218.7 8.5,-218.7"/>
<text text-anchor="start" x="11.5" y="-226.3" font-family="Helvetica,sans-Serif" font-size="16.00" fill="#000000">...</text>
<polygon fill="#ffffff" stroke="transparent" points="8.5,-193.7 8.5,-218.7 89.5,-218.7 89.5,-193.7 8.5,-193.7"/>
<polygon fill="none" stroke="#000000" points="8.5,-193.7 8.5,-218.7 89.5,-218.7 89.5,-193.7 8.5,-193.7"/>
<text text-anchor="start" x="11.5" y="-201.3" font-family="Helvetica,sans-Serif" font-size="16.00" fill="#000000">&lt; 3</text>
<polygon fill="#ffffff" stroke="transparent" points="89.5,-193.7 89.5,-218.7 186.5,-218.7 186.5,-193.7 89.5,-193.7"/>
<polygon fill="none" stroke="#000000" points="89.5,-193.7 89.5,-218.7 186.5,-218.7 186.5,-193.7 89.5,-193.7"/>
<text text-anchor="start" x="118.5992" y="-201.3" font-family="Helvetica,sans-Serif" font-size="16.00" fill="#000000">277 rows</text>
<polygon fill="#ffffff" stroke="transparent" points="186.5,-193.7 186.5,-218.7 241.5,-218.7 241.5,-193.7 186.5,-193.7"/>
<polygon fill="none" stroke="#000000" points="186.5,-193.7 186.5,-218.7 241.5,-218.7 241.5,-193.7 186.5,-193.7"/>
<text text-anchor="start" x="215.8168" y="-201.3" font-family="Helvetica,sans-Serif" font-size="16.00" fill="#000000">2 &gt;</text>
</a>
</g>
</g>
<!-- timer_tags&#45;&gt;timers -->
<g id="edge2" class="edge">
<title>timer_tags:w&#45;&gt;timers:e</title>
<path fill="none" stroke="#000000" d="M277.8154,-286.0702C244.1284,-306.1077 295.9387,-408.7 241.5,-408.7"/>
<polygon fill="#000000" stroke="#000000" points="284.2167,-284.5493 292.8322,-286.2025 288.1083,-283.6247 292,-282.7 292,-282.7 292,-282.7 288.1083,-283.6247 291.1678,-279.1975 284.2167,-284.5493 284.2167,-284.5493"/>
<ellipse fill="none" stroke="#000000" cx="281.1033" cy="-285.2891" rx="3.2" ry="3.2"/>
</g>
</g>
</svg>
