<?xml version="1.0" encoding="UTF-8" standalone="no"?>
<!DOCTYPE svg PUBLIC "-//W3C//DTD SVG 1.1//EN"
 "http://www.w3.org/Graphics/SVG/1.1/DTD/svg11.dtd">
<!-- Generated by graphviz version 2.40.1 (20161225.0304)
 -->
<!-- Title: oneDegreeRelationshipsDiagram Pages: 1 -->
<svg width="550pt" height="461pt"
 viewBox="0.00 0.00 550.00 461.20" xmlns="http://www.w3.org/2000/svg" xmlns:xlink="http://www.w3.org/1999/xlink">
<g id="graph0" class="graph" transform="scale(1 1) rotate(0) translate(4 457.2)">
<title>oneDegreeRelationshipsDiagram</title>
<polygon fill="#ffffff" stroke="transparent" points="-4,4 -4,-457.2 546,-457.2 546,4 -4,4"/>
<text text-anchor="middle" x="101.8088" y="-8.8" font-family="Helvetica,sans-Serif" font-size="16.00" fill="#000000">Generated by SchemaSpy</text>
<!-- timer_tags -->
<g id="node1" class="node">
<title>timer_tags</title>
<g id="a_node1"><a xlink:href="../../tables/timer_tags.html" xlink:title="timer_tags" target="_top">
<polygon fill="#ffffff" stroke="transparent" points="290,-235.2 290,-418.2 534,-418.2 534,-235.2 290,-235.2"/>
<polygon fill="#f5f5f5" stroke="transparent" points="292,-386.7 292,-415.7 532,-415.7 532,-386.7 292,-386.7"/>
<polygon fill="none" stroke="#000000" points="292,-386.7 292,-415.7 532,-415.7 532,-386.7 292,-386.7"/>
<text text-anchor="start" x="297" y="-393.8" font-family="Helvetica,sans-Serif" font-weight="bold" font-size="16.00" fill="#000000">timer_tags</text>
<text text-anchor="start" x="483.4272" y="-396.3" font-family="Helvetica,sans-Serif" font-size="16.00" fill="#000000">[table]</text>
<polygon fill="none" stroke="#000000" points="292,-361.7 292,-386.7 403,-386.7 403,-361.7 292,-361.7"/>
<image xlink:href="../../images/primaryKeys.png" width="11px" height="12px" preserveAspectRatio="xMinYMin meet" x="297" y="-380.2"/>
<text text-anchor="start" x="312" y="-365.8" font-family="Helvetica,sans-Serif" font-size="16.00" fill="#000000">id</text>
<polygon fill="none" stroke="#000000" points="403,-361.7 403,-386.7 532,-386.7 532,-361.7 403,-361.7"/>
<text text-anchor="start" x="405.688" y="-369.3" font-family="Helvetica,sans-Serif" font-size="16.00" fill="#000000">text[2000000000]</text>
<polygon fill="#ffffff" stroke="transparent" points="292,-336.7 292,-361.7 403,-361.7 403,-336.7 292,-336.7"/>
<polygon fill="none" stroke="#000000" points="292,-336.7 292,-361.7 403,-361.7 403,-336.7 292,-336.7"/>
<image xlink:href="../../images/foreignKeys.png" width="11px" height="12px" preserveAspectRatio="xMinYMin meet" x="297" y="-355.2"/>
<text text-anchor="start" x="312" y="-340.8" font-family="Helvetica,sans-Serif" font-size="16.00" fill="#000000">tag_id</text>
<polygon fill="none" stroke="#000000" points="403,-336.7 403,-361.7 532,-361.7 532,-336.7 403,-336.7"/>
<text text-anchor="start" x="405.688" y="-344.3" font-family="Helvetica,sans-Serif" font-size="16.00" fill="#000000">text[2000000000]</text>
<polygon fill="#ffffff" stroke="transparent" points="292,-311.7 292,-336.7 403,-336.7 403,-311.7 292,-311.7"/>
<polygon fill="none" stroke="#000000" points="292,-311.7 292,-336.7 403,-336.7 403,-311.7 292,-311.7"/>
<image xlink:href="../../images/foreignKeys.png" width="11px" height="12px" preserveAspectRatio="xMinYMin meet" x="297" y="-330.2"/>
<text text-anchor="start" x="312" y="-315.8" font-family="Helvetica,sans-Serif" font-size="16.00" fill="#000000">timer_id</text>
<polygon fill="none" stroke="#000000" points="403,-311.7 403,-336.7 532,-336.7 532,-311.7 403,-311.7"/>
<text text-anchor="start" x="405.688" y="-319.3" font-family="Helvetica,sans-Serif" font-size="16.00" fill="#000000">text[2000000000]</text>
<polygon fill="none" stroke="#000000" points="292,-286.7 292,-311.7 403,-311.7 403,-286.7 292,-286.7"/>
<text text-anchor="start" x="312" y="-290.8" font-family="Helvetica,sans-Serif" font-size="16.00" fill="#000000">inserted_at</text>
<polygon fill="none" stroke="#000000" points="403,-286.7 403,-311.7 532,-311.7 532,-286.7 403,-286.7"/>
<text text-anchor="start" x="405.688" y="-294.3" font-family="Helvetica,sans-Serif" font-size="16.00" fill="#000000">text[2000000000]</text>
<polygon fill="none" stroke="#000000" points="292,-261.7 292,-286.7 403,-286.7 403,-261.7 292,-261.7"/>
<text text-anchor="start" x="312" y="-265.8" font-family="Helvetica,sans-Serif" font-size="16.00" fill="#000000">updated_at</text>
<polygon fill="none" stroke="#000000" points="403,-261.7 403,-286.7 532,-286.7 532,-261.7 403,-261.7"/>
<text text-anchor="start" x="405.688" y="-269.3" font-family="Helvetica,sans-Serif" font-size="16.00" fill="#000000">text[2000000000]</text>
<polygon fill="#ffffff" stroke="transparent" points="292,-236.7 292,-261.7 335,-261.7 335,-236.7 292,-236.7"/>
<polygon fill="none" stroke="#000000" points="292,-236.7 292,-261.7 335,-261.7 335,-236.7 292,-236.7"/>
<text text-anchor="start" x="295" y="-244.3" font-family="Helvetica,sans-Serif" font-size="16.00" fill="#000000">&lt; 2</text>
<polygon fill="#ffffff" stroke="transparent" points="335,-236.7 335,-261.7 403,-261.7 403,-236.7 335,-236.7"/>
<polygon fill="none" stroke="#000000" points="335,-236.7 335,-261.7 403,-261.7 403,-236.7 335,-236.7"/>
<text text-anchor="start" x="352.888" y="-244.3" font-family="Helvetica,sans-Serif" font-size="16.00" fill="#000000">2 rows</text>
<polygon fill="#ffffff" stroke="transparent" points="403,-236.7 403,-261.7 532,-261.7 532,-236.7 403,-236.7"/>
<polygon fill="none" stroke="#000000" points="403,-236.7 403,-261.7 532,-261.7 532,-236.7 403,-236.7"/>
<text text-anchor="start" x="506.3168" y="-244.3" font-family="Helvetica,sans-Serif" font-size="16.00" fill="#000000">0 &gt;</text>
<polygon fill="none" stroke="#000000" stroke-width="2" points="291,-236.2 291,-417.2 533,-417.2 533,-236.2 291,-236.2"/>
</a>
</g>
</g>
<!-- tags -->
<g id="node2" class="node">
<title>tags</title>
<g id="a_node2"><a xlink:href="../../tables/tags.html" xlink:title="tags" target="_top">
<polygon fill="#ffffff" stroke="transparent" points="68.5,-326.2 68.5,-449.2 180.5,-449.2 180.5,-326.2 68.5,-326.2"/>
<polygon fill="#f5f5f5" stroke="transparent" points="68.5,-419.7 68.5,-448.7 180.5,-448.7 180.5,-419.7 68.5,-419.7"/>
<polygon fill="none" stroke="#000000" points="68.5,-419.7 68.5,-448.7 180.5,-448.7 180.5,-419.7 68.5,-419.7"/>
<text text-anchor="start" x="73.3824" y="-426.8" font-family="Helvetica,sans-Serif" font-weight="bold" font-size="16.00" fill="#000000">tags</text>
<text text-anchor="start" x="131.9272" y="-429.3" font-family="Helvetica,sans-Serif" font-size="16.00" fill="#000000">[table]</text>
<polygon fill="none" stroke="#000000" points="68.5,-397.7 68.5,-419.7 180.5,-419.7 180.5,-397.7 68.5,-397.7"/>
<image xlink:href="../../images/primaryKeys.png" width="11px" height="12px" preserveAspectRatio="xMinYMin meet" x="73.5" y="-414.7"/>
<text text-anchor="start" x="88.5" y="-400.3" font-family="Helvetica,sans-Serif" font-size="16.00" fill="#000000">id</text>
<polygon fill="#ffffff" stroke="transparent" points="68.5,-375.7 68.5,-397.7 180.5,-397.7 180.5,-375.7 68.5,-375.7"/>
<polygon fill="none" stroke="#000000" points="68.5,-375.7 68.5,-397.7 180.5,-397.7 180.5,-375.7 68.5,-375.7"/>
<text text-anchor="start" x="88.5" y="-378.3" font-family="Helvetica,sans-Serif" font-size="16.00" fill="#000000">name</text>
<polygon fill="none" stroke="#000000" points="68.5,-350.7 68.5,-375.7 180.5,-375.7 180.5,-350.7 68.5,-350.7"/>
<text text-anchor="start" x="71.5" y="-358.3" font-family="Helvetica,sans-Serif" font-size="16.00" fill="#000000">...</text>
<polygon fill="#ffffff" stroke="transparent" points="68.5,-325.7 68.5,-350.7 90.5,-350.7 90.5,-325.7 68.5,-325.7"/>
<polygon fill="none" stroke="#000000" points="68.5,-325.7 68.5,-350.7 90.5,-350.7 90.5,-325.7 68.5,-325.7"/>
<text text-anchor="start" x="71.5" y="-333.3" font-family="Helvetica,sans-Serif" font-size="16.00" fill="#000000"> &#160;</text>
<polygon fill="#ffffff" stroke="transparent" points="90.5,-325.7 90.5,-350.7 147.5,-350.7 147.5,-325.7 90.5,-325.7"/>
<polygon fill="none" stroke="#000000" points="90.5,-325.7 90.5,-350.7 147.5,-350.7 147.5,-325.7 90.5,-325.7"/>
<text text-anchor="start" x="97.388" y="-333.3" font-family="Helvetica,sans-Serif" font-size="16.00" fill="#000000">5 rows</text>
<polygon fill="#ffffff" stroke="transparent" points="147.5,-325.7 147.5,-350.7 180.5,-350.7 180.5,-325.7 147.5,-325.7"/>
<polygon fill="none" stroke="#000000" points="147.5,-325.7 147.5,-350.7 180.5,-350.7 180.5,-325.7 147.5,-325.7"/>
<text text-anchor="start" x="154.8168" y="-333.3" font-family="Helvetica,sans-Serif" font-size="16.00" fill="#000000">2 &gt;</text>
</a>
</g>
</g>
<!-- timer_tags&#45;&gt;tags -->
<g id="edge1" class="edge">
<title>timer_tags:w&#45;&gt;tags:e</title>
<path fill="none" stroke="#000000" d="M277.633,-351.1584C235.5544,-360.2439 231.3095,-408.7 180.5,-408.7"/>
<polygon fill="#000000" stroke="#000000" points="284.0409,-350.508 292.3636,-353.2816 288.0205,-350.104 292,-349.7 292,-349.7 292,-349.7 288.0205,-350.104 291.6364,-346.1184 284.0409,-350.508 284.0409,-350.508"/>
<ellipse fill="none" stroke="#000000" cx="280.8573" cy="-350.8312" rx="3.2" ry="3.2"/>
</g>
<!-- timers -->
<g id="node3" class="node">
<title>timers</title>
<g id="a_node3"><a xlink:href="../../tables/timers.html" xlink:title="timers" target="_top">
<polygon fill="#ffffff" stroke="transparent" points="8,-50.2 8,-305.2 241,-305.2 241,-50.2 8,-50.2"/>
<polygon fill="#f5f5f5" stroke="transparent" points="8.5,-275.7 8.5,-304.7 241.5,-304.7 241.5,-275.7 8.5,-275.7"/>
<polygon fill="none" stroke="#000000" points="8.5,-275.7 8.5,-304.7 241.5,-304.7 241.5,-275.7 8.5,-275.7"/>
<text text-anchor="start" x="13.5" y="-282.8" font-family="Helvetica,sans-Serif" font-weight="bold" font-size="16.00" fill="#000000">timers</text>
<text text-anchor="start" x="192.9272" y="-285.3" font-family="Helvetica,sans-Serif" font-size="16.00" fill="#000000">[table]</text>
<polygon fill="none" stroke="#000000" points="8.5,-253.7 8.5,-275.7 241.5,-275.7 241.5,-253.7 8.5,-253.7"/>
<image xlink:href="../../images/primaryKeys.png" width="11px" height="12px" preserveAspectRatio="xMinYMin meet" x="13.5" y="-270.7"/>
<text text-anchor="start" x="28.5" y="-256.3" font-family="Helvetica,sans-Serif" font-size="16.00" fill="#000000">id</text>
<polygon fill="#ffffff" stroke="transparent" points="8.5,-231.7 8.5,-253.7 241.5,-253.7 241.5,-231.7 8.5,-231.7"/>
<polygon fill="none" stroke="#000000" points="8.5,-231.7 8.5,-253.7 241.5,-253.7 241.5,-231.7 8.5,-231.7"/>
<text text-anchor="start" x="28.5" y="-234.3" font-family="Helvetica,sans-Serif" font-size="16.00" fill="#000000">start_stamp</text>
<polygon fill="#ffffff" stroke="transparent" points="8.5,-209.7 8.5,-231.7 241.5,-231.7 241.5,-209.7 8.5,-209.7"/>
<polygon fill="none" stroke="#000000" points="8.5,-209.7 8.5,-231.7 241.5,-231.7 241.5,-209.7 8.5,-209.7"/>
<text text-anchor="start" x="28.5" y="-212.3" font-family="Helvetica,sans-Serif" font-size="16.00" fill="#000000">end_stamp</text>
<polygon fill="#ffffff" stroke="transparent" points="8.5,-187.7 8.5,-209.7 241.5,-209.7 241.5,-187.7 8.5,-187.7"/>
<polygon fill="none" stroke="#000000" points="8.5,-187.7 8.5,-209.7 241.5,-209.7 241.5,-187.7 8.5,-187.7"/>
<text text-anchor="start" x="28.5" y="-190.3" font-family="Helvetica,sans-Serif" font-size="16.00" fill="#000000">billable</text>
<polygon fill="#ffffff" stroke="transparent" points="8.5,-165.7 8.5,-187.7 241.5,-187.7 241.5,-165.7 8.5,-165.7"/>
<polygon fill="none" stroke="#000000" points="8.5,-165.7 8.5,-187.7 241.5,-187.7 241.5,-165.7 8.5,-165.7"/>
<image xlink:href="../../images/foreignKeys.png" width="11px" height="12px" preserveAspectRatio="xMinYMin meet" x="13.5" y="-182.7"/>
<text text-anchor="start" x="28.5" y="-168.3" font-family="Helvetica,sans-Serif" font-size="16.00" fill="#000000">business_partner_id</text>
<polygon fill="none" stroke="#000000" points="8.5,-143.7 8.5,-165.7 241.5,-165.7 241.5,-143.7 8.5,-143.7"/>
<image xlink:href="../../images/foreignKeys.png" width="11px" height="12px" preserveAspectRatio="xMinYMin meet" x="13.5" y="-160.7"/>
<text text-anchor="start" x="28.5" y="-146.3" font-family="Helvetica,sans-Serif" font-size="16.00" fill="#000000">activity_type_id</text>
<polygon fill="#ffffff" stroke="transparent" points="8.5,-121.7 8.5,-143.7 241.5,-143.7 241.5,-121.7 8.5,-121.7"/>
<polygon fill="none" stroke="#000000" points="8.5,-121.7 8.5,-143.7 241.5,-143.7 241.5,-121.7 8.5,-121.7"/>
<image xlink:href="../../images/foreignKeys.png" width="11px" height="12px" preserveAspectRatio="xMinYMin meet" x="13.5" y="-138.7"/>
<text text-anchor="start" x="28.5" y="-124.3" font-family="Helvetica,sans-Serif" font-size="16.00" fill="#000000">project_id</text>
<polygon fill="#ffffff" stroke="transparent" points="8.5,-99.7 8.5,-121.7 241.5,-121.7 241.5,-99.7 8.5,-99.7"/>
<polygon fill="none" stroke="#000000" points="8.5,-99.7 8.5,-121.7 241.5,-121.7 241.5,-99.7 8.5,-99.7"/>
<text text-anchor="start" x="28.5" y="-102.3" font-family="Helvetica,sans-Serif" font-size="16.00" fill="#000000">inserted_at</text>
<polygon fill="none" stroke="#000000" points="8.5,-74.7 8.5,-99.7 241.5,-99.7 241.5,-74.7 8.5,-74.7"/>
<text text-anchor="start" x="11.5" y="-82.3" font-family="Helvetica,sans-Serif" font-size="16.00" fill="#000000">...</text>
<polygon fill="#ffffff" stroke="transparent" points="8.5,-49.7 8.5,-74.7 93.5,-74.7 93.5,-49.7 8.5,-49.7"/>
<polygon fill="none" stroke="#000000" points="8.5,-49.7 8.5,-74.7 93.5,-74.7 93.5,-49.7 8.5,-49.7"/>
<text text-anchor="start" x="11.5" y="-57.3" font-family="Helvetica,sans-Serif" font-size="16.00" fill="#000000">&lt; 3</text>
<polygon fill="#ffffff" stroke="transparent" points="93.5,-49.7 93.5,-74.7 184.5,-74.7 184.5,-49.7 93.5,-49.7"/>
<polygon fill="none" stroke="#000000" points="93.5,-49.7 93.5,-74.7 184.5,-74.7 184.5,-49.7 93.5,-49.7"/>
<text text-anchor="start" x="125.4936" y="-57.3" font-family="Helvetica,sans-Serif" font-size="16.00" fill="#000000">65 rows</text>
<polygon fill="#ffffff" stroke="transparent" points="184.5,-49.7 184.5,-74.7 241.5,-74.7 241.5,-49.7 184.5,-49.7"/>
<polygon fill="none" stroke="#000000" points="184.5,-49.7 184.5,-74.7 241.5,-74.7 241.5,-49.7 184.5,-49.7"/>
<text text-anchor="start" x="215.8168" y="-57.3" font-family="Helvetica,sans-Serif" font-size="16.00" fill="#000000">2 &gt;</text>
</a>
</g>
</g>
<!-- timer_tags&#45;&gt;timers -->
<g id="edge2" class="edge">
<title>timer_tags:w&#45;&gt;timers:e</title>
<path fill="none" stroke="#000000" d="M277.9165,-318.6697C262.4311,-304.4018 269.814,-264.7 241.5,-264.7"/>
<polygon fill="#000000" stroke="#000000" points="284.4661,-321.009 290.7891,-327.0902 288.2331,-322.3545 292,-323.7 292,-323.7 292,-323.7 288.2331,-322.3545 293.2109,-320.3098 284.4661,-321.009 284.4661,-321.009"/>
<ellipse fill="none" stroke="#000000" cx="281.4526" cy="-319.9326" rx="3.2" ry="3.2"/>
</g>
</g>
</svg>
