<?xml version="1.0" encoding="UTF-8" standalone="no"?>
<!DOCTYPE svg PUBLIC "-//W3C//DTD SVG 1.1//EN"
 "http://www.w3.org/Graphics/SVG/1.1/DTD/svg11.dtd">
<!-- Generated by graphviz version 2.40.1 (20161225.0304)
 -->
<!-- Title: twoDegreesRelationshipsDiagram Pages: 1 -->
<svg width="1017pt" height="504pt"
 viewBox="0.00 0.00 1017.00 504.20" xmlns="http://www.w3.org/2000/svg" xmlns:xlink="http://www.w3.org/1999/xlink">
<g id="graph0" class="graph" transform="scale(1 1) rotate(0) translate(4 500.2)">
<title>twoDegreesRelationshipsDiagram</title>
<polygon fill="#ffffff" stroke="transparent" points="-4,4 -4,-500.2 1013,-500.2 1013,4 -4,4"/>
<text text-anchor="middle" x="101.8088" y="-8.8" font-family="Helvetica,sans-Serif" font-size="16.00" fill="#000000">Generated by SchemaSpy</text>
<!-- project_tags -->
<g id="node1" class="node">
<title>project_tags</title>
<g id="a_node1"><a xlink:href="../../tables/project_tags.html" xlink:title="project_tags" target="_top">
<polygon fill="#ffffff" stroke="transparent" points="802,-50.2 802,-129.2 956,-129.2 956,-50.2 802,-50.2"/>
<polygon fill="#f5f5f5" stroke="transparent" points="802,-99.7 802,-128.7 956,-128.7 956,-99.7 802,-99.7"/>
<polygon fill="none" stroke="#000000" points="802,-99.7 802,-128.7 956,-128.7 956,-99.7 802,-99.7"/>
<text text-anchor="start" x="807" y="-106.8" font-family="Helvetica,sans-Serif" font-weight="bold" font-size="16.00" fill="#000000">project_tags</text>
<text text-anchor="start" x="907.7136" y="-109.3" font-family="Helvetica,sans-Serif" font-size="16.00" fill="#000000">[table]</text>
<polygon fill="none" stroke="#000000" points="802,-74.7 802,-99.7 956,-99.7 956,-74.7 802,-74.7"/>
<text text-anchor="start" x="805" y="-82.3" font-family="Helvetica,sans-Serif" font-size="16.00" fill="#000000">...</text>
<polygon fill="#ffffff" stroke="transparent" points="802,-49.7 802,-74.7 859,-74.7 859,-49.7 802,-49.7"/>
<polygon fill="none" stroke="#000000" points="802,-49.7 802,-74.7 859,-74.7 859,-49.7 802,-49.7"/>
<text text-anchor="start" x="805" y="-57.3" font-family="Helvetica,sans-Serif" font-size="16.00" fill="#000000">&lt; 2</text>
<polygon fill="#ffffff" stroke="transparent" points="859,-49.7 859,-74.7 927,-74.7 927,-49.7 859,-49.7"/>
<polygon fill="none" stroke="#000000" points="859,-49.7 859,-74.7 927,-74.7 927,-49.7 859,-49.7"/>
<text text-anchor="start" x="876.888" y="-57.3" font-family="Helvetica,sans-Serif" font-size="16.00" fill="#000000">0 rows</text>
<polygon fill="#ffffff" stroke="transparent" points="927,-49.7 927,-74.7 956,-74.7 956,-49.7 927,-49.7"/>
<polygon fill="none" stroke="#000000" points="927,-49.7 927,-74.7 956,-74.7 956,-49.7 927,-49.7"/>
<text text-anchor="start" x="944.1072" y="-57.3" font-family="Helvetica,sans-Serif" font-size="16.00" fill="#000000"> &#160;</text>
</a>
</g>
</g>
<!-- projects -->
<g id="node2" class="node">
<title>projects</title>
<g id="a_node2"><a xlink:href="../../tables/projects.html" xlink:title="projects" target="_top">
<polygon fill="#ffffff" stroke="transparent" points="284,-180.2 284,-259.2 403,-259.2 403,-180.2 284,-180.2"/>
<polygon fill="#f5f5f5" stroke="transparent" points="284.5,-229.7 284.5,-258.7 403.5,-258.7 403.5,-229.7 284.5,-229.7"/>
<polygon fill="none" stroke="#000000" points="284.5,-229.7 284.5,-258.7 403.5,-258.7 403.5,-229.7 284.5,-229.7"/>
<text text-anchor="start" x="289.5" y="-236.8" font-family="Helvetica,sans-Serif" font-weight="bold" font-size="16.00" fill="#000000">projects</text>
<text text-anchor="start" x="355.2136" y="-239.3" font-family="Helvetica,sans-Serif" font-size="16.00" fill="#000000">[table]</text>
<polygon fill="none" stroke="#000000" points="284.5,-204.7 284.5,-229.7 403.5,-229.7 403.5,-204.7 284.5,-204.7"/>
<text text-anchor="start" x="287.5" y="-212.3" font-family="Helvetica,sans-Serif" font-size="16.00" fill="#000000">...</text>
<polygon fill="#ffffff" stroke="transparent" points="284.5,-179.7 284.5,-204.7 317.5,-204.7 317.5,-179.7 284.5,-179.7"/>
<polygon fill="none" stroke="#000000" points="284.5,-179.7 284.5,-204.7 317.5,-204.7 317.5,-179.7 284.5,-179.7"/>
<text text-anchor="start" x="287.5" y="-187.3" font-family="Helvetica,sans-Serif" font-size="16.00" fill="#000000">&lt; 1</text>
<polygon fill="#ffffff" stroke="transparent" points="317.5,-179.7 317.5,-204.7 372.5,-204.7 372.5,-179.7 317.5,-179.7"/>
<polygon fill="none" stroke="#000000" points="317.5,-179.7 317.5,-204.7 372.5,-204.7 372.5,-179.7 317.5,-179.7"/>
<text text-anchor="start" x="322.388" y="-187.3" font-family="Helvetica,sans-Serif" font-size="16.00" fill="#000000">0 rows</text>
<polygon fill="#ffffff" stroke="transparent" points="372.5,-179.7 372.5,-204.7 403.5,-204.7 403.5,-179.7 372.5,-179.7"/>
<polygon fill="none" stroke="#000000" points="372.5,-179.7 372.5,-204.7 403.5,-204.7 403.5,-179.7 372.5,-179.7"/>
<text text-anchor="start" x="377.8168" y="-187.3" font-family="Helvetica,sans-Serif" font-size="16.00" fill="#000000">3 &gt;</text>
</a>
</g>
</g>
<!-- project_tags&#45;&gt;projects -->
<g id="edge1" class="edge">
<title>project_tags:w&#45;&gt;projects:e</title>
<path fill="none" stroke="#000000" d="M787.4538,-86.4249C648.9995,-81.1734 588.4409,-3.376 467,-80.7 410.7297,-116.5285 470.2085,-216.7 403.5,-216.7"/>
<polygon fill="#000000" stroke="#000000" points="794.0014,-86.5487 801.9319,-90.2994 798.0007,-86.6243 802,-86.7 802,-86.7 802,-86.7 798.0007,-86.6243 802.0681,-83.1006 794.0014,-86.5487 794.0014,-86.5487"/>
<ellipse fill="none" stroke="#000000" cx="790.802" cy="-86.4881" rx="3.2" ry="3.2"/>
</g>
<!-- tags -->
<g id="node3" class="node">
<title>tags</title>
<g id="a_node3"><a xlink:href="../../tables/tags.html" xlink:title="tags" target="_top">
<polygon fill="#ffffff" stroke="transparent" points="535.5,-91.2 535.5,-214.2 647.5,-214.2 647.5,-91.2 535.5,-91.2"/>
<polygon fill="#f5f5f5" stroke="transparent" points="535.5,-184.7 535.5,-213.7 647.5,-213.7 647.5,-184.7 535.5,-184.7"/>
<polygon fill="none" stroke="#000000" points="535.5,-184.7 535.5,-213.7 647.5,-213.7 647.5,-184.7 535.5,-184.7"/>
<text text-anchor="start" x="540.3824" y="-191.8" font-family="Helvetica,sans-Serif" font-weight="bold" font-size="16.00" fill="#000000">tags</text>
<text text-anchor="start" x="598.9272" y="-194.3" font-family="Helvetica,sans-Serif" font-size="16.00" fill="#000000">[table]</text>
<polygon fill="none" stroke="#000000" points="535.5,-162.7 535.5,-184.7 647.5,-184.7 647.5,-162.7 535.5,-162.7"/>
<image xlink:href="../../images/primaryKeys.png" width="11px" height="12px" preserveAspectRatio="xMinYMin meet" x="540.5" y="-179.7"/>
<text text-anchor="start" x="555.5" y="-165.3" font-family="Helvetica,sans-Serif" font-size="16.00" fill="#000000">id</text>
<polygon fill="#ffffff" stroke="transparent" points="535.5,-140.7 535.5,-162.7 647.5,-162.7 647.5,-140.7 535.5,-140.7"/>
<polygon fill="none" stroke="#000000" points="535.5,-140.7 535.5,-162.7 647.5,-162.7 647.5,-140.7 535.5,-140.7"/>
<text text-anchor="start" x="555.5" y="-143.3" font-family="Helvetica,sans-Serif" font-size="16.00" fill="#000000">name</text>
<polygon fill="none" stroke="#000000" points="535.5,-115.7 535.5,-140.7 647.5,-140.7 647.5,-115.7 535.5,-115.7"/>
<text text-anchor="start" x="538.5" y="-123.3" font-family="Helvetica,sans-Serif" font-size="16.00" fill="#000000">...</text>
<polygon fill="#ffffff" stroke="transparent" points="535.5,-90.7 535.5,-115.7 557.5,-115.7 557.5,-90.7 535.5,-90.7"/>
<polygon fill="none" stroke="#000000" points="535.5,-90.7 535.5,-115.7 557.5,-115.7 557.5,-90.7 535.5,-90.7"/>
<text text-anchor="start" x="538.5" y="-98.3" font-family="Helvetica,sans-Serif" font-size="16.00" fill="#000000"> &#160;</text>
<polygon fill="#ffffff" stroke="transparent" points="557.5,-90.7 557.5,-115.7 614.5,-115.7 614.5,-90.7 557.5,-90.7"/>
<polygon fill="none" stroke="#000000" points="557.5,-90.7 557.5,-115.7 614.5,-115.7 614.5,-90.7 557.5,-90.7"/>
<text text-anchor="start" x="564.388" y="-98.3" font-family="Helvetica,sans-Serif" font-size="16.00" fill="#000000">0 rows</text>
<polygon fill="#ffffff" stroke="transparent" points="614.5,-90.7 614.5,-115.7 647.5,-115.7 647.5,-90.7 614.5,-90.7"/>
<polygon fill="none" stroke="#000000" points="614.5,-90.7 614.5,-115.7 647.5,-115.7 647.5,-90.7 614.5,-90.7"/>
<text text-anchor="start" x="621.8168" y="-98.3" font-family="Helvetica,sans-Serif" font-size="16.00" fill="#000000">2 &gt;</text>
</a>
</g>
</g>
<!-- project_tags&#45;&gt;tags -->
<g id="edge2" class="edge">
<title>project_tags:w&#45;&gt;tags:e</title>
<path fill="none" stroke="#000000" d="M787.3363,-87.8C723.2468,-97.871 721.0718,-173.7 647.5,-173.7"/>
<polygon fill="#000000" stroke="#000000" points="794.0224,-87.2985 802.2693,-90.2899 798.0112,-86.9992 802,-86.7 802,-86.7 802,-86.7 798.0112,-86.9992 801.7307,-83.1101 794.0224,-87.2985 794.0224,-87.2985"/>
<ellipse fill="none" stroke="#000000" cx="790.8314" cy="-87.5379" rx="3.2" ry="3.2"/>
</g>
<!-- business_partners -->
<g id="node4" class="node">
<title>business_partners</title>
<g id="a_node4"><a xlink:href="../../tables/business_partners.html" xlink:title="business_partners" target="_top">
<polygon fill="#ffffff" stroke="transparent" points="8,-263.2 8,-342.2 212,-342.2 212,-263.2 8,-263.2"/>
<polygon fill="#f5f5f5" stroke="transparent" points="8,-312.7 8,-341.7 212,-341.7 212,-312.7 8,-312.7"/>
<polygon fill="none" stroke="#000000" points="8,-312.7 8,-341.7 212,-341.7 212,-312.7 8,-312.7"/>
<text text-anchor="start" x="13" y="-319.8" font-family="Helvetica,sans-Serif" font-weight="bold" font-size="16.00" fill="#000000">business_partners</text>
<text text-anchor="start" x="163.7136" y="-322.3" font-family="Helvetica,sans-Serif" font-size="16.00" fill="#000000">[table]</text>
<polygon fill="none" stroke="#000000" points="8,-287.7 8,-312.7 212,-312.7 212,-287.7 8,-287.7"/>
<text text-anchor="start" x="11" y="-295.3" font-family="Helvetica,sans-Serif" font-size="16.00" fill="#000000">...</text>
<polygon fill="#ffffff" stroke="transparent" points="8,-262.7 8,-287.7 76,-287.7 76,-262.7 8,-262.7"/>
<polygon fill="none" stroke="#000000" points="8,-262.7 8,-287.7 76,-287.7 76,-262.7 8,-262.7"/>
<text text-anchor="start" x="11" y="-270.3" font-family="Helvetica,sans-Serif" font-size="16.00" fill="#000000"> &#160;</text>
<polygon fill="#ffffff" stroke="transparent" points="76,-262.7 76,-287.7 156,-287.7 156,-262.7 76,-262.7"/>
<polygon fill="none" stroke="#000000" points="76,-262.7 76,-287.7 156,-287.7 156,-262.7 76,-262.7"/>
<text text-anchor="start" x="105.888" y="-270.3" font-family="Helvetica,sans-Serif" font-size="16.00" fill="#000000">0 rows</text>
<polygon fill="#ffffff" stroke="transparent" points="156,-262.7 156,-287.7 212,-287.7 212,-262.7 156,-262.7"/>
<polygon fill="none" stroke="#000000" points="156,-262.7 156,-287.7 212,-287.7 212,-262.7 156,-262.7"/>
<text text-anchor="start" x="186.3168" y="-270.3" font-family="Helvetica,sans-Serif" font-size="16.00" fill="#000000">3 &gt;</text>
</a>
</g>
</g>
<!-- projects&#45;&gt;business_partners -->
<g id="edge3" class="edge">
<title>projects:w&#45;&gt;business_partners:e</title>
<path fill="none" stroke="#000000" d="M270.1077,-219.8523C240.4648,-235.0133 255.2403,-299.7 212,-299.7"/>
<polygon fill="#000000" stroke="#000000" points="276.6853,-218.4117 285.2703,-220.2166 280.5926,-217.5559 284.5,-216.7 284.5,-216.7 284.5,-216.7 280.5926,-217.5559 283.7297,-213.1834 276.6853,-218.4117 276.6853,-218.4117"/>
<ellipse fill="none" stroke="#000000" cx="273.5594" cy="-219.0964" rx="3.2" ry="3.2"/>
</g>
<!-- timer_notes -->
<g id="node5" class="node">
<title>timer_notes</title>
<g id="a_node5"><a xlink:href="../../tables/timer_notes.html" xlink:title="timer_notes" target="_top">
<polygon fill="#ffffff" stroke="transparent" points="804.5,-413.2 804.5,-492.2 953.5,-492.2 953.5,-413.2 804.5,-413.2"/>
<polygon fill="#f5f5f5" stroke="transparent" points="805,-462.7 805,-491.7 954,-491.7 954,-462.7 805,-462.7"/>
<polygon fill="none" stroke="#000000" points="805,-462.7 805,-491.7 954,-491.7 954,-462.7 805,-462.7"/>
<text text-anchor="start" x="810" y="-469.8" font-family="Helvetica,sans-Serif" font-weight="bold" font-size="16.00" fill="#000000">timer_notes</text>
<text text-anchor="start" x="905.7136" y="-472.3" font-family="Helvetica,sans-Serif" font-size="16.00" fill="#000000">[table]</text>
<polygon fill="none" stroke="#000000" points="805,-437.7 805,-462.7 954,-462.7 954,-437.7 805,-437.7"/>
<text text-anchor="start" x="808" y="-445.3" font-family="Helvetica,sans-Serif" font-size="16.00" fill="#000000">...</text>
<polygon fill="#ffffff" stroke="transparent" points="805,-412.7 805,-437.7 860,-437.7 860,-412.7 805,-412.7"/>
<polygon fill="none" stroke="#000000" points="805,-412.7 805,-437.7 860,-437.7 860,-412.7 805,-412.7"/>
<text text-anchor="start" x="808" y="-420.3" font-family="Helvetica,sans-Serif" font-size="16.00" fill="#000000">&lt; 1</text>
<polygon fill="#ffffff" stroke="transparent" points="860,-412.7 860,-437.7 926,-437.7 926,-412.7 860,-412.7"/>
<polygon fill="none" stroke="#000000" points="860,-412.7 860,-437.7 926,-437.7 926,-412.7 860,-412.7"/>
<text text-anchor="start" x="875.888" y="-420.3" font-family="Helvetica,sans-Serif" font-size="16.00" fill="#000000">0 rows</text>
<polygon fill="#ffffff" stroke="transparent" points="926,-412.7 926,-437.7 954,-437.7 954,-412.7 926,-412.7"/>
<polygon fill="none" stroke="#000000" points="926,-412.7 926,-437.7 954,-437.7 954,-412.7 926,-412.7"/>
<text text-anchor="start" x="942.1072" y="-420.3" font-family="Helvetica,sans-Serif" font-size="16.00" fill="#000000"> &#160;</text>
</a>
</g>
</g>
<!-- timers -->
<g id="node6" class="node">
<title>timers</title>
<g id="a_node6"><a xlink:href="../../tables/timers.html" xlink:title="timers" target="_top">
<polygon fill="#ffffff" stroke="transparent" points="475,-235.2 475,-490.2 708,-490.2 708,-235.2 475,-235.2"/>
<polygon fill="#f5f5f5" stroke="transparent" points="475.5,-460.7 475.5,-489.7 708.5,-489.7 708.5,-460.7 475.5,-460.7"/>
<polygon fill="none" stroke="#000000" points="475.5,-460.7 475.5,-489.7 708.5,-489.7 708.5,-460.7 475.5,-460.7"/>
<text text-anchor="start" x="480.5" y="-467.8" font-family="Helvetica,sans-Serif" font-weight="bold" font-size="16.00" fill="#000000">timers</text>
<text text-anchor="start" x="659.9272" y="-470.3" font-family="Helvetica,sans-Serif" font-size="16.00" fill="#000000">[table]</text>
<polygon fill="none" stroke="#000000" points="475.5,-438.7 475.5,-460.7 708.5,-460.7 708.5,-438.7 475.5,-438.7"/>
<image xlink:href="../../images/primaryKeys.png" width="11px" height="12px" preserveAspectRatio="xMinYMin meet" x="480.5" y="-455.7"/>
<text text-anchor="start" x="495.5" y="-441.3" font-family="Helvetica,sans-Serif" font-size="16.00" fill="#000000">id</text>
<polygon fill="#ffffff" stroke="transparent" points="475.5,-416.7 475.5,-438.7 708.5,-438.7 708.5,-416.7 475.5,-416.7"/>
<polygon fill="none" stroke="#000000" points="475.5,-416.7 475.5,-438.7 708.5,-438.7 708.5,-416.7 475.5,-416.7"/>
<text text-anchor="start" x="495.5" y="-419.3" font-family="Helvetica,sans-Serif" font-size="16.00" fill="#000000">start_stamp</text>
<polygon fill="#ffffff" stroke="transparent" points="475.5,-394.7 475.5,-416.7 708.5,-416.7 708.5,-394.7 475.5,-394.7"/>
<polygon fill="none" stroke="#000000" points="475.5,-394.7 475.5,-416.7 708.5,-416.7 708.5,-394.7 475.5,-394.7"/>
<text text-anchor="start" x="495.5" y="-397.3" font-family="Helvetica,sans-Serif" font-size="16.00" fill="#000000">end_stamp</text>
<polygon fill="#ffffff" stroke="transparent" points="475.5,-372.7 475.5,-394.7 708.5,-394.7 708.5,-372.7 475.5,-372.7"/>
<polygon fill="none" stroke="#000000" points="475.5,-372.7 475.5,-394.7 708.5,-394.7 708.5,-372.7 475.5,-372.7"/>
<text text-anchor="start" x="495.5" y="-375.3" font-family="Helvetica,sans-Serif" font-size="16.00" fill="#000000">billable</text>
<polygon fill="#ffffff" stroke="transparent" points="475.5,-350.7 475.5,-372.7 708.5,-372.7 708.5,-350.7 475.5,-350.7"/>
<polygon fill="none" stroke="#000000" points="475.5,-350.7 475.5,-372.7 708.5,-372.7 708.5,-350.7 475.5,-350.7"/>
<image xlink:href="../../images/foreignKeys.png" width="11px" height="12px" preserveAspectRatio="xMinYMin meet" x="480.5" y="-367.7"/>
<text text-anchor="start" x="495.5" y="-353.3" font-family="Helvetica,sans-Serif" font-size="16.00" fill="#000000">business_partner_id</text>
<polygon fill="none" stroke="#000000" points="475.5,-328.7 475.5,-350.7 708.5,-350.7 708.5,-328.7 475.5,-328.7"/>
<image xlink:href="../../images/foreignKeys.png" width="11px" height="12px" preserveAspectRatio="xMinYMin meet" x="480.5" y="-345.7"/>
<text text-anchor="start" x="495.5" y="-331.3" font-family="Helvetica,sans-Serif" font-size="16.00" fill="#000000">activity_type_id</text>
<polygon fill="#ffffff" stroke="transparent" points="475.5,-306.7 475.5,-328.7 708.5,-328.7 708.5,-306.7 475.5,-306.7"/>
<polygon fill="none" stroke="#000000" points="475.5,-306.7 475.5,-328.7 708.5,-328.7 708.5,-306.7 475.5,-306.7"/>
<image xlink:href="../../images/foreignKeys.png" width="11px" height="12px" preserveAspectRatio="xMinYMin meet" x="480.5" y="-323.7"/>
<text text-anchor="start" x="495.5" y="-309.3" font-family="Helvetica,sans-Serif" font-size="16.00" fill="#000000">project_id</text>
<polygon fill="#ffffff" stroke="transparent" points="475.5,-284.7 475.5,-306.7 708.5,-306.7 708.5,-284.7 475.5,-284.7"/>
<polygon fill="none" stroke="#000000" points="475.5,-284.7 475.5,-306.7 708.5,-306.7 708.5,-284.7 475.5,-284.7"/>
<text text-anchor="start" x="495.5" y="-287.3" font-family="Helvetica,sans-Serif" font-size="16.00" fill="#000000">inserted_at</text>
<polygon fill="none" stroke="#000000" points="475.5,-259.7 475.5,-284.7 708.5,-284.7 708.5,-259.7 475.5,-259.7"/>
<text text-anchor="start" x="478.5" y="-267.3" font-family="Helvetica,sans-Serif" font-size="16.00" fill="#000000">...</text>
<polygon fill="#ffffff" stroke="transparent" points="475.5,-234.7 475.5,-259.7 565.5,-259.7 565.5,-234.7 475.5,-234.7"/>
<polygon fill="none" stroke="#000000" points="475.5,-234.7 475.5,-259.7 565.5,-259.7 565.5,-234.7 475.5,-234.7"/>
<text text-anchor="start" x="478.5" y="-242.3" font-family="Helvetica,sans-Serif" font-size="16.00" fill="#000000">&lt; 3</text>
<polygon fill="#ffffff" stroke="transparent" points="565.5,-234.7 565.5,-259.7 649.5,-259.7 649.5,-234.7 565.5,-234.7"/>
<polygon fill="none" stroke="#000000" points="565.5,-234.7 565.5,-259.7 649.5,-259.7 649.5,-234.7 565.5,-234.7"/>
<text text-anchor="start" x="599.388" y="-242.3" font-family="Helvetica,sans-Serif" font-size="16.00" fill="#000000">0 rows</text>
<polygon fill="#ffffff" stroke="transparent" points="649.5,-234.7 649.5,-259.7 708.5,-259.7 708.5,-234.7 649.5,-234.7"/>
<polygon fill="none" stroke="#000000" points="649.5,-234.7 649.5,-259.7 708.5,-259.7 708.5,-234.7 649.5,-234.7"/>
<text text-anchor="start" x="682.8168" y="-242.3" font-family="Helvetica,sans-Serif" font-size="16.00" fill="#000000">2 &gt;</text>
</a>
</g>
</g>
<!-- timer_notes&#45;&gt;timers -->
<g id="edge4" class="edge">
<title>timer_notes:w&#45;&gt;timers:e</title>
<path fill="none" stroke="#000000" d="M790.2988,-449.7C758.928,-449.7 746.0278,-449.7 708.5,-449.7"/>
<polygon fill="#000000" stroke="#000000" points="797,-449.7001 805,-453.3 801,-449.7 805,-449.7 805,-449.7 805,-449.7 801,-449.7 805,-446.1 797,-449.7001 797,-449.7001"/>
<ellipse fill="none" stroke="#000000" cx="793.8" cy="-449.7001" rx="3.2" ry="3.2"/>
</g>
<!-- timers&#45;&gt;projects -->
<g id="edge9" class="edge">
<title>timers:w&#45;&gt;projects:e</title>
<path fill="none" stroke="#000000" d="M461.3974,-314.7862C427.18,-298.2262 453.0284,-216.7 403.5,-216.7"/>
<polygon fill="#000000" stroke="#000000" points="467.6655,-316.0812 474.7715,-321.2255 471.5827,-316.8906 475.5,-317.7 475.5,-317.7 475.5,-317.7 471.5827,-316.8906 476.2285,-314.1745 467.6655,-316.0812 467.6655,-316.0812"/>
<ellipse fill="none" stroke="#000000" cx="464.5317" cy="-315.4337" rx="3.2" ry="3.2"/>
</g>
<!-- timers&#45;&gt;business_partners -->
<g id="edge8" class="edge">
<title>timers:w&#45;&gt;business_partners:e</title>
<path fill="none" stroke="#000000" d="M461.0272,-363.263C452.6362,-365.2266 446.7094,-368.4862 434,-369.7 353.92,-377.3482 322.7923,-409.7043 253,-369.7 221.7194,-351.7703 248.0548,-299.7 212,-299.7"/>
<polygon fill="#000000" stroke="#000000" points="467.5462,-362.559 475.8865,-365.2792 471.5231,-362.1295 475.5,-361.7 475.5,-361.7 475.5,-361.7 471.5231,-362.1295 475.1135,-358.1208 467.5462,-362.559 467.5462,-362.559"/>
<ellipse fill="none" stroke="#000000" cx="464.3647" cy="-362.9026" rx="3.2" ry="3.2"/>
</g>
<!-- activity_types -->
<g id="node8" class="node">
<title>activity_types</title>
<g id="a_node8"><a xlink:href="../../tables/activity_types.html" xlink:title="activity_types" target="_top">
<polygon fill="#ffffff" stroke="transparent" points="261,-280.2 261,-359.2 426,-359.2 426,-280.2 261,-280.2"/>
<polygon fill="#f5f5f5" stroke="transparent" points="261.5,-329.7 261.5,-358.7 426.5,-358.7 426.5,-329.7 261.5,-329.7"/>
<polygon fill="none" stroke="#000000" points="261.5,-329.7 261.5,-358.7 426.5,-358.7 426.5,-329.7 261.5,-329.7"/>
<text text-anchor="start" x="266.5" y="-336.8" font-family="Helvetica,sans-Serif" font-weight="bold" font-size="16.00" fill="#000000">activity_types</text>
<text text-anchor="start" x="378.2136" y="-339.3" font-family="Helvetica,sans-Serif" font-size="16.00" fill="#000000">[table]</text>
<polygon fill="none" stroke="#000000" points="261.5,-304.7 261.5,-329.7 426.5,-329.7 426.5,-304.7 261.5,-304.7"/>
<text text-anchor="start" x="264.5" y="-312.3" font-family="Helvetica,sans-Serif" font-size="16.00" fill="#000000">...</text>
<polygon fill="#ffffff" stroke="transparent" points="261.5,-279.7 261.5,-304.7 310.5,-304.7 310.5,-279.7 261.5,-279.7"/>
<polygon fill="none" stroke="#000000" points="261.5,-279.7 261.5,-304.7 310.5,-304.7 310.5,-279.7 261.5,-279.7"/>
<text text-anchor="start" x="264.5" y="-287.3" font-family="Helvetica,sans-Serif" font-size="16.00" fill="#000000"> &#160;</text>
<polygon fill="#ffffff" stroke="transparent" points="310.5,-279.7 310.5,-304.7 380.5,-304.7 380.5,-279.7 310.5,-279.7"/>
<polygon fill="none" stroke="#000000" points="310.5,-279.7 310.5,-304.7 380.5,-304.7 380.5,-279.7 310.5,-279.7"/>
<text text-anchor="start" x="330.388" y="-287.3" font-family="Helvetica,sans-Serif" font-size="16.00" fill="#000000">0 rows</text>
<polygon fill="#ffffff" stroke="transparent" points="380.5,-279.7 380.5,-304.7 426.5,-304.7 426.5,-279.7 380.5,-279.7"/>
<polygon fill="none" stroke="#000000" points="380.5,-279.7 380.5,-304.7 426.5,-304.7 426.5,-279.7 380.5,-279.7"/>
<text text-anchor="start" x="400.8168" y="-287.3" font-family="Helvetica,sans-Serif" font-size="16.00" fill="#000000">1 &gt;</text>
</a>
</g>
</g>
<!-- timers&#45;&gt;activity_types -->
<g id="edge7" class="edge">
<title>timers:w&#45;&gt;activity_types:e</title>
<path fill="none" stroke="#000000" d="M461.4399,-336.3063C449.6546,-329.9084 444.7311,-316.7 426.5,-316.7"/>
<polygon fill="#000000" stroke="#000000" points="467.7233,-337.8229 474.6553,-343.1995 471.6117,-338.7614 475.5,-339.7 475.5,-339.7 475.5,-339.7 471.6117,-338.7614 476.3447,-336.2005 467.7233,-337.8229 467.7233,-337.8229"/>
<ellipse fill="none" stroke="#000000" cx="464.6127" cy="-337.072" rx="3.2" ry="3.2"/>
</g>
<!-- timer_tags -->
<g id="node7" class="node">
<title>timer_tags</title>
<g id="a_node7"><a xlink:href="../../tables/timer_tags.html" xlink:title="timer_tags" target="_top">
<polygon fill="#ffffff" stroke="transparent" points="757,-170.2 757,-353.2 1001,-353.2 1001,-170.2 757,-170.2"/>
<polygon fill="#f5f5f5" stroke="transparent" points="759,-321.7 759,-350.7 999,-350.7 999,-321.7 759,-321.7"/>
<polygon fill="none" stroke="#000000" points="759,-321.7 759,-350.7 999,-350.7 999,-321.7 759,-321.7"/>
<text text-anchor="start" x="764" y="-328.8" font-family="Helvetica,sans-Serif" font-weight="bold" font-size="16.00" fill="#000000">timer_tags</text>
<text text-anchor="start" x="950.4272" y="-331.3" font-family="Helvetica,sans-Serif" font-size="16.00" fill="#000000">[table]</text>
<polygon fill="none" stroke="#000000" points="759,-296.7 759,-321.7 870,-321.7 870,-296.7 759,-296.7"/>
<image xlink:href="../../images/primaryKeys.png" width="11px" height="12px" preserveAspectRatio="xMinYMin meet" x="764" y="-315.2"/>
<text text-anchor="start" x="779" y="-300.8" font-family="Helvetica,sans-Serif" font-size="16.00" fill="#000000">id</text>
<polygon fill="none" stroke="#000000" points="870,-296.7 870,-321.7 999,-321.7 999,-296.7 870,-296.7"/>
<text text-anchor="start" x="872.688" y="-304.3" font-family="Helvetica,sans-Serif" font-size="16.00" fill="#000000">text[2000000000]</text>
<polygon fill="#ffffff" stroke="transparent" points="759,-271.7 759,-296.7 870,-296.7 870,-271.7 759,-271.7"/>
<polygon fill="none" stroke="#000000" points="759,-271.7 759,-296.7 870,-296.7 870,-271.7 759,-271.7"/>
<image xlink:href="../../images/foreignKeys.png" width="11px" height="12px" preserveAspectRatio="xMinYMin meet" x="764" y="-290.2"/>
<text text-anchor="start" x="779" y="-275.8" font-family="Helvetica,sans-Serif" font-size="16.00" fill="#000000">tag_id</text>
<polygon fill="none" stroke="#000000" points="870,-271.7 870,-296.7 999,-296.7 999,-271.7 870,-271.7"/>
<text text-anchor="start" x="872.688" y="-279.3" font-family="Helvetica,sans-Serif" font-size="16.00" fill="#000000">text[2000000000]</text>
<polygon fill="#ffffff" stroke="transparent" points="759,-246.7 759,-271.7 870,-271.7 870,-246.7 759,-246.7"/>
<polygon fill="none" stroke="#000000" points="759,-246.7 759,-271.7 870,-271.7 870,-246.7 759,-246.7"/>
<image xlink:href="../../images/foreignKeys.png" width="11px" height="12px" preserveAspectRatio="xMinYMin meet" x="764" y="-265.2"/>
<text text-anchor="start" x="779" y="-250.8" font-family="Helvetica,sans-Serif" font-size="16.00" fill="#000000">timer_id</text>
<polygon fill="none" stroke="#000000" points="870,-246.7 870,-271.7 999,-271.7 999,-246.7 870,-246.7"/>
<text text-anchor="start" x="872.688" y="-254.3" font-family="Helvetica,sans-Serif" font-size="16.00" fill="#000000">text[2000000000]</text>
<polygon fill="none" stroke="#000000" points="759,-221.7 759,-246.7 870,-246.7 870,-221.7 759,-221.7"/>
<text text-anchor="start" x="779" y="-225.8" font-family="Helvetica,sans-Serif" font-size="16.00" fill="#000000">inserted_at</text>
<polygon fill="none" stroke="#000000" points="870,-221.7 870,-246.7 999,-246.7 999,-221.7 870,-221.7"/>
<text text-anchor="start" x="872.688" y="-229.3" font-family="Helvetica,sans-Serif" font-size="16.00" fill="#000000">text[2000000000]</text>
<polygon fill="none" stroke="#000000" points="759,-196.7 759,-221.7 870,-221.7 870,-196.7 759,-196.7"/>
<text text-anchor="start" x="779" y="-200.8" font-family="Helvetica,sans-Serif" font-size="16.00" fill="#000000">updated_at</text>
<polygon fill="none" stroke="#000000" points="870,-196.7 870,-221.7 999,-221.7 999,-196.7 870,-196.7"/>
<text text-anchor="start" x="872.688" y="-204.3" font-family="Helvetica,sans-Serif" font-size="16.00" fill="#000000">text[2000000000]</text>
<polygon fill="#ffffff" stroke="transparent" points="759,-171.7 759,-196.7 802,-196.7 802,-171.7 759,-171.7"/>
<polygon fill="none" stroke="#000000" points="759,-171.7 759,-196.7 802,-196.7 802,-171.7 759,-171.7"/>
<text text-anchor="start" x="762" y="-179.3" font-family="Helvetica,sans-Serif" font-size="16.00" fill="#000000">&lt; 2</text>
<polygon fill="#ffffff" stroke="transparent" points="802,-171.7 802,-196.7 870,-196.7 870,-171.7 802,-171.7"/>
<polygon fill="none" stroke="#000000" points="802,-171.7 802,-196.7 870,-196.7 870,-171.7 802,-171.7"/>
<text text-anchor="start" x="819.888" y="-179.3" font-family="Helvetica,sans-Serif" font-size="16.00" fill="#000000">0 rows</text>
<polygon fill="#ffffff" stroke="transparent" points="870,-171.7 870,-196.7 999,-196.7 999,-171.7 870,-171.7"/>
<polygon fill="none" stroke="#000000" points="870,-171.7 870,-196.7 999,-196.7 999,-171.7 870,-171.7"/>
<text text-anchor="start" x="973.3168" y="-179.3" font-family="Helvetica,sans-Serif" font-size="16.00" fill="#000000">0 &gt;</text>
<polygon fill="none" stroke="#000000" stroke-width="2" points="758,-171.2 758,-352.2 1000,-352.2 1000,-171.2 758,-171.2"/>
</a>
</g>
</g>
<!-- timer_tags&#45;&gt;tags -->
<g id="edge5" class="edge">
<title>timer_tags:w&#45;&gt;tags:e</title>
<path fill="none" stroke="#000000" d="M744.8188,-281.1688C729.7323,-271.4416 734.6769,-243.7192 716,-224.7 689.4061,-197.6186 685.4558,-173.7 647.5,-173.7"/>
<polygon fill="#000000" stroke="#000000" points="751.237,-282.7669 758.1301,-288.1933 755.1185,-283.7335 759,-284.7 759,-284.7 759,-284.7 755.1185,-283.7335 759.8699,-281.2067 751.237,-282.7669 751.237,-282.7669"/>
<ellipse fill="none" stroke="#000000" cx="748.1319" cy="-281.9937" rx="3.2" ry="3.2"/>
</g>
<!-- timer_tags&#45;&gt;timers -->
<g id="edge6" class="edge">
<title>timer_tags:w&#45;&gt;timers:e</title>
<path fill="none" stroke="#000000" d="M744.5614,-260.9781C686.4373,-282.5276 790.6465,-449.7 708.5,-449.7"/>
<polygon fill="#000000" stroke="#000000" points="751.0978,-259.9468 759.5611,-262.256 755.0489,-259.3234 759,-258.7 759,-258.7 759,-258.7 755.0489,-259.3234 758.4389,-255.144 751.0978,-259.9468 751.0978,-259.9468"/>
<ellipse fill="none" stroke="#000000" cx="747.9369" cy="-260.4456" rx="3.2" ry="3.2"/>
</g>
</g>
</svg>
