<?xml version="1.0" encoding="UTF-8" standalone="no"?>
<!DOCTYPE svg PUBLIC "-//W3C//DTD SVG 1.1//EN"
 "http://www.w3.org/Graphics/SVG/1.1/DTD/svg11.dtd">
<!-- Generated by graphviz version 2.40.1 (20161225.0304)
 -->
<!-- Title: twoDegreesRelationshipsDiagram Pages: 1 -->
<svg width="1017pt" height="524pt"
 viewBox="0.00 0.00 1017.00 524.20" xmlns="http://www.w3.org/2000/svg" xmlns:xlink="http://www.w3.org/1999/xlink">
<g id="graph0" class="graph" transform="scale(1 1) rotate(0) translate(4 520.2)">
<title>twoDegreesRelationshipsDiagram</title>
<polygon fill="#ffffff" stroke="transparent" points="-4,4 -4,-520.2 1013,-520.2 1013,4 -4,4"/>
<text text-anchor="middle" x="101.8088" y="-8.8" font-family="Helvetica,sans-Serif" font-size="16.00" fill="#000000">Generated by SchemaSpy</text>
<!-- journal_entry_tags -->
<g id="node1" class="node">
<title>journal_entry_tags</title>
<g id="a_node1"><a xlink:href="../../tables/journal_entry_tags.html" xlink:title="journal_entry_tags" target="_top">
<polygon fill="#ffffff" stroke="transparent" points="776.5,-153.2 776.5,-232.2 981.5,-232.2 981.5,-153.2 776.5,-153.2"/>
<polygon fill="#f5f5f5" stroke="transparent" points="777,-202.7 777,-231.7 982,-231.7 982,-202.7 777,-202.7"/>
<polygon fill="none" stroke="#000000" points="777,-202.7 777,-231.7 982,-231.7 982,-202.7 777,-202.7"/>
<text text-anchor="start" x="782" y="-209.8" font-family="Helvetica,sans-Serif" font-weight="bold" font-size="16.00" fill="#000000">journal_entry_tags</text>
<text text-anchor="start" x="933.7136" y="-212.3" font-family="Helvetica,sans-Serif" font-size="16.00" fill="#000000">[table]</text>
<polygon fill="none" stroke="#000000" points="777,-177.7 777,-202.7 982,-202.7 982,-177.7 777,-177.7"/>
<text text-anchor="start" x="780" y="-185.3" font-family="Helvetica,sans-Serif" font-size="16.00" fill="#000000">...</text>
<polygon fill="#ffffff" stroke="transparent" points="777,-152.7 777,-177.7 860,-177.7 860,-152.7 777,-152.7"/>
<polygon fill="none" stroke="#000000" points="777,-152.7 777,-177.7 860,-177.7 860,-152.7 777,-152.7"/>
<text text-anchor="start" x="780" y="-160.3" font-family="Helvetica,sans-Serif" font-size="16.00" fill="#000000">&lt; 2</text>
<polygon fill="#ffffff" stroke="transparent" points="860,-152.7 860,-177.7 940,-177.7 940,-152.7 860,-152.7"/>
<polygon fill="none" stroke="#000000" points="860,-152.7 860,-177.7 940,-177.7 940,-152.7 860,-152.7"/>
<text text-anchor="start" x="889.888" y="-160.3" font-family="Helvetica,sans-Serif" font-size="16.00" fill="#000000">2 rows</text>
<polygon fill="#ffffff" stroke="transparent" points="940,-152.7 940,-177.7 982,-177.7 982,-152.7 940,-152.7"/>
<polygon fill="none" stroke="#000000" points="940,-152.7 940,-177.7 982,-177.7 982,-152.7 940,-152.7"/>
<text text-anchor="start" x="970.1072" y="-160.3" font-family="Helvetica,sans-Serif" font-size="16.00" fill="#000000"> &#160;</text>
</a>
</g>
</g>
<!-- tags -->
<g id="node2" class="node">
<title>tags</title>
<g id="a_node2"><a xlink:href="../../tables/tags.html" xlink:title="tags" target="_top">
<polygon fill="#ffffff" stroke="transparent" points="535.5,-109.2 535.5,-232.2 647.5,-232.2 647.5,-109.2 535.5,-109.2"/>
<polygon fill="#f5f5f5" stroke="transparent" points="535.5,-202.7 535.5,-231.7 647.5,-231.7 647.5,-202.7 535.5,-202.7"/>
<polygon fill="none" stroke="#000000" points="535.5,-202.7 535.5,-231.7 647.5,-231.7 647.5,-202.7 535.5,-202.7"/>
<text text-anchor="start" x="540.3824" y="-209.8" font-family="Helvetica,sans-Serif" font-weight="bold" font-size="16.00" fill="#000000">tags</text>
<text text-anchor="start" x="598.9272" y="-212.3" font-family="Helvetica,sans-Serif" font-size="16.00" fill="#000000">[table]</text>
<polygon fill="none" stroke="#000000" points="535.5,-180.7 535.5,-202.7 647.5,-202.7 647.5,-180.7 535.5,-180.7"/>
<image xlink:href="../../images/primaryKeys.png" width="11px" height="12px" preserveAspectRatio="xMinYMin meet" x="540.5" y="-197.7"/>
<text text-anchor="start" x="555.5" y="-183.3" font-family="Helvetica,sans-Serif" font-size="16.00" fill="#000000">id</text>
<polygon fill="#ffffff" stroke="transparent" points="535.5,-158.7 535.5,-180.7 647.5,-180.7 647.5,-158.7 535.5,-158.7"/>
<polygon fill="none" stroke="#000000" points="535.5,-158.7 535.5,-180.7 647.5,-180.7 647.5,-158.7 535.5,-158.7"/>
<text text-anchor="start" x="555.5" y="-161.3" font-family="Helvetica,sans-Serif" font-size="16.00" fill="#000000">name</text>
<polygon fill="none" stroke="#000000" points="535.5,-133.7 535.5,-158.7 647.5,-158.7 647.5,-133.7 535.5,-133.7"/>
<text text-anchor="start" x="538.5" y="-141.3" font-family="Helvetica,sans-Serif" font-size="16.00" fill="#000000">...</text>
<polygon fill="#ffffff" stroke="transparent" points="535.5,-108.7 535.5,-133.7 549.5,-133.7 549.5,-108.7 535.5,-108.7"/>
<polygon fill="none" stroke="#000000" points="535.5,-108.7 535.5,-133.7 549.5,-133.7 549.5,-108.7 535.5,-108.7"/>
<text text-anchor="start" x="538.0536" y="-116.3" font-family="Helvetica,sans-Serif" font-size="16.00" fill="#000000"> &#160;</text>
<polygon fill="#ffffff" stroke="transparent" points="549.5,-108.7 549.5,-133.7 619.5,-133.7 619.5,-108.7 549.5,-108.7"/>
<polygon fill="none" stroke="#000000" points="549.5,-108.7 549.5,-133.7 619.5,-133.7 619.5,-108.7 549.5,-108.7"/>
<text text-anchor="start" x="552.0496" y="-116.3" font-family="Helvetica,sans-Serif" font-size="16.00" fill="#000000">167 rows</text>
<polygon fill="#ffffff" stroke="transparent" points="619.5,-108.7 619.5,-133.7 647.5,-133.7 647.5,-108.7 619.5,-108.7"/>
<polygon fill="none" stroke="#000000" points="619.5,-108.7 619.5,-133.7 647.5,-133.7 647.5,-108.7 619.5,-108.7"/>
<text text-anchor="start" x="622.1584" y="-116.3" font-family="Helvetica,sans-Serif" font-size="16.00" fill="#000000">3 &gt;</text>
</a>
</g>
</g>
<!-- journal_entry_tags&#45;&gt;tags -->
<g id="edge1" class="edge">
<title>journal_entry_tags:w&#45;&gt;tags:e</title>
<path fill="none" stroke="#000000" d="M762.4683,-189.7455C716.5059,-190.0432 699.8908,-191.7 647.5,-191.7"/>
<polygon fill="#000000" stroke="#000000" points="769,-189.7251 777.0113,-193.3 773,-189.7126 777,-189.7 777,-189.7 777,-189.7 773,-189.7126 776.9887,-186.1 769,-189.7251 769,-189.7251"/>
<ellipse fill="none" stroke="#000000" cx="765.8001" cy="-189.7352" rx="3.2" ry="3.2"/>
</g>
<!-- project_tags -->
<g id="node3" class="node">
<title>project_tags</title>
<g id="a_node3"><a xlink:href="../../tables/project_tags.html" xlink:title="project_tags" target="_top">
<polygon fill="#ffffff" stroke="transparent" points="802,-50.2 802,-129.2 956,-129.2 956,-50.2 802,-50.2"/>
<polygon fill="#f5f5f5" stroke="transparent" points="802,-99.7 802,-128.7 956,-128.7 956,-99.7 802,-99.7"/>
<polygon fill="none" stroke="#000000" points="802,-99.7 802,-128.7 956,-128.7 956,-99.7 802,-99.7"/>
<text text-anchor="start" x="807" y="-106.8" font-family="Helvetica,sans-Serif" font-weight="bold" font-size="16.00" fill="#000000">project_tags</text>
<text text-anchor="start" x="907.7136" y="-109.3" font-family="Helvetica,sans-Serif" font-size="16.00" fill="#000000">[table]</text>
<polygon fill="none" stroke="#000000" points="802,-74.7 802,-99.7 956,-99.7 956,-74.7 802,-74.7"/>
<text text-anchor="start" x="805" y="-82.3" font-family="Helvetica,sans-Serif" font-size="16.00" fill="#000000">...</text>
<polygon fill="#ffffff" stroke="transparent" points="802,-49.7 802,-74.7 859,-74.7 859,-49.7 802,-49.7"/>
<polygon fill="none" stroke="#000000" points="802,-49.7 802,-74.7 859,-74.7 859,-49.7 802,-49.7"/>
<text text-anchor="start" x="805" y="-57.3" font-family="Helvetica,sans-Serif" font-size="16.00" fill="#000000">&lt; 2</text>
<polygon fill="#ffffff" stroke="transparent" points="859,-49.7 859,-74.7 927,-74.7 927,-49.7 859,-49.7"/>
<polygon fill="none" stroke="#000000" points="859,-49.7 859,-74.7 927,-74.7 927,-49.7 859,-49.7"/>
<text text-anchor="start" x="876.888" y="-57.3" font-family="Helvetica,sans-Serif" font-size="16.00" fill="#000000">0 rows</text>
<polygon fill="#ffffff" stroke="transparent" points="927,-49.7 927,-74.7 956,-74.7 956,-49.7 927,-49.7"/>
<polygon fill="none" stroke="#000000" points="927,-49.7 927,-74.7 956,-74.7 956,-49.7 927,-49.7"/>
<text text-anchor="start" x="944.1072" y="-57.3" font-family="Helvetica,sans-Serif" font-size="16.00" fill="#000000"> &#160;</text>
</a>
</g>
</g>
<!-- project_tags&#45;&gt;tags -->
<g id="edge3" class="edge">
<title>project_tags:w&#45;&gt;tags:e</title>
<path fill="none" stroke="#000000" d="M787.4952,-87.8792C720.0505,-99.4148 725.3345,-191.7 647.5,-191.7"/>
<polygon fill="#000000" stroke="#000000" points="794.0263,-87.3483 802.2917,-90.2882 798.0132,-87.0241 802,-86.7 802,-86.7 802,-86.7 798.0132,-87.0241 801.7083,-83.1118 794.0263,-87.3483 794.0263,-87.3483"/>
<ellipse fill="none" stroke="#000000" cx="790.8368" cy="-87.6076" rx="3.2" ry="3.2"/>
</g>
<!-- projects -->
<g id="node4" class="node">
<title>projects</title>
<g id="a_node4"><a xlink:href="../../tables/projects.html" xlink:title="projects" target="_top">
<polygon fill="#ffffff" stroke="transparent" points="284,-198.2 284,-277.2 403,-277.2 403,-198.2 284,-198.2"/>
<polygon fill="#f5f5f5" stroke="transparent" points="284.5,-247.7 284.5,-276.7 403.5,-276.7 403.5,-247.7 284.5,-247.7"/>
<polygon fill="none" stroke="#000000" points="284.5,-247.7 284.5,-276.7 403.5,-276.7 403.5,-247.7 284.5,-247.7"/>
<text text-anchor="start" x="289.5" y="-254.8" font-family="Helvetica,sans-Serif" font-weight="bold" font-size="16.00" fill="#000000">projects</text>
<text text-anchor="start" x="355.2136" y="-257.3" font-family="Helvetica,sans-Serif" font-size="16.00" fill="#000000">[table]</text>
<polygon fill="none" stroke="#000000" points="284.5,-222.7 284.5,-247.7 403.5,-247.7 403.5,-222.7 284.5,-222.7"/>
<text text-anchor="start" x="287.5" y="-230.3" font-family="Helvetica,sans-Serif" font-size="16.00" fill="#000000">...</text>
<polygon fill="#ffffff" stroke="transparent" points="284.5,-197.7 284.5,-222.7 312.5,-222.7 312.5,-197.7 284.5,-197.7"/>
<polygon fill="none" stroke="#000000" points="284.5,-197.7 284.5,-222.7 312.5,-222.7 312.5,-197.7 284.5,-197.7"/>
<text text-anchor="start" x="287.1584" y="-205.3" font-family="Helvetica,sans-Serif" font-size="16.00" fill="#000000">&lt; 1</text>
<polygon fill="#ffffff" stroke="transparent" points="312.5,-197.7 312.5,-222.7 374.5,-222.7 374.5,-197.7 312.5,-197.7"/>
<polygon fill="none" stroke="#000000" points="312.5,-197.7 312.5,-222.7 374.5,-222.7 374.5,-197.7 312.5,-197.7"/>
<text text-anchor="start" x="315.4968" y="-205.3" font-family="Helvetica,sans-Serif" font-size="16.00" fill="#000000">13 rows</text>
<polygon fill="#ffffff" stroke="transparent" points="374.5,-197.7 374.5,-222.7 403.5,-222.7 403.5,-197.7 374.5,-197.7"/>
<polygon fill="none" stroke="#000000" points="374.5,-197.7 374.5,-222.7 403.5,-222.7 403.5,-197.7 374.5,-197.7"/>
<text text-anchor="start" x="377.8168" y="-205.3" font-family="Helvetica,sans-Serif" font-size="16.00" fill="#000000">3 &gt;</text>
</a>
</g>
</g>
<!-- project_tags&#45;&gt;projects -->
<g id="edge2" class="edge">
<title>project_tags:w&#45;&gt;projects:e</title>
<path fill="none" stroke="#000000" d="M787.4426,-86.4758C648.8431,-82.2028 587.0949,-19.1761 467,-98.7 411.3801,-135.5301 470.2085,-234.7 403.5,-234.7"/>
<polygon fill="#000000" stroke="#000000" points="794.0009,-86.5767 801.9445,-90.2996 798.0005,-86.6384 802,-86.7 802,-86.7 802,-86.7 798.0005,-86.6384 802.0555,-83.1004 794.0009,-86.5767 794.0009,-86.5767"/>
<ellipse fill="none" stroke="#000000" cx="790.8013" cy="-86.5274" rx="3.2" ry="3.2"/>
</g>
<!-- business_partners -->
<g id="node5" class="node">
<title>business_partners</title>
<g id="a_node5"><a xlink:href="../../tables/business_partners.html" xlink:title="business_partners" target="_top">
<polygon fill="#ffffff" stroke="transparent" points="8,-281.2 8,-360.2 212,-360.2 212,-281.2 8,-281.2"/>
<polygon fill="#f5f5f5" stroke="transparent" points="8,-330.7 8,-359.7 212,-359.7 212,-330.7 8,-330.7"/>
<polygon fill="none" stroke="#000000" points="8,-330.7 8,-359.7 212,-359.7 212,-330.7 8,-330.7"/>
<text text-anchor="start" x="13" y="-337.8" font-family="Helvetica,sans-Serif" font-weight="bold" font-size="16.00" fill="#000000">business_partners</text>
<text text-anchor="start" x="163.7136" y="-340.3" font-family="Helvetica,sans-Serif" font-size="16.00" fill="#000000">[table]</text>
<polygon fill="none" stroke="#000000" points="8,-305.7 8,-330.7 212,-330.7 212,-305.7 8,-305.7"/>
<text text-anchor="start" x="11" y="-313.3" font-family="Helvetica,sans-Serif" font-size="16.00" fill="#000000">...</text>
<polygon fill="#ffffff" stroke="transparent" points="8,-280.7 8,-305.7 76,-305.7 76,-280.7 8,-280.7"/>
<polygon fill="none" stroke="#000000" points="8,-280.7 8,-305.7 76,-305.7 76,-280.7 8,-280.7"/>
<text text-anchor="start" x="11" y="-288.3" font-family="Helvetica,sans-Serif" font-size="16.00" fill="#000000"> &#160;</text>
<polygon fill="#ffffff" stroke="transparent" points="76,-280.7 76,-305.7 156,-305.7 156,-280.7 76,-280.7"/>
<polygon fill="none" stroke="#000000" points="76,-280.7 76,-305.7 156,-305.7 156,-280.7 76,-280.7"/>
<text text-anchor="start" x="105.888" y="-288.3" font-family="Helvetica,sans-Serif" font-size="16.00" fill="#000000">3 rows</text>
<polygon fill="#ffffff" stroke="transparent" points="156,-280.7 156,-305.7 212,-305.7 212,-280.7 156,-280.7"/>
<polygon fill="none" stroke="#000000" points="156,-280.7 156,-305.7 212,-305.7 212,-280.7 156,-280.7"/>
<text text-anchor="start" x="186.3168" y="-288.3" font-family="Helvetica,sans-Serif" font-size="16.00" fill="#000000">3 &gt;</text>
</a>
</g>
</g>
<!-- projects&#45;&gt;business_partners -->
<g id="edge4" class="edge">
<title>projects:w&#45;&gt;business_partners:e</title>
<path fill="none" stroke="#000000" d="M270.1077,-237.8523C240.4648,-253.0133 255.2403,-317.7 212,-317.7"/>
<polygon fill="#000000" stroke="#000000" points="276.6853,-236.4117 285.2703,-238.2166 280.5926,-235.5559 284.5,-234.7 284.5,-234.7 284.5,-234.7 280.5926,-235.5559 283.7297,-231.1834 276.6853,-236.4117 276.6853,-236.4117"/>
<ellipse fill="none" stroke="#000000" cx="273.5594" cy="-237.0964" rx="3.2" ry="3.2"/>
</g>
<!-- timer_notes -->
<g id="node6" class="node">
<title>timer_notes</title>
<g id="a_node6"><a xlink:href="../../tables/timer_notes.html" xlink:title="timer_notes" target="_top">
<polygon fill="#ffffff" stroke="transparent" points="804.5,-433.2 804.5,-512.2 953.5,-512.2 953.5,-433.2 804.5,-433.2"/>
<polygon fill="#f5f5f5" stroke="transparent" points="805,-482.7 805,-511.7 954,-511.7 954,-482.7 805,-482.7"/>
<polygon fill="none" stroke="#000000" points="805,-482.7 805,-511.7 954,-511.7 954,-482.7 805,-482.7"/>
<text text-anchor="start" x="810" y="-489.8" font-family="Helvetica,sans-Serif" font-weight="bold" font-size="16.00" fill="#000000">timer_notes</text>
<text text-anchor="start" x="905.7136" y="-492.3" font-family="Helvetica,sans-Serif" font-size="16.00" fill="#000000">[table]</text>
<polygon fill="none" stroke="#000000" points="805,-457.7 805,-482.7 954,-482.7 954,-457.7 805,-457.7"/>
<text text-anchor="start" x="808" y="-465.3" font-family="Helvetica,sans-Serif" font-size="16.00" fill="#000000">...</text>
<polygon fill="#ffffff" stroke="transparent" points="805,-432.7 805,-457.7 855,-457.7 855,-432.7 805,-432.7"/>
<polygon fill="none" stroke="#000000" points="805,-432.7 805,-457.7 855,-457.7 855,-432.7 805,-432.7"/>
<text text-anchor="start" x="808" y="-440.3" font-family="Helvetica,sans-Serif" font-size="16.00" fill="#000000">&lt; 1</text>
<polygon fill="#ffffff" stroke="transparent" points="855,-432.7 855,-457.7 928,-457.7 928,-432.7 855,-432.7"/>
<polygon fill="none" stroke="#000000" points="855,-432.7 855,-457.7 928,-457.7 928,-432.7 855,-432.7"/>
<text text-anchor="start" x="868.9936" y="-440.3" font-family="Helvetica,sans-Serif" font-size="16.00" fill="#000000">52 rows</text>
<polygon fill="#ffffff" stroke="transparent" points="928,-432.7 928,-457.7 954,-457.7 954,-432.7 928,-432.7"/>
<polygon fill="none" stroke="#000000" points="928,-432.7 928,-457.7 954,-457.7 954,-432.7 928,-432.7"/>
<text text-anchor="start" x="942.1072" y="-440.3" font-family="Helvetica,sans-Serif" font-size="16.00" fill="#000000"> &#160;</text>
</a>
</g>
</g>
<!-- timers -->
<g id="node7" class="node">
<title>timers</title>
<g id="a_node7"><a xlink:href="../../tables/timers.html" xlink:title="timers" target="_top">
<polygon fill="#ffffff" stroke="transparent" points="475,-253.2 475,-508.2 708,-508.2 708,-253.2 475,-253.2"/>
<polygon fill="#f5f5f5" stroke="transparent" points="475.5,-478.7 475.5,-507.7 708.5,-507.7 708.5,-478.7 475.5,-478.7"/>
<polygon fill="none" stroke="#000000" points="475.5,-478.7 475.5,-507.7 708.5,-507.7 708.5,-478.7 475.5,-478.7"/>
<text text-anchor="start" x="480.5" y="-485.8" font-family="Helvetica,sans-Serif" font-weight="bold" font-size="16.00" fill="#000000">timers</text>
<text text-anchor="start" x="659.9272" y="-488.3" font-family="Helvetica,sans-Serif" font-size="16.00" fill="#000000">[table]</text>
<polygon fill="none" stroke="#000000" points="475.5,-456.7 475.5,-478.7 708.5,-478.7 708.5,-456.7 475.5,-456.7"/>
<image xlink:href="../../images/primaryKeys.png" width="11px" height="12px" preserveAspectRatio="xMinYMin meet" x="480.5" y="-473.7"/>
<text text-anchor="start" x="495.5" y="-459.3" font-family="Helvetica,sans-Serif" font-size="16.00" fill="#000000">id</text>
<polygon fill="#ffffff" stroke="transparent" points="475.5,-434.7 475.5,-456.7 708.5,-456.7 708.5,-434.7 475.5,-434.7"/>
<polygon fill="none" stroke="#000000" points="475.5,-434.7 475.5,-456.7 708.5,-456.7 708.5,-434.7 475.5,-434.7"/>
<text text-anchor="start" x="495.5" y="-437.3" font-family="Helvetica,sans-Serif" font-size="16.00" fill="#000000">start_stamp</text>
<polygon fill="#ffffff" stroke="transparent" points="475.5,-412.7 475.5,-434.7 708.5,-434.7 708.5,-412.7 475.5,-412.7"/>
<polygon fill="none" stroke="#000000" points="475.5,-412.7 475.5,-434.7 708.5,-434.7 708.5,-412.7 475.5,-412.7"/>
<text text-anchor="start" x="495.5" y="-415.3" font-family="Helvetica,sans-Serif" font-size="16.00" fill="#000000">end_stamp</text>
<polygon fill="#ffffff" stroke="transparent" points="475.5,-390.7 475.5,-412.7 708.5,-412.7 708.5,-390.7 475.5,-390.7"/>
<polygon fill="none" stroke="#000000" points="475.5,-390.7 475.5,-412.7 708.5,-412.7 708.5,-390.7 475.5,-390.7"/>
<text text-anchor="start" x="495.5" y="-393.3" font-family="Helvetica,sans-Serif" font-size="16.00" fill="#000000">billable</text>
<polygon fill="#ffffff" stroke="transparent" points="475.5,-368.7 475.5,-390.7 708.5,-390.7 708.5,-368.7 475.5,-368.7"/>
<polygon fill="none" stroke="#000000" points="475.5,-368.7 475.5,-390.7 708.5,-390.7 708.5,-368.7 475.5,-368.7"/>
<image xlink:href="../../images/foreignKeys.png" width="11px" height="12px" preserveAspectRatio="xMinYMin meet" x="480.5" y="-385.7"/>
<text text-anchor="start" x="495.5" y="-371.3" font-family="Helvetica,sans-Serif" font-size="16.00" fill="#000000">business_partner_id</text>
<polygon fill="none" stroke="#000000" points="475.5,-346.7 475.5,-368.7 708.5,-368.7 708.5,-346.7 475.5,-346.7"/>
<image xlink:href="../../images/foreignKeys.png" width="11px" height="12px" preserveAspectRatio="xMinYMin meet" x="480.5" y="-363.7"/>
<text text-anchor="start" x="495.5" y="-349.3" font-family="Helvetica,sans-Serif" font-size="16.00" fill="#000000">activity_type_id</text>
<polygon fill="#ffffff" stroke="transparent" points="475.5,-324.7 475.5,-346.7 708.5,-346.7 708.5,-324.7 475.5,-324.7"/>
<polygon fill="none" stroke="#000000" points="475.5,-324.7 475.5,-346.7 708.5,-346.7 708.5,-324.7 475.5,-324.7"/>
<image xlink:href="../../images/foreignKeys.png" width="11px" height="12px" preserveAspectRatio="xMinYMin meet" x="480.5" y="-341.7"/>
<text text-anchor="start" x="495.5" y="-327.3" font-family="Helvetica,sans-Serif" font-size="16.00" fill="#000000">project_id</text>
<polygon fill="#ffffff" stroke="transparent" points="475.5,-302.7 475.5,-324.7 708.5,-324.7 708.5,-302.7 475.5,-302.7"/>
<polygon fill="none" stroke="#000000" points="475.5,-302.7 475.5,-324.7 708.5,-324.7 708.5,-302.7 475.5,-302.7"/>
<text text-anchor="start" x="495.5" y="-305.3" font-family="Helvetica,sans-Serif" font-size="16.00" fill="#000000">inserted_at</text>
<polygon fill="none" stroke="#000000" points="475.5,-277.7 475.5,-302.7 708.5,-302.7 708.5,-277.7 475.5,-277.7"/>
<text text-anchor="start" x="478.5" y="-285.3" font-family="Helvetica,sans-Serif" font-size="16.00" fill="#000000">...</text>
<polygon fill="#ffffff" stroke="transparent" points="475.5,-252.7 475.5,-277.7 556.5,-277.7 556.5,-252.7 475.5,-252.7"/>
<polygon fill="none" stroke="#000000" points="475.5,-252.7 475.5,-277.7 556.5,-277.7 556.5,-252.7 475.5,-252.7"/>
<text text-anchor="start" x="478.5" y="-260.3" font-family="Helvetica,sans-Serif" font-size="16.00" fill="#000000">&lt; 3</text>
<polygon fill="#ffffff" stroke="transparent" points="556.5,-252.7 556.5,-277.7 653.5,-277.7 653.5,-252.7 556.5,-252.7"/>
<polygon fill="none" stroke="#000000" points="556.5,-252.7 556.5,-277.7 653.5,-277.7 653.5,-252.7 556.5,-252.7"/>
<text text-anchor="start" x="585.5992" y="-260.3" font-family="Helvetica,sans-Serif" font-size="16.00" fill="#000000">277 rows</text>
<polygon fill="#ffffff" stroke="transparent" points="653.5,-252.7 653.5,-277.7 708.5,-277.7 708.5,-252.7 653.5,-252.7"/>
<polygon fill="none" stroke="#000000" points="653.5,-252.7 653.5,-277.7 708.5,-277.7 708.5,-252.7 653.5,-252.7"/>
<text text-anchor="start" x="682.8168" y="-260.3" font-family="Helvetica,sans-Serif" font-size="16.00" fill="#000000">2 &gt;</text>
</a>
</g>
</g>
<!-- timer_notes&#45;&gt;timers -->
<g id="edge5" class="edge">
<title>timer_notes:w&#45;&gt;timers:e</title>
<path fill="none" stroke="#000000" d="M790.2966,-469.6141C758.9229,-469.2313 746.0358,-467.7 708.5,-467.7"/>
<polygon fill="#000000" stroke="#000000" points="797.0001,-469.6532 804.9789,-473.2999 801.0001,-469.6766 805,-469.7 805,-469.7 805,-469.7 801.0001,-469.6766 805.0211,-466.1001 797.0001,-469.6532 797.0001,-469.6532"/>
<ellipse fill="none" stroke="#000000" cx="793.8002" cy="-469.6345" rx="3.2" ry="3.2"/>
</g>
<!-- timers&#45;&gt;projects -->
<g id="edge10" class="edge">
<title>timers:w&#45;&gt;projects:e</title>
<path fill="none" stroke="#000000" d="M461.3974,-332.7862C427.18,-316.2262 453.0284,-234.7 403.5,-234.7"/>
<polygon fill="#000000" stroke="#000000" points="467.6655,-334.0812 474.7715,-339.2255 471.5827,-334.8906 475.5,-335.7 475.5,-335.7 475.5,-335.7 471.5827,-334.8906 476.2285,-332.1745 467.6655,-334.0812 467.6655,-334.0812"/>
<ellipse fill="none" stroke="#000000" cx="464.5317" cy="-333.4337" rx="3.2" ry="3.2"/>
</g>
<!-- timers&#45;&gt;business_partners -->
<g id="edge9" class="edge">
<title>timers:w&#45;&gt;business_partners:e</title>
<path fill="none" stroke="#000000" d="M461.0272,-381.263C452.6362,-383.2266 446.7094,-386.4862 434,-387.7 353.92,-395.3482 322.7923,-427.7043 253,-387.7 221.7194,-369.7703 248.0548,-317.7 212,-317.7"/>
<polygon fill="#000000" stroke="#000000" points="467.5462,-380.559 475.8865,-383.2792 471.5231,-380.1295 475.5,-379.7 475.5,-379.7 475.5,-379.7 471.5231,-380.1295 475.1135,-376.1208 467.5462,-380.559 467.5462,-380.559"/>
<ellipse fill="none" stroke="#000000" cx="464.3647" cy="-380.9026" rx="3.2" ry="3.2"/>
</g>
<!-- activity_types -->
<g id="node9" class="node">
<title>activity_types</title>
<g id="a_node9"><a xlink:href="../../tables/activity_types.html" xlink:title="activity_types" target="_top">
<polygon fill="#ffffff" stroke="transparent" points="261,-298.2 261,-377.2 426,-377.2 426,-298.2 261,-298.2"/>
<polygon fill="#f5f5f5" stroke="transparent" points="261.5,-347.7 261.5,-376.7 426.5,-376.7 426.5,-347.7 261.5,-347.7"/>
<polygon fill="none" stroke="#000000" points="261.5,-347.7 261.5,-376.7 426.5,-376.7 426.5,-347.7 261.5,-347.7"/>
<text text-anchor="start" x="266.5" y="-354.8" font-family="Helvetica,sans-Serif" font-weight="bold" font-size="16.00" fill="#000000">activity_types</text>
<text text-anchor="start" x="378.2136" y="-357.3" font-family="Helvetica,sans-Serif" font-size="16.00" fill="#000000">[table]</text>
<polygon fill="none" stroke="#000000" points="261.5,-322.7 261.5,-347.7 426.5,-347.7 426.5,-322.7 261.5,-322.7"/>
<text text-anchor="start" x="264.5" y="-330.3" font-family="Helvetica,sans-Serif" font-size="16.00" fill="#000000">...</text>
<polygon fill="#ffffff" stroke="transparent" points="261.5,-297.7 261.5,-322.7 310.5,-322.7 310.5,-297.7 261.5,-297.7"/>
<polygon fill="none" stroke="#000000" points="261.5,-297.7 261.5,-322.7 310.5,-322.7 310.5,-297.7 261.5,-297.7"/>
<text text-anchor="start" x="264.5" y="-305.3" font-family="Helvetica,sans-Serif" font-size="16.00" fill="#000000"> &#160;</text>
<polygon fill="#ffffff" stroke="transparent" points="310.5,-297.7 310.5,-322.7 380.5,-322.7 380.5,-297.7 310.5,-297.7"/>
<polygon fill="none" stroke="#000000" points="310.5,-297.7 310.5,-322.7 380.5,-322.7 380.5,-297.7 310.5,-297.7"/>
<text text-anchor="start" x="330.388" y="-305.3" font-family="Helvetica,sans-Serif" font-size="16.00" fill="#000000">2 rows</text>
<polygon fill="#ffffff" stroke="transparent" points="380.5,-297.7 380.5,-322.7 426.5,-322.7 426.5,-297.7 380.5,-297.7"/>
<polygon fill="none" stroke="#000000" points="380.5,-297.7 380.5,-322.7 426.5,-322.7 426.5,-297.7 380.5,-297.7"/>
<text text-anchor="start" x="400.8168" y="-305.3" font-family="Helvetica,sans-Serif" font-size="16.00" fill="#000000">1 &gt;</text>
</a>
</g>
</g>
<!-- timers&#45;&gt;activity_types -->
<g id="edge8" class="edge">
<title>timers:w&#45;&gt;activity_types:e</title>
<path fill="none" stroke="#000000" d="M461.4399,-354.3063C449.6546,-347.9084 444.7311,-334.7 426.5,-334.7"/>
<polygon fill="#000000" stroke="#000000" points="467.7233,-355.8229 474.6553,-361.1995 471.6117,-356.7614 475.5,-357.7 475.5,-357.7 475.5,-357.7 471.6117,-356.7614 476.3447,-354.2005 467.7233,-355.8229 467.7233,-355.8229"/>
<ellipse fill="none" stroke="#000000" cx="464.6127" cy="-355.072" rx="3.2" ry="3.2"/>
</g>
<!-- timer_tags -->
<g id="node8" class="node">
<title>timer_tags</title>
<g id="a_node8"><a xlink:href="../../tables/timer_tags.html" xlink:title="timer_tags" target="_top">
<polygon fill="#ffffff" stroke="transparent" points="757,-253.7 757,-411.7 1001,-411.7 1001,-253.7 757,-253.7"/>
<polygon fill="#f5f5f5" stroke="transparent" points="759,-380.7 759,-409.7 999,-409.7 999,-380.7 759,-380.7"/>
<polygon fill="none" stroke="#000000" points="759,-380.7 759,-409.7 999,-409.7 999,-380.7 759,-380.7"/>
<text text-anchor="start" x="764" y="-387.8" font-family="Helvetica,sans-Serif" font-weight="bold" font-size="16.00" fill="#000000">timer_tags</text>
<text text-anchor="start" x="950.4272" y="-390.3" font-family="Helvetica,sans-Serif" font-size="16.00" fill="#000000">[table]</text>
<polygon fill="#ffffff" stroke="transparent" points="759,-355.7 759,-380.7 870,-380.7 870,-355.7 759,-355.7"/>
<polygon fill="none" stroke="#000000" points="759,-355.7 759,-380.7 870,-380.7 870,-355.7 759,-355.7"/>
<image xlink:href="../../images/foreignKeys.png" width="11px" height="12px" preserveAspectRatio="xMinYMin meet" x="764" y="-374.2"/>
<text text-anchor="start" x="779" y="-359.8" font-family="Helvetica,sans-Serif" font-size="16.00" fill="#000000">timer_id</text>
<polygon fill="none" stroke="#000000" points="870,-355.7 870,-380.7 999,-380.7 999,-355.7 870,-355.7"/>
<text text-anchor="start" x="872.688" y="-363.3" font-family="Helvetica,sans-Serif" font-size="16.00" fill="#000000">text[2000000000]</text>
<polygon fill="#ffffff" stroke="transparent" points="759,-330.7 759,-355.7 870,-355.7 870,-330.7 759,-330.7"/>
<polygon fill="none" stroke="#000000" points="759,-330.7 759,-355.7 870,-355.7 870,-330.7 759,-330.7"/>
<image xlink:href="../../images/foreignKeys.png" width="11px" height="12px" preserveAspectRatio="xMinYMin meet" x="764" y="-349.2"/>
<text text-anchor="start" x="779" y="-334.8" font-family="Helvetica,sans-Serif" font-size="16.00" fill="#000000">tag_id</text>
<polygon fill="none" stroke="#000000" points="870,-330.7 870,-355.7 999,-355.7 999,-330.7 870,-330.7"/>
<text text-anchor="start" x="872.688" y="-338.3" font-family="Helvetica,sans-Serif" font-size="16.00" fill="#000000">text[2000000000]</text>
<polygon fill="none" stroke="#000000" points="759,-305.7 759,-330.7 870,-330.7 870,-305.7 759,-305.7"/>
<text text-anchor="start" x="779" y="-309.8" font-family="Helvetica,sans-Serif" font-size="16.00" fill="#000000">inserted_at</text>
<polygon fill="none" stroke="#000000" points="870,-305.7 870,-330.7 999,-330.7 999,-305.7 870,-305.7"/>
<text text-anchor="start" x="872.688" y="-313.3" font-family="Helvetica,sans-Serif" font-size="16.00" fill="#000000">text[2000000000]</text>
<polygon fill="none" stroke="#000000" points="759,-280.7 759,-305.7 870,-305.7 870,-280.7 759,-280.7"/>
<text text-anchor="start" x="779" y="-284.8" font-family="Helvetica,sans-Serif" font-size="16.00" fill="#000000">updated_at</text>
<polygon fill="none" stroke="#000000" points="870,-280.7 870,-305.7 999,-305.7 999,-280.7 870,-280.7"/>
<text text-anchor="start" x="872.688" y="-288.3" font-family="Helvetica,sans-Serif" font-size="16.00" fill="#000000">text[2000000000]</text>
<polygon fill="#ffffff" stroke="transparent" points="759,-255.7 759,-280.7 793,-280.7 793,-255.7 759,-255.7"/>
<polygon fill="none" stroke="#000000" points="759,-255.7 759,-280.7 793,-280.7 793,-255.7 759,-255.7"/>
<text text-anchor="start" x="762" y="-263.3" font-family="Helvetica,sans-Serif" font-size="16.00" fill="#000000">&lt; 2</text>
<polygon fill="#ffffff" stroke="transparent" points="793,-255.7 793,-280.7 870,-280.7 870,-255.7 793,-255.7"/>
<polygon fill="none" stroke="#000000" points="793,-255.7 793,-280.7 870,-280.7 870,-255.7 793,-255.7"/>
<text text-anchor="start" x="802.0992" y="-263.3" font-family="Helvetica,sans-Serif" font-size="16.00" fill="#000000">629 rows</text>
<polygon fill="#ffffff" stroke="transparent" points="870,-255.7 870,-280.7 999,-280.7 999,-255.7 870,-255.7"/>
<polygon fill="none" stroke="#000000" points="870,-255.7 870,-280.7 999,-280.7 999,-255.7 870,-255.7"/>
<text text-anchor="start" x="973.3168" y="-263.3" font-family="Helvetica,sans-Serif" font-size="16.00" fill="#000000">0 &gt;</text>
<polygon fill="none" stroke="#000000" stroke-width="2" points="758,-254.7 758,-410.7 1000,-410.7 1000,-254.7 758,-254.7"/>
</a>
</g>
</g>
<!-- timer_tags&#45;&gt;tags -->
<g id="edge6" class="edge">
<title>timer_tags:w&#45;&gt;tags:e</title>
<path fill="none" stroke="#000000" d="M744.7364,-341.098C717.9507,-328.8816 742.5152,-276.3991 716,-242.7 692.5297,-212.8707 685.4558,-191.7 647.5,-191.7"/>
<polygon fill="#000000" stroke="#000000" points="751.1299,-342.2643 758.3539,-347.2416 755.0649,-342.9821 759,-343.7 759,-343.7 759,-343.7 755.0649,-342.9821 759.6461,-340.1584 751.1299,-342.2643 751.1299,-342.2643"/>
<ellipse fill="none" stroke="#000000" cx="747.9818" cy="-341.69" rx="3.2" ry="3.2"/>
</g>
<!-- timer_tags&#45;&gt;timers -->
<g id="edge7" class="edge">
<title>timer_tags:w&#45;&gt;timers:e</title>
<path fill="none" stroke="#000000" d="M745.0064,-372.7035C719.8685,-391.2249 751.9126,-467.7 708.5,-467.7"/>
<polygon fill="#000000" stroke="#000000" points="751.3086,-370.9005 759.9902,-372.1611 755.1543,-369.8003 759,-368.7 759,-368.7 759,-368.7 755.1543,-369.8003 758.0098,-365.2389 751.3086,-370.9005 751.3086,-370.9005"/>
<ellipse fill="none" stroke="#000000" cx="748.232" cy="-371.7807" rx="3.2" ry="3.2"/>
</g>
</g>
</svg>
