<?xml version="1.0" encoding="UTF-8" standalone="no"?>
<!DOCTYPE svg PUBLIC "-//W3C//DTD SVG 1.1//EN"
 "http://www.w3.org/Graphics/SVG/1.1/DTD/svg11.dtd">
<!-- Generated by graphviz version 2.40.1 (20161225.0304)
 -->
<!-- Title: oneDegreeRelationshipsDiagram Pages: 1 -->
<svg width="329pt" height="345pt"
 viewBox="0.00 0.00 329.00 345.20" xmlns="http://www.w3.org/2000/svg" xmlns:xlink="http://www.w3.org/1999/xlink">
<g id="graph0" class="graph" transform="scale(1 1) rotate(0) translate(4 341.2)">
<title>oneDegreeRelationshipsDiagram</title>
<polygon fill="#ffffff" stroke="transparent" points="-4,4 -4,-341.2 325,-341.2 325,4 -4,4"/>
<text text-anchor="middle" x="101.8088" y="-8.8" font-family="Helvetica,sans-Serif" font-size="16.00" fill="#000000">Generated by SchemaSpy</text>
<!-- users -->
<g id="node1" class="node">
<title>users</title>
<g id="a_node1"><a xlink:href="../../tables/users.html" xlink:title="users" target="_top">
<polygon fill="#ffffff" stroke="transparent" points="8,-50.2 8,-333.2 313,-333.2 313,-50.2 8,-50.2"/>
<polygon fill="#f5f5f5" stroke="transparent" points="10.5,-301.7 10.5,-330.7 311.5,-330.7 311.5,-301.7 10.5,-301.7"/>
<polygon fill="none" stroke="#000000" points="10.5,-301.7 10.5,-330.7 311.5,-330.7 311.5,-301.7 10.5,-301.7"/>
<text text-anchor="start" x="15.5" y="-308.8" font-family="Helvetica,sans-Serif" font-weight="bold" font-size="16.00" fill="#000000">users</text>
<text text-anchor="start" x="262.9272" y="-311.3" font-family="Helvetica,sans-Serif" font-size="16.00" fill="#000000">[table]</text>
<polygon fill="none" stroke="#000000" points="10.5,-276.7 10.5,-301.7 159.5,-301.7 159.5,-276.7 10.5,-276.7"/>
<image xlink:href="../../images/primaryKeys.png" width="11px" height="12px" preserveAspectRatio="xMinYMin meet" x="15.5" y="-295.2"/>
<text text-anchor="start" x="30.5" y="-280.8" font-family="Helvetica,sans-Serif" font-size="16.00" fill="#000000">id</text>
<polygon fill="none" stroke="#000000" points="159.5,-276.7 159.5,-301.7 311.5,-301.7 311.5,-276.7 159.5,-276.7"/>
<text text-anchor="start" x="162.5" y="-284.3" font-family="Helvetica,sans-Serif" font-size="16.00" fill="#000000">text[2000000000]</text>
<polygon fill="#ffffff" stroke="transparent" points="10.5,-251.7 10.5,-276.7 159.5,-276.7 159.5,-251.7 10.5,-251.7"/>
<polygon fill="none" stroke="#000000" points="10.5,-251.7 10.5,-276.7 159.5,-276.7 159.5,-251.7 10.5,-251.7"/>
<text text-anchor="start" x="30.5" y="-255.8" font-family="Helvetica,sans-Serif" font-size="16.00" fill="#000000">user_name</text>
<polygon fill="none" stroke="#000000" points="159.5,-251.7 159.5,-276.7 311.5,-276.7 311.5,-251.7 159.5,-251.7"/>
<text text-anchor="start" x="162.5" y="-259.3" font-family="Helvetica,sans-Serif" font-size="16.00" fill="#000000">text[2000000000]</text>
<polygon fill="#ffffff" stroke="transparent" points="10.5,-226.7 10.5,-251.7 159.5,-251.7 159.5,-226.7 10.5,-226.7"/>
<polygon fill="none" stroke="#000000" points="10.5,-226.7 10.5,-251.7 159.5,-251.7 159.5,-226.7 10.5,-226.7"/>
<text text-anchor="start" x="30.5" y="-230.8" font-family="Helvetica,sans-Serif" font-size="16.00" fill="#000000">login_email</text>
<polygon fill="none" stroke="#000000" points="159.5,-226.7 159.5,-251.7 311.5,-251.7 311.5,-226.7 159.5,-226.7"/>
<text text-anchor="start" x="162.5" y="-234.3" font-family="Helvetica,sans-Serif" font-size="16.00" fill="#000000">text[2000000000]</text>
<polygon fill="none" stroke="#000000" points="10.5,-201.7 10.5,-226.7 159.5,-226.7 159.5,-201.7 10.5,-201.7"/>
<text text-anchor="start" x="30.5" y="-205.8" font-family="Helvetica,sans-Serif" font-size="16.00" fill="#000000">password_hash</text>
<polygon fill="none" stroke="#000000" points="159.5,-201.7 159.5,-226.7 311.5,-226.7 311.5,-201.7 159.5,-201.7"/>
<text text-anchor="start" x="162.5" y="-209.3" font-family="Helvetica,sans-Serif" font-size="16.00" fill="#000000">text[2000000000]</text>
<polygon fill="none" stroke="#000000" points="10.5,-176.7 10.5,-201.7 159.5,-201.7 159.5,-176.7 10.5,-176.7"/>
<text text-anchor="start" x="30.5" y="-180.8" font-family="Helvetica,sans-Serif" font-size="16.00" fill="#000000">description</text>
<polygon fill="none" stroke="#000000" points="159.5,-176.7 159.5,-201.7 311.5,-201.7 311.5,-176.7 159.5,-176.7"/>
<text text-anchor="start" x="162.5" y="-184.3" font-family="Helvetica,sans-Serif" font-size="16.00" fill="#000000">text[2000000000]</text>
<polygon fill="#ffffff" stroke="transparent" points="10.5,-151.7 10.5,-176.7 159.5,-176.7 159.5,-151.7 10.5,-151.7"/>
<polygon fill="none" stroke="#000000" points="10.5,-151.7 10.5,-176.7 159.5,-176.7 159.5,-151.7 10.5,-151.7"/>
<text text-anchor="start" x="30.5" y="-155.8" font-family="Helvetica,sans-Serif" font-size="16.00" fill="#000000">frozen</text>
<polygon fill="none" stroke="#000000" points="159.5,-151.7 159.5,-176.7 311.5,-176.7 311.5,-151.7 159.5,-151.7"/>
<text text-anchor="start" x="162.1312" y="-159.3" font-family="Helvetica,sans-Serif" font-size="16.00" fill="#000000">integer[2000000000]</text>
<polygon fill="#ffffff" stroke="transparent" points="10.5,-126.7 10.5,-151.7 159.5,-151.7 159.5,-126.7 10.5,-126.7"/>
<polygon fill="none" stroke="#000000" points="10.5,-126.7 10.5,-151.7 159.5,-151.7 159.5,-126.7 10.5,-126.7"/>
<text text-anchor="start" x="30.5" y="-130.8" font-family="Helvetica,sans-Serif" font-size="16.00" fill="#000000">active</text>
<polygon fill="none" stroke="#000000" points="159.5,-126.7 159.5,-151.7 311.5,-151.7 311.5,-126.7 159.5,-126.7"/>
<text text-anchor="start" x="162.1312" y="-134.3" font-family="Helvetica,sans-Serif" font-size="16.00" fill="#000000">integer[2000000000]</text>
<polygon fill="none" stroke="#000000" points="10.5,-101.7 10.5,-126.7 159.5,-126.7 159.5,-101.7 10.5,-101.7"/>
<text text-anchor="start" x="30.5" y="-105.8" font-family="Helvetica,sans-Serif" font-size="16.00" fill="#000000">inserted_at</text>
<polygon fill="none" stroke="#000000" points="159.5,-101.7 159.5,-126.7 311.5,-126.7 311.5,-101.7 159.5,-101.7"/>
<text text-anchor="start" x="162.5" y="-109.3" font-family="Helvetica,sans-Serif" font-size="16.00" fill="#000000">text[2000000000]</text>
<polygon fill="none" stroke="#000000" points="10.5,-76.7 10.5,-101.7 159.5,-101.7 159.5,-76.7 10.5,-76.7"/>
<text text-anchor="start" x="30.5" y="-80.8" font-family="Helvetica,sans-Serif" font-size="16.00" fill="#000000">updated_at</text>
<polygon fill="none" stroke="#000000" points="159.5,-76.7 159.5,-101.7 311.5,-101.7 311.5,-76.7 159.5,-76.7"/>
<text text-anchor="start" x="162.5" y="-84.3" font-family="Helvetica,sans-Serif" font-size="16.00" fill="#000000">text[2000000000]</text>
<polygon fill="#ffffff" stroke="transparent" points="10.5,-51.7 10.5,-76.7 72.5,-76.7 72.5,-51.7 10.5,-51.7"/>
<polygon fill="none" stroke="#000000" points="10.5,-51.7 10.5,-76.7 72.5,-76.7 72.5,-51.7 10.5,-51.7"/>
<text text-anchor="start" x="13.5" y="-59.3" font-family="Helvetica,sans-Serif" font-size="16.00" fill="#000000">&lt; 0</text>
<polygon fill="#ffffff" stroke="transparent" points="72.5,-51.7 72.5,-76.7 159.5,-76.7 159.5,-51.7 72.5,-51.7"/>
<polygon fill="none" stroke="#000000" points="72.5,-51.7 72.5,-76.7 159.5,-76.7 159.5,-51.7 72.5,-51.7"/>
<text text-anchor="start" x="109.388" y="-59.3" font-family="Helvetica,sans-Serif" font-size="16.00" fill="#000000">0 rows</text>
<polygon fill="#ffffff" stroke="transparent" points="159.5,-51.7 159.5,-76.7 311.5,-76.7 311.5,-51.7 159.5,-51.7"/>
<polygon fill="none" stroke="#000000" points="159.5,-51.7 159.5,-76.7 311.5,-76.7 311.5,-51.7 159.5,-51.7"/>
<text text-anchor="start" x="285.8168" y="-59.3" font-family="Helvetica,sans-Serif" font-size="16.00" fill="#000000">0 &gt;</text>
<polygon fill="none" stroke="#000000" stroke-width="2" points="9,-51.2 9,-332.2 312,-332.2 312,-51.2 9,-51.2"/>
</a>
</g>
</g>
</g>
</svg>
