<?xml version="1.0" encoding="UTF-8" standalone="no"?>
<!DOCTYPE svg PUBLIC "-//W3C//DTD SVG 1.1//EN"
 "http://www.w3.org/Graphics/SVG/1.1/DTD/svg11.dtd">
<!-- Generated by graphviz version 2.40.1 (20161225.0304)
 -->
<!-- Title: twoDegreesRelationshipsDiagram Pages: 1 -->
<svg width="828pt" height="545pt"
 viewBox="0.00 0.00 828.00 545.20" xmlns="http://www.w3.org/2000/svg" xmlns:xlink="http://www.w3.org/1999/xlink">
<g id="graph0" class="graph" transform="scale(1 1) rotate(0) translate(4 541.2)">
<title>twoDegreesRelationshipsDiagram</title>
<polygon fill="#ffffff" stroke="transparent" points="-4,4 -4,-541.2 824,-541.2 824,4 -4,4"/>
<text text-anchor="middle" x="101.8088" y="-8.8" font-family="Helvetica,sans-Serif" font-size="16.00" fill="#000000">Generated by SchemaSpy</text>
<!-- journal_entries -->
<g id="node1" class="node">
<title>journal_entries</title>
<g id="a_node1"><a xlink:href="../../tables/journal_entries.html" xlink:title="journal_entries" target="_top">
<polygon fill="#ffffff" stroke="transparent" points="362,-285.2 362,-518.2 558,-518.2 558,-285.2 362,-285.2"/>
<polygon fill="#f5f5f5" stroke="transparent" points="362,-488.7 362,-517.7 558,-517.7 558,-488.7 362,-488.7"/>
<polygon fill="none" stroke="#000000" points="362,-488.7 362,-517.7 558,-517.7 558,-488.7 362,-488.7"/>
<text text-anchor="start" x="367" y="-495.8" font-family="Helvetica,sans-Serif" font-weight="bold" font-size="16.00" fill="#000000">journal_entries</text>
<text text-anchor="start" x="509.4272" y="-498.3" font-family="Helvetica,sans-Serif" font-size="16.00" fill="#000000">[table]</text>
<polygon fill="none" stroke="#000000" points="362,-466.7 362,-488.7 558,-488.7 558,-466.7 362,-466.7"/>
<image xlink:href="../../images/primaryKeys.png" width="11px" height="12px" preserveAspectRatio="xMinYMin meet" x="367" y="-483.7"/>
<text text-anchor="start" x="382" y="-469.3" font-family="Helvetica,sans-Serif" font-size="16.00" fill="#000000">id</text>
<polygon fill="#ffffff" stroke="transparent" points="362,-444.7 362,-466.7 558,-466.7 558,-444.7 362,-444.7"/>
<polygon fill="none" stroke="#000000" points="362,-444.7 362,-466.7 558,-466.7 558,-444.7 362,-444.7"/>
<text text-anchor="start" x="382" y="-447.3" font-family="Helvetica,sans-Serif" font-size="16.00" fill="#000000">journal_for</text>
<polygon fill="#ffffff" stroke="transparent" points="362,-422.7 362,-444.7 558,-444.7 558,-422.7 362,-422.7"/>
<polygon fill="none" stroke="#000000" points="362,-422.7 362,-444.7 558,-444.7 558,-422.7 362,-422.7"/>
<image xlink:href="../../images/foreignKeys.png" width="11px" height="12px" preserveAspectRatio="xMinYMin meet" x="367" y="-439.7"/>
<text text-anchor="start" x="382" y="-425.3" font-family="Helvetica,sans-Serif" font-size="16.00" fill="#000000">entry_type_id</text>
<polygon fill="#ffffff" stroke="transparent" points="362,-400.7 362,-422.7 558,-422.7 558,-400.7 362,-400.7"/>
<polygon fill="none" stroke="#000000" points="362,-400.7 362,-422.7 558,-422.7 558,-400.7 362,-400.7"/>
<text text-anchor="start" x="382" y="-403.3" font-family="Helvetica,sans-Serif" font-size="16.00" fill="#000000">is_private</text>
<polygon fill="#ffffff" stroke="transparent" points="362,-378.7 362,-400.7 558,-400.7 558,-378.7 362,-378.7"/>
<polygon fill="none" stroke="#000000" points="362,-378.7 362,-400.7 558,-400.7 558,-378.7 362,-378.7"/>
<image xlink:href="../../images/foreignKeys.png" width="11px" height="12px" preserveAspectRatio="xMinYMin meet" x="367" y="-395.7"/>
<text text-anchor="start" x="382" y="-381.3" font-family="Helvetica,sans-Serif" font-size="16.00" fill="#000000">user_id</text>
<polygon fill="#ffffff" stroke="transparent" points="362,-356.7 362,-378.7 558,-378.7 558,-356.7 362,-356.7"/>
<polygon fill="none" stroke="#000000" points="362,-356.7 362,-378.7 558,-378.7 558,-356.7 362,-356.7"/>
<text text-anchor="start" x="382" y="-359.3" font-family="Helvetica,sans-Serif" font-size="16.00" fill="#000000">inserted_at</text>
<polygon fill="none" stroke="#000000" points="362,-334.7 362,-356.7 558,-356.7 558,-334.7 362,-334.7"/>
<image xlink:href="../../images/foreignKeys.png" width="11px" height="12px" preserveAspectRatio="xMinYMin meet" x="367" y="-351.7"/>
<text text-anchor="start" x="382" y="-337.3" font-family="Helvetica,sans-Serif" font-size="16.00" fill="#000000">location_id</text>
<polygon fill="none" stroke="#000000" points="362,-309.7 362,-334.7 558,-334.7 558,-309.7 362,-309.7"/>
<text text-anchor="start" x="365" y="-317.3" font-family="Helvetica,sans-Serif" font-size="16.00" fill="#000000">...</text>
<polygon fill="#ffffff" stroke="transparent" points="362,-284.7 362,-309.7 433,-309.7 433,-284.7 362,-284.7"/>
<polygon fill="none" stroke="#000000" points="362,-284.7 362,-309.7 433,-309.7 433,-284.7 362,-284.7"/>
<text text-anchor="start" x="365" y="-292.3" font-family="Helvetica,sans-Serif" font-size="16.00" fill="#000000">&lt; 3</text>
<polygon fill="#ffffff" stroke="transparent" points="433,-284.7 433,-309.7 508,-309.7 508,-284.7 433,-284.7"/>
<polygon fill="none" stroke="#000000" points="433,-284.7 433,-309.7 508,-309.7 508,-284.7 433,-284.7"/>
<text text-anchor="start" x="457.888" y="-292.3" font-family="Helvetica,sans-Serif" font-size="16.00" fill="#000000">2 rows</text>
<polygon fill="#ffffff" stroke="transparent" points="508,-284.7 508,-309.7 558,-309.7 558,-284.7 508,-284.7"/>
<polygon fill="none" stroke="#000000" points="508,-284.7 508,-309.7 558,-309.7 558,-284.7 508,-284.7"/>
<text text-anchor="start" x="532.3168" y="-292.3" font-family="Helvetica,sans-Serif" font-size="16.00" fill="#000000">1 &gt;</text>
</a>
</g>
</g>
<!-- journal_entry_types -->
<g id="node2" class="node">
<title>journal_entry_types</title>
<g id="a_node2"><a xlink:href="../../tables/journal_entry_types.html" xlink:title="journal_entry_types" target="_top">
<polygon fill="#ffffff" stroke="transparent" points="53.5,-454.2 53.5,-533.2 267.5,-533.2 267.5,-454.2 53.5,-454.2"/>
<polygon fill="#f5f5f5" stroke="transparent" points="53.5,-503.7 53.5,-532.7 267.5,-532.7 267.5,-503.7 53.5,-503.7"/>
<polygon fill="none" stroke="#000000" points="53.5,-503.7 53.5,-532.7 267.5,-532.7 267.5,-503.7 53.5,-503.7"/>
<text text-anchor="start" x="58.5" y="-510.8" font-family="Helvetica,sans-Serif" font-weight="bold" font-size="16.00" fill="#000000">journal_entry_types</text>
<text text-anchor="start" x="219.2136" y="-513.3" font-family="Helvetica,sans-Serif" font-size="16.00" fill="#000000">[table]</text>
<polygon fill="none" stroke="#000000" points="53.5,-478.7 53.5,-503.7 267.5,-503.7 267.5,-478.7 53.5,-478.7"/>
<text text-anchor="start" x="56.5" y="-486.3" font-family="Helvetica,sans-Serif" font-size="16.00" fill="#000000">...</text>
<polygon fill="#ffffff" stroke="transparent" points="53.5,-453.7 53.5,-478.7 126.5,-478.7 126.5,-453.7 53.5,-453.7"/>
<polygon fill="none" stroke="#000000" points="53.5,-453.7 53.5,-478.7 126.5,-478.7 126.5,-453.7 53.5,-453.7"/>
<text text-anchor="start" x="56.5" y="-461.3" font-family="Helvetica,sans-Serif" font-size="16.00" fill="#000000"> &#160;</text>
<polygon fill="#ffffff" stroke="transparent" points="126.5,-453.7 126.5,-478.7 209.5,-478.7 209.5,-453.7 126.5,-453.7"/>
<polygon fill="none" stroke="#000000" points="126.5,-453.7 126.5,-478.7 209.5,-478.7 209.5,-453.7 126.5,-453.7"/>
<text text-anchor="start" x="159.388" y="-461.3" font-family="Helvetica,sans-Serif" font-size="16.00" fill="#000000">2 rows</text>
<polygon fill="#ffffff" stroke="transparent" points="209.5,-453.7 209.5,-478.7 267.5,-478.7 267.5,-453.7 209.5,-453.7"/>
<polygon fill="none" stroke="#000000" points="209.5,-453.7 209.5,-478.7 267.5,-478.7 267.5,-453.7 209.5,-453.7"/>
<text text-anchor="start" x="241.8168" y="-461.3" font-family="Helvetica,sans-Serif" font-size="16.00" fill="#000000">1 &gt;</text>
</a>
</g>
</g>
<!-- journal_entries&#45;&gt;journal_entry_types -->
<g id="edge1" class="edge">
<title>journal_entries:w&#45;&gt;journal_entry_types:e</title>
<path fill="none" stroke="#000000" d="M347.6575,-435.5965C313.1084,-445.4869 311.184,-490.7 267.5,-490.7"/>
<polygon fill="#000000" stroke="#000000" points="354.069,-434.7488 362.4719,-437.2689 358.0345,-434.2244 362,-433.7 362,-433.7 362,-433.7 358.0345,-434.2244 361.5281,-430.1311 354.069,-434.7488 354.069,-434.7488"/>
<ellipse fill="none" stroke="#000000" cx="350.8966" cy="-435.1683" rx="3.2" ry="3.2"/>
</g>
<!-- locations_cities -->
<g id="node3" class="node">
<title>locations_cities</title>
<g id="a_node3"><a xlink:href="../../tables/locations_cities.html" xlink:title="locations_cities" target="_top">
<polygon fill="#ffffff" stroke="transparent" points="70.5,-50.2 70.5,-129.2 250.5,-129.2 250.5,-50.2 70.5,-50.2"/>
<polygon fill="#f5f5f5" stroke="transparent" points="70.5,-99.7 70.5,-128.7 250.5,-128.7 250.5,-99.7 70.5,-99.7"/>
<polygon fill="none" stroke="#000000" points="70.5,-99.7 70.5,-128.7 250.5,-128.7 250.5,-99.7 70.5,-99.7"/>
<text text-anchor="start" x="75.5" y="-106.8" font-family="Helvetica,sans-Serif" font-weight="bold" font-size="16.00" fill="#000000">locations_cities</text>
<text text-anchor="start" x="202.2136" y="-109.3" font-family="Helvetica,sans-Serif" font-size="16.00" fill="#000000">[table]</text>
<polygon fill="none" stroke="#000000" points="70.5,-74.7 70.5,-99.7 250.5,-99.7 250.5,-74.7 70.5,-74.7"/>
<text text-anchor="start" x="73.5" y="-82.3" font-family="Helvetica,sans-Serif" font-size="16.00" fill="#000000">...</text>
<polygon fill="#ffffff" stroke="transparent" points="70.5,-49.7 70.5,-74.7 109.5,-74.7 109.5,-49.7 70.5,-49.7"/>
<polygon fill="none" stroke="#000000" points="70.5,-49.7 70.5,-74.7 109.5,-74.7 109.5,-49.7 70.5,-49.7"/>
<text text-anchor="start" x="73.5" y="-57.3" font-family="Helvetica,sans-Serif" font-size="16.00" fill="#000000">&lt; 4</text>
<polygon fill="#ffffff" stroke="transparent" points="109.5,-49.7 109.5,-74.7 216.5,-74.7 216.5,-49.7 109.5,-49.7"/>
<polygon fill="none" stroke="#000000" points="109.5,-49.7 109.5,-74.7 216.5,-74.7 216.5,-49.7 109.5,-49.7"/>
<text text-anchor="start" x="117.4696" y="-57.3" font-family="Helvetica,sans-Serif" font-size="16.00" fill="#000000">210,698 rows</text>
<polygon fill="#ffffff" stroke="transparent" points="216.5,-49.7 216.5,-74.7 250.5,-74.7 250.5,-49.7 216.5,-49.7"/>
<polygon fill="none" stroke="#000000" points="216.5,-49.7 216.5,-74.7 250.5,-74.7 250.5,-49.7 216.5,-49.7"/>
<text text-anchor="start" x="224.8168" y="-57.3" font-family="Helvetica,sans-Serif" font-size="16.00" fill="#000000">1 &gt;</text>
</a>
</g>
</g>
<!-- journal_entries&#45;&gt;locations_cities -->
<g id="edge2" class="edge">
<title>journal_entries:w&#45;&gt;locations_cities:e</title>
<path fill="none" stroke="#000000" d="M348.5577,-339.3132C321.7174,-308.4235 342.9338,-174.5831 321,-139.7 300.1339,-106.5149 289.7,-86.7 250.5,-86.7"/>
<polygon fill="#000000" stroke="#000000" points="354.7741,-342.2668 360.4551,-348.9516 358.3871,-343.9834 362,-345.7 362,-345.7 362,-345.7 358.3871,-343.9834 363.5449,-342.4484 354.7741,-342.2668 354.7741,-342.2668"/>
<ellipse fill="none" stroke="#000000" cx="351.8838" cy="-340.8935" rx="3.2" ry="3.2"/>
</g>
<!-- users -->
<g id="node4" class="node">
<title>users</title>
<g id="a_node4"><a xlink:href="../../tables/users.html" xlink:title="users" target="_top">
<polygon fill="#ffffff" stroke="transparent" points="8,-150.2 8,-433.2 313,-433.2 313,-150.2 8,-150.2"/>
<polygon fill="#f5f5f5" stroke="transparent" points="10.5,-401.7 10.5,-430.7 311.5,-430.7 311.5,-401.7 10.5,-401.7"/>
<polygon fill="none" stroke="#000000" points="10.5,-401.7 10.5,-430.7 311.5,-430.7 311.5,-401.7 10.5,-401.7"/>
<text text-anchor="start" x="15.5" y="-408.8" font-family="Helvetica,sans-Serif" font-weight="bold" font-size="16.00" fill="#000000">users</text>
<text text-anchor="start" x="262.9272" y="-411.3" font-family="Helvetica,sans-Serif" font-size="16.00" fill="#000000">[table]</text>
<polygon fill="none" stroke="#000000" points="10.5,-376.7 10.5,-401.7 159.5,-401.7 159.5,-376.7 10.5,-376.7"/>
<image xlink:href="../../images/primaryKeys.png" width="11px" height="12px" preserveAspectRatio="xMinYMin meet" x="15.5" y="-395.2"/>
<text text-anchor="start" x="30.5" y="-380.8" font-family="Helvetica,sans-Serif" font-size="16.00" fill="#000000">id</text>
<polygon fill="none" stroke="#000000" points="159.5,-376.7 159.5,-401.7 311.5,-401.7 311.5,-376.7 159.5,-376.7"/>
<text text-anchor="start" x="162.5" y="-384.3" font-family="Helvetica,sans-Serif" font-size="16.00" fill="#000000">text[2000000000]</text>
<polygon fill="#ffffff" stroke="transparent" points="10.5,-351.7 10.5,-376.7 159.5,-376.7 159.5,-351.7 10.5,-351.7"/>
<polygon fill="none" stroke="#000000" points="10.5,-351.7 10.5,-376.7 159.5,-376.7 159.5,-351.7 10.5,-351.7"/>
<text text-anchor="start" x="30.5" y="-355.8" font-family="Helvetica,sans-Serif" font-size="16.00" fill="#000000">user_name</text>
<polygon fill="none" stroke="#000000" points="159.5,-351.7 159.5,-376.7 311.5,-376.7 311.5,-351.7 159.5,-351.7"/>
<text text-anchor="start" x="162.5" y="-359.3" font-family="Helvetica,sans-Serif" font-size="16.00" fill="#000000">text[2000000000]</text>
<polygon fill="#ffffff" stroke="transparent" points="10.5,-326.7 10.5,-351.7 159.5,-351.7 159.5,-326.7 10.5,-326.7"/>
<polygon fill="none" stroke="#000000" points="10.5,-326.7 10.5,-351.7 159.5,-351.7 159.5,-326.7 10.5,-326.7"/>
<text text-anchor="start" x="30.5" y="-330.8" font-family="Helvetica,sans-Serif" font-size="16.00" fill="#000000">login_email</text>
<polygon fill="none" stroke="#000000" points="159.5,-326.7 159.5,-351.7 311.5,-351.7 311.5,-326.7 159.5,-326.7"/>
<text text-anchor="start" x="162.5" y="-334.3" font-family="Helvetica,sans-Serif" font-size="16.00" fill="#000000">text[2000000000]</text>
<polygon fill="none" stroke="#000000" points="10.5,-301.7 10.5,-326.7 159.5,-326.7 159.5,-301.7 10.5,-301.7"/>
<text text-anchor="start" x="30.5" y="-305.8" font-family="Helvetica,sans-Serif" font-size="16.00" fill="#000000">password_hash</text>
<polygon fill="none" stroke="#000000" points="159.5,-301.7 159.5,-326.7 311.5,-326.7 311.5,-301.7 159.5,-301.7"/>
<text text-anchor="start" x="162.5" y="-309.3" font-family="Helvetica,sans-Serif" font-size="16.00" fill="#000000">text[2000000000]</text>
<polygon fill="none" stroke="#000000" points="10.5,-276.7 10.5,-301.7 159.5,-301.7 159.5,-276.7 10.5,-276.7"/>
<text text-anchor="start" x="30.5" y="-280.8" font-family="Helvetica,sans-Serif" font-size="16.00" fill="#000000">description</text>
<polygon fill="none" stroke="#000000" points="159.5,-276.7 159.5,-301.7 311.5,-301.7 311.5,-276.7 159.5,-276.7"/>
<text text-anchor="start" x="162.5" y="-284.3" font-family="Helvetica,sans-Serif" font-size="16.00" fill="#000000">text[2000000000]</text>
<polygon fill="#ffffff" stroke="transparent" points="10.5,-251.7 10.5,-276.7 159.5,-276.7 159.5,-251.7 10.5,-251.7"/>
<polygon fill="none" stroke="#000000" points="10.5,-251.7 10.5,-276.7 159.5,-276.7 159.5,-251.7 10.5,-251.7"/>
<text text-anchor="start" x="30.5" y="-255.8" font-family="Helvetica,sans-Serif" font-size="16.00" fill="#000000">frozen</text>
<polygon fill="none" stroke="#000000" points="159.5,-251.7 159.5,-276.7 311.5,-276.7 311.5,-251.7 159.5,-251.7"/>
<text text-anchor="start" x="162.1312" y="-259.3" font-family="Helvetica,sans-Serif" font-size="16.00" fill="#000000">integer[2000000000]</text>
<polygon fill="#ffffff" stroke="transparent" points="10.5,-226.7 10.5,-251.7 159.5,-251.7 159.5,-226.7 10.5,-226.7"/>
<polygon fill="none" stroke="#000000" points="10.5,-226.7 10.5,-251.7 159.5,-251.7 159.5,-226.7 10.5,-226.7"/>
<text text-anchor="start" x="30.5" y="-230.8" font-family="Helvetica,sans-Serif" font-size="16.00" fill="#000000">active</text>
<polygon fill="none" stroke="#000000" points="159.5,-226.7 159.5,-251.7 311.5,-251.7 311.5,-226.7 159.5,-226.7"/>
<text text-anchor="start" x="162.1312" y="-234.3" font-family="Helvetica,sans-Serif" font-size="16.00" fill="#000000">integer[2000000000]</text>
<polygon fill="none" stroke="#000000" points="10.5,-201.7 10.5,-226.7 159.5,-226.7 159.5,-201.7 10.5,-201.7"/>
<text text-anchor="start" x="30.5" y="-205.8" font-family="Helvetica,sans-Serif" font-size="16.00" fill="#000000">inserted_at</text>
<polygon fill="none" stroke="#000000" points="159.5,-201.7 159.5,-226.7 311.5,-226.7 311.5,-201.7 159.5,-201.7"/>
<text text-anchor="start" x="162.5" y="-209.3" font-family="Helvetica,sans-Serif" font-size="16.00" fill="#000000">text[2000000000]</text>
<polygon fill="none" stroke="#000000" points="10.5,-176.7 10.5,-201.7 159.5,-201.7 159.5,-176.7 10.5,-176.7"/>
<text text-anchor="start" x="30.5" y="-180.8" font-family="Helvetica,sans-Serif" font-size="16.00" fill="#000000">updated_at</text>
<polygon fill="none" stroke="#000000" points="159.5,-176.7 159.5,-201.7 311.5,-201.7 311.5,-176.7 159.5,-176.7"/>
<text text-anchor="start" x="162.5" y="-184.3" font-family="Helvetica,sans-Serif" font-size="16.00" fill="#000000">text[2000000000]</text>
<polygon fill="#ffffff" stroke="transparent" points="10.5,-151.7 10.5,-176.7 72.5,-176.7 72.5,-151.7 10.5,-151.7"/>
<polygon fill="none" stroke="#000000" points="10.5,-151.7 10.5,-176.7 72.5,-176.7 72.5,-151.7 10.5,-151.7"/>
<text text-anchor="start" x="13.5" y="-159.3" font-family="Helvetica,sans-Serif" font-size="16.00" fill="#000000">&lt; 0</text>
<polygon fill="#ffffff" stroke="transparent" points="72.5,-151.7 72.5,-176.7 159.5,-176.7 159.5,-151.7 72.5,-151.7"/>
<polygon fill="none" stroke="#000000" points="72.5,-151.7 72.5,-176.7 159.5,-176.7 159.5,-151.7 72.5,-151.7"/>
<text text-anchor="start" x="109.388" y="-159.3" font-family="Helvetica,sans-Serif" font-size="16.00" fill="#000000">0 rows</text>
<polygon fill="#ffffff" stroke="transparent" points="159.5,-151.7 159.5,-176.7 311.5,-176.7 311.5,-151.7 159.5,-151.7"/>
<polygon fill="none" stroke="#000000" points="159.5,-151.7 159.5,-176.7 311.5,-176.7 311.5,-151.7 159.5,-151.7"/>
<text text-anchor="start" x="285.8168" y="-159.3" font-family="Helvetica,sans-Serif" font-size="16.00" fill="#000000">1 &gt;</text>
<polygon fill="none" stroke="#000000" stroke-width="2" points="9,-151.2 9,-432.2 312,-432.2 312,-151.2 9,-151.2"/>
</a>
</g>
</g>
<!-- journal_entries&#45;&gt;users -->
<g id="edge3" class="edge">
<title>journal_entries:w&#45;&gt;users:e</title>
<path fill="none" stroke="#000000" d="M347.4203,-389.7C335.5435,-389.7 328.158,-389.7 311.5,-389.7"/>
<polygon fill="#000000" stroke="#000000" points="354,-389.7001 362,-393.3 358,-389.7 362,-389.7 362,-389.7 362,-389.7 358,-389.7 362,-386.1 354,-389.7001 354,-389.7001"/>
<ellipse fill="none" stroke="#000000" cx="350.8" cy="-389.7001" rx="3.2" ry="3.2"/>
</g>
<!-- journal_entry_tags -->
<g id="node5" class="node">
<title>journal_entry_tags</title>
<g id="a_node5"><a xlink:href="../../tables/journal_entry_tags.html" xlink:title="journal_entry_tags" target="_top">
<polygon fill="#ffffff" stroke="transparent" points="607,-441.2 607,-520.2 812,-520.2 812,-441.2 607,-441.2"/>
<polygon fill="#f5f5f5" stroke="transparent" points="607.5,-490.7 607.5,-519.7 812.5,-519.7 812.5,-490.7 607.5,-490.7"/>
<polygon fill="none" stroke="#000000" points="607.5,-490.7 607.5,-519.7 812.5,-519.7 812.5,-490.7 607.5,-490.7"/>
<text text-anchor="start" x="612.5" y="-497.8" font-family="Helvetica,sans-Serif" font-weight="bold" font-size="16.00" fill="#000000">journal_entry_tags</text>
<text text-anchor="start" x="764.2136" y="-500.3" font-family="Helvetica,sans-Serif" font-size="16.00" fill="#000000">[table]</text>
<polygon fill="none" stroke="#000000" points="607.5,-465.7 607.5,-490.7 812.5,-490.7 812.5,-465.7 607.5,-465.7"/>
<text text-anchor="start" x="610.5" y="-473.3" font-family="Helvetica,sans-Serif" font-size="16.00" fill="#000000">...</text>
<polygon fill="#ffffff" stroke="transparent" points="607.5,-440.7 607.5,-465.7 690.5,-465.7 690.5,-440.7 607.5,-440.7"/>
<polygon fill="none" stroke="#000000" points="607.5,-440.7 607.5,-465.7 690.5,-465.7 690.5,-440.7 607.5,-440.7"/>
<text text-anchor="start" x="610.5" y="-448.3" font-family="Helvetica,sans-Serif" font-size="16.00" fill="#000000">&lt; 2</text>
<polygon fill="#ffffff" stroke="transparent" points="690.5,-440.7 690.5,-465.7 770.5,-465.7 770.5,-440.7 690.5,-440.7"/>
<polygon fill="none" stroke="#000000" points="690.5,-440.7 690.5,-465.7 770.5,-465.7 770.5,-440.7 690.5,-440.7"/>
<text text-anchor="start" x="720.388" y="-448.3" font-family="Helvetica,sans-Serif" font-size="16.00" fill="#000000">2 rows</text>
<polygon fill="#ffffff" stroke="transparent" points="770.5,-440.7 770.5,-465.7 812.5,-465.7 812.5,-440.7 770.5,-440.7"/>
<polygon fill="none" stroke="#000000" points="770.5,-440.7 770.5,-465.7 812.5,-465.7 812.5,-440.7 770.5,-440.7"/>
<text text-anchor="start" x="800.6072" y="-448.3" font-family="Helvetica,sans-Serif" font-size="16.00" fill="#000000"> &#160;</text>
</a>
</g>
</g>
<!-- journal_entry_tags&#45;&gt;journal_entries -->
<g id="edge4" class="edge">
<title>journal_entry_tags:w&#45;&gt;journal_entries:e</title>
<path fill="none" stroke="#000000" d="M592.8428,-477.7C581.4139,-477.7 574.1563,-477.7 558,-477.7"/>
<polygon fill="#000000" stroke="#000000" points="599.5,-477.7001 607.5,-481.3 603.5,-477.7 607.5,-477.7 607.5,-477.7 607.5,-477.7 603.5,-477.7 607.5,-474.1 599.5,-477.7001 599.5,-477.7001"/>
<ellipse fill="none" stroke="#000000" cx="596.3" cy="-477.7001" rx="3.2" ry="3.2"/>
</g>
</g>
</svg>
