<?xml version="1.0" encoding="UTF-8" standalone="no"?>
<!DOCTYPE svg PUBLIC "-//W3C//DTD SVG 1.1//EN"
 "http://www.w3.org/Graphics/SVG/1.1/DTD/svg11.dtd">
<!-- Generated by graphviz version 2.40.1 (20161225.0304)
 -->
<!-- Title: largeRelationshipsDiagram Pages: 1 -->
<svg width="1046pt" height="1146pt"
 viewBox="0.00 0.00 1046.00 1146.20" xmlns="http://www.w3.org/2000/svg" xmlns:xlink="http://www.w3.org/1999/xlink">
<g id="graph0" class="graph" transform="scale(1 1) rotate(0) translate(4 1142.2)">
<title>largeRelationshipsDiagram</title>
<polygon fill="#ffffff" stroke="transparent" points="-4,4 -4,-1142.2 1042,-1142.2 1042,4 -4,4"/>
<text text-anchor="middle" x="101.8088" y="-8.8" font-family="Helvetica,sans-Serif" font-size="16.00" fill="#000000">Generated by SchemaSpy</text>
<!-- timers -->
<g id="node1" class="node">
<title>timers</title>
<g id="a_node1"><a xlink:href="../../tables/timers.html" xlink:title="timers" target="_top">
<polygon fill="#ffffff" stroke="transparent" points="594,-684.2 594,-1068.2 827,-1068.2 827,-684.2 594,-684.2"/>
<polygon fill="#f5f5f5" stroke="transparent" points="594.5,-1039.2 594.5,-1068.2 827.5,-1068.2 827.5,-1039.2 594.5,-1039.2"/>
<polygon fill="none" stroke="#000000" points="594.5,-1039.2 594.5,-1068.2 827.5,-1068.2 827.5,-1039.2 594.5,-1039.2"/>
<text text-anchor="start" x="599.5" y="-1046.3" font-family="Helvetica,sans-Serif" font-weight="bold" font-size="16.00" fill="#000000">timers</text>
<text text-anchor="start" x="778.9272" y="-1048.8" font-family="Helvetica,sans-Serif" font-size="16.00" fill="#000000">[table]</text>
<polygon fill="none" stroke="#000000" points="594.5,-1017.2 594.5,-1039.2 827.5,-1039.2 827.5,-1017.2 594.5,-1017.2"/>
<image xlink:href="../../images/primaryKeys.png" width="11px" height="12px" preserveAspectRatio="xMinYMin meet" x="599.5" y="-1034.2"/>
<text text-anchor="start" x="614.5" y="-1019.8" font-family="Helvetica,sans-Serif" font-size="16.00" fill="#000000">id</text>
<polygon fill="#ffffff" stroke="transparent" points="594.5,-995.2 594.5,-1017.2 827.5,-1017.2 827.5,-995.2 594.5,-995.2"/>
<polygon fill="none" stroke="#000000" points="594.5,-995.2 594.5,-1017.2 827.5,-1017.2 827.5,-995.2 594.5,-995.2"/>
<text text-anchor="start" x="614.5" y="-997.8" font-family="Helvetica,sans-Serif" font-size="16.00" fill="#000000">start_stamp</text>
<polygon fill="none" stroke="#000000" points="594.5,-973.2 594.5,-995.2 827.5,-995.2 827.5,-973.2 594.5,-973.2"/>
<text text-anchor="start" x="614.5" y="-975.8" font-family="Helvetica,sans-Serif" font-size="16.00" fill="#000000">end_stamp</text>
<polygon fill="none" stroke="#000000" points="594.5,-951.2 594.5,-973.2 827.5,-973.2 827.5,-951.2 594.5,-951.2"/>
<text text-anchor="start" x="614.5" y="-953.8" font-family="Helvetica,sans-Serif" font-size="16.00" fill="#000000">duration</text>
<polygon fill="none" stroke="#000000" points="594.5,-929.2 594.5,-951.2 827.5,-951.2 827.5,-929.2 594.5,-929.2"/>
<text text-anchor="start" x="614.5" y="-931.8" font-family="Helvetica,sans-Serif" font-size="16.00" fill="#000000">duration_time_unit</text>
<polygon fill="none" stroke="#000000" points="594.5,-907.2 594.5,-929.2 827.5,-929.2 827.5,-907.2 594.5,-907.2"/>
<text text-anchor="start" x="614.5" y="-909.8" font-family="Helvetica,sans-Serif" font-size="16.00" fill="#000000">billable</text>
<polygon fill="none" stroke="#000000" points="594.5,-885.2 594.5,-907.2 827.5,-907.2 827.5,-885.2 594.5,-885.2"/>
<image xlink:href="../../images/foreignKeys.png" width="11px" height="12px" preserveAspectRatio="xMinYMin meet" x="599.5" y="-902.2"/>
<text text-anchor="start" x="614.5" y="-887.8" font-family="Helvetica,sans-Serif" font-size="16.00" fill="#000000">business_partner_id</text>
<polygon fill="none" stroke="#000000" points="594.5,-863.2 594.5,-885.2 827.5,-885.2 827.5,-863.2 594.5,-863.2"/>
<image xlink:href="../../images/foreignKeys.png" width="11px" height="12px" preserveAspectRatio="xMinYMin meet" x="599.5" y="-880.2"/>
<text text-anchor="start" x="614.5" y="-865.8" font-family="Helvetica,sans-Serif" font-size="16.00" fill="#000000">activity_type_id</text>
<polygon fill="none" stroke="#000000" points="594.5,-841.2 594.5,-863.2 827.5,-863.2 827.5,-841.2 594.5,-841.2"/>
<text text-anchor="start" x="614.5" y="-843.8" font-family="Helvetica,sans-Serif" font-size="16.00" fill="#000000">billing_rate</text>
<polygon fill="none" stroke="#000000" points="594.5,-819.2 594.5,-841.2 827.5,-841.2 827.5,-819.2 594.5,-819.2"/>
<text text-anchor="start" x="614.5" y="-821.8" font-family="Helvetica,sans-Serif" font-size="16.00" fill="#000000">billing_duration</text>
<polygon fill="none" stroke="#000000" points="594.5,-797.2 594.5,-819.2 827.5,-819.2 827.5,-797.2 594.5,-797.2"/>
<text text-anchor="start" x="614.5" y="-799.8" font-family="Helvetica,sans-Serif" font-size="16.00" fill="#000000">billing_duration_time_unit</text>
<polygon fill="none" stroke="#000000" points="594.5,-775.2 594.5,-797.2 827.5,-797.2 827.5,-775.2 594.5,-775.2"/>
<text text-anchor="start" x="614.5" y="-777.8" font-family="Helvetica,sans-Serif" font-size="16.00" fill="#000000">description</text>
<polygon fill="none" stroke="#000000" points="594.5,-753.2 594.5,-775.2 827.5,-775.2 827.5,-753.2 594.5,-753.2"/>
<image xlink:href="../../images/foreignKeys.png" width="11px" height="12px" preserveAspectRatio="xMinYMin meet" x="599.5" y="-770.2"/>
<text text-anchor="start" x="614.5" y="-755.8" font-family="Helvetica,sans-Serif" font-size="16.00" fill="#000000">project_id</text>
<polygon fill="none" stroke="#000000" points="594.5,-731.2 594.5,-753.2 827.5,-753.2 827.5,-731.2 594.5,-731.2"/>
<text text-anchor="start" x="614.5" y="-733.8" font-family="Helvetica,sans-Serif" font-size="16.00" fill="#000000">inserted_at</text>
<polygon fill="none" stroke="#000000" points="594.5,-709.2 594.5,-731.2 827.5,-731.2 827.5,-709.2 594.5,-709.2"/>
<text text-anchor="start" x="614.5" y="-711.8" font-family="Helvetica,sans-Serif" font-size="16.00" fill="#000000">updated_at</text>
<polygon fill="#ffffff" stroke="transparent" points="594.5,-684.2 594.5,-709.2 684.5,-709.2 684.5,-684.2 594.5,-684.2"/>
<polygon fill="none" stroke="#000000" points="594.5,-684.2 594.5,-709.2 684.5,-709.2 684.5,-684.2 594.5,-684.2"/>
<text text-anchor="start" x="597.5" y="-691.8" font-family="Helvetica,sans-Serif" font-size="16.00" fill="#000000">&lt; 3</text>
<polygon fill="#ffffff" stroke="transparent" points="684.5,-684.2 684.5,-709.2 768.5,-709.2 768.5,-684.2 684.5,-684.2"/>
<polygon fill="none" stroke="#000000" points="684.5,-684.2 684.5,-709.2 768.5,-709.2 768.5,-684.2 684.5,-684.2"/>
<text text-anchor="start" x="718.388" y="-691.8" font-family="Helvetica,sans-Serif" font-size="16.00" fill="#000000">0 rows</text>
<polygon fill="#ffffff" stroke="transparent" points="768.5,-684.2 768.5,-709.2 827.5,-709.2 827.5,-684.2 768.5,-684.2"/>
<polygon fill="none" stroke="#000000" points="768.5,-684.2 768.5,-709.2 827.5,-709.2 827.5,-684.2 768.5,-684.2"/>
<text text-anchor="start" x="801.8168" y="-691.8" font-family="Helvetica,sans-Serif" font-size="16.00" fill="#000000">2 &gt;</text>
</a>
</g>
</g>
<!-- business_partners -->
<g id="node2" class="node">
<title>business_partners</title>
<g id="a_node2"><a xlink:href="../../tables/business_partners.html" xlink:title="business_partners" target="_top">
<polygon fill="#ffffff" stroke="transparent" points="8,-367.2 8,-641.2 212,-641.2 212,-367.2 8,-367.2"/>
<polygon fill="#f5f5f5" stroke="transparent" points="8,-612.2 8,-641.2 212,-641.2 212,-612.2 8,-612.2"/>
<polygon fill="none" stroke="#000000" points="8,-612.2 8,-641.2 212,-641.2 212,-612.2 8,-612.2"/>
<text text-anchor="start" x="13" y="-619.3" font-family="Helvetica,sans-Serif" font-weight="bold" font-size="16.00" fill="#000000">business_partners</text>
<text text-anchor="start" x="163.7136" y="-621.8" font-family="Helvetica,sans-Serif" font-size="16.00" fill="#000000">[table]</text>
<polygon fill="none" stroke="#000000" points="8,-590.2 8,-612.2 212,-612.2 212,-590.2 8,-590.2"/>
<image xlink:href="../../images/primaryKeys.png" width="11px" height="12px" preserveAspectRatio="xMinYMin meet" x="13" y="-607.2"/>
<text text-anchor="start" x="44" y="-592.8" font-family="Helvetica,sans-Serif" font-size="16.00" fill="#000000">id</text>
<polygon fill="#ffffff" stroke="transparent" points="8,-568.2 8,-590.2 212,-590.2 212,-568.2 8,-568.2"/>
<polygon fill="none" stroke="#000000" points="8,-568.2 8,-590.2 212,-590.2 212,-568.2 8,-568.2"/>
<text text-anchor="start" x="44" y="-570.8" font-family="Helvetica,sans-Serif" font-size="16.00" fill="#000000">name</text>
<polygon fill="none" stroke="#000000" points="8,-546.2 8,-568.2 212,-568.2 212,-546.2 8,-546.2"/>
<text text-anchor="start" x="44" y="-548.8" font-family="Helvetica,sans-Serif" font-size="16.00" fill="#000000">description</text>
<polygon fill="none" stroke="#000000" points="8,-524.2 8,-546.2 212,-546.2 212,-524.2 8,-524.2"/>
<text text-anchor="start" x="44" y="-526.8" font-family="Helvetica,sans-Serif" font-size="16.00" fill="#000000">default_currency</text>
<polygon fill="none" stroke="#000000" points="8,-502.2 8,-524.2 212,-524.2 212,-502.2 8,-502.2"/>
<text text-anchor="start" x="44" y="-504.8" font-family="Helvetica,sans-Serif" font-size="16.00" fill="#000000">customer</text>
<polygon fill="none" stroke="#000000" points="8,-480.2 8,-502.2 212,-502.2 212,-480.2 8,-480.2"/>
<text text-anchor="start" x="44" y="-482.8" font-family="Helvetica,sans-Serif" font-size="16.00" fill="#000000">supplier</text>
<polygon fill="none" stroke="#000000" points="8,-458.2 8,-480.2 212,-480.2 212,-458.2 8,-458.2"/>
<text text-anchor="start" x="44" y="-460.8" font-family="Helvetica,sans-Serif" font-size="16.00" fill="#000000">frozen</text>
<polygon fill="none" stroke="#000000" points="8,-436.2 8,-458.2 212,-458.2 212,-436.2 8,-436.2"/>
<text text-anchor="start" x="44" y="-438.8" font-family="Helvetica,sans-Serif" font-size="16.00" fill="#000000">active</text>
<polygon fill="none" stroke="#000000" points="8,-414.2 8,-436.2 212,-436.2 212,-414.2 8,-414.2"/>
<text text-anchor="start" x="44" y="-416.8" font-family="Helvetica,sans-Serif" font-size="16.00" fill="#000000">inserted_at</text>
<polygon fill="none" stroke="#000000" points="8,-392.2 8,-414.2 212,-414.2 212,-392.2 8,-392.2"/>
<text text-anchor="start" x="44" y="-394.8" font-family="Helvetica,sans-Serif" font-size="16.00" fill="#000000">updated_at</text>
<polygon fill="#ffffff" stroke="transparent" points="8,-367.2 8,-392.2 76,-392.2 76,-367.2 8,-367.2"/>
<polygon fill="none" stroke="#000000" points="8,-367.2 8,-392.2 76,-392.2 76,-367.2 8,-367.2"/>
<text text-anchor="start" x="11" y="-374.8" font-family="Helvetica,sans-Serif" font-size="16.00" fill="#000000"> &#160;</text>
<polygon fill="#ffffff" stroke="transparent" points="76,-367.2 76,-392.2 156,-392.2 156,-367.2 76,-367.2"/>
<polygon fill="none" stroke="#000000" points="76,-367.2 76,-392.2 156,-392.2 156,-367.2 76,-367.2"/>
<text text-anchor="start" x="105.888" y="-374.8" font-family="Helvetica,sans-Serif" font-size="16.00" fill="#000000">0 rows</text>
<polygon fill="#ffffff" stroke="transparent" points="156,-367.2 156,-392.2 212,-392.2 212,-367.2 156,-367.2"/>
<polygon fill="none" stroke="#000000" points="156,-367.2 156,-392.2 212,-392.2 212,-367.2 156,-367.2"/>
<text text-anchor="start" x="186.3168" y="-374.8" font-family="Helvetica,sans-Serif" font-size="16.00" fill="#000000">3 &gt;</text>
</a>
</g>
</g>
<!-- timers&#45;&gt;business_partners -->
<g id="edge10" class="edge">
<title>timers:w&#45;&gt;business_partners:e</title>
<path fill="none" stroke="#000000" d="M580.6421,-900.418C571.5574,-907.2066 568.5945,-920.2912 553,-925.2 425.8187,-965.2338 353.0241,-1013.3644 253,-925.2 198.5563,-877.2116 284.5742,-601.2 212,-601.2"/>
<polygon fill="#000000" stroke="#000000" points="586.8467,-898.5295 595.5483,-899.644 590.6733,-897.3648 594.5,-896.2 594.5,-896.2 594.5,-896.2 590.6733,-897.3648 593.4517,-892.756 586.8467,-898.5295 586.8467,-898.5295"/>
<ellipse fill="none" stroke="#000000" cx="583.7853" cy="-899.4613" rx="3.2" ry="3.2"/>
</g>
<!-- projects -->
<g id="node4" class="node">
<title>projects</title>
<g id="a_node4"><a xlink:href="../../tables/projects.html" xlink:title="projects" target="_top">
<polygon fill="#ffffff" stroke="transparent" points="261,-50.2 261,-500.2 545,-500.2 545,-50.2 261,-50.2"/>
<polygon fill="#f5f5f5" stroke="transparent" points="261,-471.2 261,-500.2 545,-500.2 545,-471.2 261,-471.2"/>
<polygon fill="none" stroke="#000000" points="261,-471.2 261,-500.2 545,-500.2 545,-471.2 261,-471.2"/>
<text text-anchor="start" x="266" y="-478.3" font-family="Helvetica,sans-Serif" font-weight="bold" font-size="16.00" fill="#000000">projects</text>
<text text-anchor="start" x="496.4272" y="-480.8" font-family="Helvetica,sans-Serif" font-size="16.00" fill="#000000">[table]</text>
<polygon fill="none" stroke="#000000" points="261,-449.2 261,-471.2 545,-471.2 545,-449.2 261,-449.2"/>
<image xlink:href="../../images/primaryKeys.png" width="11px" height="12px" preserveAspectRatio="xMinYMin meet" x="266" y="-466.2"/>
<text text-anchor="start" x="281" y="-451.8" font-family="Helvetica,sans-Serif" font-size="16.00" fill="#000000">id</text>
<polygon fill="#ffffff" stroke="transparent" points="261,-427.2 261,-449.2 545,-449.2 545,-427.2 261,-427.2"/>
<polygon fill="none" stroke="#000000" points="261,-427.2 261,-449.2 545,-449.2 545,-427.2 261,-427.2"/>
<text text-anchor="start" x="281" y="-429.8" font-family="Helvetica,sans-Serif" font-size="16.00" fill="#000000">name</text>
<polygon fill="none" stroke="#000000" points="261,-405.2 261,-427.2 545,-427.2 545,-405.2 261,-405.2"/>
<text text-anchor="start" x="281" y="-407.8" font-family="Helvetica,sans-Serif" font-size="16.00" fill="#000000">description</text>
<polygon fill="none" stroke="#000000" points="261,-383.2 261,-405.2 545,-405.2 545,-383.2 261,-383.2"/>
<text text-anchor="start" x="281" y="-385.8" font-family="Helvetica,sans-Serif" font-size="16.00" fill="#000000">status</text>
<polygon fill="none" stroke="#000000" points="261,-361.2 261,-383.2 545,-383.2 545,-361.2 261,-361.2"/>
<text text-anchor="start" x="281" y="-363.8" font-family="Helvetica,sans-Serif" font-size="16.00" fill="#000000">project_type</text>
<polygon fill="none" stroke="#000000" points="261,-339.2 261,-361.2 545,-361.2 545,-339.2 261,-339.2"/>
<text text-anchor="start" x="281" y="-341.8" font-family="Helvetica,sans-Serif" font-size="16.00" fill="#000000">priority</text>
<polygon fill="none" stroke="#000000" points="261,-317.2 261,-339.2 545,-339.2 545,-317.2 261,-317.2"/>
<image xlink:href="../../images/foreignKeys.png" width="11px" height="12px" preserveAspectRatio="xMinYMin meet" x="266" y="-334.2"/>
<text text-anchor="start" x="281" y="-319.8" font-family="Helvetica,sans-Serif" font-size="16.00" fill="#000000">business_partner_id</text>
<polygon fill="none" stroke="#000000" points="261,-295.2 261,-317.2 545,-317.2 545,-295.2 261,-295.2"/>
<text text-anchor="start" x="281" y="-297.8" font-family="Helvetica,sans-Serif" font-size="16.00" fill="#000000">expected_start_date</text>
<polygon fill="none" stroke="#000000" points="261,-273.2 261,-295.2 545,-295.2 545,-273.2 261,-273.2"/>
<text text-anchor="start" x="281" y="-275.8" font-family="Helvetica,sans-Serif" font-size="16.00" fill="#000000">expected_end_date</text>
<polygon fill="none" stroke="#000000" points="261,-251.2 261,-273.2 545,-273.2 545,-251.2 261,-251.2"/>
<text text-anchor="start" x="281" y="-253.8" font-family="Helvetica,sans-Serif" font-size="16.00" fill="#000000">actual_start_date</text>
<polygon fill="none" stroke="#000000" points="261,-229.2 261,-251.2 545,-251.2 545,-229.2 261,-229.2"/>
<text text-anchor="start" x="281" y="-231.8" font-family="Helvetica,sans-Serif" font-size="16.00" fill="#000000">actual_end_date</text>
<polygon fill="none" stroke="#000000" points="261,-207.2 261,-229.2 545,-229.2 545,-207.2 261,-207.2"/>
<text text-anchor="start" x="281" y="-209.8" font-family="Helvetica,sans-Serif" font-size="16.00" fill="#000000">estimated_duration</text>
<polygon fill="none" stroke="#000000" points="261,-185.2 261,-207.2 545,-207.2 545,-185.2 261,-185.2"/>
<text text-anchor="start" x="281" y="-187.8" font-family="Helvetica,sans-Serif" font-size="16.00" fill="#000000">estimated_duration_time_unit</text>
<polygon fill="none" stroke="#000000" points="261,-163.2 261,-185.2 545,-185.2 545,-163.2 261,-163.2"/>
<text text-anchor="start" x="281" y="-165.8" font-family="Helvetica,sans-Serif" font-size="16.00" fill="#000000">billable</text>
<polygon fill="none" stroke="#000000" points="261,-141.2 261,-163.2 545,-163.2 545,-141.2 261,-141.2"/>
<text text-anchor="start" x="281" y="-143.8" font-family="Helvetica,sans-Serif" font-size="16.00" fill="#000000">estimated_total_billable_amount</text>
<polygon fill="none" stroke="#000000" points="261,-119.2 261,-141.2 545,-141.2 545,-119.2 261,-119.2"/>
<text text-anchor="start" x="281" y="-121.8" font-family="Helvetica,sans-Serif" font-size="16.00" fill="#000000">active</text>
<polygon fill="none" stroke="#000000" points="261,-97.2 261,-119.2 545,-119.2 545,-97.2 261,-97.2"/>
<text text-anchor="start" x="281" y="-99.8" font-family="Helvetica,sans-Serif" font-size="16.00" fill="#000000">inserted_at</text>
<polygon fill="none" stroke="#000000" points="261,-75.2 261,-97.2 545,-97.2 545,-75.2 261,-75.2"/>
<text text-anchor="start" x="281" y="-77.8" font-family="Helvetica,sans-Serif" font-size="16.00" fill="#000000">updated_at</text>
<polygon fill="#ffffff" stroke="transparent" points="261,-50.2 261,-75.2 376,-75.2 376,-50.2 261,-50.2"/>
<polygon fill="none" stroke="#000000" points="261,-50.2 261,-75.2 376,-75.2 376,-50.2 261,-50.2"/>
<text text-anchor="start" x="264" y="-57.8" font-family="Helvetica,sans-Serif" font-size="16.00" fill="#000000">&lt; 1</text>
<polygon fill="#ffffff" stroke="transparent" points="376,-50.2 376,-75.2 473,-75.2 473,-50.2 376,-50.2"/>
<polygon fill="none" stroke="#000000" points="376,-50.2 376,-75.2 473,-75.2 473,-50.2 376,-50.2"/>
<text text-anchor="start" x="422.888" y="-57.8" font-family="Helvetica,sans-Serif" font-size="16.00" fill="#000000">0 rows</text>
<polygon fill="#ffffff" stroke="transparent" points="473,-50.2 473,-75.2 545,-75.2 545,-50.2 473,-50.2"/>
<polygon fill="none" stroke="#000000" points="473,-50.2 473,-75.2 545,-75.2 545,-50.2 473,-50.2"/>
<text text-anchor="start" x="519.3168" y="-57.8" font-family="Helvetica,sans-Serif" font-size="16.00" fill="#000000">3 &gt;</text>
</a>
</g>
</g>
<!-- timers&#45;&gt;projects -->
<g id="edge11" class="edge">
<title>timers:w&#45;&gt;projects:e</title>
<path fill="none" stroke="#000000" d="M580.8949,-758.664C539.0516,-717.4619 607.9643,-460.2 545,-460.2"/>
<polygon fill="#000000" stroke="#000000" points="587.09,-761.1848 593.1431,-767.5345 590.795,-762.6924 594.5,-764.2 594.5,-764.2 594.5,-764.2 590.795,-762.6924 595.8569,-760.8655 587.09,-761.1848 587.09,-761.1848"/>
<ellipse fill="none" stroke="#000000" cx="584.1259" cy="-759.9787" rx="3.2" ry="3.2"/>
</g>
<!-- activity_types -->
<g id="node5" class="node">
<title>activity_types</title>
<g id="a_node5"><a xlink:href="../../tables/activity_types.html" xlink:title="activity_types" target="_top">
<polygon fill="#ffffff" stroke="transparent" points="320.5,-728.2 320.5,-914.2 485.5,-914.2 485.5,-728.2 320.5,-728.2"/>
<polygon fill="#f5f5f5" stroke="transparent" points="321,-885.2 321,-914.2 486,-914.2 486,-885.2 321,-885.2"/>
<polygon fill="none" stroke="#000000" points="321,-885.2 321,-914.2 486,-914.2 486,-885.2 321,-885.2"/>
<text text-anchor="start" x="326" y="-892.3" font-family="Helvetica,sans-Serif" font-weight="bold" font-size="16.00" fill="#000000">activity_types</text>
<text text-anchor="start" x="437.7136" y="-894.8" font-family="Helvetica,sans-Serif" font-size="16.00" fill="#000000">[table]</text>
<polygon fill="none" stroke="#000000" points="321,-863.2 321,-885.2 486,-885.2 486,-863.2 321,-863.2"/>
<image xlink:href="../../images/primaryKeys.png" width="11px" height="12px" preserveAspectRatio="xMinYMin meet" x="326" y="-880.2"/>
<text text-anchor="start" x="357" y="-865.8" font-family="Helvetica,sans-Serif" font-size="16.00" fill="#000000">id</text>
<polygon fill="none" stroke="#000000" points="321,-841.2 321,-863.2 486,-863.2 486,-841.2 321,-841.2"/>
<text text-anchor="start" x="357" y="-843.8" font-family="Helvetica,sans-Serif" font-size="16.00" fill="#000000">activity_type</text>
<polygon fill="none" stroke="#000000" points="321,-819.2 321,-841.2 486,-841.2 486,-819.2 321,-819.2"/>
<text text-anchor="start" x="357" y="-821.8" font-family="Helvetica,sans-Serif" font-size="16.00" fill="#000000">billing_rate</text>
<polygon fill="none" stroke="#000000" points="321,-797.2 321,-819.2 486,-819.2 486,-797.2 321,-797.2"/>
<text text-anchor="start" x="357" y="-799.8" font-family="Helvetica,sans-Serif" font-size="16.00" fill="#000000">active</text>
<polygon fill="none" stroke="#000000" points="321,-775.2 321,-797.2 486,-797.2 486,-775.2 321,-775.2"/>
<text text-anchor="start" x="357" y="-777.8" font-family="Helvetica,sans-Serif" font-size="16.00" fill="#000000">inserted_at</text>
<polygon fill="none" stroke="#000000" points="321,-753.2 321,-775.2 486,-775.2 486,-753.2 321,-753.2"/>
<text text-anchor="start" x="357" y="-755.8" font-family="Helvetica,sans-Serif" font-size="16.00" fill="#000000">updated_at</text>
<polygon fill="#ffffff" stroke="transparent" points="321,-728.2 321,-753.2 370,-753.2 370,-728.2 321,-728.2"/>
<polygon fill="none" stroke="#000000" points="321,-728.2 321,-753.2 370,-753.2 370,-728.2 321,-728.2"/>
<text text-anchor="start" x="324" y="-735.8" font-family="Helvetica,sans-Serif" font-size="16.00" fill="#000000"> &#160;</text>
<polygon fill="#ffffff" stroke="transparent" points="370,-728.2 370,-753.2 440,-753.2 440,-728.2 370,-728.2"/>
<polygon fill="none" stroke="#000000" points="370,-728.2 370,-753.2 440,-753.2 440,-728.2 370,-728.2"/>
<text text-anchor="start" x="389.888" y="-735.8" font-family="Helvetica,sans-Serif" font-size="16.00" fill="#000000">0 rows</text>
<polygon fill="#ffffff" stroke="transparent" points="440,-728.2 440,-753.2 486,-753.2 486,-728.2 440,-728.2"/>
<polygon fill="none" stroke="#000000" points="440,-728.2 440,-753.2 486,-753.2 486,-728.2 440,-728.2"/>
<text text-anchor="start" x="460.3168" y="-735.8" font-family="Helvetica,sans-Serif" font-size="16.00" fill="#000000">1 &gt;</text>
</a>
</g>
</g>
<!-- timers&#45;&gt;activity_types -->
<g id="edge9" class="edge">
<title>timers:w&#45;&gt;activity_types:e</title>
<path fill="none" stroke="#000000" d="M579.8804,-874.2C543.208,-874.2 528.9479,-874.2 486,-874.2"/>
<polygon fill="#000000" stroke="#000000" points="586.5,-874.2001 594.5,-877.8 590.5,-874.2 594.5,-874.2 594.5,-874.2 594.5,-874.2 590.5,-874.2 594.5,-870.6 586.5,-874.2001 586.5,-874.2001"/>
<ellipse fill="none" stroke="#000000" cx="583.3" cy="-874.2001" rx="3.2" ry="3.2"/>
</g>
<!-- project_notes -->
<g id="node3" class="node">
<title>project_notes</title>
<g id="a_node3"><a xlink:href="../../tables/project_notes.html" xlink:title="project_notes" target="_top">
<polygon fill="#ffffff" stroke="transparent" points="628.5,-477.2 628.5,-663.2 792.5,-663.2 792.5,-477.2 628.5,-477.2"/>
<polygon fill="#f5f5f5" stroke="transparent" points="628.5,-634.2 628.5,-663.2 792.5,-663.2 792.5,-634.2 628.5,-634.2"/>
<polygon fill="none" stroke="#000000" points="628.5,-634.2 628.5,-663.2 792.5,-663.2 792.5,-634.2 628.5,-634.2"/>
<text text-anchor="start" x="633.5" y="-641.3" font-family="Helvetica,sans-Serif" font-weight="bold" font-size="16.00" fill="#000000">project_notes</text>
<text text-anchor="start" x="744.2136" y="-643.8" font-family="Helvetica,sans-Serif" font-size="16.00" fill="#000000">[table]</text>
<polygon fill="none" stroke="#000000" points="628.5,-612.2 628.5,-634.2 792.5,-634.2 792.5,-612.2 628.5,-612.2"/>
<image xlink:href="../../images/primaryKeys.png" width="11px" height="12px" preserveAspectRatio="xMinYMin meet" x="633.5" y="-629.2"/>
<text text-anchor="start" x="664.5" y="-614.8" font-family="Helvetica,sans-Serif" font-size="16.00" fill="#000000">id</text>
<polygon fill="none" stroke="#000000" points="628.5,-590.2 628.5,-612.2 792.5,-612.2 792.5,-590.2 628.5,-590.2"/>
<text text-anchor="start" x="664.5" y="-592.8" font-family="Helvetica,sans-Serif" font-size="16.00" fill="#000000">note</text>
<polygon fill="none" stroke="#000000" points="628.5,-568.2 628.5,-590.2 792.5,-590.2 792.5,-568.2 628.5,-568.2"/>
<text text-anchor="start" x="664.5" y="-570.8" font-family="Helvetica,sans-Serif" font-size="16.00" fill="#000000">user_id</text>
<polygon fill="#ffffff" stroke="transparent" points="628.5,-546.2 628.5,-568.2 792.5,-568.2 792.5,-546.2 628.5,-546.2"/>
<polygon fill="none" stroke="#000000" points="628.5,-546.2 628.5,-568.2 792.5,-568.2 792.5,-546.2 628.5,-546.2"/>
<image xlink:href="../../images/foreignKeys.png" width="11px" height="12px" preserveAspectRatio="xMinYMin meet" x="633.5" y="-563.2"/>
<text text-anchor="start" x="664.5" y="-548.8" font-family="Helvetica,sans-Serif" font-size="16.00" fill="#000000">project_id</text>
<polygon fill="none" stroke="#000000" points="628.5,-524.2 628.5,-546.2 792.5,-546.2 792.5,-524.2 628.5,-524.2"/>
<text text-anchor="start" x="664.5" y="-526.8" font-family="Helvetica,sans-Serif" font-size="16.00" fill="#000000">inserted_at</text>
<polygon fill="none" stroke="#000000" points="628.5,-502.2 628.5,-524.2 792.5,-524.2 792.5,-502.2 628.5,-502.2"/>
<text text-anchor="start" x="664.5" y="-504.8" font-family="Helvetica,sans-Serif" font-size="16.00" fill="#000000">updated_at</text>
<polygon fill="#ffffff" stroke="transparent" points="628.5,-477.2 628.5,-502.2 690.5,-502.2 690.5,-477.2 628.5,-477.2"/>
<polygon fill="none" stroke="#000000" points="628.5,-477.2 628.5,-502.2 690.5,-502.2 690.5,-477.2 628.5,-477.2"/>
<text text-anchor="start" x="631.5" y="-484.8" font-family="Helvetica,sans-Serif" font-size="16.00" fill="#000000">&lt; 1</text>
<polygon fill="#ffffff" stroke="transparent" points="690.5,-477.2 690.5,-502.2 760.5,-502.2 760.5,-477.2 690.5,-477.2"/>
<polygon fill="none" stroke="#000000" points="690.5,-477.2 690.5,-502.2 760.5,-502.2 760.5,-477.2 690.5,-477.2"/>
<text text-anchor="start" x="710.388" y="-484.8" font-family="Helvetica,sans-Serif" font-size="16.00" fill="#000000">0 rows</text>
<polygon fill="#ffffff" stroke="transparent" points="760.5,-477.2 760.5,-502.2 792.5,-502.2 792.5,-477.2 760.5,-477.2"/>
<polygon fill="none" stroke="#000000" points="760.5,-477.2 760.5,-502.2 792.5,-502.2 792.5,-477.2 760.5,-477.2"/>
<text text-anchor="start" x="780.6072" y="-484.8" font-family="Helvetica,sans-Serif" font-size="16.00" fill="#000000"> &#160;</text>
</a>
</g>
</g>
<!-- project_notes&#45;&gt;projects -->
<g id="edge2" class="edge">
<title>project_notes:w&#45;&gt;projects:e</title>
<path fill="none" stroke="#000000" d="M614.1658,-554.6055C576.6965,-539.1798 596.329,-460.2 545,-460.2"/>
<polygon fill="#000000" stroke="#000000" points="620.6279,-555.7751 627.8588,-560.7424 624.564,-556.4875 628.5,-557.2 628.5,-557.2 628.5,-557.2 624.564,-556.4875 629.1412,-553.6576 620.6279,-555.7751 620.6279,-555.7751"/>
<ellipse fill="none" stroke="#000000" cx="617.4791" cy="-555.2051" rx="3.2" ry="3.2"/>
</g>
<!-- projects&#45;&gt;business_partners -->
<g id="edge5" class="edge">
<title>projects:w&#45;&gt;business_partners:e</title>
<path fill="none" stroke="#000000" d="M247.7133,-334.1559C211.3697,-374.0794 268.2189,-601.2 212,-601.2"/>
<polygon fill="#000000" stroke="#000000" points="253.6999,-331.4724 262.4726,-331.4851 257.3499,-329.8362 261,-328.2 261,-328.2 261,-328.2 257.3499,-329.8362 259.5274,-324.9149 253.6999,-331.4724 253.6999,-331.4724"/>
<ellipse fill="none" stroke="#000000" cx="250.7798" cy="-332.7813" rx="3.2" ry="3.2"/>
</g>
<!-- timer_tags -->
<g id="node6" class="node">
<title>timer_tags</title>
<g id="a_node6"><a xlink:href="../../tables/timer_tags.html" xlink:title="timer_tags" target="_top">
<polygon fill="#ffffff" stroke="transparent" points="884,-631.2 884,-795.2 1022,-795.2 1022,-631.2 884,-631.2"/>
<polygon fill="#f5f5f5" stroke="transparent" points="884,-766.2 884,-795.2 1022,-795.2 1022,-766.2 884,-766.2"/>
<polygon fill="none" stroke="#000000" points="884,-766.2 884,-795.2 1022,-795.2 1022,-766.2 884,-766.2"/>
<text text-anchor="start" x="889" y="-773.3" font-family="Helvetica,sans-Serif" font-weight="bold" font-size="16.00" fill="#000000">timer_tags</text>
<text text-anchor="start" x="973.7136" y="-775.8" font-family="Helvetica,sans-Serif" font-size="16.00" fill="#000000">[table]</text>
<polygon fill="none" stroke="#000000" points="884,-744.2 884,-766.2 1022,-766.2 1022,-744.2 884,-744.2"/>
<image xlink:href="../../images/primaryKeys.png" width="11px" height="12px" preserveAspectRatio="xMinYMin meet" x="889" y="-761.2"/>
<text text-anchor="start" x="918" y="-746.8" font-family="Helvetica,sans-Serif" font-size="16.00" fill="#000000">id</text>
<polygon fill="#ffffff" stroke="transparent" points="884,-722.2 884,-744.2 1022,-744.2 1022,-722.2 884,-722.2"/>
<polygon fill="none" stroke="#000000" points="884,-722.2 884,-744.2 1022,-744.2 1022,-722.2 884,-722.2"/>
<image xlink:href="../../images/foreignKeys.png" width="11px" height="12px" preserveAspectRatio="xMinYMin meet" x="889" y="-739.2"/>
<text text-anchor="start" x="918" y="-724.8" font-family="Helvetica,sans-Serif" font-size="16.00" fill="#000000">tag_id</text>
<polygon fill="#ffffff" stroke="transparent" points="884,-700.2 884,-722.2 1022,-722.2 1022,-700.2 884,-700.2"/>
<polygon fill="none" stroke="#000000" points="884,-700.2 884,-722.2 1022,-722.2 1022,-700.2 884,-700.2"/>
<image xlink:href="../../images/foreignKeys.png" width="11px" height="12px" preserveAspectRatio="xMinYMin meet" x="889" y="-717.2"/>
<text text-anchor="start" x="918" y="-702.8" font-family="Helvetica,sans-Serif" font-size="16.00" fill="#000000">timer_id</text>
<polygon fill="none" stroke="#000000" points="884,-678.2 884,-700.2 1022,-700.2 1022,-678.2 884,-678.2"/>
<text text-anchor="start" x="918" y="-680.8" font-family="Helvetica,sans-Serif" font-size="16.00" fill="#000000">inserted_at</text>
<polygon fill="none" stroke="#000000" points="884,-656.2 884,-678.2 1022,-678.2 1022,-656.2 884,-656.2"/>
<text text-anchor="start" x="918" y="-658.8" font-family="Helvetica,sans-Serif" font-size="16.00" fill="#000000">updated_at</text>
<polygon fill="#ffffff" stroke="transparent" points="884,-631.2 884,-656.2 933,-656.2 933,-631.2 884,-631.2"/>
<polygon fill="none" stroke="#000000" points="884,-631.2 884,-656.2 933,-656.2 933,-631.2 884,-631.2"/>
<text text-anchor="start" x="887" y="-638.8" font-family="Helvetica,sans-Serif" font-size="16.00" fill="#000000">&lt; 2</text>
<polygon fill="#ffffff" stroke="transparent" points="933,-631.2 933,-656.2 997,-656.2 997,-631.2 933,-631.2"/>
<polygon fill="none" stroke="#000000" points="933,-631.2 933,-656.2 997,-656.2 997,-631.2 933,-631.2"/>
<text text-anchor="start" x="946.888" y="-638.8" font-family="Helvetica,sans-Serif" font-size="16.00" fill="#000000">0 rows</text>
<polygon fill="#ffffff" stroke="transparent" points="997,-631.2 997,-656.2 1022,-656.2 1022,-631.2 997,-631.2"/>
<polygon fill="none" stroke="#000000" points="997,-631.2 997,-656.2 1022,-656.2 1022,-631.2 997,-631.2"/>
<text text-anchor="start" x="1010.1072" y="-638.8" font-family="Helvetica,sans-Serif" font-size="16.00" fill="#000000"> &#160;</text>
</a>
</g>
</g>
<!-- timer_tags&#45;&gt;timers -->
<g id="edge8" class="edge">
<title>timer_tags:w&#45;&gt;timers:e</title>
<path fill="none" stroke="#000000" d="M870.2619,-716.4376C824.7221,-757.6537 893.6042,-1028.2 827.5,-1028.2"/>
<polygon fill="#000000" stroke="#000000" points="876.5248,-714.0499 885.2825,-714.5638 880.2624,-712.625 884,-711.2 884,-711.2 884,-711.2 880.2624,-712.625 882.7175,-707.8362 876.5248,-714.0499 876.5248,-714.0499"/>
<ellipse fill="none" stroke="#000000" cx="873.5348" cy="-715.1899" rx="3.2" ry="3.2"/>
</g>
<!-- tags -->
<g id="node10" class="node">
<title>tags</title>
<g id="a_node10"><a xlink:href="../../tables/tags.html" xlink:title="tags" target="_top">
<polygon fill="#ffffff" stroke="transparent" points="654.5,-248.2 654.5,-456.2 766.5,-456.2 766.5,-248.2 654.5,-248.2"/>
<polygon fill="#f5f5f5" stroke="transparent" points="654.5,-427.2 654.5,-456.2 766.5,-456.2 766.5,-427.2 654.5,-427.2"/>
<polygon fill="none" stroke="#000000" points="654.5,-427.2 654.5,-456.2 766.5,-456.2 766.5,-427.2 654.5,-427.2"/>
<text text-anchor="start" x="659.3824" y="-434.3" font-family="Helvetica,sans-Serif" font-weight="bold" font-size="16.00" fill="#000000">tags</text>
<text text-anchor="start" x="717.9272" y="-436.8" font-family="Helvetica,sans-Serif" font-size="16.00" fill="#000000">[table]</text>
<polygon fill="none" stroke="#000000" points="654.5,-405.2 654.5,-427.2 766.5,-427.2 766.5,-405.2 654.5,-405.2"/>
<image xlink:href="../../images/primaryKeys.png" width="11px" height="12px" preserveAspectRatio="xMinYMin meet" x="659.5" y="-422.2"/>
<text text-anchor="start" x="674.5" y="-407.8" font-family="Helvetica,sans-Serif" font-size="16.00" fill="#000000">id</text>
<polygon fill="#ffffff" stroke="transparent" points="654.5,-383.2 654.5,-405.2 766.5,-405.2 766.5,-383.2 654.5,-383.2"/>
<polygon fill="none" stroke="#000000" points="654.5,-383.2 654.5,-405.2 766.5,-405.2 766.5,-383.2 654.5,-383.2"/>
<text text-anchor="start" x="674.5" y="-385.8" font-family="Helvetica,sans-Serif" font-size="16.00" fill="#000000">name</text>
<polygon fill="none" stroke="#000000" points="654.5,-361.2 654.5,-383.2 766.5,-383.2 766.5,-361.2 654.5,-361.2"/>
<text text-anchor="start" x="674.5" y="-363.8" font-family="Helvetica,sans-Serif" font-size="16.00" fill="#000000">colour</text>
<polygon fill="none" stroke="#000000" points="654.5,-339.2 654.5,-361.2 766.5,-361.2 766.5,-339.2 654.5,-339.2"/>
<text text-anchor="start" x="674.5" y="-341.8" font-family="Helvetica,sans-Serif" font-size="16.00" fill="#000000">fg_colour</text>
<polygon fill="none" stroke="#000000" points="654.5,-317.2 654.5,-339.2 766.5,-339.2 766.5,-317.2 654.5,-317.2"/>
<text text-anchor="start" x="674.5" y="-319.8" font-family="Helvetica,sans-Serif" font-size="16.00" fill="#000000">description</text>
<polygon fill="none" stroke="#000000" points="654.5,-295.2 654.5,-317.2 766.5,-317.2 766.5,-295.2 654.5,-295.2"/>
<text text-anchor="start" x="674.5" y="-297.8" font-family="Helvetica,sans-Serif" font-size="16.00" fill="#000000">inserted_at</text>
<polygon fill="none" stroke="#000000" points="654.5,-273.2 654.5,-295.2 766.5,-295.2 766.5,-273.2 654.5,-273.2"/>
<text text-anchor="start" x="674.5" y="-275.8" font-family="Helvetica,sans-Serif" font-size="16.00" fill="#000000">updated_at</text>
<polygon fill="#ffffff" stroke="transparent" points="654.5,-248.2 654.5,-273.2 676.5,-273.2 676.5,-248.2 654.5,-248.2"/>
<polygon fill="none" stroke="#000000" points="654.5,-248.2 654.5,-273.2 676.5,-273.2 676.5,-248.2 654.5,-248.2"/>
<text text-anchor="start" x="657.5" y="-255.8" font-family="Helvetica,sans-Serif" font-size="16.00" fill="#000000"> &#160;</text>
<polygon fill="#ffffff" stroke="transparent" points="676.5,-248.2 676.5,-273.2 733.5,-273.2 733.5,-248.2 676.5,-248.2"/>
<polygon fill="none" stroke="#000000" points="676.5,-248.2 676.5,-273.2 733.5,-273.2 733.5,-248.2 676.5,-248.2"/>
<text text-anchor="start" x="683.388" y="-255.8" font-family="Helvetica,sans-Serif" font-size="16.00" fill="#000000">0 rows</text>
<polygon fill="#ffffff" stroke="transparent" points="733.5,-248.2 733.5,-273.2 766.5,-273.2 766.5,-248.2 733.5,-248.2"/>
<polygon fill="none" stroke="#000000" points="733.5,-248.2 733.5,-273.2 766.5,-273.2 766.5,-248.2 733.5,-248.2"/>
<text text-anchor="start" x="740.8168" y="-255.8" font-family="Helvetica,sans-Serif" font-size="16.00" fill="#000000">2 &gt;</text>
</a>
</g>
</g>
<!-- timer_tags&#45;&gt;tags -->
<g id="edge7" class="edge">
<title>timer_tags:w&#45;&gt;tags:e</title>
<path fill="none" stroke="#000000" d="M870.3765,-728.4548C830.7237,-696.5189 864.2683,-512.7921 835,-466.2 814.9503,-434.2829 804.1921,-416.2 766.5,-416.2"/>
<polygon fill="#000000" stroke="#000000" points="876.4452,-730.5685 882.8158,-736.5997 880.2226,-731.8843 884,-733.2 884,-733.2 884,-733.2 880.2226,-731.8843 885.1842,-729.8003 876.4452,-730.5685 876.4452,-730.5685"/>
<ellipse fill="none" stroke="#000000" cx="873.4232" cy="-729.5159" rx="3.2" ry="3.2"/>
</g>
<!-- timer_notes -->
<g id="node7" class="node">
<title>timer_notes</title>
<g id="a_node7"><a xlink:href="../../tables/timer_notes.html" xlink:title="timer_notes" target="_top">
<polygon fill="#ffffff" stroke="transparent" points="878.5,-948.2 878.5,-1134.2 1027.5,-1134.2 1027.5,-948.2 878.5,-948.2"/>
<polygon fill="#f5f5f5" stroke="transparent" points="879,-1105.2 879,-1134.2 1028,-1134.2 1028,-1105.2 879,-1105.2"/>
<polygon fill="none" stroke="#000000" points="879,-1105.2 879,-1134.2 1028,-1134.2 1028,-1105.2 879,-1105.2"/>
<text text-anchor="start" x="884" y="-1112.3" font-family="Helvetica,sans-Serif" font-weight="bold" font-size="16.00" fill="#000000">timer_notes</text>
<text text-anchor="start" x="979.7136" y="-1114.8" font-family="Helvetica,sans-Serif" font-size="16.00" fill="#000000">[table]</text>
<polygon fill="none" stroke="#000000" points="879,-1083.2 879,-1105.2 1028,-1105.2 1028,-1083.2 879,-1083.2"/>
<image xlink:href="../../images/primaryKeys.png" width="11px" height="12px" preserveAspectRatio="xMinYMin meet" x="884" y="-1100.2"/>
<text text-anchor="start" x="915" y="-1085.8" font-family="Helvetica,sans-Serif" font-size="16.00" fill="#000000">id</text>
<polygon fill="none" stroke="#000000" points="879,-1061.2 879,-1083.2 1028,-1083.2 1028,-1061.2 879,-1061.2"/>
<text text-anchor="start" x="915" y="-1063.8" font-family="Helvetica,sans-Serif" font-size="16.00" fill="#000000">note</text>
<polygon fill="none" stroke="#000000" points="879,-1039.2 879,-1061.2 1028,-1061.2 1028,-1039.2 879,-1039.2"/>
<text text-anchor="start" x="915" y="-1041.8" font-family="Helvetica,sans-Serif" font-size="16.00" fill="#000000">user_id</text>
<polygon fill="#ffffff" stroke="transparent" points="879,-1017.2 879,-1039.2 1028,-1039.2 1028,-1017.2 879,-1017.2"/>
<polygon fill="none" stroke="#000000" points="879,-1017.2 879,-1039.2 1028,-1039.2 1028,-1017.2 879,-1017.2"/>
<image xlink:href="../../images/foreignKeys.png" width="11px" height="12px" preserveAspectRatio="xMinYMin meet" x="884" y="-1034.2"/>
<text text-anchor="start" x="915" y="-1019.8" font-family="Helvetica,sans-Serif" font-size="16.00" fill="#000000">timer_id</text>
<polygon fill="none" stroke="#000000" points="879,-995.2 879,-1017.2 1028,-1017.2 1028,-995.2 879,-995.2"/>
<text text-anchor="start" x="915" y="-997.8" font-family="Helvetica,sans-Serif" font-size="16.00" fill="#000000">inserted_at</text>
<polygon fill="none" stroke="#000000" points="879,-973.2 879,-995.2 1028,-995.2 1028,-973.2 879,-973.2"/>
<text text-anchor="start" x="915" y="-975.8" font-family="Helvetica,sans-Serif" font-size="16.00" fill="#000000">updated_at</text>
<polygon fill="#ffffff" stroke="transparent" points="879,-948.2 879,-973.2 934,-973.2 934,-948.2 879,-948.2"/>
<polygon fill="none" stroke="#000000" points="879,-948.2 879,-973.2 934,-973.2 934,-948.2 879,-948.2"/>
<text text-anchor="start" x="882" y="-955.8" font-family="Helvetica,sans-Serif" font-size="16.00" fill="#000000">&lt; 1</text>
<polygon fill="#ffffff" stroke="transparent" points="934,-948.2 934,-973.2 1000,-973.2 1000,-948.2 934,-948.2"/>
<polygon fill="none" stroke="#000000" points="934,-948.2 934,-973.2 1000,-973.2 1000,-948.2 934,-948.2"/>
<text text-anchor="start" x="949.888" y="-955.8" font-family="Helvetica,sans-Serif" font-size="16.00" fill="#000000">0 rows</text>
<polygon fill="#ffffff" stroke="transparent" points="1000,-948.2 1000,-973.2 1028,-973.2 1028,-948.2 1000,-948.2"/>
<polygon fill="none" stroke="#000000" points="1000,-948.2 1000,-973.2 1028,-973.2 1028,-948.2 1000,-948.2"/>
<text text-anchor="start" x="1016.1072" y="-955.8" font-family="Helvetica,sans-Serif" font-size="16.00" fill="#000000"> &#160;</text>
</a>
</g>
</g>
<!-- timer_notes&#45;&gt;timers -->
<g id="edge6" class="edge">
<title>timer_notes:w&#45;&gt;timers:e</title>
<path fill="none" stroke="#000000" d="M864.5156,-1028.2C852.1771,-1028.2 844.6667,-1028.2 827.5,-1028.2"/>
<polygon fill="#000000" stroke="#000000" points="871,-1028.2001 879,-1031.8 875,-1028.2 879,-1028.2 879,-1028.2 879,-1028.2 875,-1028.2 879,-1024.6 871,-1028.2001 871,-1028.2001"/>
<ellipse fill="none" stroke="#000000" cx="867.8" cy="-1028.2001" rx="3.2" ry="3.2"/>
</g>
<!-- business_partner_notes -->
<g id="node8" class="node">
<title>business_partner_notes</title>
<g id="a_node8"><a xlink:href="../../tables/business_partner_notes.html" xlink:title="business_partner_notes" target="_top">
<polygon fill="#ffffff" stroke="transparent" points="278.5,-521.2 278.5,-707.2 527.5,-707.2 527.5,-521.2 278.5,-521.2"/>
<polygon fill="#f5f5f5" stroke="transparent" points="279,-678.2 279,-707.2 528,-707.2 528,-678.2 279,-678.2"/>
<polygon fill="none" stroke="#000000" points="279,-678.2 279,-707.2 528,-707.2 528,-678.2 279,-678.2"/>
<text text-anchor="start" x="284" y="-685.3" font-family="Helvetica,sans-Serif" font-weight="bold" font-size="16.00" fill="#000000">business_partner_notes</text>
<text text-anchor="start" x="479.7136" y="-687.8" font-family="Helvetica,sans-Serif" font-size="16.00" fill="#000000">[table]</text>
<polygon fill="none" stroke="#000000" points="279,-656.2 279,-678.2 528,-678.2 528,-656.2 279,-656.2"/>
<image xlink:href="../../images/primaryKeys.png" width="11px" height="12px" preserveAspectRatio="xMinYMin meet" x="284" y="-673.2"/>
<text text-anchor="start" x="315" y="-658.8" font-family="Helvetica,sans-Serif" font-size="16.00" fill="#000000">id</text>
<polygon fill="none" stroke="#000000" points="279,-634.2 279,-656.2 528,-656.2 528,-634.2 279,-634.2"/>
<text text-anchor="start" x="315" y="-636.8" font-family="Helvetica,sans-Serif" font-size="16.00" fill="#000000">note</text>
<polygon fill="none" stroke="#000000" points="279,-612.2 279,-634.2 528,-634.2 528,-612.2 279,-612.2"/>
<text text-anchor="start" x="315" y="-614.8" font-family="Helvetica,sans-Serif" font-size="16.00" fill="#000000">user_id</text>
<polygon fill="#ffffff" stroke="transparent" points="279,-590.2 279,-612.2 528,-612.2 528,-590.2 279,-590.2"/>
<polygon fill="none" stroke="#000000" points="279,-590.2 279,-612.2 528,-612.2 528,-590.2 279,-590.2"/>
<image xlink:href="../../images/foreignKeys.png" width="11px" height="12px" preserveAspectRatio="xMinYMin meet" x="284" y="-607.2"/>
<text text-anchor="start" x="315" y="-592.8" font-family="Helvetica,sans-Serif" font-size="16.00" fill="#000000">business_partner_id</text>
<polygon fill="none" stroke="#000000" points="279,-568.2 279,-590.2 528,-590.2 528,-568.2 279,-568.2"/>
<text text-anchor="start" x="315" y="-570.8" font-family="Helvetica,sans-Serif" font-size="16.00" fill="#000000">inserted_at</text>
<polygon fill="none" stroke="#000000" points="279,-546.2 279,-568.2 528,-568.2 528,-546.2 279,-546.2"/>
<text text-anchor="start" x="315" y="-548.8" font-family="Helvetica,sans-Serif" font-size="16.00" fill="#000000">updated_at</text>
<polygon fill="#ffffff" stroke="transparent" points="279,-521.2 279,-546.2 384,-546.2 384,-521.2 279,-521.2"/>
<polygon fill="none" stroke="#000000" points="279,-521.2 279,-546.2 384,-546.2 384,-521.2 279,-521.2"/>
<text text-anchor="start" x="282" y="-528.8" font-family="Helvetica,sans-Serif" font-size="16.00" fill="#000000">&lt; 1</text>
<polygon fill="#ffffff" stroke="transparent" points="384,-521.2 384,-546.2 475,-546.2 475,-521.2 384,-521.2"/>
<polygon fill="none" stroke="#000000" points="384,-521.2 384,-546.2 475,-546.2 475,-521.2 384,-521.2"/>
<text text-anchor="start" x="424.888" y="-528.8" font-family="Helvetica,sans-Serif" font-size="16.00" fill="#000000">0 rows</text>
<polygon fill="#ffffff" stroke="transparent" points="475,-521.2 475,-546.2 528,-546.2 528,-521.2 475,-521.2"/>
<polygon fill="none" stroke="#000000" points="475,-521.2 475,-546.2 528,-546.2 528,-521.2 475,-521.2"/>
<text text-anchor="start" x="516.1072" y="-528.8" font-family="Helvetica,sans-Serif" font-size="16.00" fill="#000000"> &#160;</text>
</a>
</g>
</g>
<!-- business_partner_notes&#45;&gt;business_partners -->
<g id="edge1" class="edge">
<title>business_partner_notes:w&#45;&gt;business_partners:e</title>
<path fill="none" stroke="#000000" d="M264.5809,-601.2C245.7359,-601.2 236.3108,-601.2 212,-601.2"/>
<polygon fill="#000000" stroke="#000000" points="271,-601.2001 279,-604.8 275,-601.2 279,-601.2 279,-601.2 279,-601.2 275,-601.2 279,-597.6 271,-601.2001 271,-601.2001"/>
<ellipse fill="none" stroke="#000000" cx="267.8" cy="-601.2001" rx="3.2" ry="3.2"/>
</g>
<!-- project_tags -->
<g id="node9" class="node">
<title>project_tags</title>
<g id="a_node9"><a xlink:href="../../tables/project_tags.html" xlink:title="project_tags" target="_top">
<polygon fill="#ffffff" stroke="transparent" points="876,-229.2 876,-393.2 1030,-393.2 1030,-229.2 876,-229.2"/>
<polygon fill="#f5f5f5" stroke="transparent" points="876,-364.2 876,-393.2 1030,-393.2 1030,-364.2 876,-364.2"/>
<polygon fill="none" stroke="#000000" points="876,-364.2 876,-393.2 1030,-393.2 1030,-364.2 876,-364.2"/>
<text text-anchor="start" x="881" y="-371.3" font-family="Helvetica,sans-Serif" font-weight="bold" font-size="16.00" fill="#000000">project_tags</text>
<text text-anchor="start" x="981.7136" y="-373.8" font-family="Helvetica,sans-Serif" font-size="16.00" fill="#000000">[table]</text>
<polygon fill="none" stroke="#000000" points="876,-342.2 876,-364.2 1030,-364.2 1030,-342.2 876,-342.2"/>
<image xlink:href="../../images/primaryKeys.png" width="11px" height="12px" preserveAspectRatio="xMinYMin meet" x="881" y="-359.2"/>
<text text-anchor="start" x="912" y="-344.8" font-family="Helvetica,sans-Serif" font-size="16.00" fill="#000000">id</text>
<polygon fill="#ffffff" stroke="transparent" points="876,-320.2 876,-342.2 1030,-342.2 1030,-320.2 876,-320.2"/>
<polygon fill="none" stroke="#000000" points="876,-320.2 876,-342.2 1030,-342.2 1030,-320.2 876,-320.2"/>
<image xlink:href="../../images/foreignKeys.png" width="11px" height="12px" preserveAspectRatio="xMinYMin meet" x="881" y="-337.2"/>
<text text-anchor="start" x="912" y="-322.8" font-family="Helvetica,sans-Serif" font-size="16.00" fill="#000000">tag_id</text>
<polygon fill="#ffffff" stroke="transparent" points="876,-298.2 876,-320.2 1030,-320.2 1030,-298.2 876,-298.2"/>
<polygon fill="none" stroke="#000000" points="876,-298.2 876,-320.2 1030,-320.2 1030,-298.2 876,-298.2"/>
<image xlink:href="../../images/foreignKeys.png" width="11px" height="12px" preserveAspectRatio="xMinYMin meet" x="881" y="-315.2"/>
<text text-anchor="start" x="912" y="-300.8" font-family="Helvetica,sans-Serif" font-size="16.00" fill="#000000">project_id</text>
<polygon fill="none" stroke="#000000" points="876,-276.2 876,-298.2 1030,-298.2 1030,-276.2 876,-276.2"/>
<text text-anchor="start" x="912" y="-278.8" font-family="Helvetica,sans-Serif" font-size="16.00" fill="#000000">inserted_at</text>
<polygon fill="none" stroke="#000000" points="876,-254.2 876,-276.2 1030,-276.2 1030,-254.2 876,-254.2"/>
<text text-anchor="start" x="912" y="-256.8" font-family="Helvetica,sans-Serif" font-size="16.00" fill="#000000">updated_at</text>
<polygon fill="#ffffff" stroke="transparent" points="876,-229.2 876,-254.2 933,-254.2 933,-229.2 876,-229.2"/>
<polygon fill="none" stroke="#000000" points="876,-229.2 876,-254.2 933,-254.2 933,-229.2 876,-229.2"/>
<text text-anchor="start" x="879" y="-236.8" font-family="Helvetica,sans-Serif" font-size="16.00" fill="#000000">&lt; 2</text>
<polygon fill="#ffffff" stroke="transparent" points="933,-229.2 933,-254.2 1001,-254.2 1001,-229.2 933,-229.2"/>
<polygon fill="none" stroke="#000000" points="933,-229.2 933,-254.2 1001,-254.2 1001,-229.2 933,-229.2"/>
<text text-anchor="start" x="950.888" y="-236.8" font-family="Helvetica,sans-Serif" font-size="16.00" fill="#000000">0 rows</text>
<polygon fill="#ffffff" stroke="transparent" points="1001,-229.2 1001,-254.2 1030,-254.2 1030,-229.2 1001,-229.2"/>
<polygon fill="none" stroke="#000000" points="1001,-229.2 1001,-254.2 1030,-254.2 1030,-229.2 1001,-229.2"/>
<text text-anchor="start" x="1018.1072" y="-236.8" font-family="Helvetica,sans-Serif" font-size="16.00" fill="#000000"> &#160;</text>
</a>
</g>
</g>
<!-- project_tags&#45;&gt;projects -->
<g id="edge3" class="edge">
<title>project_tags:w&#45;&gt;projects:e</title>
<path fill="none" stroke="#000000" d="M862.0977,-304.9085C846.9262,-291.8453 861.3643,-252.5262 835,-237.2 739.3249,-181.5818 671.0344,-166.3744 586,-237.2 508.5682,-301.6933 645.7723,-460.2 545,-460.2"/>
<polygon fill="#000000" stroke="#000000" points="868.3559,-306.8403 874.9381,-312.6398 872.178,-308.0202 876,-309.2 876,-309.2 876,-309.2 872.178,-308.0202 877.0619,-305.7602 868.3559,-306.8403 868.3559,-306.8403"/>
<ellipse fill="none" stroke="#000000" cx="865.2983" cy="-305.8965" rx="3.2" ry="3.2"/>
</g>
<!-- project_tags&#45;&gt;tags -->
<g id="edge4" class="edge">
<title>project_tags:w&#45;&gt;tags:e</title>
<path fill="none" stroke="#000000" d="M861.6898,-332.9753C816.1928,-345.1816 822.814,-416.2 766.5,-416.2"/>
<polygon fill="#000000" stroke="#000000" points="868.0609,-332.185 876.4432,-334.7726 872.0304,-331.6925 876,-331.2 876,-331.2 876,-331.2 872.0304,-331.6925 875.5568,-327.6274 868.0609,-332.185 868.0609,-332.185"/>
<ellipse fill="none" stroke="#000000" cx="864.8852" cy="-332.579" rx="3.2" ry="3.2"/>
</g>
</g>
</svg>
