<?xml version="1.0" encoding="UTF-8" standalone="no"?>
<!DOCTYPE svg PUBLIC "-//W3C//DTD SVG 1.1//EN"
 "http://www.w3.org/Graphics/SVG/1.1/DTD/svg11.dtd">
<!-- Generated by graphviz version 2.40.1 (20161225.0304)
 -->
<!-- Title: compactRelationshipsDiagram Pages: 1 -->
<svg width="1046pt" height="605pt"
 viewBox="0.00 0.00 1046.00 605.32" xmlns="http://www.w3.org/2000/svg" xmlns:xlink="http://www.w3.org/1999/xlink">
<g id="graph0" class="graph" transform="scale(1 1) rotate(0) translate(4 601.3189)">
<title>compactRelationshipsDiagram</title>
<polygon fill="#ffffff" stroke="transparent" points="-4,4 -4,-601.3189 1042,-601.3189 1042,4 -4,4"/>
<text text-anchor="middle" x="101.8088" y="-8.8" font-family="Helvetica,sans-Serif" font-size="16.00" fill="#000000">Generated by SchemaSpy</text>
<!-- timers -->
<g id="node1" class="node">
<title>timers</title>
<g id="a_node1"><a xlink:href="../../tables/timers.html" xlink:title="timers" target="_top">
<polygon fill="#ffffff" stroke="transparent" points="594,-382.3189 594,-571.3189 827,-571.3189 827,-382.3189 594,-382.3189"/>
<polygon fill="#f5f5f5" stroke="transparent" points="594.5,-541.8189 594.5,-570.8189 827.5,-570.8189 827.5,-541.8189 594.5,-541.8189"/>
<polygon fill="none" stroke="#000000" points="594.5,-541.8189 594.5,-570.8189 827.5,-570.8189 827.5,-541.8189 594.5,-541.8189"/>
<text text-anchor="start" x="599.5" y="-548.9189" font-family="Helvetica,sans-Serif" font-weight="bold" font-size="16.00" fill="#000000">timers</text>
<text text-anchor="start" x="778.9272" y="-551.4189" font-family="Helvetica,sans-Serif" font-size="16.00" fill="#000000">[table]</text>
<polygon fill="none" stroke="#000000" points="594.5,-519.8189 594.5,-541.8189 827.5,-541.8189 827.5,-519.8189 594.5,-519.8189"/>
<image xlink:href="../../images/primaryKeys.png" width="11px" height="12px" preserveAspectRatio="xMinYMin meet" x="599.5" y="-536.819"/>
<text text-anchor="start" x="614.5" y="-522.4189" font-family="Helvetica,sans-Serif" font-size="16.00" fill="#000000">id</text>
<polygon fill="#ffffff" stroke="transparent" points="594.5,-497.8189 594.5,-519.8189 827.5,-519.8189 827.5,-497.8189 594.5,-497.8189"/>
<polygon fill="none" stroke="#000000" points="594.5,-497.8189 594.5,-519.8189 827.5,-519.8189 827.5,-497.8189 594.5,-497.8189"/>
<text text-anchor="start" x="614.5" y="-500.4189" font-family="Helvetica,sans-Serif" font-size="16.00" fill="#000000">start_stamp</text>
<polygon fill="none" stroke="#000000" points="594.5,-475.8189 594.5,-497.8189 827.5,-497.8189 827.5,-475.8189 594.5,-475.8189"/>
<image xlink:href="../../images/foreignKeys.png" width="11px" height="12px" preserveAspectRatio="xMinYMin meet" x="599.5" y="-492.819"/>
<text text-anchor="start" x="614.5" y="-478.4189" font-family="Helvetica,sans-Serif" font-size="16.00" fill="#000000">business_partner_id</text>
<polygon fill="none" stroke="#000000" points="594.5,-453.8189 594.5,-475.8189 827.5,-475.8189 827.5,-453.8189 594.5,-453.8189"/>
<image xlink:href="../../images/foreignKeys.png" width="11px" height="12px" preserveAspectRatio="xMinYMin meet" x="599.5" y="-470.819"/>
<text text-anchor="start" x="614.5" y="-456.4189" font-family="Helvetica,sans-Serif" font-size="16.00" fill="#000000">activity_type_id</text>
<polygon fill="none" stroke="#000000" points="594.5,-431.8189 594.5,-453.8189 827.5,-453.8189 827.5,-431.8189 594.5,-431.8189"/>
<image xlink:href="../../images/foreignKeys.png" width="11px" height="12px" preserveAspectRatio="xMinYMin meet" x="599.5" y="-448.819"/>
<text text-anchor="start" x="614.5" y="-434.4189" font-family="Helvetica,sans-Serif" font-size="16.00" fill="#000000">project_id</text>
<polygon fill="none" stroke="#000000" points="594.5,-406.8189 594.5,-431.8189 827.5,-431.8189 827.5,-406.8189 594.5,-406.8189"/>
<text text-anchor="start" x="597.5" y="-414.4189" font-family="Helvetica,sans-Serif" font-size="16.00" fill="#000000">...</text>
<polygon fill="#ffffff" stroke="transparent" points="594.5,-381.8189 594.5,-406.8189 684.5,-406.8189 684.5,-381.8189 594.5,-381.8189"/>
<polygon fill="none" stroke="#000000" points="594.5,-381.8189 594.5,-406.8189 684.5,-406.8189 684.5,-381.8189 594.5,-381.8189"/>
<text text-anchor="start" x="597.5" y="-389.4189" font-family="Helvetica,sans-Serif" font-size="16.00" fill="#000000">&lt; 3</text>
<polygon fill="#ffffff" stroke="transparent" points="684.5,-381.8189 684.5,-406.8189 768.5,-406.8189 768.5,-381.8189 684.5,-381.8189"/>
<polygon fill="none" stroke="#000000" points="684.5,-381.8189 684.5,-406.8189 768.5,-406.8189 768.5,-381.8189 684.5,-381.8189"/>
<text text-anchor="start" x="718.388" y="-389.4189" font-family="Helvetica,sans-Serif" font-size="16.00" fill="#000000">0 rows</text>
<polygon fill="#ffffff" stroke="transparent" points="768.5,-381.8189 768.5,-406.8189 827.5,-406.8189 827.5,-381.8189 768.5,-381.8189"/>
<polygon fill="none" stroke="#000000" points="768.5,-381.8189 768.5,-406.8189 827.5,-406.8189 827.5,-381.8189 768.5,-381.8189"/>
<text text-anchor="start" x="801.8168" y="-389.4189" font-family="Helvetica,sans-Serif" font-size="16.00" fill="#000000">2 &gt;</text>
</a>
</g>
</g>
<!-- business_partners -->
<g id="node2" class="node">
<title>business_partners</title>
<g id="a_node2"><a xlink:href="../../tables/business_partners.html" xlink:title="business_partners" target="_top">
<polygon fill="#ffffff" stroke="transparent" points="8,-238.3189 8,-361.3189 212,-361.3189 212,-238.3189 8,-238.3189"/>
<polygon fill="#f5f5f5" stroke="transparent" points="8,-331.8189 8,-360.8189 212,-360.8189 212,-331.8189 8,-331.8189"/>
<polygon fill="none" stroke="#000000" points="8,-331.8189 8,-360.8189 212,-360.8189 212,-331.8189 8,-331.8189"/>
<text text-anchor="start" x="13" y="-338.9189" font-family="Helvetica,sans-Serif" font-weight="bold" font-size="16.00" fill="#000000">business_partners</text>
<text text-anchor="start" x="163.7136" y="-341.4189" font-family="Helvetica,sans-Serif" font-size="16.00" fill="#000000">[table]</text>
<polygon fill="none" stroke="#000000" points="8,-309.8189 8,-331.8189 212,-331.8189 212,-309.8189 8,-309.8189"/>
<image xlink:href="../../images/primaryKeys.png" width="11px" height="12px" preserveAspectRatio="xMinYMin meet" x="13" y="-326.819"/>
<text text-anchor="start" x="44" y="-312.4189" font-family="Helvetica,sans-Serif" font-size="16.00" fill="#000000">id</text>
<polygon fill="#ffffff" stroke="transparent" points="8,-287.8189 8,-309.8189 212,-309.8189 212,-287.8189 8,-287.8189"/>
<polygon fill="none" stroke="#000000" points="8,-287.8189 8,-309.8189 212,-309.8189 212,-287.8189 8,-287.8189"/>
<text text-anchor="start" x="44" y="-290.4189" font-family="Helvetica,sans-Serif" font-size="16.00" fill="#000000">name</text>
<polygon fill="none" stroke="#000000" points="8,-262.8189 8,-287.8189 212,-287.8189 212,-262.8189 8,-262.8189"/>
<text text-anchor="start" x="11" y="-270.4189" font-family="Helvetica,sans-Serif" font-size="16.00" fill="#000000">...</text>
<polygon fill="#ffffff" stroke="transparent" points="8,-237.8189 8,-262.8189 76,-262.8189 76,-237.8189 8,-237.8189"/>
<polygon fill="none" stroke="#000000" points="8,-237.8189 8,-262.8189 76,-262.8189 76,-237.8189 8,-237.8189"/>
<text text-anchor="start" x="11" y="-245.4189" font-family="Helvetica,sans-Serif" font-size="16.00" fill="#000000"> &#160;</text>
<polygon fill="#ffffff" stroke="transparent" points="76,-237.8189 76,-262.8189 156,-262.8189 156,-237.8189 76,-237.8189"/>
<polygon fill="none" stroke="#000000" points="76,-237.8189 76,-262.8189 156,-262.8189 156,-237.8189 76,-237.8189"/>
<text text-anchor="start" x="105.888" y="-245.4189" font-family="Helvetica,sans-Serif" font-size="16.00" fill="#000000">0 rows</text>
<polygon fill="#ffffff" stroke="transparent" points="156,-237.8189 156,-262.8189 212,-262.8189 212,-237.8189 156,-237.8189"/>
<polygon fill="none" stroke="#000000" points="156,-237.8189 156,-262.8189 212,-262.8189 212,-237.8189 156,-237.8189"/>
<text text-anchor="start" x="186.3168" y="-245.4189" font-family="Helvetica,sans-Serif" font-size="16.00" fill="#000000">3 &gt;</text>
</a>
</g>
</g>
<!-- timers&#45;&gt;business_partners -->
<g id="edge10" class="edge">
<title>timers:w&#45;&gt;business_partners:e</title>
<path fill="none" stroke="#000000" d="M580.6421,-491.0368C571.5574,-497.8255 568.5945,-510.9101 553,-515.8189 425.8187,-555.8527 356.527,-599.8423 253,-515.8189 184.2361,-460.0095 300.5616,-320.8189 212,-320.8189"/>
<polygon fill="#000000" stroke="#000000" points="586.8467,-489.1484 595.5483,-490.2629 590.6733,-487.9836 594.5,-486.8189 594.5,-486.8189 594.5,-486.8189 590.6733,-487.9836 593.4517,-483.3749 586.8467,-489.1484 586.8467,-489.1484"/>
<ellipse fill="none" stroke="#000000" cx="583.7853" cy="-490.0802" rx="3.2" ry="3.2"/>
</g>
<!-- projects -->
<g id="node4" class="node">
<title>projects</title>
<g id="a_node4"><a xlink:href="../../tables/projects.html" xlink:title="projects" target="_top">
<polygon fill="#ffffff" stroke="transparent" points="261,-94.3189 261,-239.3189 545,-239.3189 545,-94.3189 261,-94.3189"/>
<polygon fill="#f5f5f5" stroke="transparent" points="261,-209.8189 261,-238.8189 545,-238.8189 545,-209.8189 261,-209.8189"/>
<polygon fill="none" stroke="#000000" points="261,-209.8189 261,-238.8189 545,-238.8189 545,-209.8189 261,-209.8189"/>
<text text-anchor="start" x="266" y="-216.9189" font-family="Helvetica,sans-Serif" font-weight="bold" font-size="16.00" fill="#000000">projects</text>
<text text-anchor="start" x="496.4272" y="-219.4189" font-family="Helvetica,sans-Serif" font-size="16.00" fill="#000000">[table]</text>
<polygon fill="none" stroke="#000000" points="261,-187.8189 261,-209.8189 545,-209.8189 545,-187.8189 261,-187.8189"/>
<image xlink:href="../../images/primaryKeys.png" width="11px" height="12px" preserveAspectRatio="xMinYMin meet" x="266" y="-204.819"/>
<text text-anchor="start" x="281" y="-190.4189" font-family="Helvetica,sans-Serif" font-size="16.00" fill="#000000">id</text>
<polygon fill="#ffffff" stroke="transparent" points="261,-165.8189 261,-187.8189 545,-187.8189 545,-165.8189 261,-165.8189"/>
<polygon fill="none" stroke="#000000" points="261,-165.8189 261,-187.8189 545,-187.8189 545,-165.8189 261,-165.8189"/>
<text text-anchor="start" x="281" y="-168.4189" font-family="Helvetica,sans-Serif" font-size="16.00" fill="#000000">name</text>
<polygon fill="none" stroke="#000000" points="261,-143.8189 261,-165.8189 545,-165.8189 545,-143.8189 261,-143.8189"/>
<image xlink:href="../../images/foreignKeys.png" width="11px" height="12px" preserveAspectRatio="xMinYMin meet" x="266" y="-160.819"/>
<text text-anchor="start" x="281" y="-146.4189" font-family="Helvetica,sans-Serif" font-size="16.00" fill="#000000">business_partner_id</text>
<polygon fill="none" stroke="#000000" points="261,-118.8189 261,-143.8189 545,-143.8189 545,-118.8189 261,-118.8189"/>
<text text-anchor="start" x="264" y="-126.4189" font-family="Helvetica,sans-Serif" font-size="16.00" fill="#000000">...</text>
<polygon fill="#ffffff" stroke="transparent" points="261,-93.8189 261,-118.8189 376,-118.8189 376,-93.8189 261,-93.8189"/>
<polygon fill="none" stroke="#000000" points="261,-93.8189 261,-118.8189 376,-118.8189 376,-93.8189 261,-93.8189"/>
<text text-anchor="start" x="264" y="-101.4189" font-family="Helvetica,sans-Serif" font-size="16.00" fill="#000000">&lt; 1</text>
<polygon fill="#ffffff" stroke="transparent" points="376,-93.8189 376,-118.8189 473,-118.8189 473,-93.8189 376,-93.8189"/>
<polygon fill="none" stroke="#000000" points="376,-93.8189 376,-118.8189 473,-118.8189 473,-93.8189 376,-93.8189"/>
<text text-anchor="start" x="422.888" y="-101.4189" font-family="Helvetica,sans-Serif" font-size="16.00" fill="#000000">0 rows</text>
<polygon fill="#ffffff" stroke="transparent" points="473,-93.8189 473,-118.8189 545,-118.8189 545,-93.8189 473,-93.8189"/>
<polygon fill="none" stroke="#000000" points="473,-93.8189 473,-118.8189 545,-118.8189 545,-93.8189 473,-93.8189"/>
<text text-anchor="start" x="519.3168" y="-101.4189" font-family="Helvetica,sans-Serif" font-size="16.00" fill="#000000">3 &gt;</text>
</a>
</g>
</g>
<!-- timers&#45;&gt;projects -->
<g id="edge11" class="edge">
<title>timers:w&#45;&gt;projects:e</title>
<path fill="none" stroke="#000000" d="M579.7538,-440.9951C500.5673,-418.6668 650.0344,-198.8189 545,-198.8189"/>
<polygon fill="#000000" stroke="#000000" points="586.5605,-441.8369 594.0581,-446.3916 590.5302,-442.3279 594.5,-442.8189 594.5,-442.8189 594.5,-442.8189 590.5302,-442.3279 594.9419,-439.2461 586.5605,-441.8369 586.5605,-441.8369"/>
<ellipse fill="none" stroke="#000000" cx="583.3847" cy="-441.4441" rx="3.2" ry="3.2"/>
</g>
<!-- activity_types -->
<g id="node5" class="node">
<title>activity_types</title>
<g id="a_node5"><a xlink:href="../../tables/activity_types.html" xlink:title="activity_types" target="_top">
<polygon fill="#ffffff" stroke="transparent" points="320.5,-404.3189 320.5,-505.3189 485.5,-505.3189 485.5,-404.3189 320.5,-404.3189"/>
<polygon fill="#f5f5f5" stroke="transparent" points="321,-475.8189 321,-504.8189 486,-504.8189 486,-475.8189 321,-475.8189"/>
<polygon fill="none" stroke="#000000" points="321,-475.8189 321,-504.8189 486,-504.8189 486,-475.8189 321,-475.8189"/>
<text text-anchor="start" x="326" y="-482.9189" font-family="Helvetica,sans-Serif" font-weight="bold" font-size="16.00" fill="#000000">activity_types</text>
<text text-anchor="start" x="437.7136" y="-485.4189" font-family="Helvetica,sans-Serif" font-size="16.00" fill="#000000">[table]</text>
<polygon fill="none" stroke="#000000" points="321,-453.8189 321,-475.8189 486,-475.8189 486,-453.8189 321,-453.8189"/>
<image xlink:href="../../images/primaryKeys.png" width="11px" height="12px" preserveAspectRatio="xMinYMin meet" x="326" y="-470.819"/>
<text text-anchor="start" x="357" y="-456.4189" font-family="Helvetica,sans-Serif" font-size="16.00" fill="#000000">id</text>
<polygon fill="none" stroke="#000000" points="321,-428.8189 321,-453.8189 486,-453.8189 486,-428.8189 321,-428.8189"/>
<text text-anchor="start" x="324" y="-436.4189" font-family="Helvetica,sans-Serif" font-size="16.00" fill="#000000">...</text>
<polygon fill="#ffffff" stroke="transparent" points="321,-403.8189 321,-428.8189 370,-428.8189 370,-403.8189 321,-403.8189"/>
<polygon fill="none" stroke="#000000" points="321,-403.8189 321,-428.8189 370,-428.8189 370,-403.8189 321,-403.8189"/>
<text text-anchor="start" x="324" y="-411.4189" font-family="Helvetica,sans-Serif" font-size="16.00" fill="#000000"> &#160;</text>
<polygon fill="#ffffff" stroke="transparent" points="370,-403.8189 370,-428.8189 440,-428.8189 440,-403.8189 370,-403.8189"/>
<polygon fill="none" stroke="#000000" points="370,-403.8189 370,-428.8189 440,-428.8189 440,-403.8189 370,-403.8189"/>
<text text-anchor="start" x="389.888" y="-411.4189" font-family="Helvetica,sans-Serif" font-size="16.00" fill="#000000">0 rows</text>
<polygon fill="#ffffff" stroke="transparent" points="440,-403.8189 440,-428.8189 486,-428.8189 486,-403.8189 440,-403.8189"/>
<polygon fill="none" stroke="#000000" points="440,-403.8189 440,-428.8189 486,-428.8189 486,-403.8189 440,-403.8189"/>
<text text-anchor="start" x="460.3168" y="-411.4189" font-family="Helvetica,sans-Serif" font-size="16.00" fill="#000000">1 &gt;</text>
</a>
</g>
</g>
<!-- timers&#45;&gt;activity_types -->
<g id="edge9" class="edge">
<title>timers:w&#45;&gt;activity_types:e</title>
<path fill="none" stroke="#000000" d="M579.8804,-464.8189C543.208,-464.8189 528.9479,-464.8189 486,-464.8189"/>
<polygon fill="#000000" stroke="#000000" points="586.5,-464.8189 594.5,-468.4189 590.5,-464.8189 594.5,-464.8189 594.5,-464.8189 594.5,-464.8189 590.5,-464.8189 594.5,-461.2189 586.5,-464.8189 586.5,-464.8189"/>
<ellipse fill="none" stroke="#000000" cx="583.3" cy="-464.8189" rx="3.2" ry="3.2"/>
</g>
<!-- project_notes -->
<g id="node3" class="node">
<title>project_notes</title>
<g id="a_node3"><a xlink:href="../../tables/project_notes.html" xlink:title="project_notes" target="_top">
<polygon fill="#ffffff" stroke="transparent" points="628.5,-238.3189 628.5,-361.3189 792.5,-361.3189 792.5,-238.3189 628.5,-238.3189"/>
<polygon fill="#f5f5f5" stroke="transparent" points="628.5,-331.8189 628.5,-360.8189 792.5,-360.8189 792.5,-331.8189 628.5,-331.8189"/>
<polygon fill="none" stroke="#000000" points="628.5,-331.8189 628.5,-360.8189 792.5,-360.8189 792.5,-331.8189 628.5,-331.8189"/>
<text text-anchor="start" x="633.5" y="-338.9189" font-family="Helvetica,sans-Serif" font-weight="bold" font-size="16.00" fill="#000000">project_notes</text>
<text text-anchor="start" x="744.2136" y="-341.4189" font-family="Helvetica,sans-Serif" font-size="16.00" fill="#000000">[table]</text>
<polygon fill="none" stroke="#000000" points="628.5,-309.8189 628.5,-331.8189 792.5,-331.8189 792.5,-309.8189 628.5,-309.8189"/>
<image xlink:href="../../images/primaryKeys.png" width="11px" height="12px" preserveAspectRatio="xMinYMin meet" x="633.5" y="-326.819"/>
<text text-anchor="start" x="664.5" y="-312.4189" font-family="Helvetica,sans-Serif" font-size="16.00" fill="#000000">id</text>
<polygon fill="#ffffff" stroke="transparent" points="628.5,-287.8189 628.5,-309.8189 792.5,-309.8189 792.5,-287.8189 628.5,-287.8189"/>
<polygon fill="none" stroke="#000000" points="628.5,-287.8189 628.5,-309.8189 792.5,-309.8189 792.5,-287.8189 628.5,-287.8189"/>
<image xlink:href="../../images/foreignKeys.png" width="11px" height="12px" preserveAspectRatio="xMinYMin meet" x="633.5" y="-304.819"/>
<text text-anchor="start" x="664.5" y="-290.4189" font-family="Helvetica,sans-Serif" font-size="16.00" fill="#000000">project_id</text>
<polygon fill="none" stroke="#000000" points="628.5,-262.8189 628.5,-287.8189 792.5,-287.8189 792.5,-262.8189 628.5,-262.8189"/>
<text text-anchor="start" x="631.5" y="-270.4189" font-family="Helvetica,sans-Serif" font-size="16.00" fill="#000000">...</text>
<polygon fill="#ffffff" stroke="transparent" points="628.5,-237.8189 628.5,-262.8189 690.5,-262.8189 690.5,-237.8189 628.5,-237.8189"/>
<polygon fill="none" stroke="#000000" points="628.5,-237.8189 628.5,-262.8189 690.5,-262.8189 690.5,-237.8189 628.5,-237.8189"/>
<text text-anchor="start" x="631.5" y="-245.4189" font-family="Helvetica,sans-Serif" font-size="16.00" fill="#000000">&lt; 1</text>
<polygon fill="#ffffff" stroke="transparent" points="690.5,-237.8189 690.5,-262.8189 760.5,-262.8189 760.5,-237.8189 690.5,-237.8189"/>
<polygon fill="none" stroke="#000000" points="690.5,-237.8189 690.5,-262.8189 760.5,-262.8189 760.5,-237.8189 690.5,-237.8189"/>
<text text-anchor="start" x="710.388" y="-245.4189" font-family="Helvetica,sans-Serif" font-size="16.00" fill="#000000">0 rows</text>
<polygon fill="#ffffff" stroke="transparent" points="760.5,-237.8189 760.5,-262.8189 792.5,-262.8189 792.5,-237.8189 760.5,-237.8189"/>
<polygon fill="none" stroke="#000000" points="760.5,-237.8189 760.5,-262.8189 792.5,-262.8189 792.5,-237.8189 760.5,-237.8189"/>
<text text-anchor="start" x="780.6072" y="-245.4189" font-family="Helvetica,sans-Serif" font-size="16.00" fill="#000000"> &#160;</text>
</a>
</g>
</g>
<!-- project_notes&#45;&gt;projects -->
<g id="edge2" class="edge">
<title>project_notes:w&#45;&gt;projects:e</title>
<path fill="none" stroke="#000000" d="M613.9495,-296.1441C576.0476,-280.2413 597.2467,-198.8189 545,-198.8189"/>
<polygon fill="#000000" stroke="#000000" points="620.6318,-297.3724 627.8491,-302.3595 624.5659,-298.0956 628.5,-298.8189 628.5,-298.8189 628.5,-298.8189 624.5659,-298.0956 629.1509,-295.2782 620.6318,-297.3724 620.6318,-297.3724"/>
<ellipse fill="none" stroke="#000000" cx="617.4846" cy="-296.7939" rx="3.2" ry="3.2"/>
</g>
<!-- projects&#45;&gt;business_partners -->
<g id="edge5" class="edge">
<title>projects:w&#45;&gt;business_partners:e</title>
<path fill="none" stroke="#000000" d="M246.7274,-157.4263C198.6375,-178.5451 283.2156,-320.8189 212,-320.8189"/>
<polygon fill="#000000" stroke="#000000" points="253.1303,-156.2566 261.647,-158.3602 257.0651,-155.5377 261,-154.8189 261,-154.8189 261,-154.8189 257.0651,-155.5377 260.353,-151.2775 253.1303,-156.2566 253.1303,-156.2566"/>
<ellipse fill="none" stroke="#000000" cx="249.9824" cy="-156.8317" rx="3.2" ry="3.2"/>
</g>
<!-- timer_tags -->
<g id="node6" class="node">
<title>timer_tags</title>
<g id="a_node6"><a xlink:href="../../tables/timer_tags.html" xlink:title="timer_tags" target="_top">
<polygon fill="#ffffff" stroke="transparent" points="884,-261.3189 884,-406.3189 1022,-406.3189 1022,-261.3189 884,-261.3189"/>
<polygon fill="#f5f5f5" stroke="transparent" points="884,-376.8189 884,-405.8189 1022,-405.8189 1022,-376.8189 884,-376.8189"/>
<polygon fill="none" stroke="#000000" points="884,-376.8189 884,-405.8189 1022,-405.8189 1022,-376.8189 884,-376.8189"/>
<text text-anchor="start" x="889" y="-383.9189" font-family="Helvetica,sans-Serif" font-weight="bold" font-size="16.00" fill="#000000">timer_tags</text>
<text text-anchor="start" x="973.7136" y="-386.4189" font-family="Helvetica,sans-Serif" font-size="16.00" fill="#000000">[table]</text>
<polygon fill="none" stroke="#000000" points="884,-354.8189 884,-376.8189 1022,-376.8189 1022,-354.8189 884,-354.8189"/>
<image xlink:href="../../images/primaryKeys.png" width="11px" height="12px" preserveAspectRatio="xMinYMin meet" x="889" y="-371.819"/>
<text text-anchor="start" x="918" y="-357.4189" font-family="Helvetica,sans-Serif" font-size="16.00" fill="#000000">id</text>
<polygon fill="#ffffff" stroke="transparent" points="884,-332.8189 884,-354.8189 1022,-354.8189 1022,-332.8189 884,-332.8189"/>
<polygon fill="none" stroke="#000000" points="884,-332.8189 884,-354.8189 1022,-354.8189 1022,-332.8189 884,-332.8189"/>
<image xlink:href="../../images/foreignKeys.png" width="11px" height="12px" preserveAspectRatio="xMinYMin meet" x="889" y="-349.819"/>
<text text-anchor="start" x="918" y="-335.4189" font-family="Helvetica,sans-Serif" font-size="16.00" fill="#000000">tag_id</text>
<polygon fill="#ffffff" stroke="transparent" points="884,-310.8189 884,-332.8189 1022,-332.8189 1022,-310.8189 884,-310.8189"/>
<polygon fill="none" stroke="#000000" points="884,-310.8189 884,-332.8189 1022,-332.8189 1022,-310.8189 884,-310.8189"/>
<image xlink:href="../../images/foreignKeys.png" width="11px" height="12px" preserveAspectRatio="xMinYMin meet" x="889" y="-327.819"/>
<text text-anchor="start" x="918" y="-313.4189" font-family="Helvetica,sans-Serif" font-size="16.00" fill="#000000">timer_id</text>
<polygon fill="none" stroke="#000000" points="884,-285.8189 884,-310.8189 1022,-310.8189 1022,-285.8189 884,-285.8189"/>
<text text-anchor="start" x="887" y="-293.4189" font-family="Helvetica,sans-Serif" font-size="16.00" fill="#000000">...</text>
<polygon fill="#ffffff" stroke="transparent" points="884,-260.8189 884,-285.8189 933,-285.8189 933,-260.8189 884,-260.8189"/>
<polygon fill="none" stroke="#000000" points="884,-260.8189 884,-285.8189 933,-285.8189 933,-260.8189 884,-260.8189"/>
<text text-anchor="start" x="887" y="-268.4189" font-family="Helvetica,sans-Serif" font-size="16.00" fill="#000000">&lt; 2</text>
<polygon fill="#ffffff" stroke="transparent" points="933,-260.8189 933,-285.8189 997,-285.8189 997,-260.8189 933,-260.8189"/>
<polygon fill="none" stroke="#000000" points="933,-260.8189 933,-285.8189 997,-285.8189 997,-260.8189 933,-260.8189"/>
<text text-anchor="start" x="946.888" y="-268.4189" font-family="Helvetica,sans-Serif" font-size="16.00" fill="#000000">0 rows</text>
<polygon fill="#ffffff" stroke="transparent" points="997,-260.8189 997,-285.8189 1022,-285.8189 1022,-260.8189 997,-260.8189"/>
<polygon fill="none" stroke="#000000" points="997,-260.8189 997,-285.8189 1022,-285.8189 1022,-260.8189 997,-260.8189"/>
<text text-anchor="start" x="1010.1072" y="-268.4189" font-family="Helvetica,sans-Serif" font-size="16.00" fill="#000000"> &#160;</text>
</a>
</g>
</g>
<!-- timer_tags&#45;&gt;timers -->
<g id="edge8" class="edge">
<title>timer_tags:w&#45;&gt;timers:e</title>
<path fill="none" stroke="#000000" d="M869.3836,-323.8874C802.9109,-345.5935 918.0852,-530.8189 827.5,-530.8189"/>
<polygon fill="#000000" stroke="#000000" points="876.0789,-322.9399 884.5045,-325.3833 880.0395,-322.3794 884,-321.8189 884,-321.8189 884,-321.8189 880.0395,-322.3794 883.4955,-318.2544 876.0789,-322.9399 876.0789,-322.9399"/>
<ellipse fill="none" stroke="#000000" cx="872.9105" cy="-323.3883" rx="3.2" ry="3.2"/>
</g>
<!-- tags -->
<g id="node10" class="node">
<title>tags</title>
<g id="a_node10"><a xlink:href="../../tables/tags.html" xlink:title="tags" target="_top">
<polygon fill="#ffffff" stroke="transparent" points="654.5,-94.3189 654.5,-217.3189 766.5,-217.3189 766.5,-94.3189 654.5,-94.3189"/>
<polygon fill="#f5f5f5" stroke="transparent" points="654.5,-187.8189 654.5,-216.8189 766.5,-216.8189 766.5,-187.8189 654.5,-187.8189"/>
<polygon fill="none" stroke="#000000" points="654.5,-187.8189 654.5,-216.8189 766.5,-216.8189 766.5,-187.8189 654.5,-187.8189"/>
<text text-anchor="start" x="659.3824" y="-194.9189" font-family="Helvetica,sans-Serif" font-weight="bold" font-size="16.00" fill="#000000">tags</text>
<text text-anchor="start" x="717.9272" y="-197.4189" font-family="Helvetica,sans-Serif" font-size="16.00" fill="#000000">[table]</text>
<polygon fill="none" stroke="#000000" points="654.5,-165.8189 654.5,-187.8189 766.5,-187.8189 766.5,-165.8189 654.5,-165.8189"/>
<image xlink:href="../../images/primaryKeys.png" width="11px" height="12px" preserveAspectRatio="xMinYMin meet" x="659.5" y="-182.819"/>
<text text-anchor="start" x="674.5" y="-168.4189" font-family="Helvetica,sans-Serif" font-size="16.00" fill="#000000">id</text>
<polygon fill="#ffffff" stroke="transparent" points="654.5,-143.8189 654.5,-165.8189 766.5,-165.8189 766.5,-143.8189 654.5,-143.8189"/>
<polygon fill="none" stroke="#000000" points="654.5,-143.8189 654.5,-165.8189 766.5,-165.8189 766.5,-143.8189 654.5,-143.8189"/>
<text text-anchor="start" x="674.5" y="-146.4189" font-family="Helvetica,sans-Serif" font-size="16.00" fill="#000000">name</text>
<polygon fill="none" stroke="#000000" points="654.5,-118.8189 654.5,-143.8189 766.5,-143.8189 766.5,-118.8189 654.5,-118.8189"/>
<text text-anchor="start" x="657.5" y="-126.4189" font-family="Helvetica,sans-Serif" font-size="16.00" fill="#000000">...</text>
<polygon fill="#ffffff" stroke="transparent" points="654.5,-93.8189 654.5,-118.8189 676.5,-118.8189 676.5,-93.8189 654.5,-93.8189"/>
<polygon fill="none" stroke="#000000" points="654.5,-93.8189 654.5,-118.8189 676.5,-118.8189 676.5,-93.8189 654.5,-93.8189"/>
<text text-anchor="start" x="657.5" y="-101.4189" font-family="Helvetica,sans-Serif" font-size="16.00" fill="#000000"> &#160;</text>
<polygon fill="#ffffff" stroke="transparent" points="676.5,-93.8189 676.5,-118.8189 733.5,-118.8189 733.5,-93.8189 676.5,-93.8189"/>
<polygon fill="none" stroke="#000000" points="676.5,-93.8189 676.5,-118.8189 733.5,-118.8189 733.5,-93.8189 676.5,-93.8189"/>
<text text-anchor="start" x="683.388" y="-101.4189" font-family="Helvetica,sans-Serif" font-size="16.00" fill="#000000">0 rows</text>
<polygon fill="#ffffff" stroke="transparent" points="733.5,-93.8189 733.5,-118.8189 766.5,-118.8189 766.5,-93.8189 733.5,-93.8189"/>
<polygon fill="none" stroke="#000000" points="733.5,-93.8189 733.5,-118.8189 766.5,-118.8189 766.5,-93.8189 733.5,-93.8189"/>
<text text-anchor="start" x="740.8168" y="-101.4189" font-family="Helvetica,sans-Serif" font-size="16.00" fill="#000000">2 &gt;</text>
</a>
</g>
</g>
<!-- timer_tags&#45;&gt;tags -->
<g id="edge7" class="edge">
<title>timer_tags:w&#45;&gt;tags:e</title>
<path fill="none" stroke="#000000" d="M869.3412,-341.5344C835.9439,-328.949 865.9019,-267.2074 835,-227.8189 811.5718,-197.9565 804.4558,-176.8189 766.5,-176.8189"/>
<polygon fill="#000000" stroke="#000000" points="876.0954,-342.587 883.4456,-347.3759 880.0477,-343.2029 884,-343.8189 884,-343.8189 884,-343.8189 880.0477,-343.2029 884.5544,-340.2618 876.0954,-342.587 876.0954,-342.587"/>
<ellipse fill="none" stroke="#000000" cx="872.9336" cy="-342.0942" rx="3.2" ry="3.2"/>
</g>
<!-- timer_notes -->
<g id="node7" class="node">
<title>timer_notes</title>
<g id="a_node7"><a xlink:href="../../tables/timer_notes.html" xlink:title="timer_notes" target="_top">
<polygon fill="#ffffff" stroke="transparent" points="878.5,-470.3189 878.5,-593.3189 1027.5,-593.3189 1027.5,-470.3189 878.5,-470.3189"/>
<polygon fill="#f5f5f5" stroke="transparent" points="879,-563.8189 879,-592.8189 1028,-592.8189 1028,-563.8189 879,-563.8189"/>
<polygon fill="none" stroke="#000000" points="879,-563.8189 879,-592.8189 1028,-592.8189 1028,-563.8189 879,-563.8189"/>
<text text-anchor="start" x="884" y="-570.9189" font-family="Helvetica,sans-Serif" font-weight="bold" font-size="16.00" fill="#000000">timer_notes</text>
<text text-anchor="start" x="979.7136" y="-573.4189" font-family="Helvetica,sans-Serif" font-size="16.00" fill="#000000">[table]</text>
<polygon fill="none" stroke="#000000" points="879,-541.8189 879,-563.8189 1028,-563.8189 1028,-541.8189 879,-541.8189"/>
<image xlink:href="../../images/primaryKeys.png" width="11px" height="12px" preserveAspectRatio="xMinYMin meet" x="884" y="-558.819"/>
<text text-anchor="start" x="915" y="-544.4189" font-family="Helvetica,sans-Serif" font-size="16.00" fill="#000000">id</text>
<polygon fill="#ffffff" stroke="transparent" points="879,-519.8189 879,-541.8189 1028,-541.8189 1028,-519.8189 879,-519.8189"/>
<polygon fill="none" stroke="#000000" points="879,-519.8189 879,-541.8189 1028,-541.8189 1028,-519.8189 879,-519.8189"/>
<image xlink:href="../../images/foreignKeys.png" width="11px" height="12px" preserveAspectRatio="xMinYMin meet" x="884" y="-536.819"/>
<text text-anchor="start" x="915" y="-522.4189" font-family="Helvetica,sans-Serif" font-size="16.00" fill="#000000">timer_id</text>
<polygon fill="none" stroke="#000000" points="879,-494.8189 879,-519.8189 1028,-519.8189 1028,-494.8189 879,-494.8189"/>
<text text-anchor="start" x="882" y="-502.4189" font-family="Helvetica,sans-Serif" font-size="16.00" fill="#000000">...</text>
<polygon fill="#ffffff" stroke="transparent" points="879,-469.8189 879,-494.8189 934,-494.8189 934,-469.8189 879,-469.8189"/>
<polygon fill="none" stroke="#000000" points="879,-469.8189 879,-494.8189 934,-494.8189 934,-469.8189 879,-469.8189"/>
<text text-anchor="start" x="882" y="-477.4189" font-family="Helvetica,sans-Serif" font-size="16.00" fill="#000000">&lt; 1</text>
<polygon fill="#ffffff" stroke="transparent" points="934,-469.8189 934,-494.8189 1000,-494.8189 1000,-469.8189 934,-469.8189"/>
<polygon fill="none" stroke="#000000" points="934,-469.8189 934,-494.8189 1000,-494.8189 1000,-469.8189 934,-469.8189"/>
<text text-anchor="start" x="949.888" y="-477.4189" font-family="Helvetica,sans-Serif" font-size="16.00" fill="#000000">0 rows</text>
<polygon fill="#ffffff" stroke="transparent" points="1000,-469.8189 1000,-494.8189 1028,-494.8189 1028,-469.8189 1000,-469.8189"/>
<polygon fill="none" stroke="#000000" points="1000,-469.8189 1000,-494.8189 1028,-494.8189 1028,-469.8189 1000,-469.8189"/>
<text text-anchor="start" x="1016.1072" y="-477.4189" font-family="Helvetica,sans-Serif" font-size="16.00" fill="#000000"> &#160;</text>
</a>
</g>
</g>
<!-- timer_notes&#45;&gt;timers -->
<g id="edge6" class="edge">
<title>timer_notes:w&#45;&gt;timers:e</title>
<path fill="none" stroke="#000000" d="M864.5156,-530.8189C852.1771,-530.8189 844.6667,-530.8189 827.5,-530.8189"/>
<polygon fill="#000000" stroke="#000000" points="871,-530.8189 879,-534.4189 875,-530.8189 879,-530.8189 879,-530.8189 879,-530.8189 875,-530.8189 879,-527.2189 871,-530.8189 871,-530.8189"/>
<ellipse fill="none" stroke="#000000" cx="867.8" cy="-530.8189" rx="3.2" ry="3.2"/>
</g>
<!-- business_partner_notes -->
<g id="node8" class="node">
<title>business_partner_notes</title>
<g id="a_node8"><a xlink:href="../../tables/business_partner_notes.html" xlink:title="business_partner_notes" target="_top">
<polygon fill="#ffffff" stroke="transparent" points="278.5,-260.3189 278.5,-383.3189 527.5,-383.3189 527.5,-260.3189 278.5,-260.3189"/>
<polygon fill="#f5f5f5" stroke="transparent" points="279,-353.8189 279,-382.8189 528,-382.8189 528,-353.8189 279,-353.8189"/>
<polygon fill="none" stroke="#000000" points="279,-353.8189 279,-382.8189 528,-382.8189 528,-353.8189 279,-353.8189"/>
<text text-anchor="start" x="284" y="-360.9189" font-family="Helvetica,sans-Serif" font-weight="bold" font-size="16.00" fill="#000000">business_partner_notes</text>
<text text-anchor="start" x="479.7136" y="-363.4189" font-family="Helvetica,sans-Serif" font-size="16.00" fill="#000000">[table]</text>
<polygon fill="none" stroke="#000000" points="279,-331.8189 279,-353.8189 528,-353.8189 528,-331.8189 279,-331.8189"/>
<image xlink:href="../../images/primaryKeys.png" width="11px" height="12px" preserveAspectRatio="xMinYMin meet" x="284" y="-348.819"/>
<text text-anchor="start" x="315" y="-334.4189" font-family="Helvetica,sans-Serif" font-size="16.00" fill="#000000">id</text>
<polygon fill="#ffffff" stroke="transparent" points="279,-309.8189 279,-331.8189 528,-331.8189 528,-309.8189 279,-309.8189"/>
<polygon fill="none" stroke="#000000" points="279,-309.8189 279,-331.8189 528,-331.8189 528,-309.8189 279,-309.8189"/>
<image xlink:href="../../images/foreignKeys.png" width="11px" height="12px" preserveAspectRatio="xMinYMin meet" x="284" y="-326.819"/>
<text text-anchor="start" x="315" y="-312.4189" font-family="Helvetica,sans-Serif" font-size="16.00" fill="#000000">business_partner_id</text>
<polygon fill="none" stroke="#000000" points="279,-284.8189 279,-309.8189 528,-309.8189 528,-284.8189 279,-284.8189"/>
<text text-anchor="start" x="282" y="-292.4189" font-family="Helvetica,sans-Serif" font-size="16.00" fill="#000000">...</text>
<polygon fill="#ffffff" stroke="transparent" points="279,-259.8189 279,-284.8189 384,-284.8189 384,-259.8189 279,-259.8189"/>
<polygon fill="none" stroke="#000000" points="279,-259.8189 279,-284.8189 384,-284.8189 384,-259.8189 279,-259.8189"/>
<text text-anchor="start" x="282" y="-267.4189" font-family="Helvetica,sans-Serif" font-size="16.00" fill="#000000">&lt; 1</text>
<polygon fill="#ffffff" stroke="transparent" points="384,-259.8189 384,-284.8189 475,-284.8189 475,-259.8189 384,-259.8189"/>
<polygon fill="none" stroke="#000000" points="384,-259.8189 384,-284.8189 475,-284.8189 475,-259.8189 384,-259.8189"/>
<text text-anchor="start" x="424.888" y="-267.4189" font-family="Helvetica,sans-Serif" font-size="16.00" fill="#000000">0 rows</text>
<polygon fill="#ffffff" stroke="transparent" points="475,-259.8189 475,-284.8189 528,-284.8189 528,-259.8189 475,-259.8189"/>
<polygon fill="none" stroke="#000000" points="475,-259.8189 475,-284.8189 528,-284.8189 528,-259.8189 475,-259.8189"/>
<text text-anchor="start" x="516.1072" y="-267.4189" font-family="Helvetica,sans-Serif" font-size="16.00" fill="#000000"> &#160;</text>
</a>
</g>
</g>
<!-- business_partner_notes&#45;&gt;business_partners -->
<g id="edge1" class="edge">
<title>business_partner_notes:w&#45;&gt;business_partners:e</title>
<path fill="none" stroke="#000000" d="M264.5809,-320.8189C245.7359,-320.8189 236.3108,-320.8189 212,-320.8189"/>
<polygon fill="#000000" stroke="#000000" points="271,-320.8189 279,-324.4189 275,-320.8189 279,-320.8189 279,-320.8189 279,-320.8189 275,-320.8189 279,-317.2189 271,-320.8189 271,-320.8189"/>
<ellipse fill="none" stroke="#000000" cx="267.8" cy="-320.8189" rx="3.2" ry="3.2"/>
</g>
<!-- project_tags -->
<g id="node9" class="node">
<title>project_tags</title>
<g id="a_node9"><a xlink:href="../../tables/project_tags.html" xlink:title="project_tags" target="_top">
<polygon fill="#ffffff" stroke="transparent" points="876,-52.3189 876,-197.3189 1030,-197.3189 1030,-52.3189 876,-52.3189"/>
<polygon fill="#f5f5f5" stroke="transparent" points="876,-167.8189 876,-196.8189 1030,-196.8189 1030,-167.8189 876,-167.8189"/>
<polygon fill="none" stroke="#000000" points="876,-167.8189 876,-196.8189 1030,-196.8189 1030,-167.8189 876,-167.8189"/>
<text text-anchor="start" x="881" y="-174.9189" font-family="Helvetica,sans-Serif" font-weight="bold" font-size="16.00" fill="#000000">project_tags</text>
<text text-anchor="start" x="981.7136" y="-177.4189" font-family="Helvetica,sans-Serif" font-size="16.00" fill="#000000">[table]</text>
<polygon fill="none" stroke="#000000" points="876,-145.8189 876,-167.8189 1030,-167.8189 1030,-145.8189 876,-145.8189"/>
<image xlink:href="../../images/primaryKeys.png" width="11px" height="12px" preserveAspectRatio="xMinYMin meet" x="881" y="-162.819"/>
<text text-anchor="start" x="912" y="-148.4189" font-family="Helvetica,sans-Serif" font-size="16.00" fill="#000000">id</text>
<polygon fill="#ffffff" stroke="transparent" points="876,-123.8189 876,-145.8189 1030,-145.8189 1030,-123.8189 876,-123.8189"/>
<polygon fill="none" stroke="#000000" points="876,-123.8189 876,-145.8189 1030,-145.8189 1030,-123.8189 876,-123.8189"/>
<image xlink:href="../../images/foreignKeys.png" width="11px" height="12px" preserveAspectRatio="xMinYMin meet" x="881" y="-140.819"/>
<text text-anchor="start" x="912" y="-126.4189" font-family="Helvetica,sans-Serif" font-size="16.00" fill="#000000">tag_id</text>
<polygon fill="#ffffff" stroke="transparent" points="876,-101.8189 876,-123.8189 1030,-123.8189 1030,-101.8189 876,-101.8189"/>
<polygon fill="none" stroke="#000000" points="876,-101.8189 876,-123.8189 1030,-123.8189 1030,-101.8189 876,-101.8189"/>
<image xlink:href="../../images/foreignKeys.png" width="11px" height="12px" preserveAspectRatio="xMinYMin meet" x="881" y="-118.819"/>
<text text-anchor="start" x="912" y="-104.4189" font-family="Helvetica,sans-Serif" font-size="16.00" fill="#000000">project_id</text>
<polygon fill="none" stroke="#000000" points="876,-76.8189 876,-101.8189 1030,-101.8189 1030,-76.8189 876,-76.8189"/>
<text text-anchor="start" x="879" y="-84.4189" font-family="Helvetica,sans-Serif" font-size="16.00" fill="#000000">...</text>
<polygon fill="#ffffff" stroke="transparent" points="876,-51.8189 876,-76.8189 933,-76.8189 933,-51.8189 876,-51.8189"/>
<polygon fill="none" stroke="#000000" points="876,-51.8189 876,-76.8189 933,-76.8189 933,-51.8189 876,-51.8189"/>
<text text-anchor="start" x="879" y="-59.4189" font-family="Helvetica,sans-Serif" font-size="16.00" fill="#000000">&lt; 2</text>
<polygon fill="#ffffff" stroke="transparent" points="933,-51.8189 933,-76.8189 1001,-76.8189 1001,-51.8189 933,-51.8189"/>
<polygon fill="none" stroke="#000000" points="933,-51.8189 933,-76.8189 1001,-76.8189 1001,-51.8189 933,-51.8189"/>
<text text-anchor="start" x="950.888" y="-59.4189" font-family="Helvetica,sans-Serif" font-size="16.00" fill="#000000">0 rows</text>
<polygon fill="#ffffff" stroke="transparent" points="1001,-51.8189 1001,-76.8189 1030,-76.8189 1030,-51.8189 1001,-51.8189"/>
<polygon fill="none" stroke="#000000" points="1001,-51.8189 1001,-76.8189 1030,-76.8189 1030,-51.8189 1001,-51.8189"/>
<text text-anchor="start" x="1018.1072" y="-59.4189" font-family="Helvetica,sans-Serif" font-size="16.00" fill="#000000"> &#160;</text>
</a>
</g>
</g>
<!-- project_tags&#45;&gt;projects -->
<g id="edge3" class="edge">
<title>project_tags:w&#45;&gt;projects:e</title>
<path fill="none" stroke="#000000" d="M861.994,-108.3808C853.2499,-101.5343 850.2883,-88.6792 835,-83.8189 729.5347,-50.2899 676.4431,-20.0446 586,-83.8189 541.6538,-115.0888 599.2623,-198.8189 545,-198.8189"/>
<polygon fill="#000000" stroke="#000000" points="868.3737,-110.4023 874.9125,-116.2507 872.1869,-111.6106 876,-112.8189 876,-112.8189 876,-112.8189 872.1869,-111.6106 877.0875,-109.387 868.3737,-110.4023 868.3737,-110.4023"/>
<ellipse fill="none" stroke="#000000" cx="865.3232" cy="-109.4356" rx="3.2" ry="3.2"/>
</g>
<!-- project_tags&#45;&gt;tags -->
<g id="edge4" class="edge">
<title>project_tags:w&#45;&gt;tags:e</title>
<path fill="none" stroke="#000000" d="M861.4708,-136.0305C822.3258,-142.9169 813.33,-176.8189 766.5,-176.8189"/>
<polygon fill="#000000" stroke="#000000" points="868.0277,-135.4838 876.2992,-138.4064 872.0138,-135.1513 876,-134.8189 876,-134.8189 876,-134.8189 872.0138,-135.1513 875.7008,-131.2313 868.0277,-135.4838 868.0277,-135.4838"/>
<ellipse fill="none" stroke="#000000" cx="864.8387" cy="-135.7497" rx="3.2" ry="3.2"/>
</g>
</g>
</svg>
