<?xml version="1.0" encoding="UTF-8" standalone="no"?>
<!DOCTYPE svg PUBLIC "-//W3C//DTD SVG 1.1//EN"
 "http://www.w3.org/Graphics/SVG/1.1/DTD/svg11.dtd">
<!-- Generated by graphviz version 2.40.1 (20161225.0304)
 -->
<!-- Title: twoDegreesRelationshipsDiagram Pages: 1 -->
<svg width="808pt" height="398pt"
 viewBox="0.00 0.00 808.00 397.70" xmlns="http://www.w3.org/2000/svg" xmlns:xlink="http://www.w3.org/1999/xlink">
<g id="graph0" class="graph" transform="scale(1 1) rotate(0) translate(4 393.7)">
<title>twoDegreesRelationshipsDiagram</title>
<polygon fill="#ffffff" stroke="transparent" points="-4,4 -4,-393.7 804,-393.7 804,4 -4,4"/>
<text text-anchor="middle" x="101.8088" y="-8.8" font-family="Helvetica,sans-Serif" font-size="16.00" fill="#000000">Generated by SchemaSpy</text>
<!-- business_partner_notes -->
<g id="node1" class="node">
<title>business_partner_notes</title>
<g id="a_node1"><a xlink:href="../../tables/business_partner_notes.html" xlink:title="business_partner_notes" target="_top">
<polygon fill="#ffffff" stroke="transparent" points="261,-177.7 261,-385.7 634,-385.7 634,-177.7 261,-177.7"/>
<polygon fill="#f5f5f5" stroke="transparent" points="263.5,-354.7 263.5,-383.7 632.5,-383.7 632.5,-354.7 263.5,-354.7"/>
<polygon fill="none" stroke="#000000" points="263.5,-354.7 263.5,-383.7 632.5,-383.7 632.5,-354.7 263.5,-354.7"/>
<text text-anchor="start" x="268.5" y="-361.8" font-family="Helvetica,sans-Serif" font-weight="bold" font-size="16.00" fill="#000000">business_partner_notes</text>
<text text-anchor="start" x="583.9272" y="-364.3" font-family="Helvetica,sans-Serif" font-size="16.00" fill="#000000">[table]</text>
<polygon fill="none" stroke="#000000" points="263.5,-329.7 263.5,-354.7 480.5,-354.7 480.5,-329.7 263.5,-329.7"/>
<image xlink:href="../../images/primaryKeys.png" width="11px" height="12px" preserveAspectRatio="xMinYMin meet" x="268.5" y="-348.2"/>
<text text-anchor="start" x="283.5" y="-333.8" font-family="Helvetica,sans-Serif" font-size="16.00" fill="#000000">id</text>
<polygon fill="none" stroke="#000000" points="480.5,-329.7 480.5,-354.7 632.5,-354.7 632.5,-329.7 480.5,-329.7"/>
<text text-anchor="start" x="483.1312" y="-337.3" font-family="Helvetica,sans-Serif" font-size="16.00" fill="#000000">integer[2000000000]</text>
<polygon fill="none" stroke="#000000" points="263.5,-304.7 263.5,-329.7 480.5,-329.7 480.5,-304.7 263.5,-304.7"/>
<text text-anchor="start" x="283.5" y="-308.8" font-family="Helvetica,sans-Serif" font-size="16.00" fill="#000000">note</text>
<polygon fill="none" stroke="#000000" points="480.5,-304.7 480.5,-329.7 632.5,-329.7 632.5,-304.7 480.5,-304.7"/>
<text text-anchor="start" x="483.5" y="-312.3" font-family="Helvetica,sans-Serif" font-size="16.00" fill="#000000">text[2000000000]</text>
<polygon fill="none" stroke="#000000" points="263.5,-279.7 263.5,-304.7 480.5,-304.7 480.5,-279.7 263.5,-279.7"/>
<text text-anchor="start" x="283.5" y="-283.8" font-family="Helvetica,sans-Serif" font-size="16.00" fill="#000000">user_id</text>
<polygon fill="none" stroke="#000000" points="480.5,-279.7 480.5,-304.7 632.5,-304.7 632.5,-279.7 480.5,-279.7"/>
<text text-anchor="start" x="483.1312" y="-287.3" font-family="Helvetica,sans-Serif" font-size="16.00" fill="#000000">integer[2000000000]</text>
<polygon fill="#ffffff" stroke="transparent" points="263.5,-254.7 263.5,-279.7 480.5,-279.7 480.5,-254.7 263.5,-254.7"/>
<polygon fill="none" stroke="#000000" points="263.5,-254.7 263.5,-279.7 480.5,-279.7 480.5,-254.7 263.5,-254.7"/>
<image xlink:href="../../images/foreignKeys.png" width="11px" height="12px" preserveAspectRatio="xMinYMin meet" x="268.5" y="-273.2"/>
<text text-anchor="start" x="283.5" y="-258.8" font-family="Helvetica,sans-Serif" font-size="16.00" fill="#000000">business_partner_id</text>
<polygon fill="none" stroke="#000000" points="480.5,-254.7 480.5,-279.7 632.5,-279.7 632.5,-254.7 480.5,-254.7"/>
<text text-anchor="start" x="483.1312" y="-262.3" font-family="Helvetica,sans-Serif" font-size="16.00" fill="#000000">integer[2000000000]</text>
<polygon fill="none" stroke="#000000" points="263.5,-229.7 263.5,-254.7 480.5,-254.7 480.5,-229.7 263.5,-229.7"/>
<text text-anchor="start" x="283.5" y="-233.8" font-family="Helvetica,sans-Serif" font-size="16.00" fill="#000000">inserted_at</text>
<polygon fill="none" stroke="#000000" points="480.5,-229.7 480.5,-254.7 632.5,-254.7 632.5,-229.7 480.5,-229.7"/>
<text text-anchor="start" x="483.5" y="-237.3" font-family="Helvetica,sans-Serif" font-size="16.00" fill="#000000">text[2000000000]</text>
<polygon fill="none" stroke="#000000" points="263.5,-204.7 263.5,-229.7 480.5,-229.7 480.5,-204.7 263.5,-204.7"/>
<text text-anchor="start" x="283.5" y="-208.8" font-family="Helvetica,sans-Serif" font-size="16.00" fill="#000000">updated_at</text>
<polygon fill="none" stroke="#000000" points="480.5,-204.7 480.5,-229.7 632.5,-229.7 632.5,-204.7 480.5,-204.7"/>
<text text-anchor="start" x="483.5" y="-212.3" font-family="Helvetica,sans-Serif" font-size="16.00" fill="#000000">text[2000000000]</text>
<polygon fill="#ffffff" stroke="transparent" points="263.5,-179.7 263.5,-204.7 359.5,-204.7 359.5,-179.7 263.5,-179.7"/>
<polygon fill="none" stroke="#000000" points="263.5,-179.7 263.5,-204.7 359.5,-204.7 359.5,-179.7 263.5,-179.7"/>
<text text-anchor="start" x="266.5" y="-187.3" font-family="Helvetica,sans-Serif" font-size="16.00" fill="#000000">&lt; 1</text>
<polygon fill="#ffffff" stroke="transparent" points="359.5,-179.7 359.5,-204.7 480.5,-204.7 480.5,-179.7 359.5,-179.7"/>
<polygon fill="none" stroke="#000000" points="359.5,-179.7 359.5,-204.7 480.5,-204.7 480.5,-179.7 359.5,-179.7"/>
<text text-anchor="start" x="430.388" y="-187.3" font-family="Helvetica,sans-Serif" font-size="16.00" fill="#000000">0 rows</text>
<polygon fill="#ffffff" stroke="transparent" points="480.5,-179.7 480.5,-204.7 632.5,-204.7 632.5,-179.7 480.5,-179.7"/>
<polygon fill="none" stroke="#000000" points="480.5,-179.7 480.5,-204.7 632.5,-204.7 632.5,-179.7 480.5,-179.7"/>
<text text-anchor="start" x="606.8168" y="-187.3" font-family="Helvetica,sans-Serif" font-size="16.00" fill="#000000">0 &gt;</text>
<polygon fill="none" stroke="#000000" stroke-width="2" points="262,-178.7 262,-384.7 633,-384.7 633,-178.7 262,-178.7"/>
</a>
</g>
</g>
<!-- business_partners -->
<g id="node2" class="node">
<title>business_partners</title>
<g id="a_node2"><a xlink:href="../../tables/business_partners.html" xlink:title="business_partners" target="_top">
<polygon fill="#ffffff" stroke="transparent" points="8,-71.2 8,-194.2 212,-194.2 212,-71.2 8,-71.2"/>
<polygon fill="#f5f5f5" stroke="transparent" points="8,-164.7 8,-193.7 212,-193.7 212,-164.7 8,-164.7"/>
<polygon fill="none" stroke="#000000" points="8,-164.7 8,-193.7 212,-193.7 212,-164.7 8,-164.7"/>
<text text-anchor="start" x="13" y="-171.8" font-family="Helvetica,sans-Serif" font-weight="bold" font-size="16.00" fill="#000000">business_partners</text>
<text text-anchor="start" x="163.7136" y="-174.3" font-family="Helvetica,sans-Serif" font-size="16.00" fill="#000000">[table]</text>
<polygon fill="none" stroke="#000000" points="8,-142.7 8,-164.7 212,-164.7 212,-142.7 8,-142.7"/>
<image xlink:href="../../images/primaryKeys.png" width="11px" height="12px" preserveAspectRatio="xMinYMin meet" x="13" y="-159.7"/>
<text text-anchor="start" x="44" y="-145.3" font-family="Helvetica,sans-Serif" font-size="16.00" fill="#000000">id</text>
<polygon fill="#ffffff" stroke="transparent" points="8,-120.7 8,-142.7 212,-142.7 212,-120.7 8,-120.7"/>
<polygon fill="none" stroke="#000000" points="8,-120.7 8,-142.7 212,-142.7 212,-120.7 8,-120.7"/>
<text text-anchor="start" x="44" y="-123.3" font-family="Helvetica,sans-Serif" font-size="16.00" fill="#000000">name</text>
<polygon fill="none" stroke="#000000" points="8,-95.7 8,-120.7 212,-120.7 212,-95.7 8,-95.7"/>
<text text-anchor="start" x="11" y="-103.3" font-family="Helvetica,sans-Serif" font-size="16.00" fill="#000000">...</text>
<polygon fill="#ffffff" stroke="transparent" points="8,-70.7 8,-95.7 76,-95.7 76,-70.7 8,-70.7"/>
<polygon fill="none" stroke="#000000" points="8,-70.7 8,-95.7 76,-95.7 76,-70.7 8,-70.7"/>
<text text-anchor="start" x="11" y="-78.3" font-family="Helvetica,sans-Serif" font-size="16.00" fill="#000000"> &#160;</text>
<polygon fill="#ffffff" stroke="transparent" points="76,-70.7 76,-95.7 156,-95.7 156,-70.7 76,-70.7"/>
<polygon fill="none" stroke="#000000" points="76,-70.7 76,-95.7 156,-95.7 156,-70.7 76,-70.7"/>
<text text-anchor="start" x="105.888" y="-78.3" font-family="Helvetica,sans-Serif" font-size="16.00" fill="#000000">0 rows</text>
<polygon fill="#ffffff" stroke="transparent" points="156,-70.7 156,-95.7 212,-95.7 212,-70.7 156,-70.7"/>
<polygon fill="none" stroke="#000000" points="156,-70.7 156,-95.7 212,-95.7 212,-70.7 156,-70.7"/>
<text text-anchor="start" x="186.3168" y="-78.3" font-family="Helvetica,sans-Serif" font-size="16.00" fill="#000000">3 &gt;</text>
</a>
</g>
</g>
<!-- business_partner_notes&#45;&gt;business_partners -->
<g id="edge1" class="edge">
<title>business_partner_notes:w&#45;&gt;business_partners:e</title>
<path fill="none" stroke="#000000" d="M249.1856,-262.9403C219.8241,-243.3331 261.1555,-153.7 212,-153.7"/>
<polygon fill="#000000" stroke="#000000" points="255.7624,-264.6677 262.5855,-270.1819 259.6312,-265.6838 263.5,-266.7 263.5,-266.7 263.5,-266.7 259.6312,-265.6838 264.4145,-263.2181 255.7624,-264.6677 255.7624,-264.6677"/>
<ellipse fill="none" stroke="#000000" cx="252.6674" cy="-263.8547" rx="3.2" ry="3.2"/>
</g>
<!-- projects -->
<g id="node3" class="node">
<title>projects</title>
<g id="a_node3"><a xlink:href="../../tables/projects.html" xlink:title="projects" target="_top">
<polygon fill="#ffffff" stroke="transparent" points="388,-50.2 388,-129.2 507,-129.2 507,-50.2 388,-50.2"/>
<polygon fill="#f5f5f5" stroke="transparent" points="388.5,-99.7 388.5,-128.7 507.5,-128.7 507.5,-99.7 388.5,-99.7"/>
<polygon fill="none" stroke="#000000" points="388.5,-99.7 388.5,-128.7 507.5,-128.7 507.5,-99.7 388.5,-99.7"/>
<text text-anchor="start" x="393.5" y="-106.8" font-family="Helvetica,sans-Serif" font-weight="bold" font-size="16.00" fill="#000000">projects</text>
<text text-anchor="start" x="459.2136" y="-109.3" font-family="Helvetica,sans-Serif" font-size="16.00" fill="#000000">[table]</text>
<polygon fill="none" stroke="#000000" points="388.5,-74.7 388.5,-99.7 507.5,-99.7 507.5,-74.7 388.5,-74.7"/>
<text text-anchor="start" x="391.5" y="-82.3" font-family="Helvetica,sans-Serif" font-size="16.00" fill="#000000">...</text>
<polygon fill="#ffffff" stroke="transparent" points="388.5,-49.7 388.5,-74.7 421.5,-74.7 421.5,-49.7 388.5,-49.7"/>
<polygon fill="none" stroke="#000000" points="388.5,-49.7 388.5,-74.7 421.5,-74.7 421.5,-49.7 388.5,-49.7"/>
<text text-anchor="start" x="391.5" y="-57.3" font-family="Helvetica,sans-Serif" font-size="16.00" fill="#000000">&lt; 1</text>
<polygon fill="#ffffff" stroke="transparent" points="421.5,-49.7 421.5,-74.7 476.5,-74.7 476.5,-49.7 421.5,-49.7"/>
<polygon fill="none" stroke="#000000" points="421.5,-49.7 421.5,-74.7 476.5,-74.7 476.5,-49.7 421.5,-49.7"/>
<text text-anchor="start" x="426.388" y="-57.3" font-family="Helvetica,sans-Serif" font-size="16.00" fill="#000000">0 rows</text>
<polygon fill="#ffffff" stroke="transparent" points="476.5,-49.7 476.5,-74.7 507.5,-74.7 507.5,-49.7 476.5,-49.7"/>
<polygon fill="none" stroke="#000000" points="476.5,-49.7 476.5,-74.7 507.5,-74.7 507.5,-49.7 476.5,-49.7"/>
<text text-anchor="start" x="481.8168" y="-57.3" font-family="Helvetica,sans-Serif" font-size="16.00" fill="#000000">3 &gt;</text>
</a>
</g>
</g>
<!-- projects&#45;&gt;business_partners -->
<g id="edge2" class="edge">
<title>projects:w&#45;&gt;business_partners:e</title>
<path fill="none" stroke="#000000" d="M373.956,-88.7052C327.9197,-99.8532 249.6103,-153.7 212,-153.7"/>
<polygon fill="#000000" stroke="#000000" points="380.575,-87.7927 388.9917,-90.2663 384.5375,-87.2463 388.5,-86.7 388.5,-86.7 388.5,-86.7 384.5375,-87.2463 388.0083,-83.1337 380.575,-87.7927 380.575,-87.7927"/>
<ellipse fill="none" stroke="#000000" cx="377.405" cy="-88.2297" rx="3.2" ry="3.2"/>
</g>
<!-- timers -->
<g id="node4" class="node">
<title>timers</title>
<g id="a_node4"><a xlink:href="../../tables/timers.html" xlink:title="timers" target="_top">
<polygon fill="#ffffff" stroke="transparent" points="683,-83.2 683,-162.2 792,-162.2 792,-83.2 683,-83.2"/>
<polygon fill="#f5f5f5" stroke="transparent" points="683.5,-132.7 683.5,-161.7 792.5,-161.7 792.5,-132.7 683.5,-132.7"/>
<polygon fill="none" stroke="#000000" points="683.5,-132.7 683.5,-161.7 792.5,-161.7 792.5,-132.7 683.5,-132.7"/>
<text text-anchor="start" x="688.5" y="-139.8" font-family="Helvetica,sans-Serif" font-weight="bold" font-size="16.00" fill="#000000">timers</text>
<text text-anchor="start" x="743.9272" y="-142.3" font-family="Helvetica,sans-Serif" font-size="16.00" fill="#000000">[table]</text>
<polygon fill="none" stroke="#000000" points="683.5,-107.7 683.5,-132.7 792.5,-132.7 792.5,-107.7 683.5,-107.7"/>
<text text-anchor="start" x="686.5" y="-115.3" font-family="Helvetica,sans-Serif" font-size="16.00" fill="#000000">...</text>
<polygon fill="#ffffff" stroke="transparent" points="683.5,-82.7 683.5,-107.7 711.5,-107.7 711.5,-82.7 683.5,-82.7"/>
<polygon fill="none" stroke="#000000" points="683.5,-82.7 683.5,-107.7 711.5,-107.7 711.5,-82.7 683.5,-82.7"/>
<text text-anchor="start" x="686.1584" y="-90.3" font-family="Helvetica,sans-Serif" font-size="16.00" fill="#000000">&lt; 3</text>
<polygon fill="#ffffff" stroke="transparent" points="711.5,-82.7 711.5,-107.7 764.5,-107.7 764.5,-82.7 711.5,-82.7"/>
<polygon fill="none" stroke="#000000" points="711.5,-82.7 711.5,-107.7 764.5,-107.7 764.5,-82.7 711.5,-82.7"/>
<text text-anchor="start" x="714.444" y="-90.3" font-family="Helvetica,sans-Serif" font-size="16.00" fill="#000000">0 rows</text>
<polygon fill="#ffffff" stroke="transparent" points="764.5,-82.7 764.5,-107.7 792.5,-107.7 792.5,-82.7 764.5,-82.7"/>
<polygon fill="none" stroke="#000000" points="764.5,-82.7 764.5,-107.7 792.5,-107.7 792.5,-82.7 764.5,-82.7"/>
<text text-anchor="start" x="767.1584" y="-90.3" font-family="Helvetica,sans-Serif" font-size="16.00" fill="#000000">2 &gt;</text>
</a>
</g>
</g>
<!-- timers&#45;&gt;business_partners -->
<g id="edge3" class="edge">
<title>timers:w&#45;&gt;business_partners:e</title>
<path fill="none" stroke="#000000" d="M669.3803,-123.0337C660.6957,-127.7737 655.9808,-136.2666 642,-139.7 456.3053,-185.3032 403.2124,-153.7 212,-153.7"/>
<polygon fill="#000000" stroke="#000000" points="675.7141,-121.5383 684.3272,-123.2037 679.607,-120.6192 683.5,-119.7 683.5,-119.7 683.5,-119.7 679.607,-120.6192 682.6728,-116.1963 675.7141,-121.5383 675.7141,-121.5383"/>
<ellipse fill="none" stroke="#000000" cx="672.5997" cy="-122.2736" rx="3.2" ry="3.2"/>
</g>
<!-- timers&#45;&gt;projects -->
<g id="edge4" class="edge">
<title>timers:w&#45;&gt;projects:e</title>
<path fill="none" stroke="#000000" d="M668.8599,-119.3064C601.4846,-115.5832 581.9558,-86.7 507.5,-86.7"/>
<polygon fill="#000000" stroke="#000000" points="675.5029,-119.4849 683.4032,-123.2987 679.5014,-119.5925 683.5,-119.7 683.5,-119.7 683.5,-119.7 679.5014,-119.5925 683.5968,-116.1013 675.5029,-119.4849 675.5029,-119.4849"/>
<ellipse fill="none" stroke="#000000" cx="672.304" cy="-119.3989" rx="3.2" ry="3.2"/>
</g>
</g>
</svg>
