<?xml version="1.0" encoding="UTF-8" standalone="no"?>
<!DOCTYPE svg PUBLIC "-//W3C//DTD SVG 1.1//EN"
 "http://www.w3.org/Graphics/SVG/1.1/DTD/svg11.dtd">
<!-- Generated by graphviz version 2.40.1 (20161225.0304)
 -->
<!-- Title: oneDegreeRelationshipsDiagram Pages: 1 -->
<svg width="650pt" height="270pt"
 viewBox="0.00 0.00 650.00 270.20" xmlns="http://www.w3.org/2000/svg" xmlns:xlink="http://www.w3.org/1999/xlink">
<g id="graph0" class="graph" transform="scale(1 1) rotate(0) translate(4 266.2)">
<title>oneDegreeRelationshipsDiagram</title>
<polygon fill="#ffffff" stroke="transparent" points="-4,4 -4,-266.2 646,-266.2 646,4 -4,4"/>
<text text-anchor="middle" x="101.8088" y="-8.8" font-family="Helvetica,sans-Serif" font-size="16.00" fill="#000000">Generated by SchemaSpy</text>
<!-- business_partner_notes -->
<g id="node1" class="node">
<title>business_partner_notes</title>
<g id="a_node1"><a xlink:href="../../tables/business_partner_notes.html" xlink:title="business_partner_notes" target="_top">
<polygon fill="#ffffff" stroke="transparent" points="261,-50.2 261,-258.2 634,-258.2 634,-50.2 261,-50.2"/>
<polygon fill="#f5f5f5" stroke="transparent" points="263.5,-227.2 263.5,-256.2 632.5,-256.2 632.5,-227.2 263.5,-227.2"/>
<polygon fill="none" stroke="#000000" points="263.5,-227.2 263.5,-256.2 632.5,-256.2 632.5,-227.2 263.5,-227.2"/>
<text text-anchor="start" x="268.5" y="-234.3" font-family="Helvetica,sans-Serif" font-weight="bold" font-size="16.00" fill="#000000">business_partner_notes</text>
<text text-anchor="start" x="583.9272" y="-236.8" font-family="Helvetica,sans-Serif" font-size="16.00" fill="#000000">[table]</text>
<polygon fill="none" stroke="#000000" points="263.5,-202.2 263.5,-227.2 480.5,-227.2 480.5,-202.2 263.5,-202.2"/>
<image xlink:href="../../images/primaryKeys.png" width="11px" height="12px" preserveAspectRatio="xMinYMin meet" x="268.5" y="-220.7"/>
<text text-anchor="start" x="283.5" y="-206.3" font-family="Helvetica,sans-Serif" font-size="16.00" fill="#000000">id</text>
<polygon fill="none" stroke="#000000" points="480.5,-202.2 480.5,-227.2 632.5,-227.2 632.5,-202.2 480.5,-202.2"/>
<text text-anchor="start" x="483.1312" y="-209.8" font-family="Helvetica,sans-Serif" font-size="16.00" fill="#000000">integer[2000000000]</text>
<polygon fill="none" stroke="#000000" points="263.5,-177.2 263.5,-202.2 480.5,-202.2 480.5,-177.2 263.5,-177.2"/>
<text text-anchor="start" x="283.5" y="-181.3" font-family="Helvetica,sans-Serif" font-size="16.00" fill="#000000">note</text>
<polygon fill="none" stroke="#000000" points="480.5,-177.2 480.5,-202.2 632.5,-202.2 632.5,-177.2 480.5,-177.2"/>
<text text-anchor="start" x="483.5" y="-184.8" font-family="Helvetica,sans-Serif" font-size="16.00" fill="#000000">text[2000000000]</text>
<polygon fill="none" stroke="#000000" points="263.5,-152.2 263.5,-177.2 480.5,-177.2 480.5,-152.2 263.5,-152.2"/>
<text text-anchor="start" x="283.5" y="-156.3" font-family="Helvetica,sans-Serif" font-size="16.00" fill="#000000">user_id</text>
<polygon fill="none" stroke="#000000" points="480.5,-152.2 480.5,-177.2 632.5,-177.2 632.5,-152.2 480.5,-152.2"/>
<text text-anchor="start" x="483.1312" y="-159.8" font-family="Helvetica,sans-Serif" font-size="16.00" fill="#000000">integer[2000000000]</text>
<polygon fill="#ffffff" stroke="transparent" points="263.5,-127.2 263.5,-152.2 480.5,-152.2 480.5,-127.2 263.5,-127.2"/>
<polygon fill="none" stroke="#000000" points="263.5,-127.2 263.5,-152.2 480.5,-152.2 480.5,-127.2 263.5,-127.2"/>
<image xlink:href="../../images/foreignKeys.png" width="11px" height="12px" preserveAspectRatio="xMinYMin meet" x="268.5" y="-145.7"/>
<text text-anchor="start" x="283.5" y="-131.3" font-family="Helvetica,sans-Serif" font-size="16.00" fill="#000000">business_partner_id</text>
<polygon fill="none" stroke="#000000" points="480.5,-127.2 480.5,-152.2 632.5,-152.2 632.5,-127.2 480.5,-127.2"/>
<text text-anchor="start" x="483.1312" y="-134.8" font-family="Helvetica,sans-Serif" font-size="16.00" fill="#000000">integer[2000000000]</text>
<polygon fill="none" stroke="#000000" points="263.5,-102.2 263.5,-127.2 480.5,-127.2 480.5,-102.2 263.5,-102.2"/>
<text text-anchor="start" x="283.5" y="-106.3" font-family="Helvetica,sans-Serif" font-size="16.00" fill="#000000">inserted_at</text>
<polygon fill="none" stroke="#000000" points="480.5,-102.2 480.5,-127.2 632.5,-127.2 632.5,-102.2 480.5,-102.2"/>
<text text-anchor="start" x="483.5" y="-109.8" font-family="Helvetica,sans-Serif" font-size="16.00" fill="#000000">text[2000000000]</text>
<polygon fill="none" stroke="#000000" points="263.5,-77.2 263.5,-102.2 480.5,-102.2 480.5,-77.2 263.5,-77.2"/>
<text text-anchor="start" x="283.5" y="-81.3" font-family="Helvetica,sans-Serif" font-size="16.00" fill="#000000">updated_at</text>
<polygon fill="none" stroke="#000000" points="480.5,-77.2 480.5,-102.2 632.5,-102.2 632.5,-77.2 480.5,-77.2"/>
<text text-anchor="start" x="483.5" y="-84.8" font-family="Helvetica,sans-Serif" font-size="16.00" fill="#000000">text[2000000000]</text>
<polygon fill="#ffffff" stroke="transparent" points="263.5,-52.2 263.5,-77.2 359.5,-77.2 359.5,-52.2 263.5,-52.2"/>
<polygon fill="none" stroke="#000000" points="263.5,-52.2 263.5,-77.2 359.5,-77.2 359.5,-52.2 263.5,-52.2"/>
<text text-anchor="start" x="266.5" y="-59.8" font-family="Helvetica,sans-Serif" font-size="16.00" fill="#000000">&lt; 1</text>
<polygon fill="#ffffff" stroke="transparent" points="359.5,-52.2 359.5,-77.2 480.5,-77.2 480.5,-52.2 359.5,-52.2"/>
<polygon fill="none" stroke="#000000" points="359.5,-52.2 359.5,-77.2 480.5,-77.2 480.5,-52.2 359.5,-52.2"/>
<text text-anchor="start" x="430.388" y="-59.8" font-family="Helvetica,sans-Serif" font-size="16.00" fill="#000000">0 rows</text>
<polygon fill="#ffffff" stroke="transparent" points="480.5,-52.2 480.5,-77.2 632.5,-77.2 632.5,-52.2 480.5,-52.2"/>
<polygon fill="none" stroke="#000000" points="480.5,-52.2 480.5,-77.2 632.5,-77.2 632.5,-52.2 480.5,-52.2"/>
<text text-anchor="start" x="606.8168" y="-59.8" font-family="Helvetica,sans-Serif" font-size="16.00" fill="#000000">0 &gt;</text>
<polygon fill="none" stroke="#000000" stroke-width="2" points="262,-51.2 262,-257.2 633,-257.2 633,-51.2 262,-51.2"/>
</a>
</g>
</g>
<!-- business_partners -->
<g id="node2" class="node">
<title>business_partners</title>
<g id="a_node2"><a xlink:href="../../tables/business_partners.html" xlink:title="business_partners" target="_top">
<polygon fill="#ffffff" stroke="transparent" points="8,-56.7 8,-179.7 212,-179.7 212,-56.7 8,-56.7"/>
<polygon fill="#f5f5f5" stroke="transparent" points="8,-150.2 8,-179.2 212,-179.2 212,-150.2 8,-150.2"/>
<polygon fill="none" stroke="#000000" points="8,-150.2 8,-179.2 212,-179.2 212,-150.2 8,-150.2"/>
<text text-anchor="start" x="13" y="-157.3" font-family="Helvetica,sans-Serif" font-weight="bold" font-size="16.00" fill="#000000">business_partners</text>
<text text-anchor="start" x="163.7136" y="-159.8" font-family="Helvetica,sans-Serif" font-size="16.00" fill="#000000">[table]</text>
<polygon fill="none" stroke="#000000" points="8,-128.2 8,-150.2 212,-150.2 212,-128.2 8,-128.2"/>
<image xlink:href="../../images/primaryKeys.png" width="11px" height="12px" preserveAspectRatio="xMinYMin meet" x="13" y="-145.2"/>
<text text-anchor="start" x="44" y="-130.8" font-family="Helvetica,sans-Serif" font-size="16.00" fill="#000000">id</text>
<polygon fill="#ffffff" stroke="transparent" points="8,-106.2 8,-128.2 212,-128.2 212,-106.2 8,-106.2"/>
<polygon fill="none" stroke="#000000" points="8,-106.2 8,-128.2 212,-128.2 212,-106.2 8,-106.2"/>
<text text-anchor="start" x="44" y="-108.8" font-family="Helvetica,sans-Serif" font-size="16.00" fill="#000000">name</text>
<polygon fill="none" stroke="#000000" points="8,-81.2 8,-106.2 212,-106.2 212,-81.2 8,-81.2"/>
<text text-anchor="start" x="11" y="-88.8" font-family="Helvetica,sans-Serif" font-size="16.00" fill="#000000">...</text>
<polygon fill="#ffffff" stroke="transparent" points="8,-56.2 8,-81.2 76,-81.2 76,-56.2 8,-56.2"/>
<polygon fill="none" stroke="#000000" points="8,-56.2 8,-81.2 76,-81.2 76,-56.2 8,-56.2"/>
<text text-anchor="start" x="11" y="-63.8" font-family="Helvetica,sans-Serif" font-size="16.00" fill="#000000"> &#160;</text>
<polygon fill="#ffffff" stroke="transparent" points="76,-56.2 76,-81.2 156,-81.2 156,-56.2 76,-56.2"/>
<polygon fill="none" stroke="#000000" points="76,-56.2 76,-81.2 156,-81.2 156,-56.2 76,-56.2"/>
<text text-anchor="start" x="105.888" y="-63.8" font-family="Helvetica,sans-Serif" font-size="16.00" fill="#000000">0 rows</text>
<polygon fill="#ffffff" stroke="transparent" points="156,-56.2 156,-81.2 212,-81.2 212,-56.2 156,-56.2"/>
<polygon fill="none" stroke="#000000" points="156,-56.2 156,-81.2 212,-81.2 212,-56.2 156,-56.2"/>
<text text-anchor="start" x="186.3168" y="-63.8" font-family="Helvetica,sans-Serif" font-size="16.00" fill="#000000">3 &gt;</text>
</a>
</g>
</g>
<!-- business_partner_notes&#45;&gt;business_partners -->
<g id="edge1" class="edge">
<title>business_partner_notes:w&#45;&gt;business_partners:e</title>
<path fill="none" stroke="#000000" d="M249.0156,-139.2C236.6771,-139.2 229.1667,-139.2 212,-139.2"/>
<polygon fill="#000000" stroke="#000000" points="255.5,-139.2001 263.5,-142.8 259.5,-139.2 263.5,-139.2 263.5,-139.2 263.5,-139.2 259.5,-139.2 263.5,-135.6 255.5,-139.2001 255.5,-139.2001"/>
<ellipse fill="none" stroke="#000000" cx="252.3" cy="-139.2001" rx="3.2" ry="3.2"/>
</g>
</g>
</svg>
