<?xml version="1.0" encoding="UTF-8" standalone="no"?>
<!DOCTYPE svg PUBLIC "-//W3C//DTD SVG 1.1//EN"
 "http://www.w3.org/Graphics/SVG/1.1/DTD/svg11.dtd">
<!-- Generated by graphviz version 2.40.1 (20161225.0304)
 -->
<!-- Title: oneDegreeRelationshipsDiagram Pages: 1 -->
<svg width="967pt" height="475pt"
 viewBox="0.00 0.00 967.00 474.70" xmlns="http://www.w3.org/2000/svg" xmlns:xlink="http://www.w3.org/1999/xlink">
<g id="graph0" class="graph" transform="scale(1 1) rotate(0) translate(4 470.7)">
<title>oneDegreeRelationshipsDiagram</title>
<polygon fill="#ffffff" stroke="transparent" points="-4,4 -4,-470.7 963,-470.7 963,4 -4,4"/>
<text text-anchor="middle" x="101.8088" y="-8.8" font-family="Helvetica,sans-Serif" font-size="16.00" fill="#000000">Generated by SchemaSpy</text>
<!-- business_partner_notes -->
<g id="node1" class="node">
<title>business_partner_notes</title>
<g id="a_node1"><a xlink:href="../../tables/business_partner_notes.html" xlink:title="business_partner_notes" target="_top">
<polygon fill="#ffffff" stroke="transparent" points="402.5,-339.7 402.5,-462.7 651.5,-462.7 651.5,-339.7 402.5,-339.7"/>
<polygon fill="#f5f5f5" stroke="transparent" points="403,-433.2 403,-462.2 652,-462.2 652,-433.2 403,-433.2"/>
<polygon fill="none" stroke="#000000" points="403,-433.2 403,-462.2 652,-462.2 652,-433.2 403,-433.2"/>
<text text-anchor="start" x="408" y="-440.3" font-family="Helvetica,sans-Serif" font-weight="bold" font-size="16.00" fill="#000000">business_partner_notes</text>
<text text-anchor="start" x="603.7136" y="-442.8" font-family="Helvetica,sans-Serif" font-size="16.00" fill="#000000">[table]</text>
<polygon fill="none" stroke="#000000" points="403,-411.2 403,-433.2 652,-433.2 652,-411.2 403,-411.2"/>
<image xlink:href="../../images/primaryKeys.png" width="11px" height="12px" preserveAspectRatio="xMinYMin meet" x="408" y="-428.2"/>
<text text-anchor="start" x="439" y="-413.8" font-family="Helvetica,sans-Serif" font-size="16.00" fill="#000000">id</text>
<polygon fill="#ffffff" stroke="transparent" points="403,-389.2 403,-411.2 652,-411.2 652,-389.2 403,-389.2"/>
<polygon fill="none" stroke="#000000" points="403,-389.2 403,-411.2 652,-411.2 652,-389.2 403,-389.2"/>
<image xlink:href="../../images/foreignKeys.png" width="11px" height="12px" preserveAspectRatio="xMinYMin meet" x="408" y="-406.2"/>
<text text-anchor="start" x="439" y="-391.8" font-family="Helvetica,sans-Serif" font-size="16.00" fill="#000000">business_partner_id</text>
<polygon fill="none" stroke="#000000" points="403,-364.2 403,-389.2 652,-389.2 652,-364.2 403,-364.2"/>
<text text-anchor="start" x="406" y="-371.8" font-family="Helvetica,sans-Serif" font-size="16.00" fill="#000000">...</text>
<polygon fill="#ffffff" stroke="transparent" points="403,-339.2 403,-364.2 508,-364.2 508,-339.2 403,-339.2"/>
<polygon fill="none" stroke="#000000" points="403,-339.2 403,-364.2 508,-364.2 508,-339.2 403,-339.2"/>
<text text-anchor="start" x="406" y="-346.8" font-family="Helvetica,sans-Serif" font-size="16.00" fill="#000000">&lt; 1</text>
<polygon fill="#ffffff" stroke="transparent" points="508,-339.2 508,-364.2 599,-364.2 599,-339.2 508,-339.2"/>
<polygon fill="none" stroke="#000000" points="508,-339.2 508,-364.2 599,-364.2 599,-339.2 508,-339.2"/>
<text text-anchor="start" x="548.888" y="-346.8" font-family="Helvetica,sans-Serif" font-size="16.00" fill="#000000">0 rows</text>
<polygon fill="#ffffff" stroke="transparent" points="599,-339.2 599,-364.2 652,-364.2 652,-339.2 599,-339.2"/>
<polygon fill="none" stroke="#000000" points="599,-339.2 599,-364.2 652,-364.2 652,-339.2 599,-339.2"/>
<text text-anchor="start" x="640.1072" y="-346.8" font-family="Helvetica,sans-Serif" font-size="16.00" fill="#000000"> &#160;</text>
</a>
</g>
</g>
<!-- business_partners -->
<g id="node2" class="node">
<title>business_partners</title>
<g id="a_node2"><a xlink:href="../../tables/business_partners.html" xlink:title="business_partners" target="_top">
<polygon fill="#ffffff" stroke="transparent" points="8,-50.2 8,-358.2 336,-358.2 336,-50.2 8,-50.2"/>
<polygon fill="#f5f5f5" stroke="transparent" points="10,-327.2 10,-356.2 334,-356.2 334,-327.2 10,-327.2"/>
<polygon fill="none" stroke="#000000" points="10,-327.2 10,-356.2 334,-356.2 334,-327.2 10,-327.2"/>
<text text-anchor="start" x="15" y="-334.3" font-family="Helvetica,sans-Serif" font-weight="bold" font-size="16.00" fill="#000000">business_partners</text>
<text text-anchor="start" x="285.4272" y="-336.8" font-family="Helvetica,sans-Serif" font-size="16.00" fill="#000000">[table]</text>
<polygon fill="none" stroke="#000000" points="10,-302.2 10,-327.2 182,-327.2 182,-302.2 10,-302.2"/>
<image xlink:href="../../images/primaryKeys.png" width="11px" height="12px" preserveAspectRatio="xMinYMin meet" x="15" y="-320.7"/>
<text text-anchor="start" x="30" y="-306.3" font-family="Helvetica,sans-Serif" font-size="16.00" fill="#000000">id</text>
<polygon fill="none" stroke="#000000" points="182,-302.2 182,-327.2 334,-327.2 334,-302.2 182,-302.2"/>
<text text-anchor="start" x="184.6312" y="-309.8" font-family="Helvetica,sans-Serif" font-size="16.00" fill="#000000">integer[2000000000]</text>
<polygon fill="#ffffff" stroke="transparent" points="10,-277.2 10,-302.2 182,-302.2 182,-277.2 10,-277.2"/>
<polygon fill="none" stroke="#000000" points="10,-277.2 10,-302.2 182,-302.2 182,-277.2 10,-277.2"/>
<text text-anchor="start" x="30" y="-281.3" font-family="Helvetica,sans-Serif" font-size="16.00" fill="#000000">name</text>
<polygon fill="none" stroke="#000000" points="182,-277.2 182,-302.2 334,-302.2 334,-277.2 182,-277.2"/>
<text text-anchor="start" x="185" y="-284.8" font-family="Helvetica,sans-Serif" font-size="16.00" fill="#000000">text[2000000000]</text>
<polygon fill="none" stroke="#000000" points="10,-252.2 10,-277.2 182,-277.2 182,-252.2 10,-252.2"/>
<text text-anchor="start" x="30" y="-256.3" font-family="Helvetica,sans-Serif" font-size="16.00" fill="#000000">description</text>
<polygon fill="none" stroke="#000000" points="182,-252.2 182,-277.2 334,-277.2 334,-252.2 182,-252.2"/>
<text text-anchor="start" x="185" y="-259.8" font-family="Helvetica,sans-Serif" font-size="16.00" fill="#000000">text[2000000000]</text>
<polygon fill="none" stroke="#000000" points="10,-227.2 10,-252.2 182,-252.2 182,-227.2 10,-227.2"/>
<text text-anchor="start" x="30" y="-231.3" font-family="Helvetica,sans-Serif" font-size="16.00" fill="#000000">default_currency</text>
<polygon fill="none" stroke="#000000" points="182,-227.2 182,-252.2 334,-252.2 334,-227.2 182,-227.2"/>
<text text-anchor="start" x="185" y="-234.8" font-family="Helvetica,sans-Serif" font-size="16.00" fill="#000000">text[2000000000]</text>
<polygon fill="none" stroke="#000000" points="10,-202.2 10,-227.2 182,-227.2 182,-202.2 10,-202.2"/>
<text text-anchor="start" x="30" y="-206.3" font-family="Helvetica,sans-Serif" font-size="16.00" fill="#000000">customer</text>
<polygon fill="none" stroke="#000000" points="182,-202.2 182,-227.2 334,-227.2 334,-202.2 182,-202.2"/>
<text text-anchor="start" x="184.6312" y="-209.8" font-family="Helvetica,sans-Serif" font-size="16.00" fill="#000000">integer[2000000000]</text>
<polygon fill="none" stroke="#000000" points="10,-177.2 10,-202.2 182,-202.2 182,-177.2 10,-177.2"/>
<text text-anchor="start" x="30" y="-181.3" font-family="Helvetica,sans-Serif" font-size="16.00" fill="#000000">supplier</text>
<polygon fill="none" stroke="#000000" points="182,-177.2 182,-202.2 334,-202.2 334,-177.2 182,-177.2"/>
<text text-anchor="start" x="184.6312" y="-184.8" font-family="Helvetica,sans-Serif" font-size="16.00" fill="#000000">integer[2000000000]</text>
<polygon fill="none" stroke="#000000" points="10,-152.2 10,-177.2 182,-177.2 182,-152.2 10,-152.2"/>
<text text-anchor="start" x="30" y="-156.3" font-family="Helvetica,sans-Serif" font-size="16.00" fill="#000000">frozen</text>
<polygon fill="none" stroke="#000000" points="182,-152.2 182,-177.2 334,-177.2 334,-152.2 182,-152.2"/>
<text text-anchor="start" x="184.6312" y="-159.8" font-family="Helvetica,sans-Serif" font-size="16.00" fill="#000000">integer[2000000000]</text>
<polygon fill="none" stroke="#000000" points="10,-127.2 10,-152.2 182,-152.2 182,-127.2 10,-127.2"/>
<text text-anchor="start" x="30" y="-131.3" font-family="Helvetica,sans-Serif" font-size="16.00" fill="#000000">active</text>
<polygon fill="none" stroke="#000000" points="182,-127.2 182,-152.2 334,-152.2 334,-127.2 182,-127.2"/>
<text text-anchor="start" x="184.6312" y="-134.8" font-family="Helvetica,sans-Serif" font-size="16.00" fill="#000000">integer[2000000000]</text>
<polygon fill="none" stroke="#000000" points="10,-102.2 10,-127.2 182,-127.2 182,-102.2 10,-102.2"/>
<text text-anchor="start" x="30" y="-106.3" font-family="Helvetica,sans-Serif" font-size="16.00" fill="#000000">inserted_at</text>
<polygon fill="none" stroke="#000000" points="182,-102.2 182,-127.2 334,-127.2 334,-102.2 182,-102.2"/>
<text text-anchor="start" x="185" y="-109.8" font-family="Helvetica,sans-Serif" font-size="16.00" fill="#000000">text[2000000000]</text>
<polygon fill="none" stroke="#000000" points="10,-77.2 10,-102.2 182,-102.2 182,-77.2 10,-77.2"/>
<text text-anchor="start" x="30" y="-81.3" font-family="Helvetica,sans-Serif" font-size="16.00" fill="#000000">updated_at</text>
<polygon fill="none" stroke="#000000" points="182,-77.2 182,-102.2 334,-102.2 334,-77.2 182,-77.2"/>
<text text-anchor="start" x="185" y="-84.8" font-family="Helvetica,sans-Serif" font-size="16.00" fill="#000000">text[2000000000]</text>
<polygon fill="#ffffff" stroke="transparent" points="10,-52.2 10,-77.2 83,-77.2 83,-52.2 10,-52.2"/>
<polygon fill="none" stroke="#000000" points="10,-52.2 10,-77.2 83,-77.2 83,-52.2 10,-52.2"/>
<text text-anchor="start" x="13" y="-59.8" font-family="Helvetica,sans-Serif" font-size="16.00" fill="#000000">&lt; 0</text>
<polygon fill="#ffffff" stroke="transparent" points="83,-52.2 83,-77.2 182,-77.2 182,-52.2 83,-52.2"/>
<polygon fill="none" stroke="#000000" points="83,-52.2 83,-77.2 182,-77.2 182,-52.2 83,-52.2"/>
<text text-anchor="start" x="131.888" y="-59.8" font-family="Helvetica,sans-Serif" font-size="16.00" fill="#000000">0 rows</text>
<polygon fill="#ffffff" stroke="transparent" points="182,-52.2 182,-77.2 334,-77.2 334,-52.2 182,-52.2"/>
<polygon fill="none" stroke="#000000" points="182,-52.2 182,-77.2 334,-77.2 334,-52.2 182,-52.2"/>
<text text-anchor="start" x="308.3168" y="-59.8" font-family="Helvetica,sans-Serif" font-size="16.00" fill="#000000">3 &gt;</text>
<polygon fill="none" stroke="#000000" stroke-width="2" points="9,-51.2 9,-357.2 335,-357.2 335,-51.2 9,-51.2"/>
</a>
</g>
</g>
<!-- business_partner_notes&#45;&gt;business_partners -->
<g id="edge1" class="edge">
<title>business_partner_notes:w&#45;&gt;business_partners:e</title>
<path fill="none" stroke="#000000" d="M388.8171,-396.9717C359.9215,-381.4454 376.9559,-315.2 334,-315.2"/>
<polygon fill="#000000" stroke="#000000" points="395.1995,-398.4244 402.201,-403.7102 399.0998,-399.3122 403,-400.2 403,-400.2 403,-400.2 399.0998,-399.3122 403.799,-396.6898 395.1995,-398.4244 395.1995,-398.4244"/>
<ellipse fill="none" stroke="#000000" cx="392.0793" cy="-397.7142" rx="3.2" ry="3.2"/>
</g>
<!-- projects -->
<g id="node3" class="node">
<title>projects</title>
<g id="a_node3"><a xlink:href="../../tables/projects.html" xlink:title="projects" target="_top">
<polygon fill="#ffffff" stroke="transparent" points="385,-145.7 385,-290.7 669,-290.7 669,-145.7 385,-145.7"/>
<polygon fill="#f5f5f5" stroke="transparent" points="385,-261.2 385,-290.2 669,-290.2 669,-261.2 385,-261.2"/>
<polygon fill="none" stroke="#000000" points="385,-261.2 385,-290.2 669,-290.2 669,-261.2 385,-261.2"/>
<text text-anchor="start" x="390" y="-268.3" font-family="Helvetica,sans-Serif" font-weight="bold" font-size="16.00" fill="#000000">projects</text>
<text text-anchor="start" x="620.4272" y="-270.8" font-family="Helvetica,sans-Serif" font-size="16.00" fill="#000000">[table]</text>
<polygon fill="none" stroke="#000000" points="385,-239.2 385,-261.2 669,-261.2 669,-239.2 385,-239.2"/>
<image xlink:href="../../images/primaryKeys.png" width="11px" height="12px" preserveAspectRatio="xMinYMin meet" x="390" y="-256.2"/>
<text text-anchor="start" x="405" y="-241.8" font-family="Helvetica,sans-Serif" font-size="16.00" fill="#000000">id</text>
<polygon fill="#ffffff" stroke="transparent" points="385,-217.2 385,-239.2 669,-239.2 669,-217.2 385,-217.2"/>
<polygon fill="none" stroke="#000000" points="385,-217.2 385,-239.2 669,-239.2 669,-217.2 385,-217.2"/>
<text text-anchor="start" x="405" y="-219.8" font-family="Helvetica,sans-Serif" font-size="16.00" fill="#000000">name</text>
<polygon fill="none" stroke="#000000" points="385,-195.2 385,-217.2 669,-217.2 669,-195.2 385,-195.2"/>
<image xlink:href="../../images/foreignKeys.png" width="11px" height="12px" preserveAspectRatio="xMinYMin meet" x="390" y="-212.2"/>
<text text-anchor="start" x="405" y="-197.8" font-family="Helvetica,sans-Serif" font-size="16.00" fill="#000000">business_partner_id</text>
<polygon fill="none" stroke="#000000" points="385,-170.2 385,-195.2 669,-195.2 669,-170.2 385,-170.2"/>
<text text-anchor="start" x="388" y="-177.8" font-family="Helvetica,sans-Serif" font-size="16.00" fill="#000000">...</text>
<polygon fill="#ffffff" stroke="transparent" points="385,-145.2 385,-170.2 500,-170.2 500,-145.2 385,-145.2"/>
<polygon fill="none" stroke="#000000" points="385,-145.2 385,-170.2 500,-170.2 500,-145.2 385,-145.2"/>
<text text-anchor="start" x="388" y="-152.8" font-family="Helvetica,sans-Serif" font-size="16.00" fill="#000000">&lt; 1</text>
<polygon fill="#ffffff" stroke="transparent" points="500,-145.2 500,-170.2 597,-170.2 597,-145.2 500,-145.2"/>
<polygon fill="none" stroke="#000000" points="500,-145.2 500,-170.2 597,-170.2 597,-145.2 500,-145.2"/>
<text text-anchor="start" x="546.888" y="-152.8" font-family="Helvetica,sans-Serif" font-size="16.00" fill="#000000">0 rows</text>
<polygon fill="#ffffff" stroke="transparent" points="597,-145.2 597,-170.2 669,-170.2 669,-145.2 597,-145.2"/>
<polygon fill="none" stroke="#000000" points="597,-145.2 597,-170.2 669,-170.2 669,-145.2 597,-145.2"/>
<text text-anchor="start" x="643.3168" y="-152.8" font-family="Helvetica,sans-Serif" font-size="16.00" fill="#000000">3 &gt;</text>
</a>
</g>
</g>
<!-- projects&#45;&gt;business_partners -->
<g id="edge2" class="edge">
<title>projects:w&#45;&gt;business_partners:e</title>
<path fill="none" stroke="#000000" d="M370.719,-210.0794C342.7911,-229.4966 381.4261,-315.2 334,-315.2"/>
<polygon fill="#000000" stroke="#000000" points="377.2798,-208.2972 385.9437,-209.6741 381.1399,-207.2486 385,-206.2 385,-206.2 385,-206.2 381.1399,-207.2486 384.0563,-202.7259 377.2798,-208.2972 377.2798,-208.2972"/>
<ellipse fill="none" stroke="#000000" cx="374.1917" cy="-209.1361" rx="3.2" ry="3.2"/>
</g>
<!-- timers -->
<g id="node4" class="node">
<title>timers</title>
<g id="a_node4"><a xlink:href="../../tables/timers.html" xlink:title="timers" target="_top">
<polygon fill="#ffffff" stroke="transparent" points="718,-199.7 718,-388.7 951,-388.7 951,-199.7 718,-199.7"/>
<polygon fill="#f5f5f5" stroke="transparent" points="718.5,-359.2 718.5,-388.2 951.5,-388.2 951.5,-359.2 718.5,-359.2"/>
<polygon fill="none" stroke="#000000" points="718.5,-359.2 718.5,-388.2 951.5,-388.2 951.5,-359.2 718.5,-359.2"/>
<text text-anchor="start" x="723.5" y="-366.3" font-family="Helvetica,sans-Serif" font-weight="bold" font-size="16.00" fill="#000000">timers</text>
<text text-anchor="start" x="902.9272" y="-368.8" font-family="Helvetica,sans-Serif" font-size="16.00" fill="#000000">[table]</text>
<polygon fill="none" stroke="#000000" points="718.5,-337.2 718.5,-359.2 951.5,-359.2 951.5,-337.2 718.5,-337.2"/>
<image xlink:href="../../images/primaryKeys.png" width="11px" height="12px" preserveAspectRatio="xMinYMin meet" x="723.5" y="-354.2"/>
<text text-anchor="start" x="738.5" y="-339.8" font-family="Helvetica,sans-Serif" font-size="16.00" fill="#000000">id</text>
<polygon fill="#ffffff" stroke="transparent" points="718.5,-315.2 718.5,-337.2 951.5,-337.2 951.5,-315.2 718.5,-315.2"/>
<polygon fill="none" stroke="#000000" points="718.5,-315.2 718.5,-337.2 951.5,-337.2 951.5,-315.2 718.5,-315.2"/>
<text text-anchor="start" x="738.5" y="-317.8" font-family="Helvetica,sans-Serif" font-size="16.00" fill="#000000">start_stamp</text>
<polygon fill="none" stroke="#000000" points="718.5,-293.2 718.5,-315.2 951.5,-315.2 951.5,-293.2 718.5,-293.2"/>
<image xlink:href="../../images/foreignKeys.png" width="11px" height="12px" preserveAspectRatio="xMinYMin meet" x="723.5" y="-310.2"/>
<text text-anchor="start" x="738.5" y="-295.8" font-family="Helvetica,sans-Serif" font-size="16.00" fill="#000000">business_partner_id</text>
<polygon fill="none" stroke="#000000" points="718.5,-271.2 718.5,-293.2 951.5,-293.2 951.5,-271.2 718.5,-271.2"/>
<image xlink:href="../../images/foreignKeys.png" width="11px" height="12px" preserveAspectRatio="xMinYMin meet" x="723.5" y="-288.2"/>
<text text-anchor="start" x="738.5" y="-273.8" font-family="Helvetica,sans-Serif" font-size="16.00" fill="#000000">activity_type_id</text>
<polygon fill="none" stroke="#000000" points="718.5,-249.2 718.5,-271.2 951.5,-271.2 951.5,-249.2 718.5,-249.2"/>
<image xlink:href="../../images/foreignKeys.png" width="11px" height="12px" preserveAspectRatio="xMinYMin meet" x="723.5" y="-266.2"/>
<text text-anchor="start" x="738.5" y="-251.8" font-family="Helvetica,sans-Serif" font-size="16.00" fill="#000000">project_id</text>
<polygon fill="none" stroke="#000000" points="718.5,-224.2 718.5,-249.2 951.5,-249.2 951.5,-224.2 718.5,-224.2"/>
<text text-anchor="start" x="721.5" y="-231.8" font-family="Helvetica,sans-Serif" font-size="16.00" fill="#000000">...</text>
<polygon fill="#ffffff" stroke="transparent" points="718.5,-199.2 718.5,-224.2 808.5,-224.2 808.5,-199.2 718.5,-199.2"/>
<polygon fill="none" stroke="#000000" points="718.5,-199.2 718.5,-224.2 808.5,-224.2 808.5,-199.2 718.5,-199.2"/>
<text text-anchor="start" x="721.5" y="-206.8" font-family="Helvetica,sans-Serif" font-size="16.00" fill="#000000">&lt; 3</text>
<polygon fill="#ffffff" stroke="transparent" points="808.5,-199.2 808.5,-224.2 892.5,-224.2 892.5,-199.2 808.5,-199.2"/>
<polygon fill="none" stroke="#000000" points="808.5,-199.2 808.5,-224.2 892.5,-224.2 892.5,-199.2 808.5,-199.2"/>
<text text-anchor="start" x="842.388" y="-206.8" font-family="Helvetica,sans-Serif" font-size="16.00" fill="#000000">0 rows</text>
<polygon fill="#ffffff" stroke="transparent" points="892.5,-199.2 892.5,-224.2 951.5,-224.2 951.5,-199.2 892.5,-199.2"/>
<polygon fill="none" stroke="#000000" points="892.5,-199.2 892.5,-224.2 951.5,-224.2 951.5,-199.2 892.5,-199.2"/>
<text text-anchor="start" x="925.8168" y="-206.8" font-family="Helvetica,sans-Serif" font-size="16.00" fill="#000000">2 &gt;</text>
</a>
</g>
</g>
<!-- timers&#45;&gt;business_partners -->
<g id="edge3" class="edge">
<title>timers:w&#45;&gt;business_partners:e</title>
<path fill="none" stroke="#000000" d="M703.7984,-304.2278C544.9359,-304.8351 499.9502,-315.2 334,-315.2"/>
<polygon fill="#000000" stroke="#000000" points="710.5,-304.2152 718.5068,-307.8 714.5,-304.2076 718.5,-304.2 718.5,-304.2 718.5,-304.2 714.5,-304.2076 718.4932,-300.6 710.5,-304.2152 710.5,-304.2152"/>
<ellipse fill="none" stroke="#000000" cx="707.3" cy="-304.2212" rx="3.2" ry="3.2"/>
</g>
<!-- timers&#45;&gt;projects -->
<g id="edge4" class="edge">
<title>timers:w&#45;&gt;projects:e</title>
<path fill="none" stroke="#000000" d="M704.0854,-258.5487C692.4926,-255.7084 685.658,-250.2 669,-250.2"/>
<polygon fill="#000000" stroke="#000000" points="710.552,-259.2894 718.0903,-263.7766 714.526,-259.7447 718.5,-260.2 718.5,-260.2 718.5,-260.2 714.526,-259.7447 718.9097,-256.6234 710.552,-259.2894 710.552,-259.2894"/>
<ellipse fill="none" stroke="#000000" cx="707.3728" cy="-258.9252" rx="3.2" ry="3.2"/>
</g>
</g>
</svg>
