<?xml version="1.0" encoding="UTF-8" standalone="no"?>
<!DOCTYPE svg PUBLIC "-//W3C//DTD SVG 1.1//EN"
 "http://www.w3.org/Graphics/SVG/1.1/DTD/svg11.dtd">
<!-- Generated by graphviz version 2.40.1 (20161225.0304)
 -->
<!-- Title: twoDegreesRelationshipsDiagram Pages: 1 -->
<svg width="1101pt" height="413pt"
 viewBox="0.00 0.00 1101.00 413.20" xmlns="http://www.w3.org/2000/svg" xmlns:xlink="http://www.w3.org/1999/xlink">
<g id="graph0" class="graph" transform="scale(1 1) rotate(0) translate(4 409.2)">
<title>twoDegreesRelationshipsDiagram</title>
<polygon fill="#ffffff" stroke="transparent" points="-4,4 -4,-409.2 1097,-409.2 1097,4 -4,4"/>
<text text-anchor="middle" x="101.8088" y="-8.8" font-family="Helvetica,sans-Serif" font-size="16.00" fill="#000000">Generated by SchemaSpy</text>
<!-- project_notes -->
<g id="node1" class="node">
<title>project_notes</title>
<g id="a_node1"><a xlink:href="../../tables/project_notes.html" xlink:title="project_notes" target="_top">
<polygon fill="#ffffff" stroke="transparent" points="594,-322.2 594,-401.2 758,-401.2 758,-322.2 594,-322.2"/>
<polygon fill="#f5f5f5" stroke="transparent" points="594,-371.7 594,-400.7 758,-400.7 758,-371.7 594,-371.7"/>
<polygon fill="none" stroke="#000000" points="594,-371.7 594,-400.7 758,-400.7 758,-371.7 594,-371.7"/>
<text text-anchor="start" x="599" y="-378.8" font-family="Helvetica,sans-Serif" font-weight="bold" font-size="16.00" fill="#000000">project_notes</text>
<text text-anchor="start" x="709.7136" y="-381.3" font-family="Helvetica,sans-Serif" font-size="16.00" fill="#000000">[table]</text>
<polygon fill="none" stroke="#000000" points="594,-346.7 594,-371.7 758,-371.7 758,-346.7 594,-346.7"/>
<text text-anchor="start" x="597" y="-354.3" font-family="Helvetica,sans-Serif" font-size="16.00" fill="#000000">...</text>
<polygon fill="#ffffff" stroke="transparent" points="594,-321.7 594,-346.7 656,-346.7 656,-321.7 594,-321.7"/>
<polygon fill="none" stroke="#000000" points="594,-321.7 594,-346.7 656,-346.7 656,-321.7 594,-321.7"/>
<text text-anchor="start" x="597" y="-329.3" font-family="Helvetica,sans-Serif" font-size="16.00" fill="#000000">&lt; 1</text>
<polygon fill="#ffffff" stroke="transparent" points="656,-321.7 656,-346.7 726,-346.7 726,-321.7 656,-321.7"/>
<polygon fill="none" stroke="#000000" points="656,-321.7 656,-346.7 726,-346.7 726,-321.7 656,-321.7"/>
<text text-anchor="start" x="675.888" y="-329.3" font-family="Helvetica,sans-Serif" font-size="16.00" fill="#000000">0 rows</text>
<polygon fill="#ffffff" stroke="transparent" points="726,-321.7 726,-346.7 758,-346.7 758,-321.7 726,-321.7"/>
<polygon fill="none" stroke="#000000" points="726,-321.7 726,-346.7 758,-346.7 758,-321.7 726,-321.7"/>
<text text-anchor="start" x="746.1072" y="-329.3" font-family="Helvetica,sans-Serif" font-size="16.00" fill="#000000"> &#160;</text>
</a>
</g>
</g>
<!-- projects -->
<g id="node2" class="node">
<title>projects</title>
<g id="a_node2"><a xlink:href="../../tables/projects.html" xlink:title="projects" target="_top">
<polygon fill="#ffffff" stroke="transparent" points="261,-172.2 261,-317.2 545,-317.2 545,-172.2 261,-172.2"/>
<polygon fill="#f5f5f5" stroke="transparent" points="261,-287.7 261,-316.7 545,-316.7 545,-287.7 261,-287.7"/>
<polygon fill="none" stroke="#000000" points="261,-287.7 261,-316.7 545,-316.7 545,-287.7 261,-287.7"/>
<text text-anchor="start" x="266" y="-294.8" font-family="Helvetica,sans-Serif" font-weight="bold" font-size="16.00" fill="#000000">projects</text>
<text text-anchor="start" x="496.4272" y="-297.3" font-family="Helvetica,sans-Serif" font-size="16.00" fill="#000000">[table]</text>
<polygon fill="none" stroke="#000000" points="261,-265.7 261,-287.7 545,-287.7 545,-265.7 261,-265.7"/>
<image xlink:href="../../images/primaryKeys.png" width="11px" height="12px" preserveAspectRatio="xMinYMin meet" x="266" y="-282.7"/>
<text text-anchor="start" x="281" y="-268.3" font-family="Helvetica,sans-Serif" font-size="16.00" fill="#000000">id</text>
<polygon fill="#ffffff" stroke="transparent" points="261,-243.7 261,-265.7 545,-265.7 545,-243.7 261,-243.7"/>
<polygon fill="none" stroke="#000000" points="261,-243.7 261,-265.7 545,-265.7 545,-243.7 261,-243.7"/>
<text text-anchor="start" x="281" y="-246.3" font-family="Helvetica,sans-Serif" font-size="16.00" fill="#000000">name</text>
<polygon fill="none" stroke="#000000" points="261,-221.7 261,-243.7 545,-243.7 545,-221.7 261,-221.7"/>
<image xlink:href="../../images/foreignKeys.png" width="11px" height="12px" preserveAspectRatio="xMinYMin meet" x="266" y="-238.7"/>
<text text-anchor="start" x="281" y="-224.3" font-family="Helvetica,sans-Serif" font-size="16.00" fill="#000000">business_partner_id</text>
<polygon fill="none" stroke="#000000" points="261,-196.7 261,-221.7 545,-221.7 545,-196.7 261,-196.7"/>
<text text-anchor="start" x="264" y="-204.3" font-family="Helvetica,sans-Serif" font-size="16.00" fill="#000000">...</text>
<polygon fill="#ffffff" stroke="transparent" points="261,-171.7 261,-196.7 376,-196.7 376,-171.7 261,-171.7"/>
<polygon fill="none" stroke="#000000" points="261,-171.7 261,-196.7 376,-196.7 376,-171.7 261,-171.7"/>
<text text-anchor="start" x="264" y="-179.3" font-family="Helvetica,sans-Serif" font-size="16.00" fill="#000000">&lt; 1</text>
<polygon fill="#ffffff" stroke="transparent" points="376,-171.7 376,-196.7 473,-196.7 473,-171.7 376,-171.7"/>
<polygon fill="none" stroke="#000000" points="376,-171.7 376,-196.7 473,-196.7 473,-171.7 376,-171.7"/>
<text text-anchor="start" x="422.888" y="-179.3" font-family="Helvetica,sans-Serif" font-size="16.00" fill="#000000">0 rows</text>
<polygon fill="#ffffff" stroke="transparent" points="473,-171.7 473,-196.7 545,-196.7 545,-171.7 473,-171.7"/>
<polygon fill="none" stroke="#000000" points="473,-171.7 473,-196.7 545,-196.7 545,-171.7 473,-171.7"/>
<text text-anchor="start" x="519.3168" y="-179.3" font-family="Helvetica,sans-Serif" font-size="16.00" fill="#000000">3 &gt;</text>
</a>
</g>
</g>
<!-- project_notes&#45;&gt;projects -->
<g id="edge1" class="edge">
<title>project_notes:w&#45;&gt;projects:e</title>
<path fill="none" stroke="#000000" d="M580.0294,-354.0564C560.288,-336.7098 581.3194,-276.7 545,-276.7"/>
<polygon fill="#000000" stroke="#000000" points="586.4084,-356.1766 592.8645,-362.1162 590.2042,-357.4383 594,-358.7 594,-358.7 594,-358.7 590.2042,-357.4383 595.1355,-355.2838 586.4084,-356.1766 586.4084,-356.1766"/>
<ellipse fill="none" stroke="#000000" cx="583.3717" cy="-355.1673" rx="3.2" ry="3.2"/>
</g>
<!-- business_partners -->
<g id="node5" class="node">
<title>business_partners</title>
<g id="a_node5"><a xlink:href="../../tables/business_partners.html" xlink:title="business_partners" target="_top">
<polygon fill="#ffffff" stroke="transparent" points="8,-133.2 8,-212.2 212,-212.2 212,-133.2 8,-133.2"/>
<polygon fill="#f5f5f5" stroke="transparent" points="8,-182.7 8,-211.7 212,-211.7 212,-182.7 8,-182.7"/>
<polygon fill="none" stroke="#000000" points="8,-182.7 8,-211.7 212,-211.7 212,-182.7 8,-182.7"/>
<text text-anchor="start" x="13" y="-189.8" font-family="Helvetica,sans-Serif" font-weight="bold" font-size="16.00" fill="#000000">business_partners</text>
<text text-anchor="start" x="163.7136" y="-192.3" font-family="Helvetica,sans-Serif" font-size="16.00" fill="#000000">[table]</text>
<polygon fill="none" stroke="#000000" points="8,-157.7 8,-182.7 212,-182.7 212,-157.7 8,-157.7"/>
<text text-anchor="start" x="11" y="-165.3" font-family="Helvetica,sans-Serif" font-size="16.00" fill="#000000">...</text>
<polygon fill="#ffffff" stroke="transparent" points="8,-132.7 8,-157.7 76,-157.7 76,-132.7 8,-132.7"/>
<polygon fill="none" stroke="#000000" points="8,-132.7 8,-157.7 76,-157.7 76,-132.7 8,-132.7"/>
<text text-anchor="start" x="11" y="-140.3" font-family="Helvetica,sans-Serif" font-size="16.00" fill="#000000"> &#160;</text>
<polygon fill="#ffffff" stroke="transparent" points="76,-132.7 76,-157.7 156,-157.7 156,-132.7 76,-132.7"/>
<polygon fill="none" stroke="#000000" points="76,-132.7 76,-157.7 156,-157.7 156,-132.7 76,-132.7"/>
<text text-anchor="start" x="105.888" y="-140.3" font-family="Helvetica,sans-Serif" font-size="16.00" fill="#000000">0 rows</text>
<polygon fill="#ffffff" stroke="transparent" points="156,-132.7 156,-157.7 212,-157.7 212,-132.7 156,-132.7"/>
<polygon fill="none" stroke="#000000" points="156,-132.7 156,-157.7 212,-157.7 212,-132.7 156,-132.7"/>
<text text-anchor="start" x="186.3168" y="-140.3" font-family="Helvetica,sans-Serif" font-size="16.00" fill="#000000">3 &gt;</text>
</a>
</g>
</g>
<!-- projects&#45;&gt;business_partners -->
<g id="edge4" class="edge">
<title>projects:w&#45;&gt;business_partners:e</title>
<path fill="none" stroke="#000000" d="M247.2151,-227.7565C231.3751,-212.9048 241.3754,-169.7 212,-169.7"/>
<polygon fill="#000000" stroke="#000000" points="253.4696,-229.9994 259.7847,-236.0887 257.2348,-231.3497 261,-232.7 261,-232.7 261,-232.7 257.2348,-231.3497 262.2153,-229.3113 253.4696,-229.9994 253.4696,-229.9994"/>
<ellipse fill="none" stroke="#000000" cx="250.4574" cy="-228.9192" rx="3.2" ry="3.2"/>
</g>
<!-- project_tags -->
<g id="node3" class="node">
<title>project_tags</title>
<g id="a_node3"><a xlink:href="../../tables/project_tags.html" xlink:title="project_tags" target="_top">
<polygon fill="#ffffff" stroke="transparent" points="807,-194.2 807,-377.2 1085,-377.2 1085,-194.2 807,-194.2"/>
<polygon fill="#f5f5f5" stroke="transparent" points="809,-345.7 809,-374.7 1083,-374.7 1083,-345.7 809,-345.7"/>
<polygon fill="none" stroke="#000000" points="809,-345.7 809,-374.7 1083,-374.7 1083,-345.7 809,-345.7"/>
<text text-anchor="start" x="814" y="-352.8" font-family="Helvetica,sans-Serif" font-weight="bold" font-size="16.00" fill="#000000">project_tags</text>
<text text-anchor="start" x="1034.4272" y="-355.3" font-family="Helvetica,sans-Serif" font-size="16.00" fill="#000000">[table]</text>
<polygon fill="none" stroke="#000000" points="809,-320.7 809,-345.7 931,-345.7 931,-320.7 809,-320.7"/>
<image xlink:href="../../images/primaryKeys.png" width="11px" height="12px" preserveAspectRatio="xMinYMin meet" x="814" y="-339.2"/>
<text text-anchor="start" x="829" y="-324.8" font-family="Helvetica,sans-Serif" font-size="16.00" fill="#000000">id</text>
<polygon fill="none" stroke="#000000" points="931,-320.7 931,-345.7 1083,-345.7 1083,-320.7 931,-320.7"/>
<text text-anchor="start" x="933.6312" y="-328.3" font-family="Helvetica,sans-Serif" font-size="16.00" fill="#000000">integer[2000000000]</text>
<polygon fill="#ffffff" stroke="transparent" points="809,-295.7 809,-320.7 931,-320.7 931,-295.7 809,-295.7"/>
<polygon fill="none" stroke="#000000" points="809,-295.7 809,-320.7 931,-320.7 931,-295.7 809,-295.7"/>
<image xlink:href="../../images/foreignKeys.png" width="11px" height="12px" preserveAspectRatio="xMinYMin meet" x="814" y="-314.2"/>
<text text-anchor="start" x="829" y="-299.8" font-family="Helvetica,sans-Serif" font-size="16.00" fill="#000000">tag_id</text>
<polygon fill="none" stroke="#000000" points="931,-295.7 931,-320.7 1083,-320.7 1083,-295.7 931,-295.7"/>
<text text-anchor="start" x="933.6312" y="-303.3" font-family="Helvetica,sans-Serif" font-size="16.00" fill="#000000">integer[2000000000]</text>
<polygon fill="#ffffff" stroke="transparent" points="809,-270.7 809,-295.7 931,-295.7 931,-270.7 809,-270.7"/>
<polygon fill="none" stroke="#000000" points="809,-270.7 809,-295.7 931,-295.7 931,-270.7 809,-270.7"/>
<image xlink:href="../../images/foreignKeys.png" width="11px" height="12px" preserveAspectRatio="xMinYMin meet" x="814" y="-289.2"/>
<text text-anchor="start" x="829" y="-274.8" font-family="Helvetica,sans-Serif" font-size="16.00" fill="#000000">project_id</text>
<polygon fill="none" stroke="#000000" points="931,-270.7 931,-295.7 1083,-295.7 1083,-270.7 931,-270.7"/>
<text text-anchor="start" x="933.6312" y="-278.3" font-family="Helvetica,sans-Serif" font-size="16.00" fill="#000000">integer[2000000000]</text>
<polygon fill="none" stroke="#000000" points="809,-245.7 809,-270.7 931,-270.7 931,-245.7 809,-245.7"/>
<text text-anchor="start" x="829" y="-249.8" font-family="Helvetica,sans-Serif" font-size="16.00" fill="#000000">inserted_at</text>
<polygon fill="none" stroke="#000000" points="931,-245.7 931,-270.7 1083,-270.7 1083,-245.7 931,-245.7"/>
<text text-anchor="start" x="934" y="-253.3" font-family="Helvetica,sans-Serif" font-size="16.00" fill="#000000">text[2000000000]</text>
<polygon fill="none" stroke="#000000" points="809,-220.7 809,-245.7 931,-245.7 931,-220.7 809,-220.7"/>
<text text-anchor="start" x="829" y="-224.8" font-family="Helvetica,sans-Serif" font-size="16.00" fill="#000000">updated_at</text>
<polygon fill="none" stroke="#000000" points="931,-220.7 931,-245.7 1083,-245.7 1083,-220.7 931,-220.7"/>
<text text-anchor="start" x="934" y="-228.3" font-family="Helvetica,sans-Serif" font-size="16.00" fill="#000000">text[2000000000]</text>
<polygon fill="#ffffff" stroke="transparent" points="809,-195.7 809,-220.7 857,-220.7 857,-195.7 809,-195.7"/>
<polygon fill="none" stroke="#000000" points="809,-195.7 809,-220.7 857,-220.7 857,-195.7 809,-195.7"/>
<text text-anchor="start" x="812" y="-203.3" font-family="Helvetica,sans-Serif" font-size="16.00" fill="#000000">&lt; 2</text>
<polygon fill="#ffffff" stroke="transparent" points="857,-195.7 857,-220.7 931,-220.7 931,-195.7 857,-195.7"/>
<polygon fill="none" stroke="#000000" points="857,-195.7 857,-220.7 931,-220.7 931,-195.7 857,-195.7"/>
<text text-anchor="start" x="880.888" y="-203.3" font-family="Helvetica,sans-Serif" font-size="16.00" fill="#000000">0 rows</text>
<polygon fill="#ffffff" stroke="transparent" points="931,-195.7 931,-220.7 1083,-220.7 1083,-195.7 931,-195.7"/>
<polygon fill="none" stroke="#000000" points="931,-195.7 931,-220.7 1083,-220.7 1083,-195.7 931,-195.7"/>
<text text-anchor="start" x="1057.3168" y="-203.3" font-family="Helvetica,sans-Serif" font-size="16.00" fill="#000000">0 &gt;</text>
<polygon fill="none" stroke="#000000" stroke-width="2" points="808,-195.2 808,-376.2 1084,-376.2 1084,-195.2 808,-195.2"/>
</a>
</g>
</g>
<!-- project_tags&#45;&gt;projects -->
<g id="edge2" class="edge">
<title>project_tags:w&#45;&gt;projects:e</title>
<path fill="none" stroke="#000000" d="M794.4062,-282.8872C785.5023,-283.1319 779.1416,-283.5472 766,-283.7 686.0054,-284.63 665.7142,-290.456 586,-283.7 567.5801,-282.1389 563.4859,-276.7 545,-276.7"/>
<polygon fill="#000000" stroke="#000000" points="801.0007,-282.8026 809.0462,-286.2997 805.0003,-282.7513 809,-282.7 809,-282.7 809,-282.7 805.0003,-282.7513 808.9538,-279.1003 801.0007,-282.8026 801.0007,-282.8026"/>
<ellipse fill="none" stroke="#000000" cx="797.8009" cy="-282.8437" rx="3.2" ry="3.2"/>
</g>
<!-- tags -->
<g id="node4" class="node">
<title>tags</title>
<g id="a_node4"><a xlink:href="../../tables/tags.html" xlink:title="tags" target="_top">
<polygon fill="#ffffff" stroke="transparent" points="620,-150.2 620,-273.2 732,-273.2 732,-150.2 620,-150.2"/>
<polygon fill="#f5f5f5" stroke="transparent" points="620,-243.7 620,-272.7 732,-272.7 732,-243.7 620,-243.7"/>
<polygon fill="none" stroke="#000000" points="620,-243.7 620,-272.7 732,-272.7 732,-243.7 620,-243.7"/>
<text text-anchor="start" x="624.8824" y="-250.8" font-family="Helvetica,sans-Serif" font-weight="bold" font-size="16.00" fill="#000000">tags</text>
<text text-anchor="start" x="683.4272" y="-253.3" font-family="Helvetica,sans-Serif" font-size="16.00" fill="#000000">[table]</text>
<polygon fill="none" stroke="#000000" points="620,-221.7 620,-243.7 732,-243.7 732,-221.7 620,-221.7"/>
<image xlink:href="../../images/primaryKeys.png" width="11px" height="12px" preserveAspectRatio="xMinYMin meet" x="625" y="-238.7"/>
<text text-anchor="start" x="640" y="-224.3" font-family="Helvetica,sans-Serif" font-size="16.00" fill="#000000">id</text>
<polygon fill="#ffffff" stroke="transparent" points="620,-199.7 620,-221.7 732,-221.7 732,-199.7 620,-199.7"/>
<polygon fill="none" stroke="#000000" points="620,-199.7 620,-221.7 732,-221.7 732,-199.7 620,-199.7"/>
<text text-anchor="start" x="640" y="-202.3" font-family="Helvetica,sans-Serif" font-size="16.00" fill="#000000">name</text>
<polygon fill="none" stroke="#000000" points="620,-174.7 620,-199.7 732,-199.7 732,-174.7 620,-174.7"/>
<text text-anchor="start" x="623" y="-182.3" font-family="Helvetica,sans-Serif" font-size="16.00" fill="#000000">...</text>
<polygon fill="#ffffff" stroke="transparent" points="620,-149.7 620,-174.7 642,-174.7 642,-149.7 620,-149.7"/>
<polygon fill="none" stroke="#000000" points="620,-149.7 620,-174.7 642,-174.7 642,-149.7 620,-149.7"/>
<text text-anchor="start" x="623" y="-157.3" font-family="Helvetica,sans-Serif" font-size="16.00" fill="#000000"> &#160;</text>
<polygon fill="#ffffff" stroke="transparent" points="642,-149.7 642,-174.7 699,-174.7 699,-149.7 642,-149.7"/>
<polygon fill="none" stroke="#000000" points="642,-149.7 642,-174.7 699,-174.7 699,-149.7 642,-149.7"/>
<text text-anchor="start" x="648.888" y="-157.3" font-family="Helvetica,sans-Serif" font-size="16.00" fill="#000000">0 rows</text>
<polygon fill="#ffffff" stroke="transparent" points="699,-149.7 699,-174.7 732,-174.7 732,-149.7 699,-149.7"/>
<polygon fill="none" stroke="#000000" points="699,-149.7 699,-174.7 732,-174.7 732,-149.7 699,-149.7"/>
<text text-anchor="start" x="706.3168" y="-157.3" font-family="Helvetica,sans-Serif" font-size="16.00" fill="#000000">2 &gt;</text>
</a>
</g>
</g>
<!-- project_tags&#45;&gt;tags -->
<g id="edge3" class="edge">
<title>project_tags:w&#45;&gt;tags:e</title>
<path fill="none" stroke="#000000" d="M794.6496,-305.8135C764.4848,-291.9312 774.4494,-232.7 732,-232.7"/>
<polygon fill="#000000" stroke="#000000" points="801.1571,-307.1224 808.2901,-312.2293 805.0785,-307.9112 809,-308.7 809,-308.7 809,-308.7 805.0785,-307.9112 809.7099,-305.1707 801.1571,-307.1224 801.1571,-307.1224"/>
<ellipse fill="none" stroke="#000000" cx="798.0199" cy="-306.4914" rx="3.2" ry="3.2"/>
</g>
<!-- timer_tags -->
<g id="node6" class="node">
<title>timer_tags</title>
<g id="a_node6"><a xlink:href="../../tables/timer_tags.html" xlink:title="timer_tags" target="_top">
<polygon fill="#ffffff" stroke="transparent" points="877,-65.2 877,-144.2 1015,-144.2 1015,-65.2 877,-65.2"/>
<polygon fill="#f5f5f5" stroke="transparent" points="877,-114.7 877,-143.7 1015,-143.7 1015,-114.7 877,-114.7"/>
<polygon fill="none" stroke="#000000" points="877,-114.7 877,-143.7 1015,-143.7 1015,-114.7 877,-114.7"/>
<text text-anchor="start" x="882" y="-121.8" font-family="Helvetica,sans-Serif" font-weight="bold" font-size="16.00" fill="#000000">timer_tags</text>
<text text-anchor="start" x="966.7136" y="-124.3" font-family="Helvetica,sans-Serif" font-size="16.00" fill="#000000">[table]</text>
<polygon fill="none" stroke="#000000" points="877,-89.7 877,-114.7 1015,-114.7 1015,-89.7 877,-89.7"/>
<text text-anchor="start" x="880" y="-97.3" font-family="Helvetica,sans-Serif" font-size="16.00" fill="#000000">...</text>
<polygon fill="#ffffff" stroke="transparent" points="877,-64.7 877,-89.7 926,-89.7 926,-64.7 877,-64.7"/>
<polygon fill="none" stroke="#000000" points="877,-64.7 877,-89.7 926,-89.7 926,-64.7 877,-64.7"/>
<text text-anchor="start" x="880" y="-72.3" font-family="Helvetica,sans-Serif" font-size="16.00" fill="#000000">&lt; 2</text>
<polygon fill="#ffffff" stroke="transparent" points="926,-64.7 926,-89.7 990,-89.7 990,-64.7 926,-64.7"/>
<polygon fill="none" stroke="#000000" points="926,-64.7 926,-89.7 990,-89.7 990,-64.7 926,-64.7"/>
<text text-anchor="start" x="939.888" y="-72.3" font-family="Helvetica,sans-Serif" font-size="16.00" fill="#000000">0 rows</text>
<polygon fill="#ffffff" stroke="transparent" points="990,-64.7 990,-89.7 1015,-89.7 1015,-64.7 990,-64.7"/>
<polygon fill="none" stroke="#000000" points="990,-64.7 990,-89.7 1015,-89.7 1015,-64.7 990,-64.7"/>
<text text-anchor="start" x="1003.1072" y="-72.3" font-family="Helvetica,sans-Serif" font-size="16.00" fill="#000000"> &#160;</text>
</a>
</g>
</g>
<!-- timer_tags&#45;&gt;tags -->
<g id="edge5" class="edge">
<title>timer_tags:w&#45;&gt;tags:e</title>
<path fill="none" stroke="#000000" d="M862.444,-103.0826C793.2018,-117.083 813.5915,-232.7 732,-232.7"/>
<polygon fill="#000000" stroke="#000000" points="869.0358,-102.4565 877.3404,-105.2839 873.0179,-102.0783 877,-101.7 877,-101.7 877,-101.7 873.0179,-102.0783 876.6596,-98.1161 869.0358,-102.4565 869.0358,-102.4565"/>
<ellipse fill="none" stroke="#000000" cx="865.8502" cy="-102.7591" rx="3.2" ry="3.2"/>
</g>
<!-- timers -->
<g id="node7" class="node">
<title>timers</title>
<g id="a_node7"><a xlink:href="../../tables/timers.html" xlink:title="timers" target="_top">
<polygon fill="#ffffff" stroke="transparent" points="621.5,-50.2 621.5,-129.2 730.5,-129.2 730.5,-50.2 621.5,-50.2"/>
<polygon fill="#f5f5f5" stroke="transparent" points="622,-99.7 622,-128.7 731,-128.7 731,-99.7 622,-99.7"/>
<polygon fill="none" stroke="#000000" points="622,-99.7 622,-128.7 731,-128.7 731,-99.7 622,-99.7"/>
<text text-anchor="start" x="627" y="-106.8" font-family="Helvetica,sans-Serif" font-weight="bold" font-size="16.00" fill="#000000">timers</text>
<text text-anchor="start" x="682.4272" y="-109.3" font-family="Helvetica,sans-Serif" font-size="16.00" fill="#000000">[table]</text>
<polygon fill="none" stroke="#000000" points="622,-74.7 622,-99.7 731,-99.7 731,-74.7 622,-74.7"/>
<text text-anchor="start" x="625" y="-82.3" font-family="Helvetica,sans-Serif" font-size="16.00" fill="#000000">...</text>
<polygon fill="#ffffff" stroke="transparent" points="622,-49.7 622,-74.7 650,-74.7 650,-49.7 622,-49.7"/>
<polygon fill="none" stroke="#000000" points="622,-49.7 622,-74.7 650,-74.7 650,-49.7 622,-49.7"/>
<text text-anchor="start" x="624.6584" y="-57.3" font-family="Helvetica,sans-Serif" font-size="16.00" fill="#000000">&lt; 3</text>
<polygon fill="#ffffff" stroke="transparent" points="650,-49.7 650,-74.7 703,-74.7 703,-49.7 650,-49.7"/>
<polygon fill="none" stroke="#000000" points="650,-49.7 650,-74.7 703,-74.7 703,-49.7 650,-49.7"/>
<text text-anchor="start" x="652.944" y="-57.3" font-family="Helvetica,sans-Serif" font-size="16.00" fill="#000000">0 rows</text>
<polygon fill="#ffffff" stroke="transparent" points="703,-49.7 703,-74.7 731,-74.7 731,-49.7 703,-49.7"/>
<polygon fill="none" stroke="#000000" points="703,-49.7 703,-74.7 731,-74.7 731,-49.7 703,-49.7"/>
<text text-anchor="start" x="705.6584" y="-57.3" font-family="Helvetica,sans-Serif" font-size="16.00" fill="#000000">2 &gt;</text>
</a>
</g>
</g>
<!-- timer_tags&#45;&gt;timers -->
<g id="edge6" class="edge">
<title>timer_tags:w&#45;&gt;timers:e</title>
<path fill="none" stroke="#000000" d="M862.5741,-101.4396C809.0383,-99.4478 791.1343,-86.7 731,-86.7"/>
<polygon fill="#000000" stroke="#000000" points="869.0013,-101.5556 876.935,-105.2994 873.0007,-101.6278 877,-101.7 877,-101.7 877,-101.7 873.0007,-101.6278 877.065,-98.1006 869.0013,-101.5556 869.0013,-101.5556"/>
<ellipse fill="none" stroke="#000000" cx="865.8018" cy="-101.4978" rx="3.2" ry="3.2"/>
</g>
<!-- timers&#45;&gt;projects -->
<g id="edge8" class="edge">
<title>timers:w&#45;&gt;projects:e</title>
<path fill="none" stroke="#000000" d="M607.5219,-88.7052C542.9076,-109.0113 630.5987,-276.7 545,-276.7"/>
<polygon fill="#000000" stroke="#000000" points="614.0756,-87.7976 622.4939,-90.266 618.0378,-87.2488 622,-86.7 622,-86.7 622,-86.7 618.0378,-87.2488 621.5061,-83.134 614.0756,-87.7976 614.0756,-87.7976"/>
<ellipse fill="none" stroke="#000000" cx="610.9059" cy="-88.2366" rx="3.2" ry="3.2"/>
</g>
<!-- timers&#45;&gt;business_partners -->
<g id="edge7" class="edge">
<title>timers:w&#45;&gt;business_partners:e</title>
<path fill="none" stroke="#000000" d="M607.6953,-89.4616C535.479,-103.8633 214.5872,-169.7 212,-169.7"/>
<polygon fill="#000000" stroke="#000000" points="614.145,-88.2165 622.6824,-90.2347 618.0725,-87.4582 622,-86.7 622,-86.7 622,-86.7 618.0725,-87.4582 621.3176,-83.1653 614.145,-88.2165 614.145,-88.2165"/>
<ellipse fill="none" stroke="#000000" cx="611.003" cy="-88.8231" rx="3.2" ry="3.2"/>
</g>
</g>
</svg>
