<?xml version="1.0" encoding="UTF-8" standalone="no"?>
<!DOCTYPE svg PUBLIC "-//W3C//DTD SVG 1.1//EN"
 "http://www.w3.org/Graphics/SVG/1.1/DTD/svg11.dtd">
<!-- Generated by graphviz version 2.40.1 (20161225.0304)
 -->
<!-- Title: oneDegreeRelationshipsDiagram Pages: 1 -->
<svg width="635pt" height="351pt"
 viewBox="0.00 0.00 635.00 351.20" xmlns="http://www.w3.org/2000/svg" xmlns:xlink="http://www.w3.org/1999/xlink">
<g id="graph0" class="graph" transform="scale(1 1) rotate(0) translate(4 347.2)">
<title>oneDegreeRelationshipsDiagram</title>
<polygon fill="#ffffff" stroke="transparent" points="-4,4 -4,-347.2 631,-347.2 631,4 -4,4"/>
<text text-anchor="middle" x="101.8088" y="-8.8" font-family="Helvetica,sans-Serif" font-size="16.00" fill="#000000">Generated by SchemaSpy</text>
<!-- project_tags -->
<g id="node1" class="node">
<title>project_tags</title>
<g id="a_node1"><a xlink:href="../../tables/project_tags.html" xlink:title="project_tags" target="_top">
<polygon fill="#ffffff" stroke="transparent" points="341,-125.2 341,-308.2 619,-308.2 619,-125.2 341,-125.2"/>
<polygon fill="#f5f5f5" stroke="transparent" points="343,-276.7 343,-305.7 617,-305.7 617,-276.7 343,-276.7"/>
<polygon fill="none" stroke="#000000" points="343,-276.7 343,-305.7 617,-305.7 617,-276.7 343,-276.7"/>
<text text-anchor="start" x="348" y="-283.8" font-family="Helvetica,sans-Serif" font-weight="bold" font-size="16.00" fill="#000000">project_tags</text>
<text text-anchor="start" x="568.4272" y="-286.3" font-family="Helvetica,sans-Serif" font-size="16.00" fill="#000000">[table]</text>
<polygon fill="none" stroke="#000000" points="343,-251.7 343,-276.7 465,-276.7 465,-251.7 343,-251.7"/>
<image xlink:href="../../images/primaryKeys.png" width="11px" height="12px" preserveAspectRatio="xMinYMin meet" x="348" y="-270.2"/>
<text text-anchor="start" x="363" y="-255.8" font-family="Helvetica,sans-Serif" font-size="16.00" fill="#000000">id</text>
<polygon fill="none" stroke="#000000" points="465,-251.7 465,-276.7 617,-276.7 617,-251.7 465,-251.7"/>
<text text-anchor="start" x="467.6312" y="-259.3" font-family="Helvetica,sans-Serif" font-size="16.00" fill="#000000">integer[2000000000]</text>
<polygon fill="#ffffff" stroke="transparent" points="343,-226.7 343,-251.7 465,-251.7 465,-226.7 343,-226.7"/>
<polygon fill="none" stroke="#000000" points="343,-226.7 343,-251.7 465,-251.7 465,-226.7 343,-226.7"/>
<image xlink:href="../../images/foreignKeys.png" width="11px" height="12px" preserveAspectRatio="xMinYMin meet" x="348" y="-245.2"/>
<text text-anchor="start" x="363" y="-230.8" font-family="Helvetica,sans-Serif" font-size="16.00" fill="#000000">tag_id</text>
<polygon fill="none" stroke="#000000" points="465,-226.7 465,-251.7 617,-251.7 617,-226.7 465,-226.7"/>
<text text-anchor="start" x="467.6312" y="-234.3" font-family="Helvetica,sans-Serif" font-size="16.00" fill="#000000">integer[2000000000]</text>
<polygon fill="#ffffff" stroke="transparent" points="343,-201.7 343,-226.7 465,-226.7 465,-201.7 343,-201.7"/>
<polygon fill="none" stroke="#000000" points="343,-201.7 343,-226.7 465,-226.7 465,-201.7 343,-201.7"/>
<image xlink:href="../../images/foreignKeys.png" width="11px" height="12px" preserveAspectRatio="xMinYMin meet" x="348" y="-220.2"/>
<text text-anchor="start" x="363" y="-205.8" font-family="Helvetica,sans-Serif" font-size="16.00" fill="#000000">project_id</text>
<polygon fill="none" stroke="#000000" points="465,-201.7 465,-226.7 617,-226.7 617,-201.7 465,-201.7"/>
<text text-anchor="start" x="467.6312" y="-209.3" font-family="Helvetica,sans-Serif" font-size="16.00" fill="#000000">integer[2000000000]</text>
<polygon fill="none" stroke="#000000" points="343,-176.7 343,-201.7 465,-201.7 465,-176.7 343,-176.7"/>
<text text-anchor="start" x="363" y="-180.8" font-family="Helvetica,sans-Serif" font-size="16.00" fill="#000000">inserted_at</text>
<polygon fill="none" stroke="#000000" points="465,-176.7 465,-201.7 617,-201.7 617,-176.7 465,-176.7"/>
<text text-anchor="start" x="468" y="-184.3" font-family="Helvetica,sans-Serif" font-size="16.00" fill="#000000">text[2000000000]</text>
<polygon fill="none" stroke="#000000" points="343,-151.7 343,-176.7 465,-176.7 465,-151.7 343,-151.7"/>
<text text-anchor="start" x="363" y="-155.8" font-family="Helvetica,sans-Serif" font-size="16.00" fill="#000000">updated_at</text>
<polygon fill="none" stroke="#000000" points="465,-151.7 465,-176.7 617,-176.7 617,-151.7 465,-151.7"/>
<text text-anchor="start" x="468" y="-159.3" font-family="Helvetica,sans-Serif" font-size="16.00" fill="#000000">text[2000000000]</text>
<polygon fill="#ffffff" stroke="transparent" points="343,-126.7 343,-151.7 391,-151.7 391,-126.7 343,-126.7"/>
<polygon fill="none" stroke="#000000" points="343,-126.7 343,-151.7 391,-151.7 391,-126.7 343,-126.7"/>
<text text-anchor="start" x="346" y="-134.3" font-family="Helvetica,sans-Serif" font-size="16.00" fill="#000000">&lt; 2</text>
<polygon fill="#ffffff" stroke="transparent" points="391,-126.7 391,-151.7 465,-151.7 465,-126.7 391,-126.7"/>
<polygon fill="none" stroke="#000000" points="391,-126.7 391,-151.7 465,-151.7 465,-126.7 391,-126.7"/>
<text text-anchor="start" x="414.888" y="-134.3" font-family="Helvetica,sans-Serif" font-size="16.00" fill="#000000">0 rows</text>
<polygon fill="#ffffff" stroke="transparent" points="465,-126.7 465,-151.7 617,-151.7 617,-126.7 465,-126.7"/>
<polygon fill="none" stroke="#000000" points="465,-126.7 465,-151.7 617,-151.7 617,-126.7 465,-126.7"/>
<text text-anchor="start" x="591.3168" y="-134.3" font-family="Helvetica,sans-Serif" font-size="16.00" fill="#000000">0 &gt;</text>
<polygon fill="none" stroke="#000000" stroke-width="2" points="342,-126.2 342,-307.2 618,-307.2 618,-126.2 342,-126.2"/>
</a>
</g>
</g>
<!-- projects -->
<g id="node2" class="node">
<title>projects</title>
<g id="a_node2"><a xlink:href="../../tables/projects.html" xlink:title="projects" target="_top">
<polygon fill="#ffffff" stroke="transparent" points="8,-50.2 8,-195.2 292,-195.2 292,-50.2 8,-50.2"/>
<polygon fill="#f5f5f5" stroke="transparent" points="8,-165.7 8,-194.7 292,-194.7 292,-165.7 8,-165.7"/>
<polygon fill="none" stroke="#000000" points="8,-165.7 8,-194.7 292,-194.7 292,-165.7 8,-165.7"/>
<text text-anchor="start" x="13" y="-172.8" font-family="Helvetica,sans-Serif" font-weight="bold" font-size="16.00" fill="#000000">projects</text>
<text text-anchor="start" x="243.4272" y="-175.3" font-family="Helvetica,sans-Serif" font-size="16.00" fill="#000000">[table]</text>
<polygon fill="none" stroke="#000000" points="8,-143.7 8,-165.7 292,-165.7 292,-143.7 8,-143.7"/>
<image xlink:href="../../images/primaryKeys.png" width="11px" height="12px" preserveAspectRatio="xMinYMin meet" x="13" y="-160.7"/>
<text text-anchor="start" x="28" y="-146.3" font-family="Helvetica,sans-Serif" font-size="16.00" fill="#000000">id</text>
<polygon fill="#ffffff" stroke="transparent" points="8,-121.7 8,-143.7 292,-143.7 292,-121.7 8,-121.7"/>
<polygon fill="none" stroke="#000000" points="8,-121.7 8,-143.7 292,-143.7 292,-121.7 8,-121.7"/>
<text text-anchor="start" x="28" y="-124.3" font-family="Helvetica,sans-Serif" font-size="16.00" fill="#000000">name</text>
<polygon fill="none" stroke="#000000" points="8,-99.7 8,-121.7 292,-121.7 292,-99.7 8,-99.7"/>
<image xlink:href="../../images/foreignKeys.png" width="11px" height="12px" preserveAspectRatio="xMinYMin meet" x="13" y="-116.7"/>
<text text-anchor="start" x="28" y="-102.3" font-family="Helvetica,sans-Serif" font-size="16.00" fill="#000000">business_partner_id</text>
<polygon fill="none" stroke="#000000" points="8,-74.7 8,-99.7 292,-99.7 292,-74.7 8,-74.7"/>
<text text-anchor="start" x="11" y="-82.3" font-family="Helvetica,sans-Serif" font-size="16.00" fill="#000000">...</text>
<polygon fill="#ffffff" stroke="transparent" points="8,-49.7 8,-74.7 123,-74.7 123,-49.7 8,-49.7"/>
<polygon fill="none" stroke="#000000" points="8,-49.7 8,-74.7 123,-74.7 123,-49.7 8,-49.7"/>
<text text-anchor="start" x="11" y="-57.3" font-family="Helvetica,sans-Serif" font-size="16.00" fill="#000000">&lt; 1</text>
<polygon fill="#ffffff" stroke="transparent" points="123,-49.7 123,-74.7 220,-74.7 220,-49.7 123,-49.7"/>
<polygon fill="none" stroke="#000000" points="123,-49.7 123,-74.7 220,-74.7 220,-49.7 123,-49.7"/>
<text text-anchor="start" x="169.888" y="-57.3" font-family="Helvetica,sans-Serif" font-size="16.00" fill="#000000">0 rows</text>
<polygon fill="#ffffff" stroke="transparent" points="220,-49.7 220,-74.7 292,-74.7 292,-49.7 220,-49.7"/>
<polygon fill="none" stroke="#000000" points="220,-49.7 220,-74.7 292,-74.7 292,-49.7 220,-49.7"/>
<text text-anchor="start" x="266.3168" y="-57.3" font-family="Helvetica,sans-Serif" font-size="16.00" fill="#000000">3 &gt;</text>
</a>
</g>
</g>
<!-- project_tags&#45;&gt;projects -->
<g id="edge1" class="edge">
<title>project_tags:w&#45;&gt;projects:e</title>
<path fill="none" stroke="#000000" d="M329.2854,-209.0704C313.072,-195.1617 320.7036,-154.7 292,-154.7"/>
<polygon fill="#000000" stroke="#000000" points="335.4202,-211.1413 341.8486,-217.1109 339.2101,-212.4206 343,-213.7 343,-213.7 343,-213.7 339.2101,-212.4206 344.1514,-210.2891 335.4202,-211.1413 335.4202,-211.1413"/>
<ellipse fill="none" stroke="#000000" cx="332.3883" cy="-210.1178" rx="3.2" ry="3.2"/>
</g>
<!-- tags -->
<g id="node3" class="node">
<title>tags</title>
<g id="a_node3"><a xlink:href="../../tables/tags.html" xlink:title="tags" target="_top">
<polygon fill="#ffffff" stroke="transparent" points="94,-216.2 94,-339.2 206,-339.2 206,-216.2 94,-216.2"/>
<polygon fill="#f5f5f5" stroke="transparent" points="94,-309.7 94,-338.7 206,-338.7 206,-309.7 94,-309.7"/>
<polygon fill="none" stroke="#000000" points="94,-309.7 94,-338.7 206,-338.7 206,-309.7 94,-309.7"/>
<text text-anchor="start" x="98.8824" y="-316.8" font-family="Helvetica,sans-Serif" font-weight="bold" font-size="16.00" fill="#000000">tags</text>
<text text-anchor="start" x="157.4272" y="-319.3" font-family="Helvetica,sans-Serif" font-size="16.00" fill="#000000">[table]</text>
<polygon fill="none" stroke="#000000" points="94,-287.7 94,-309.7 206,-309.7 206,-287.7 94,-287.7"/>
<image xlink:href="../../images/primaryKeys.png" width="11px" height="12px" preserveAspectRatio="xMinYMin meet" x="99" y="-304.7"/>
<text text-anchor="start" x="114" y="-290.3" font-family="Helvetica,sans-Serif" font-size="16.00" fill="#000000">id</text>
<polygon fill="#ffffff" stroke="transparent" points="94,-265.7 94,-287.7 206,-287.7 206,-265.7 94,-265.7"/>
<polygon fill="none" stroke="#000000" points="94,-265.7 94,-287.7 206,-287.7 206,-265.7 94,-265.7"/>
<text text-anchor="start" x="114" y="-268.3" font-family="Helvetica,sans-Serif" font-size="16.00" fill="#000000">name</text>
<polygon fill="none" stroke="#000000" points="94,-240.7 94,-265.7 206,-265.7 206,-240.7 94,-240.7"/>
<text text-anchor="start" x="97" y="-248.3" font-family="Helvetica,sans-Serif" font-size="16.00" fill="#000000">...</text>
<polygon fill="#ffffff" stroke="transparent" points="94,-215.7 94,-240.7 116,-240.7 116,-215.7 94,-215.7"/>
<polygon fill="none" stroke="#000000" points="94,-215.7 94,-240.7 116,-240.7 116,-215.7 94,-215.7"/>
<text text-anchor="start" x="97" y="-223.3" font-family="Helvetica,sans-Serif" font-size="16.00" fill="#000000"> &#160;</text>
<polygon fill="#ffffff" stroke="transparent" points="116,-215.7 116,-240.7 173,-240.7 173,-215.7 116,-215.7"/>
<polygon fill="none" stroke="#000000" points="116,-215.7 116,-240.7 173,-240.7 173,-215.7 116,-215.7"/>
<text text-anchor="start" x="122.888" y="-223.3" font-family="Helvetica,sans-Serif" font-size="16.00" fill="#000000">0 rows</text>
<polygon fill="#ffffff" stroke="transparent" points="173,-215.7 173,-240.7 206,-240.7 206,-215.7 173,-215.7"/>
<polygon fill="none" stroke="#000000" points="173,-215.7 173,-240.7 206,-240.7 206,-215.7 173,-215.7"/>
<text text-anchor="start" x="180.3168" y="-223.3" font-family="Helvetica,sans-Serif" font-size="16.00" fill="#000000">2 &gt;</text>
</a>
</g>
</g>
<!-- project_tags&#45;&gt;tags -->
<g id="edge2" class="edge">
<title>project_tags:w&#45;&gt;tags:e</title>
<path fill="none" stroke="#000000" d="M328.5362,-240.7241C275.638,-248.5586 267.1159,-298.7 206,-298.7"/>
<polygon fill="#000000" stroke="#000000" points="335.02,-240.265 343.2543,-243.291 339.01,-239.9825 343,-239.7 343,-239.7 343,-239.7 339.01,-239.9825 342.7457,-236.109 335.02,-240.265 335.02,-240.265"/>
<ellipse fill="none" stroke="#000000" cx="331.828" cy="-240.4911" rx="3.2" ry="3.2"/>
</g>
</g>
</svg>
