<?xml version="1.0" encoding="UTF-8" standalone="no"?>
<!DOCTYPE svg PUBLIC "-//W3C//DTD SVG 1.1//EN"
 "http://www.w3.org/Graphics/SVG/1.1/DTD/svg11.dtd">
<!-- Generated by graphviz version 2.40.1 (20161225.0304)
 -->
<!-- Title: oneDegreeRelationshipsDiagram Pages: 1 -->
<svg width="645pt" height="286pt"
 viewBox="0.00 0.00 645.00 285.70" xmlns="http://www.w3.org/2000/svg" xmlns:xlink="http://www.w3.org/1999/xlink">
<g id="graph0" class="graph" transform="scale(1 1) rotate(0) translate(4 281.7)">
<title>oneDegreeRelationshipsDiagram</title>
<polygon fill="#ffffff" stroke="transparent" points="-4,4 -4,-281.7 641,-281.7 641,4 -4,4"/>
<text text-anchor="middle" x="101.8088" y="-8.8" font-family="Helvetica,sans-Serif" font-size="16.00" fill="#000000">Generated by SchemaSpy</text>
<!-- project_notes -->
<g id="node1" class="node">
<title>project_notes</title>
<g id="a_node1"><a xlink:href="../../tables/project_notes.html" xlink:title="project_notes" target="_top">
<polygon fill="#ffffff" stroke="transparent" points="341,-65.7 341,-273.7 629,-273.7 629,-65.7 341,-65.7"/>
<polygon fill="#f5f5f5" stroke="transparent" points="343,-242.7 343,-271.7 627,-271.7 627,-242.7 343,-242.7"/>
<polygon fill="none" stroke="#000000" points="343,-242.7 343,-271.7 627,-271.7 627,-242.7 343,-242.7"/>
<text text-anchor="start" x="348" y="-249.8" font-family="Helvetica,sans-Serif" font-weight="bold" font-size="16.00" fill="#000000">project_notes</text>
<text text-anchor="start" x="578.4272" y="-252.3" font-family="Helvetica,sans-Serif" font-size="16.00" fill="#000000">[table]</text>
<polygon fill="none" stroke="#000000" points="343,-217.7 343,-242.7 475,-242.7 475,-217.7 343,-217.7"/>
<image xlink:href="../../images/primaryKeys.png" width="11px" height="12px" preserveAspectRatio="xMinYMin meet" x="348" y="-236.2"/>
<text text-anchor="start" x="363" y="-221.8" font-family="Helvetica,sans-Serif" font-size="16.00" fill="#000000">id</text>
<polygon fill="none" stroke="#000000" points="475,-217.7 475,-242.7 627,-242.7 627,-217.7 475,-217.7"/>
<text text-anchor="start" x="477.6312" y="-225.3" font-family="Helvetica,sans-Serif" font-size="16.00" fill="#000000">integer[2000000000]</text>
<polygon fill="none" stroke="#000000" points="343,-192.7 343,-217.7 475,-217.7 475,-192.7 343,-192.7"/>
<text text-anchor="start" x="363" y="-196.8" font-family="Helvetica,sans-Serif" font-size="16.00" fill="#000000">note</text>
<polygon fill="none" stroke="#000000" points="475,-192.7 475,-217.7 627,-217.7 627,-192.7 475,-192.7"/>
<text text-anchor="start" x="478" y="-200.3" font-family="Helvetica,sans-Serif" font-size="16.00" fill="#000000">text[2000000000]</text>
<polygon fill="none" stroke="#000000" points="343,-167.7 343,-192.7 475,-192.7 475,-167.7 343,-167.7"/>
<text text-anchor="start" x="363" y="-171.8" font-family="Helvetica,sans-Serif" font-size="16.00" fill="#000000">user_id</text>
<polygon fill="none" stroke="#000000" points="475,-167.7 475,-192.7 627,-192.7 627,-167.7 475,-167.7"/>
<text text-anchor="start" x="477.6312" y="-175.3" font-family="Helvetica,sans-Serif" font-size="16.00" fill="#000000">integer[2000000000]</text>
<polygon fill="#ffffff" stroke="transparent" points="343,-142.7 343,-167.7 475,-167.7 475,-142.7 343,-142.7"/>
<polygon fill="none" stroke="#000000" points="343,-142.7 343,-167.7 475,-167.7 475,-142.7 343,-142.7"/>
<image xlink:href="../../images/foreignKeys.png" width="11px" height="12px" preserveAspectRatio="xMinYMin meet" x="348" y="-161.2"/>
<text text-anchor="start" x="363" y="-146.8" font-family="Helvetica,sans-Serif" font-size="16.00" fill="#000000">project_id</text>
<polygon fill="none" stroke="#000000" points="475,-142.7 475,-167.7 627,-167.7 627,-142.7 475,-142.7"/>
<text text-anchor="start" x="477.6312" y="-150.3" font-family="Helvetica,sans-Serif" font-size="16.00" fill="#000000">integer[2000000000]</text>
<polygon fill="none" stroke="#000000" points="343,-117.7 343,-142.7 475,-142.7 475,-117.7 343,-117.7"/>
<text text-anchor="start" x="363" y="-121.8" font-family="Helvetica,sans-Serif" font-size="16.00" fill="#000000">inserted_at</text>
<polygon fill="none" stroke="#000000" points="475,-117.7 475,-142.7 627,-142.7 627,-117.7 475,-117.7"/>
<text text-anchor="start" x="478" y="-125.3" font-family="Helvetica,sans-Serif" font-size="16.00" fill="#000000">text[2000000000]</text>
<polygon fill="none" stroke="#000000" points="343,-92.7 343,-117.7 475,-117.7 475,-92.7 343,-92.7"/>
<text text-anchor="start" x="363" y="-96.8" font-family="Helvetica,sans-Serif" font-size="16.00" fill="#000000">updated_at</text>
<polygon fill="none" stroke="#000000" points="475,-92.7 475,-117.7 627,-117.7 627,-92.7 475,-92.7"/>
<text text-anchor="start" x="478" y="-100.3" font-family="Helvetica,sans-Serif" font-size="16.00" fill="#000000">text[2000000000]</text>
<polygon fill="#ffffff" stroke="transparent" points="343,-67.7 343,-92.7 396,-92.7 396,-67.7 343,-67.7"/>
<polygon fill="none" stroke="#000000" points="343,-67.7 343,-92.7 396,-92.7 396,-67.7 343,-67.7"/>
<text text-anchor="start" x="346" y="-75.3" font-family="Helvetica,sans-Serif" font-size="16.00" fill="#000000">&lt; 1</text>
<polygon fill="#ffffff" stroke="transparent" points="396,-67.7 396,-92.7 475,-92.7 475,-67.7 396,-67.7"/>
<polygon fill="none" stroke="#000000" points="396,-67.7 396,-92.7 475,-92.7 475,-67.7 396,-67.7"/>
<text text-anchor="start" x="424.888" y="-75.3" font-family="Helvetica,sans-Serif" font-size="16.00" fill="#000000">0 rows</text>
<polygon fill="#ffffff" stroke="transparent" points="475,-67.7 475,-92.7 627,-92.7 627,-67.7 475,-67.7"/>
<polygon fill="none" stroke="#000000" points="475,-67.7 475,-92.7 627,-92.7 627,-67.7 475,-67.7"/>
<text text-anchor="start" x="601.3168" y="-75.3" font-family="Helvetica,sans-Serif" font-size="16.00" fill="#000000">0 &gt;</text>
<polygon fill="none" stroke="#000000" stroke-width="2" points="342,-66.7 342,-272.7 628,-272.7 628,-66.7 342,-66.7"/>
</a>
</g>
</g>
<!-- projects -->
<g id="node2" class="node">
<title>projects</title>
<g id="a_node2"><a xlink:href="../../tables/projects.html" xlink:title="projects" target="_top">
<polygon fill="#ffffff" stroke="transparent" points="8,-50.2 8,-195.2 292,-195.2 292,-50.2 8,-50.2"/>
<polygon fill="#f5f5f5" stroke="transparent" points="8,-165.7 8,-194.7 292,-194.7 292,-165.7 8,-165.7"/>
<polygon fill="none" stroke="#000000" points="8,-165.7 8,-194.7 292,-194.7 292,-165.7 8,-165.7"/>
<text text-anchor="start" x="13" y="-172.8" font-family="Helvetica,sans-Serif" font-weight="bold" font-size="16.00" fill="#000000">projects</text>
<text text-anchor="start" x="243.4272" y="-175.3" font-family="Helvetica,sans-Serif" font-size="16.00" fill="#000000">[table]</text>
<polygon fill="none" stroke="#000000" points="8,-143.7 8,-165.7 292,-165.7 292,-143.7 8,-143.7"/>
<image xlink:href="../../images/primaryKeys.png" width="11px" height="12px" preserveAspectRatio="xMinYMin meet" x="13" y="-160.7"/>
<text text-anchor="start" x="28" y="-146.3" font-family="Helvetica,sans-Serif" font-size="16.00" fill="#000000">id</text>
<polygon fill="#ffffff" stroke="transparent" points="8,-121.7 8,-143.7 292,-143.7 292,-121.7 8,-121.7"/>
<polygon fill="none" stroke="#000000" points="8,-121.7 8,-143.7 292,-143.7 292,-121.7 8,-121.7"/>
<text text-anchor="start" x="28" y="-124.3" font-family="Helvetica,sans-Serif" font-size="16.00" fill="#000000">name</text>
<polygon fill="none" stroke="#000000" points="8,-99.7 8,-121.7 292,-121.7 292,-99.7 8,-99.7"/>
<image xlink:href="../../images/foreignKeys.png" width="11px" height="12px" preserveAspectRatio="xMinYMin meet" x="13" y="-116.7"/>
<text text-anchor="start" x="28" y="-102.3" font-family="Helvetica,sans-Serif" font-size="16.00" fill="#000000">business_partner_id</text>
<polygon fill="none" stroke="#000000" points="8,-74.7 8,-99.7 292,-99.7 292,-74.7 8,-74.7"/>
<text text-anchor="start" x="11" y="-82.3" font-family="Helvetica,sans-Serif" font-size="16.00" fill="#000000">...</text>
<polygon fill="#ffffff" stroke="transparent" points="8,-49.7 8,-74.7 123,-74.7 123,-49.7 8,-49.7"/>
<polygon fill="none" stroke="#000000" points="8,-49.7 8,-74.7 123,-74.7 123,-49.7 8,-49.7"/>
<text text-anchor="start" x="11" y="-57.3" font-family="Helvetica,sans-Serif" font-size="16.00" fill="#000000">&lt; 1</text>
<polygon fill="#ffffff" stroke="transparent" points="123,-49.7 123,-74.7 220,-74.7 220,-49.7 123,-49.7"/>
<polygon fill="none" stroke="#000000" points="123,-49.7 123,-74.7 220,-74.7 220,-49.7 123,-49.7"/>
<text text-anchor="start" x="169.888" y="-57.3" font-family="Helvetica,sans-Serif" font-size="16.00" fill="#000000">0 rows</text>
<polygon fill="#ffffff" stroke="transparent" points="220,-49.7 220,-74.7 292,-74.7 292,-49.7 220,-49.7"/>
<polygon fill="none" stroke="#000000" points="220,-49.7 220,-74.7 292,-74.7 292,-49.7 220,-49.7"/>
<text text-anchor="start" x="266.3168" y="-57.3" font-family="Helvetica,sans-Serif" font-size="16.00" fill="#000000">3 &gt;</text>
</a>
</g>
</g>
<!-- project_notes&#45;&gt;projects -->
<g id="edge1" class="edge">
<title>project_notes:w&#45;&gt;projects:e</title>
<path fill="none" stroke="#000000" d="M328.276,-154.7C316.2815,-154.7 308.8229,-154.7 292,-154.7"/>
<polygon fill="#000000" stroke="#000000" points="335,-154.7001 343,-158.3 339,-154.7 343,-154.7 343,-154.7 343,-154.7 339,-154.7 343,-151.1 335,-154.7001 335,-154.7001"/>
<ellipse fill="none" stroke="#000000" cx="331.8" cy="-154.7001" rx="3.2" ry="3.2"/>
</g>
</g>
</svg>
