<?xml version="1.0" encoding="UTF-8" standalone="no"?>
<!DOCTYPE svg PUBLIC "-//W3C//DTD SVG 1.1//EN"
 "http://www.w3.org/Graphics/SVG/1.1/DTD/svg11.dtd">
<!-- Generated by graphviz version 2.40.1 (20161225.0304)
 -->
<!-- Title: twoDegreesRelationshipsDiagram Pages: 1 -->
<svg width="898pt" height="485pt"
 viewBox="0.00 0.00 898.00 484.70" xmlns="http://www.w3.org/2000/svg" xmlns:xlink="http://www.w3.org/1999/xlink">
<g id="graph0" class="graph" transform="scale(1 1) rotate(0) translate(4 480.7)">
<title>twoDegreesRelationshipsDiagram</title>
<polygon fill="#ffffff" stroke="transparent" points="-4,4 -4,-480.7 894,-480.7 894,4 -4,4"/>
<text text-anchor="middle" x="101.8088" y="-8.8" font-family="Helvetica,sans-Serif" font-size="16.00" fill="#000000">Generated by SchemaSpy</text>
<!-- project_notes -->
<g id="node1" class="node">
<title>project_notes</title>
<g id="a_node1"><a xlink:href="../../tables/project_notes.html" xlink:title="project_notes" target="_top">
<polygon fill="#ffffff" stroke="transparent" points="594,-264.7 594,-472.7 882,-472.7 882,-264.7 594,-264.7"/>
<polygon fill="#f5f5f5" stroke="transparent" points="596,-441.7 596,-470.7 880,-470.7 880,-441.7 596,-441.7"/>
<polygon fill="none" stroke="#000000" points="596,-441.7 596,-470.7 880,-470.7 880,-441.7 596,-441.7"/>
<text text-anchor="start" x="601" y="-448.8" font-family="Helvetica,sans-Serif" font-weight="bold" font-size="16.00" fill="#000000">project_notes</text>
<text text-anchor="start" x="831.4272" y="-451.3" font-family="Helvetica,sans-Serif" font-size="16.00" fill="#000000">[table]</text>
<polygon fill="none" stroke="#000000" points="596,-416.7 596,-441.7 728,-441.7 728,-416.7 596,-416.7"/>
<image xlink:href="../../images/primaryKeys.png" width="11px" height="12px" preserveAspectRatio="xMinYMin meet" x="601" y="-435.2"/>
<text text-anchor="start" x="616" y="-420.8" font-family="Helvetica,sans-Serif" font-size="16.00" fill="#000000">id</text>
<polygon fill="none" stroke="#000000" points="728,-416.7 728,-441.7 880,-441.7 880,-416.7 728,-416.7"/>
<text text-anchor="start" x="730.6312" y="-424.3" font-family="Helvetica,sans-Serif" font-size="16.00" fill="#000000">integer[2000000000]</text>
<polygon fill="none" stroke="#000000" points="596,-391.7 596,-416.7 728,-416.7 728,-391.7 596,-391.7"/>
<text text-anchor="start" x="616" y="-395.8" font-family="Helvetica,sans-Serif" font-size="16.00" fill="#000000">note</text>
<polygon fill="none" stroke="#000000" points="728,-391.7 728,-416.7 880,-416.7 880,-391.7 728,-391.7"/>
<text text-anchor="start" x="731" y="-399.3" font-family="Helvetica,sans-Serif" font-size="16.00" fill="#000000">text[2000000000]</text>
<polygon fill="none" stroke="#000000" points="596,-366.7 596,-391.7 728,-391.7 728,-366.7 596,-366.7"/>
<text text-anchor="start" x="616" y="-370.8" font-family="Helvetica,sans-Serif" font-size="16.00" fill="#000000">user_id</text>
<polygon fill="none" stroke="#000000" points="728,-366.7 728,-391.7 880,-391.7 880,-366.7 728,-366.7"/>
<text text-anchor="start" x="730.6312" y="-374.3" font-family="Helvetica,sans-Serif" font-size="16.00" fill="#000000">integer[2000000000]</text>
<polygon fill="#ffffff" stroke="transparent" points="596,-341.7 596,-366.7 728,-366.7 728,-341.7 596,-341.7"/>
<polygon fill="none" stroke="#000000" points="596,-341.7 596,-366.7 728,-366.7 728,-341.7 596,-341.7"/>
<image xlink:href="../../images/foreignKeys.png" width="11px" height="12px" preserveAspectRatio="xMinYMin meet" x="601" y="-360.2"/>
<text text-anchor="start" x="616" y="-345.8" font-family="Helvetica,sans-Serif" font-size="16.00" fill="#000000">project_id</text>
<polygon fill="none" stroke="#000000" points="728,-341.7 728,-366.7 880,-366.7 880,-341.7 728,-341.7"/>
<text text-anchor="start" x="730.6312" y="-349.3" font-family="Helvetica,sans-Serif" font-size="16.00" fill="#000000">integer[2000000000]</text>
<polygon fill="none" stroke="#000000" points="596,-316.7 596,-341.7 728,-341.7 728,-316.7 596,-316.7"/>
<text text-anchor="start" x="616" y="-320.8" font-family="Helvetica,sans-Serif" font-size="16.00" fill="#000000">inserted_at</text>
<polygon fill="none" stroke="#000000" points="728,-316.7 728,-341.7 880,-341.7 880,-316.7 728,-316.7"/>
<text text-anchor="start" x="731" y="-324.3" font-family="Helvetica,sans-Serif" font-size="16.00" fill="#000000">text[2000000000]</text>
<polygon fill="none" stroke="#000000" points="596,-291.7 596,-316.7 728,-316.7 728,-291.7 596,-291.7"/>
<text text-anchor="start" x="616" y="-295.8" font-family="Helvetica,sans-Serif" font-size="16.00" fill="#000000">updated_at</text>
<polygon fill="none" stroke="#000000" points="728,-291.7 728,-316.7 880,-316.7 880,-291.7 728,-291.7"/>
<text text-anchor="start" x="731" y="-299.3" font-family="Helvetica,sans-Serif" font-size="16.00" fill="#000000">text[2000000000]</text>
<polygon fill="#ffffff" stroke="transparent" points="596,-266.7 596,-291.7 649,-291.7 649,-266.7 596,-266.7"/>
<polygon fill="none" stroke="#000000" points="596,-266.7 596,-291.7 649,-291.7 649,-266.7 596,-266.7"/>
<text text-anchor="start" x="599" y="-274.3" font-family="Helvetica,sans-Serif" font-size="16.00" fill="#000000">&lt; 1</text>
<polygon fill="#ffffff" stroke="transparent" points="649,-266.7 649,-291.7 728,-291.7 728,-266.7 649,-266.7"/>
<polygon fill="none" stroke="#000000" points="649,-266.7 649,-291.7 728,-291.7 728,-266.7 649,-266.7"/>
<text text-anchor="start" x="677.888" y="-274.3" font-family="Helvetica,sans-Serif" font-size="16.00" fill="#000000">0 rows</text>
<polygon fill="#ffffff" stroke="transparent" points="728,-266.7 728,-291.7 880,-291.7 880,-266.7 728,-266.7"/>
<polygon fill="none" stroke="#000000" points="728,-266.7 728,-291.7 880,-291.7 880,-266.7 728,-266.7"/>
<text text-anchor="start" x="854.3168" y="-274.3" font-family="Helvetica,sans-Serif" font-size="16.00" fill="#000000">0 &gt;</text>
<polygon fill="none" stroke="#000000" stroke-width="2" points="595,-265.7 595,-471.7 881,-471.7 881,-265.7 595,-265.7"/>
</a>
</g>
</g>
<!-- projects -->
<g id="node2" class="node">
<title>projects</title>
<g id="a_node2"><a xlink:href="../../tables/projects.html" xlink:title="projects" target="_top">
<polygon fill="#ffffff" stroke="transparent" points="261,-103.2 261,-248.2 545,-248.2 545,-103.2 261,-103.2"/>
<polygon fill="#f5f5f5" stroke="transparent" points="261,-218.7 261,-247.7 545,-247.7 545,-218.7 261,-218.7"/>
<polygon fill="none" stroke="#000000" points="261,-218.7 261,-247.7 545,-247.7 545,-218.7 261,-218.7"/>
<text text-anchor="start" x="266" y="-225.8" font-family="Helvetica,sans-Serif" font-weight="bold" font-size="16.00" fill="#000000">projects</text>
<text text-anchor="start" x="496.4272" y="-228.3" font-family="Helvetica,sans-Serif" font-size="16.00" fill="#000000">[table]</text>
<polygon fill="none" stroke="#000000" points="261,-196.7 261,-218.7 545,-218.7 545,-196.7 261,-196.7"/>
<image xlink:href="../../images/primaryKeys.png" width="11px" height="12px" preserveAspectRatio="xMinYMin meet" x="266" y="-213.7"/>
<text text-anchor="start" x="281" y="-199.3" font-family="Helvetica,sans-Serif" font-size="16.00" fill="#000000">id</text>
<polygon fill="#ffffff" stroke="transparent" points="261,-174.7 261,-196.7 545,-196.7 545,-174.7 261,-174.7"/>
<polygon fill="none" stroke="#000000" points="261,-174.7 261,-196.7 545,-196.7 545,-174.7 261,-174.7"/>
<text text-anchor="start" x="281" y="-177.3" font-family="Helvetica,sans-Serif" font-size="16.00" fill="#000000">name</text>
<polygon fill="none" stroke="#000000" points="261,-152.7 261,-174.7 545,-174.7 545,-152.7 261,-152.7"/>
<image xlink:href="../../images/foreignKeys.png" width="11px" height="12px" preserveAspectRatio="xMinYMin meet" x="266" y="-169.7"/>
<text text-anchor="start" x="281" y="-155.3" font-family="Helvetica,sans-Serif" font-size="16.00" fill="#000000">business_partner_id</text>
<polygon fill="none" stroke="#000000" points="261,-127.7 261,-152.7 545,-152.7 545,-127.7 261,-127.7"/>
<text text-anchor="start" x="264" y="-135.3" font-family="Helvetica,sans-Serif" font-size="16.00" fill="#000000">...</text>
<polygon fill="#ffffff" stroke="transparent" points="261,-102.7 261,-127.7 376,-127.7 376,-102.7 261,-102.7"/>
<polygon fill="none" stroke="#000000" points="261,-102.7 261,-127.7 376,-127.7 376,-102.7 261,-102.7"/>
<text text-anchor="start" x="264" y="-110.3" font-family="Helvetica,sans-Serif" font-size="16.00" fill="#000000">&lt; 1</text>
<polygon fill="#ffffff" stroke="transparent" points="376,-102.7 376,-127.7 473,-127.7 473,-102.7 376,-102.7"/>
<polygon fill="none" stroke="#000000" points="376,-102.7 376,-127.7 473,-127.7 473,-102.7 376,-102.7"/>
<text text-anchor="start" x="422.888" y="-110.3" font-family="Helvetica,sans-Serif" font-size="16.00" fill="#000000">0 rows</text>
<polygon fill="#ffffff" stroke="transparent" points="473,-102.7 473,-127.7 545,-127.7 545,-102.7 473,-102.7"/>
<polygon fill="none" stroke="#000000" points="473,-102.7 473,-127.7 545,-127.7 545,-102.7 473,-102.7"/>
<text text-anchor="start" x="519.3168" y="-110.3" font-family="Helvetica,sans-Serif" font-size="16.00" fill="#000000">3 &gt;</text>
</a>
</g>
</g>
<!-- project_notes&#45;&gt;projects -->
<g id="edge1" class="edge">
<title>project_notes:w&#45;&gt;projects:e</title>
<path fill="none" stroke="#000000" d="M581.7825,-350.7836C540.6953,-330.2064 607.9613,-207.7 545,-207.7"/>
<polygon fill="#000000" stroke="#000000" points="588.1632,-352.0924 595.2766,-357.2266 592.0816,-352.8962 596,-353.7 596,-353.7 596,-353.7 592.0816,-352.8962 596.7234,-350.1734 588.1632,-352.0924 588.1632,-352.0924"/>
<ellipse fill="none" stroke="#000000" cx="585.0284" cy="-351.4494" rx="3.2" ry="3.2"/>
</g>
<!-- business_partners -->
<g id="node4" class="node">
<title>business_partners</title>
<g id="a_node4"><a xlink:href="../../tables/business_partners.html" xlink:title="business_partners" target="_top">
<polygon fill="#ffffff" stroke="transparent" points="8,-84.2 8,-163.2 212,-163.2 212,-84.2 8,-84.2"/>
<polygon fill="#f5f5f5" stroke="transparent" points="8,-133.7 8,-162.7 212,-162.7 212,-133.7 8,-133.7"/>
<polygon fill="none" stroke="#000000" points="8,-133.7 8,-162.7 212,-162.7 212,-133.7 8,-133.7"/>
<text text-anchor="start" x="13" y="-140.8" font-family="Helvetica,sans-Serif" font-weight="bold" font-size="16.00" fill="#000000">business_partners</text>
<text text-anchor="start" x="163.7136" y="-143.3" font-family="Helvetica,sans-Serif" font-size="16.00" fill="#000000">[table]</text>
<polygon fill="none" stroke="#000000" points="8,-108.7 8,-133.7 212,-133.7 212,-108.7 8,-108.7"/>
<text text-anchor="start" x="11" y="-116.3" font-family="Helvetica,sans-Serif" font-size="16.00" fill="#000000">...</text>
<polygon fill="#ffffff" stroke="transparent" points="8,-83.7 8,-108.7 76,-108.7 76,-83.7 8,-83.7"/>
<polygon fill="none" stroke="#000000" points="8,-83.7 8,-108.7 76,-108.7 76,-83.7 8,-83.7"/>
<text text-anchor="start" x="11" y="-91.3" font-family="Helvetica,sans-Serif" font-size="16.00" fill="#000000"> &#160;</text>
<polygon fill="#ffffff" stroke="transparent" points="76,-83.7 76,-108.7 156,-108.7 156,-83.7 76,-83.7"/>
<polygon fill="none" stroke="#000000" points="76,-83.7 76,-108.7 156,-108.7 156,-83.7 76,-83.7"/>
<text text-anchor="start" x="105.888" y="-91.3" font-family="Helvetica,sans-Serif" font-size="16.00" fill="#000000">0 rows</text>
<polygon fill="#ffffff" stroke="transparent" points="156,-83.7 156,-108.7 212,-108.7 212,-83.7 156,-83.7"/>
<polygon fill="none" stroke="#000000" points="156,-83.7 156,-108.7 212,-108.7 212,-83.7 156,-83.7"/>
<text text-anchor="start" x="186.3168" y="-91.3" font-family="Helvetica,sans-Serif" font-size="16.00" fill="#000000">3 &gt;</text>
</a>
</g>
</g>
<!-- projects&#45;&gt;business_partners -->
<g id="edge3" class="edge">
<title>projects:w&#45;&gt;business_partners:e</title>
<path fill="none" stroke="#000000" d="M247.015,-158.7674C234.1135,-147.4726 234.8625,-120.7 212,-120.7"/>
<polygon fill="#000000" stroke="#000000" points="253.4555,-161.039 259.8025,-167.095 257.2278,-162.3695 261,-163.7 261,-163.7 261,-163.7 257.2278,-162.3695 262.1975,-160.305 253.4555,-161.039 253.4555,-161.039"/>
<ellipse fill="none" stroke="#000000" cx="250.4377" cy="-159.9745" rx="3.2" ry="3.2"/>
</g>
<!-- project_tags -->
<g id="node3" class="node">
<title>project_tags</title>
<g id="a_node3"><a xlink:href="../../tables/project_tags.html" xlink:title="project_tags" target="_top">
<polygon fill="#ffffff" stroke="transparent" points="661,-164.2 661,-243.2 815,-243.2 815,-164.2 661,-164.2"/>
<polygon fill="#f5f5f5" stroke="transparent" points="661,-213.7 661,-242.7 815,-242.7 815,-213.7 661,-213.7"/>
<polygon fill="none" stroke="#000000" points="661,-213.7 661,-242.7 815,-242.7 815,-213.7 661,-213.7"/>
<text text-anchor="start" x="666" y="-220.8" font-family="Helvetica,sans-Serif" font-weight="bold" font-size="16.00" fill="#000000">project_tags</text>
<text text-anchor="start" x="766.7136" y="-223.3" font-family="Helvetica,sans-Serif" font-size="16.00" fill="#000000">[table]</text>
<polygon fill="none" stroke="#000000" points="661,-188.7 661,-213.7 815,-213.7 815,-188.7 661,-188.7"/>
<text text-anchor="start" x="664" y="-196.3" font-family="Helvetica,sans-Serif" font-size="16.00" fill="#000000">...</text>
<polygon fill="#ffffff" stroke="transparent" points="661,-163.7 661,-188.7 718,-188.7 718,-163.7 661,-163.7"/>
<polygon fill="none" stroke="#000000" points="661,-163.7 661,-188.7 718,-188.7 718,-163.7 661,-163.7"/>
<text text-anchor="start" x="664" y="-171.3" font-family="Helvetica,sans-Serif" font-size="16.00" fill="#000000">&lt; 2</text>
<polygon fill="#ffffff" stroke="transparent" points="718,-163.7 718,-188.7 786,-188.7 786,-163.7 718,-163.7"/>
<polygon fill="none" stroke="#000000" points="718,-163.7 718,-188.7 786,-188.7 786,-163.7 718,-163.7"/>
<text text-anchor="start" x="735.888" y="-171.3" font-family="Helvetica,sans-Serif" font-size="16.00" fill="#000000">0 rows</text>
<polygon fill="#ffffff" stroke="transparent" points="786,-163.7 786,-188.7 815,-188.7 815,-163.7 786,-163.7"/>
<polygon fill="none" stroke="#000000" points="786,-163.7 786,-188.7 815,-188.7 815,-163.7 786,-163.7"/>
<text text-anchor="start" x="803.1072" y="-171.3" font-family="Helvetica,sans-Serif" font-size="16.00" fill="#000000"> &#160;</text>
</a>
</g>
</g>
<!-- project_tags&#45;&gt;projects -->
<g id="edge2" class="edge">
<title>project_tags:w&#45;&gt;projects:e</title>
<path fill="none" stroke="#000000" d="M646.3867,-200.9019C606.369,-202.0497 591.4037,-207.7 545,-207.7"/>
<polygon fill="#000000" stroke="#000000" points="653.0008,-200.8106 661.0498,-204.2997 657.0004,-200.7553 661,-200.7 661,-200.7 661,-200.7 657.0004,-200.7553 660.9502,-197.1003 653.0008,-200.8106 653.0008,-200.8106"/>
<ellipse fill="none" stroke="#000000" cx="649.8011" cy="-200.8548" rx="3.2" ry="3.2"/>
</g>
<!-- timers -->
<g id="node5" class="node">
<title>timers</title>
<g id="a_node5"><a xlink:href="../../tables/timers.html" xlink:title="timers" target="_top">
<polygon fill="#ffffff" stroke="transparent" points="683.5,-50.2 683.5,-129.2 792.5,-129.2 792.5,-50.2 683.5,-50.2"/>
<polygon fill="#f5f5f5" stroke="transparent" points="684,-99.7 684,-128.7 793,-128.7 793,-99.7 684,-99.7"/>
<polygon fill="none" stroke="#000000" points="684,-99.7 684,-128.7 793,-128.7 793,-99.7 684,-99.7"/>
<text text-anchor="start" x="689" y="-106.8" font-family="Helvetica,sans-Serif" font-weight="bold" font-size="16.00" fill="#000000">timers</text>
<text text-anchor="start" x="744.4272" y="-109.3" font-family="Helvetica,sans-Serif" font-size="16.00" fill="#000000">[table]</text>
<polygon fill="none" stroke="#000000" points="684,-74.7 684,-99.7 793,-99.7 793,-74.7 684,-74.7"/>
<text text-anchor="start" x="687" y="-82.3" font-family="Helvetica,sans-Serif" font-size="16.00" fill="#000000">...</text>
<polygon fill="#ffffff" stroke="transparent" points="684,-49.7 684,-74.7 712,-74.7 712,-49.7 684,-49.7"/>
<polygon fill="none" stroke="#000000" points="684,-49.7 684,-74.7 712,-74.7 712,-49.7 684,-49.7"/>
<text text-anchor="start" x="686.6584" y="-57.3" font-family="Helvetica,sans-Serif" font-size="16.00" fill="#000000">&lt; 3</text>
<polygon fill="#ffffff" stroke="transparent" points="712,-49.7 712,-74.7 765,-74.7 765,-49.7 712,-49.7"/>
<polygon fill="none" stroke="#000000" points="712,-49.7 712,-74.7 765,-74.7 765,-49.7 712,-49.7"/>
<text text-anchor="start" x="714.944" y="-57.3" font-family="Helvetica,sans-Serif" font-size="16.00" fill="#000000">0 rows</text>
<polygon fill="#ffffff" stroke="transparent" points="765,-49.7 765,-74.7 793,-74.7 793,-49.7 765,-49.7"/>
<polygon fill="none" stroke="#000000" points="765,-49.7 765,-74.7 793,-74.7 793,-49.7 765,-49.7"/>
<text text-anchor="start" x="767.6584" y="-57.3" font-family="Helvetica,sans-Serif" font-size="16.00" fill="#000000">2 &gt;</text>
</a>
</g>
</g>
<!-- timers&#45;&gt;projects -->
<g id="edge5" class="edge">
<title>timers:w&#45;&gt;projects:e</title>
<path fill="none" stroke="#000000" d="M669.519,-87.5872C629.5312,-92.8591 620.4165,-120.9534 586,-153.7 564.1691,-174.4717 575.1339,-207.7 545,-207.7"/>
<polygon fill="#000000" stroke="#000000" points="676.015,-87.1892 684.2202,-90.2933 680.0075,-86.9446 684,-86.7 684,-86.7 684,-86.7 680.0075,-86.9446 683.7798,-83.1067 676.015,-87.1892 676.015,-87.1892"/>
<ellipse fill="none" stroke="#000000" cx="672.821" cy="-87.3849" rx="3.2" ry="3.2"/>
</g>
<!-- timers&#45;&gt;business_partners -->
<g id="edge4" class="edge">
<title>timers:w&#45;&gt;business_partners:e</title>
<path fill="none" stroke="#000000" d="M669.3931,-86.5987C489.4026,-84.0918 430.9165,-36.3849 253,-92.7 231.9626,-99.3589 234.0661,-120.7 212,-120.7"/>
<polygon fill="#000000" stroke="#000000" points="676.0002,-86.6445 683.975,-90.2999 680.0001,-86.6722 684,-86.7 684,-86.7 684,-86.7 680.0001,-86.6722 684.025,-83.1001 676.0002,-86.6445 676.0002,-86.6445"/>
<ellipse fill="none" stroke="#000000" cx="672.8003" cy="-86.6223" rx="3.2" ry="3.2"/>
</g>
</g>
</svg>
