<?xml version="1.0" encoding="UTF-8" standalone="no"?>
<!DOCTYPE svg PUBLIC "-//W3C//DTD SVG 1.1//EN"
 "http://www.w3.org/Graphics/SVG/1.1/DTD/svg11.dtd">
<!-- Generated by graphviz version 2.40.1 (20161225.0304)
 -->
<!-- Title: oneDegreeRelationshipsDiagram Pages: 1 -->
<svg width="1028pt" height="739pt"
 viewBox="0.00 0.00 1028.00 738.60" xmlns="http://www.w3.org/2000/svg" xmlns:xlink="http://www.w3.org/1999/xlink">
<g id="graph0" class="graph" transform="scale(1 1) rotate(0) translate(4 734.5999)">
<title>oneDegreeRelationshipsDiagram</title>
<polygon fill="#ffffff" stroke="transparent" points="-4,4 -4,-734.5999 1024,-734.5999 1024,4 -4,4"/>
<text text-anchor="middle" x="101.8088" y="-8.8" font-family="Helvetica,sans-Serif" font-size="16.00" fill="#000000">Generated by SchemaSpy</text>
<!-- project_notes -->
<g id="node1" class="node">
<title>project_notes</title>
<g id="a_node1"><a xlink:href="../../tables/project_notes.html" xlink:title="project_notes" target="_top">
<polygon fill="#ffffff" stroke="transparent" points="813.5,-437.5999 813.5,-560.5999 977.5,-560.5999 977.5,-437.5999 813.5,-437.5999"/>
<polygon fill="#f5f5f5" stroke="transparent" points="813.5,-531.0999 813.5,-560.0999 977.5,-560.0999 977.5,-531.0999 813.5,-531.0999"/>
<polygon fill="none" stroke="#000000" points="813.5,-531.0999 813.5,-560.0999 977.5,-560.0999 977.5,-531.0999 813.5,-531.0999"/>
<text text-anchor="start" x="818.5" y="-538.1999" font-family="Helvetica,sans-Serif" font-weight="bold" font-size="16.00" fill="#000000">project_notes</text>
<text text-anchor="start" x="929.2136" y="-540.6999" font-family="Helvetica,sans-Serif" font-size="16.00" fill="#000000">[table]</text>
<polygon fill="none" stroke="#000000" points="813.5,-509.0999 813.5,-531.0999 977.5,-531.0999 977.5,-509.0999 813.5,-509.0999"/>
<image xlink:href="../../images/primaryKeys.png" width="11px" height="12px" preserveAspectRatio="xMinYMin meet" x="818.5" y="-526.1"/>
<text text-anchor="start" x="849.5" y="-511.6999" font-family="Helvetica,sans-Serif" font-size="16.00" fill="#000000">id</text>
<polygon fill="#ffffff" stroke="transparent" points="813.5,-487.0999 813.5,-509.0999 977.5,-509.0999 977.5,-487.0999 813.5,-487.0999"/>
<polygon fill="none" stroke="#000000" points="813.5,-487.0999 813.5,-509.0999 977.5,-509.0999 977.5,-487.0999 813.5,-487.0999"/>
<image xlink:href="../../images/foreignKeys.png" width="11px" height="12px" preserveAspectRatio="xMinYMin meet" x="818.5" y="-504.1"/>
<text text-anchor="start" x="849.5" y="-489.6999" font-family="Helvetica,sans-Serif" font-size="16.00" fill="#000000">project_id</text>
<polygon fill="none" stroke="#000000" points="813.5,-462.0999 813.5,-487.0999 977.5,-487.0999 977.5,-462.0999 813.5,-462.0999"/>
<text text-anchor="start" x="816.5" y="-469.6999" font-family="Helvetica,sans-Serif" font-size="16.00" fill="#000000">...</text>
<polygon fill="#ffffff" stroke="transparent" points="813.5,-437.0999 813.5,-462.0999 875.5,-462.0999 875.5,-437.0999 813.5,-437.0999"/>
<polygon fill="none" stroke="#000000" points="813.5,-437.0999 813.5,-462.0999 875.5,-462.0999 875.5,-437.0999 813.5,-437.0999"/>
<text text-anchor="start" x="816.5" y="-444.6999" font-family="Helvetica,sans-Serif" font-size="16.00" fill="#000000">&lt; 1</text>
<polygon fill="#ffffff" stroke="transparent" points="875.5,-437.0999 875.5,-462.0999 945.5,-462.0999 945.5,-437.0999 875.5,-437.0999"/>
<polygon fill="none" stroke="#000000" points="875.5,-437.0999 875.5,-462.0999 945.5,-462.0999 945.5,-437.0999 875.5,-437.0999"/>
<text text-anchor="start" x="895.388" y="-444.6999" font-family="Helvetica,sans-Serif" font-size="16.00" fill="#000000">0 rows</text>
<polygon fill="#ffffff" stroke="transparent" points="945.5,-437.0999 945.5,-462.0999 977.5,-462.0999 977.5,-437.0999 945.5,-437.0999"/>
<polygon fill="none" stroke="#000000" points="945.5,-437.0999 945.5,-462.0999 977.5,-462.0999 977.5,-437.0999 945.5,-437.0999"/>
<text text-anchor="start" x="965.6072" y="-444.6999" font-family="Helvetica,sans-Serif" font-size="16.00" fill="#000000"> &#160;</text>
</a>
</g>
</g>
<!-- projects -->
<g id="node2" class="node">
<title>projects</title>
<g id="a_node2"><a xlink:href="../../tables/projects.html" xlink:title="projects" target="_top">
<polygon fill="#ffffff" stroke="transparent" points="261,-105.0999 261,-613.0999 730,-613.0999 730,-105.0999 261,-105.0999"/>
<polygon fill="#f5f5f5" stroke="transparent" points="263.5,-582.0999 263.5,-611.0999 728.5,-611.0999 728.5,-582.0999 263.5,-582.0999"/>
<polygon fill="none" stroke="#000000" points="263.5,-582.0999 263.5,-611.0999 728.5,-611.0999 728.5,-582.0999 263.5,-582.0999"/>
<text text-anchor="start" x="268.5" y="-589.1999" font-family="Helvetica,sans-Serif" font-weight="bold" font-size="16.00" fill="#000000">projects</text>
<text text-anchor="start" x="679.9272" y="-591.6999" font-family="Helvetica,sans-Serif" font-size="16.00" fill="#000000">[table]</text>
<polygon fill="none" stroke="#000000" points="263.5,-557.0999 263.5,-582.0999 547.5,-582.0999 547.5,-557.0999 263.5,-557.0999"/>
<image xlink:href="../../images/primaryKeys.png" width="11px" height="12px" preserveAspectRatio="xMinYMin meet" x="268.5" y="-575.6"/>
<text text-anchor="start" x="283.5" y="-561.1999" font-family="Helvetica,sans-Serif" font-size="16.00" fill="#000000">id</text>
<polygon fill="none" stroke="#000000" points="547.5,-557.0999 547.5,-582.0999 728.5,-582.0999 728.5,-557.0999 547.5,-557.0999"/>
<text text-anchor="start" x="550.5" y="-564.6999" font-family="Helvetica,sans-Serif" font-size="16.00" fill="#000000">integer[2000000000]</text>
<polygon fill="#ffffff" stroke="transparent" points="263.5,-532.0999 263.5,-557.0999 547.5,-557.0999 547.5,-532.0999 263.5,-532.0999"/>
<polygon fill="none" stroke="#000000" points="263.5,-532.0999 263.5,-557.0999 547.5,-557.0999 547.5,-532.0999 263.5,-532.0999"/>
<text text-anchor="start" x="283.5" y="-536.1999" font-family="Helvetica,sans-Serif" font-size="16.00" fill="#000000">name</text>
<polygon fill="none" stroke="#000000" points="547.5,-532.0999 547.5,-557.0999 728.5,-557.0999 728.5,-532.0999 547.5,-532.0999"/>
<text text-anchor="start" x="550.5" y="-539.6999" font-family="Helvetica,sans-Serif" font-size="16.00" fill="#000000">text[2000000000]</text>
<polygon fill="none" stroke="#000000" points="263.5,-507.0999 263.5,-532.0999 547.5,-532.0999 547.5,-507.0999 263.5,-507.0999"/>
<text text-anchor="start" x="283.5" y="-511.1999" font-family="Helvetica,sans-Serif" font-size="16.00" fill="#000000">description</text>
<polygon fill="none" stroke="#000000" points="547.5,-507.0999 547.5,-532.0999 728.5,-532.0999 728.5,-507.0999 547.5,-507.0999"/>
<text text-anchor="start" x="550.5" y="-514.6999" font-family="Helvetica,sans-Serif" font-size="16.00" fill="#000000">text[2000000000]</text>
<polygon fill="none" stroke="#000000" points="263.5,-482.0999 263.5,-507.0999 547.5,-507.0999 547.5,-482.0999 263.5,-482.0999"/>
<text text-anchor="start" x="283.5" y="-486.1999" font-family="Helvetica,sans-Serif" font-size="16.00" fill="#000000">status</text>
<polygon fill="none" stroke="#000000" points="547.5,-482.0999 547.5,-507.0999 728.5,-507.0999 728.5,-482.0999 547.5,-482.0999"/>
<text text-anchor="start" x="550.5" y="-489.6999" font-family="Helvetica,sans-Serif" font-size="16.00" fill="#000000">text[2000000000]</text>
<polygon fill="none" stroke="#000000" points="263.5,-457.0999 263.5,-482.0999 547.5,-482.0999 547.5,-457.0999 263.5,-457.0999"/>
<text text-anchor="start" x="283.5" y="-461.1999" font-family="Helvetica,sans-Serif" font-size="16.00" fill="#000000">project_type</text>
<polygon fill="none" stroke="#000000" points="547.5,-457.0999 547.5,-482.0999 728.5,-482.0999 728.5,-457.0999 547.5,-457.0999"/>
<text text-anchor="start" x="550.5" y="-464.6999" font-family="Helvetica,sans-Serif" font-size="16.00" fill="#000000">text[2000000000]</text>
<polygon fill="none" stroke="#000000" points="263.5,-432.0999 263.5,-457.0999 547.5,-457.0999 547.5,-432.0999 263.5,-432.0999"/>
<text text-anchor="start" x="283.5" y="-436.1999" font-family="Helvetica,sans-Serif" font-size="16.00" fill="#000000">priority</text>
<polygon fill="none" stroke="#000000" points="547.5,-432.0999 547.5,-457.0999 728.5,-457.0999 728.5,-432.0999 547.5,-432.0999"/>
<text text-anchor="start" x="550.5" y="-439.6999" font-family="Helvetica,sans-Serif" font-size="16.00" fill="#000000">text[2000000000]</text>
<polygon fill="none" stroke="#000000" points="263.5,-407.0999 263.5,-432.0999 547.5,-432.0999 547.5,-407.0999 263.5,-407.0999"/>
<image xlink:href="../../images/foreignKeys.png" width="11px" height="12px" preserveAspectRatio="xMinYMin meet" x="268.5" y="-425.6"/>
<text text-anchor="start" x="283.5" y="-411.1999" font-family="Helvetica,sans-Serif" font-size="16.00" fill="#000000">business_partner_id</text>
<polygon fill="none" stroke="#000000" points="547.5,-407.0999 547.5,-432.0999 728.5,-432.0999 728.5,-407.0999 547.5,-407.0999"/>
<text text-anchor="start" x="550.5" y="-414.6999" font-family="Helvetica,sans-Serif" font-size="16.00" fill="#000000">integer[2000000000]</text>
<polygon fill="none" stroke="#000000" points="263.5,-382.0999 263.5,-407.0999 547.5,-407.0999 547.5,-382.0999 263.5,-382.0999"/>
<text text-anchor="start" x="283.5" y="-386.1999" font-family="Helvetica,sans-Serif" font-size="16.00" fill="#000000">expected_start_date</text>
<polygon fill="none" stroke="#000000" points="547.5,-382.0999 547.5,-407.0999 728.5,-407.0999 728.5,-382.0999 547.5,-382.0999"/>
<text text-anchor="start" x="550.5" y="-389.6999" font-family="Helvetica,sans-Serif" font-size="16.00" fill="#000000">text[2000000000]</text>
<polygon fill="none" stroke="#000000" points="263.5,-357.0999 263.5,-382.0999 547.5,-382.0999 547.5,-357.0999 263.5,-357.0999"/>
<text text-anchor="start" x="283.5" y="-361.1999" font-family="Helvetica,sans-Serif" font-size="16.00" fill="#000000">expected_end_date</text>
<polygon fill="none" stroke="#000000" points="547.5,-357.0999 547.5,-382.0999 728.5,-382.0999 728.5,-357.0999 547.5,-357.0999"/>
<text text-anchor="start" x="550.5" y="-364.6999" font-family="Helvetica,sans-Serif" font-size="16.00" fill="#000000">text[2000000000]</text>
<polygon fill="none" stroke="#000000" points="263.5,-332.0999 263.5,-357.0999 547.5,-357.0999 547.5,-332.0999 263.5,-332.0999"/>
<text text-anchor="start" x="283.5" y="-336.1999" font-family="Helvetica,sans-Serif" font-size="16.00" fill="#000000">actual_start_date</text>
<polygon fill="none" stroke="#000000" points="547.5,-332.0999 547.5,-357.0999 728.5,-357.0999 728.5,-332.0999 547.5,-332.0999"/>
<text text-anchor="start" x="550.5" y="-339.6999" font-family="Helvetica,sans-Serif" font-size="16.00" fill="#000000">text[2000000000]</text>
<polygon fill="none" stroke="#000000" points="263.5,-307.0999 263.5,-332.0999 547.5,-332.0999 547.5,-307.0999 263.5,-307.0999"/>
<text text-anchor="start" x="283.5" y="-311.1999" font-family="Helvetica,sans-Serif" font-size="16.00" fill="#000000">actual_end_date</text>
<polygon fill="none" stroke="#000000" points="547.5,-307.0999 547.5,-332.0999 728.5,-332.0999 728.5,-307.0999 547.5,-307.0999"/>
<text text-anchor="start" x="550.5" y="-314.6999" font-family="Helvetica,sans-Serif" font-size="16.00" fill="#000000">text[2000000000]</text>
<polygon fill="none" stroke="#000000" points="263.5,-282.0999 263.5,-307.0999 547.5,-307.0999 547.5,-282.0999 263.5,-282.0999"/>
<text text-anchor="start" x="283.5" y="-286.1999" font-family="Helvetica,sans-Serif" font-size="16.00" fill="#000000">estimated_duration</text>
<polygon fill="none" stroke="#000000" points="547.5,-282.0999 547.5,-307.0999 728.5,-307.0999 728.5,-282.0999 547.5,-282.0999"/>
<text text-anchor="start" x="550.5" y="-289.6999" font-family="Helvetica,sans-Serif" font-size="16.00" fill="#000000">integer[2000000000]</text>
<polygon fill="none" stroke="#000000" points="263.5,-257.0999 263.5,-282.0999 547.5,-282.0999 547.5,-257.0999 263.5,-257.0999"/>
<text text-anchor="start" x="283.5" y="-261.1999" font-family="Helvetica,sans-Serif" font-size="16.00" fill="#000000">estimated_duration_time_unit</text>
<polygon fill="none" stroke="#000000" points="547.5,-257.0999 547.5,-282.0999 728.5,-282.0999 728.5,-257.0999 547.5,-257.0999"/>
<text text-anchor="start" x="550.5" y="-264.6999" font-family="Helvetica,sans-Serif" font-size="16.00" fill="#000000">text[2000000000]</text>
<polygon fill="none" stroke="#000000" points="263.5,-232.0999 263.5,-257.0999 547.5,-257.0999 547.5,-232.0999 263.5,-232.0999"/>
<text text-anchor="start" x="283.5" y="-236.1999" font-family="Helvetica,sans-Serif" font-size="16.00" fill="#000000">billable</text>
<polygon fill="none" stroke="#000000" points="547.5,-232.0999 547.5,-257.0999 728.5,-257.0999 728.5,-232.0999 547.5,-232.0999"/>
<text text-anchor="start" x="550.5" y="-239.6999" font-family="Helvetica,sans-Serif" font-size="16.00" fill="#000000">integer[2000000000]</text>
<polygon fill="none" stroke="#000000" points="263.5,-207.0999 263.5,-232.0999 547.5,-232.0999 547.5,-207.0999 263.5,-207.0999"/>
<text text-anchor="start" x="283.5" y="-211.1999" font-family="Helvetica,sans-Serif" font-size="16.00" fill="#000000">estimated_total_billable_amount</text>
<polygon fill="none" stroke="#000000" points="547.5,-207.0999 547.5,-232.0999 728.5,-232.0999 728.5,-207.0999 547.5,-207.0999"/>
<text text-anchor="start" x="550.4088" y="-214.6999" font-family="Helvetica,sans-Serif" font-size="16.00" fill="#000000">decimal[2000000000,10]</text>
<polygon fill="none" stroke="#000000" points="263.5,-182.0999 263.5,-207.0999 547.5,-207.0999 547.5,-182.0999 263.5,-182.0999"/>
<text text-anchor="start" x="283.5" y="-186.1999" font-family="Helvetica,sans-Serif" font-size="16.00" fill="#000000">active</text>
<polygon fill="none" stroke="#000000" points="547.5,-182.0999 547.5,-207.0999 728.5,-207.0999 728.5,-182.0999 547.5,-182.0999"/>
<text text-anchor="start" x="550.5" y="-189.6999" font-family="Helvetica,sans-Serif" font-size="16.00" fill="#000000">integer[2000000000]</text>
<polygon fill="none" stroke="#000000" points="263.5,-157.0999 263.5,-182.0999 547.5,-182.0999 547.5,-157.0999 263.5,-157.0999"/>
<text text-anchor="start" x="283.5" y="-161.1999" font-family="Helvetica,sans-Serif" font-size="16.00" fill="#000000">inserted_at</text>
<polygon fill="none" stroke="#000000" points="547.5,-157.0999 547.5,-182.0999 728.5,-182.0999 728.5,-157.0999 547.5,-157.0999"/>
<text text-anchor="start" x="550.5" y="-164.6999" font-family="Helvetica,sans-Serif" font-size="16.00" fill="#000000">text[2000000000]</text>
<polygon fill="none" stroke="#000000" points="263.5,-132.0999 263.5,-157.0999 547.5,-157.0999 547.5,-132.0999 263.5,-132.0999"/>
<text text-anchor="start" x="283.5" y="-136.1999" font-family="Helvetica,sans-Serif" font-size="16.00" fill="#000000">updated_at</text>
<polygon fill="none" stroke="#000000" points="547.5,-132.0999 547.5,-157.0999 728.5,-157.0999 728.5,-132.0999 547.5,-132.0999"/>
<text text-anchor="start" x="550.5" y="-139.6999" font-family="Helvetica,sans-Serif" font-size="16.00" fill="#000000">text[2000000000]</text>
<polygon fill="#ffffff" stroke="transparent" points="263.5,-107.0999 263.5,-132.0999 392.5,-132.0999 392.5,-107.0999 263.5,-107.0999"/>
<polygon fill="none" stroke="#000000" points="263.5,-107.0999 263.5,-132.0999 392.5,-132.0999 392.5,-107.0999 263.5,-107.0999"/>
<text text-anchor="start" x="266.5" y="-114.6999" font-family="Helvetica,sans-Serif" font-size="16.00" fill="#000000">&lt; 1</text>
<polygon fill="#ffffff" stroke="transparent" points="392.5,-107.0999 392.5,-132.0999 547.5,-132.0999 547.5,-107.0999 392.5,-107.0999"/>
<polygon fill="none" stroke="#000000" points="392.5,-107.0999 392.5,-132.0999 547.5,-132.0999 547.5,-107.0999 392.5,-107.0999"/>
<text text-anchor="start" x="497.388" y="-114.6999" font-family="Helvetica,sans-Serif" font-size="16.00" fill="#000000">0 rows</text>
<polygon fill="#ffffff" stroke="transparent" points="547.5,-107.0999 547.5,-132.0999 728.5,-132.0999 728.5,-107.0999 547.5,-107.0999"/>
<polygon fill="none" stroke="#000000" points="547.5,-107.0999 547.5,-132.0999 728.5,-132.0999 728.5,-107.0999 547.5,-107.0999"/>
<text text-anchor="start" x="702.8168" y="-114.6999" font-family="Helvetica,sans-Serif" font-size="16.00" fill="#000000">3 &gt;</text>
<polygon fill="none" stroke="#000000" stroke-width="2" points="262,-106.0999 262,-612.0999 729,-612.0999 729,-106.0999 262,-106.0999"/>
</a>
</g>
</g>
<!-- project_notes&#45;&gt;projects -->
<g id="edge1" class="edge">
<title>project_notes:w&#45;&gt;projects:e</title>
<path fill="none" stroke="#000000" d="M798.9356,-500.6624C766.3516,-513.4885 772.4007,-570.0999 728.5,-570.0999"/>
<polygon fill="#000000" stroke="#000000" points="805.621,-499.4862 814.1238,-501.6455 809.5605,-498.7931 813.5,-498.0999 813.5,-498.0999 813.5,-498.0999 809.5605,-498.7931 812.8762,-494.5544 805.621,-499.4862 805.621,-499.4862"/>
<ellipse fill="none" stroke="#000000" cx="802.4694" cy="-500.0407" rx="3.2" ry="3.2"/>
</g>
<!-- business_partners -->
<g id="node4" class="node">
<title>business_partners</title>
<g id="a_node4"><a xlink:href="../../tables/business_partners.html" xlink:title="business_partners" target="_top">
<polygon fill="#ffffff" stroke="transparent" points="8,-167.5999 8,-290.5999 212,-290.5999 212,-167.5999 8,-167.5999"/>
<polygon fill="#f5f5f5" stroke="transparent" points="8,-261.0999 8,-290.0999 212,-290.0999 212,-261.0999 8,-261.0999"/>
<polygon fill="none" stroke="#000000" points="8,-261.0999 8,-290.0999 212,-290.0999 212,-261.0999 8,-261.0999"/>
<text text-anchor="start" x="13" y="-268.1999" font-family="Helvetica,sans-Serif" font-weight="bold" font-size="16.00" fill="#000000">business_partners</text>
<text text-anchor="start" x="163.7136" y="-270.6999" font-family="Helvetica,sans-Serif" font-size="16.00" fill="#000000">[table]</text>
<polygon fill="none" stroke="#000000" points="8,-239.0999 8,-261.0999 212,-261.0999 212,-239.0999 8,-239.0999"/>
<image xlink:href="../../images/primaryKeys.png" width="11px" height="12px" preserveAspectRatio="xMinYMin meet" x="13" y="-256.1"/>
<text text-anchor="start" x="44" y="-241.6999" font-family="Helvetica,sans-Serif" font-size="16.00" fill="#000000">id</text>
<polygon fill="#ffffff" stroke="transparent" points="8,-217.0999 8,-239.0999 212,-239.0999 212,-217.0999 8,-217.0999"/>
<polygon fill="none" stroke="#000000" points="8,-217.0999 8,-239.0999 212,-239.0999 212,-217.0999 8,-217.0999"/>
<text text-anchor="start" x="44" y="-219.6999" font-family="Helvetica,sans-Serif" font-size="16.00" fill="#000000">name</text>
<polygon fill="none" stroke="#000000" points="8,-192.0999 8,-217.0999 212,-217.0999 212,-192.0999 8,-192.0999"/>
<text text-anchor="start" x="11" y="-199.6999" font-family="Helvetica,sans-Serif" font-size="16.00" fill="#000000">...</text>
<polygon fill="#ffffff" stroke="transparent" points="8,-167.0999 8,-192.0999 76,-192.0999 76,-167.0999 8,-167.0999"/>
<polygon fill="none" stroke="#000000" points="8,-167.0999 8,-192.0999 76,-192.0999 76,-167.0999 8,-167.0999"/>
<text text-anchor="start" x="11" y="-174.6999" font-family="Helvetica,sans-Serif" font-size="16.00" fill="#000000"> &#160;</text>
<polygon fill="#ffffff" stroke="transparent" points="76,-167.0999 76,-192.0999 156,-192.0999 156,-167.0999 76,-167.0999"/>
<polygon fill="none" stroke="#000000" points="76,-167.0999 76,-192.0999 156,-192.0999 156,-167.0999 76,-167.0999"/>
<text text-anchor="start" x="105.888" y="-174.6999" font-family="Helvetica,sans-Serif" font-size="16.00" fill="#000000">0 rows</text>
<polygon fill="#ffffff" stroke="transparent" points="156,-167.0999 156,-192.0999 212,-192.0999 212,-167.0999 156,-167.0999"/>
<polygon fill="none" stroke="#000000" points="156,-167.0999 156,-192.0999 212,-192.0999 212,-167.0999 156,-167.0999"/>
<text text-anchor="start" x="186.3168" y="-174.6999" font-family="Helvetica,sans-Serif" font-size="16.00" fill="#000000">3 &gt;</text>
</a>
</g>
</g>
<!-- projects&#45;&gt;business_partners -->
<g id="edge3" class="edge">
<title>projects:w&#45;&gt;business_partners:e</title>
<path fill="none" stroke="#000000" d="M249.1485,-417.5649C198.9627,-396.4174 285.2413,-250.0999 212,-250.0999"/>
<polygon fill="#000000" stroke="#000000" points="255.622,-418.7083 262.8738,-423.645 259.561,-419.4041 263.5,-420.0999 263.5,-420.0999 263.5,-420.0999 259.561,-419.4041 264.1262,-416.5548 255.622,-418.7083 255.622,-418.7083"/>
<ellipse fill="none" stroke="#000000" cx="252.4707" cy="-418.1516" rx="3.2" ry="3.2"/>
</g>
<!-- project_tags -->
<g id="node3" class="node">
<title>project_tags</title>
<g id="a_node3"><a xlink:href="../../tables/project_tags.html" xlink:title="project_tags" target="_top">
<polygon fill="#ffffff" stroke="transparent" points="818.5,-581.5999 818.5,-726.5999 972.5,-726.5999 972.5,-581.5999 818.5,-581.5999"/>
<polygon fill="#f5f5f5" stroke="transparent" points="818.5,-697.0999 818.5,-726.0999 972.5,-726.0999 972.5,-697.0999 818.5,-697.0999"/>
<polygon fill="none" stroke="#000000" points="818.5,-697.0999 818.5,-726.0999 972.5,-726.0999 972.5,-697.0999 818.5,-697.0999"/>
<text text-anchor="start" x="823.5" y="-704.1999" font-family="Helvetica,sans-Serif" font-weight="bold" font-size="16.00" fill="#000000">project_tags</text>
<text text-anchor="start" x="924.2136" y="-706.6999" font-family="Helvetica,sans-Serif" font-size="16.00" fill="#000000">[table]</text>
<polygon fill="none" stroke="#000000" points="818.5,-675.0999 818.5,-697.0999 972.5,-697.0999 972.5,-675.0999 818.5,-675.0999"/>
<image xlink:href="../../images/primaryKeys.png" width="11px" height="12px" preserveAspectRatio="xMinYMin meet" x="823.5" y="-692.1"/>
<text text-anchor="start" x="854.5" y="-677.6999" font-family="Helvetica,sans-Serif" font-size="16.00" fill="#000000">id</text>
<polygon fill="#ffffff" stroke="transparent" points="818.5,-653.0999 818.5,-675.0999 972.5,-675.0999 972.5,-653.0999 818.5,-653.0999"/>
<polygon fill="none" stroke="#000000" points="818.5,-653.0999 818.5,-675.0999 972.5,-675.0999 972.5,-653.0999 818.5,-653.0999"/>
<image xlink:href="../../images/foreignKeys.png" width="11px" height="12px" preserveAspectRatio="xMinYMin meet" x="823.5" y="-670.1"/>
<text text-anchor="start" x="854.5" y="-655.6999" font-family="Helvetica,sans-Serif" font-size="16.00" fill="#000000">tag_id</text>
<polygon fill="#ffffff" stroke="transparent" points="818.5,-631.0999 818.5,-653.0999 972.5,-653.0999 972.5,-631.0999 818.5,-631.0999"/>
<polygon fill="none" stroke="#000000" points="818.5,-631.0999 818.5,-653.0999 972.5,-653.0999 972.5,-631.0999 818.5,-631.0999"/>
<image xlink:href="../../images/foreignKeys.png" width="11px" height="12px" preserveAspectRatio="xMinYMin meet" x="823.5" y="-648.1"/>
<text text-anchor="start" x="854.5" y="-633.6999" font-family="Helvetica,sans-Serif" font-size="16.00" fill="#000000">project_id</text>
<polygon fill="none" stroke="#000000" points="818.5,-606.0999 818.5,-631.0999 972.5,-631.0999 972.5,-606.0999 818.5,-606.0999"/>
<text text-anchor="start" x="821.5" y="-613.6999" font-family="Helvetica,sans-Serif" font-size="16.00" fill="#000000">...</text>
<polygon fill="#ffffff" stroke="transparent" points="818.5,-581.0999 818.5,-606.0999 875.5,-606.0999 875.5,-581.0999 818.5,-581.0999"/>
<polygon fill="none" stroke="#000000" points="818.5,-581.0999 818.5,-606.0999 875.5,-606.0999 875.5,-581.0999 818.5,-581.0999"/>
<text text-anchor="start" x="821.5" y="-588.6999" font-family="Helvetica,sans-Serif" font-size="16.00" fill="#000000">&lt; 2</text>
<polygon fill="#ffffff" stroke="transparent" points="875.5,-581.0999 875.5,-606.0999 943.5,-606.0999 943.5,-581.0999 875.5,-581.0999"/>
<polygon fill="none" stroke="#000000" points="875.5,-581.0999 875.5,-606.0999 943.5,-606.0999 943.5,-581.0999 875.5,-581.0999"/>
<text text-anchor="start" x="893.388" y="-588.6999" font-family="Helvetica,sans-Serif" font-size="16.00" fill="#000000">0 rows</text>
<polygon fill="#ffffff" stroke="transparent" points="943.5,-581.0999 943.5,-606.0999 972.5,-606.0999 972.5,-581.0999 943.5,-581.0999"/>
<polygon fill="none" stroke="#000000" points="943.5,-581.0999 943.5,-606.0999 972.5,-606.0999 972.5,-581.0999 943.5,-581.0999"/>
<text text-anchor="start" x="960.6072" y="-588.6999" font-family="Helvetica,sans-Serif" font-size="16.00" fill="#000000"> &#160;</text>
</a>
</g>
</g>
<!-- project_tags&#45;&gt;projects -->
<g id="edge2" class="edge">
<title>project_tags:w&#45;&gt;projects:e</title>
<path fill="none" stroke="#000000" d="M804.2676,-639.8662C769.1929,-627.7133 774.3224,-570.0999 728.5,-570.0999"/>
<polygon fill="#000000" stroke="#000000" points="810.5967,-640.8595 817.9418,-645.6564 814.5484,-641.4797 818.5,-642.0999 818.5,-642.0999 818.5,-642.0999 814.5484,-641.4797 819.0582,-638.5435 810.5967,-640.8595 810.5967,-640.8595"/>
<ellipse fill="none" stroke="#000000" cx="807.4354" cy="-640.3633" rx="3.2" ry="3.2"/>
</g>
<!-- timers -->
<g id="node5" class="node">
<title>timers</title>
<g id="a_node5"><a xlink:href="../../tables/timers.html" xlink:title="timers" target="_top">
<polygon fill="#ffffff" stroke="transparent" points="779,-101.5999 779,-290.5999 1012,-290.5999 1012,-101.5999 779,-101.5999"/>
<polygon fill="#f5f5f5" stroke="transparent" points="779.5,-261.0999 779.5,-290.0999 1012.5,-290.0999 1012.5,-261.0999 779.5,-261.0999"/>
<polygon fill="none" stroke="#000000" points="779.5,-261.0999 779.5,-290.0999 1012.5,-290.0999 1012.5,-261.0999 779.5,-261.0999"/>
<text text-anchor="start" x="784.5" y="-268.1999" font-family="Helvetica,sans-Serif" font-weight="bold" font-size="16.00" fill="#000000">timers</text>
<text text-anchor="start" x="963.9272" y="-270.6999" font-family="Helvetica,sans-Serif" font-size="16.00" fill="#000000">[table]</text>
<polygon fill="none" stroke="#000000" points="779.5,-239.0999 779.5,-261.0999 1012.5,-261.0999 1012.5,-239.0999 779.5,-239.0999"/>
<image xlink:href="../../images/primaryKeys.png" width="11px" height="12px" preserveAspectRatio="xMinYMin meet" x="784.5" y="-256.1"/>
<text text-anchor="start" x="799.5" y="-241.6999" font-family="Helvetica,sans-Serif" font-size="16.00" fill="#000000">id</text>
<polygon fill="#ffffff" stroke="transparent" points="779.5,-217.0999 779.5,-239.0999 1012.5,-239.0999 1012.5,-217.0999 779.5,-217.0999"/>
<polygon fill="none" stroke="#000000" points="779.5,-217.0999 779.5,-239.0999 1012.5,-239.0999 1012.5,-217.0999 779.5,-217.0999"/>
<text text-anchor="start" x="799.5" y="-219.6999" font-family="Helvetica,sans-Serif" font-size="16.00" fill="#000000">start_stamp</text>
<polygon fill="none" stroke="#000000" points="779.5,-195.0999 779.5,-217.0999 1012.5,-217.0999 1012.5,-195.0999 779.5,-195.0999"/>
<image xlink:href="../../images/foreignKeys.png" width="11px" height="12px" preserveAspectRatio="xMinYMin meet" x="784.5" y="-212.1"/>
<text text-anchor="start" x="799.5" y="-197.6999" font-family="Helvetica,sans-Serif" font-size="16.00" fill="#000000">business_partner_id</text>
<polygon fill="none" stroke="#000000" points="779.5,-173.0999 779.5,-195.0999 1012.5,-195.0999 1012.5,-173.0999 779.5,-173.0999"/>
<image xlink:href="../../images/foreignKeys.png" width="11px" height="12px" preserveAspectRatio="xMinYMin meet" x="784.5" y="-190.1"/>
<text text-anchor="start" x="799.5" y="-175.6999" font-family="Helvetica,sans-Serif" font-size="16.00" fill="#000000">activity_type_id</text>
<polygon fill="none" stroke="#000000" points="779.5,-151.0999 779.5,-173.0999 1012.5,-173.0999 1012.5,-151.0999 779.5,-151.0999"/>
<image xlink:href="../../images/foreignKeys.png" width="11px" height="12px" preserveAspectRatio="xMinYMin meet" x="784.5" y="-168.1"/>
<text text-anchor="start" x="799.5" y="-153.6999" font-family="Helvetica,sans-Serif" font-size="16.00" fill="#000000">project_id</text>
<polygon fill="none" stroke="#000000" points="779.5,-126.0999 779.5,-151.0999 1012.5,-151.0999 1012.5,-126.0999 779.5,-126.0999"/>
<text text-anchor="start" x="782.5" y="-133.6999" font-family="Helvetica,sans-Serif" font-size="16.00" fill="#000000">...</text>
<polygon fill="#ffffff" stroke="transparent" points="779.5,-101.0999 779.5,-126.0999 869.5,-126.0999 869.5,-101.0999 779.5,-101.0999"/>
<polygon fill="none" stroke="#000000" points="779.5,-101.0999 779.5,-126.0999 869.5,-126.0999 869.5,-101.0999 779.5,-101.0999"/>
<text text-anchor="start" x="782.5" y="-108.6999" font-family="Helvetica,sans-Serif" font-size="16.00" fill="#000000">&lt; 3</text>
<polygon fill="#ffffff" stroke="transparent" points="869.5,-101.0999 869.5,-126.0999 953.5,-126.0999 953.5,-101.0999 869.5,-101.0999"/>
<polygon fill="none" stroke="#000000" points="869.5,-101.0999 869.5,-126.0999 953.5,-126.0999 953.5,-101.0999 869.5,-101.0999"/>
<text text-anchor="start" x="903.388" y="-108.6999" font-family="Helvetica,sans-Serif" font-size="16.00" fill="#000000">0 rows</text>
<polygon fill="#ffffff" stroke="transparent" points="953.5,-101.0999 953.5,-126.0999 1012.5,-126.0999 1012.5,-101.0999 953.5,-101.0999"/>
<polygon fill="none" stroke="#000000" points="953.5,-101.0999 953.5,-126.0999 1012.5,-126.0999 1012.5,-101.0999 953.5,-101.0999"/>
<text text-anchor="start" x="986.8168" y="-108.6999" font-family="Helvetica,sans-Serif" font-size="16.00" fill="#000000">2 &gt;</text>
</a>
</g>
</g>
<!-- timers&#45;&gt;projects -->
<g id="edge5" class="edge">
<title>timers:w&#45;&gt;projects:e</title>
<path fill="none" stroke="#000000" d="M765.6467,-166.138C702.8005,-208.5117 814.5184,-570.0999 728.5,-570.0999"/>
<polygon fill="#000000" stroke="#000000" points="771.8196,-164.3387 780.5075,-165.5561 775.6598,-163.2193 779.5,-162.0999 779.5,-162.0999 779.5,-162.0999 775.6598,-163.2193 778.4925,-158.6438 771.8196,-164.3387 771.8196,-164.3387"/>
<ellipse fill="none" stroke="#000000" cx="768.7475" cy="-165.2343" rx="3.2" ry="3.2"/>
</g>
<!-- timers&#45;&gt;business_partners -->
<g id="edge4" class="edge">
<title>timers:w&#45;&gt;business_partners:e</title>
<path fill="none" stroke="#000000" d="M765.3256,-203.1489C737.6446,-188.2539 776.6367,-120.9874 738,-94.0999 649.5352,-32.5368 338.3484,-28.2843 253,-94.0999 196.2308,-137.8769 283.6879,-250.0999 212,-250.0999"/>
<polygon fill="#000000" stroke="#000000" points="771.6679,-204.4693 778.7662,-209.6244 775.584,-205.2846 779.5,-206.0999 779.5,-206.0999 779.5,-206.0999 775.584,-205.2846 780.2338,-202.5755 771.6679,-204.4693 771.6679,-204.4693"/>
<ellipse fill="none" stroke="#000000" cx="768.5351" cy="-203.817" rx="3.2" ry="3.2"/>
</g>
</g>
</svg>
