<?xml version="1.0" encoding="UTF-8" standalone="no"?>
<!DOCTYPE svg PUBLIC "-//W3C//DTD SVG 1.1//EN"
 "http://www.w3.org/Graphics/SVG/1.1/DTD/svg11.dtd">
<!-- Generated by graphviz version 2.40.1 (20161225.0304)
 -->
<!-- Title: twoDegreesRelationshipsDiagram Pages: 1 -->
<svg width="1162pt" height="826pt"
 viewBox="0.00 0.00 1162.00 825.58" xmlns="http://www.w3.org/2000/svg" xmlns:xlink="http://www.w3.org/1999/xlink">
<g id="graph0" class="graph" transform="scale(1 1) rotate(0) translate(4 821.5818)">
<title>twoDegreesRelationshipsDiagram</title>
<polygon fill="#ffffff" stroke="transparent" points="-4,4 -4,-821.5818 1158,-821.5818 1158,4 -4,4"/>
<text text-anchor="middle" x="101.8088" y="-8.8" font-family="Helvetica,sans-Serif" font-size="16.00" fill="#000000">Generated by SchemaSpy</text>
<!-- business_partner_notes -->
<g id="node1" class="node">
<title>business_partner_notes</title>
<g id="a_node1"><a xlink:href="../../tables/business_partner_notes.html" xlink:title="business_partner_notes" target="_top">
<polygon fill="#ffffff" stroke="transparent" points="371,-679.7 371,-758.7 620,-758.7 620,-679.7 371,-679.7"/>
<polygon fill="#f5f5f5" stroke="transparent" points="371.5,-729.2 371.5,-758.2 620.5,-758.2 620.5,-729.2 371.5,-729.2"/>
<polygon fill="none" stroke="#000000" points="371.5,-729.2 371.5,-758.2 620.5,-758.2 620.5,-729.2 371.5,-729.2"/>
<text text-anchor="start" x="376.5" y="-736.3" font-family="Helvetica,sans-Serif" font-weight="bold" font-size="16.00" fill="#000000">business_partner_notes</text>
<text text-anchor="start" x="572.2136" y="-738.8" font-family="Helvetica,sans-Serif" font-size="16.00" fill="#000000">[table]</text>
<polygon fill="none" stroke="#000000" points="371.5,-704.2 371.5,-729.2 620.5,-729.2 620.5,-704.2 371.5,-704.2"/>
<text text-anchor="start" x="374.5" y="-711.8" font-family="Helvetica,sans-Serif" font-size="16.00" fill="#000000">...</text>
<polygon fill="#ffffff" stroke="transparent" points="371.5,-679.2 371.5,-704.2 476.5,-704.2 476.5,-679.2 371.5,-679.2"/>
<polygon fill="none" stroke="#000000" points="371.5,-679.2 371.5,-704.2 476.5,-704.2 476.5,-679.2 371.5,-679.2"/>
<text text-anchor="start" x="374.5" y="-686.8" font-family="Helvetica,sans-Serif" font-size="16.00" fill="#000000">&lt; 1</text>
<polygon fill="#ffffff" stroke="transparent" points="476.5,-679.2 476.5,-704.2 567.5,-704.2 567.5,-679.2 476.5,-679.2"/>
<polygon fill="none" stroke="#000000" points="476.5,-679.2 476.5,-704.2 567.5,-704.2 567.5,-679.2 476.5,-679.2"/>
<text text-anchor="start" x="517.388" y="-686.8" font-family="Helvetica,sans-Serif" font-size="16.00" fill="#000000">0 rows</text>
<polygon fill="#ffffff" stroke="transparent" points="567.5,-679.2 567.5,-704.2 620.5,-704.2 620.5,-679.2 567.5,-679.2"/>
<polygon fill="none" stroke="#000000" points="567.5,-679.2 567.5,-704.2 620.5,-704.2 620.5,-679.2 567.5,-679.2"/>
<text text-anchor="start" x="608.6072" y="-686.8" font-family="Helvetica,sans-Serif" font-size="16.00" fill="#000000"> &#160;</text>
</a>
</g>
</g>
<!-- business_partners -->
<g id="node2" class="node">
<title>business_partners</title>
<g id="a_node2"><a xlink:href="../../tables/business_partners.html" xlink:title="business_partners" target="_top">
<polygon fill="#ffffff" stroke="transparent" points="8,-676.7 8,-755.7 212,-755.7 212,-676.7 8,-676.7"/>
<polygon fill="#f5f5f5" stroke="transparent" points="8,-726.2 8,-755.2 212,-755.2 212,-726.2 8,-726.2"/>
<polygon fill="none" stroke="#000000" points="8,-726.2 8,-755.2 212,-755.2 212,-726.2 8,-726.2"/>
<text text-anchor="start" x="13" y="-733.3" font-family="Helvetica,sans-Serif" font-weight="bold" font-size="16.00" fill="#000000">business_partners</text>
<text text-anchor="start" x="163.7136" y="-735.8" font-family="Helvetica,sans-Serif" font-size="16.00" fill="#000000">[table]</text>
<polygon fill="none" stroke="#000000" points="8,-701.2 8,-726.2 212,-726.2 212,-701.2 8,-701.2"/>
<text text-anchor="start" x="11" y="-708.8" font-family="Helvetica,sans-Serif" font-size="16.00" fill="#000000">...</text>
<polygon fill="#ffffff" stroke="transparent" points="8,-676.2 8,-701.2 76,-701.2 76,-676.2 8,-676.2"/>
<polygon fill="none" stroke="#000000" points="8,-676.2 8,-701.2 76,-701.2 76,-676.2 8,-676.2"/>
<text text-anchor="start" x="11" y="-683.8" font-family="Helvetica,sans-Serif" font-size="16.00" fill="#000000"> &#160;</text>
<polygon fill="#ffffff" stroke="transparent" points="76,-676.2 76,-701.2 156,-701.2 156,-676.2 76,-676.2"/>
<polygon fill="none" stroke="#000000" points="76,-676.2 76,-701.2 156,-701.2 156,-676.2 76,-676.2"/>
<text text-anchor="start" x="105.888" y="-683.8" font-family="Helvetica,sans-Serif" font-size="16.00" fill="#000000">0 rows</text>
<polygon fill="#ffffff" stroke="transparent" points="156,-676.2 156,-701.2 212,-701.2 212,-676.2 156,-676.2"/>
<polygon fill="none" stroke="#000000" points="156,-676.2 156,-701.2 212,-701.2 212,-676.2 156,-676.2"/>
<text text-anchor="start" x="186.3168" y="-683.8" font-family="Helvetica,sans-Serif" font-size="16.00" fill="#000000">3 &gt;</text>
</a>
</g>
</g>
<!-- business_partner_notes&#45;&gt;business_partners -->
<g id="edge1" class="edge">
<title>business_partner_notes:w&#45;&gt;business_partners:e</title>
<path fill="none" stroke="#000000" d="M357.093,-716.2C311.3313,-716.2 262.2902,-716.2 220.0583,-716.2"/>
<polygon fill="#000000" stroke="#000000" points="363.5,-716.2001 371.5,-719.8 367.5,-716.2 371.5,-716.2 371.5,-716.2 371.5,-716.2 367.5,-716.2 371.5,-712.6 363.5,-716.2001 363.5,-716.2001"/>
<ellipse fill="none" stroke="#000000" cx="360.3" cy="-716.2001" rx="3.2" ry="3.2"/>
</g>
<!-- project_notes -->
<g id="node3" class="node">
<title>project_notes</title>
<g id="a_node3"><a xlink:href="../../tables/project_notes.html" xlink:title="project_notes" target="_top">
<polygon fill="#ffffff" stroke="transparent" points="779,-454.7 779,-577.7 943,-577.7 943,-454.7 779,-454.7"/>
<polygon fill="#f5f5f5" stroke="transparent" points="779,-548.2 779,-577.2 943,-577.2 943,-548.2 779,-548.2"/>
<polygon fill="none" stroke="#000000" points="779,-548.2 779,-577.2 943,-577.2 943,-548.2 779,-548.2"/>
<text text-anchor="start" x="784" y="-555.3" font-family="Helvetica,sans-Serif" font-weight="bold" font-size="16.00" fill="#000000">project_notes</text>
<text text-anchor="start" x="894.7136" y="-557.8" font-family="Helvetica,sans-Serif" font-size="16.00" fill="#000000">[table]</text>
<polygon fill="none" stroke="#000000" points="779,-526.2 779,-548.2 943,-548.2 943,-526.2 779,-526.2"/>
<image xlink:href="../../images/primaryKeys.png" width="11px" height="12px" preserveAspectRatio="xMinYMin meet" x="784" y="-543.2"/>
<text text-anchor="start" x="815" y="-528.8" font-family="Helvetica,sans-Serif" font-size="16.00" fill="#000000">id</text>
<polygon fill="#ffffff" stroke="transparent" points="779,-504.2 779,-526.2 943,-526.2 943,-504.2 779,-504.2"/>
<polygon fill="none" stroke="#000000" points="779,-504.2 779,-526.2 943,-526.2 943,-504.2 779,-504.2"/>
<image xlink:href="../../images/foreignKeys.png" width="11px" height="12px" preserveAspectRatio="xMinYMin meet" x="784" y="-521.2"/>
<text text-anchor="start" x="815" y="-506.8" font-family="Helvetica,sans-Serif" font-size="16.00" fill="#000000">project_id</text>
<polygon fill="none" stroke="#000000" points="779,-479.2 779,-504.2 943,-504.2 943,-479.2 779,-479.2"/>
<text text-anchor="start" x="782" y="-486.8" font-family="Helvetica,sans-Serif" font-size="16.00" fill="#000000">...</text>
<polygon fill="#ffffff" stroke="transparent" points="779,-454.2 779,-479.2 841,-479.2 841,-454.2 779,-454.2"/>
<polygon fill="none" stroke="#000000" points="779,-454.2 779,-479.2 841,-479.2 841,-454.2 779,-454.2"/>
<text text-anchor="start" x="782" y="-461.8" font-family="Helvetica,sans-Serif" font-size="16.00" fill="#000000">&lt; 1</text>
<polygon fill="#ffffff" stroke="transparent" points="841,-454.2 841,-479.2 911,-479.2 911,-454.2 841,-454.2"/>
<polygon fill="none" stroke="#000000" points="841,-454.2 841,-479.2 911,-479.2 911,-454.2 841,-454.2"/>
<text text-anchor="start" x="860.888" y="-461.8" font-family="Helvetica,sans-Serif" font-size="16.00" fill="#000000">0 rows</text>
<polygon fill="#ffffff" stroke="transparent" points="911,-454.2 911,-479.2 943,-479.2 943,-454.2 911,-454.2"/>
<polygon fill="none" stroke="#000000" points="911,-454.2 911,-479.2 943,-479.2 943,-454.2 911,-454.2"/>
<text text-anchor="start" x="931.1072" y="-461.8" font-family="Helvetica,sans-Serif" font-size="16.00" fill="#000000"> &#160;</text>
</a>
</g>
</g>
<!-- projects -->
<g id="node4" class="node">
<title>projects</title>
<g id="a_node4"><a xlink:href="../../tables/projects.html" xlink:title="projects" target="_top">
<polygon fill="#ffffff" stroke="transparent" points="261,-50.2 261,-558.2 730,-558.2 730,-50.2 261,-50.2"/>
<polygon fill="#f5f5f5" stroke="transparent" points="263.5,-527.2 263.5,-556.2 728.5,-556.2 728.5,-527.2 263.5,-527.2"/>
<polygon fill="none" stroke="#000000" points="263.5,-527.2 263.5,-556.2 728.5,-556.2 728.5,-527.2 263.5,-527.2"/>
<text text-anchor="start" x="268.5" y="-534.3" font-family="Helvetica,sans-Serif" font-weight="bold" font-size="16.00" fill="#000000">projects</text>
<text text-anchor="start" x="679.9272" y="-536.8" font-family="Helvetica,sans-Serif" font-size="16.00" fill="#000000">[table]</text>
<polygon fill="none" stroke="#000000" points="263.5,-502.2 263.5,-527.2 547.5,-527.2 547.5,-502.2 263.5,-502.2"/>
<image xlink:href="../../images/primaryKeys.png" width="11px" height="12px" preserveAspectRatio="xMinYMin meet" x="268.5" y="-520.7"/>
<text text-anchor="start" x="283.5" y="-506.3" font-family="Helvetica,sans-Serif" font-size="16.00" fill="#000000">id</text>
<polygon fill="none" stroke="#000000" points="547.5,-502.2 547.5,-527.2 728.5,-527.2 728.5,-502.2 547.5,-502.2"/>
<text text-anchor="start" x="550.5" y="-509.8" font-family="Helvetica,sans-Serif" font-size="16.00" fill="#000000">integer[2000000000]</text>
<polygon fill="#ffffff" stroke="transparent" points="263.5,-477.2 263.5,-502.2 547.5,-502.2 547.5,-477.2 263.5,-477.2"/>
<polygon fill="none" stroke="#000000" points="263.5,-477.2 263.5,-502.2 547.5,-502.2 547.5,-477.2 263.5,-477.2"/>
<text text-anchor="start" x="283.5" y="-481.3" font-family="Helvetica,sans-Serif" font-size="16.00" fill="#000000">name</text>
<polygon fill="none" stroke="#000000" points="547.5,-477.2 547.5,-502.2 728.5,-502.2 728.5,-477.2 547.5,-477.2"/>
<text text-anchor="start" x="550.5" y="-484.8" font-family="Helvetica,sans-Serif" font-size="16.00" fill="#000000">text[2000000000]</text>
<polygon fill="none" stroke="#000000" points="263.5,-452.2 263.5,-477.2 547.5,-477.2 547.5,-452.2 263.5,-452.2"/>
<text text-anchor="start" x="283.5" y="-456.3" font-family="Helvetica,sans-Serif" font-size="16.00" fill="#000000">description</text>
<polygon fill="none" stroke="#000000" points="547.5,-452.2 547.5,-477.2 728.5,-477.2 728.5,-452.2 547.5,-452.2"/>
<text text-anchor="start" x="550.5" y="-459.8" font-family="Helvetica,sans-Serif" font-size="16.00" fill="#000000">text[2000000000]</text>
<polygon fill="none" stroke="#000000" points="263.5,-427.2 263.5,-452.2 547.5,-452.2 547.5,-427.2 263.5,-427.2"/>
<text text-anchor="start" x="283.5" y="-431.3" font-family="Helvetica,sans-Serif" font-size="16.00" fill="#000000">status</text>
<polygon fill="none" stroke="#000000" points="547.5,-427.2 547.5,-452.2 728.5,-452.2 728.5,-427.2 547.5,-427.2"/>
<text text-anchor="start" x="550.5" y="-434.8" font-family="Helvetica,sans-Serif" font-size="16.00" fill="#000000">text[2000000000]</text>
<polygon fill="none" stroke="#000000" points="263.5,-402.2 263.5,-427.2 547.5,-427.2 547.5,-402.2 263.5,-402.2"/>
<text text-anchor="start" x="283.5" y="-406.3" font-family="Helvetica,sans-Serif" font-size="16.00" fill="#000000">project_type</text>
<polygon fill="none" stroke="#000000" points="547.5,-402.2 547.5,-427.2 728.5,-427.2 728.5,-402.2 547.5,-402.2"/>
<text text-anchor="start" x="550.5" y="-409.8" font-family="Helvetica,sans-Serif" font-size="16.00" fill="#000000">text[2000000000]</text>
<polygon fill="none" stroke="#000000" points="263.5,-377.2 263.5,-402.2 547.5,-402.2 547.5,-377.2 263.5,-377.2"/>
<text text-anchor="start" x="283.5" y="-381.3" font-family="Helvetica,sans-Serif" font-size="16.00" fill="#000000">priority</text>
<polygon fill="none" stroke="#000000" points="547.5,-377.2 547.5,-402.2 728.5,-402.2 728.5,-377.2 547.5,-377.2"/>
<text text-anchor="start" x="550.5" y="-384.8" font-family="Helvetica,sans-Serif" font-size="16.00" fill="#000000">text[2000000000]</text>
<polygon fill="none" stroke="#000000" points="263.5,-352.2 263.5,-377.2 547.5,-377.2 547.5,-352.2 263.5,-352.2"/>
<image xlink:href="../../images/foreignKeys.png" width="11px" height="12px" preserveAspectRatio="xMinYMin meet" x="268.5" y="-370.7"/>
<text text-anchor="start" x="283.5" y="-356.3" font-family="Helvetica,sans-Serif" font-size="16.00" fill="#000000">business_partner_id</text>
<polygon fill="none" stroke="#000000" points="547.5,-352.2 547.5,-377.2 728.5,-377.2 728.5,-352.2 547.5,-352.2"/>
<text text-anchor="start" x="550.5" y="-359.8" font-family="Helvetica,sans-Serif" font-size="16.00" fill="#000000">integer[2000000000]</text>
<polygon fill="none" stroke="#000000" points="263.5,-327.2 263.5,-352.2 547.5,-352.2 547.5,-327.2 263.5,-327.2"/>
<text text-anchor="start" x="283.5" y="-331.3" font-family="Helvetica,sans-Serif" font-size="16.00" fill="#000000">expected_start_date</text>
<polygon fill="none" stroke="#000000" points="547.5,-327.2 547.5,-352.2 728.5,-352.2 728.5,-327.2 547.5,-327.2"/>
<text text-anchor="start" x="550.5" y="-334.8" font-family="Helvetica,sans-Serif" font-size="16.00" fill="#000000">text[2000000000]</text>
<polygon fill="none" stroke="#000000" points="263.5,-302.2 263.5,-327.2 547.5,-327.2 547.5,-302.2 263.5,-302.2"/>
<text text-anchor="start" x="283.5" y="-306.3" font-family="Helvetica,sans-Serif" font-size="16.00" fill="#000000">expected_end_date</text>
<polygon fill="none" stroke="#000000" points="547.5,-302.2 547.5,-327.2 728.5,-327.2 728.5,-302.2 547.5,-302.2"/>
<text text-anchor="start" x="550.5" y="-309.8" font-family="Helvetica,sans-Serif" font-size="16.00" fill="#000000">text[2000000000]</text>
<polygon fill="none" stroke="#000000" points="263.5,-277.2 263.5,-302.2 547.5,-302.2 547.5,-277.2 263.5,-277.2"/>
<text text-anchor="start" x="283.5" y="-281.3" font-family="Helvetica,sans-Serif" font-size="16.00" fill="#000000">actual_start_date</text>
<polygon fill="none" stroke="#000000" points="547.5,-277.2 547.5,-302.2 728.5,-302.2 728.5,-277.2 547.5,-277.2"/>
<text text-anchor="start" x="550.5" y="-284.8" font-family="Helvetica,sans-Serif" font-size="16.00" fill="#000000">text[2000000000]</text>
<polygon fill="none" stroke="#000000" points="263.5,-252.2 263.5,-277.2 547.5,-277.2 547.5,-252.2 263.5,-252.2"/>
<text text-anchor="start" x="283.5" y="-256.3" font-family="Helvetica,sans-Serif" font-size="16.00" fill="#000000">actual_end_date</text>
<polygon fill="none" stroke="#000000" points="547.5,-252.2 547.5,-277.2 728.5,-277.2 728.5,-252.2 547.5,-252.2"/>
<text text-anchor="start" x="550.5" y="-259.8" font-family="Helvetica,sans-Serif" font-size="16.00" fill="#000000">text[2000000000]</text>
<polygon fill="none" stroke="#000000" points="263.5,-227.2 263.5,-252.2 547.5,-252.2 547.5,-227.2 263.5,-227.2"/>
<text text-anchor="start" x="283.5" y="-231.3" font-family="Helvetica,sans-Serif" font-size="16.00" fill="#000000">estimated_duration</text>
<polygon fill="none" stroke="#000000" points="547.5,-227.2 547.5,-252.2 728.5,-252.2 728.5,-227.2 547.5,-227.2"/>
<text text-anchor="start" x="550.5" y="-234.8" font-family="Helvetica,sans-Serif" font-size="16.00" fill="#000000">integer[2000000000]</text>
<polygon fill="none" stroke="#000000" points="263.5,-202.2 263.5,-227.2 547.5,-227.2 547.5,-202.2 263.5,-202.2"/>
<text text-anchor="start" x="283.5" y="-206.3" font-family="Helvetica,sans-Serif" font-size="16.00" fill="#000000">estimated_duration_time_unit</text>
<polygon fill="none" stroke="#000000" points="547.5,-202.2 547.5,-227.2 728.5,-227.2 728.5,-202.2 547.5,-202.2"/>
<text text-anchor="start" x="550.5" y="-209.8" font-family="Helvetica,sans-Serif" font-size="16.00" fill="#000000">text[2000000000]</text>
<polygon fill="none" stroke="#000000" points="263.5,-177.2 263.5,-202.2 547.5,-202.2 547.5,-177.2 263.5,-177.2"/>
<text text-anchor="start" x="283.5" y="-181.3" font-family="Helvetica,sans-Serif" font-size="16.00" fill="#000000">billable</text>
<polygon fill="none" stroke="#000000" points="547.5,-177.2 547.5,-202.2 728.5,-202.2 728.5,-177.2 547.5,-177.2"/>
<text text-anchor="start" x="550.5" y="-184.8" font-family="Helvetica,sans-Serif" font-size="16.00" fill="#000000">integer[2000000000]</text>
<polygon fill="none" stroke="#000000" points="263.5,-152.2 263.5,-177.2 547.5,-177.2 547.5,-152.2 263.5,-152.2"/>
<text text-anchor="start" x="283.5" y="-156.3" font-family="Helvetica,sans-Serif" font-size="16.00" fill="#000000">estimated_total_billable_amount</text>
<polygon fill="none" stroke="#000000" points="547.5,-152.2 547.5,-177.2 728.5,-177.2 728.5,-152.2 547.5,-152.2"/>
<text text-anchor="start" x="550.4088" y="-159.8" font-family="Helvetica,sans-Serif" font-size="16.00" fill="#000000">decimal[2000000000,10]</text>
<polygon fill="none" stroke="#000000" points="263.5,-127.2 263.5,-152.2 547.5,-152.2 547.5,-127.2 263.5,-127.2"/>
<text text-anchor="start" x="283.5" y="-131.3" font-family="Helvetica,sans-Serif" font-size="16.00" fill="#000000">active</text>
<polygon fill="none" stroke="#000000" points="547.5,-127.2 547.5,-152.2 728.5,-152.2 728.5,-127.2 547.5,-127.2"/>
<text text-anchor="start" x="550.5" y="-134.8" font-family="Helvetica,sans-Serif" font-size="16.00" fill="#000000">integer[2000000000]</text>
<polygon fill="none" stroke="#000000" points="263.5,-102.2 263.5,-127.2 547.5,-127.2 547.5,-102.2 263.5,-102.2"/>
<text text-anchor="start" x="283.5" y="-106.3" font-family="Helvetica,sans-Serif" font-size="16.00" fill="#000000">inserted_at</text>
<polygon fill="none" stroke="#000000" points="547.5,-102.2 547.5,-127.2 728.5,-127.2 728.5,-102.2 547.5,-102.2"/>
<text text-anchor="start" x="550.5" y="-109.8" font-family="Helvetica,sans-Serif" font-size="16.00" fill="#000000">text[2000000000]</text>
<polygon fill="none" stroke="#000000" points="263.5,-77.2 263.5,-102.2 547.5,-102.2 547.5,-77.2 263.5,-77.2"/>
<text text-anchor="start" x="283.5" y="-81.3" font-family="Helvetica,sans-Serif" font-size="16.00" fill="#000000">updated_at</text>
<polygon fill="none" stroke="#000000" points="547.5,-77.2 547.5,-102.2 728.5,-102.2 728.5,-77.2 547.5,-77.2"/>
<text text-anchor="start" x="550.5" y="-84.8" font-family="Helvetica,sans-Serif" font-size="16.00" fill="#000000">text[2000000000]</text>
<polygon fill="#ffffff" stroke="transparent" points="263.5,-52.2 263.5,-77.2 392.5,-77.2 392.5,-52.2 263.5,-52.2"/>
<polygon fill="none" stroke="#000000" points="263.5,-52.2 263.5,-77.2 392.5,-77.2 392.5,-52.2 263.5,-52.2"/>
<text text-anchor="start" x="266.5" y="-59.8" font-family="Helvetica,sans-Serif" font-size="16.00" fill="#000000">&lt; 1</text>
<polygon fill="#ffffff" stroke="transparent" points="392.5,-52.2 392.5,-77.2 547.5,-77.2 547.5,-52.2 392.5,-52.2"/>
<polygon fill="none" stroke="#000000" points="392.5,-52.2 392.5,-77.2 547.5,-77.2 547.5,-52.2 392.5,-52.2"/>
<text text-anchor="start" x="497.388" y="-59.8" font-family="Helvetica,sans-Serif" font-size="16.00" fill="#000000">0 rows</text>
<polygon fill="#ffffff" stroke="transparent" points="547.5,-52.2 547.5,-77.2 728.5,-77.2 728.5,-52.2 547.5,-52.2"/>
<polygon fill="none" stroke="#000000" points="547.5,-52.2 547.5,-77.2 728.5,-77.2 728.5,-52.2 547.5,-52.2"/>
<text text-anchor="start" x="702.8168" y="-59.8" font-family="Helvetica,sans-Serif" font-size="16.00" fill="#000000">3 &gt;</text>
<polygon fill="none" stroke="#000000" stroke-width="2" points="262,-51.2 262,-557.2 729,-557.2 729,-51.2 262,-51.2"/>
</a>
</g>
</g>
<!-- project_notes&#45;&gt;projects -->
<g id="edge2" class="edge">
<title>project_notes:w&#45;&gt;projects:e</title>
<path fill="none" stroke="#000000" d="M764.4203,-515.2C752.5435,-515.2 745.158,-515.2 728.5,-515.2"/>
<polygon fill="#000000" stroke="#000000" points="771,-515.2001 779,-518.8 775,-515.2 779,-515.2 779,-515.2 779,-515.2 775,-515.2 779,-511.6 771,-515.2001 771,-515.2001"/>
<ellipse fill="none" stroke="#000000" cx="767.8" cy="-515.2001" rx="3.2" ry="3.2"/>
</g>
<!-- projects&#45;&gt;business_partners -->
<g id="edge5" class="edge">
<title>projects:w&#45;&gt;business_partners:e</title>
<path fill="none" stroke="#000000" d="M249.2856,-368.4142C189.2199,-395.387 139.4365,-585.1632 119.4358,-672.4553"/>
<polygon fill="#000000" stroke="#000000" points="255.697,-366.9645 264.294,-368.7113 259.5985,-366.0823 263.5,-365.2 263.5,-365.2 263.5,-365.2 259.5985,-366.0823 262.706,-361.6887 255.697,-366.9645 255.697,-366.9645"/>
<ellipse fill="none" stroke="#000000" cx="252.5758" cy="-367.6703" rx="3.2" ry="3.2"/>
</g>
<!-- project_tags -->
<g id="node5" class="node">
<title>project_tags</title>
<g id="a_node5"><a xlink:href="../../tables/project_tags.html" xlink:title="project_tags" target="_top">
<polygon fill="#ffffff" stroke="transparent" points="992,-289.7 992,-434.7 1146,-434.7 1146,-289.7 992,-289.7"/>
<polygon fill="#f5f5f5" stroke="transparent" points="992,-405.2 992,-434.2 1146,-434.2 1146,-405.2 992,-405.2"/>
<polygon fill="none" stroke="#000000" points="992,-405.2 992,-434.2 1146,-434.2 1146,-405.2 992,-405.2"/>
<text text-anchor="start" x="997" y="-412.3" font-family="Helvetica,sans-Serif" font-weight="bold" font-size="16.00" fill="#000000">project_tags</text>
<text text-anchor="start" x="1097.7136" y="-414.8" font-family="Helvetica,sans-Serif" font-size="16.00" fill="#000000">[table]</text>
<polygon fill="none" stroke="#000000" points="992,-383.2 992,-405.2 1146,-405.2 1146,-383.2 992,-383.2"/>
<image xlink:href="../../images/primaryKeys.png" width="11px" height="12px" preserveAspectRatio="xMinYMin meet" x="997" y="-400.2"/>
<text text-anchor="start" x="1028" y="-385.8" font-family="Helvetica,sans-Serif" font-size="16.00" fill="#000000">id</text>
<polygon fill="#ffffff" stroke="transparent" points="992,-361.2 992,-383.2 1146,-383.2 1146,-361.2 992,-361.2"/>
<polygon fill="none" stroke="#000000" points="992,-361.2 992,-383.2 1146,-383.2 1146,-361.2 992,-361.2"/>
<image xlink:href="../../images/foreignKeys.png" width="11px" height="12px" preserveAspectRatio="xMinYMin meet" x="997" y="-378.2"/>
<text text-anchor="start" x="1028" y="-363.8" font-family="Helvetica,sans-Serif" font-size="16.00" fill="#000000">tag_id</text>
<polygon fill="#ffffff" stroke="transparent" points="992,-339.2 992,-361.2 1146,-361.2 1146,-339.2 992,-339.2"/>
<polygon fill="none" stroke="#000000" points="992,-339.2 992,-361.2 1146,-361.2 1146,-339.2 992,-339.2"/>
<image xlink:href="../../images/foreignKeys.png" width="11px" height="12px" preserveAspectRatio="xMinYMin meet" x="997" y="-356.2"/>
<text text-anchor="start" x="1028" y="-341.8" font-family="Helvetica,sans-Serif" font-size="16.00" fill="#000000">project_id</text>
<polygon fill="none" stroke="#000000" points="992,-314.2 992,-339.2 1146,-339.2 1146,-314.2 992,-314.2"/>
<text text-anchor="start" x="995" y="-321.8" font-family="Helvetica,sans-Serif" font-size="16.00" fill="#000000">...</text>
<polygon fill="#ffffff" stroke="transparent" points="992,-289.2 992,-314.2 1049,-314.2 1049,-289.2 992,-289.2"/>
<polygon fill="none" stroke="#000000" points="992,-289.2 992,-314.2 1049,-314.2 1049,-289.2 992,-289.2"/>
<text text-anchor="start" x="995" y="-296.8" font-family="Helvetica,sans-Serif" font-size="16.00" fill="#000000">&lt; 2</text>
<polygon fill="#ffffff" stroke="transparent" points="1049,-289.2 1049,-314.2 1117,-314.2 1117,-289.2 1049,-289.2"/>
<polygon fill="none" stroke="#000000" points="1049,-289.2 1049,-314.2 1117,-314.2 1117,-289.2 1049,-289.2"/>
<text text-anchor="start" x="1066.888" y="-296.8" font-family="Helvetica,sans-Serif" font-size="16.00" fill="#000000">0 rows</text>
<polygon fill="#ffffff" stroke="transparent" points="1117,-289.2 1117,-314.2 1146,-314.2 1146,-289.2 1117,-289.2"/>
<polygon fill="none" stroke="#000000" points="1117,-289.2 1117,-314.2 1146,-314.2 1146,-289.2 1117,-289.2"/>
<text text-anchor="start" x="1134.1072" y="-296.8" font-family="Helvetica,sans-Serif" font-size="16.00" fill="#000000"> &#160;</text>
</a>
</g>
</g>
<!-- project_tags&#45;&gt;projects -->
<g id="edge3" class="edge">
<title>project_tags:w&#45;&gt;projects:e</title>
<path fill="none" stroke="#000000" d="M977.4565,-348.9761C969.2933,-347.4979 963.3408,-345.0982 951,-344.2 871.2111,-338.3927 834.0225,-294.9236 771,-344.2 709.3071,-392.4367 806.8121,-515.2 728.5,-515.2"/>
<polygon fill="#000000" stroke="#000000" points="984.0282,-349.5291 991.6981,-353.7873 988.0141,-349.8645 992,-350.2 992,-350.2 992,-350.2 988.0141,-349.8645 992.3019,-346.6127 984.0282,-349.5291 984.0282,-349.5291"/>
<ellipse fill="none" stroke="#000000" cx="980.8395" cy="-349.2607" rx="3.2" ry="3.2"/>
</g>
<!-- tags -->
<g id="node6" class="node">
<title>tags</title>
<g id="a_node6"><a xlink:href="../../tables/tags.html" xlink:title="tags" target="_top">
<polygon fill="#ffffff" stroke="transparent" points="813.5,-354.7 813.5,-433.7 908.5,-433.7 908.5,-354.7 813.5,-354.7"/>
<polygon fill="#f5f5f5" stroke="transparent" points="814,-404.2 814,-433.2 909,-433.2 909,-404.2 814,-404.2"/>
<polygon fill="none" stroke="#000000" points="814,-404.2 814,-433.2 909,-433.2 909,-404.2 814,-404.2"/>
<text text-anchor="start" x="818.8824" y="-411.3" font-family="Helvetica,sans-Serif" font-weight="bold" font-size="16.00" fill="#000000">tags</text>
<text text-anchor="start" x="860.4272" y="-413.8" font-family="Helvetica,sans-Serif" font-size="16.00" fill="#000000">[table]</text>
<polygon fill="none" stroke="#000000" points="814,-379.2 814,-404.2 909,-404.2 909,-379.2 814,-379.2"/>
<text text-anchor="start" x="817" y="-386.8" font-family="Helvetica,sans-Serif" font-size="16.00" fill="#000000">...</text>
<polygon fill="#ffffff" stroke="transparent" points="814,-354.2 814,-379.2 828,-379.2 828,-354.2 814,-354.2"/>
<polygon fill="none" stroke="#000000" points="814,-354.2 814,-379.2 828,-379.2 828,-354.2 814,-354.2"/>
<text text-anchor="start" x="816.5536" y="-361.8" font-family="Helvetica,sans-Serif" font-size="16.00" fill="#000000"> &#160;</text>
<polygon fill="#ffffff" stroke="transparent" points="828,-354.2 828,-379.2 881,-379.2 881,-354.2 828,-354.2"/>
<polygon fill="none" stroke="#000000" points="828,-354.2 828,-379.2 881,-379.2 881,-354.2 828,-354.2"/>
<text text-anchor="start" x="830.944" y="-361.8" font-family="Helvetica,sans-Serif" font-size="16.00" fill="#000000">0 rows</text>
<polygon fill="#ffffff" stroke="transparent" points="881,-354.2 881,-379.2 909,-379.2 909,-354.2 881,-354.2"/>
<polygon fill="none" stroke="#000000" points="881,-354.2 881,-379.2 909,-379.2 909,-354.2 881,-354.2"/>
<text text-anchor="start" x="883.6584" y="-361.8" font-family="Helvetica,sans-Serif" font-size="16.00" fill="#000000">2 &gt;</text>
</a>
</g>
</g>
<!-- project_tags&#45;&gt;tags -->
<g id="edge4" class="edge">
<title>project_tags:w&#45;&gt;tags:e</title>
<path fill="none" stroke="#000000" d="M977.3203,-373.276C951.405,-377.2953 941.3736,-391.2 909,-391.2"/>
<polygon fill="#000000" stroke="#000000" points="984.0214,-372.7848 992.2632,-375.7904 988.0107,-372.4924 992,-372.2 992,-372.2 992,-372.2 988.0107,-372.4924 991.7368,-368.6096 984.0214,-372.7848 984.0214,-372.7848"/>
<ellipse fill="none" stroke="#000000" cx="980.83" cy="-373.0188" rx="3.2" ry="3.2"/>
</g>
<!-- timer_notes -->
<g id="node7" class="node">
<title>timer_notes</title>
<g id="a_node7"><a xlink:href="../../tables/timer_notes.html" xlink:title="timer_notes" target="_top">
<polygon fill="#ffffff" stroke="transparent" points="994.5,-601.7 994.5,-680.7 1143.5,-680.7 1143.5,-601.7 994.5,-601.7"/>
<polygon fill="#f5f5f5" stroke="transparent" points="995,-651.2 995,-680.2 1144,-680.2 1144,-651.2 995,-651.2"/>
<polygon fill="none" stroke="#000000" points="995,-651.2 995,-680.2 1144,-680.2 1144,-651.2 995,-651.2"/>
<text text-anchor="start" x="1000" y="-658.3" font-family="Helvetica,sans-Serif" font-weight="bold" font-size="16.00" fill="#000000">timer_notes</text>
<text text-anchor="start" x="1095.7136" y="-660.8" font-family="Helvetica,sans-Serif" font-size="16.00" fill="#000000">[table]</text>
<polygon fill="none" stroke="#000000" points="995,-626.2 995,-651.2 1144,-651.2 1144,-626.2 995,-626.2"/>
<text text-anchor="start" x="998" y="-633.8" font-family="Helvetica,sans-Serif" font-size="16.00" fill="#000000">...</text>
<polygon fill="#ffffff" stroke="transparent" points="995,-601.2 995,-626.2 1050,-626.2 1050,-601.2 995,-601.2"/>
<polygon fill="none" stroke="#000000" points="995,-601.2 995,-626.2 1050,-626.2 1050,-601.2 995,-601.2"/>
<text text-anchor="start" x="998" y="-608.8" font-family="Helvetica,sans-Serif" font-size="16.00" fill="#000000">&lt; 1</text>
<polygon fill="#ffffff" stroke="transparent" points="1050,-601.2 1050,-626.2 1116,-626.2 1116,-601.2 1050,-601.2"/>
<polygon fill="none" stroke="#000000" points="1050,-601.2 1050,-626.2 1116,-626.2 1116,-601.2 1050,-601.2"/>
<text text-anchor="start" x="1065.888" y="-608.8" font-family="Helvetica,sans-Serif" font-size="16.00" fill="#000000">0 rows</text>
<polygon fill="#ffffff" stroke="transparent" points="1116,-601.2 1116,-626.2 1144,-626.2 1144,-601.2 1116,-601.2"/>
<polygon fill="none" stroke="#000000" points="1116,-601.2 1116,-626.2 1144,-626.2 1144,-601.2 1116,-601.2"/>
<text text-anchor="start" x="1132.1072" y="-608.8" font-family="Helvetica,sans-Serif" font-size="16.00" fill="#000000"> &#160;</text>
</a>
</g>
</g>
<!-- timers -->
<g id="node8" class="node">
<title>timers</title>
<g id="a_node8"><a xlink:href="../../tables/timers.html" xlink:title="timers" target="_top">
<polygon fill="#ffffff" stroke="transparent" points="806.5,-598.7 806.5,-677.7 915.5,-677.7 915.5,-598.7 806.5,-598.7"/>
<polygon fill="#f5f5f5" stroke="transparent" points="807,-648.2 807,-677.2 916,-677.2 916,-648.2 807,-648.2"/>
<polygon fill="none" stroke="#000000" points="807,-648.2 807,-677.2 916,-677.2 916,-648.2 807,-648.2"/>
<text text-anchor="start" x="812" y="-655.3" font-family="Helvetica,sans-Serif" font-weight="bold" font-size="16.00" fill="#000000">timers</text>
<text text-anchor="start" x="867.4272" y="-657.8" font-family="Helvetica,sans-Serif" font-size="16.00" fill="#000000">[table]</text>
<polygon fill="none" stroke="#000000" points="807,-623.2 807,-648.2 916,-648.2 916,-623.2 807,-623.2"/>
<text text-anchor="start" x="810" y="-630.8" font-family="Helvetica,sans-Serif" font-size="16.00" fill="#000000">...</text>
<polygon fill="#ffffff" stroke="transparent" points="807,-598.2 807,-623.2 835,-623.2 835,-598.2 807,-598.2"/>
<polygon fill="none" stroke="#000000" points="807,-598.2 807,-623.2 835,-623.2 835,-598.2 807,-598.2"/>
<text text-anchor="start" x="809.6584" y="-605.8" font-family="Helvetica,sans-Serif" font-size="16.00" fill="#000000">&lt; 3</text>
<polygon fill="#ffffff" stroke="transparent" points="835,-598.2 835,-623.2 888,-623.2 888,-598.2 835,-598.2"/>
<polygon fill="none" stroke="#000000" points="835,-598.2 835,-623.2 888,-623.2 888,-598.2 835,-598.2"/>
<text text-anchor="start" x="837.944" y="-605.8" font-family="Helvetica,sans-Serif" font-size="16.00" fill="#000000">0 rows</text>
<polygon fill="#ffffff" stroke="transparent" points="888,-598.2 888,-623.2 916,-623.2 916,-598.2 888,-598.2"/>
<polygon fill="none" stroke="#000000" points="888,-598.2 888,-623.2 916,-623.2 916,-598.2 888,-598.2"/>
<text text-anchor="start" x="890.6584" y="-605.8" font-family="Helvetica,sans-Serif" font-size="16.00" fill="#000000">2 &gt;</text>
</a>
</g>
</g>
<!-- timer_notes&#45;&gt;timers -->
<g id="edge6" class="edge">
<title>timer_notes:w&#45;&gt;timers:e</title>
<path fill="none" stroke="#000000" d="M980.587,-638.2C961.4882,-638.2 941.6335,-638.2 923.7174,-638.2"/>
<polygon fill="#000000" stroke="#000000" points="987,-638.2001 995,-641.8 991,-638.2 995,-638.2 995,-638.2 995,-638.2 991,-638.2 995,-634.6 987,-638.2001 987,-638.2001"/>
<ellipse fill="none" stroke="#000000" cx="983.8" cy="-638.2001" rx="3.2" ry="3.2"/>
</g>
<!-- timers&#45;&gt;business_partners -->
<g id="edge10" class="edge">
<title>timers:w&#45;&gt;business_partners:e</title>
<path fill="none" stroke="#000000" d="M825.5169,-693.7502C804.0129,-722.0525 773.8241,-753.696 738,-769.2 540.1759,-854.8143 465.1701,-807.2535 253,-769.2 240.3605,-766.9331 227.3775,-763.6228 214.635,-759.7458"/>
<polygon fill="#000000" stroke="#000000" points="829.4713,-688.3405 837.0987,-684.0065 831.8318,-685.1113 834.1923,-681.8821 834.1923,-681.8821 834.1923,-681.8821 831.8318,-685.1113 831.286,-679.7576 829.4713,-688.3405 829.4713,-688.3405"/>
<ellipse fill="none" stroke="#000000" cx="827.5829" cy="-690.9239" rx="3.2" ry="3.2"/>
</g>
<!-- timers&#45;&gt;projects -->
<g id="edge11" class="edge">
<title>timers:w&#45;&gt;projects:e</title>
<path fill="none" stroke="#000000" d="M786.2087,-601.0056C780.7977,-597.0291 775.6495,-592.7568 771,-588.2 744.1878,-561.922 766.0424,-515.2 728.5,-515.2"/>
<polygon fill="#000000" stroke="#000000" points="791.7542,-604.7539 796.3663,-612.2165 795.0682,-606.9939 798.3822,-609.2339 798.3822,-609.2339 798.3822,-609.2339 795.0682,-606.9939 800.3982,-606.2513 791.7542,-604.7539 791.7542,-604.7539"/>
<ellipse fill="none" stroke="#000000" cx="789.1031" cy="-602.9619" rx="3.2" ry="3.2"/>
</g>
<!-- activity_types -->
<g id="node10" class="node">
<title>activity_types</title>
<g id="a_node10"><a xlink:href="../../tables/activity_types.html" xlink:title="activity_types" target="_top">
<polygon fill="#ffffff" stroke="transparent" points="413,-579.7 413,-658.7 578,-658.7 578,-579.7 413,-579.7"/>
<polygon fill="#f5f5f5" stroke="transparent" points="413.5,-629.2 413.5,-658.2 578.5,-658.2 578.5,-629.2 413.5,-629.2"/>
<polygon fill="none" stroke="#000000" points="413.5,-629.2 413.5,-658.2 578.5,-658.2 578.5,-629.2 413.5,-629.2"/>
<text text-anchor="start" x="418.5" y="-636.3" font-family="Helvetica,sans-Serif" font-weight="bold" font-size="16.00" fill="#000000">activity_types</text>
<text text-anchor="start" x="530.2136" y="-638.8" font-family="Helvetica,sans-Serif" font-size="16.00" fill="#000000">[table]</text>
<polygon fill="none" stroke="#000000" points="413.5,-604.2 413.5,-629.2 578.5,-629.2 578.5,-604.2 413.5,-604.2"/>
<text text-anchor="start" x="416.5" y="-611.8" font-family="Helvetica,sans-Serif" font-size="16.00" fill="#000000">...</text>
<polygon fill="#ffffff" stroke="transparent" points="413.5,-579.2 413.5,-604.2 462.5,-604.2 462.5,-579.2 413.5,-579.2"/>
<polygon fill="none" stroke="#000000" points="413.5,-579.2 413.5,-604.2 462.5,-604.2 462.5,-579.2 413.5,-579.2"/>
<text text-anchor="start" x="416.5" y="-586.8" font-family="Helvetica,sans-Serif" font-size="16.00" fill="#000000"> &#160;</text>
<polygon fill="#ffffff" stroke="transparent" points="462.5,-579.2 462.5,-604.2 532.5,-604.2 532.5,-579.2 462.5,-579.2"/>
<polygon fill="none" stroke="#000000" points="462.5,-579.2 462.5,-604.2 532.5,-604.2 532.5,-579.2 462.5,-579.2"/>
<text text-anchor="start" x="482.388" y="-586.8" font-family="Helvetica,sans-Serif" font-size="16.00" fill="#000000">0 rows</text>
<polygon fill="#ffffff" stroke="transparent" points="532.5,-579.2 532.5,-604.2 578.5,-604.2 578.5,-579.2 532.5,-579.2"/>
<polygon fill="none" stroke="#000000" points="532.5,-579.2 532.5,-604.2 578.5,-604.2 578.5,-579.2 532.5,-579.2"/>
<text text-anchor="start" x="552.8168" y="-586.8" font-family="Helvetica,sans-Serif" font-size="16.00" fill="#000000">1 &gt;</text>
</a>
</g>
</g>
<!-- timers&#45;&gt;activity_types -->
<g id="edge9" class="edge">
<title>timers:w&#45;&gt;activity_types:e</title>
<path fill="none" stroke="#000000" d="M783.6287,-628.9168C726.9273,-622.9087 648.0437,-616.2 578.5,-616.2"/>
<polygon fill="#000000" stroke="#000000" points="790.3222,-629.6428 797.8874,-634.0845 794.2989,-630.0741 798.2756,-630.5055 798.2756,-630.5055 798.2756,-630.5055 794.2989,-630.0741 798.6638,-626.9265 790.3222,-629.6428 790.3222,-629.6428"/>
<ellipse fill="none" stroke="#000000" cx="787.1409" cy="-629.2977" rx="3.2" ry="3.2"/>
</g>
<!-- timer_tags -->
<g id="node9" class="node">
<title>timer_tags</title>
<g id="a_node9"><a xlink:href="../../tables/timer_tags.html" xlink:title="timer_tags" target="_top">
<polygon fill="#ffffff" stroke="transparent" points="1000,-478.7 1000,-557.7 1138,-557.7 1138,-478.7 1000,-478.7"/>
<polygon fill="#f5f5f5" stroke="transparent" points="1000,-528.2 1000,-557.2 1138,-557.2 1138,-528.2 1000,-528.2"/>
<polygon fill="none" stroke="#000000" points="1000,-528.2 1000,-557.2 1138,-557.2 1138,-528.2 1000,-528.2"/>
<text text-anchor="start" x="1005" y="-535.3" font-family="Helvetica,sans-Serif" font-weight="bold" font-size="16.00" fill="#000000">timer_tags</text>
<text text-anchor="start" x="1089.7136" y="-537.8" font-family="Helvetica,sans-Serif" font-size="16.00" fill="#000000">[table]</text>
<polygon fill="none" stroke="#000000" points="1000,-503.2 1000,-528.2 1138,-528.2 1138,-503.2 1000,-503.2"/>
<text text-anchor="start" x="1003" y="-510.8" font-family="Helvetica,sans-Serif" font-size="16.00" fill="#000000">...</text>
<polygon fill="#ffffff" stroke="transparent" points="1000,-478.2 1000,-503.2 1049,-503.2 1049,-478.2 1000,-478.2"/>
<polygon fill="none" stroke="#000000" points="1000,-478.2 1000,-503.2 1049,-503.2 1049,-478.2 1000,-478.2"/>
<text text-anchor="start" x="1003" y="-485.8" font-family="Helvetica,sans-Serif" font-size="16.00" fill="#000000">&lt; 2</text>
<polygon fill="#ffffff" stroke="transparent" points="1049,-478.2 1049,-503.2 1113,-503.2 1113,-478.2 1049,-478.2"/>
<polygon fill="none" stroke="#000000" points="1049,-478.2 1049,-503.2 1113,-503.2 1113,-478.2 1049,-478.2"/>
<text text-anchor="start" x="1062.888" y="-485.8" font-family="Helvetica,sans-Serif" font-size="16.00" fill="#000000">0 rows</text>
<polygon fill="#ffffff" stroke="transparent" points="1113,-478.2 1113,-503.2 1138,-503.2 1138,-478.2 1113,-478.2"/>
<polygon fill="none" stroke="#000000" points="1113,-478.2 1113,-503.2 1138,-503.2 1138,-478.2 1113,-478.2"/>
<text text-anchor="start" x="1126.1072" y="-485.8" font-family="Helvetica,sans-Serif" font-size="16.00" fill="#000000"> &#160;</text>
</a>
</g>
</g>
<!-- timer_tags&#45;&gt;tags -->
<g id="edge7" class="edge">
<title>timer_tags:w&#45;&gt;tags:e</title>
<path fill="none" stroke="#000000" d="M985.6552,-512.9419C938.2313,-496.1358 971.8852,-391.2 909,-391.2"/>
<polygon fill="#000000" stroke="#000000" points="992.0973,-513.9559 999.4402,-518.7562 996.0487,-514.578 1000,-515.2 1000,-515.2 1000,-515.2 996.0487,-514.578 1000.5598,-511.6438 992.0973,-513.9559 992.0973,-513.9559"/>
<ellipse fill="none" stroke="#000000" cx="988.9362" cy="-513.4583" rx="3.2" ry="3.2"/>
</g>
<!-- timer_tags&#45;&gt;timers -->
<g id="edge8" class="edge">
<title>timer_tags:w&#45;&gt;timers:e</title>
<path fill="none" stroke="#000000" d="M985.8007,-518.2057C965.5605,-528.9179 975.3848,-565.7834 951,-588.2 942.8414,-595.7001 933.3557,-602.5 923.6643,-608.4991"/>
<polygon fill="#000000" stroke="#000000" points="992.1734,-516.8568 1000.7455,-518.722 996.0867,-516.0284 1000,-515.2 1000,-515.2 1000,-515.2 996.0867,-516.0284 999.2545,-511.678 992.1734,-516.8568 992.1734,-516.8568"/>
<ellipse fill="none" stroke="#000000" cx="989.0428" cy="-517.5195" rx="3.2" ry="3.2"/>
</g>
</g>
</svg>
