<?xml version="1.0" encoding="UTF-8" standalone="no"?>
<!DOCTYPE svg PUBLIC "-//W3C//DTD SVG 1.1//EN"
 "http://www.w3.org/Graphics/SVG/1.1/DTD/svg11.dtd">
<!-- Generated by graphviz version 2.40.1 (20161225.0304)
 -->
<!-- Title: oneDegreeRelationshipsDiagram Pages: 1 -->
<svg width="360pt" height="170pt"
 viewBox="0.00 0.00 360.00 170.20" xmlns="http://www.w3.org/2000/svg" xmlns:xlink="http://www.w3.org/1999/xlink">
<g id="graph0" class="graph" transform="scale(1 1) rotate(0) translate(4 166.2)">
<title>oneDegreeRelationshipsDiagram</title>
<polygon fill="#ffffff" stroke="transparent" points="-4,4 -4,-166.2 356,-166.2 356,4 -4,4"/>
<text text-anchor="middle" x="101.8088" y="-8.8" font-family="Helvetica,sans-Serif" font-size="16.00" fill="#000000">Generated by SchemaSpy</text>
<!-- schema_migrations -->
<g id="node1" class="node">
<title>schema_migrations</title>
<g id="a_node1"><a xlink:href="../../tables/schema_migrations.html" xlink:title="schema_migrations" target="_top">
<polygon fill="#ffffff" stroke="transparent" points="8,-50.2 8,-158.2 344,-158.2 344,-50.2 8,-50.2"/>
<polygon fill="#f5f5f5" stroke="transparent" points="10,-127.2 10,-156.2 342,-156.2 342,-127.2 10,-127.2"/>
<polygon fill="none" stroke="#000000" points="10,-127.2 10,-156.2 342,-156.2 342,-127.2 10,-127.2"/>
<text text-anchor="start" x="15" y="-134.3" font-family="Helvetica,sans-Serif" font-weight="bold" font-size="16.00" fill="#000000">schema_migrations</text>
<text text-anchor="start" x="293.4272" y="-136.8" font-family="Helvetica,sans-Serif" font-size="16.00" fill="#000000">[table]</text>
<polygon fill="none" stroke="#000000" points="10,-102.2 10,-127.2 190,-127.2 190,-102.2 10,-102.2"/>
<image xlink:href="../../images/primaryKeys.png" width="11px" height="12px" preserveAspectRatio="xMinYMin meet" x="15" y="-120.7"/>
<text text-anchor="start" x="30" y="-106.3" font-family="Helvetica,sans-Serif" font-size="16.00" fill="#000000">version</text>
<polygon fill="none" stroke="#000000" points="190,-102.2 190,-127.2 342,-127.2 342,-102.2 190,-102.2"/>
<text text-anchor="start" x="192.6312" y="-109.8" font-family="Helvetica,sans-Serif" font-size="16.00" fill="#000000">integer[2000000000]</text>
<polygon fill="none" stroke="#000000" points="10,-77.2 10,-102.2 190,-102.2 190,-77.2 10,-77.2"/>
<text text-anchor="start" x="30" y="-81.3" font-family="Helvetica,sans-Serif" font-size="16.00" fill="#000000">inserted_at</text>
<polygon fill="none" stroke="#000000" points="190,-77.2 190,-102.2 342,-102.2 342,-77.2 190,-77.2"/>
<text text-anchor="start" x="193" y="-84.8" font-family="Helvetica,sans-Serif" font-size="16.00" fill="#000000">text[2000000000]</text>
<polygon fill="#ffffff" stroke="transparent" points="10,-52.2 10,-77.2 83,-77.2 83,-52.2 10,-52.2"/>
<polygon fill="none" stroke="#000000" points="10,-52.2 10,-77.2 83,-77.2 83,-52.2 10,-52.2"/>
<text text-anchor="start" x="13" y="-59.8" font-family="Helvetica,sans-Serif" font-size="16.00" fill="#000000">&lt; 0</text>
<polygon fill="#ffffff" stroke="transparent" points="83,-52.2 83,-77.2 190,-77.2 190,-52.2 83,-52.2"/>
<polygon fill="none" stroke="#000000" points="83,-52.2 83,-77.2 190,-77.2 190,-52.2 83,-52.2"/>
<text text-anchor="start" x="130.9936" y="-59.8" font-family="Helvetica,sans-Serif" font-size="16.00" fill="#000000">10 rows</text>
<polygon fill="#ffffff" stroke="transparent" points="190,-52.2 190,-77.2 342,-77.2 342,-52.2 190,-52.2"/>
<polygon fill="none" stroke="#000000" points="190,-52.2 190,-77.2 342,-77.2 342,-52.2 190,-52.2"/>
<text text-anchor="start" x="316.3168" y="-59.8" font-family="Helvetica,sans-Serif" font-size="16.00" fill="#000000">0 &gt;</text>
<polygon fill="none" stroke="#000000" stroke-width="2" points="9,-51.2 9,-157.2 343,-157.2 343,-51.2 9,-51.2"/>
</a>
</g>
</g>
</g>
</svg>
