<?xml version="1.0" encoding="UTF-8" standalone="no"?>
<!DOCTYPE svg PUBLIC "-//W3C//DTD SVG 1.1//EN"
 "http://www.w3.org/Graphics/SVG/1.1/DTD/svg11.dtd">
<!-- Generated by graphviz version 2.40.1 (20161225.0304)
 -->
<!-- Title: oneDegreeRelationshipsDiagram Pages: 1 -->
<svg width="495pt" height="397pt"
 viewBox="0.00 0.00 495.00 397.20" xmlns="http://www.w3.org/2000/svg" xmlns:xlink="http://www.w3.org/1999/xlink">
<g id="graph0" class="graph" transform="scale(1 1) rotate(0) translate(4 393.2)">
<title>oneDegreeRelationshipsDiagram</title>
<polygon fill="#ffffff" stroke="transparent" points="-4,4 -4,-393.2 491,-393.2 491,4 -4,4"/>
<text text-anchor="middle" x="101.8088" y="-8.8" font-family="Helvetica,sans-Serif" font-size="16.00" fill="#000000">Generated by SchemaSpy</text>
<!-- project_tags -->
<g id="node1" class="node">
<title>project_tags</title>
<g id="a_node1"><a xlink:href="../../tables/project_tags.html" xlink:title="project_tags" target="_top">
<polygon fill="#ffffff" stroke="transparent" points="325,-240.2 325,-385.2 479,-385.2 479,-240.2 325,-240.2"/>
<polygon fill="#f5f5f5" stroke="transparent" points="325,-355.7 325,-384.7 479,-384.7 479,-355.7 325,-355.7"/>
<polygon fill="none" stroke="#000000" points="325,-355.7 325,-384.7 479,-384.7 479,-355.7 325,-355.7"/>
<text text-anchor="start" x="330" y="-362.8" font-family="Helvetica,sans-Serif" font-weight="bold" font-size="16.00" fill="#000000">project_tags</text>
<text text-anchor="start" x="430.7136" y="-365.3" font-family="Helvetica,sans-Serif" font-size="16.00" fill="#000000">[table]</text>
<polygon fill="none" stroke="#000000" points="325,-333.7 325,-355.7 479,-355.7 479,-333.7 325,-333.7"/>
<image xlink:href="../../images/primaryKeys.png" width="11px" height="12px" preserveAspectRatio="xMinYMin meet" x="330" y="-350.7"/>
<text text-anchor="start" x="361" y="-336.3" font-family="Helvetica,sans-Serif" font-size="16.00" fill="#000000">id</text>
<polygon fill="#ffffff" stroke="transparent" points="325,-311.7 325,-333.7 479,-333.7 479,-311.7 325,-311.7"/>
<polygon fill="none" stroke="#000000" points="325,-311.7 325,-333.7 479,-333.7 479,-311.7 325,-311.7"/>
<image xlink:href="../../images/foreignKeys.png" width="11px" height="12px" preserveAspectRatio="xMinYMin meet" x="330" y="-328.7"/>
<text text-anchor="start" x="361" y="-314.3" font-family="Helvetica,sans-Serif" font-size="16.00" fill="#000000">tag_id</text>
<polygon fill="#ffffff" stroke="transparent" points="325,-289.7 325,-311.7 479,-311.7 479,-289.7 325,-289.7"/>
<polygon fill="none" stroke="#000000" points="325,-289.7 325,-311.7 479,-311.7 479,-289.7 325,-289.7"/>
<image xlink:href="../../images/foreignKeys.png" width="11px" height="12px" preserveAspectRatio="xMinYMin meet" x="330" y="-306.7"/>
<text text-anchor="start" x="361" y="-292.3" font-family="Helvetica,sans-Serif" font-size="16.00" fill="#000000">project_id</text>
<polygon fill="none" stroke="#000000" points="325,-264.7 325,-289.7 479,-289.7 479,-264.7 325,-264.7"/>
<text text-anchor="start" x="328" y="-272.3" font-family="Helvetica,sans-Serif" font-size="16.00" fill="#000000">...</text>
<polygon fill="#ffffff" stroke="transparent" points="325,-239.7 325,-264.7 382,-264.7 382,-239.7 325,-239.7"/>
<polygon fill="none" stroke="#000000" points="325,-239.7 325,-264.7 382,-264.7 382,-239.7 325,-239.7"/>
<text text-anchor="start" x="328" y="-247.3" font-family="Helvetica,sans-Serif" font-size="16.00" fill="#000000">&lt; 2</text>
<polygon fill="#ffffff" stroke="transparent" points="382,-239.7 382,-264.7 450,-264.7 450,-239.7 382,-239.7"/>
<polygon fill="none" stroke="#000000" points="382,-239.7 382,-264.7 450,-264.7 450,-239.7 382,-239.7"/>
<text text-anchor="start" x="399.888" y="-247.3" font-family="Helvetica,sans-Serif" font-size="16.00" fill="#000000">0 rows</text>
<polygon fill="#ffffff" stroke="transparent" points="450,-239.7 450,-264.7 479,-264.7 479,-239.7 450,-239.7"/>
<polygon fill="none" stroke="#000000" points="450,-239.7 450,-264.7 479,-264.7 479,-239.7 450,-239.7"/>
<text text-anchor="start" x="467.1072" y="-247.3" font-family="Helvetica,sans-Serif" font-size="16.00" fill="#000000"> &#160;</text>
</a>
</g>
</g>
<!-- tags -->
<g id="node2" class="node">
<title>tags</title>
<g id="a_node2"><a xlink:href="../../tables/tags.html" xlink:title="tags" target="_top">
<polygon fill="#ffffff" stroke="transparent" points="8,-50.2 8,-283.2 276,-283.2 276,-50.2 8,-50.2"/>
<polygon fill="#f5f5f5" stroke="transparent" points="10,-251.7 10,-280.7 274,-280.7 274,-251.7 10,-251.7"/>
<polygon fill="none" stroke="#000000" points="10,-251.7 10,-280.7 274,-280.7 274,-251.7 10,-251.7"/>
<text text-anchor="start" x="14.8824" y="-258.8" font-family="Helvetica,sans-Serif" font-weight="bold" font-size="16.00" fill="#000000">tags</text>
<text text-anchor="start" x="225.4272" y="-261.3" font-family="Helvetica,sans-Serif" font-size="16.00" fill="#000000">[table]</text>
<polygon fill="none" stroke="#000000" points="10,-226.7 10,-251.7 122,-251.7 122,-226.7 10,-226.7"/>
<image xlink:href="../../images/primaryKeys.png" width="11px" height="12px" preserveAspectRatio="xMinYMin meet" x="15" y="-245.2"/>
<text text-anchor="start" x="30" y="-230.8" font-family="Helvetica,sans-Serif" font-size="16.00" fill="#000000">id</text>
<polygon fill="none" stroke="#000000" points="122,-226.7 122,-251.7 274,-251.7 274,-226.7 122,-226.7"/>
<text text-anchor="start" x="124.6312" y="-234.3" font-family="Helvetica,sans-Serif" font-size="16.00" fill="#000000">integer[2000000000]</text>
<polygon fill="#ffffff" stroke="transparent" points="10,-201.7 10,-226.7 122,-226.7 122,-201.7 10,-201.7"/>
<polygon fill="none" stroke="#000000" points="10,-201.7 10,-226.7 122,-226.7 122,-201.7 10,-201.7"/>
<text text-anchor="start" x="30" y="-205.8" font-family="Helvetica,sans-Serif" font-size="16.00" fill="#000000">name</text>
<polygon fill="none" stroke="#000000" points="122,-201.7 122,-226.7 274,-226.7 274,-201.7 122,-201.7"/>
<text text-anchor="start" x="125" y="-209.3" font-family="Helvetica,sans-Serif" font-size="16.00" fill="#000000">text[2000000000]</text>
<polygon fill="none" stroke="#000000" points="10,-176.7 10,-201.7 122,-201.7 122,-176.7 10,-176.7"/>
<text text-anchor="start" x="30" y="-180.8" font-family="Helvetica,sans-Serif" font-size="16.00" fill="#000000">colour</text>
<polygon fill="none" stroke="#000000" points="122,-176.7 122,-201.7 274,-201.7 274,-176.7 122,-176.7"/>
<text text-anchor="start" x="125" y="-184.3" font-family="Helvetica,sans-Serif" font-size="16.00" fill="#000000">text[2000000000]</text>
<polygon fill="none" stroke="#000000" points="10,-151.7 10,-176.7 122,-176.7 122,-151.7 10,-151.7"/>
<text text-anchor="start" x="30" y="-155.8" font-family="Helvetica,sans-Serif" font-size="16.00" fill="#000000">fg_colour</text>
<polygon fill="none" stroke="#000000" points="122,-151.7 122,-176.7 274,-176.7 274,-151.7 122,-151.7"/>
<text text-anchor="start" x="125" y="-159.3" font-family="Helvetica,sans-Serif" font-size="16.00" fill="#000000">text[2000000000]</text>
<polygon fill="none" stroke="#000000" points="10,-126.7 10,-151.7 122,-151.7 122,-126.7 10,-126.7"/>
<text text-anchor="start" x="30" y="-130.8" font-family="Helvetica,sans-Serif" font-size="16.00" fill="#000000">description</text>
<polygon fill="none" stroke="#000000" points="122,-126.7 122,-151.7 274,-151.7 274,-126.7 122,-126.7"/>
<text text-anchor="start" x="125" y="-134.3" font-family="Helvetica,sans-Serif" font-size="16.00" fill="#000000">text[2000000000]</text>
<polygon fill="none" stroke="#000000" points="10,-101.7 10,-126.7 122,-126.7 122,-101.7 10,-101.7"/>
<text text-anchor="start" x="30" y="-105.8" font-family="Helvetica,sans-Serif" font-size="16.00" fill="#000000">inserted_at</text>
<polygon fill="none" stroke="#000000" points="122,-101.7 122,-126.7 274,-126.7 274,-101.7 122,-101.7"/>
<text text-anchor="start" x="125" y="-109.3" font-family="Helvetica,sans-Serif" font-size="16.00" fill="#000000">text[2000000000]</text>
<polygon fill="none" stroke="#000000" points="10,-76.7 10,-101.7 122,-101.7 122,-76.7 10,-76.7"/>
<text text-anchor="start" x="30" y="-80.8" font-family="Helvetica,sans-Serif" font-size="16.00" fill="#000000">updated_at</text>
<polygon fill="none" stroke="#000000" points="122,-76.7 122,-101.7 274,-101.7 274,-76.7 122,-76.7"/>
<text text-anchor="start" x="125" y="-84.3" font-family="Helvetica,sans-Serif" font-size="16.00" fill="#000000">text[2000000000]</text>
<polygon fill="#ffffff" stroke="transparent" points="10,-51.7 10,-76.7 53,-76.7 53,-51.7 10,-51.7"/>
<polygon fill="none" stroke="#000000" points="10,-51.7 10,-76.7 53,-76.7 53,-51.7 10,-51.7"/>
<text text-anchor="start" x="13" y="-59.3" font-family="Helvetica,sans-Serif" font-size="16.00" fill="#000000">&lt; 0</text>
<polygon fill="#ffffff" stroke="transparent" points="53,-51.7 53,-76.7 122,-76.7 122,-51.7 53,-51.7"/>
<polygon fill="none" stroke="#000000" points="53,-51.7 53,-76.7 122,-76.7 122,-51.7 53,-51.7"/>
<text text-anchor="start" x="71.888" y="-59.3" font-family="Helvetica,sans-Serif" font-size="16.00" fill="#000000">0 rows</text>
<polygon fill="#ffffff" stroke="transparent" points="122,-51.7 122,-76.7 274,-76.7 274,-51.7 122,-51.7"/>
<polygon fill="none" stroke="#000000" points="122,-51.7 122,-76.7 274,-76.7 274,-51.7 122,-51.7"/>
<text text-anchor="start" x="248.3168" y="-59.3" font-family="Helvetica,sans-Serif" font-size="16.00" fill="#000000">2 &gt;</text>
<polygon fill="none" stroke="#000000" stroke-width="2" points="9,-51.2 9,-282.2 275,-282.2 275,-51.2 9,-51.2"/>
</a>
</g>
</g>
<!-- project_tags&#45;&gt;tags -->
<g id="edge1" class="edge">
<title>project_tags:w&#45;&gt;tags:e</title>
<path fill="none" stroke="#000000" d="M310.9758,-318.2376C290.1541,-300.9976 311.2077,-239.7 274,-239.7"/>
<polygon fill="#000000" stroke="#000000" points="317.3766,-320.2742 323.9084,-326.1305 321.1883,-321.4871 325,-322.7 325,-322.7 325,-322.7 321.1883,-321.4871 326.0916,-319.2695 317.3766,-320.2742 317.3766,-320.2742"/>
<ellipse fill="none" stroke="#000000" cx="314.3273" cy="-319.3039" rx="3.2" ry="3.2"/>
</g>
<!-- timer_tags -->
<g id="node3" class="node">
<title>timer_tags</title>
<g id="a_node3"><a xlink:href="../../tables/timer_tags.html" xlink:title="timer_tags" target="_top">
<polygon fill="#ffffff" stroke="transparent" points="333,-74.2 333,-219.2 471,-219.2 471,-74.2 333,-74.2"/>
<polygon fill="#f5f5f5" stroke="transparent" points="333,-189.7 333,-218.7 471,-218.7 471,-189.7 333,-189.7"/>
<polygon fill="none" stroke="#000000" points="333,-189.7 333,-218.7 471,-218.7 471,-189.7 333,-189.7"/>
<text text-anchor="start" x="338" y="-196.8" font-family="Helvetica,sans-Serif" font-weight="bold" font-size="16.00" fill="#000000">timer_tags</text>
<text text-anchor="start" x="422.7136" y="-199.3" font-family="Helvetica,sans-Serif" font-size="16.00" fill="#000000">[table]</text>
<polygon fill="none" stroke="#000000" points="333,-167.7 333,-189.7 471,-189.7 471,-167.7 333,-167.7"/>
<image xlink:href="../../images/primaryKeys.png" width="11px" height="12px" preserveAspectRatio="xMinYMin meet" x="338" y="-184.7"/>
<text text-anchor="start" x="367" y="-170.3" font-family="Helvetica,sans-Serif" font-size="16.00" fill="#000000">id</text>
<polygon fill="#ffffff" stroke="transparent" points="333,-145.7 333,-167.7 471,-167.7 471,-145.7 333,-145.7"/>
<polygon fill="none" stroke="#000000" points="333,-145.7 333,-167.7 471,-167.7 471,-145.7 333,-145.7"/>
<image xlink:href="../../images/foreignKeys.png" width="11px" height="12px" preserveAspectRatio="xMinYMin meet" x="338" y="-162.7"/>
<text text-anchor="start" x="367" y="-148.3" font-family="Helvetica,sans-Serif" font-size="16.00" fill="#000000">tag_id</text>
<polygon fill="#ffffff" stroke="transparent" points="333,-123.7 333,-145.7 471,-145.7 471,-123.7 333,-123.7"/>
<polygon fill="none" stroke="#000000" points="333,-123.7 333,-145.7 471,-145.7 471,-123.7 333,-123.7"/>
<image xlink:href="../../images/foreignKeys.png" width="11px" height="12px" preserveAspectRatio="xMinYMin meet" x="338" y="-140.7"/>
<text text-anchor="start" x="367" y="-126.3" font-family="Helvetica,sans-Serif" font-size="16.00" fill="#000000">timer_id</text>
<polygon fill="none" stroke="#000000" points="333,-98.7 333,-123.7 471,-123.7 471,-98.7 333,-98.7"/>
<text text-anchor="start" x="336" y="-106.3" font-family="Helvetica,sans-Serif" font-size="16.00" fill="#000000">...</text>
<polygon fill="#ffffff" stroke="transparent" points="333,-73.7 333,-98.7 382,-98.7 382,-73.7 333,-73.7"/>
<polygon fill="none" stroke="#000000" points="333,-73.7 333,-98.7 382,-98.7 382,-73.7 333,-73.7"/>
<text text-anchor="start" x="336" y="-81.3" font-family="Helvetica,sans-Serif" font-size="16.00" fill="#000000">&lt; 2</text>
<polygon fill="#ffffff" stroke="transparent" points="382,-73.7 382,-98.7 446,-98.7 446,-73.7 382,-73.7"/>
<polygon fill="none" stroke="#000000" points="382,-73.7 382,-98.7 446,-98.7 446,-73.7 382,-73.7"/>
<text text-anchor="start" x="395.888" y="-81.3" font-family="Helvetica,sans-Serif" font-size="16.00" fill="#000000">0 rows</text>
<polygon fill="#ffffff" stroke="transparent" points="446,-73.7 446,-98.7 471,-98.7 471,-73.7 446,-73.7"/>
<polygon fill="none" stroke="#000000" points="446,-73.7 446,-98.7 471,-98.7 471,-73.7 446,-73.7"/>
<text text-anchor="start" x="459.1072" y="-81.3" font-family="Helvetica,sans-Serif" font-size="16.00" fill="#000000"> &#160;</text>
</a>
</g>
</g>
<!-- timer_tags&#45;&gt;tags -->
<g id="edge2" class="edge">
<title>timer_tags:w&#45;&gt;tags:e</title>
<path fill="none" stroke="#000000" d="M318.9959,-160.482C294.5908,-176.7192 313.425,-239.7 274,-239.7"/>
<polygon fill="#000000" stroke="#000000" points="325.2767,-158.7858 333.9386,-160.1755 329.1383,-157.7429 333,-156.7 333,-156.7 333,-156.7 329.1383,-157.7429 332.0614,-153.2245 325.2767,-158.7858 325.2767,-158.7858"/>
<ellipse fill="none" stroke="#000000" cx="322.1874" cy="-159.6202" rx="3.2" ry="3.2"/>
</g>
</g>
</svg>
