<?xml version="1.0" encoding="UTF-8" standalone="no"?>
<!DOCTYPE svg PUBLIC "-//W3C//DTD SVG 1.1//EN"
 "http://www.w3.org/Graphics/SVG/1.1/DTD/svg11.dtd">
<!-- Generated by graphviz version 2.40.1 (20161225.0304)
 -->
<!-- Title: twoDegreesRelationshipsDiagram Pages: 1 -->
<svg width="663pt" height="467pt"
 viewBox="0.00 0.00 663.00 467.20" xmlns="http://www.w3.org/2000/svg" xmlns:xlink="http://www.w3.org/1999/xlink">
<g id="graph0" class="graph" transform="scale(1 1) rotate(0) translate(4 463.2)">
<title>twoDegreesRelationshipsDiagram</title>
<polygon fill="#ffffff" stroke="transparent" points="-4,4 -4,-463.2 659,-463.2 659,4 -4,4"/>
<text text-anchor="middle" x="101.8088" y="-8.8" font-family="Helvetica,sans-Serif" font-size="16.00" fill="#000000">Generated by SchemaSpy</text>
<!-- project_tags -->
<g id="node1" class="node">
<title>project_tags</title>
<g id="a_node1"><a xlink:href="../../tables/project_tags.html" xlink:title="project_tags" target="_top">
<polygon fill="#ffffff" stroke="transparent" points="493,-50.2 493,-195.2 647,-195.2 647,-50.2 493,-50.2"/>
<polygon fill="#f5f5f5" stroke="transparent" points="493,-165.7 493,-194.7 647,-194.7 647,-165.7 493,-165.7"/>
<polygon fill="none" stroke="#000000" points="493,-165.7 493,-194.7 647,-194.7 647,-165.7 493,-165.7"/>
<text text-anchor="start" x="498" y="-172.8" font-family="Helvetica,sans-Serif" font-weight="bold" font-size="16.00" fill="#000000">project_tags</text>
<text text-anchor="start" x="598.7136" y="-175.3" font-family="Helvetica,sans-Serif" font-size="16.00" fill="#000000">[table]</text>
<polygon fill="none" stroke="#000000" points="493,-143.7 493,-165.7 647,-165.7 647,-143.7 493,-143.7"/>
<image xlink:href="../../images/primaryKeys.png" width="11px" height="12px" preserveAspectRatio="xMinYMin meet" x="498" y="-160.7"/>
<text text-anchor="start" x="529" y="-146.3" font-family="Helvetica,sans-Serif" font-size="16.00" fill="#000000">id</text>
<polygon fill="#ffffff" stroke="transparent" points="493,-121.7 493,-143.7 647,-143.7 647,-121.7 493,-121.7"/>
<polygon fill="none" stroke="#000000" points="493,-121.7 493,-143.7 647,-143.7 647,-121.7 493,-121.7"/>
<image xlink:href="../../images/foreignKeys.png" width="11px" height="12px" preserveAspectRatio="xMinYMin meet" x="498" y="-138.7"/>
<text text-anchor="start" x="529" y="-124.3" font-family="Helvetica,sans-Serif" font-size="16.00" fill="#000000">tag_id</text>
<polygon fill="#ffffff" stroke="transparent" points="493,-99.7 493,-121.7 647,-121.7 647,-99.7 493,-99.7"/>
<polygon fill="none" stroke="#000000" points="493,-99.7 493,-121.7 647,-121.7 647,-99.7 493,-99.7"/>
<image xlink:href="../../images/foreignKeys.png" width="11px" height="12px" preserveAspectRatio="xMinYMin meet" x="498" y="-116.7"/>
<text text-anchor="start" x="529" y="-102.3" font-family="Helvetica,sans-Serif" font-size="16.00" fill="#000000">project_id</text>
<polygon fill="none" stroke="#000000" points="493,-74.7 493,-99.7 647,-99.7 647,-74.7 493,-74.7"/>
<text text-anchor="start" x="496" y="-82.3" font-family="Helvetica,sans-Serif" font-size="16.00" fill="#000000">...</text>
<polygon fill="#ffffff" stroke="transparent" points="493,-49.7 493,-74.7 550,-74.7 550,-49.7 493,-49.7"/>
<polygon fill="none" stroke="#000000" points="493,-49.7 493,-74.7 550,-74.7 550,-49.7 493,-49.7"/>
<text text-anchor="start" x="496" y="-57.3" font-family="Helvetica,sans-Serif" font-size="16.00" fill="#000000">&lt; 2</text>
<polygon fill="#ffffff" stroke="transparent" points="550,-49.7 550,-74.7 618,-74.7 618,-49.7 550,-49.7"/>
<polygon fill="none" stroke="#000000" points="550,-49.7 550,-74.7 618,-74.7 618,-49.7 550,-49.7"/>
<text text-anchor="start" x="567.888" y="-57.3" font-family="Helvetica,sans-Serif" font-size="16.00" fill="#000000">0 rows</text>
<polygon fill="#ffffff" stroke="transparent" points="618,-49.7 618,-74.7 647,-74.7 647,-49.7 618,-49.7"/>
<polygon fill="none" stroke="#000000" points="618,-49.7 618,-74.7 647,-74.7 647,-49.7 618,-49.7"/>
<text text-anchor="start" x="635.1072" y="-57.3" font-family="Helvetica,sans-Serif" font-size="16.00" fill="#000000"> &#160;</text>
</a>
</g>
</g>
<!-- projects -->
<g id="node2" class="node">
<title>projects</title>
<g id="a_node2"><a xlink:href="../../tables/projects.html" xlink:title="projects" target="_top">
<polygon fill="#ffffff" stroke="transparent" points="8,-218.2 8,-297.2 127,-297.2 127,-218.2 8,-218.2"/>
<polygon fill="#f5f5f5" stroke="transparent" points="8.5,-267.7 8.5,-296.7 127.5,-296.7 127.5,-267.7 8.5,-267.7"/>
<polygon fill="none" stroke="#000000" points="8.5,-267.7 8.5,-296.7 127.5,-296.7 127.5,-267.7 8.5,-267.7"/>
<text text-anchor="start" x="13.5" y="-274.8" font-family="Helvetica,sans-Serif" font-weight="bold" font-size="16.00" fill="#000000">projects</text>
<text text-anchor="start" x="79.2136" y="-277.3" font-family="Helvetica,sans-Serif" font-size="16.00" fill="#000000">[table]</text>
<polygon fill="none" stroke="#000000" points="8.5,-242.7 8.5,-267.7 127.5,-267.7 127.5,-242.7 8.5,-242.7"/>
<text text-anchor="start" x="11.5" y="-250.3" font-family="Helvetica,sans-Serif" font-size="16.00" fill="#000000">...</text>
<polygon fill="#ffffff" stroke="transparent" points="8.5,-217.7 8.5,-242.7 41.5,-242.7 41.5,-217.7 8.5,-217.7"/>
<polygon fill="none" stroke="#000000" points="8.5,-217.7 8.5,-242.7 41.5,-242.7 41.5,-217.7 8.5,-217.7"/>
<text text-anchor="start" x="11.5" y="-225.3" font-family="Helvetica,sans-Serif" font-size="16.00" fill="#000000">&lt; 1</text>
<polygon fill="#ffffff" stroke="transparent" points="41.5,-217.7 41.5,-242.7 96.5,-242.7 96.5,-217.7 41.5,-217.7"/>
<polygon fill="none" stroke="#000000" points="41.5,-217.7 41.5,-242.7 96.5,-242.7 96.5,-217.7 41.5,-217.7"/>
<text text-anchor="start" x="46.388" y="-225.3" font-family="Helvetica,sans-Serif" font-size="16.00" fill="#000000">0 rows</text>
<polygon fill="#ffffff" stroke="transparent" points="96.5,-217.7 96.5,-242.7 127.5,-242.7 127.5,-217.7 96.5,-217.7"/>
<polygon fill="none" stroke="#000000" points="96.5,-217.7 96.5,-242.7 127.5,-242.7 127.5,-217.7 96.5,-217.7"/>
<text text-anchor="start" x="101.8168" y="-225.3" font-family="Helvetica,sans-Serif" font-size="16.00" fill="#000000">3 &gt;</text>
</a>
</g>
</g>
<!-- project_tags&#45;&gt;projects -->
<g id="edge1" class="edge">
<title>project_tags:w&#45;&gt;projects:e</title>
<path fill="none" stroke="#000000" d="M478.4604,-110.4079C344.0213,-105.0038 279.1493,-27.3892 168,-111.7 115.3721,-151.6201 193.5553,-254.7 127.5,-254.7"/>
<polygon fill="#000000" stroke="#000000" points="485.0016,-110.5393 492.9277,-114.2993 489.0008,-110.6196 493,-110.7 493,-110.7 493,-110.7 489.0008,-110.6196 493.0723,-107.1007 485.0016,-110.5393 485.0016,-110.5393"/>
<ellipse fill="none" stroke="#000000" cx="481.8023" cy="-110.475" rx="3.2" ry="3.2"/>
</g>
<!-- tags -->
<g id="node3" class="node">
<title>tags</title>
<g id="a_node3"><a xlink:href="../../tables/tags.html" xlink:title="tags" target="_top">
<polygon fill="#ffffff" stroke="transparent" points="176,-122.2 176,-355.2 444,-355.2 444,-122.2 176,-122.2"/>
<polygon fill="#f5f5f5" stroke="transparent" points="178,-323.7 178,-352.7 442,-352.7 442,-323.7 178,-323.7"/>
<polygon fill="none" stroke="#000000" points="178,-323.7 178,-352.7 442,-352.7 442,-323.7 178,-323.7"/>
<text text-anchor="start" x="182.8824" y="-330.8" font-family="Helvetica,sans-Serif" font-weight="bold" font-size="16.00" fill="#000000">tags</text>
<text text-anchor="start" x="393.4272" y="-333.3" font-family="Helvetica,sans-Serif" font-size="16.00" fill="#000000">[table]</text>
<polygon fill="none" stroke="#000000" points="178,-298.7 178,-323.7 290,-323.7 290,-298.7 178,-298.7"/>
<image xlink:href="../../images/primaryKeys.png" width="11px" height="12px" preserveAspectRatio="xMinYMin meet" x="183" y="-317.2"/>
<text text-anchor="start" x="198" y="-302.8" font-family="Helvetica,sans-Serif" font-size="16.00" fill="#000000">id</text>
<polygon fill="none" stroke="#000000" points="290,-298.7 290,-323.7 442,-323.7 442,-298.7 290,-298.7"/>
<text text-anchor="start" x="292.6312" y="-306.3" font-family="Helvetica,sans-Serif" font-size="16.00" fill="#000000">integer[2000000000]</text>
<polygon fill="#ffffff" stroke="transparent" points="178,-273.7 178,-298.7 290,-298.7 290,-273.7 178,-273.7"/>
<polygon fill="none" stroke="#000000" points="178,-273.7 178,-298.7 290,-298.7 290,-273.7 178,-273.7"/>
<text text-anchor="start" x="198" y="-277.8" font-family="Helvetica,sans-Serif" font-size="16.00" fill="#000000">name</text>
<polygon fill="none" stroke="#000000" points="290,-273.7 290,-298.7 442,-298.7 442,-273.7 290,-273.7"/>
<text text-anchor="start" x="293" y="-281.3" font-family="Helvetica,sans-Serif" font-size="16.00" fill="#000000">text[2000000000]</text>
<polygon fill="none" stroke="#000000" points="178,-248.7 178,-273.7 290,-273.7 290,-248.7 178,-248.7"/>
<text text-anchor="start" x="198" y="-252.8" font-family="Helvetica,sans-Serif" font-size="16.00" fill="#000000">colour</text>
<polygon fill="none" stroke="#000000" points="290,-248.7 290,-273.7 442,-273.7 442,-248.7 290,-248.7"/>
<text text-anchor="start" x="293" y="-256.3" font-family="Helvetica,sans-Serif" font-size="16.00" fill="#000000">text[2000000000]</text>
<polygon fill="none" stroke="#000000" points="178,-223.7 178,-248.7 290,-248.7 290,-223.7 178,-223.7"/>
<text text-anchor="start" x="198" y="-227.8" font-family="Helvetica,sans-Serif" font-size="16.00" fill="#000000">fg_colour</text>
<polygon fill="none" stroke="#000000" points="290,-223.7 290,-248.7 442,-248.7 442,-223.7 290,-223.7"/>
<text text-anchor="start" x="293" y="-231.3" font-family="Helvetica,sans-Serif" font-size="16.00" fill="#000000">text[2000000000]</text>
<polygon fill="none" stroke="#000000" points="178,-198.7 178,-223.7 290,-223.7 290,-198.7 178,-198.7"/>
<text text-anchor="start" x="198" y="-202.8" font-family="Helvetica,sans-Serif" font-size="16.00" fill="#000000">description</text>
<polygon fill="none" stroke="#000000" points="290,-198.7 290,-223.7 442,-223.7 442,-198.7 290,-198.7"/>
<text text-anchor="start" x="293" y="-206.3" font-family="Helvetica,sans-Serif" font-size="16.00" fill="#000000">text[2000000000]</text>
<polygon fill="none" stroke="#000000" points="178,-173.7 178,-198.7 290,-198.7 290,-173.7 178,-173.7"/>
<text text-anchor="start" x="198" y="-177.8" font-family="Helvetica,sans-Serif" font-size="16.00" fill="#000000">inserted_at</text>
<polygon fill="none" stroke="#000000" points="290,-173.7 290,-198.7 442,-198.7 442,-173.7 290,-173.7"/>
<text text-anchor="start" x="293" y="-181.3" font-family="Helvetica,sans-Serif" font-size="16.00" fill="#000000">text[2000000000]</text>
<polygon fill="none" stroke="#000000" points="178,-148.7 178,-173.7 290,-173.7 290,-148.7 178,-148.7"/>
<text text-anchor="start" x="198" y="-152.8" font-family="Helvetica,sans-Serif" font-size="16.00" fill="#000000">updated_at</text>
<polygon fill="none" stroke="#000000" points="290,-148.7 290,-173.7 442,-173.7 442,-148.7 290,-148.7"/>
<text text-anchor="start" x="293" y="-156.3" font-family="Helvetica,sans-Serif" font-size="16.00" fill="#000000">text[2000000000]</text>
<polygon fill="#ffffff" stroke="transparent" points="178,-123.7 178,-148.7 221,-148.7 221,-123.7 178,-123.7"/>
<polygon fill="none" stroke="#000000" points="178,-123.7 178,-148.7 221,-148.7 221,-123.7 178,-123.7"/>
<text text-anchor="start" x="181" y="-131.3" font-family="Helvetica,sans-Serif" font-size="16.00" fill="#000000">&lt; 0</text>
<polygon fill="#ffffff" stroke="transparent" points="221,-123.7 221,-148.7 290,-148.7 290,-123.7 221,-123.7"/>
<polygon fill="none" stroke="#000000" points="221,-123.7 221,-148.7 290,-148.7 290,-123.7 221,-123.7"/>
<text text-anchor="start" x="239.888" y="-131.3" font-family="Helvetica,sans-Serif" font-size="16.00" fill="#000000">0 rows</text>
<polygon fill="#ffffff" stroke="transparent" points="290,-123.7 290,-148.7 442,-148.7 442,-123.7 290,-123.7"/>
<polygon fill="none" stroke="#000000" points="290,-123.7 290,-148.7 442,-148.7 442,-123.7 290,-123.7"/>
<text text-anchor="start" x="416.3168" y="-131.3" font-family="Helvetica,sans-Serif" font-size="16.00" fill="#000000">2 &gt;</text>
<polygon fill="none" stroke="#000000" stroke-width="2" points="177,-123.2 177,-354.2 443,-354.2 443,-123.2 177,-123.2"/>
</a>
</g>
</g>
<!-- project_tags&#45;&gt;tags -->
<g id="edge2" class="edge">
<title>project_tags:w&#45;&gt;tags:e</title>
<path fill="none" stroke="#000000" d="M478.6737,-135.095C425.0036,-156.3362 519.0668,-311.7 442,-311.7"/>
<polygon fill="#000000" stroke="#000000" points="485.1095,-134.0192 493.5936,-136.2507 489.0548,-133.3596 493,-132.7 493,-132.7 493,-132.7 489.0548,-133.3596 492.4064,-129.1493 485.1095,-134.0192 485.1095,-134.0192"/>
<ellipse fill="none" stroke="#000000" cx="481.9533" cy="-134.5468" rx="3.2" ry="3.2"/>
</g>
<!-- timer_tags -->
<g id="node4" class="node">
<title>timer_tags</title>
<g id="a_node4"><a xlink:href="../../tables/timer_tags.html" xlink:title="timer_tags" target="_top">
<polygon fill="#ffffff" stroke="transparent" points="501,-290.2 501,-435.2 639,-435.2 639,-290.2 501,-290.2"/>
<polygon fill="#f5f5f5" stroke="transparent" points="501,-405.7 501,-434.7 639,-434.7 639,-405.7 501,-405.7"/>
<polygon fill="none" stroke="#000000" points="501,-405.7 501,-434.7 639,-434.7 639,-405.7 501,-405.7"/>
<text text-anchor="start" x="506" y="-412.8" font-family="Helvetica,sans-Serif" font-weight="bold" font-size="16.00" fill="#000000">timer_tags</text>
<text text-anchor="start" x="590.7136" y="-415.3" font-family="Helvetica,sans-Serif" font-size="16.00" fill="#000000">[table]</text>
<polygon fill="none" stroke="#000000" points="501,-383.7 501,-405.7 639,-405.7 639,-383.7 501,-383.7"/>
<image xlink:href="../../images/primaryKeys.png" width="11px" height="12px" preserveAspectRatio="xMinYMin meet" x="506" y="-400.7"/>
<text text-anchor="start" x="535" y="-386.3" font-family="Helvetica,sans-Serif" font-size="16.00" fill="#000000">id</text>
<polygon fill="#ffffff" stroke="transparent" points="501,-361.7 501,-383.7 639,-383.7 639,-361.7 501,-361.7"/>
<polygon fill="none" stroke="#000000" points="501,-361.7 501,-383.7 639,-383.7 639,-361.7 501,-361.7"/>
<image xlink:href="../../images/foreignKeys.png" width="11px" height="12px" preserveAspectRatio="xMinYMin meet" x="506" y="-378.7"/>
<text text-anchor="start" x="535" y="-364.3" font-family="Helvetica,sans-Serif" font-size="16.00" fill="#000000">tag_id</text>
<polygon fill="#ffffff" stroke="transparent" points="501,-339.7 501,-361.7 639,-361.7 639,-339.7 501,-339.7"/>
<polygon fill="none" stroke="#000000" points="501,-339.7 501,-361.7 639,-361.7 639,-339.7 501,-339.7"/>
<image xlink:href="../../images/foreignKeys.png" width="11px" height="12px" preserveAspectRatio="xMinYMin meet" x="506" y="-356.7"/>
<text text-anchor="start" x="535" y="-342.3" font-family="Helvetica,sans-Serif" font-size="16.00" fill="#000000">timer_id</text>
<polygon fill="none" stroke="#000000" points="501,-314.7 501,-339.7 639,-339.7 639,-314.7 501,-314.7"/>
<text text-anchor="start" x="504" y="-322.3" font-family="Helvetica,sans-Serif" font-size="16.00" fill="#000000">...</text>
<polygon fill="#ffffff" stroke="transparent" points="501,-289.7 501,-314.7 550,-314.7 550,-289.7 501,-289.7"/>
<polygon fill="none" stroke="#000000" points="501,-289.7 501,-314.7 550,-314.7 550,-289.7 501,-289.7"/>
<text text-anchor="start" x="504" y="-297.3" font-family="Helvetica,sans-Serif" font-size="16.00" fill="#000000">&lt; 2</text>
<polygon fill="#ffffff" stroke="transparent" points="550,-289.7 550,-314.7 614,-314.7 614,-289.7 550,-289.7"/>
<polygon fill="none" stroke="#000000" points="550,-289.7 550,-314.7 614,-314.7 614,-289.7 550,-289.7"/>
<text text-anchor="start" x="563.888" y="-297.3" font-family="Helvetica,sans-Serif" font-size="16.00" fill="#000000">0 rows</text>
<polygon fill="#ffffff" stroke="transparent" points="614,-289.7 614,-314.7 639,-314.7 639,-289.7 614,-289.7"/>
<polygon fill="none" stroke="#000000" points="614,-289.7 614,-314.7 639,-314.7 639,-289.7 614,-289.7"/>
<text text-anchor="start" x="627.1072" y="-297.3" font-family="Helvetica,sans-Serif" font-size="16.00" fill="#000000"> &#160;</text>
</a>
</g>
</g>
<!-- timer_tags&#45;&gt;tags -->
<g id="edge3" class="edge">
<title>timer_tags:w&#45;&gt;tags:e</title>
<path fill="none" stroke="#000000" d="M486.873,-368.6976C467.0963,-355.1268 473.8242,-311.7 442,-311.7"/>
<polygon fill="#000000" stroke="#000000" points="493.3029,-370.5193 500.0187,-376.1637 497.1515,-371.6096 501,-372.7 501,-372.7 501,-372.7 497.1515,-371.6096 501.9813,-369.2363 493.3029,-370.5193 493.3029,-370.5193"/>
<ellipse fill="none" stroke="#000000" cx="490.2241" cy="-369.647" rx="3.2" ry="3.2"/>
</g>
<!-- timers -->
<g id="node5" class="node">
<title>timers</title>
<g id="a_node5"><a xlink:href="../../tables/timers.html" xlink:title="timers" target="_top">
<polygon fill="#ffffff" stroke="transparent" points="255.5,-376.2 255.5,-455.2 364.5,-455.2 364.5,-376.2 255.5,-376.2"/>
<polygon fill="#f5f5f5" stroke="transparent" points="256,-425.7 256,-454.7 365,-454.7 365,-425.7 256,-425.7"/>
<polygon fill="none" stroke="#000000" points="256,-425.7 256,-454.7 365,-454.7 365,-425.7 256,-425.7"/>
<text text-anchor="start" x="261" y="-432.8" font-family="Helvetica,sans-Serif" font-weight="bold" font-size="16.00" fill="#000000">timers</text>
<text text-anchor="start" x="316.4272" y="-435.3" font-family="Helvetica,sans-Serif" font-size="16.00" fill="#000000">[table]</text>
<polygon fill="none" stroke="#000000" points="256,-400.7 256,-425.7 365,-425.7 365,-400.7 256,-400.7"/>
<text text-anchor="start" x="259" y="-408.3" font-family="Helvetica,sans-Serif" font-size="16.00" fill="#000000">...</text>
<polygon fill="#ffffff" stroke="transparent" points="256,-375.7 256,-400.7 284,-400.7 284,-375.7 256,-375.7"/>
<polygon fill="none" stroke="#000000" points="256,-375.7 256,-400.7 284,-400.7 284,-375.7 256,-375.7"/>
<text text-anchor="start" x="258.6584" y="-383.3" font-family="Helvetica,sans-Serif" font-size="16.00" fill="#000000">&lt; 3</text>
<polygon fill="#ffffff" stroke="transparent" points="284,-375.7 284,-400.7 337,-400.7 337,-375.7 284,-375.7"/>
<polygon fill="none" stroke="#000000" points="284,-375.7 284,-400.7 337,-400.7 337,-375.7 284,-375.7"/>
<text text-anchor="start" x="286.944" y="-383.3" font-family="Helvetica,sans-Serif" font-size="16.00" fill="#000000">0 rows</text>
<polygon fill="#ffffff" stroke="transparent" points="337,-375.7 337,-400.7 365,-400.7 365,-375.7 337,-375.7"/>
<polygon fill="none" stroke="#000000" points="337,-375.7 337,-400.7 365,-400.7 365,-375.7 337,-375.7"/>
<text text-anchor="start" x="339.6584" y="-383.3" font-family="Helvetica,sans-Serif" font-size="16.00" fill="#000000">2 &gt;</text>
</a>
</g>
</g>
<!-- timer_tags&#45;&gt;timers -->
<g id="edge4" class="edge">
<title>timer_tags:w&#45;&gt;timers:e</title>
<path fill="none" stroke="#000000" d="M486.5291,-351.7761C433.6936,-360.0091 426.2394,-412.7 365,-412.7"/>
<polygon fill="#000000" stroke="#000000" points="493.022,-351.2933 501.267,-354.2901 497.011,-350.9967 501,-350.7 501,-350.7 501,-350.7 497.011,-350.9967 500.733,-347.1099 493.022,-351.2933 493.022,-351.2933"/>
<ellipse fill="none" stroke="#000000" cx="489.8308" cy="-351.5307" rx="3.2" ry="3.2"/>
</g>
<!-- timers&#45;&gt;projects -->
<g id="edge5" class="edge">
<title>timers:w&#45;&gt;projects:e</title>
<path fill="none" stroke="#000000" d="M241.5663,-412.1326C208.0421,-409.257 193.6649,-395.2559 168,-365.7 133.5685,-326.0484 180.0145,-254.7 127.5,-254.7"/>
<polygon fill="#000000" stroke="#000000" points="248.0062,-412.3857 255.8586,-416.2972 252.0031,-412.5429 256,-412.7 256,-412.7 256,-412.7 252.0031,-412.5429 256.1414,-409.1028 248.0062,-412.3857 248.0062,-412.3857"/>
<ellipse fill="none" stroke="#000000" cx="244.8086" cy="-412.26" rx="3.2" ry="3.2"/>
</g>
</g>
</svg>
