<?xml version="1.0" encoding="UTF-8" standalone="no"?>
<!DOCTYPE svg PUBLIC "-//W3C//DTD SVG 1.1//EN"
 "http://www.w3.org/Graphics/SVG/1.1/DTD/svg11.dtd">
<!-- Generated by graphviz version 2.40.1 (20161225.0304)
 -->
<!-- Title: twoDegreesRelationshipsDiagram Pages: 1 -->
<svg width="1196pt" height="763pt"
 viewBox="0.00 0.00 1196.00 762.76" xmlns="http://www.w3.org/2000/svg" xmlns:xlink="http://www.w3.org/1999/xlink">
<g id="graph0" class="graph" transform="scale(1 1) rotate(0) translate(4 758.7591)">
<title>twoDegreesRelationshipsDiagram</title>
<polygon fill="#ffffff" stroke="transparent" points="-4,4 -4,-758.7591 1192,-758.7591 1192,4 -4,4"/>
<text text-anchor="middle" x="101.8088" y="-8.8" font-family="Helvetica,sans-Serif" font-size="16.00" fill="#000000">Generated by SchemaSpy</text>
<!-- business_partner_notes -->
<g id="node1" class="node">
<title>business_partner_notes</title>
<g id="a_node1"><a xlink:href="../../tables/business_partner_notes.html" xlink:title="business_partner_notes" target="_top">
<polygon fill="#ffffff" stroke="transparent" points="261,-434.7591 261,-513.7591 510,-513.7591 510,-434.7591 261,-434.7591"/>
<polygon fill="#f5f5f5" stroke="transparent" points="261.5,-484.2591 261.5,-513.2591 510.5,-513.2591 510.5,-484.2591 261.5,-484.2591"/>
<polygon fill="none" stroke="#000000" points="261.5,-484.2591 261.5,-513.2591 510.5,-513.2591 510.5,-484.2591 261.5,-484.2591"/>
<text text-anchor="start" x="266.5" y="-491.3591" font-family="Helvetica,sans-Serif" font-weight="bold" font-size="16.00" fill="#000000">business_partner_notes</text>
<text text-anchor="start" x="462.2136" y="-493.8591" font-family="Helvetica,sans-Serif" font-size="16.00" fill="#000000">[table]</text>
<polygon fill="none" stroke="#000000" points="261.5,-459.2591 261.5,-484.2591 510.5,-484.2591 510.5,-459.2591 261.5,-459.2591"/>
<text text-anchor="start" x="264.5" y="-466.8591" font-family="Helvetica,sans-Serif" font-size="16.00" fill="#000000">...</text>
<polygon fill="#ffffff" stroke="transparent" points="261.5,-434.2591 261.5,-459.2591 366.5,-459.2591 366.5,-434.2591 261.5,-434.2591"/>
<polygon fill="none" stroke="#000000" points="261.5,-434.2591 261.5,-459.2591 366.5,-459.2591 366.5,-434.2591 261.5,-434.2591"/>
<text text-anchor="start" x="264.5" y="-441.8591" font-family="Helvetica,sans-Serif" font-size="16.00" fill="#000000">&lt; 1</text>
<polygon fill="#ffffff" stroke="transparent" points="366.5,-434.2591 366.5,-459.2591 457.5,-459.2591 457.5,-434.2591 366.5,-434.2591"/>
<polygon fill="none" stroke="#000000" points="366.5,-434.2591 366.5,-459.2591 457.5,-459.2591 457.5,-434.2591 366.5,-434.2591"/>
<text text-anchor="start" x="407.388" y="-441.8591" font-family="Helvetica,sans-Serif" font-size="16.00" fill="#000000">0 rows</text>
<polygon fill="#ffffff" stroke="transparent" points="457.5,-434.2591 457.5,-459.2591 510.5,-459.2591 510.5,-434.2591 457.5,-434.2591"/>
<polygon fill="none" stroke="#000000" points="457.5,-434.2591 457.5,-459.2591 510.5,-459.2591 510.5,-434.2591 457.5,-434.2591"/>
<text text-anchor="start" x="498.6072" y="-441.8591" font-family="Helvetica,sans-Serif" font-size="16.00" fill="#000000"> &#160;</text>
</a>
</g>
</g>
<!-- business_partners -->
<g id="node2" class="node">
<title>business_partners</title>
<g id="a_node2"><a xlink:href="../../tables/business_partners.html" xlink:title="business_partners" target="_top">
<polygon fill="#ffffff" stroke="transparent" points="8,-431.7591 8,-510.7591 212,-510.7591 212,-431.7591 8,-431.7591"/>
<polygon fill="#f5f5f5" stroke="transparent" points="8,-481.2591 8,-510.2591 212,-510.2591 212,-481.2591 8,-481.2591"/>
<polygon fill="none" stroke="#000000" points="8,-481.2591 8,-510.2591 212,-510.2591 212,-481.2591 8,-481.2591"/>
<text text-anchor="start" x="13" y="-488.3591" font-family="Helvetica,sans-Serif" font-weight="bold" font-size="16.00" fill="#000000">business_partners</text>
<text text-anchor="start" x="163.7136" y="-490.8591" font-family="Helvetica,sans-Serif" font-size="16.00" fill="#000000">[table]</text>
<polygon fill="none" stroke="#000000" points="8,-456.2591 8,-481.2591 212,-481.2591 212,-456.2591 8,-456.2591"/>
<text text-anchor="start" x="11" y="-463.8591" font-family="Helvetica,sans-Serif" font-size="16.00" fill="#000000">...</text>
<polygon fill="#ffffff" stroke="transparent" points="8,-431.2591 8,-456.2591 76,-456.2591 76,-431.2591 8,-431.2591"/>
<polygon fill="none" stroke="#000000" points="8,-431.2591 8,-456.2591 76,-456.2591 76,-431.2591 8,-431.2591"/>
<text text-anchor="start" x="11" y="-438.8591" font-family="Helvetica,sans-Serif" font-size="16.00" fill="#000000"> &#160;</text>
<polygon fill="#ffffff" stroke="transparent" points="76,-431.2591 76,-456.2591 156,-456.2591 156,-431.2591 76,-431.2591"/>
<polygon fill="none" stroke="#000000" points="76,-431.2591 76,-456.2591 156,-456.2591 156,-431.2591 76,-431.2591"/>
<text text-anchor="start" x="105.888" y="-438.8591" font-family="Helvetica,sans-Serif" font-size="16.00" fill="#000000">0 rows</text>
<polygon fill="#ffffff" stroke="transparent" points="156,-431.2591 156,-456.2591 212,-456.2591 212,-431.2591 156,-431.2591"/>
<polygon fill="none" stroke="#000000" points="156,-431.2591 156,-456.2591 212,-456.2591 212,-431.2591 156,-431.2591"/>
<text text-anchor="start" x="186.3168" y="-438.8591" font-family="Helvetica,sans-Serif" font-size="16.00" fill="#000000">3 &gt;</text>
</a>
</g>
</g>
<!-- business_partner_notes&#45;&gt;business_partners -->
<g id="edge1" class="edge">
<title>business_partner_notes:w&#45;&gt;business_partners:e</title>
<path fill="none" stroke="#000000" d="M246.8162,-471.2591C237.9812,-471.2591 228.9899,-471.2591 220.0521,-471.2591"/>
<polygon fill="#000000" stroke="#000000" points="253.5,-471.2592 261.5,-474.8591 257.5,-471.2591 261.5,-471.2591 261.5,-471.2591 261.5,-471.2591 257.5,-471.2591 261.5,-467.6591 253.5,-471.2592 253.5,-471.2592"/>
<ellipse fill="none" stroke="#000000" cx="250.3" cy="-471.2592" rx="3.2" ry="3.2"/>
</g>
<!-- project_notes -->
<g id="node3" class="node">
<title>project_notes</title>
<g id="a_node3"><a xlink:href="../../tables/project_notes.html" xlink:title="project_notes" target="_top">
<polygon fill="#ffffff" stroke="transparent" points="686,-198.7591 686,-277.7591 850,-277.7591 850,-198.7591 686,-198.7591"/>
<polygon fill="#f5f5f5" stroke="transparent" points="686,-248.2591 686,-277.2591 850,-277.2591 850,-248.2591 686,-248.2591"/>
<polygon fill="none" stroke="#000000" points="686,-248.2591 686,-277.2591 850,-277.2591 850,-248.2591 686,-248.2591"/>
<text text-anchor="start" x="691" y="-255.3591" font-family="Helvetica,sans-Serif" font-weight="bold" font-size="16.00" fill="#000000">project_notes</text>
<text text-anchor="start" x="801.7136" y="-257.8591" font-family="Helvetica,sans-Serif" font-size="16.00" fill="#000000">[table]</text>
<polygon fill="none" stroke="#000000" points="686,-223.2591 686,-248.2591 850,-248.2591 850,-223.2591 686,-223.2591"/>
<text text-anchor="start" x="689" y="-230.8591" font-family="Helvetica,sans-Serif" font-size="16.00" fill="#000000">...</text>
<polygon fill="#ffffff" stroke="transparent" points="686,-198.2591 686,-223.2591 748,-223.2591 748,-198.2591 686,-198.2591"/>
<polygon fill="none" stroke="#000000" points="686,-198.2591 686,-223.2591 748,-223.2591 748,-198.2591 686,-198.2591"/>
<text text-anchor="start" x="689" y="-205.8591" font-family="Helvetica,sans-Serif" font-size="16.00" fill="#000000">&lt; 1</text>
<polygon fill="#ffffff" stroke="transparent" points="748,-198.2591 748,-223.2591 818,-223.2591 818,-198.2591 748,-198.2591"/>
<polygon fill="none" stroke="#000000" points="748,-198.2591 748,-223.2591 818,-223.2591 818,-198.2591 748,-198.2591"/>
<text text-anchor="start" x="767.888" y="-205.8591" font-family="Helvetica,sans-Serif" font-size="16.00" fill="#000000">0 rows</text>
<polygon fill="#ffffff" stroke="transparent" points="818,-198.2591 818,-223.2591 850,-223.2591 850,-198.2591 818,-198.2591"/>
<polygon fill="none" stroke="#000000" points="818,-198.2591 818,-223.2591 850,-223.2591 850,-198.2591 818,-198.2591"/>
<text text-anchor="start" x="838.1072" y="-205.8591" font-family="Helvetica,sans-Serif" font-size="16.00" fill="#000000"> &#160;</text>
</a>
</g>
</g>
<!-- projects -->
<g id="node4" class="node">
<title>projects</title>
<g id="a_node4"><a xlink:href="../../tables/projects.html" xlink:title="projects" target="_top">
<polygon fill="#ffffff" stroke="transparent" points="326,-204.7591 326,-283.7591 445,-283.7591 445,-204.7591 326,-204.7591"/>
<polygon fill="#f5f5f5" stroke="transparent" points="326.5,-254.2591 326.5,-283.2591 445.5,-283.2591 445.5,-254.2591 326.5,-254.2591"/>
<polygon fill="none" stroke="#000000" points="326.5,-254.2591 326.5,-283.2591 445.5,-283.2591 445.5,-254.2591 326.5,-254.2591"/>
<text text-anchor="start" x="331.5" y="-261.3591" font-family="Helvetica,sans-Serif" font-weight="bold" font-size="16.00" fill="#000000">projects</text>
<text text-anchor="start" x="397.2136" y="-263.8591" font-family="Helvetica,sans-Serif" font-size="16.00" fill="#000000">[table]</text>
<polygon fill="none" stroke="#000000" points="326.5,-229.2591 326.5,-254.2591 445.5,-254.2591 445.5,-229.2591 326.5,-229.2591"/>
<text text-anchor="start" x="329.5" y="-236.8591" font-family="Helvetica,sans-Serif" font-size="16.00" fill="#000000">...</text>
<polygon fill="#ffffff" stroke="transparent" points="326.5,-204.2591 326.5,-229.2591 359.5,-229.2591 359.5,-204.2591 326.5,-204.2591"/>
<polygon fill="none" stroke="#000000" points="326.5,-204.2591 326.5,-229.2591 359.5,-229.2591 359.5,-204.2591 326.5,-204.2591"/>
<text text-anchor="start" x="329.5" y="-211.8591" font-family="Helvetica,sans-Serif" font-size="16.00" fill="#000000">&lt; 1</text>
<polygon fill="#ffffff" stroke="transparent" points="359.5,-204.2591 359.5,-229.2591 414.5,-229.2591 414.5,-204.2591 359.5,-204.2591"/>
<polygon fill="none" stroke="#000000" points="359.5,-204.2591 359.5,-229.2591 414.5,-229.2591 414.5,-204.2591 359.5,-204.2591"/>
<text text-anchor="start" x="364.388" y="-211.8591" font-family="Helvetica,sans-Serif" font-size="16.00" fill="#000000">0 rows</text>
<polygon fill="#ffffff" stroke="transparent" points="414.5,-204.2591 414.5,-229.2591 445.5,-229.2591 445.5,-204.2591 414.5,-204.2591"/>
<polygon fill="none" stroke="#000000" points="414.5,-204.2591 414.5,-229.2591 445.5,-229.2591 445.5,-204.2591 414.5,-204.2591"/>
<text text-anchor="start" x="419.8168" y="-211.8591" font-family="Helvetica,sans-Serif" font-size="16.00" fill="#000000">3 &gt;</text>
</a>
</g>
</g>
<!-- project_notes&#45;&gt;projects -->
<g id="edge2" class="edge">
<title>project_notes:w&#45;&gt;projects:e</title>
<path fill="none" stroke="#000000" d="M671.3496,-235.2937C594.9975,-235.6473 510.4176,-238.6411 453.2115,-241.0734"/>
<polygon fill="#000000" stroke="#000000" points="678,-235.2781 686.0085,-238.8591 682,-235.2686 686,-235.2591 686,-235.2591 686,-235.2591 682,-235.2686 685.9915,-231.6591 678,-235.2781 678,-235.2781"/>
<ellipse fill="none" stroke="#000000" cx="674.8" cy="-235.2856" rx="3.2" ry="3.2"/>
</g>
<!-- projects&#45;&gt;business_partners -->
<g id="edge5" class="edge">
<title>projects:w&#45;&gt;business_partners:e</title>
<path fill="none" stroke="#000000" d="M304.6791,-272.6376C286.796,-280.7813 268.5576,-290.6619 253,-302.2591 206.1614,-337.1743 164.5305,-390.2068 138.4357,-427.5333"/>
<polygon fill="#000000" stroke="#000000" points="310.5769,-270.0728 319.3489,-270.1838 314.2451,-268.4776 317.9133,-266.8825 317.9133,-266.8825 317.9133,-266.8825 314.2451,-268.4776 316.4776,-263.5811 310.5769,-270.0728 310.5769,-270.0728"/>
<ellipse fill="none" stroke="#000000" cx="307.6424" cy="-271.349" rx="3.2" ry="3.2"/>
</g>
<!-- project_tags -->
<g id="node5" class="node">
<title>project_tags</title>
<g id="a_node5"><a xlink:href="../../tables/project_tags.html" xlink:title="project_tags" target="_top">
<polygon fill="#ffffff" stroke="transparent" points="1026,-68.7591 1026,-147.7591 1180,-147.7591 1180,-68.7591 1026,-68.7591"/>
<polygon fill="#f5f5f5" stroke="transparent" points="1026,-118.2591 1026,-147.2591 1180,-147.2591 1180,-118.2591 1026,-118.2591"/>
<polygon fill="none" stroke="#000000" points="1026,-118.2591 1026,-147.2591 1180,-147.2591 1180,-118.2591 1026,-118.2591"/>
<text text-anchor="start" x="1031" y="-125.3591" font-family="Helvetica,sans-Serif" font-weight="bold" font-size="16.00" fill="#000000">project_tags</text>
<text text-anchor="start" x="1131.7136" y="-127.8591" font-family="Helvetica,sans-Serif" font-size="16.00" fill="#000000">[table]</text>
<polygon fill="none" stroke="#000000" points="1026,-93.2591 1026,-118.2591 1180,-118.2591 1180,-93.2591 1026,-93.2591"/>
<text text-anchor="start" x="1029" y="-100.8591" font-family="Helvetica,sans-Serif" font-size="16.00" fill="#000000">...</text>
<polygon fill="#ffffff" stroke="transparent" points="1026,-68.2591 1026,-93.2591 1083,-93.2591 1083,-68.2591 1026,-68.2591"/>
<polygon fill="none" stroke="#000000" points="1026,-68.2591 1026,-93.2591 1083,-93.2591 1083,-68.2591 1026,-68.2591"/>
<text text-anchor="start" x="1029" y="-75.8591" font-family="Helvetica,sans-Serif" font-size="16.00" fill="#000000">&lt; 2</text>
<polygon fill="#ffffff" stroke="transparent" points="1083,-68.2591 1083,-93.2591 1151,-93.2591 1151,-68.2591 1083,-68.2591"/>
<polygon fill="none" stroke="#000000" points="1083,-68.2591 1083,-93.2591 1151,-93.2591 1151,-68.2591 1083,-68.2591"/>
<text text-anchor="start" x="1100.888" y="-75.8591" font-family="Helvetica,sans-Serif" font-size="16.00" fill="#000000">0 rows</text>
<polygon fill="#ffffff" stroke="transparent" points="1151,-68.2591 1151,-93.2591 1180,-93.2591 1180,-68.2591 1151,-68.2591"/>
<polygon fill="none" stroke="#000000" points="1151,-68.2591 1151,-93.2591 1180,-93.2591 1180,-68.2591 1151,-68.2591"/>
<text text-anchor="start" x="1168.1072" y="-75.8591" font-family="Helvetica,sans-Serif" font-size="16.00" fill="#000000"> &#160;</text>
</a>
</g>
</g>
<!-- project_tags&#45;&gt;projects -->
<g id="edge3" class="edge">
<title>project_tags:w&#45;&gt;projects:e</title>
<path fill="none" stroke="#000000" d="M1011.6464,-102.0921C1003.3681,-97.9494 998.3009,-90.9073 985,-88.2591 795.8242,-50.5944 730.2769,-17.0838 551,-88.2591 494.3006,-110.7695 445.7589,-162.9292 416.18,-200.7516"/>
<polygon fill="#000000" stroke="#000000" points="1018.1879,-103.5354 1025.2243,-108.7745 1022.0939,-104.3972 1026,-105.2591 1026,-105.2591 1026,-105.2591 1022.0939,-104.3972 1026.7757,-101.7437 1018.1879,-103.5354 1018.1879,-103.5354"/>
<ellipse fill="none" stroke="#000000" cx="1015.0631" cy="-102.8459" rx="3.2" ry="3.2"/>
</g>
<!-- tags -->
<g id="node6" class="node">
<title>tags</title>
<g id="a_node6"><a xlink:href="../../tables/tags.html" xlink:title="tags" target="_top">
<polygon fill="#ffffff" stroke="transparent" points="720.5,-98.7591 720.5,-177.7591 815.5,-177.7591 815.5,-98.7591 720.5,-98.7591"/>
<polygon fill="#f5f5f5" stroke="transparent" points="721,-148.2591 721,-177.2591 816,-177.2591 816,-148.2591 721,-148.2591"/>
<polygon fill="none" stroke="#000000" points="721,-148.2591 721,-177.2591 816,-177.2591 816,-148.2591 721,-148.2591"/>
<text text-anchor="start" x="725.8824" y="-155.3591" font-family="Helvetica,sans-Serif" font-weight="bold" font-size="16.00" fill="#000000">tags</text>
<text text-anchor="start" x="767.4272" y="-157.8591" font-family="Helvetica,sans-Serif" font-size="16.00" fill="#000000">[table]</text>
<polygon fill="none" stroke="#000000" points="721,-123.2591 721,-148.2591 816,-148.2591 816,-123.2591 721,-123.2591"/>
<text text-anchor="start" x="724" y="-130.8591" font-family="Helvetica,sans-Serif" font-size="16.00" fill="#000000">...</text>
<polygon fill="#ffffff" stroke="transparent" points="721,-98.2591 721,-123.2591 735,-123.2591 735,-98.2591 721,-98.2591"/>
<polygon fill="none" stroke="#000000" points="721,-98.2591 721,-123.2591 735,-123.2591 735,-98.2591 721,-98.2591"/>
<text text-anchor="start" x="723.5536" y="-105.8591" font-family="Helvetica,sans-Serif" font-size="16.00" fill="#000000"> &#160;</text>
<polygon fill="#ffffff" stroke="transparent" points="735,-98.2591 735,-123.2591 788,-123.2591 788,-98.2591 735,-98.2591"/>
<polygon fill="none" stroke="#000000" points="735,-98.2591 735,-123.2591 788,-123.2591 788,-98.2591 735,-98.2591"/>
<text text-anchor="start" x="737.944" y="-105.8591" font-family="Helvetica,sans-Serif" font-size="16.00" fill="#000000">0 rows</text>
<polygon fill="#ffffff" stroke="transparent" points="788,-98.2591 788,-123.2591 816,-123.2591 816,-98.2591 788,-98.2591"/>
<polygon fill="none" stroke="#000000" points="788,-98.2591 788,-123.2591 816,-123.2591 816,-98.2591 788,-98.2591"/>
<text text-anchor="start" x="790.6584" y="-105.8591" font-family="Helvetica,sans-Serif" font-size="16.00" fill="#000000">2 &gt;</text>
</a>
</g>
</g>
<!-- project_tags&#45;&gt;tags -->
<g id="edge4" class="edge">
<title>project_tags:w&#45;&gt;tags:e</title>
<path fill="none" stroke="#000000" d="M1011.4161,-105.5094C929.206,-108.3952 905.217,-135.2591 816,-135.2591"/>
<polygon fill="#000000" stroke="#000000" points="1018.0012,-105.3965 1026.0618,-108.8586 1022.0006,-105.3278 1026,-105.2591 1026,-105.2591 1026,-105.2591 1022.0006,-105.3278 1025.9382,-101.6596 1018.0012,-105.3965 1018.0012,-105.3965"/>
<ellipse fill="none" stroke="#000000" cx="1014.8016" cy="-105.4514" rx="3.2" ry="3.2"/>
</g>
<!-- timer_notes -->
<g id="node7" class="node">
<title>timer_notes</title>
<g id="a_node7"><a xlink:href="../../tables/timer_notes.html" xlink:title="timer_notes" target="_top">
<polygon fill="#ffffff" stroke="transparent" points="1028.5,-627.7591 1028.5,-750.7591 1177.5,-750.7591 1177.5,-627.7591 1028.5,-627.7591"/>
<polygon fill="#f5f5f5" stroke="transparent" points="1029,-721.2591 1029,-750.2591 1178,-750.2591 1178,-721.2591 1029,-721.2591"/>
<polygon fill="none" stroke="#000000" points="1029,-721.2591 1029,-750.2591 1178,-750.2591 1178,-721.2591 1029,-721.2591"/>
<text text-anchor="start" x="1034" y="-728.3591" font-family="Helvetica,sans-Serif" font-weight="bold" font-size="16.00" fill="#000000">timer_notes</text>
<text text-anchor="start" x="1129.7136" y="-730.8591" font-family="Helvetica,sans-Serif" font-size="16.00" fill="#000000">[table]</text>
<polygon fill="none" stroke="#000000" points="1029,-699.2591 1029,-721.2591 1178,-721.2591 1178,-699.2591 1029,-699.2591"/>
<image xlink:href="../../images/primaryKeys.png" width="11px" height="12px" preserveAspectRatio="xMinYMin meet" x="1034" y="-716.259"/>
<text text-anchor="start" x="1065" y="-701.8591" font-family="Helvetica,sans-Serif" font-size="16.00" fill="#000000">id</text>
<polygon fill="#ffffff" stroke="transparent" points="1029,-677.2591 1029,-699.2591 1178,-699.2591 1178,-677.2591 1029,-677.2591"/>
<polygon fill="none" stroke="#000000" points="1029,-677.2591 1029,-699.2591 1178,-699.2591 1178,-677.2591 1029,-677.2591"/>
<image xlink:href="../../images/foreignKeys.png" width="11px" height="12px" preserveAspectRatio="xMinYMin meet" x="1034" y="-694.259"/>
<text text-anchor="start" x="1065" y="-679.8591" font-family="Helvetica,sans-Serif" font-size="16.00" fill="#000000">timer_id</text>
<polygon fill="none" stroke="#000000" points="1029,-652.2591 1029,-677.2591 1178,-677.2591 1178,-652.2591 1029,-652.2591"/>
<text text-anchor="start" x="1032" y="-659.8591" font-family="Helvetica,sans-Serif" font-size="16.00" fill="#000000">...</text>
<polygon fill="#ffffff" stroke="transparent" points="1029,-627.2591 1029,-652.2591 1084,-652.2591 1084,-627.2591 1029,-627.2591"/>
<polygon fill="none" stroke="#000000" points="1029,-627.2591 1029,-652.2591 1084,-652.2591 1084,-627.2591 1029,-627.2591"/>
<text text-anchor="start" x="1032" y="-634.8591" font-family="Helvetica,sans-Serif" font-size="16.00" fill="#000000">&lt; 1</text>
<polygon fill="#ffffff" stroke="transparent" points="1084,-627.2591 1084,-652.2591 1150,-652.2591 1150,-627.2591 1084,-627.2591"/>
<polygon fill="none" stroke="#000000" points="1084,-627.2591 1084,-652.2591 1150,-652.2591 1150,-627.2591 1084,-627.2591"/>
<text text-anchor="start" x="1099.888" y="-634.8591" font-family="Helvetica,sans-Serif" font-size="16.00" fill="#000000">0 rows</text>
<polygon fill="#ffffff" stroke="transparent" points="1150,-627.2591 1150,-652.2591 1178,-652.2591 1178,-627.2591 1150,-627.2591"/>
<polygon fill="none" stroke="#000000" points="1150,-627.2591 1150,-652.2591 1178,-652.2591 1178,-627.2591 1150,-627.2591"/>
<text text-anchor="start" x="1166.1072" y="-634.8591" font-family="Helvetica,sans-Serif" font-size="16.00" fill="#000000"> &#160;</text>
</a>
</g>
</g>
<!-- timers -->
<g id="node8" class="node">
<title>timers</title>
<g id="a_node8"><a xlink:href="../../tables/timers.html" xlink:title="timers" target="_top">
<polygon fill="#ffffff" stroke="transparent" points="559,-298.7591 559,-731.7591 977,-731.7591 977,-298.7591 559,-298.7591"/>
<polygon fill="#f5f5f5" stroke="transparent" points="561,-700.2591 561,-729.2591 975,-729.2591 975,-700.2591 561,-700.2591"/>
<polygon fill="none" stroke="#000000" points="561,-700.2591 561,-729.2591 975,-729.2591 975,-700.2591 561,-700.2591"/>
<text text-anchor="start" x="566" y="-707.3591" font-family="Helvetica,sans-Serif" font-weight="bold" font-size="16.00" fill="#000000">timers</text>
<text text-anchor="start" x="926.4272" y="-709.8591" font-family="Helvetica,sans-Serif" font-size="16.00" fill="#000000">[table]</text>
<polygon fill="none" stroke="#000000" points="561,-675.2591 561,-700.2591 794,-700.2591 794,-675.2591 561,-675.2591"/>
<image xlink:href="../../images/primaryKeys.png" width="11px" height="12px" preserveAspectRatio="xMinYMin meet" x="566" y="-693.759"/>
<text text-anchor="start" x="581" y="-679.3591" font-family="Helvetica,sans-Serif" font-size="16.00" fill="#000000">id</text>
<polygon fill="none" stroke="#000000" points="794,-675.2591 794,-700.2591 975,-700.2591 975,-675.2591 794,-675.2591"/>
<text text-anchor="start" x="797" y="-682.8591" font-family="Helvetica,sans-Serif" font-size="16.00" fill="#000000">integer[2000000000]</text>
<polygon fill="#ffffff" stroke="transparent" points="561,-650.2591 561,-675.2591 794,-675.2591 794,-650.2591 561,-650.2591"/>
<polygon fill="none" stroke="#000000" points="561,-650.2591 561,-675.2591 794,-675.2591 794,-650.2591 561,-650.2591"/>
<text text-anchor="start" x="581" y="-654.3591" font-family="Helvetica,sans-Serif" font-size="16.00" fill="#000000">start_stamp</text>
<polygon fill="none" stroke="#000000" points="794,-650.2591 794,-675.2591 975,-675.2591 975,-650.2591 794,-650.2591"/>
<text text-anchor="start" x="797" y="-657.8591" font-family="Helvetica,sans-Serif" font-size="16.00" fill="#000000">text[2000000000]</text>
<polygon fill="none" stroke="#000000" points="561,-625.2591 561,-650.2591 794,-650.2591 794,-625.2591 561,-625.2591"/>
<text text-anchor="start" x="581" y="-629.3591" font-family="Helvetica,sans-Serif" font-size="16.00" fill="#000000">end_stamp</text>
<polygon fill="none" stroke="#000000" points="794,-625.2591 794,-650.2591 975,-650.2591 975,-625.2591 794,-625.2591"/>
<text text-anchor="start" x="797" y="-632.8591" font-family="Helvetica,sans-Serif" font-size="16.00" fill="#000000">text[2000000000]</text>
<polygon fill="none" stroke="#000000" points="561,-600.2591 561,-625.2591 794,-625.2591 794,-600.2591 561,-600.2591"/>
<text text-anchor="start" x="581" y="-604.3591" font-family="Helvetica,sans-Serif" font-size="16.00" fill="#000000">duration</text>
<polygon fill="none" stroke="#000000" points="794,-600.2591 794,-625.2591 975,-625.2591 975,-600.2591 794,-600.2591"/>
<text text-anchor="start" x="797" y="-607.8591" font-family="Helvetica,sans-Serif" font-size="16.00" fill="#000000">integer[2000000000]</text>
<polygon fill="none" stroke="#000000" points="561,-575.2591 561,-600.2591 794,-600.2591 794,-575.2591 561,-575.2591"/>
<text text-anchor="start" x="581" y="-579.3591" font-family="Helvetica,sans-Serif" font-size="16.00" fill="#000000">duration_time_unit</text>
<polygon fill="none" stroke="#000000" points="794,-575.2591 794,-600.2591 975,-600.2591 975,-575.2591 794,-575.2591"/>
<text text-anchor="start" x="797" y="-582.8591" font-family="Helvetica,sans-Serif" font-size="16.00" fill="#000000">text[2000000000]</text>
<polygon fill="none" stroke="#000000" points="561,-550.2591 561,-575.2591 794,-575.2591 794,-550.2591 561,-550.2591"/>
<text text-anchor="start" x="581" y="-554.3591" font-family="Helvetica,sans-Serif" font-size="16.00" fill="#000000">billable</text>
<polygon fill="none" stroke="#000000" points="794,-550.2591 794,-575.2591 975,-575.2591 975,-550.2591 794,-550.2591"/>
<text text-anchor="start" x="797" y="-557.8591" font-family="Helvetica,sans-Serif" font-size="16.00" fill="#000000">integer[2000000000]</text>
<polygon fill="none" stroke="#000000" points="561,-525.2591 561,-550.2591 794,-550.2591 794,-525.2591 561,-525.2591"/>
<image xlink:href="../../images/foreignKeys.png" width="11px" height="12px" preserveAspectRatio="xMinYMin meet" x="566" y="-543.759"/>
<text text-anchor="start" x="581" y="-529.3591" font-family="Helvetica,sans-Serif" font-size="16.00" fill="#000000">business_partner_id</text>
<polygon fill="none" stroke="#000000" points="794,-525.2591 794,-550.2591 975,-550.2591 975,-525.2591 794,-525.2591"/>
<text text-anchor="start" x="797" y="-532.8591" font-family="Helvetica,sans-Serif" font-size="16.00" fill="#000000">integer[2000000000]</text>
<polygon fill="none" stroke="#000000" points="561,-500.2591 561,-525.2591 794,-525.2591 794,-500.2591 561,-500.2591"/>
<image xlink:href="../../images/foreignKeys.png" width="11px" height="12px" preserveAspectRatio="xMinYMin meet" x="566" y="-518.759"/>
<text text-anchor="start" x="581" y="-504.3591" font-family="Helvetica,sans-Serif" font-size="16.00" fill="#000000">activity_type_id</text>
<polygon fill="none" stroke="#000000" points="794,-500.2591 794,-525.2591 975,-525.2591 975,-500.2591 794,-500.2591"/>
<text text-anchor="start" x="797" y="-507.8591" font-family="Helvetica,sans-Serif" font-size="16.00" fill="#000000">integer[2000000000]</text>
<polygon fill="none" stroke="#000000" points="561,-475.2591 561,-500.2591 794,-500.2591 794,-475.2591 561,-475.2591"/>
<text text-anchor="start" x="581" y="-479.3591" font-family="Helvetica,sans-Serif" font-size="16.00" fill="#000000">billing_rate</text>
<polygon fill="none" stroke="#000000" points="794,-475.2591 794,-500.2591 975,-500.2591 975,-475.2591 794,-475.2591"/>
<text text-anchor="start" x="796.9088" y="-482.8591" font-family="Helvetica,sans-Serif" font-size="16.00" fill="#000000">decimal[2000000000,10]</text>
<polygon fill="none" stroke="#000000" points="561,-450.2591 561,-475.2591 794,-475.2591 794,-450.2591 561,-450.2591"/>
<text text-anchor="start" x="581" y="-454.3591" font-family="Helvetica,sans-Serif" font-size="16.00" fill="#000000">billing_duration</text>
<polygon fill="none" stroke="#000000" points="794,-450.2591 794,-475.2591 975,-475.2591 975,-450.2591 794,-450.2591"/>
<text text-anchor="start" x="797" y="-457.8591" font-family="Helvetica,sans-Serif" font-size="16.00" fill="#000000">integer[2000000000]</text>
<polygon fill="none" stroke="#000000" points="561,-425.2591 561,-450.2591 794,-450.2591 794,-425.2591 561,-425.2591"/>
<text text-anchor="start" x="581" y="-429.3591" font-family="Helvetica,sans-Serif" font-size="16.00" fill="#000000">billing_duration_time_unit</text>
<polygon fill="none" stroke="#000000" points="794,-425.2591 794,-450.2591 975,-450.2591 975,-425.2591 794,-425.2591"/>
<text text-anchor="start" x="797" y="-432.8591" font-family="Helvetica,sans-Serif" font-size="16.00" fill="#000000">text[2000000000]</text>
<polygon fill="none" stroke="#000000" points="561,-400.2591 561,-425.2591 794,-425.2591 794,-400.2591 561,-400.2591"/>
<text text-anchor="start" x="581" y="-404.3591" font-family="Helvetica,sans-Serif" font-size="16.00" fill="#000000">description</text>
<polygon fill="none" stroke="#000000" points="794,-400.2591 794,-425.2591 975,-425.2591 975,-400.2591 794,-400.2591"/>
<text text-anchor="start" x="797" y="-407.8591" font-family="Helvetica,sans-Serif" font-size="16.00" fill="#000000">text[2000000000]</text>
<polygon fill="none" stroke="#000000" points="561,-375.2591 561,-400.2591 794,-400.2591 794,-375.2591 561,-375.2591"/>
<image xlink:href="../../images/foreignKeys.png" width="11px" height="12px" preserveAspectRatio="xMinYMin meet" x="566" y="-393.759"/>
<text text-anchor="start" x="581" y="-379.3591" font-family="Helvetica,sans-Serif" font-size="16.00" fill="#000000">project_id</text>
<polygon fill="none" stroke="#000000" points="794,-375.2591 794,-400.2591 975,-400.2591 975,-375.2591 794,-375.2591"/>
<text text-anchor="start" x="797" y="-382.8591" font-family="Helvetica,sans-Serif" font-size="16.00" fill="#000000">integer[2000000000]</text>
<polygon fill="none" stroke="#000000" points="561,-350.2591 561,-375.2591 794,-375.2591 794,-350.2591 561,-350.2591"/>
<text text-anchor="start" x="581" y="-354.3591" font-family="Helvetica,sans-Serif" font-size="16.00" fill="#000000">inserted_at</text>
<polygon fill="none" stroke="#000000" points="794,-350.2591 794,-375.2591 975,-375.2591 975,-350.2591 794,-350.2591"/>
<text text-anchor="start" x="797" y="-357.8591" font-family="Helvetica,sans-Serif" font-size="16.00" fill="#000000">text[2000000000]</text>
<polygon fill="none" stroke="#000000" points="561,-325.2591 561,-350.2591 794,-350.2591 794,-325.2591 561,-325.2591"/>
<text text-anchor="start" x="581" y="-329.3591" font-family="Helvetica,sans-Serif" font-size="16.00" fill="#000000">updated_at</text>
<polygon fill="none" stroke="#000000" points="794,-325.2591 794,-350.2591 975,-350.2591 975,-325.2591 794,-325.2591"/>
<text text-anchor="start" x="797" y="-332.8591" font-family="Helvetica,sans-Serif" font-size="16.00" fill="#000000">text[2000000000]</text>
<polygon fill="#ffffff" stroke="transparent" points="561,-300.2591 561,-325.2591 665,-325.2591 665,-300.2591 561,-300.2591"/>
<polygon fill="none" stroke="#000000" points="561,-300.2591 561,-325.2591 665,-325.2591 665,-300.2591 561,-300.2591"/>
<text text-anchor="start" x="564" y="-307.8591" font-family="Helvetica,sans-Serif" font-size="16.00" fill="#000000">&lt; 3</text>
<polygon fill="#ffffff" stroke="transparent" points="665,-300.2591 665,-325.2591 794,-325.2591 794,-300.2591 665,-300.2591"/>
<polygon fill="none" stroke="#000000" points="665,-300.2591 665,-325.2591 794,-325.2591 794,-300.2591 665,-300.2591"/>
<text text-anchor="start" x="743.888" y="-307.8591" font-family="Helvetica,sans-Serif" font-size="16.00" fill="#000000">0 rows</text>
<polygon fill="#ffffff" stroke="transparent" points="794,-300.2591 794,-325.2591 975,-325.2591 975,-300.2591 794,-300.2591"/>
<polygon fill="none" stroke="#000000" points="794,-300.2591 794,-325.2591 975,-325.2591 975,-300.2591 794,-300.2591"/>
<text text-anchor="start" x="949.3168" y="-307.8591" font-family="Helvetica,sans-Serif" font-size="16.00" fill="#000000">2 &gt;</text>
<polygon fill="none" stroke="#000000" stroke-width="2" points="560,-299.7591 560,-730.7591 976,-730.7591 976,-299.7591 560,-299.7591"/>
</a>
</g>
</g>
<!-- timer_notes&#45;&gt;timers -->
<g id="edge6" class="edge">
<title>timer_notes:w&#45;&gt;timers:e</title>
<path fill="none" stroke="#000000" d="M1014.2185,-688.2591C1001.038,-688.2591 993.1875,-688.2591 975,-688.2591"/>
<polygon fill="#000000" stroke="#000000" points="1021,-688.2592 1029,-691.8591 1025,-688.2591 1029,-688.2591 1029,-688.2591 1029,-688.2591 1025,-688.2591 1029,-684.6591 1021,-688.2592 1021,-688.2592"/>
<ellipse fill="none" stroke="#000000" cx="1017.8" cy="-688.2592" rx="3.2" ry="3.2"/>
</g>
<!-- timers&#45;&gt;business_partners -->
<g id="edge10" class="edge">
<title>timers:w&#45;&gt;business_partners:e</title>
<path fill="none" stroke="#000000" d="M546.5299,-538.3084C421.1919,-539.1636 382.4415,-550.5222 253,-524.2591 241.0639,-521.8373 228.8003,-518.5746 216.7121,-514.8514"/>
<polygon fill="#000000" stroke="#000000" points="553,-538.2864 561.0123,-541.8591 557,-538.2728 561,-538.2591 561,-538.2591 561,-538.2591 557,-538.2728 560.9877,-534.6591 553,-538.2864 553,-538.2864"/>
<ellipse fill="none" stroke="#000000" cx="549.8001" cy="-538.2974" rx="3.2" ry="3.2"/>
</g>
<!-- timers&#45;&gt;projects -->
<g id="edge11" class="edge">
<title>timers:w&#45;&gt;projects:e</title>
<path fill="none" stroke="#000000" d="M546.7798,-384.0052C526.0917,-371.6581 544.3134,-327.1454 518,-302.2591 499.8473,-285.091 475.7893,-272.5066 453.1587,-263.5363"/>
<polygon fill="#000000" stroke="#000000" points="553.2016,-385.4746 560.197,-390.7684 557.1008,-386.3668 561,-387.2591 561,-387.2591 561,-387.2591 557.1008,-386.3668 561.803,-383.7498 553.2016,-385.4746 553.2016,-385.4746"/>
<ellipse fill="none" stroke="#000000" cx="550.0822" cy="-384.7608" rx="3.2" ry="3.2"/>
</g>
<!-- activity_types -->
<g id="node10" class="node">
<title>activity_types</title>
<g id="a_node10"><a xlink:href="../../tables/activity_types.html" xlink:title="activity_types" target="_top">
<polygon fill="#ffffff" stroke="transparent" points="303,-312.7591 303,-413.7591 468,-413.7591 468,-312.7591 303,-312.7591"/>
<polygon fill="#f5f5f5" stroke="transparent" points="303.5,-384.2591 303.5,-413.2591 468.5,-413.2591 468.5,-384.2591 303.5,-384.2591"/>
<polygon fill="none" stroke="#000000" points="303.5,-384.2591 303.5,-413.2591 468.5,-413.2591 468.5,-384.2591 303.5,-384.2591"/>
<text text-anchor="start" x="308.5" y="-391.3591" font-family="Helvetica,sans-Serif" font-weight="bold" font-size="16.00" fill="#000000">activity_types</text>
<text text-anchor="start" x="420.2136" y="-393.8591" font-family="Helvetica,sans-Serif" font-size="16.00" fill="#000000">[table]</text>
<polygon fill="none" stroke="#000000" points="303.5,-362.2591 303.5,-384.2591 468.5,-384.2591 468.5,-362.2591 303.5,-362.2591"/>
<image xlink:href="../../images/primaryKeys.png" width="11px" height="12px" preserveAspectRatio="xMinYMin meet" x="308.5" y="-379.259"/>
<text text-anchor="start" x="339.5" y="-364.8591" font-family="Helvetica,sans-Serif" font-size="16.00" fill="#000000">id</text>
<polygon fill="none" stroke="#000000" points="303.5,-337.2591 303.5,-362.2591 468.5,-362.2591 468.5,-337.2591 303.5,-337.2591"/>
<text text-anchor="start" x="306.5" y="-344.8591" font-family="Helvetica,sans-Serif" font-size="16.00" fill="#000000">...</text>
<polygon fill="#ffffff" stroke="transparent" points="303.5,-312.2591 303.5,-337.2591 352.5,-337.2591 352.5,-312.2591 303.5,-312.2591"/>
<polygon fill="none" stroke="#000000" points="303.5,-312.2591 303.5,-337.2591 352.5,-337.2591 352.5,-312.2591 303.5,-312.2591"/>
<text text-anchor="start" x="306.5" y="-319.8591" font-family="Helvetica,sans-Serif" font-size="16.00" fill="#000000"> &#160;</text>
<polygon fill="#ffffff" stroke="transparent" points="352.5,-312.2591 352.5,-337.2591 422.5,-337.2591 422.5,-312.2591 352.5,-312.2591"/>
<polygon fill="none" stroke="#000000" points="352.5,-312.2591 352.5,-337.2591 422.5,-337.2591 422.5,-312.2591 352.5,-312.2591"/>
<text text-anchor="start" x="372.388" y="-319.8591" font-family="Helvetica,sans-Serif" font-size="16.00" fill="#000000">0 rows</text>
<polygon fill="#ffffff" stroke="transparent" points="422.5,-312.2591 422.5,-337.2591 468.5,-337.2591 468.5,-312.2591 422.5,-312.2591"/>
<polygon fill="none" stroke="#000000" points="422.5,-312.2591 422.5,-337.2591 468.5,-337.2591 468.5,-312.2591 422.5,-312.2591"/>
<text text-anchor="start" x="442.8168" y="-319.8591" font-family="Helvetica,sans-Serif" font-size="16.00" fill="#000000">1 &gt;</text>
</a>
</g>
</g>
<!-- timers&#45;&gt;activity_types -->
<g id="edge9" class="edge">
<title>timers:w&#45;&gt;activity_types:e</title>
<path fill="none" stroke="#000000" d="M546.714,-509.4984C523.5121,-498.2491 539.6046,-455.007 518,-424.2591 499.8399,-398.4136 500.0876,-373.2591 468.5,-373.2591"/>
<polygon fill="#000000" stroke="#000000" points="553.1453,-510.7412 560.3169,-515.7937 557.0727,-511.5001 561,-512.2591 561,-512.2591 561,-512.2591 557.0727,-511.5001 561.6831,-508.7245 553.1453,-510.7412 553.1453,-510.7412"/>
<ellipse fill="none" stroke="#000000" cx="550.0034" cy="-510.134" rx="3.2" ry="3.2"/>
</g>
<!-- timer_tags -->
<g id="node9" class="node">
<title>timer_tags</title>
<g id="a_node9"><a xlink:href="../../tables/timer_tags.html" xlink:title="timer_tags" target="_top">
<polygon fill="#ffffff" stroke="transparent" points="1034,-314.7591 1034,-459.7591 1172,-459.7591 1172,-314.7591 1034,-314.7591"/>
<polygon fill="#f5f5f5" stroke="transparent" points="1034,-430.2591 1034,-459.2591 1172,-459.2591 1172,-430.2591 1034,-430.2591"/>
<polygon fill="none" stroke="#000000" points="1034,-430.2591 1034,-459.2591 1172,-459.2591 1172,-430.2591 1034,-430.2591"/>
<text text-anchor="start" x="1039" y="-437.3591" font-family="Helvetica,sans-Serif" font-weight="bold" font-size="16.00" fill="#000000">timer_tags</text>
<text text-anchor="start" x="1123.7136" y="-439.8591" font-family="Helvetica,sans-Serif" font-size="16.00" fill="#000000">[table]</text>
<polygon fill="none" stroke="#000000" points="1034,-408.2591 1034,-430.2591 1172,-430.2591 1172,-408.2591 1034,-408.2591"/>
<image xlink:href="../../images/primaryKeys.png" width="11px" height="12px" preserveAspectRatio="xMinYMin meet" x="1039" y="-425.259"/>
<text text-anchor="start" x="1068" y="-410.8591" font-family="Helvetica,sans-Serif" font-size="16.00" fill="#000000">id</text>
<polygon fill="#ffffff" stroke="transparent" points="1034,-386.2591 1034,-408.2591 1172,-408.2591 1172,-386.2591 1034,-386.2591"/>
<polygon fill="none" stroke="#000000" points="1034,-386.2591 1034,-408.2591 1172,-408.2591 1172,-386.2591 1034,-386.2591"/>
<image xlink:href="../../images/foreignKeys.png" width="11px" height="12px" preserveAspectRatio="xMinYMin meet" x="1039" y="-403.259"/>
<text text-anchor="start" x="1068" y="-388.8591" font-family="Helvetica,sans-Serif" font-size="16.00" fill="#000000">tag_id</text>
<polygon fill="#ffffff" stroke="transparent" points="1034,-364.2591 1034,-386.2591 1172,-386.2591 1172,-364.2591 1034,-364.2591"/>
<polygon fill="none" stroke="#000000" points="1034,-364.2591 1034,-386.2591 1172,-386.2591 1172,-364.2591 1034,-364.2591"/>
<image xlink:href="../../images/foreignKeys.png" width="11px" height="12px" preserveAspectRatio="xMinYMin meet" x="1039" y="-381.259"/>
<text text-anchor="start" x="1068" y="-366.8591" font-family="Helvetica,sans-Serif" font-size="16.00" fill="#000000">timer_id</text>
<polygon fill="none" stroke="#000000" points="1034,-339.2591 1034,-364.2591 1172,-364.2591 1172,-339.2591 1034,-339.2591"/>
<text text-anchor="start" x="1037" y="-346.8591" font-family="Helvetica,sans-Serif" font-size="16.00" fill="#000000">...</text>
<polygon fill="#ffffff" stroke="transparent" points="1034,-314.2591 1034,-339.2591 1083,-339.2591 1083,-314.2591 1034,-314.2591"/>
<polygon fill="none" stroke="#000000" points="1034,-314.2591 1034,-339.2591 1083,-339.2591 1083,-314.2591 1034,-314.2591"/>
<text text-anchor="start" x="1037" y="-321.8591" font-family="Helvetica,sans-Serif" font-size="16.00" fill="#000000">&lt; 2</text>
<polygon fill="#ffffff" stroke="transparent" points="1083,-314.2591 1083,-339.2591 1147,-339.2591 1147,-314.2591 1083,-314.2591"/>
<polygon fill="none" stroke="#000000" points="1083,-314.2591 1083,-339.2591 1147,-339.2591 1147,-314.2591 1083,-314.2591"/>
<text text-anchor="start" x="1096.888" y="-321.8591" font-family="Helvetica,sans-Serif" font-size="16.00" fill="#000000">0 rows</text>
<polygon fill="#ffffff" stroke="transparent" points="1147,-314.2591 1147,-339.2591 1172,-339.2591 1172,-314.2591 1147,-314.2591"/>
<polygon fill="none" stroke="#000000" points="1147,-314.2591 1147,-339.2591 1172,-339.2591 1172,-314.2591 1147,-314.2591"/>
<text text-anchor="start" x="1160.1072" y="-321.8591" font-family="Helvetica,sans-Serif" font-size="16.00" fill="#000000"> &#160;</text>
</a>
</g>
</g>
<!-- timer_tags&#45;&gt;tags -->
<g id="edge7" class="edge">
<title>timer_tags:w&#45;&gt;tags:e</title>
<path fill="none" stroke="#000000" d="M1019.2815,-395.8683C951.0352,-381.1959 1046.1306,-254.0634 985,-188.2591 931.4236,-130.5866 894.7181,-135.2591 816,-135.2591"/>
<polygon fill="#000000" stroke="#000000" points="1026.0355,-396.5065 1033.6613,-400.8431 1030.0177,-396.8828 1034,-397.2591 1034,-397.2591 1034,-397.2591 1030.0177,-396.8828 1034.3387,-393.6751 1026.0355,-396.5065 1026.0355,-396.5065"/>
<ellipse fill="none" stroke="#000000" cx="1022.8497" cy="-396.2054" rx="3.2" ry="3.2"/>
</g>
<!-- timer_tags&#45;&gt;timers -->
<g id="edge8" class="edge">
<title>timer_tags:w&#45;&gt;timers:e</title>
<path fill="none" stroke="#000000" d="M1020.3591,-380.4307C974.9075,-421.1266 1040.389,-688.2591 975,-688.2591"/>
<polygon fill="#000000" stroke="#000000" points="1026.5196,-378.0951 1035.2762,-378.6253 1030.2598,-376.6771 1034,-375.2591 1034,-375.2591 1034,-375.2591 1030.2598,-376.6771 1032.7238,-371.8929 1026.5196,-378.0951 1026.5196,-378.0951"/>
<ellipse fill="none" stroke="#000000" cx="1023.5274" cy="-379.2296" rx="3.2" ry="3.2"/>
</g>
</g>
</svg>
