<?xml version="1.0" encoding="UTF-8" standalone="no"?>
<!DOCTYPE svg PUBLIC "-//W3C//DTD SVG 1.1//EN"
 "http://www.w3.org/Graphics/SVG/1.1/DTD/svg11.dtd">
<!-- Generated by graphviz version 2.40.1 (20161225.0304)
 -->
<!-- Title: twoDegreesRelationshipsDiagram Pages: 1 -->
<svg width="1040pt" height="455pt"
 viewBox="0.00 0.00 1040.00 455.20" xmlns="http://www.w3.org/2000/svg" xmlns:xlink="http://www.w3.org/1999/xlink">
<g id="graph0" class="graph" transform="scale(1 1) rotate(0) translate(4 451.2)">
<title>twoDegreesRelationshipsDiagram</title>
<polygon fill="#ffffff" stroke="transparent" points="-4,4 -4,-451.2 1036,-451.2 1036,4 -4,4"/>
<text text-anchor="middle" x="101.8088" y="-8.8" font-family="Helvetica,sans-Serif" font-size="16.00" fill="#000000">Generated by SchemaSpy</text>
<!-- project_tags -->
<g id="node1" class="node">
<title>project_tags</title>
<g id="a_node1"><a xlink:href="../../tables/project_tags.html" xlink:title="project_tags" target="_top">
<polygon fill="#ffffff" stroke="transparent" points="813.5,-50.2 813.5,-129.2 967.5,-129.2 967.5,-50.2 813.5,-50.2"/>
<polygon fill="#f5f5f5" stroke="transparent" points="813.5,-99.7 813.5,-128.7 967.5,-128.7 967.5,-99.7 813.5,-99.7"/>
<polygon fill="none" stroke="#000000" points="813.5,-99.7 813.5,-128.7 967.5,-128.7 967.5,-99.7 813.5,-99.7"/>
<text text-anchor="start" x="818.5" y="-106.8" font-family="Helvetica,sans-Serif" font-weight="bold" font-size="16.00" fill="#000000">project_tags</text>
<text text-anchor="start" x="919.2136" y="-109.3" font-family="Helvetica,sans-Serif" font-size="16.00" fill="#000000">[table]</text>
<polygon fill="none" stroke="#000000" points="813.5,-74.7 813.5,-99.7 967.5,-99.7 967.5,-74.7 813.5,-74.7"/>
<text text-anchor="start" x="816.5" y="-82.3" font-family="Helvetica,sans-Serif" font-size="16.00" fill="#000000">...</text>
<polygon fill="#ffffff" stroke="transparent" points="813.5,-49.7 813.5,-74.7 870.5,-74.7 870.5,-49.7 813.5,-49.7"/>
<polygon fill="none" stroke="#000000" points="813.5,-49.7 813.5,-74.7 870.5,-74.7 870.5,-49.7 813.5,-49.7"/>
<text text-anchor="start" x="816.5" y="-57.3" font-family="Helvetica,sans-Serif" font-size="16.00" fill="#000000">&lt; 2</text>
<polygon fill="#ffffff" stroke="transparent" points="870.5,-49.7 870.5,-74.7 938.5,-74.7 938.5,-49.7 870.5,-49.7"/>
<polygon fill="none" stroke="#000000" points="870.5,-49.7 870.5,-74.7 938.5,-74.7 938.5,-49.7 870.5,-49.7"/>
<text text-anchor="start" x="888.388" y="-57.3" font-family="Helvetica,sans-Serif" font-size="16.00" fill="#000000">0 rows</text>
<polygon fill="#ffffff" stroke="transparent" points="938.5,-49.7 938.5,-74.7 967.5,-74.7 967.5,-49.7 938.5,-49.7"/>
<polygon fill="none" stroke="#000000" points="938.5,-49.7 938.5,-74.7 967.5,-74.7 967.5,-49.7 938.5,-49.7"/>
<text text-anchor="start" x="955.6072" y="-57.3" font-family="Helvetica,sans-Serif" font-size="16.00" fill="#000000"> &#160;</text>
</a>
</g>
</g>
<!-- projects -->
<g id="node2" class="node">
<title>projects</title>
<g id="a_node2"><a xlink:href="../../tables/projects.html" xlink:title="projects" target="_top">
<polygon fill="#ffffff" stroke="transparent" points="284,-175.2 284,-254.2 403,-254.2 403,-175.2 284,-175.2"/>
<polygon fill="#f5f5f5" stroke="transparent" points="284.5,-224.7 284.5,-253.7 403.5,-253.7 403.5,-224.7 284.5,-224.7"/>
<polygon fill="none" stroke="#000000" points="284.5,-224.7 284.5,-253.7 403.5,-253.7 403.5,-224.7 284.5,-224.7"/>
<text text-anchor="start" x="289.5" y="-231.8" font-family="Helvetica,sans-Serif" font-weight="bold" font-size="16.00" fill="#000000">projects</text>
<text text-anchor="start" x="355.2136" y="-234.3" font-family="Helvetica,sans-Serif" font-size="16.00" fill="#000000">[table]</text>
<polygon fill="none" stroke="#000000" points="284.5,-199.7 284.5,-224.7 403.5,-224.7 403.5,-199.7 284.5,-199.7"/>
<text text-anchor="start" x="287.5" y="-207.3" font-family="Helvetica,sans-Serif" font-size="16.00" fill="#000000">...</text>
<polygon fill="#ffffff" stroke="transparent" points="284.5,-174.7 284.5,-199.7 317.5,-199.7 317.5,-174.7 284.5,-174.7"/>
<polygon fill="none" stroke="#000000" points="284.5,-174.7 284.5,-199.7 317.5,-199.7 317.5,-174.7 284.5,-174.7"/>
<text text-anchor="start" x="287.5" y="-182.3" font-family="Helvetica,sans-Serif" font-size="16.00" fill="#000000">&lt; 1</text>
<polygon fill="#ffffff" stroke="transparent" points="317.5,-174.7 317.5,-199.7 372.5,-199.7 372.5,-174.7 317.5,-174.7"/>
<polygon fill="none" stroke="#000000" points="317.5,-174.7 317.5,-199.7 372.5,-199.7 372.5,-174.7 317.5,-174.7"/>
<text text-anchor="start" x="322.388" y="-182.3" font-family="Helvetica,sans-Serif" font-size="16.00" fill="#000000">0 rows</text>
<polygon fill="#ffffff" stroke="transparent" points="372.5,-174.7 372.5,-199.7 403.5,-199.7 403.5,-174.7 372.5,-174.7"/>
<polygon fill="none" stroke="#000000" points="372.5,-174.7 372.5,-199.7 403.5,-199.7 403.5,-174.7 372.5,-174.7"/>
<text text-anchor="start" x="377.8168" y="-182.3" font-family="Helvetica,sans-Serif" font-size="16.00" fill="#000000">3 &gt;</text>
</a>
</g>
</g>
<!-- project_tags&#45;&gt;projects -->
<g id="edge1" class="edge">
<title>project_tags:w&#45;&gt;projects:e</title>
<path fill="none" stroke="#000000" d="M798.8888,-86.4918C655.4277,-82.3974 594.3428,-20.1225 467,-97.7 417.4705,-127.8735 461.4966,-211.7 403.5,-211.7"/>
<polygon fill="#000000" stroke="#000000" points="805.5008,-86.586 813.4487,-90.2996 809.5004,-86.643 813.5,-86.7 813.5,-86.7 813.5,-86.7 809.5004,-86.643 813.5513,-83.1004 805.5008,-86.586 805.5008,-86.586"/>
<ellipse fill="none" stroke="#000000" cx="802.3011" cy="-86.5404" rx="3.2" ry="3.2"/>
</g>
<!-- tags -->
<g id="node3" class="node">
<title>tags</title>
<g id="a_node3"><a xlink:href="../../tables/tags.html" xlink:title="tags" target="_top">
<polygon fill="#ffffff" stroke="transparent" points="535.5,-108.2 535.5,-231.2 647.5,-231.2 647.5,-108.2 535.5,-108.2"/>
<polygon fill="#f5f5f5" stroke="transparent" points="535.5,-201.7 535.5,-230.7 647.5,-230.7 647.5,-201.7 535.5,-201.7"/>
<polygon fill="none" stroke="#000000" points="535.5,-201.7 535.5,-230.7 647.5,-230.7 647.5,-201.7 535.5,-201.7"/>
<text text-anchor="start" x="540.3824" y="-208.8" font-family="Helvetica,sans-Serif" font-weight="bold" font-size="16.00" fill="#000000">tags</text>
<text text-anchor="start" x="598.9272" y="-211.3" font-family="Helvetica,sans-Serif" font-size="16.00" fill="#000000">[table]</text>
<polygon fill="none" stroke="#000000" points="535.5,-179.7 535.5,-201.7 647.5,-201.7 647.5,-179.7 535.5,-179.7"/>
<image xlink:href="../../images/primaryKeys.png" width="11px" height="12px" preserveAspectRatio="xMinYMin meet" x="540.5" y="-196.7"/>
<text text-anchor="start" x="555.5" y="-182.3" font-family="Helvetica,sans-Serif" font-size="16.00" fill="#000000">id</text>
<polygon fill="#ffffff" stroke="transparent" points="535.5,-157.7 535.5,-179.7 647.5,-179.7 647.5,-157.7 535.5,-157.7"/>
<polygon fill="none" stroke="#000000" points="535.5,-157.7 535.5,-179.7 647.5,-179.7 647.5,-157.7 535.5,-157.7"/>
<text text-anchor="start" x="555.5" y="-160.3" font-family="Helvetica,sans-Serif" font-size="16.00" fill="#000000">name</text>
<polygon fill="none" stroke="#000000" points="535.5,-132.7 535.5,-157.7 647.5,-157.7 647.5,-132.7 535.5,-132.7"/>
<text text-anchor="start" x="538.5" y="-140.3" font-family="Helvetica,sans-Serif" font-size="16.00" fill="#000000">...</text>
<polygon fill="#ffffff" stroke="transparent" points="535.5,-107.7 535.5,-132.7 557.5,-132.7 557.5,-107.7 535.5,-107.7"/>
<polygon fill="none" stroke="#000000" points="535.5,-107.7 535.5,-132.7 557.5,-132.7 557.5,-107.7 535.5,-107.7"/>
<text text-anchor="start" x="538.5" y="-115.3" font-family="Helvetica,sans-Serif" font-size="16.00" fill="#000000"> &#160;</text>
<polygon fill="#ffffff" stroke="transparent" points="557.5,-107.7 557.5,-132.7 614.5,-132.7 614.5,-107.7 557.5,-107.7"/>
<polygon fill="none" stroke="#000000" points="557.5,-107.7 557.5,-132.7 614.5,-132.7 614.5,-107.7 557.5,-107.7"/>
<text text-anchor="start" x="564.388" y="-115.3" font-family="Helvetica,sans-Serif" font-size="16.00" fill="#000000">0 rows</text>
<polygon fill="#ffffff" stroke="transparent" points="614.5,-107.7 614.5,-132.7 647.5,-132.7 647.5,-107.7 614.5,-107.7"/>
<polygon fill="none" stroke="#000000" points="614.5,-107.7 614.5,-132.7 647.5,-132.7 647.5,-107.7 614.5,-107.7"/>
<text text-anchor="start" x="621.8168" y="-115.3" font-family="Helvetica,sans-Serif" font-size="16.00" fill="#000000">2 &gt;</text>
</a>
</g>
</g>
<!-- project_tags&#45;&gt;tags -->
<g id="edge2" class="edge">
<title>project_tags:w&#45;&gt;tags:e</title>
<path fill="none" stroke="#000000" d="M798.6907,-87.7976C727.0734,-98.9125 729.2899,-190.7 647.5,-190.7"/>
<polygon fill="#000000" stroke="#000000" points="805.5219,-87.2914 813.7661,-90.2902 809.5109,-86.9957 813.5,-86.7 813.5,-86.7 813.5,-86.7 809.5109,-86.9957 813.2339,-83.1098 805.5219,-87.2914 805.5219,-87.2914"/>
<ellipse fill="none" stroke="#000000" cx="802.3306" cy="-87.5279" rx="3.2" ry="3.2"/>
</g>
<!-- business_partners -->
<g id="node4" class="node">
<title>business_partners</title>
<g id="a_node4"><a xlink:href="../../tables/business_partners.html" xlink:title="business_partners" target="_top">
<polygon fill="#ffffff" stroke="transparent" points="8,-258.2 8,-337.2 212,-337.2 212,-258.2 8,-258.2"/>
<polygon fill="#f5f5f5" stroke="transparent" points="8,-307.7 8,-336.7 212,-336.7 212,-307.7 8,-307.7"/>
<polygon fill="none" stroke="#000000" points="8,-307.7 8,-336.7 212,-336.7 212,-307.7 8,-307.7"/>
<text text-anchor="start" x="13" y="-314.8" font-family="Helvetica,sans-Serif" font-weight="bold" font-size="16.00" fill="#000000">business_partners</text>
<text text-anchor="start" x="163.7136" y="-317.3" font-family="Helvetica,sans-Serif" font-size="16.00" fill="#000000">[table]</text>
<polygon fill="none" stroke="#000000" points="8,-282.7 8,-307.7 212,-307.7 212,-282.7 8,-282.7"/>
<text text-anchor="start" x="11" y="-290.3" font-family="Helvetica,sans-Serif" font-size="16.00" fill="#000000">...</text>
<polygon fill="#ffffff" stroke="transparent" points="8,-257.7 8,-282.7 76,-282.7 76,-257.7 8,-257.7"/>
<polygon fill="none" stroke="#000000" points="8,-257.7 8,-282.7 76,-282.7 76,-257.7 8,-257.7"/>
<text text-anchor="start" x="11" y="-265.3" font-family="Helvetica,sans-Serif" font-size="16.00" fill="#000000"> &#160;</text>
<polygon fill="#ffffff" stroke="transparent" points="76,-257.7 76,-282.7 156,-282.7 156,-257.7 76,-257.7"/>
<polygon fill="none" stroke="#000000" points="76,-257.7 76,-282.7 156,-282.7 156,-257.7 76,-257.7"/>
<text text-anchor="start" x="105.888" y="-265.3" font-family="Helvetica,sans-Serif" font-size="16.00" fill="#000000">0 rows</text>
<polygon fill="#ffffff" stroke="transparent" points="156,-257.7 156,-282.7 212,-282.7 212,-257.7 156,-257.7"/>
<polygon fill="none" stroke="#000000" points="156,-257.7 156,-282.7 212,-282.7 212,-257.7 156,-257.7"/>
<text text-anchor="start" x="186.3168" y="-265.3" font-family="Helvetica,sans-Serif" font-size="16.00" fill="#000000">3 &gt;</text>
</a>
</g>
</g>
<!-- projects&#45;&gt;business_partners -->
<g id="edge3" class="edge">
<title>projects:w&#45;&gt;business_partners:e</title>
<path fill="none" stroke="#000000" d="M270.1077,-214.8523C240.4648,-230.0133 255.2403,-294.7 212,-294.7"/>
<polygon fill="#000000" stroke="#000000" points="276.6853,-213.4117 285.2703,-215.2166 280.5926,-212.5559 284.5,-211.7 284.5,-211.7 284.5,-211.7 280.5926,-212.5559 283.7297,-208.1834 276.6853,-213.4117 276.6853,-213.4117"/>
<ellipse fill="none" stroke="#000000" cx="273.5594" cy="-214.0964" rx="3.2" ry="3.2"/>
</g>
<!-- timer_notes -->
<g id="node5" class="node">
<title>timer_notes</title>
<g id="a_node5"><a xlink:href="../../tables/timer_notes.html" xlink:title="timer_notes" target="_top">
<polygon fill="#ffffff" stroke="transparent" points="816,-364.2 816,-443.2 965,-443.2 965,-364.2 816,-364.2"/>
<polygon fill="#f5f5f5" stroke="transparent" points="816.5,-413.7 816.5,-442.7 965.5,-442.7 965.5,-413.7 816.5,-413.7"/>
<polygon fill="none" stroke="#000000" points="816.5,-413.7 816.5,-442.7 965.5,-442.7 965.5,-413.7 816.5,-413.7"/>
<text text-anchor="start" x="821.5" y="-420.8" font-family="Helvetica,sans-Serif" font-weight="bold" font-size="16.00" fill="#000000">timer_notes</text>
<text text-anchor="start" x="917.2136" y="-423.3" font-family="Helvetica,sans-Serif" font-size="16.00" fill="#000000">[table]</text>
<polygon fill="none" stroke="#000000" points="816.5,-388.7 816.5,-413.7 965.5,-413.7 965.5,-388.7 816.5,-388.7"/>
<text text-anchor="start" x="819.5" y="-396.3" font-family="Helvetica,sans-Serif" font-size="16.00" fill="#000000">...</text>
<polygon fill="#ffffff" stroke="transparent" points="816.5,-363.7 816.5,-388.7 871.5,-388.7 871.5,-363.7 816.5,-363.7"/>
<polygon fill="none" stroke="#000000" points="816.5,-363.7 816.5,-388.7 871.5,-388.7 871.5,-363.7 816.5,-363.7"/>
<text text-anchor="start" x="819.5" y="-371.3" font-family="Helvetica,sans-Serif" font-size="16.00" fill="#000000">&lt; 1</text>
<polygon fill="#ffffff" stroke="transparent" points="871.5,-363.7 871.5,-388.7 937.5,-388.7 937.5,-363.7 871.5,-363.7"/>
<polygon fill="none" stroke="#000000" points="871.5,-363.7 871.5,-388.7 937.5,-388.7 937.5,-363.7 871.5,-363.7"/>
<text text-anchor="start" x="887.388" y="-371.3" font-family="Helvetica,sans-Serif" font-size="16.00" fill="#000000">0 rows</text>
<polygon fill="#ffffff" stroke="transparent" points="937.5,-363.7 937.5,-388.7 965.5,-388.7 965.5,-363.7 937.5,-363.7"/>
<polygon fill="none" stroke="#000000" points="937.5,-363.7 937.5,-388.7 965.5,-388.7 965.5,-363.7 937.5,-363.7"/>
<text text-anchor="start" x="953.6072" y="-371.3" font-family="Helvetica,sans-Serif" font-size="16.00" fill="#000000"> &#160;</text>
</a>
</g>
</g>
<!-- timers -->
<g id="node6" class="node">
<title>timers</title>
<g id="a_node6"><a xlink:href="../../tables/timers.html" xlink:title="timers" target="_top">
<polygon fill="#ffffff" stroke="transparent" points="475,-252.2 475,-441.2 708,-441.2 708,-252.2 475,-252.2"/>
<polygon fill="#f5f5f5" stroke="transparent" points="475.5,-411.7 475.5,-440.7 708.5,-440.7 708.5,-411.7 475.5,-411.7"/>
<polygon fill="none" stroke="#000000" points="475.5,-411.7 475.5,-440.7 708.5,-440.7 708.5,-411.7 475.5,-411.7"/>
<text text-anchor="start" x="480.5" y="-418.8" font-family="Helvetica,sans-Serif" font-weight="bold" font-size="16.00" fill="#000000">timers</text>
<text text-anchor="start" x="659.9272" y="-421.3" font-family="Helvetica,sans-Serif" font-size="16.00" fill="#000000">[table]</text>
<polygon fill="none" stroke="#000000" points="475.5,-389.7 475.5,-411.7 708.5,-411.7 708.5,-389.7 475.5,-389.7"/>
<image xlink:href="../../images/primaryKeys.png" width="11px" height="12px" preserveAspectRatio="xMinYMin meet" x="480.5" y="-406.7"/>
<text text-anchor="start" x="495.5" y="-392.3" font-family="Helvetica,sans-Serif" font-size="16.00" fill="#000000">id</text>
<polygon fill="#ffffff" stroke="transparent" points="475.5,-367.7 475.5,-389.7 708.5,-389.7 708.5,-367.7 475.5,-367.7"/>
<polygon fill="none" stroke="#000000" points="475.5,-367.7 475.5,-389.7 708.5,-389.7 708.5,-367.7 475.5,-367.7"/>
<text text-anchor="start" x="495.5" y="-370.3" font-family="Helvetica,sans-Serif" font-size="16.00" fill="#000000">start_stamp</text>
<polygon fill="none" stroke="#000000" points="475.5,-345.7 475.5,-367.7 708.5,-367.7 708.5,-345.7 475.5,-345.7"/>
<image xlink:href="../../images/foreignKeys.png" width="11px" height="12px" preserveAspectRatio="xMinYMin meet" x="480.5" y="-362.7"/>
<text text-anchor="start" x="495.5" y="-348.3" font-family="Helvetica,sans-Serif" font-size="16.00" fill="#000000">business_partner_id</text>
<polygon fill="none" stroke="#000000" points="475.5,-323.7 475.5,-345.7 708.5,-345.7 708.5,-323.7 475.5,-323.7"/>
<image xlink:href="../../images/foreignKeys.png" width="11px" height="12px" preserveAspectRatio="xMinYMin meet" x="480.5" y="-340.7"/>
<text text-anchor="start" x="495.5" y="-326.3" font-family="Helvetica,sans-Serif" font-size="16.00" fill="#000000">activity_type_id</text>
<polygon fill="none" stroke="#000000" points="475.5,-301.7 475.5,-323.7 708.5,-323.7 708.5,-301.7 475.5,-301.7"/>
<image xlink:href="../../images/foreignKeys.png" width="11px" height="12px" preserveAspectRatio="xMinYMin meet" x="480.5" y="-318.7"/>
<text text-anchor="start" x="495.5" y="-304.3" font-family="Helvetica,sans-Serif" font-size="16.00" fill="#000000">project_id</text>
<polygon fill="none" stroke="#000000" points="475.5,-276.7 475.5,-301.7 708.5,-301.7 708.5,-276.7 475.5,-276.7"/>
<text text-anchor="start" x="478.5" y="-284.3" font-family="Helvetica,sans-Serif" font-size="16.00" fill="#000000">...</text>
<polygon fill="#ffffff" stroke="transparent" points="475.5,-251.7 475.5,-276.7 565.5,-276.7 565.5,-251.7 475.5,-251.7"/>
<polygon fill="none" stroke="#000000" points="475.5,-251.7 475.5,-276.7 565.5,-276.7 565.5,-251.7 475.5,-251.7"/>
<text text-anchor="start" x="478.5" y="-259.3" font-family="Helvetica,sans-Serif" font-size="16.00" fill="#000000">&lt; 3</text>
<polygon fill="#ffffff" stroke="transparent" points="565.5,-251.7 565.5,-276.7 649.5,-276.7 649.5,-251.7 565.5,-251.7"/>
<polygon fill="none" stroke="#000000" points="565.5,-251.7 565.5,-276.7 649.5,-276.7 649.5,-251.7 565.5,-251.7"/>
<text text-anchor="start" x="599.388" y="-259.3" font-family="Helvetica,sans-Serif" font-size="16.00" fill="#000000">0 rows</text>
<polygon fill="#ffffff" stroke="transparent" points="649.5,-251.7 649.5,-276.7 708.5,-276.7 708.5,-251.7 649.5,-251.7"/>
<polygon fill="none" stroke="#000000" points="649.5,-251.7 649.5,-276.7 708.5,-276.7 708.5,-251.7 649.5,-251.7"/>
<text text-anchor="start" x="682.8168" y="-259.3" font-family="Helvetica,sans-Serif" font-size="16.00" fill="#000000">2 &gt;</text>
</a>
</g>
</g>
<!-- timer_notes&#45;&gt;timers -->
<g id="edge4" class="edge">
<title>timer_notes:w&#45;&gt;timers:e</title>
<path fill="none" stroke="#000000" d="M801.9478,-400.7C765.4443,-400.7 751.25,-400.7 708.5,-400.7"/>
<polygon fill="#000000" stroke="#000000" points="808.5,-400.7001 816.5,-404.3 812.5,-400.7 816.5,-400.7 816.5,-400.7 816.5,-400.7 812.5,-400.7 816.5,-397.1 808.5,-400.7001 808.5,-400.7001"/>
<ellipse fill="none" stroke="#000000" cx="805.3" cy="-400.7001" rx="3.2" ry="3.2"/>
</g>
<!-- timers&#45;&gt;projects -->
<g id="edge9" class="edge">
<title>timers:w&#45;&gt;projects:e</title>
<path fill="none" stroke="#000000" d="M461.3974,-309.7862C427.18,-293.2262 453.0284,-211.7 403.5,-211.7"/>
<polygon fill="#000000" stroke="#000000" points="467.6655,-311.0812 474.7715,-316.2255 471.5827,-311.8906 475.5,-312.7 475.5,-312.7 475.5,-312.7 471.5827,-311.8906 476.2285,-309.1745 467.6655,-311.0812 467.6655,-311.0812"/>
<ellipse fill="none" stroke="#000000" cx="464.5317" cy="-310.4337" rx="3.2" ry="3.2"/>
</g>
<!-- timers&#45;&gt;business_partners -->
<g id="edge8" class="edge">
<title>timers:w&#45;&gt;business_partners:e</title>
<path fill="none" stroke="#000000" d="M461.0272,-358.263C452.6362,-360.2266 446.7094,-363.4862 434,-364.7 353.92,-372.3482 322.7923,-404.7043 253,-364.7 221.7194,-346.7703 248.0548,-294.7 212,-294.7"/>
<polygon fill="#000000" stroke="#000000" points="467.5462,-357.559 475.8865,-360.2792 471.5231,-357.1295 475.5,-356.7 475.5,-356.7 475.5,-356.7 471.5231,-357.1295 475.1135,-353.1208 467.5462,-357.559 467.5462,-357.559"/>
<ellipse fill="none" stroke="#000000" cx="464.3647" cy="-357.9026" rx="3.2" ry="3.2"/>
</g>
<!-- activity_types -->
<g id="node8" class="node">
<title>activity_types</title>
<g id="a_node8"><a xlink:href="../../tables/activity_types.html" xlink:title="activity_types" target="_top">
<polygon fill="#ffffff" stroke="transparent" points="261,-275.2 261,-354.2 426,-354.2 426,-275.2 261,-275.2"/>
<polygon fill="#f5f5f5" stroke="transparent" points="261.5,-324.7 261.5,-353.7 426.5,-353.7 426.5,-324.7 261.5,-324.7"/>
<polygon fill="none" stroke="#000000" points="261.5,-324.7 261.5,-353.7 426.5,-353.7 426.5,-324.7 261.5,-324.7"/>
<text text-anchor="start" x="266.5" y="-331.8" font-family="Helvetica,sans-Serif" font-weight="bold" font-size="16.00" fill="#000000">activity_types</text>
<text text-anchor="start" x="378.2136" y="-334.3" font-family="Helvetica,sans-Serif" font-size="16.00" fill="#000000">[table]</text>
<polygon fill="none" stroke="#000000" points="261.5,-299.7 261.5,-324.7 426.5,-324.7 426.5,-299.7 261.5,-299.7"/>
<text text-anchor="start" x="264.5" y="-307.3" font-family="Helvetica,sans-Serif" font-size="16.00" fill="#000000">...</text>
<polygon fill="#ffffff" stroke="transparent" points="261.5,-274.7 261.5,-299.7 310.5,-299.7 310.5,-274.7 261.5,-274.7"/>
<polygon fill="none" stroke="#000000" points="261.5,-274.7 261.5,-299.7 310.5,-299.7 310.5,-274.7 261.5,-274.7"/>
<text text-anchor="start" x="264.5" y="-282.3" font-family="Helvetica,sans-Serif" font-size="16.00" fill="#000000"> &#160;</text>
<polygon fill="#ffffff" stroke="transparent" points="310.5,-274.7 310.5,-299.7 380.5,-299.7 380.5,-274.7 310.5,-274.7"/>
<polygon fill="none" stroke="#000000" points="310.5,-274.7 310.5,-299.7 380.5,-299.7 380.5,-274.7 310.5,-274.7"/>
<text text-anchor="start" x="330.388" y="-282.3" font-family="Helvetica,sans-Serif" font-size="16.00" fill="#000000">0 rows</text>
<polygon fill="#ffffff" stroke="transparent" points="380.5,-274.7 380.5,-299.7 426.5,-299.7 426.5,-274.7 380.5,-274.7"/>
<polygon fill="none" stroke="#000000" points="380.5,-274.7 380.5,-299.7 426.5,-299.7 426.5,-274.7 380.5,-274.7"/>
<text text-anchor="start" x="400.8168" y="-282.3" font-family="Helvetica,sans-Serif" font-size="16.00" fill="#000000">1 &gt;</text>
</a>
</g>
</g>
<!-- timers&#45;&gt;activity_types -->
<g id="edge7" class="edge">
<title>timers:w&#45;&gt;activity_types:e</title>
<path fill="none" stroke="#000000" d="M461.4399,-331.3063C449.6546,-324.9084 444.7311,-311.7 426.5,-311.7"/>
<polygon fill="#000000" stroke="#000000" points="467.7233,-332.8229 474.6553,-338.1995 471.6117,-333.7614 475.5,-334.7 475.5,-334.7 475.5,-334.7 471.6117,-333.7614 476.3447,-331.2005 467.7233,-332.8229 467.7233,-332.8229"/>
<ellipse fill="none" stroke="#000000" cx="464.6127" cy="-332.072" rx="3.2" ry="3.2"/>
</g>
<!-- timer_tags -->
<g id="node7" class="node">
<title>timer_tags</title>
<g id="a_node7"><a xlink:href="../../tables/timer_tags.html" xlink:title="timer_tags" target="_top">
<polygon fill="#ffffff" stroke="transparent" points="757,-154.2 757,-337.2 1024,-337.2 1024,-154.2 757,-154.2"/>
<polygon fill="#f5f5f5" stroke="transparent" points="759.5,-305.7 759.5,-334.7 1022.5,-334.7 1022.5,-305.7 759.5,-305.7"/>
<polygon fill="none" stroke="#000000" points="759.5,-305.7 759.5,-334.7 1022.5,-334.7 1022.5,-305.7 759.5,-305.7"/>
<text text-anchor="start" x="764.5" y="-312.8" font-family="Helvetica,sans-Serif" font-weight="bold" font-size="16.00" fill="#000000">timer_tags</text>
<text text-anchor="start" x="973.9272" y="-315.3" font-family="Helvetica,sans-Serif" font-size="16.00" fill="#000000">[table]</text>
<polygon fill="none" stroke="#000000" points="759.5,-280.7 759.5,-305.7 870.5,-305.7 870.5,-280.7 759.5,-280.7"/>
<image xlink:href="../../images/primaryKeys.png" width="11px" height="12px" preserveAspectRatio="xMinYMin meet" x="764.5" y="-299.2"/>
<text text-anchor="start" x="779.5" y="-284.8" font-family="Helvetica,sans-Serif" font-size="16.00" fill="#000000">id</text>
<polygon fill="none" stroke="#000000" points="870.5,-280.7 870.5,-305.7 1022.5,-305.7 1022.5,-280.7 870.5,-280.7"/>
<text text-anchor="start" x="873.1312" y="-288.3" font-family="Helvetica,sans-Serif" font-size="16.00" fill="#000000">integer[2000000000]</text>
<polygon fill="#ffffff" stroke="transparent" points="759.5,-255.7 759.5,-280.7 870.5,-280.7 870.5,-255.7 759.5,-255.7"/>
<polygon fill="none" stroke="#000000" points="759.5,-255.7 759.5,-280.7 870.5,-280.7 870.5,-255.7 759.5,-255.7"/>
<image xlink:href="../../images/foreignKeys.png" width="11px" height="12px" preserveAspectRatio="xMinYMin meet" x="764.5" y="-274.2"/>
<text text-anchor="start" x="779.5" y="-259.8" font-family="Helvetica,sans-Serif" font-size="16.00" fill="#000000">tag_id</text>
<polygon fill="none" stroke="#000000" points="870.5,-255.7 870.5,-280.7 1022.5,-280.7 1022.5,-255.7 870.5,-255.7"/>
<text text-anchor="start" x="873.1312" y="-263.3" font-family="Helvetica,sans-Serif" font-size="16.00" fill="#000000">integer[2000000000]</text>
<polygon fill="#ffffff" stroke="transparent" points="759.5,-230.7 759.5,-255.7 870.5,-255.7 870.5,-230.7 759.5,-230.7"/>
<polygon fill="none" stroke="#000000" points="759.5,-230.7 759.5,-255.7 870.5,-255.7 870.5,-230.7 759.5,-230.7"/>
<image xlink:href="../../images/foreignKeys.png" width="11px" height="12px" preserveAspectRatio="xMinYMin meet" x="764.5" y="-249.2"/>
<text text-anchor="start" x="779.5" y="-234.8" font-family="Helvetica,sans-Serif" font-size="16.00" fill="#000000">timer_id</text>
<polygon fill="none" stroke="#000000" points="870.5,-230.7 870.5,-255.7 1022.5,-255.7 1022.5,-230.7 870.5,-230.7"/>
<text text-anchor="start" x="873.1312" y="-238.3" font-family="Helvetica,sans-Serif" font-size="16.00" fill="#000000">integer[2000000000]</text>
<polygon fill="none" stroke="#000000" points="759.5,-205.7 759.5,-230.7 870.5,-230.7 870.5,-205.7 759.5,-205.7"/>
<text text-anchor="start" x="779.5" y="-209.8" font-family="Helvetica,sans-Serif" font-size="16.00" fill="#000000">inserted_at</text>
<polygon fill="none" stroke="#000000" points="870.5,-205.7 870.5,-230.7 1022.5,-230.7 1022.5,-205.7 870.5,-205.7"/>
<text text-anchor="start" x="873.5" y="-213.3" font-family="Helvetica,sans-Serif" font-size="16.00" fill="#000000">text[2000000000]</text>
<polygon fill="none" stroke="#000000" points="759.5,-180.7 759.5,-205.7 870.5,-205.7 870.5,-180.7 759.5,-180.7"/>
<text text-anchor="start" x="779.5" y="-184.8" font-family="Helvetica,sans-Serif" font-size="16.00" fill="#000000">updated_at</text>
<polygon fill="none" stroke="#000000" points="870.5,-180.7 870.5,-205.7 1022.5,-205.7 1022.5,-180.7 870.5,-180.7"/>
<text text-anchor="start" x="873.5" y="-188.3" font-family="Helvetica,sans-Serif" font-size="16.00" fill="#000000">text[2000000000]</text>
<polygon fill="#ffffff" stroke="transparent" points="759.5,-155.7 759.5,-180.7 802.5,-180.7 802.5,-155.7 759.5,-155.7"/>
<polygon fill="none" stroke="#000000" points="759.5,-155.7 759.5,-180.7 802.5,-180.7 802.5,-155.7 759.5,-155.7"/>
<text text-anchor="start" x="762.5" y="-163.3" font-family="Helvetica,sans-Serif" font-size="16.00" fill="#000000">&lt; 2</text>
<polygon fill="#ffffff" stroke="transparent" points="802.5,-155.7 802.5,-180.7 870.5,-180.7 870.5,-155.7 802.5,-155.7"/>
<polygon fill="none" stroke="#000000" points="802.5,-155.7 802.5,-180.7 870.5,-180.7 870.5,-155.7 802.5,-155.7"/>
<text text-anchor="start" x="820.388" y="-163.3" font-family="Helvetica,sans-Serif" font-size="16.00" fill="#000000">0 rows</text>
<polygon fill="#ffffff" stroke="transparent" points="870.5,-155.7 870.5,-180.7 1022.5,-180.7 1022.5,-155.7 870.5,-155.7"/>
<polygon fill="none" stroke="#000000" points="870.5,-155.7 870.5,-180.7 1022.5,-180.7 1022.5,-155.7 870.5,-155.7"/>
<text text-anchor="start" x="996.8168" y="-163.3" font-family="Helvetica,sans-Serif" font-size="16.00" fill="#000000">0 &gt;</text>
<polygon fill="none" stroke="#000000" stroke-width="2" points="758,-155.2 758,-336.2 1023,-336.2 1023,-155.2 758,-155.2"/>
</a>
</g>
</g>
<!-- timer_tags&#45;&gt;tags -->
<g id="edge5" class="edge">
<title>timer_tags:w&#45;&gt;tags:e</title>
<path fill="none" stroke="#000000" d="M745.575,-264.5064C715.1462,-248.305 673.5647,-190.7 647.5,-190.7"/>
<polygon fill="#000000" stroke="#000000" points="751.8398,-266.393 758.4619,-272.1471 755.6699,-267.5465 759.5,-268.7 759.5,-268.7 759.5,-268.7 755.6699,-267.5465 760.5381,-265.2529 751.8398,-266.393 751.8398,-266.393"/>
<ellipse fill="none" stroke="#000000" cx="748.7758" cy="-265.4703" rx="3.2" ry="3.2"/>
</g>
<!-- timer_tags&#45;&gt;timers -->
<g id="edge6" class="edge">
<title>timer_tags:w&#45;&gt;timers:e</title>
<path fill="none" stroke="#000000" d="M745.1626,-245.4424C699.7609,-266.4231 776.525,-400.7 708.5,-400.7"/>
<polygon fill="#000000" stroke="#000000" points="751.6424,-244.203 760.1763,-246.2359 755.5712,-243.4515 759.5,-242.7 759.5,-242.7 759.5,-242.7 755.5712,-243.4515 758.8237,-239.1641 751.6424,-244.203 751.6424,-244.203"/>
<ellipse fill="none" stroke="#000000" cx="748.4994" cy="-244.8042" rx="3.2" ry="3.2"/>
</g>
</g>
</svg>
