<?xml version="1.0" encoding="UTF-8" standalone="no"?>
<!DOCTYPE svg PUBLIC "-//W3C//DTD SVG 1.1//EN"
 "http://www.w3.org/Graphics/SVG/1.1/DTD/svg11.dtd">
<!-- Generated by graphviz version 2.40.1 (20161225.0304)
 -->
<!-- Title: oneDegreeRelationshipsDiagram Pages: 1 -->
<svg width="1226pt" height="613pt"
 viewBox="0.00 0.00 1226.00 613.20" xmlns="http://www.w3.org/2000/svg" xmlns:xlink="http://www.w3.org/1999/xlink">
<g id="graph0" class="graph" transform="scale(1 1) rotate(0) translate(4 609.2)">
<title>oneDegreeRelationshipsDiagram</title>
<polygon fill="#ffffff" stroke="transparent" points="-4,4 -4,-609.2 1222,-609.2 1222,4 -4,4"/>
<text text-anchor="middle" x="101.8088" y="-8.8" font-family="Helvetica,sans-Serif" font-size="16.00" fill="#000000">Generated by SchemaSpy</text>
<!-- projects -->
<g id="node1" class="node">
<title>projects</title>
<g id="a_node1"><a xlink:href="../../tables/projects.html" xlink:title="projects" target="_top">
<polygon fill="#ffffff" stroke="transparent" points="261,-50.2 261,-195.2 545,-195.2 545,-50.2 261,-50.2"/>
<polygon fill="#f5f5f5" stroke="transparent" points="261,-165.7 261,-194.7 545,-194.7 545,-165.7 261,-165.7"/>
<polygon fill="none" stroke="#000000" points="261,-165.7 261,-194.7 545,-194.7 545,-165.7 261,-165.7"/>
<text text-anchor="start" x="266" y="-172.8" font-family="Helvetica,sans-Serif" font-weight="bold" font-size="16.00" fill="#000000">projects</text>
<text text-anchor="start" x="496.4272" y="-175.3" font-family="Helvetica,sans-Serif" font-size="16.00" fill="#000000">[table]</text>
<polygon fill="none" stroke="#000000" points="261,-143.7 261,-165.7 545,-165.7 545,-143.7 261,-143.7"/>
<image xlink:href="../../images/primaryKeys.png" width="11px" height="12px" preserveAspectRatio="xMinYMin meet" x="266" y="-160.7"/>
<text text-anchor="start" x="281" y="-146.3" font-family="Helvetica,sans-Serif" font-size="16.00" fill="#000000">id</text>
<polygon fill="#ffffff" stroke="transparent" points="261,-121.7 261,-143.7 545,-143.7 545,-121.7 261,-121.7"/>
<polygon fill="none" stroke="#000000" points="261,-121.7 261,-143.7 545,-143.7 545,-121.7 261,-121.7"/>
<text text-anchor="start" x="281" y="-124.3" font-family="Helvetica,sans-Serif" font-size="16.00" fill="#000000">name</text>
<polygon fill="none" stroke="#000000" points="261,-99.7 261,-121.7 545,-121.7 545,-99.7 261,-99.7"/>
<image xlink:href="../../images/foreignKeys.png" width="11px" height="12px" preserveAspectRatio="xMinYMin meet" x="266" y="-116.7"/>
<text text-anchor="start" x="281" y="-102.3" font-family="Helvetica,sans-Serif" font-size="16.00" fill="#000000">business_partner_id</text>
<polygon fill="none" stroke="#000000" points="261,-74.7 261,-99.7 545,-99.7 545,-74.7 261,-74.7"/>
<text text-anchor="start" x="264" y="-82.3" font-family="Helvetica,sans-Serif" font-size="16.00" fill="#000000">...</text>
<polygon fill="#ffffff" stroke="transparent" points="261,-49.7 261,-74.7 376,-74.7 376,-49.7 261,-49.7"/>
<polygon fill="none" stroke="#000000" points="261,-49.7 261,-74.7 376,-74.7 376,-49.7 261,-49.7"/>
<text text-anchor="start" x="264" y="-57.3" font-family="Helvetica,sans-Serif" font-size="16.00" fill="#000000">&lt; 1</text>
<polygon fill="#ffffff" stroke="transparent" points="376,-49.7 376,-74.7 473,-74.7 473,-49.7 376,-49.7"/>
<polygon fill="none" stroke="#000000" points="376,-49.7 376,-74.7 473,-74.7 473,-49.7 376,-49.7"/>
<text text-anchor="start" x="422.888" y="-57.3" font-family="Helvetica,sans-Serif" font-size="16.00" fill="#000000">0 rows</text>
<polygon fill="#ffffff" stroke="transparent" points="473,-49.7 473,-74.7 545,-74.7 545,-49.7 473,-49.7"/>
<polygon fill="none" stroke="#000000" points="473,-49.7 473,-74.7 545,-74.7 545,-49.7 473,-49.7"/>
<text text-anchor="start" x="519.3168" y="-57.3" font-family="Helvetica,sans-Serif" font-size="16.00" fill="#000000">3 &gt;</text>
</a>
</g>
</g>
<!-- business_partners -->
<g id="node2" class="node">
<title>business_partners</title>
<g id="a_node2"><a xlink:href="../../tables/business_partners.html" xlink:title="business_partners" target="_top">
<polygon fill="#ffffff" stroke="transparent" points="8,-143.2 8,-266.2 212,-266.2 212,-143.2 8,-143.2"/>
<polygon fill="#f5f5f5" stroke="transparent" points="8,-236.7 8,-265.7 212,-265.7 212,-236.7 8,-236.7"/>
<polygon fill="none" stroke="#000000" points="8,-236.7 8,-265.7 212,-265.7 212,-236.7 8,-236.7"/>
<text text-anchor="start" x="13" y="-243.8" font-family="Helvetica,sans-Serif" font-weight="bold" font-size="16.00" fill="#000000">business_partners</text>
<text text-anchor="start" x="163.7136" y="-246.3" font-family="Helvetica,sans-Serif" font-size="16.00" fill="#000000">[table]</text>
<polygon fill="none" stroke="#000000" points="8,-214.7 8,-236.7 212,-236.7 212,-214.7 8,-214.7"/>
<image xlink:href="../../images/primaryKeys.png" width="11px" height="12px" preserveAspectRatio="xMinYMin meet" x="13" y="-231.7"/>
<text text-anchor="start" x="44" y="-217.3" font-family="Helvetica,sans-Serif" font-size="16.00" fill="#000000">id</text>
<polygon fill="#ffffff" stroke="transparent" points="8,-192.7 8,-214.7 212,-214.7 212,-192.7 8,-192.7"/>
<polygon fill="none" stroke="#000000" points="8,-192.7 8,-214.7 212,-214.7 212,-192.7 8,-192.7"/>
<text text-anchor="start" x="44" y="-195.3" font-family="Helvetica,sans-Serif" font-size="16.00" fill="#000000">name</text>
<polygon fill="none" stroke="#000000" points="8,-167.7 8,-192.7 212,-192.7 212,-167.7 8,-167.7"/>
<text text-anchor="start" x="11" y="-175.3" font-family="Helvetica,sans-Serif" font-size="16.00" fill="#000000">...</text>
<polygon fill="#ffffff" stroke="transparent" points="8,-142.7 8,-167.7 76,-167.7 76,-142.7 8,-142.7"/>
<polygon fill="none" stroke="#000000" points="8,-142.7 8,-167.7 76,-167.7 76,-142.7 8,-142.7"/>
<text text-anchor="start" x="11" y="-150.3" font-family="Helvetica,sans-Serif" font-size="16.00" fill="#000000"> &#160;</text>
<polygon fill="#ffffff" stroke="transparent" points="76,-142.7 76,-167.7 156,-167.7 156,-142.7 76,-142.7"/>
<polygon fill="none" stroke="#000000" points="76,-142.7 76,-167.7 156,-167.7 156,-142.7 76,-142.7"/>
<text text-anchor="start" x="105.888" y="-150.3" font-family="Helvetica,sans-Serif" font-size="16.00" fill="#000000">0 rows</text>
<polygon fill="#ffffff" stroke="transparent" points="156,-142.7 156,-167.7 212,-167.7 212,-142.7 156,-142.7"/>
<polygon fill="none" stroke="#000000" points="156,-142.7 156,-167.7 212,-167.7 212,-142.7 156,-142.7"/>
<text text-anchor="start" x="186.3168" y="-150.3" font-family="Helvetica,sans-Serif" font-size="16.00" fill="#000000">3 &gt;</text>
</a>
</g>
</g>
<!-- projects&#45;&gt;business_partners -->
<g id="edge1" class="edge">
<title>projects:w&#45;&gt;business_partners:e</title>
<path fill="none" stroke="#000000" d="M246.6854,-114.5263C217.6226,-134.4805 261.4807,-225.7 212,-225.7"/>
<polygon fill="#000000" stroke="#000000" points="253.2713,-112.7659 261.9297,-114.1779 257.1357,-111.7329 261,-110.7 261,-110.7 261,-110.7 257.1357,-111.7329 260.0703,-107.2221 253.2713,-112.7659 253.2713,-112.7659"/>
<ellipse fill="none" stroke="#000000" cx="250.1799" cy="-113.5923" rx="3.2" ry="3.2"/>
</g>
<!-- timer_notes -->
<g id="node3" class="node">
<title>timer_notes</title>
<g id="a_node3"><a xlink:href="../../tables/timer_notes.html" xlink:title="timer_notes" target="_top">
<polygon fill="#ffffff" stroke="transparent" points="1061,-478.2 1061,-601.2 1210,-601.2 1210,-478.2 1061,-478.2"/>
<polygon fill="#f5f5f5" stroke="transparent" points="1061.5,-571.7 1061.5,-600.7 1210.5,-600.7 1210.5,-571.7 1061.5,-571.7"/>
<polygon fill="none" stroke="#000000" points="1061.5,-571.7 1061.5,-600.7 1210.5,-600.7 1210.5,-571.7 1061.5,-571.7"/>
<text text-anchor="start" x="1066.5" y="-578.8" font-family="Helvetica,sans-Serif" font-weight="bold" font-size="16.00" fill="#000000">timer_notes</text>
<text text-anchor="start" x="1162.2136" y="-581.3" font-family="Helvetica,sans-Serif" font-size="16.00" fill="#000000">[table]</text>
<polygon fill="none" stroke="#000000" points="1061.5,-549.7 1061.5,-571.7 1210.5,-571.7 1210.5,-549.7 1061.5,-549.7"/>
<image xlink:href="../../images/primaryKeys.png" width="11px" height="12px" preserveAspectRatio="xMinYMin meet" x="1066.5" y="-566.7"/>
<text text-anchor="start" x="1097.5" y="-552.3" font-family="Helvetica,sans-Serif" font-size="16.00" fill="#000000">id</text>
<polygon fill="#ffffff" stroke="transparent" points="1061.5,-527.7 1061.5,-549.7 1210.5,-549.7 1210.5,-527.7 1061.5,-527.7"/>
<polygon fill="none" stroke="#000000" points="1061.5,-527.7 1061.5,-549.7 1210.5,-549.7 1210.5,-527.7 1061.5,-527.7"/>
<image xlink:href="../../images/foreignKeys.png" width="11px" height="12px" preserveAspectRatio="xMinYMin meet" x="1066.5" y="-544.7"/>
<text text-anchor="start" x="1097.5" y="-530.3" font-family="Helvetica,sans-Serif" font-size="16.00" fill="#000000">timer_id</text>
<polygon fill="none" stroke="#000000" points="1061.5,-502.7 1061.5,-527.7 1210.5,-527.7 1210.5,-502.7 1061.5,-502.7"/>
<text text-anchor="start" x="1064.5" y="-510.3" font-family="Helvetica,sans-Serif" font-size="16.00" fill="#000000">...</text>
<polygon fill="#ffffff" stroke="transparent" points="1061.5,-477.7 1061.5,-502.7 1116.5,-502.7 1116.5,-477.7 1061.5,-477.7"/>
<polygon fill="none" stroke="#000000" points="1061.5,-477.7 1061.5,-502.7 1116.5,-502.7 1116.5,-477.7 1061.5,-477.7"/>
<text text-anchor="start" x="1064.5" y="-485.3" font-family="Helvetica,sans-Serif" font-size="16.00" fill="#000000">&lt; 1</text>
<polygon fill="#ffffff" stroke="transparent" points="1116.5,-477.7 1116.5,-502.7 1182.5,-502.7 1182.5,-477.7 1116.5,-477.7"/>
<polygon fill="none" stroke="#000000" points="1116.5,-477.7 1116.5,-502.7 1182.5,-502.7 1182.5,-477.7 1116.5,-477.7"/>
<text text-anchor="start" x="1132.388" y="-485.3" font-family="Helvetica,sans-Serif" font-size="16.00" fill="#000000">0 rows</text>
<polygon fill="#ffffff" stroke="transparent" points="1182.5,-477.7 1182.5,-502.7 1210.5,-502.7 1210.5,-477.7 1182.5,-477.7"/>
<polygon fill="none" stroke="#000000" points="1182.5,-477.7 1182.5,-502.7 1210.5,-502.7 1210.5,-477.7 1182.5,-477.7"/>
<text text-anchor="start" x="1198.6072" y="-485.3" font-family="Helvetica,sans-Serif" font-size="16.00" fill="#000000"> &#160;</text>
</a>
</g>
</g>
<!-- timers -->
<g id="node4" class="node">
<title>timers</title>
<g id="a_node4"><a xlink:href="../../tables/timers.html" xlink:title="timers" target="_top">
<polygon fill="#ffffff" stroke="transparent" points="594,-66.2 594,-499.2 1012,-499.2 1012,-66.2 594,-66.2"/>
<polygon fill="#f5f5f5" stroke="transparent" points="596,-467.7 596,-496.7 1010,-496.7 1010,-467.7 596,-467.7"/>
<polygon fill="none" stroke="#000000" points="596,-467.7 596,-496.7 1010,-496.7 1010,-467.7 596,-467.7"/>
<text text-anchor="start" x="601" y="-474.8" font-family="Helvetica,sans-Serif" font-weight="bold" font-size="16.00" fill="#000000">timers</text>
<text text-anchor="start" x="961.4272" y="-477.3" font-family="Helvetica,sans-Serif" font-size="16.00" fill="#000000">[table]</text>
<polygon fill="none" stroke="#000000" points="596,-442.7 596,-467.7 829,-467.7 829,-442.7 596,-442.7"/>
<image xlink:href="../../images/primaryKeys.png" width="11px" height="12px" preserveAspectRatio="xMinYMin meet" x="601" y="-461.2"/>
<text text-anchor="start" x="616" y="-446.8" font-family="Helvetica,sans-Serif" font-size="16.00" fill="#000000">id</text>
<polygon fill="none" stroke="#000000" points="829,-442.7 829,-467.7 1010,-467.7 1010,-442.7 829,-442.7"/>
<text text-anchor="start" x="832" y="-450.3" font-family="Helvetica,sans-Serif" font-size="16.00" fill="#000000">integer[2000000000]</text>
<polygon fill="#ffffff" stroke="transparent" points="596,-417.7 596,-442.7 829,-442.7 829,-417.7 596,-417.7"/>
<polygon fill="none" stroke="#000000" points="596,-417.7 596,-442.7 829,-442.7 829,-417.7 596,-417.7"/>
<text text-anchor="start" x="616" y="-421.8" font-family="Helvetica,sans-Serif" font-size="16.00" fill="#000000">start_stamp</text>
<polygon fill="none" stroke="#000000" points="829,-417.7 829,-442.7 1010,-442.7 1010,-417.7 829,-417.7"/>
<text text-anchor="start" x="832" y="-425.3" font-family="Helvetica,sans-Serif" font-size="16.00" fill="#000000">text[2000000000]</text>
<polygon fill="none" stroke="#000000" points="596,-392.7 596,-417.7 829,-417.7 829,-392.7 596,-392.7"/>
<text text-anchor="start" x="616" y="-396.8" font-family="Helvetica,sans-Serif" font-size="16.00" fill="#000000">end_stamp</text>
<polygon fill="none" stroke="#000000" points="829,-392.7 829,-417.7 1010,-417.7 1010,-392.7 829,-392.7"/>
<text text-anchor="start" x="832" y="-400.3" font-family="Helvetica,sans-Serif" font-size="16.00" fill="#000000">text[2000000000]</text>
<polygon fill="none" stroke="#000000" points="596,-367.7 596,-392.7 829,-392.7 829,-367.7 596,-367.7"/>
<text text-anchor="start" x="616" y="-371.8" font-family="Helvetica,sans-Serif" font-size="16.00" fill="#000000">duration</text>
<polygon fill="none" stroke="#000000" points="829,-367.7 829,-392.7 1010,-392.7 1010,-367.7 829,-367.7"/>
<text text-anchor="start" x="832" y="-375.3" font-family="Helvetica,sans-Serif" font-size="16.00" fill="#000000">integer[2000000000]</text>
<polygon fill="none" stroke="#000000" points="596,-342.7 596,-367.7 829,-367.7 829,-342.7 596,-342.7"/>
<text text-anchor="start" x="616" y="-346.8" font-family="Helvetica,sans-Serif" font-size="16.00" fill="#000000">duration_time_unit</text>
<polygon fill="none" stroke="#000000" points="829,-342.7 829,-367.7 1010,-367.7 1010,-342.7 829,-342.7"/>
<text text-anchor="start" x="832" y="-350.3" font-family="Helvetica,sans-Serif" font-size="16.00" fill="#000000">text[2000000000]</text>
<polygon fill="none" stroke="#000000" points="596,-317.7 596,-342.7 829,-342.7 829,-317.7 596,-317.7"/>
<text text-anchor="start" x="616" y="-321.8" font-family="Helvetica,sans-Serif" font-size="16.00" fill="#000000">billable</text>
<polygon fill="none" stroke="#000000" points="829,-317.7 829,-342.7 1010,-342.7 1010,-317.7 829,-317.7"/>
<text text-anchor="start" x="832" y="-325.3" font-family="Helvetica,sans-Serif" font-size="16.00" fill="#000000">integer[2000000000]</text>
<polygon fill="none" stroke="#000000" points="596,-292.7 596,-317.7 829,-317.7 829,-292.7 596,-292.7"/>
<image xlink:href="../../images/foreignKeys.png" width="11px" height="12px" preserveAspectRatio="xMinYMin meet" x="601" y="-311.2"/>
<text text-anchor="start" x="616" y="-296.8" font-family="Helvetica,sans-Serif" font-size="16.00" fill="#000000">business_partner_id</text>
<polygon fill="none" stroke="#000000" points="829,-292.7 829,-317.7 1010,-317.7 1010,-292.7 829,-292.7"/>
<text text-anchor="start" x="832" y="-300.3" font-family="Helvetica,sans-Serif" font-size="16.00" fill="#000000">integer[2000000000]</text>
<polygon fill="none" stroke="#000000" points="596,-267.7 596,-292.7 829,-292.7 829,-267.7 596,-267.7"/>
<image xlink:href="../../images/foreignKeys.png" width="11px" height="12px" preserveAspectRatio="xMinYMin meet" x="601" y="-286.2"/>
<text text-anchor="start" x="616" y="-271.8" font-family="Helvetica,sans-Serif" font-size="16.00" fill="#000000">activity_type_id</text>
<polygon fill="none" stroke="#000000" points="829,-267.7 829,-292.7 1010,-292.7 1010,-267.7 829,-267.7"/>
<text text-anchor="start" x="832" y="-275.3" font-family="Helvetica,sans-Serif" font-size="16.00" fill="#000000">integer[2000000000]</text>
<polygon fill="none" stroke="#000000" points="596,-242.7 596,-267.7 829,-267.7 829,-242.7 596,-242.7"/>
<text text-anchor="start" x="616" y="-246.8" font-family="Helvetica,sans-Serif" font-size="16.00" fill="#000000">billing_rate</text>
<polygon fill="none" stroke="#000000" points="829,-242.7 829,-267.7 1010,-267.7 1010,-242.7 829,-242.7"/>
<text text-anchor="start" x="831.9088" y="-250.3" font-family="Helvetica,sans-Serif" font-size="16.00" fill="#000000">decimal[2000000000,10]</text>
<polygon fill="none" stroke="#000000" points="596,-217.7 596,-242.7 829,-242.7 829,-217.7 596,-217.7"/>
<text text-anchor="start" x="616" y="-221.8" font-family="Helvetica,sans-Serif" font-size="16.00" fill="#000000">billing_duration</text>
<polygon fill="none" stroke="#000000" points="829,-217.7 829,-242.7 1010,-242.7 1010,-217.7 829,-217.7"/>
<text text-anchor="start" x="832" y="-225.3" font-family="Helvetica,sans-Serif" font-size="16.00" fill="#000000">integer[2000000000]</text>
<polygon fill="none" stroke="#000000" points="596,-192.7 596,-217.7 829,-217.7 829,-192.7 596,-192.7"/>
<text text-anchor="start" x="616" y="-196.8" font-family="Helvetica,sans-Serif" font-size="16.00" fill="#000000">billing_duration_time_unit</text>
<polygon fill="none" stroke="#000000" points="829,-192.7 829,-217.7 1010,-217.7 1010,-192.7 829,-192.7"/>
<text text-anchor="start" x="832" y="-200.3" font-family="Helvetica,sans-Serif" font-size="16.00" fill="#000000">text[2000000000]</text>
<polygon fill="none" stroke="#000000" points="596,-167.7 596,-192.7 829,-192.7 829,-167.7 596,-167.7"/>
<text text-anchor="start" x="616" y="-171.8" font-family="Helvetica,sans-Serif" font-size="16.00" fill="#000000">description</text>
<polygon fill="none" stroke="#000000" points="829,-167.7 829,-192.7 1010,-192.7 1010,-167.7 829,-167.7"/>
<text text-anchor="start" x="832" y="-175.3" font-family="Helvetica,sans-Serif" font-size="16.00" fill="#000000">text[2000000000]</text>
<polygon fill="none" stroke="#000000" points="596,-142.7 596,-167.7 829,-167.7 829,-142.7 596,-142.7"/>
<image xlink:href="../../images/foreignKeys.png" width="11px" height="12px" preserveAspectRatio="xMinYMin meet" x="601" y="-161.2"/>
<text text-anchor="start" x="616" y="-146.8" font-family="Helvetica,sans-Serif" font-size="16.00" fill="#000000">project_id</text>
<polygon fill="none" stroke="#000000" points="829,-142.7 829,-167.7 1010,-167.7 1010,-142.7 829,-142.7"/>
<text text-anchor="start" x="832" y="-150.3" font-family="Helvetica,sans-Serif" font-size="16.00" fill="#000000">integer[2000000000]</text>
<polygon fill="none" stroke="#000000" points="596,-117.7 596,-142.7 829,-142.7 829,-117.7 596,-117.7"/>
<text text-anchor="start" x="616" y="-121.8" font-family="Helvetica,sans-Serif" font-size="16.00" fill="#000000">inserted_at</text>
<polygon fill="none" stroke="#000000" points="829,-117.7 829,-142.7 1010,-142.7 1010,-117.7 829,-117.7"/>
<text text-anchor="start" x="832" y="-125.3" font-family="Helvetica,sans-Serif" font-size="16.00" fill="#000000">text[2000000000]</text>
<polygon fill="none" stroke="#000000" points="596,-92.7 596,-117.7 829,-117.7 829,-92.7 596,-92.7"/>
<text text-anchor="start" x="616" y="-96.8" font-family="Helvetica,sans-Serif" font-size="16.00" fill="#000000">updated_at</text>
<polygon fill="none" stroke="#000000" points="829,-92.7 829,-117.7 1010,-117.7 1010,-92.7 829,-92.7"/>
<text text-anchor="start" x="832" y="-100.3" font-family="Helvetica,sans-Serif" font-size="16.00" fill="#000000">text[2000000000]</text>
<polygon fill="#ffffff" stroke="transparent" points="596,-67.7 596,-92.7 700,-92.7 700,-67.7 596,-67.7"/>
<polygon fill="none" stroke="#000000" points="596,-67.7 596,-92.7 700,-92.7 700,-67.7 596,-67.7"/>
<text text-anchor="start" x="599" y="-75.3" font-family="Helvetica,sans-Serif" font-size="16.00" fill="#000000">&lt; 3</text>
<polygon fill="#ffffff" stroke="transparent" points="700,-67.7 700,-92.7 829,-92.7 829,-67.7 700,-67.7"/>
<polygon fill="none" stroke="#000000" points="700,-67.7 700,-92.7 829,-92.7 829,-67.7 700,-67.7"/>
<text text-anchor="start" x="778.888" y="-75.3" font-family="Helvetica,sans-Serif" font-size="16.00" fill="#000000">0 rows</text>
<polygon fill="#ffffff" stroke="transparent" points="829,-67.7 829,-92.7 1010,-92.7 1010,-67.7 829,-67.7"/>
<polygon fill="none" stroke="#000000" points="829,-67.7 829,-92.7 1010,-92.7 1010,-67.7 829,-67.7"/>
<text text-anchor="start" x="984.3168" y="-75.3" font-family="Helvetica,sans-Serif" font-size="16.00" fill="#000000">2 &gt;</text>
<polygon fill="none" stroke="#000000" stroke-width="2" points="595,-67.2 595,-498.2 1011,-498.2 1011,-67.2 595,-67.2"/>
</a>
</g>
</g>
<!-- timer_notes&#45;&gt;timers -->
<g id="edge2" class="edge">
<title>timer_notes:w&#45;&gt;timers:e</title>
<path fill="none" stroke="#000000" d="M1047.7068,-534.4699C1026.2746,-517.5561 1047.4777,-455.7 1010,-455.7"/>
<polygon fill="#000000" stroke="#000000" points="1053.8516,-536.3544 1060.4445,-542.1418 1057.6758,-537.5272 1061.5,-538.7 1061.5,-538.7 1061.5,-538.7 1057.6758,-537.5272 1062.5555,-535.2582 1053.8516,-536.3544 1053.8516,-536.3544"/>
<ellipse fill="none" stroke="#000000" cx="1050.7922" cy="-535.4161" rx="3.2" ry="3.2"/>
</g>
<!-- timers&#45;&gt;projects -->
<g id="edge6" class="edge">
<title>timers:w&#45;&gt;projects:e</title>
<path fill="none" stroke="#000000" d="M581.276,-154.7C569.2815,-154.7 561.8229,-154.7 545,-154.7"/>
<polygon fill="#000000" stroke="#000000" points="588,-154.7001 596,-158.3 592,-154.7 596,-154.7 596,-154.7 596,-154.7 592,-154.7 596,-151.1 588,-154.7001 588,-154.7001"/>
<ellipse fill="none" stroke="#000000" cx="584.8" cy="-154.7001" rx="3.2" ry="3.2"/>
</g>
<!-- timers&#45;&gt;business_partners -->
<g id="edge5" class="edge">
<title>timers:w&#45;&gt;business_partners:e</title>
<path fill="none" stroke="#000000" d="M581.9116,-309.0841C572.5615,-314.3016 568.0002,-324.0855 553,-327.7 423.3767,-358.9341 363.4721,-402.3572 253,-327.7 212.5187,-300.3427 260.8586,-225.7 212,-225.7"/>
<polygon fill="#000000" stroke="#000000" points="588.2213,-307.5685 596.8408,-309.2004 592.1106,-306.6343 596,-305.7 596,-305.7 596,-305.7 592.1106,-306.6343 595.1592,-302.1996 588.2213,-307.5685 588.2213,-307.5685"/>
<ellipse fill="none" stroke="#000000" cx="585.1098" cy="-308.3159" rx="3.2" ry="3.2"/>
</g>
<!-- activity_types -->
<g id="node6" class="node">
<title>activity_types</title>
<g id="a_node6"><a xlink:href="../../tables/activity_types.html" xlink:title="activity_types" target="_top">
<polygon fill="#ffffff" stroke="transparent" points="320.5,-216.2 320.5,-317.2 485.5,-317.2 485.5,-216.2 320.5,-216.2"/>
<polygon fill="#f5f5f5" stroke="transparent" points="321,-287.7 321,-316.7 486,-316.7 486,-287.7 321,-287.7"/>
<polygon fill="none" stroke="#000000" points="321,-287.7 321,-316.7 486,-316.7 486,-287.7 321,-287.7"/>
<text text-anchor="start" x="326" y="-294.8" font-family="Helvetica,sans-Serif" font-weight="bold" font-size="16.00" fill="#000000">activity_types</text>
<text text-anchor="start" x="437.7136" y="-297.3" font-family="Helvetica,sans-Serif" font-size="16.00" fill="#000000">[table]</text>
<polygon fill="none" stroke="#000000" points="321,-265.7 321,-287.7 486,-287.7 486,-265.7 321,-265.7"/>
<image xlink:href="../../images/primaryKeys.png" width="11px" height="12px" preserveAspectRatio="xMinYMin meet" x="326" y="-282.7"/>
<text text-anchor="start" x="357" y="-268.3" font-family="Helvetica,sans-Serif" font-size="16.00" fill="#000000">id</text>
<polygon fill="none" stroke="#000000" points="321,-240.7 321,-265.7 486,-265.7 486,-240.7 321,-240.7"/>
<text text-anchor="start" x="324" y="-248.3" font-family="Helvetica,sans-Serif" font-size="16.00" fill="#000000">...</text>
<polygon fill="#ffffff" stroke="transparent" points="321,-215.7 321,-240.7 370,-240.7 370,-215.7 321,-215.7"/>
<polygon fill="none" stroke="#000000" points="321,-215.7 321,-240.7 370,-240.7 370,-215.7 321,-215.7"/>
<text text-anchor="start" x="324" y="-223.3" font-family="Helvetica,sans-Serif" font-size="16.00" fill="#000000"> &#160;</text>
<polygon fill="#ffffff" stroke="transparent" points="370,-215.7 370,-240.7 440,-240.7 440,-215.7 370,-215.7"/>
<polygon fill="none" stroke="#000000" points="370,-215.7 370,-240.7 440,-240.7 440,-215.7 370,-215.7"/>
<text text-anchor="start" x="389.888" y="-223.3" font-family="Helvetica,sans-Serif" font-size="16.00" fill="#000000">0 rows</text>
<polygon fill="#ffffff" stroke="transparent" points="440,-215.7 440,-240.7 486,-240.7 486,-215.7 440,-215.7"/>
<polygon fill="none" stroke="#000000" points="440,-215.7 440,-240.7 486,-240.7 486,-215.7 440,-215.7"/>
<text text-anchor="start" x="460.3168" y="-223.3" font-family="Helvetica,sans-Serif" font-size="16.00" fill="#000000">1 &gt;</text>
</a>
</g>
</g>
<!-- timers&#45;&gt;activity_types -->
<g id="edge4" class="edge">
<title>timers:w&#45;&gt;activity_types:e</title>
<path fill="none" stroke="#000000" d="M581.1741,-279.6002C543.988,-279.0796 529.5579,-276.7 486,-276.7"/>
<polygon fill="#000000" stroke="#000000" points="588.0002,-279.6461 595.9757,-283.2999 592.0001,-279.673 596,-279.7 596,-279.7 596,-279.7 592.0001,-279.673 596.0243,-276.1001 588.0002,-279.6461 588.0002,-279.6461"/>
<ellipse fill="none" stroke="#000000" cx="584.8003" cy="-279.6245" rx="3.2" ry="3.2"/>
</g>
<!-- timer_tags -->
<g id="node5" class="node">
<title>timer_tags</title>
<g id="a_node5"><a xlink:href="../../tables/timer_tags.html" xlink:title="timer_tags" target="_top">
<polygon fill="#ffffff" stroke="transparent" points="1066.5,-312.2 1066.5,-457.2 1204.5,-457.2 1204.5,-312.2 1066.5,-312.2"/>
<polygon fill="#f5f5f5" stroke="transparent" points="1066.5,-427.7 1066.5,-456.7 1204.5,-456.7 1204.5,-427.7 1066.5,-427.7"/>
<polygon fill="none" stroke="#000000" points="1066.5,-427.7 1066.5,-456.7 1204.5,-456.7 1204.5,-427.7 1066.5,-427.7"/>
<text text-anchor="start" x="1071.5" y="-434.8" font-family="Helvetica,sans-Serif" font-weight="bold" font-size="16.00" fill="#000000">timer_tags</text>
<text text-anchor="start" x="1156.2136" y="-437.3" font-family="Helvetica,sans-Serif" font-size="16.00" fill="#000000">[table]</text>
<polygon fill="none" stroke="#000000" points="1066.5,-405.7 1066.5,-427.7 1204.5,-427.7 1204.5,-405.7 1066.5,-405.7"/>
<image xlink:href="../../images/primaryKeys.png" width="11px" height="12px" preserveAspectRatio="xMinYMin meet" x="1071.5" y="-422.7"/>
<text text-anchor="start" x="1100.5" y="-408.3" font-family="Helvetica,sans-Serif" font-size="16.00" fill="#000000">id</text>
<polygon fill="#ffffff" stroke="transparent" points="1066.5,-383.7 1066.5,-405.7 1204.5,-405.7 1204.5,-383.7 1066.5,-383.7"/>
<polygon fill="none" stroke="#000000" points="1066.5,-383.7 1066.5,-405.7 1204.5,-405.7 1204.5,-383.7 1066.5,-383.7"/>
<image xlink:href="../../images/foreignKeys.png" width="11px" height="12px" preserveAspectRatio="xMinYMin meet" x="1071.5" y="-400.7"/>
<text text-anchor="start" x="1100.5" y="-386.3" font-family="Helvetica,sans-Serif" font-size="16.00" fill="#000000">tag_id</text>
<polygon fill="#ffffff" stroke="transparent" points="1066.5,-361.7 1066.5,-383.7 1204.5,-383.7 1204.5,-361.7 1066.5,-361.7"/>
<polygon fill="none" stroke="#000000" points="1066.5,-361.7 1066.5,-383.7 1204.5,-383.7 1204.5,-361.7 1066.5,-361.7"/>
<image xlink:href="../../images/foreignKeys.png" width="11px" height="12px" preserveAspectRatio="xMinYMin meet" x="1071.5" y="-378.7"/>
<text text-anchor="start" x="1100.5" y="-364.3" font-family="Helvetica,sans-Serif" font-size="16.00" fill="#000000">timer_id</text>
<polygon fill="none" stroke="#000000" points="1066.5,-336.7 1066.5,-361.7 1204.5,-361.7 1204.5,-336.7 1066.5,-336.7"/>
<text text-anchor="start" x="1069.5" y="-344.3" font-family="Helvetica,sans-Serif" font-size="16.00" fill="#000000">...</text>
<polygon fill="#ffffff" stroke="transparent" points="1066.5,-311.7 1066.5,-336.7 1115.5,-336.7 1115.5,-311.7 1066.5,-311.7"/>
<polygon fill="none" stroke="#000000" points="1066.5,-311.7 1066.5,-336.7 1115.5,-336.7 1115.5,-311.7 1066.5,-311.7"/>
<text text-anchor="start" x="1069.5" y="-319.3" font-family="Helvetica,sans-Serif" font-size="16.00" fill="#000000">&lt; 2</text>
<polygon fill="#ffffff" stroke="transparent" points="1115.5,-311.7 1115.5,-336.7 1179.5,-336.7 1179.5,-311.7 1115.5,-311.7"/>
<polygon fill="none" stroke="#000000" points="1115.5,-311.7 1115.5,-336.7 1179.5,-336.7 1179.5,-311.7 1115.5,-311.7"/>
<text text-anchor="start" x="1129.388" y="-319.3" font-family="Helvetica,sans-Serif" font-size="16.00" fill="#000000">0 rows</text>
<polygon fill="#ffffff" stroke="transparent" points="1179.5,-311.7 1179.5,-336.7 1204.5,-336.7 1204.5,-311.7 1179.5,-311.7"/>
<polygon fill="none" stroke="#000000" points="1179.5,-311.7 1179.5,-336.7 1204.5,-336.7 1204.5,-311.7 1179.5,-311.7"/>
<text text-anchor="start" x="1192.6072" y="-319.3" font-family="Helvetica,sans-Serif" font-size="16.00" fill="#000000"> &#160;</text>
</a>
</g>
</g>
<!-- timer_tags&#45;&gt;timers -->
<g id="edge3" class="edge">
<title>timer_tags:w&#45;&gt;timers:e</title>
<path fill="none" stroke="#000000" d="M1052.4518,-376.7033C1029.2096,-393.2828 1048.6979,-455.7 1010,-455.7"/>
<polygon fill="#000000" stroke="#000000" points="1058.8063,-374.8925 1067.4866,-376.1622 1062.6531,-373.7962 1066.5,-372.7 1066.5,-372.7 1066.5,-372.7 1062.6531,-373.7962 1065.5134,-369.2378 1058.8063,-374.8925 1058.8063,-374.8925"/>
<ellipse fill="none" stroke="#000000" cx="1055.7288" cy="-375.7695" rx="3.2" ry="3.2"/>
</g>
</g>
</svg>
