<?xml version="1.0" encoding="UTF-8" standalone="no"?>
<!DOCTYPE svg PUBLIC "-//W3C//DTD SVG 1.1//EN"
 "http://www.w3.org/Graphics/SVG/1.1/DTD/svg11.dtd">
<!-- Generated by graphviz version 2.40.1 (20161225.0304)
 -->
<!-- Title: oneDegreeRelationshipsDiagram Pages: 1 -->
<svg width="573pt" height="395pt"
 viewBox="0.00 0.00 573.00 395.20" xmlns="http://www.w3.org/2000/svg" xmlns:xlink="http://www.w3.org/1999/xlink">
<g id="graph0" class="graph" transform="scale(1 1) rotate(0) translate(4 391.2)">
<title>oneDegreeRelationshipsDiagram</title>
<polygon fill="#ffffff" stroke="transparent" points="-4,4 -4,-391.2 569,-391.2 569,4 -4,4"/>
<text text-anchor="middle" x="101.8088" y="-8.8" font-family="Helvetica,sans-Serif" font-size="16.00" fill="#000000">Generated by SchemaSpy</text>
<!-- timer_tags -->
<g id="node1" class="node">
<title>timer_tags</title>
<g id="a_node1"><a xlink:href="../../tables/timer_tags.html" xlink:title="timer_tags" target="_top">
<polygon fill="#ffffff" stroke="transparent" points="290,-169.2 290,-352.2 557,-352.2 557,-169.2 290,-169.2"/>
<polygon fill="#f5f5f5" stroke="transparent" points="292.5,-320.7 292.5,-349.7 555.5,-349.7 555.5,-320.7 292.5,-320.7"/>
<polygon fill="none" stroke="#000000" points="292.5,-320.7 292.5,-349.7 555.5,-349.7 555.5,-320.7 292.5,-320.7"/>
<text text-anchor="start" x="297.5" y="-327.8" font-family="Helvetica,sans-Serif" font-weight="bold" font-size="16.00" fill="#000000">timer_tags</text>
<text text-anchor="start" x="506.9272" y="-330.3" font-family="Helvetica,sans-Serif" font-size="16.00" fill="#000000">[table]</text>
<polygon fill="none" stroke="#000000" points="292.5,-295.7 292.5,-320.7 403.5,-320.7 403.5,-295.7 292.5,-295.7"/>
<image xlink:href="../../images/primaryKeys.png" width="11px" height="12px" preserveAspectRatio="xMinYMin meet" x="297.5" y="-314.2"/>
<text text-anchor="start" x="312.5" y="-299.8" font-family="Helvetica,sans-Serif" font-size="16.00" fill="#000000">id</text>
<polygon fill="none" stroke="#000000" points="403.5,-295.7 403.5,-320.7 555.5,-320.7 555.5,-295.7 403.5,-295.7"/>
<text text-anchor="start" x="406.1312" y="-303.3" font-family="Helvetica,sans-Serif" font-size="16.00" fill="#000000">integer[2000000000]</text>
<polygon fill="#ffffff" stroke="transparent" points="292.5,-270.7 292.5,-295.7 403.5,-295.7 403.5,-270.7 292.5,-270.7"/>
<polygon fill="none" stroke="#000000" points="292.5,-270.7 292.5,-295.7 403.5,-295.7 403.5,-270.7 292.5,-270.7"/>
<image xlink:href="../../images/foreignKeys.png" width="11px" height="12px" preserveAspectRatio="xMinYMin meet" x="297.5" y="-289.2"/>
<text text-anchor="start" x="312.5" y="-274.8" font-family="Helvetica,sans-Serif" font-size="16.00" fill="#000000">tag_id</text>
<polygon fill="none" stroke="#000000" points="403.5,-270.7 403.5,-295.7 555.5,-295.7 555.5,-270.7 403.5,-270.7"/>
<text text-anchor="start" x="406.1312" y="-278.3" font-family="Helvetica,sans-Serif" font-size="16.00" fill="#000000">integer[2000000000]</text>
<polygon fill="#ffffff" stroke="transparent" points="292.5,-245.7 292.5,-270.7 403.5,-270.7 403.5,-245.7 292.5,-245.7"/>
<polygon fill="none" stroke="#000000" points="292.5,-245.7 292.5,-270.7 403.5,-270.7 403.5,-245.7 292.5,-245.7"/>
<image xlink:href="../../images/foreignKeys.png" width="11px" height="12px" preserveAspectRatio="xMinYMin meet" x="297.5" y="-264.2"/>
<text text-anchor="start" x="312.5" y="-249.8" font-family="Helvetica,sans-Serif" font-size="16.00" fill="#000000">timer_id</text>
<polygon fill="none" stroke="#000000" points="403.5,-245.7 403.5,-270.7 555.5,-270.7 555.5,-245.7 403.5,-245.7"/>
<text text-anchor="start" x="406.1312" y="-253.3" font-family="Helvetica,sans-Serif" font-size="16.00" fill="#000000">integer[2000000000]</text>
<polygon fill="none" stroke="#000000" points="292.5,-220.7 292.5,-245.7 403.5,-245.7 403.5,-220.7 292.5,-220.7"/>
<text text-anchor="start" x="312.5" y="-224.8" font-family="Helvetica,sans-Serif" font-size="16.00" fill="#000000">inserted_at</text>
<polygon fill="none" stroke="#000000" points="403.5,-220.7 403.5,-245.7 555.5,-245.7 555.5,-220.7 403.5,-220.7"/>
<text text-anchor="start" x="406.5" y="-228.3" font-family="Helvetica,sans-Serif" font-size="16.00" fill="#000000">text[2000000000]</text>
<polygon fill="none" stroke="#000000" points="292.5,-195.7 292.5,-220.7 403.5,-220.7 403.5,-195.7 292.5,-195.7"/>
<text text-anchor="start" x="312.5" y="-199.8" font-family="Helvetica,sans-Serif" font-size="16.00" fill="#000000">updated_at</text>
<polygon fill="none" stroke="#000000" points="403.5,-195.7 403.5,-220.7 555.5,-220.7 555.5,-195.7 403.5,-195.7"/>
<text text-anchor="start" x="406.5" y="-203.3" font-family="Helvetica,sans-Serif" font-size="16.00" fill="#000000">text[2000000000]</text>
<polygon fill="#ffffff" stroke="transparent" points="292.5,-170.7 292.5,-195.7 335.5,-195.7 335.5,-170.7 292.5,-170.7"/>
<polygon fill="none" stroke="#000000" points="292.5,-170.7 292.5,-195.7 335.5,-195.7 335.5,-170.7 292.5,-170.7"/>
<text text-anchor="start" x="295.5" y="-178.3" font-family="Helvetica,sans-Serif" font-size="16.00" fill="#000000">&lt; 2</text>
<polygon fill="#ffffff" stroke="transparent" points="335.5,-170.7 335.5,-195.7 403.5,-195.7 403.5,-170.7 335.5,-170.7"/>
<polygon fill="none" stroke="#000000" points="335.5,-170.7 335.5,-195.7 403.5,-195.7 403.5,-170.7 335.5,-170.7"/>
<text text-anchor="start" x="353.388" y="-178.3" font-family="Helvetica,sans-Serif" font-size="16.00" fill="#000000">0 rows</text>
<polygon fill="#ffffff" stroke="transparent" points="403.5,-170.7 403.5,-195.7 555.5,-195.7 555.5,-170.7 403.5,-170.7"/>
<polygon fill="none" stroke="#000000" points="403.5,-170.7 403.5,-195.7 555.5,-195.7 555.5,-170.7 403.5,-170.7"/>
<text text-anchor="start" x="529.8168" y="-178.3" font-family="Helvetica,sans-Serif" font-size="16.00" fill="#000000">0 &gt;</text>
<polygon fill="none" stroke="#000000" stroke-width="2" points="291,-170.2 291,-351.2 556,-351.2 556,-170.2 291,-170.2"/>
</a>
</g>
</g>
<!-- tags -->
<g id="node2" class="node">
<title>tags</title>
<g id="a_node2"><a xlink:href="../../tables/tags.html" xlink:title="tags" target="_top">
<polygon fill="#ffffff" stroke="transparent" points="68.5,-260.2 68.5,-383.2 180.5,-383.2 180.5,-260.2 68.5,-260.2"/>
<polygon fill="#f5f5f5" stroke="transparent" points="68.5,-353.7 68.5,-382.7 180.5,-382.7 180.5,-353.7 68.5,-353.7"/>
<polygon fill="none" stroke="#000000" points="68.5,-353.7 68.5,-382.7 180.5,-382.7 180.5,-353.7 68.5,-353.7"/>
<text text-anchor="start" x="73.3824" y="-360.8" font-family="Helvetica,sans-Serif" font-weight="bold" font-size="16.00" fill="#000000">tags</text>
<text text-anchor="start" x="131.9272" y="-363.3" font-family="Helvetica,sans-Serif" font-size="16.00" fill="#000000">[table]</text>
<polygon fill="none" stroke="#000000" points="68.5,-331.7 68.5,-353.7 180.5,-353.7 180.5,-331.7 68.5,-331.7"/>
<image xlink:href="../../images/primaryKeys.png" width="11px" height="12px" preserveAspectRatio="xMinYMin meet" x="73.5" y="-348.7"/>
<text text-anchor="start" x="88.5" y="-334.3" font-family="Helvetica,sans-Serif" font-size="16.00" fill="#000000">id</text>
<polygon fill="#ffffff" stroke="transparent" points="68.5,-309.7 68.5,-331.7 180.5,-331.7 180.5,-309.7 68.5,-309.7"/>
<polygon fill="none" stroke="#000000" points="68.5,-309.7 68.5,-331.7 180.5,-331.7 180.5,-309.7 68.5,-309.7"/>
<text text-anchor="start" x="88.5" y="-312.3" font-family="Helvetica,sans-Serif" font-size="16.00" fill="#000000">name</text>
<polygon fill="none" stroke="#000000" points="68.5,-284.7 68.5,-309.7 180.5,-309.7 180.5,-284.7 68.5,-284.7"/>
<text text-anchor="start" x="71.5" y="-292.3" font-family="Helvetica,sans-Serif" font-size="16.00" fill="#000000">...</text>
<polygon fill="#ffffff" stroke="transparent" points="68.5,-259.7 68.5,-284.7 90.5,-284.7 90.5,-259.7 68.5,-259.7"/>
<polygon fill="none" stroke="#000000" points="68.5,-259.7 68.5,-284.7 90.5,-284.7 90.5,-259.7 68.5,-259.7"/>
<text text-anchor="start" x="71.5" y="-267.3" font-family="Helvetica,sans-Serif" font-size="16.00" fill="#000000"> &#160;</text>
<polygon fill="#ffffff" stroke="transparent" points="90.5,-259.7 90.5,-284.7 147.5,-284.7 147.5,-259.7 90.5,-259.7"/>
<polygon fill="none" stroke="#000000" points="90.5,-259.7 90.5,-284.7 147.5,-284.7 147.5,-259.7 90.5,-259.7"/>
<text text-anchor="start" x="97.388" y="-267.3" font-family="Helvetica,sans-Serif" font-size="16.00" fill="#000000">0 rows</text>
<polygon fill="#ffffff" stroke="transparent" points="147.5,-259.7 147.5,-284.7 180.5,-284.7 180.5,-259.7 147.5,-259.7"/>
<polygon fill="none" stroke="#000000" points="147.5,-259.7 147.5,-284.7 180.5,-284.7 180.5,-259.7 147.5,-259.7"/>
<text text-anchor="start" x="154.8168" y="-267.3" font-family="Helvetica,sans-Serif" font-size="16.00" fill="#000000">2 &gt;</text>
</a>
</g>
</g>
<!-- timer_tags&#45;&gt;tags -->
<g id="edge1" class="edge">
<title>timer_tags:w&#45;&gt;tags:e</title>
<path fill="none" stroke="#000000" d="M278.08,-285.1584C235.837,-294.2439 231.4876,-342.7 180.5,-342.7"/>
<polygon fill="#000000" stroke="#000000" points="284.5406,-284.5051 292.8623,-287.2817 288.5203,-284.1025 292.5,-283.7 292.5,-283.7 292.5,-283.7 288.5203,-284.1025 292.1377,-280.1183 284.5406,-284.5051 284.5406,-284.5051"/>
<ellipse fill="none" stroke="#000000" cx="281.3568" cy="-284.8271" rx="3.2" ry="3.2"/>
</g>
<!-- timers -->
<g id="node3" class="node">
<title>timers</title>
<g id="a_node3"><a xlink:href="../../tables/timers.html" xlink:title="timers" target="_top">
<polygon fill="#ffffff" stroke="transparent" points="8,-50.2 8,-239.2 241,-239.2 241,-50.2 8,-50.2"/>
<polygon fill="#f5f5f5" stroke="transparent" points="8.5,-209.7 8.5,-238.7 241.5,-238.7 241.5,-209.7 8.5,-209.7"/>
<polygon fill="none" stroke="#000000" points="8.5,-209.7 8.5,-238.7 241.5,-238.7 241.5,-209.7 8.5,-209.7"/>
<text text-anchor="start" x="13.5" y="-216.8" font-family="Helvetica,sans-Serif" font-weight="bold" font-size="16.00" fill="#000000">timers</text>
<text text-anchor="start" x="192.9272" y="-219.3" font-family="Helvetica,sans-Serif" font-size="16.00" fill="#000000">[table]</text>
<polygon fill="none" stroke="#000000" points="8.5,-187.7 8.5,-209.7 241.5,-209.7 241.5,-187.7 8.5,-187.7"/>
<image xlink:href="../../images/primaryKeys.png" width="11px" height="12px" preserveAspectRatio="xMinYMin meet" x="13.5" y="-204.7"/>
<text text-anchor="start" x="28.5" y="-190.3" font-family="Helvetica,sans-Serif" font-size="16.00" fill="#000000">id</text>
<polygon fill="#ffffff" stroke="transparent" points="8.5,-165.7 8.5,-187.7 241.5,-187.7 241.5,-165.7 8.5,-165.7"/>
<polygon fill="none" stroke="#000000" points="8.5,-165.7 8.5,-187.7 241.5,-187.7 241.5,-165.7 8.5,-165.7"/>
<text text-anchor="start" x="28.5" y="-168.3" font-family="Helvetica,sans-Serif" font-size="16.00" fill="#000000">start_stamp</text>
<polygon fill="none" stroke="#000000" points="8.5,-143.7 8.5,-165.7 241.5,-165.7 241.5,-143.7 8.5,-143.7"/>
<image xlink:href="../../images/foreignKeys.png" width="11px" height="12px" preserveAspectRatio="xMinYMin meet" x="13.5" y="-160.7"/>
<text text-anchor="start" x="28.5" y="-146.3" font-family="Helvetica,sans-Serif" font-size="16.00" fill="#000000">business_partner_id</text>
<polygon fill="none" stroke="#000000" points="8.5,-121.7 8.5,-143.7 241.5,-143.7 241.5,-121.7 8.5,-121.7"/>
<image xlink:href="../../images/foreignKeys.png" width="11px" height="12px" preserveAspectRatio="xMinYMin meet" x="13.5" y="-138.7"/>
<text text-anchor="start" x="28.5" y="-124.3" font-family="Helvetica,sans-Serif" font-size="16.00" fill="#000000">activity_type_id</text>
<polygon fill="none" stroke="#000000" points="8.5,-99.7 8.5,-121.7 241.5,-121.7 241.5,-99.7 8.5,-99.7"/>
<image xlink:href="../../images/foreignKeys.png" width="11px" height="12px" preserveAspectRatio="xMinYMin meet" x="13.5" y="-116.7"/>
<text text-anchor="start" x="28.5" y="-102.3" font-family="Helvetica,sans-Serif" font-size="16.00" fill="#000000">project_id</text>
<polygon fill="none" stroke="#000000" points="8.5,-74.7 8.5,-99.7 241.5,-99.7 241.5,-74.7 8.5,-74.7"/>
<text text-anchor="start" x="11.5" y="-82.3" font-family="Helvetica,sans-Serif" font-size="16.00" fill="#000000">...</text>
<polygon fill="#ffffff" stroke="transparent" points="8.5,-49.7 8.5,-74.7 98.5,-74.7 98.5,-49.7 8.5,-49.7"/>
<polygon fill="none" stroke="#000000" points="8.5,-49.7 8.5,-74.7 98.5,-74.7 98.5,-49.7 8.5,-49.7"/>
<text text-anchor="start" x="11.5" y="-57.3" font-family="Helvetica,sans-Serif" font-size="16.00" fill="#000000">&lt; 3</text>
<polygon fill="#ffffff" stroke="transparent" points="98.5,-49.7 98.5,-74.7 182.5,-74.7 182.5,-49.7 98.5,-49.7"/>
<polygon fill="none" stroke="#000000" points="98.5,-49.7 98.5,-74.7 182.5,-74.7 182.5,-49.7 98.5,-49.7"/>
<text text-anchor="start" x="132.388" y="-57.3" font-family="Helvetica,sans-Serif" font-size="16.00" fill="#000000">0 rows</text>
<polygon fill="#ffffff" stroke="transparent" points="182.5,-49.7 182.5,-74.7 241.5,-74.7 241.5,-49.7 182.5,-49.7"/>
<polygon fill="none" stroke="#000000" points="182.5,-49.7 182.5,-74.7 241.5,-74.7 241.5,-49.7 182.5,-49.7"/>
<text text-anchor="start" x="215.8168" y="-57.3" font-family="Helvetica,sans-Serif" font-size="16.00" fill="#000000">2 &gt;</text>
</a>
</g>
</g>
<!-- timer_tags&#45;&gt;timers -->
<g id="edge2" class="edge">
<title>timer_tags:w&#45;&gt;timers:e</title>
<path fill="none" stroke="#000000" d="M278.7854,-253.0704C262.572,-239.1617 270.2036,-198.7 241.5,-198.7"/>
<polygon fill="#000000" stroke="#000000" points="284.9202,-255.1413 291.3486,-261.1109 288.7101,-256.4206 292.5,-257.7 292.5,-257.7 292.5,-257.7 288.7101,-256.4206 293.6514,-254.2891 284.9202,-255.1413 284.9202,-255.1413"/>
<ellipse fill="none" stroke="#000000" cx="281.8883" cy="-254.1178" rx="3.2" ry="3.2"/>
</g>
</g>
</svg>
