<?xml version="1.0" encoding="UTF-8" standalone="no"?>
<!DOCTYPE svg PUBLIC "-//W3C//DTD SVG 1.1//EN"
 "http://www.w3.org/Graphics/SVG/1.1/DTD/svg11.dtd">
<!-- Generated by graphviz version 2.40.1 (20161225.0304)
 -->
<!-- Title: oneDegreeRelationshipsDiagram Pages: 1 -->
<svg width="579pt" height="330pt"
 viewBox="0.00 0.00 579.00 329.70" xmlns="http://www.w3.org/2000/svg" xmlns:xlink="http://www.w3.org/1999/xlink">
<g id="graph0" class="graph" transform="scale(1 1) rotate(0) translate(4 325.7)">
<title>oneDegreeRelationshipsDiagram</title>
<polygon fill="#ffffff" stroke="transparent" points="-4,4 -4,-325.7 575,-325.7 575,4 -4,4"/>
<text text-anchor="middle" x="101.8088" y="-8.8" font-family="Helvetica,sans-Serif" font-size="16.00" fill="#000000">Generated by SchemaSpy</text>
<!-- timer_notes -->
<g id="node1" class="node">
<title>timer_notes</title>
<g id="a_node1"><a xlink:href="../../tables/timer_notes.html" xlink:title="timer_notes" target="_top">
<polygon fill="#ffffff" stroke="transparent" points="290,-109.7 290,-317.7 563,-317.7 563,-109.7 290,-109.7"/>
<polygon fill="#f5f5f5" stroke="transparent" points="292.5,-286.7 292.5,-315.7 561.5,-315.7 561.5,-286.7 292.5,-286.7"/>
<polygon fill="none" stroke="#000000" points="292.5,-286.7 292.5,-315.7 561.5,-315.7 561.5,-286.7 292.5,-286.7"/>
<text text-anchor="start" x="297.5" y="-293.8" font-family="Helvetica,sans-Serif" font-weight="bold" font-size="16.00" fill="#000000">timer_notes</text>
<text text-anchor="start" x="512.9272" y="-296.3" font-family="Helvetica,sans-Serif" font-size="16.00" fill="#000000">[table]</text>
<polygon fill="none" stroke="#000000" points="292.5,-261.7 292.5,-286.7 409.5,-286.7 409.5,-261.7 292.5,-261.7"/>
<image xlink:href="../../images/primaryKeys.png" width="11px" height="12px" preserveAspectRatio="xMinYMin meet" x="297.5" y="-280.2"/>
<text text-anchor="start" x="312.5" y="-265.8" font-family="Helvetica,sans-Serif" font-size="16.00" fill="#000000">id</text>
<polygon fill="none" stroke="#000000" points="409.5,-261.7 409.5,-286.7 561.5,-286.7 561.5,-261.7 409.5,-261.7"/>
<text text-anchor="start" x="412.1312" y="-269.3" font-family="Helvetica,sans-Serif" font-size="16.00" fill="#000000">integer[2000000000]</text>
<polygon fill="none" stroke="#000000" points="292.5,-236.7 292.5,-261.7 409.5,-261.7 409.5,-236.7 292.5,-236.7"/>
<text text-anchor="start" x="312.5" y="-240.8" font-family="Helvetica,sans-Serif" font-size="16.00" fill="#000000">note</text>
<polygon fill="none" stroke="#000000" points="409.5,-236.7 409.5,-261.7 561.5,-261.7 561.5,-236.7 409.5,-236.7"/>
<text text-anchor="start" x="412.5" y="-244.3" font-family="Helvetica,sans-Serif" font-size="16.00" fill="#000000">text[2000000000]</text>
<polygon fill="none" stroke="#000000" points="292.5,-211.7 292.5,-236.7 409.5,-236.7 409.5,-211.7 292.5,-211.7"/>
<text text-anchor="start" x="312.5" y="-215.8" font-family="Helvetica,sans-Serif" font-size="16.00" fill="#000000">user_id</text>
<polygon fill="none" stroke="#000000" points="409.5,-211.7 409.5,-236.7 561.5,-236.7 561.5,-211.7 409.5,-211.7"/>
<text text-anchor="start" x="412.1312" y="-219.3" font-family="Helvetica,sans-Serif" font-size="16.00" fill="#000000">integer[2000000000]</text>
<polygon fill="#ffffff" stroke="transparent" points="292.5,-186.7 292.5,-211.7 409.5,-211.7 409.5,-186.7 292.5,-186.7"/>
<polygon fill="none" stroke="#000000" points="292.5,-186.7 292.5,-211.7 409.5,-211.7 409.5,-186.7 292.5,-186.7"/>
<image xlink:href="../../images/foreignKeys.png" width="11px" height="12px" preserveAspectRatio="xMinYMin meet" x="297.5" y="-205.2"/>
<text text-anchor="start" x="312.5" y="-190.8" font-family="Helvetica,sans-Serif" font-size="16.00" fill="#000000">timer_id</text>
<polygon fill="none" stroke="#000000" points="409.5,-186.7 409.5,-211.7 561.5,-211.7 561.5,-186.7 409.5,-186.7"/>
<text text-anchor="start" x="412.1312" y="-194.3" font-family="Helvetica,sans-Serif" font-size="16.00" fill="#000000">integer[2000000000]</text>
<polygon fill="none" stroke="#000000" points="292.5,-161.7 292.5,-186.7 409.5,-186.7 409.5,-161.7 292.5,-161.7"/>
<text text-anchor="start" x="312.5" y="-165.8" font-family="Helvetica,sans-Serif" font-size="16.00" fill="#000000">inserted_at</text>
<polygon fill="none" stroke="#000000" points="409.5,-161.7 409.5,-186.7 561.5,-186.7 561.5,-161.7 409.5,-161.7"/>
<text text-anchor="start" x="412.5" y="-169.3" font-family="Helvetica,sans-Serif" font-size="16.00" fill="#000000">text[2000000000]</text>
<polygon fill="none" stroke="#000000" points="292.5,-136.7 292.5,-161.7 409.5,-161.7 409.5,-136.7 292.5,-136.7"/>
<text text-anchor="start" x="312.5" y="-140.8" font-family="Helvetica,sans-Serif" font-size="16.00" fill="#000000">updated_at</text>
<polygon fill="none" stroke="#000000" points="409.5,-136.7 409.5,-161.7 561.5,-161.7 561.5,-136.7 409.5,-136.7"/>
<text text-anchor="start" x="412.5" y="-144.3" font-family="Helvetica,sans-Serif" font-size="16.00" fill="#000000">text[2000000000]</text>
<polygon fill="#ffffff" stroke="transparent" points="292.5,-111.7 292.5,-136.7 338.5,-136.7 338.5,-111.7 292.5,-111.7"/>
<polygon fill="none" stroke="#000000" points="292.5,-111.7 292.5,-136.7 338.5,-136.7 338.5,-111.7 292.5,-111.7"/>
<text text-anchor="start" x="295.5" y="-119.3" font-family="Helvetica,sans-Serif" font-size="16.00" fill="#000000">&lt; 1</text>
<polygon fill="#ffffff" stroke="transparent" points="338.5,-111.7 338.5,-136.7 409.5,-136.7 409.5,-111.7 338.5,-111.7"/>
<polygon fill="none" stroke="#000000" points="338.5,-111.7 338.5,-136.7 409.5,-136.7 409.5,-111.7 338.5,-111.7"/>
<text text-anchor="start" x="359.388" y="-119.3" font-family="Helvetica,sans-Serif" font-size="16.00" fill="#000000">0 rows</text>
<polygon fill="#ffffff" stroke="transparent" points="409.5,-111.7 409.5,-136.7 561.5,-136.7 561.5,-111.7 409.5,-111.7"/>
<polygon fill="none" stroke="#000000" points="409.5,-111.7 409.5,-136.7 561.5,-136.7 561.5,-111.7 409.5,-111.7"/>
<text text-anchor="start" x="535.8168" y="-119.3" font-family="Helvetica,sans-Serif" font-size="16.00" fill="#000000">0 &gt;</text>
<polygon fill="none" stroke="#000000" stroke-width="2" points="291,-110.7 291,-316.7 562,-316.7 562,-110.7 291,-110.7"/>
</a>
</g>
</g>
<!-- timers -->
<g id="node2" class="node">
<title>timers</title>
<g id="a_node2"><a xlink:href="../../tables/timers.html" xlink:title="timers" target="_top">
<polygon fill="#ffffff" stroke="transparent" points="8,-50.2 8,-239.2 241,-239.2 241,-50.2 8,-50.2"/>
<polygon fill="#f5f5f5" stroke="transparent" points="8.5,-209.7 8.5,-238.7 241.5,-238.7 241.5,-209.7 8.5,-209.7"/>
<polygon fill="none" stroke="#000000" points="8.5,-209.7 8.5,-238.7 241.5,-238.7 241.5,-209.7 8.5,-209.7"/>
<text text-anchor="start" x="13.5" y="-216.8" font-family="Helvetica,sans-Serif" font-weight="bold" font-size="16.00" fill="#000000">timers</text>
<text text-anchor="start" x="192.9272" y="-219.3" font-family="Helvetica,sans-Serif" font-size="16.00" fill="#000000">[table]</text>
<polygon fill="none" stroke="#000000" points="8.5,-187.7 8.5,-209.7 241.5,-209.7 241.5,-187.7 8.5,-187.7"/>
<image xlink:href="../../images/primaryKeys.png" width="11px" height="12px" preserveAspectRatio="xMinYMin meet" x="13.5" y="-204.7"/>
<text text-anchor="start" x="28.5" y="-190.3" font-family="Helvetica,sans-Serif" font-size="16.00" fill="#000000">id</text>
<polygon fill="#ffffff" stroke="transparent" points="8.5,-165.7 8.5,-187.7 241.5,-187.7 241.5,-165.7 8.5,-165.7"/>
<polygon fill="none" stroke="#000000" points="8.5,-165.7 8.5,-187.7 241.5,-187.7 241.5,-165.7 8.5,-165.7"/>
<text text-anchor="start" x="28.5" y="-168.3" font-family="Helvetica,sans-Serif" font-size="16.00" fill="#000000">start_stamp</text>
<polygon fill="none" stroke="#000000" points="8.5,-143.7 8.5,-165.7 241.5,-165.7 241.5,-143.7 8.5,-143.7"/>
<image xlink:href="../../images/foreignKeys.png" width="11px" height="12px" preserveAspectRatio="xMinYMin meet" x="13.5" y="-160.7"/>
<text text-anchor="start" x="28.5" y="-146.3" font-family="Helvetica,sans-Serif" font-size="16.00" fill="#000000">business_partner_id</text>
<polygon fill="none" stroke="#000000" points="8.5,-121.7 8.5,-143.7 241.5,-143.7 241.5,-121.7 8.5,-121.7"/>
<image xlink:href="../../images/foreignKeys.png" width="11px" height="12px" preserveAspectRatio="xMinYMin meet" x="13.5" y="-138.7"/>
<text text-anchor="start" x="28.5" y="-124.3" font-family="Helvetica,sans-Serif" font-size="16.00" fill="#000000">activity_type_id</text>
<polygon fill="none" stroke="#000000" points="8.5,-99.7 8.5,-121.7 241.5,-121.7 241.5,-99.7 8.5,-99.7"/>
<image xlink:href="../../images/foreignKeys.png" width="11px" height="12px" preserveAspectRatio="xMinYMin meet" x="13.5" y="-116.7"/>
<text text-anchor="start" x="28.5" y="-102.3" font-family="Helvetica,sans-Serif" font-size="16.00" fill="#000000">project_id</text>
<polygon fill="none" stroke="#000000" points="8.5,-74.7 8.5,-99.7 241.5,-99.7 241.5,-74.7 8.5,-74.7"/>
<text text-anchor="start" x="11.5" y="-82.3" font-family="Helvetica,sans-Serif" font-size="16.00" fill="#000000">...</text>
<polygon fill="#ffffff" stroke="transparent" points="8.5,-49.7 8.5,-74.7 98.5,-74.7 98.5,-49.7 8.5,-49.7"/>
<polygon fill="none" stroke="#000000" points="8.5,-49.7 8.5,-74.7 98.5,-74.7 98.5,-49.7 8.5,-49.7"/>
<text text-anchor="start" x="11.5" y="-57.3" font-family="Helvetica,sans-Serif" font-size="16.00" fill="#000000">&lt; 3</text>
<polygon fill="#ffffff" stroke="transparent" points="98.5,-49.7 98.5,-74.7 182.5,-74.7 182.5,-49.7 98.5,-49.7"/>
<polygon fill="none" stroke="#000000" points="98.5,-49.7 98.5,-74.7 182.5,-74.7 182.5,-49.7 98.5,-49.7"/>
<text text-anchor="start" x="132.388" y="-57.3" font-family="Helvetica,sans-Serif" font-size="16.00" fill="#000000">0 rows</text>
<polygon fill="#ffffff" stroke="transparent" points="182.5,-49.7 182.5,-74.7 241.5,-74.7 241.5,-49.7 182.5,-49.7"/>
<polygon fill="none" stroke="#000000" points="182.5,-49.7 182.5,-74.7 241.5,-74.7 241.5,-49.7 182.5,-49.7"/>
<text text-anchor="start" x="215.8168" y="-57.3" font-family="Helvetica,sans-Serif" font-size="16.00" fill="#000000">2 &gt;</text>
</a>
</g>
</g>
<!-- timer_notes&#45;&gt;timers -->
<g id="edge1" class="edge">
<title>timer_notes:w&#45;&gt;timers:e</title>
<path fill="none" stroke="#000000" d="M277.776,-198.7C265.7815,-198.7 258.3229,-198.7 241.5,-198.7"/>
<polygon fill="#000000" stroke="#000000" points="284.5,-198.7001 292.5,-202.3 288.5,-198.7 292.5,-198.7 292.5,-198.7 292.5,-198.7 288.5,-198.7 292.5,-195.1 284.5,-198.7001 284.5,-198.7001"/>
<ellipse fill="none" stroke="#000000" cx="281.3" cy="-198.7001" rx="3.2" ry="3.2"/>
</g>
</g>
</svg>
