<?xml version="1.0" encoding="UTF-8" standalone="no"?>
<!DOCTYPE svg PUBLIC "-//W3C//DTD SVG 1.1//EN"
 "http://www.w3.org/Graphics/SVG/1.1/DTD/svg11.dtd">
<!-- Generated by graphviz version 2.40.1 (20161225.0304)
 -->
<!-- Title: compactRelationshipsDiagram Pages: 1 -->
<svg width="1046pt" height="825pt"
 viewBox="0.00 0.00 1046.00 825.20" xmlns="http://www.w3.org/2000/svg" xmlns:xlink="http://www.w3.org/1999/xlink">
<g id="graph0" class="graph" transform="scale(1 1) rotate(0) translate(4 821.2)">
<title>compactRelationshipsDiagram</title>
<polygon fill="#ffffff" stroke="transparent" points="-4,4 -4,-821.2 1042,-821.2 1042,4 -4,4"/>
<text text-anchor="middle" x="101.8088" y="-8.8" font-family="Helvetica,sans-Serif" font-size="16.00" fill="#000000">Generated by SchemaSpy</text>
<!-- timers -->
<g id="node1" class="node">
<title>timers</title>
<g id="a_node1"><a xlink:href="../../tables/timers.html" xlink:title="timers" target="_top">
<polygon fill="#ffffff" stroke="transparent" points="594,-536.2 594,-791.2 827,-791.2 827,-536.2 594,-536.2"/>
<polygon fill="#f5f5f5" stroke="transparent" points="594.5,-761.7 594.5,-790.7 827.5,-790.7 827.5,-761.7 594.5,-761.7"/>
<polygon fill="none" stroke="#000000" points="594.5,-761.7 594.5,-790.7 827.5,-790.7 827.5,-761.7 594.5,-761.7"/>
<text text-anchor="start" x="599.5" y="-768.8" font-family="Helvetica,sans-Serif" font-weight="bold" font-size="16.00" fill="#000000">timers</text>
<text text-anchor="start" x="778.9272" y="-771.3" font-family="Helvetica,sans-Serif" font-size="16.00" fill="#000000">[table]</text>
<polygon fill="none" stroke="#000000" points="594.5,-739.7 594.5,-761.7 827.5,-761.7 827.5,-739.7 594.5,-739.7"/>
<image xlink:href="../../images/primaryKeys.png" width="11px" height="12px" preserveAspectRatio="xMinYMin meet" x="599.5" y="-756.7"/>
<text text-anchor="start" x="614.5" y="-742.3" font-family="Helvetica,sans-Serif" font-size="16.00" fill="#000000">id</text>
<polygon fill="#ffffff" stroke="transparent" points="594.5,-717.7 594.5,-739.7 827.5,-739.7 827.5,-717.7 594.5,-717.7"/>
<polygon fill="none" stroke="#000000" points="594.5,-717.7 594.5,-739.7 827.5,-739.7 827.5,-717.7 594.5,-717.7"/>
<text text-anchor="start" x="614.5" y="-720.3" font-family="Helvetica,sans-Serif" font-size="16.00" fill="#000000">start_stamp</text>
<polygon fill="#ffffff" stroke="transparent" points="594.5,-695.7 594.5,-717.7 827.5,-717.7 827.5,-695.7 594.5,-695.7"/>
<polygon fill="none" stroke="#000000" points="594.5,-695.7 594.5,-717.7 827.5,-717.7 827.5,-695.7 594.5,-695.7"/>
<text text-anchor="start" x="614.5" y="-698.3" font-family="Helvetica,sans-Serif" font-size="16.00" fill="#000000">end_stamp</text>
<polygon fill="#ffffff" stroke="transparent" points="594.5,-673.7 594.5,-695.7 827.5,-695.7 827.5,-673.7 594.5,-673.7"/>
<polygon fill="none" stroke="#000000" points="594.5,-673.7 594.5,-695.7 827.5,-695.7 827.5,-673.7 594.5,-673.7"/>
<text text-anchor="start" x="614.5" y="-676.3" font-family="Helvetica,sans-Serif" font-size="16.00" fill="#000000">billable</text>
<polygon fill="#ffffff" stroke="transparent" points="594.5,-651.7 594.5,-673.7 827.5,-673.7 827.5,-651.7 594.5,-651.7"/>
<polygon fill="none" stroke="#000000" points="594.5,-651.7 594.5,-673.7 827.5,-673.7 827.5,-651.7 594.5,-651.7"/>
<image xlink:href="../../images/foreignKeys.png" width="11px" height="12px" preserveAspectRatio="xMinYMin meet" x="599.5" y="-668.7"/>
<text text-anchor="start" x="614.5" y="-654.3" font-family="Helvetica,sans-Serif" font-size="16.00" fill="#000000">business_partner_id</text>
<polygon fill="none" stroke="#000000" points="594.5,-629.7 594.5,-651.7 827.5,-651.7 827.5,-629.7 594.5,-629.7"/>
<image xlink:href="../../images/foreignKeys.png" width="11px" height="12px" preserveAspectRatio="xMinYMin meet" x="599.5" y="-646.7"/>
<text text-anchor="start" x="614.5" y="-632.3" font-family="Helvetica,sans-Serif" font-size="16.00" fill="#000000">activity_type_id</text>
<polygon fill="#ffffff" stroke="transparent" points="594.5,-607.7 594.5,-629.7 827.5,-629.7 827.5,-607.7 594.5,-607.7"/>
<polygon fill="none" stroke="#000000" points="594.5,-607.7 594.5,-629.7 827.5,-629.7 827.5,-607.7 594.5,-607.7"/>
<image xlink:href="../../images/foreignKeys.png" width="11px" height="12px" preserveAspectRatio="xMinYMin meet" x="599.5" y="-624.7"/>
<text text-anchor="start" x="614.5" y="-610.3" font-family="Helvetica,sans-Serif" font-size="16.00" fill="#000000">project_id</text>
<polygon fill="#ffffff" stroke="transparent" points="594.5,-585.7 594.5,-607.7 827.5,-607.7 827.5,-585.7 594.5,-585.7"/>
<polygon fill="none" stroke="#000000" points="594.5,-585.7 594.5,-607.7 827.5,-607.7 827.5,-585.7 594.5,-585.7"/>
<text text-anchor="start" x="614.5" y="-588.3" font-family="Helvetica,sans-Serif" font-size="16.00" fill="#000000">inserted_at</text>
<polygon fill="none" stroke="#000000" points="594.5,-560.7 594.5,-585.7 827.5,-585.7 827.5,-560.7 594.5,-560.7"/>
<text text-anchor="start" x="597.5" y="-568.3" font-family="Helvetica,sans-Serif" font-size="16.00" fill="#000000">...</text>
<polygon fill="#ffffff" stroke="transparent" points="594.5,-535.7 594.5,-560.7 679.5,-560.7 679.5,-535.7 594.5,-535.7"/>
<polygon fill="none" stroke="#000000" points="594.5,-535.7 594.5,-560.7 679.5,-560.7 679.5,-535.7 594.5,-535.7"/>
<text text-anchor="start" x="597.5" y="-543.3" font-family="Helvetica,sans-Serif" font-size="16.00" fill="#000000">&lt; 3</text>
<polygon fill="#ffffff" stroke="transparent" points="679.5,-535.7 679.5,-560.7 770.5,-560.7 770.5,-535.7 679.5,-535.7"/>
<polygon fill="none" stroke="#000000" points="679.5,-535.7 679.5,-560.7 770.5,-560.7 770.5,-535.7 679.5,-535.7"/>
<text text-anchor="start" x="711.4936" y="-543.3" font-family="Helvetica,sans-Serif" font-size="16.00" fill="#000000">65 rows</text>
<polygon fill="#ffffff" stroke="transparent" points="770.5,-535.7 770.5,-560.7 827.5,-560.7 827.5,-535.7 770.5,-535.7"/>
<polygon fill="none" stroke="#000000" points="770.5,-535.7 770.5,-560.7 827.5,-560.7 827.5,-535.7 770.5,-535.7"/>
<text text-anchor="start" x="801.8168" y="-543.3" font-family="Helvetica,sans-Serif" font-size="16.00" fill="#000000">2 &gt;</text>
</a>
</g>
</g>
<!-- business_partners -->
<g id="node2" class="node">
<title>business_partners</title>
<g id="a_node2"><a xlink:href="../../tables/business_partners.html" xlink:title="business_partners" target="_top">
<polygon fill="#ffffff" stroke="transparent" points="8,-282.2 8,-493.2 212,-493.2 212,-282.2 8,-282.2"/>
<polygon fill="#f5f5f5" stroke="transparent" points="8,-463.7 8,-492.7 212,-492.7 212,-463.7 8,-463.7"/>
<polygon fill="none" stroke="#000000" points="8,-463.7 8,-492.7 212,-492.7 212,-463.7 8,-463.7"/>
<text text-anchor="start" x="13" y="-470.8" font-family="Helvetica,sans-Serif" font-weight="bold" font-size="16.00" fill="#000000">business_partners</text>
<text text-anchor="start" x="163.7136" y="-473.3" font-family="Helvetica,sans-Serif" font-size="16.00" fill="#000000">[table]</text>
<polygon fill="none" stroke="#000000" points="8,-441.7 8,-463.7 212,-463.7 212,-441.7 8,-441.7"/>
<image xlink:href="../../images/primaryKeys.png" width="11px" height="12px" preserveAspectRatio="xMinYMin meet" x="13" y="-458.7"/>
<text text-anchor="start" x="44" y="-444.3" font-family="Helvetica,sans-Serif" font-size="16.00" fill="#000000">id</text>
<polygon fill="#ffffff" stroke="transparent" points="8,-419.7 8,-441.7 212,-441.7 212,-419.7 8,-419.7"/>
<polygon fill="none" stroke="#000000" points="8,-419.7 8,-441.7 212,-441.7 212,-419.7 8,-419.7"/>
<text text-anchor="start" x="44" y="-422.3" font-family="Helvetica,sans-Serif" font-size="16.00" fill="#000000">name</text>
<polygon fill="#ffffff" stroke="transparent" points="8,-397.7 8,-419.7 212,-419.7 212,-397.7 8,-397.7"/>
<polygon fill="none" stroke="#000000" points="8,-397.7 8,-419.7 212,-419.7 212,-397.7 8,-397.7"/>
<text text-anchor="start" x="44" y="-400.3" font-family="Helvetica,sans-Serif" font-size="16.00" fill="#000000">customer</text>
<polygon fill="#ffffff" stroke="transparent" points="8,-375.7 8,-397.7 212,-397.7 212,-375.7 8,-375.7"/>
<polygon fill="none" stroke="#000000" points="8,-375.7 8,-397.7 212,-397.7 212,-375.7 8,-375.7"/>
<text text-anchor="start" x="44" y="-378.3" font-family="Helvetica,sans-Serif" font-size="16.00" fill="#000000">supplier</text>
<polygon fill="#ffffff" stroke="transparent" points="8,-353.7 8,-375.7 212,-375.7 212,-353.7 8,-353.7"/>
<polygon fill="none" stroke="#000000" points="8,-353.7 8,-375.7 212,-375.7 212,-353.7 8,-353.7"/>
<text text-anchor="start" x="44" y="-356.3" font-family="Helvetica,sans-Serif" font-size="16.00" fill="#000000">frozen</text>
<polygon fill="#ffffff" stroke="transparent" points="8,-331.7 8,-353.7 212,-353.7 212,-331.7 8,-331.7"/>
<polygon fill="none" stroke="#000000" points="8,-331.7 8,-353.7 212,-353.7 212,-331.7 8,-331.7"/>
<text text-anchor="start" x="44" y="-334.3" font-family="Helvetica,sans-Serif" font-size="16.00" fill="#000000">active</text>
<polygon fill="none" stroke="#000000" points="8,-306.7 8,-331.7 212,-331.7 212,-306.7 8,-306.7"/>
<text text-anchor="start" x="11" y="-314.3" font-family="Helvetica,sans-Serif" font-size="16.00" fill="#000000">...</text>
<polygon fill="#ffffff" stroke="transparent" points="8,-281.7 8,-306.7 76,-306.7 76,-281.7 8,-281.7"/>
<polygon fill="none" stroke="#000000" points="8,-281.7 8,-306.7 76,-306.7 76,-281.7 8,-281.7"/>
<text text-anchor="start" x="11" y="-289.3" font-family="Helvetica,sans-Serif" font-size="16.00" fill="#000000"> &#160;</text>
<polygon fill="#ffffff" stroke="transparent" points="76,-281.7 76,-306.7 156,-306.7 156,-281.7 76,-281.7"/>
<polygon fill="none" stroke="#000000" points="76,-281.7 76,-306.7 156,-306.7 156,-281.7 76,-281.7"/>
<text text-anchor="start" x="105.888" y="-289.3" font-family="Helvetica,sans-Serif" font-size="16.00" fill="#000000">4 rows</text>
<polygon fill="#ffffff" stroke="transparent" points="156,-281.7 156,-306.7 212,-306.7 212,-281.7 156,-281.7"/>
<polygon fill="none" stroke="#000000" points="156,-281.7 156,-306.7 212,-306.7 212,-281.7 156,-281.7"/>
<text text-anchor="start" x="186.3168" y="-289.3" font-family="Helvetica,sans-Serif" font-size="16.00" fill="#000000">3 &gt;</text>
</a>
</g>
</g>
<!-- timers&#45;&gt;business_partners -->
<g id="edge10" class="edge">
<title>timers:w&#45;&gt;business_partners:e</title>
<path fill="none" stroke="#000000" d="M580.6421,-666.918C571.5574,-673.7066 568.5945,-686.7912 553,-691.7 425.8187,-731.7338 354.9402,-777.6417 253,-691.7 170.6013,-622.233 319.7739,-452.7 212,-452.7"/>
<polygon fill="#000000" stroke="#000000" points="586.8467,-665.0295 595.5483,-666.144 590.6733,-663.8648 594.5,-662.7 594.5,-662.7 594.5,-662.7 590.6733,-663.8648 593.4517,-659.256 586.8467,-665.0295 586.8467,-665.0295"/>
<ellipse fill="none" stroke="#000000" cx="583.7853" cy="-665.9613" rx="3.2" ry="3.2"/>
</g>
<!-- projects -->
<g id="node4" class="node">
<title>projects</title>
<g id="a_node4"><a xlink:href="../../tables/projects.html" xlink:title="projects" target="_top">
<polygon fill="#ffffff" stroke="transparent" points="261,-50.2 261,-327.2 545,-327.2 545,-50.2 261,-50.2"/>
<polygon fill="#f5f5f5" stroke="transparent" points="261,-297.7 261,-326.7 545,-326.7 545,-297.7 261,-297.7"/>
<polygon fill="none" stroke="#000000" points="261,-297.7 261,-326.7 545,-326.7 545,-297.7 261,-297.7"/>
<text text-anchor="start" x="266" y="-304.8" font-family="Helvetica,sans-Serif" font-weight="bold" font-size="16.00" fill="#000000">projects</text>
<text text-anchor="start" x="496.4272" y="-307.3" font-family="Helvetica,sans-Serif" font-size="16.00" fill="#000000">[table]</text>
<polygon fill="none" stroke="#000000" points="261,-275.7 261,-297.7 545,-297.7 545,-275.7 261,-275.7"/>
<image xlink:href="../../images/primaryKeys.png" width="11px" height="12px" preserveAspectRatio="xMinYMin meet" x="266" y="-292.7"/>
<text text-anchor="start" x="281" y="-278.3" font-family="Helvetica,sans-Serif" font-size="16.00" fill="#000000">id</text>
<polygon fill="#ffffff" stroke="transparent" points="261,-253.7 261,-275.7 545,-275.7 545,-253.7 261,-253.7"/>
<polygon fill="none" stroke="#000000" points="261,-253.7 261,-275.7 545,-275.7 545,-253.7 261,-253.7"/>
<text text-anchor="start" x="281" y="-256.3" font-family="Helvetica,sans-Serif" font-size="16.00" fill="#000000">name</text>
<polygon fill="#ffffff" stroke="transparent" points="261,-231.7 261,-253.7 545,-253.7 545,-231.7 261,-231.7"/>
<polygon fill="none" stroke="#000000" points="261,-231.7 261,-253.7 545,-253.7 545,-231.7 261,-231.7"/>
<text text-anchor="start" x="281" y="-234.3" font-family="Helvetica,sans-Serif" font-size="16.00" fill="#000000">status</text>
<polygon fill="#ffffff" stroke="transparent" points="261,-209.7 261,-231.7 545,-231.7 545,-209.7 261,-209.7"/>
<polygon fill="none" stroke="#000000" points="261,-209.7 261,-231.7 545,-231.7 545,-209.7 261,-209.7"/>
<text text-anchor="start" x="281" y="-212.3" font-family="Helvetica,sans-Serif" font-size="16.00" fill="#000000">project_type</text>
<polygon fill="#ffffff" stroke="transparent" points="261,-187.7 261,-209.7 545,-209.7 545,-187.7 261,-187.7"/>
<polygon fill="none" stroke="#000000" points="261,-187.7 261,-209.7 545,-209.7 545,-187.7 261,-187.7"/>
<text text-anchor="start" x="281" y="-190.3" font-family="Helvetica,sans-Serif" font-size="16.00" fill="#000000">priority</text>
<polygon fill="#ffffff" stroke="transparent" points="261,-165.7 261,-187.7 545,-187.7 545,-165.7 261,-165.7"/>
<polygon fill="none" stroke="#000000" points="261,-165.7 261,-187.7 545,-187.7 545,-165.7 261,-165.7"/>
<image xlink:href="../../images/foreignKeys.png" width="11px" height="12px" preserveAspectRatio="xMinYMin meet" x="266" y="-182.7"/>
<text text-anchor="start" x="281" y="-168.3" font-family="Helvetica,sans-Serif" font-size="16.00" fill="#000000">business_partner_id</text>
<polygon fill="#ffffff" stroke="transparent" points="261,-143.7 261,-165.7 545,-165.7 545,-143.7 261,-143.7"/>
<polygon fill="none" stroke="#000000" points="261,-143.7 261,-165.7 545,-165.7 545,-143.7 261,-143.7"/>
<text text-anchor="start" x="281" y="-146.3" font-family="Helvetica,sans-Serif" font-size="16.00" fill="#000000">billable</text>
<polygon fill="#ffffff" stroke="transparent" points="261,-121.7 261,-143.7 545,-143.7 545,-121.7 261,-121.7"/>
<polygon fill="none" stroke="#000000" points="261,-121.7 261,-143.7 545,-143.7 545,-121.7 261,-121.7"/>
<text text-anchor="start" x="281" y="-124.3" font-family="Helvetica,sans-Serif" font-size="16.00" fill="#000000">active</text>
<polygon fill="#ffffff" stroke="transparent" points="261,-99.7 261,-121.7 545,-121.7 545,-99.7 261,-99.7"/>
<polygon fill="none" stroke="#000000" points="261,-99.7 261,-121.7 545,-121.7 545,-99.7 261,-99.7"/>
<text text-anchor="start" x="281" y="-102.3" font-family="Helvetica,sans-Serif" font-size="16.00" fill="#000000">inserted_at</text>
<polygon fill="none" stroke="#000000" points="261,-74.7 261,-99.7 545,-99.7 545,-74.7 261,-74.7"/>
<text text-anchor="start" x="264" y="-82.3" font-family="Helvetica,sans-Serif" font-size="16.00" fill="#000000">...</text>
<polygon fill="#ffffff" stroke="transparent" points="261,-49.7 261,-74.7 376,-74.7 376,-49.7 261,-49.7"/>
<polygon fill="none" stroke="#000000" points="261,-49.7 261,-74.7 376,-74.7 376,-49.7 261,-49.7"/>
<text text-anchor="start" x="264" y="-57.3" font-family="Helvetica,sans-Serif" font-size="16.00" fill="#000000">&lt; 1</text>
<polygon fill="#ffffff" stroke="transparent" points="376,-49.7 376,-74.7 473,-74.7 473,-49.7 376,-49.7"/>
<polygon fill="none" stroke="#000000" points="376,-49.7 376,-74.7 473,-74.7 473,-49.7 376,-49.7"/>
<text text-anchor="start" x="422.888" y="-57.3" font-family="Helvetica,sans-Serif" font-size="16.00" fill="#000000">5 rows</text>
<polygon fill="#ffffff" stroke="transparent" points="473,-49.7 473,-74.7 545,-74.7 545,-49.7 473,-49.7"/>
<polygon fill="none" stroke="#000000" points="473,-49.7 473,-74.7 545,-74.7 545,-49.7 473,-49.7"/>
<text text-anchor="start" x="519.3168" y="-57.3" font-family="Helvetica,sans-Serif" font-size="16.00" fill="#000000">3 &gt;</text>
</a>
</g>
</g>
<!-- timers&#45;&gt;projects -->
<g id="edge11" class="edge">
<title>timers:w&#45;&gt;projects:e</title>
<path fill="none" stroke="#000000" d="M580.9273,-613.7492C533.4044,-572.4494 614.2028,-286.7 545,-286.7"/>
<polygon fill="#000000" stroke="#000000" points="586.9844,-615.9585 593.2663,-622.082 590.7422,-617.3293 594.5,-618.7 594.5,-618.7 594.5,-618.7 590.7422,-617.3293 595.7337,-615.318 586.9844,-615.9585 586.9844,-615.9585"/>
<ellipse fill="none" stroke="#000000" cx="583.9781" cy="-614.8619" rx="3.2" ry="3.2"/>
</g>
<!-- activity_types -->
<g id="node5" class="node">
<title>activity_types</title>
<g id="a_node5"><a xlink:href="../../tables/activity_types.html" xlink:title="activity_types" target="_top">
<polygon fill="#ffffff" stroke="transparent" points="320.5,-536.2 320.5,-681.2 485.5,-681.2 485.5,-536.2 320.5,-536.2"/>
<polygon fill="#f5f5f5" stroke="transparent" points="321,-651.7 321,-680.7 486,-680.7 486,-651.7 321,-651.7"/>
<polygon fill="none" stroke="#000000" points="321,-651.7 321,-680.7 486,-680.7 486,-651.7 321,-651.7"/>
<text text-anchor="start" x="326" y="-658.8" font-family="Helvetica,sans-Serif" font-weight="bold" font-size="16.00" fill="#000000">activity_types</text>
<text text-anchor="start" x="437.7136" y="-661.3" font-family="Helvetica,sans-Serif" font-size="16.00" fill="#000000">[table]</text>
<polygon fill="none" stroke="#000000" points="321,-629.7 321,-651.7 486,-651.7 486,-629.7 321,-629.7"/>
<image xlink:href="../../images/primaryKeys.png" width="11px" height="12px" preserveAspectRatio="xMinYMin meet" x="326" y="-646.7"/>
<text text-anchor="start" x="357" y="-632.3" font-family="Helvetica,sans-Serif" font-size="16.00" fill="#000000">id</text>
<polygon fill="#ffffff" stroke="transparent" points="321,-607.7 321,-629.7 486,-629.7 486,-607.7 321,-607.7"/>
<polygon fill="none" stroke="#000000" points="321,-607.7 321,-629.7 486,-629.7 486,-607.7 321,-607.7"/>
<text text-anchor="start" x="357" y="-610.3" font-family="Helvetica,sans-Serif" font-size="16.00" fill="#000000">name</text>
<polygon fill="#ffffff" stroke="transparent" points="321,-585.7 321,-607.7 486,-607.7 486,-585.7 321,-585.7"/>
<polygon fill="none" stroke="#000000" points="321,-585.7 321,-607.7 486,-607.7 486,-585.7 321,-585.7"/>
<text text-anchor="start" x="357" y="-588.3" font-family="Helvetica,sans-Serif" font-size="16.00" fill="#000000">active</text>
<polygon fill="none" stroke="#000000" points="321,-560.7 321,-585.7 486,-585.7 486,-560.7 321,-560.7"/>
<text text-anchor="start" x="324" y="-568.3" font-family="Helvetica,sans-Serif" font-size="16.00" fill="#000000">...</text>
<polygon fill="#ffffff" stroke="transparent" points="321,-535.7 321,-560.7 370,-560.7 370,-535.7 321,-535.7"/>
<polygon fill="none" stroke="#000000" points="321,-535.7 321,-560.7 370,-560.7 370,-535.7 321,-535.7"/>
<text text-anchor="start" x="324" y="-543.3" font-family="Helvetica,sans-Serif" font-size="16.00" fill="#000000"> &#160;</text>
<polygon fill="#ffffff" stroke="transparent" points="370,-535.7 370,-560.7 440,-560.7 440,-535.7 370,-535.7"/>
<polygon fill="none" stroke="#000000" points="370,-535.7 370,-560.7 440,-560.7 440,-535.7 370,-535.7"/>
<text text-anchor="start" x="389.888" y="-543.3" font-family="Helvetica,sans-Serif" font-size="16.00" fill="#000000">5 rows</text>
<polygon fill="#ffffff" stroke="transparent" points="440,-535.7 440,-560.7 486,-560.7 486,-535.7 440,-535.7"/>
<polygon fill="none" stroke="#000000" points="440,-535.7 440,-560.7 486,-560.7 486,-535.7 440,-535.7"/>
<text text-anchor="start" x="460.3168" y="-543.3" font-family="Helvetica,sans-Serif" font-size="16.00" fill="#000000">1 &gt;</text>
</a>
</g>
</g>
<!-- timers&#45;&gt;activity_types -->
<g id="edge9" class="edge">
<title>timers:w&#45;&gt;activity_types:e</title>
<path fill="none" stroke="#000000" d="M579.8804,-640.7C543.208,-640.7 528.9479,-640.7 486,-640.7"/>
<polygon fill="#000000" stroke="#000000" points="586.5,-640.7001 594.5,-644.3 590.5,-640.7 594.5,-640.7 594.5,-640.7 594.5,-640.7 590.5,-640.7 594.5,-637.1 586.5,-640.7001 586.5,-640.7001"/>
<ellipse fill="none" stroke="#000000" cx="583.3" cy="-640.7001" rx="3.2" ry="3.2"/>
</g>
<!-- project_notes -->
<g id="node3" class="node">
<title>project_notes</title>
<g id="a_node3"><a xlink:href="../../tables/project_notes.html" xlink:title="project_notes" target="_top">
<polygon fill="#ffffff" stroke="transparent" points="628.5,-348.2 628.5,-515.2 792.5,-515.2 792.5,-348.2 628.5,-348.2"/>
<polygon fill="#f5f5f5" stroke="transparent" points="628.5,-485.7 628.5,-514.7 792.5,-514.7 792.5,-485.7 628.5,-485.7"/>
<polygon fill="none" stroke="#000000" points="628.5,-485.7 628.5,-514.7 792.5,-514.7 792.5,-485.7 628.5,-485.7"/>
<text text-anchor="start" x="633.5" y="-492.8" font-family="Helvetica,sans-Serif" font-weight="bold" font-size="16.00" fill="#000000">project_notes</text>
<text text-anchor="start" x="744.2136" y="-495.3" font-family="Helvetica,sans-Serif" font-size="16.00" fill="#000000">[table]</text>
<polygon fill="none" stroke="#000000" points="628.5,-463.7 628.5,-485.7 792.5,-485.7 792.5,-463.7 628.5,-463.7"/>
<image xlink:href="../../images/primaryKeys.png" width="11px" height="12px" preserveAspectRatio="xMinYMin meet" x="633.5" y="-480.7"/>
<text text-anchor="start" x="664.5" y="-466.3" font-family="Helvetica,sans-Serif" font-size="16.00" fill="#000000">id</text>
<polygon fill="#ffffff" stroke="transparent" points="628.5,-441.7 628.5,-463.7 792.5,-463.7 792.5,-441.7 628.5,-441.7"/>
<polygon fill="none" stroke="#000000" points="628.5,-441.7 628.5,-463.7 792.5,-463.7 792.5,-441.7 628.5,-441.7"/>
<image xlink:href="../../images/foreignKeys.png" width="11px" height="12px" preserveAspectRatio="xMinYMin meet" x="633.5" y="-458.7"/>
<text text-anchor="start" x="664.5" y="-444.3" font-family="Helvetica,sans-Serif" font-size="16.00" fill="#000000">project_id</text>
<polygon fill="#ffffff" stroke="transparent" points="628.5,-419.7 628.5,-441.7 792.5,-441.7 792.5,-419.7 628.5,-419.7"/>
<polygon fill="none" stroke="#000000" points="628.5,-419.7 628.5,-441.7 792.5,-441.7 792.5,-419.7 628.5,-419.7"/>
<text text-anchor="start" x="664.5" y="-422.3" font-family="Helvetica,sans-Serif" font-size="16.00" fill="#000000">inserted_at</text>
<polygon fill="#ffffff" stroke="transparent" points="628.5,-397.7 628.5,-419.7 792.5,-419.7 792.5,-397.7 628.5,-397.7"/>
<polygon fill="none" stroke="#000000" points="628.5,-397.7 628.5,-419.7 792.5,-419.7 792.5,-397.7 628.5,-397.7"/>
<text text-anchor="start" x="664.5" y="-400.3" font-family="Helvetica,sans-Serif" font-size="16.00" fill="#000000">updated_at</text>
<polygon fill="none" stroke="#000000" points="628.5,-372.7 628.5,-397.7 792.5,-397.7 792.5,-372.7 628.5,-372.7"/>
<text text-anchor="start" x="631.5" y="-380.3" font-family="Helvetica,sans-Serif" font-size="16.00" fill="#000000">...</text>
<polygon fill="#ffffff" stroke="transparent" points="628.5,-347.7 628.5,-372.7 690.5,-372.7 690.5,-347.7 628.5,-347.7"/>
<polygon fill="none" stroke="#000000" points="628.5,-347.7 628.5,-372.7 690.5,-372.7 690.5,-347.7 628.5,-347.7"/>
<text text-anchor="start" x="631.5" y="-355.3" font-family="Helvetica,sans-Serif" font-size="16.00" fill="#000000">&lt; 1</text>
<polygon fill="#ffffff" stroke="transparent" points="690.5,-347.7 690.5,-372.7 760.5,-372.7 760.5,-347.7 690.5,-347.7"/>
<polygon fill="none" stroke="#000000" points="690.5,-347.7 690.5,-372.7 760.5,-372.7 760.5,-347.7 690.5,-347.7"/>
<text text-anchor="start" x="710.388" y="-355.3" font-family="Helvetica,sans-Serif" font-size="16.00" fill="#000000">0 rows</text>
<polygon fill="#ffffff" stroke="transparent" points="760.5,-347.7 760.5,-372.7 792.5,-372.7 792.5,-347.7 760.5,-347.7"/>
<polygon fill="none" stroke="#000000" points="760.5,-347.7 760.5,-372.7 792.5,-372.7 792.5,-347.7 760.5,-347.7"/>
<text text-anchor="start" x="780.6072" y="-355.3" font-family="Helvetica,sans-Serif" font-size="16.00" fill="#000000"> &#160;</text>
</a>
</g>
</g>
<!-- project_notes&#45;&gt;projects -->
<g id="edge2" class="edge">
<title>project_notes:w&#45;&gt;projects:e</title>
<path fill="none" stroke="#000000" d="M614.1242,-450.6011C556.037,-431.3852 622.1015,-286.7 545,-286.7"/>
<polygon fill="#000000" stroke="#000000" points="620.5839,-451.5442 627.9799,-456.2622 624.542,-452.1221 628.5,-452.7 628.5,-452.7 628.5,-452.7 624.542,-452.1221 629.0201,-449.1378 620.5839,-451.5442 620.5839,-451.5442"/>
<ellipse fill="none" stroke="#000000" cx="617.4175" cy="-451.0819" rx="3.2" ry="3.2"/>
</g>
<!-- projects&#45;&gt;business_partners -->
<g id="edge5" class="edge">
<title>projects:w&#45;&gt;business_partners:e</title>
<path fill="none" stroke="#000000" d="M247.5832,-182.7213C210.9289,-223.0836 268.8175,-452.7 212,-452.7"/>
<polygon fill="#000000" stroke="#000000" points="253.7013,-179.9756 262.474,-179.9844 257.3507,-178.3378 261,-176.7 261,-176.7 261,-176.7 257.3507,-178.3378 259.526,-173.4156 253.7013,-179.9756 253.7013,-179.9756"/>
<ellipse fill="none" stroke="#000000" cx="250.7819" cy="-181.2859" rx="3.2" ry="3.2"/>
</g>
<!-- timer_tags -->
<g id="node6" class="node">
<title>timer_tags</title>
<g id="a_node6"><a xlink:href="../../tables/timer_tags.html" xlink:title="timer_tags" target="_top">
<polygon fill="#ffffff" stroke="transparent" points="884,-426.2 884,-571.2 1022,-571.2 1022,-426.2 884,-426.2"/>
<polygon fill="#f5f5f5" stroke="transparent" points="884,-541.7 884,-570.7 1022,-570.7 1022,-541.7 884,-541.7"/>
<polygon fill="none" stroke="#000000" points="884,-541.7 884,-570.7 1022,-570.7 1022,-541.7 884,-541.7"/>
<text text-anchor="start" x="889" y="-548.8" font-family="Helvetica,sans-Serif" font-weight="bold" font-size="16.00" fill="#000000">timer_tags</text>
<text text-anchor="start" x="973.7136" y="-551.3" font-family="Helvetica,sans-Serif" font-size="16.00" fill="#000000">[table]</text>
<polygon fill="none" stroke="#000000" points="884,-519.7 884,-541.7 1022,-541.7 1022,-519.7 884,-519.7"/>
<image xlink:href="../../images/primaryKeys.png" width="11px" height="12px" preserveAspectRatio="xMinYMin meet" x="889" y="-536.7"/>
<text text-anchor="start" x="918" y="-522.3" font-family="Helvetica,sans-Serif" font-size="16.00" fill="#000000">id</text>
<polygon fill="#ffffff" stroke="transparent" points="884,-497.7 884,-519.7 1022,-519.7 1022,-497.7 884,-497.7"/>
<polygon fill="none" stroke="#000000" points="884,-497.7 884,-519.7 1022,-519.7 1022,-497.7 884,-497.7"/>
<image xlink:href="../../images/foreignKeys.png" width="11px" height="12px" preserveAspectRatio="xMinYMin meet" x="889" y="-514.7"/>
<text text-anchor="start" x="918" y="-500.3" font-family="Helvetica,sans-Serif" font-size="16.00" fill="#000000">tag_id</text>
<polygon fill="#ffffff" stroke="transparent" points="884,-475.7 884,-497.7 1022,-497.7 1022,-475.7 884,-475.7"/>
<polygon fill="none" stroke="#000000" points="884,-475.7 884,-497.7 1022,-497.7 1022,-475.7 884,-475.7"/>
<image xlink:href="../../images/foreignKeys.png" width="11px" height="12px" preserveAspectRatio="xMinYMin meet" x="889" y="-492.7"/>
<text text-anchor="start" x="918" y="-478.3" font-family="Helvetica,sans-Serif" font-size="16.00" fill="#000000">timer_id</text>
<polygon fill="none" stroke="#000000" points="884,-450.7 884,-475.7 1022,-475.7 1022,-450.7 884,-450.7"/>
<text text-anchor="start" x="887" y="-458.3" font-family="Helvetica,sans-Serif" font-size="16.00" fill="#000000">...</text>
<polygon fill="#ffffff" stroke="transparent" points="884,-425.7 884,-450.7 933,-450.7 933,-425.7 884,-425.7"/>
<polygon fill="none" stroke="#000000" points="884,-425.7 884,-450.7 933,-450.7 933,-425.7 884,-425.7"/>
<text text-anchor="start" x="887" y="-433.3" font-family="Helvetica,sans-Serif" font-size="16.00" fill="#000000">&lt; 2</text>
<polygon fill="#ffffff" stroke="transparent" points="933,-425.7 933,-450.7 997,-450.7 997,-425.7 933,-425.7"/>
<polygon fill="none" stroke="#000000" points="933,-425.7 933,-450.7 997,-450.7 997,-425.7 933,-425.7"/>
<text text-anchor="start" x="946.888" y="-433.3" font-family="Helvetica,sans-Serif" font-size="16.00" fill="#000000">2 rows</text>
<polygon fill="#ffffff" stroke="transparent" points="997,-425.7 997,-450.7 1022,-450.7 1022,-425.7 997,-425.7"/>
<polygon fill="none" stroke="#000000" points="997,-425.7 997,-450.7 1022,-450.7 1022,-425.7 997,-425.7"/>
<text text-anchor="start" x="1010.1072" y="-433.3" font-family="Helvetica,sans-Serif" font-size="16.00" fill="#000000"> &#160;</text>
</a>
</g>
</g>
<!-- timer_tags&#45;&gt;timers -->
<g id="edge8" class="edge">
<title>timer_tags:w&#45;&gt;timers:e</title>
<path fill="none" stroke="#000000" d="M870.6406,-492.71C834.4165,-532.0065 882.105,-750.7 827.5,-750.7"/>
<polygon fill="#000000" stroke="#000000" points="876.7043,-489.9822 885.477,-489.9831 880.3521,-488.3411 884,-486.7 884,-486.7 884,-486.7 880.3521,-488.3411 882.523,-483.4169 876.7043,-489.9822 876.7043,-489.9822"/>
<ellipse fill="none" stroke="#000000" cx="873.786" cy="-491.2951" rx="3.2" ry="3.2"/>
</g>
<!-- tags -->
<g id="node10" class="node">
<title>tags</title>
<g id="a_node10"><a xlink:href="../../tables/tags.html" xlink:title="tags" target="_top">
<polygon fill="#ffffff" stroke="transparent" points="654.5,-204.2 654.5,-327.2 766.5,-327.2 766.5,-204.2 654.5,-204.2"/>
<polygon fill="#f5f5f5" stroke="transparent" points="654.5,-297.7 654.5,-326.7 766.5,-326.7 766.5,-297.7 654.5,-297.7"/>
<polygon fill="none" stroke="#000000" points="654.5,-297.7 654.5,-326.7 766.5,-326.7 766.5,-297.7 654.5,-297.7"/>
<text text-anchor="start" x="659.3824" y="-304.8" font-family="Helvetica,sans-Serif" font-weight="bold" font-size="16.00" fill="#000000">tags</text>
<text text-anchor="start" x="717.9272" y="-307.3" font-family="Helvetica,sans-Serif" font-size="16.00" fill="#000000">[table]</text>
<polygon fill="none" stroke="#000000" points="654.5,-275.7 654.5,-297.7 766.5,-297.7 766.5,-275.7 654.5,-275.7"/>
<image xlink:href="../../images/primaryKeys.png" width="11px" height="12px" preserveAspectRatio="xMinYMin meet" x="659.5" y="-292.7"/>
<text text-anchor="start" x="674.5" y="-278.3" font-family="Helvetica,sans-Serif" font-size="16.00" fill="#000000">id</text>
<polygon fill="#ffffff" stroke="transparent" points="654.5,-253.7 654.5,-275.7 766.5,-275.7 766.5,-253.7 654.5,-253.7"/>
<polygon fill="none" stroke="#000000" points="654.5,-253.7 654.5,-275.7 766.5,-275.7 766.5,-253.7 654.5,-253.7"/>
<text text-anchor="start" x="674.5" y="-256.3" font-family="Helvetica,sans-Serif" font-size="16.00" fill="#000000">name</text>
<polygon fill="none" stroke="#000000" points="654.5,-228.7 654.5,-253.7 766.5,-253.7 766.5,-228.7 654.5,-228.7"/>
<text text-anchor="start" x="657.5" y="-236.3" font-family="Helvetica,sans-Serif" font-size="16.00" fill="#000000">...</text>
<polygon fill="#ffffff" stroke="transparent" points="654.5,-203.7 654.5,-228.7 676.5,-228.7 676.5,-203.7 654.5,-203.7"/>
<polygon fill="none" stroke="#000000" points="654.5,-203.7 654.5,-228.7 676.5,-228.7 676.5,-203.7 654.5,-203.7"/>
<text text-anchor="start" x="657.5" y="-211.3" font-family="Helvetica,sans-Serif" font-size="16.00" fill="#000000"> &#160;</text>
<polygon fill="#ffffff" stroke="transparent" points="676.5,-203.7 676.5,-228.7 733.5,-228.7 733.5,-203.7 676.5,-203.7"/>
<polygon fill="none" stroke="#000000" points="676.5,-203.7 676.5,-228.7 733.5,-228.7 733.5,-203.7 676.5,-203.7"/>
<text text-anchor="start" x="683.388" y="-211.3" font-family="Helvetica,sans-Serif" font-size="16.00" fill="#000000">5 rows</text>
<polygon fill="#ffffff" stroke="transparent" points="733.5,-203.7 733.5,-228.7 766.5,-228.7 766.5,-203.7 733.5,-203.7"/>
<polygon fill="none" stroke="#000000" points="733.5,-203.7 733.5,-228.7 766.5,-228.7 766.5,-203.7 733.5,-203.7"/>
<text text-anchor="start" x="740.8168" y="-211.3" font-family="Helvetica,sans-Serif" font-size="16.00" fill="#000000">2 &gt;</text>
</a>
</g>
</g>
<!-- timer_tags&#45;&gt;tags -->
<g id="edge7" class="edge">
<title>timer_tags:w&#45;&gt;tags:e</title>
<path fill="none" stroke="#000000" d="M869.5135,-507.1794C814.8979,-494.0002 876.8003,-398.1563 835,-337.7 813.4141,-306.48 804.4558,-286.7 766.5,-286.7"/>
<polygon fill="#000000" stroke="#000000" points="876.0437,-507.8648 883.6241,-512.2803 880.0219,-508.2824 884,-508.7 884,-508.7 884,-508.7 880.0219,-508.2824 884.3759,-505.1197 876.0437,-507.8648 876.0437,-507.8648"/>
<ellipse fill="none" stroke="#000000" cx="872.8612" cy="-507.5307" rx="3.2" ry="3.2"/>
</g>
<!-- timer_notes -->
<g id="node7" class="node">
<title>timer_notes</title>
<g id="a_node7"><a xlink:href="../../tables/timer_notes.html" xlink:title="timer_notes" target="_top">
<polygon fill="#ffffff" stroke="transparent" points="878.5,-690.2 878.5,-813.2 1027.5,-813.2 1027.5,-690.2 878.5,-690.2"/>
<polygon fill="#f5f5f5" stroke="transparent" points="879,-783.7 879,-812.7 1028,-812.7 1028,-783.7 879,-783.7"/>
<polygon fill="none" stroke="#000000" points="879,-783.7 879,-812.7 1028,-812.7 1028,-783.7 879,-783.7"/>
<text text-anchor="start" x="884" y="-790.8" font-family="Helvetica,sans-Serif" font-weight="bold" font-size="16.00" fill="#000000">timer_notes</text>
<text text-anchor="start" x="979.7136" y="-793.3" font-family="Helvetica,sans-Serif" font-size="16.00" fill="#000000">[table]</text>
<polygon fill="none" stroke="#000000" points="879,-761.7 879,-783.7 1028,-783.7 1028,-761.7 879,-761.7"/>
<image xlink:href="../../images/primaryKeys.png" width="11px" height="12px" preserveAspectRatio="xMinYMin meet" x="884" y="-778.7"/>
<text text-anchor="start" x="915" y="-764.3" font-family="Helvetica,sans-Serif" font-size="16.00" fill="#000000">id</text>
<polygon fill="none" stroke="#000000" points="879,-739.7 879,-761.7 1028,-761.7 1028,-739.7 879,-739.7"/>
<image xlink:href="../../images/foreignKeys.png" width="11px" height="12px" preserveAspectRatio="xMinYMin meet" x="884" y="-756.7"/>
<text text-anchor="start" x="915" y="-742.3" font-family="Helvetica,sans-Serif" font-size="16.00" fill="#000000">timer_id</text>
<polygon fill="none" stroke="#000000" points="879,-714.7 879,-739.7 1028,-739.7 1028,-714.7 879,-714.7"/>
<text text-anchor="start" x="882" y="-722.3" font-family="Helvetica,sans-Serif" font-size="16.00" fill="#000000">...</text>
<polygon fill="#ffffff" stroke="transparent" points="879,-689.7 879,-714.7 929,-714.7 929,-689.7 879,-689.7"/>
<polygon fill="none" stroke="#000000" points="879,-689.7 879,-714.7 929,-714.7 929,-689.7 879,-689.7"/>
<text text-anchor="start" x="882" y="-697.3" font-family="Helvetica,sans-Serif" font-size="16.00" fill="#000000">&lt; 1</text>
<polygon fill="#ffffff" stroke="transparent" points="929,-689.7 929,-714.7 1002,-714.7 1002,-689.7 929,-689.7"/>
<polygon fill="none" stroke="#000000" points="929,-689.7 929,-714.7 1002,-714.7 1002,-689.7 929,-689.7"/>
<text text-anchor="start" x="942.9936" y="-697.3" font-family="Helvetica,sans-Serif" font-size="16.00" fill="#000000">29 rows</text>
<polygon fill="#ffffff" stroke="transparent" points="1002,-689.7 1002,-714.7 1028,-714.7 1028,-689.7 1002,-689.7"/>
<polygon fill="none" stroke="#000000" points="1002,-689.7 1002,-714.7 1028,-714.7 1028,-689.7 1002,-689.7"/>
<text text-anchor="start" x="1016.1072" y="-697.3" font-family="Helvetica,sans-Serif" font-size="16.00" fill="#000000"> &#160;</text>
</a>
</g>
</g>
<!-- timer_notes&#45;&gt;timers -->
<g id="edge6" class="edge">
<title>timer_notes:w&#45;&gt;timers:e</title>
<path fill="none" stroke="#000000" d="M864.5156,-750.7C852.1771,-750.7 844.6667,-750.7 827.5,-750.7"/>
<polygon fill="#000000" stroke="#000000" points="871,-750.7001 879,-754.3 875,-750.7 879,-750.7 879,-750.7 879,-750.7 875,-750.7 879,-747.1 871,-750.7001 871,-750.7001"/>
<ellipse fill="none" stroke="#000000" cx="867.8" cy="-750.7001" rx="3.2" ry="3.2"/>
</g>
<!-- business_partner_notes -->
<g id="node8" class="node">
<title>business_partner_notes</title>
<g id="a_node8"><a xlink:href="../../tables/business_partner_notes.html" xlink:title="business_partner_notes" target="_top">
<polygon fill="#ffffff" stroke="transparent" points="278.5,-348.2 278.5,-515.2 527.5,-515.2 527.5,-348.2 278.5,-348.2"/>
<polygon fill="#f5f5f5" stroke="transparent" points="279,-485.7 279,-514.7 528,-514.7 528,-485.7 279,-485.7"/>
<polygon fill="none" stroke="#000000" points="279,-485.7 279,-514.7 528,-514.7 528,-485.7 279,-485.7"/>
<text text-anchor="start" x="284" y="-492.8" font-family="Helvetica,sans-Serif" font-weight="bold" font-size="16.00" fill="#000000">business_partner_notes</text>
<text text-anchor="start" x="479.7136" y="-495.3" font-family="Helvetica,sans-Serif" font-size="16.00" fill="#000000">[table]</text>
<polygon fill="none" stroke="#000000" points="279,-463.7 279,-485.7 528,-485.7 528,-463.7 279,-463.7"/>
<image xlink:href="../../images/primaryKeys.png" width="11px" height="12px" preserveAspectRatio="xMinYMin meet" x="284" y="-480.7"/>
<text text-anchor="start" x="315" y="-466.3" font-family="Helvetica,sans-Serif" font-size="16.00" fill="#000000">id</text>
<polygon fill="#ffffff" stroke="transparent" points="279,-441.7 279,-463.7 528,-463.7 528,-441.7 279,-441.7"/>
<polygon fill="none" stroke="#000000" points="279,-441.7 279,-463.7 528,-463.7 528,-441.7 279,-441.7"/>
<image xlink:href="../../images/foreignKeys.png" width="11px" height="12px" preserveAspectRatio="xMinYMin meet" x="284" y="-458.7"/>
<text text-anchor="start" x="315" y="-444.3" font-family="Helvetica,sans-Serif" font-size="16.00" fill="#000000">business_partner_id</text>
<polygon fill="#ffffff" stroke="transparent" points="279,-419.7 279,-441.7 528,-441.7 528,-419.7 279,-419.7"/>
<polygon fill="none" stroke="#000000" points="279,-419.7 279,-441.7 528,-441.7 528,-419.7 279,-419.7"/>
<text text-anchor="start" x="315" y="-422.3" font-family="Helvetica,sans-Serif" font-size="16.00" fill="#000000">inserted_at</text>
<polygon fill="#ffffff" stroke="transparent" points="279,-397.7 279,-419.7 528,-419.7 528,-397.7 279,-397.7"/>
<polygon fill="none" stroke="#000000" points="279,-397.7 279,-419.7 528,-419.7 528,-397.7 279,-397.7"/>
<text text-anchor="start" x="315" y="-400.3" font-family="Helvetica,sans-Serif" font-size="16.00" fill="#000000">updated_at</text>
<polygon fill="none" stroke="#000000" points="279,-372.7 279,-397.7 528,-397.7 528,-372.7 279,-372.7"/>
<text text-anchor="start" x="282" y="-380.3" font-family="Helvetica,sans-Serif" font-size="16.00" fill="#000000">...</text>
<polygon fill="#ffffff" stroke="transparent" points="279,-347.7 279,-372.7 384,-372.7 384,-347.7 279,-347.7"/>
<polygon fill="none" stroke="#000000" points="279,-347.7 279,-372.7 384,-372.7 384,-347.7 279,-347.7"/>
<text text-anchor="start" x="282" y="-355.3" font-family="Helvetica,sans-Serif" font-size="16.00" fill="#000000">&lt; 1</text>
<polygon fill="#ffffff" stroke="transparent" points="384,-347.7 384,-372.7 475,-372.7 475,-347.7 384,-347.7"/>
<polygon fill="none" stroke="#000000" points="384,-347.7 384,-372.7 475,-372.7 475,-347.7 384,-347.7"/>
<text text-anchor="start" x="424.888" y="-355.3" font-family="Helvetica,sans-Serif" font-size="16.00" fill="#000000">0 rows</text>
<polygon fill="#ffffff" stroke="transparent" points="475,-347.7 475,-372.7 528,-372.7 528,-347.7 475,-347.7"/>
<polygon fill="none" stroke="#000000" points="475,-347.7 475,-372.7 528,-372.7 528,-347.7 475,-347.7"/>
<text text-anchor="start" x="516.1072" y="-355.3" font-family="Helvetica,sans-Serif" font-size="16.00" fill="#000000"> &#160;</text>
</a>
</g>
</g>
<!-- business_partner_notes&#45;&gt;business_partners -->
<g id="edge1" class="edge">
<title>business_partner_notes:w&#45;&gt;business_partners:e</title>
<path fill="none" stroke="#000000" d="M264.5809,-452.7C245.7359,-452.7 236.3108,-452.7 212,-452.7"/>
<polygon fill="#000000" stroke="#000000" points="271,-452.7001 279,-456.3 275,-452.7 279,-452.7 279,-452.7 279,-452.7 275,-452.7 279,-449.1 271,-452.7001 271,-452.7001"/>
<ellipse fill="none" stroke="#000000" cx="267.8" cy="-452.7001" rx="3.2" ry="3.2"/>
</g>
<!-- project_tags -->
<g id="node9" class="node">
<title>project_tags</title>
<g id="a_node9"><a xlink:href="../../tables/project_tags.html" xlink:title="project_tags" target="_top">
<polygon fill="#ffffff" stroke="transparent" points="876,-162.2 876,-307.2 1030,-307.2 1030,-162.2 876,-162.2"/>
<polygon fill="#f5f5f5" stroke="transparent" points="876,-277.7 876,-306.7 1030,-306.7 1030,-277.7 876,-277.7"/>
<polygon fill="none" stroke="#000000" points="876,-277.7 876,-306.7 1030,-306.7 1030,-277.7 876,-277.7"/>
<text text-anchor="start" x="881" y="-284.8" font-family="Helvetica,sans-Serif" font-weight="bold" font-size="16.00" fill="#000000">project_tags</text>
<text text-anchor="start" x="981.7136" y="-287.3" font-family="Helvetica,sans-Serif" font-size="16.00" fill="#000000">[table]</text>
<polygon fill="none" stroke="#000000" points="876,-255.7 876,-277.7 1030,-277.7 1030,-255.7 876,-255.7"/>
<image xlink:href="../../images/primaryKeys.png" width="11px" height="12px" preserveAspectRatio="xMinYMin meet" x="881" y="-272.7"/>
<text text-anchor="start" x="912" y="-258.3" font-family="Helvetica,sans-Serif" font-size="16.00" fill="#000000">id</text>
<polygon fill="#ffffff" stroke="transparent" points="876,-233.7 876,-255.7 1030,-255.7 1030,-233.7 876,-233.7"/>
<polygon fill="none" stroke="#000000" points="876,-233.7 876,-255.7 1030,-255.7 1030,-233.7 876,-233.7"/>
<image xlink:href="../../images/foreignKeys.png" width="11px" height="12px" preserveAspectRatio="xMinYMin meet" x="881" y="-250.7"/>
<text text-anchor="start" x="912" y="-236.3" font-family="Helvetica,sans-Serif" font-size="16.00" fill="#000000">tag_id</text>
<polygon fill="#ffffff" stroke="transparent" points="876,-211.7 876,-233.7 1030,-233.7 1030,-211.7 876,-211.7"/>
<polygon fill="none" stroke="#000000" points="876,-211.7 876,-233.7 1030,-233.7 1030,-211.7 876,-211.7"/>
<image xlink:href="../../images/foreignKeys.png" width="11px" height="12px" preserveAspectRatio="xMinYMin meet" x="881" y="-228.7"/>
<text text-anchor="start" x="912" y="-214.3" font-family="Helvetica,sans-Serif" font-size="16.00" fill="#000000">project_id</text>
<polygon fill="none" stroke="#000000" points="876,-186.7 876,-211.7 1030,-211.7 1030,-186.7 876,-186.7"/>
<text text-anchor="start" x="879" y="-194.3" font-family="Helvetica,sans-Serif" font-size="16.00" fill="#000000">...</text>
<polygon fill="#ffffff" stroke="transparent" points="876,-161.7 876,-186.7 933,-186.7 933,-161.7 876,-161.7"/>
<polygon fill="none" stroke="#000000" points="876,-161.7 876,-186.7 933,-186.7 933,-161.7 876,-161.7"/>
<text text-anchor="start" x="879" y="-169.3" font-family="Helvetica,sans-Serif" font-size="16.00" fill="#000000">&lt; 2</text>
<polygon fill="#ffffff" stroke="transparent" points="933,-161.7 933,-186.7 1001,-186.7 1001,-161.7 933,-161.7"/>
<polygon fill="none" stroke="#000000" points="933,-161.7 933,-186.7 1001,-186.7 1001,-161.7 933,-161.7"/>
<text text-anchor="start" x="950.888" y="-169.3" font-family="Helvetica,sans-Serif" font-size="16.00" fill="#000000">0 rows</text>
<polygon fill="#ffffff" stroke="transparent" points="1001,-161.7 1001,-186.7 1030,-186.7 1030,-161.7 1001,-161.7"/>
<polygon fill="none" stroke="#000000" points="1001,-161.7 1001,-186.7 1030,-186.7 1030,-161.7 1001,-161.7"/>
<text text-anchor="start" x="1018.1072" y="-169.3" font-family="Helvetica,sans-Serif" font-size="16.00" fill="#000000"> &#160;</text>
</a>
</g>
</g>
<!-- project_tags&#45;&gt;projects -->
<g id="edge3" class="edge">
<title>project_tags:w&#45;&gt;projects:e</title>
<path fill="none" stroke="#000000" d="M861.994,-218.2619C853.2499,-211.4154 850.2883,-198.5604 835,-193.7 729.5347,-160.1711 678.7027,-133.2573 586,-193.7 548.1607,-218.3715 590.1718,-286.7 545,-286.7"/>
<polygon fill="#000000" stroke="#000000" points="868.3737,-220.2834 874.9125,-226.1318 872.1869,-221.4917 876,-222.7 876,-222.7 876,-222.7 872.1869,-221.4917 877.0875,-219.2682 868.3737,-220.2834 868.3737,-220.2834"/>
<ellipse fill="none" stroke="#000000" cx="865.3232" cy="-219.3168" rx="3.2" ry="3.2"/>
</g>
<!-- project_tags&#45;&gt;tags -->
<g id="edge4" class="edge">
<title>project_tags:w&#45;&gt;tags:e</title>
<path fill="none" stroke="#000000" d="M861.4708,-245.9117C822.3258,-252.798 813.33,-286.7 766.5,-286.7"/>
<polygon fill="#000000" stroke="#000000" points="868.0277,-245.3649 876.2992,-248.2875 872.0138,-245.0325 876,-244.7 876,-244.7 876,-244.7 872.0138,-245.0325 875.7008,-241.1125 868.0277,-245.3649 868.0277,-245.3649"/>
<ellipse fill="none" stroke="#000000" cx="864.8387" cy="-245.6309" rx="3.2" ry="3.2"/>
</g>
</g>
</svg>
