<?xml version="1.0" encoding="UTF-8" standalone="no"?>
<!DOCTYPE svg PUBLIC "-//W3C//DTD SVG 1.1//EN"
 "http://www.w3.org/Graphics/SVG/1.1/DTD/svg11.dtd">
<!-- Generated by graphviz version 2.40.1 (20161225.0304)
 -->
<!-- Title: orphans Pages: 1 -->
<svg width="388pt" height="224pt"
 viewBox="0.00 0.00 388.00 224.00" xmlns="http://www.w3.org/2000/svg" xmlns:xlink="http://www.w3.org/1999/xlink">
<g id="graph0" class="graph" transform="scale(1 1) rotate(0) translate(4 220)">
<title>orphans</title>
<polygon fill="#ffffff" stroke="transparent" points="-4,4 -4,-220 384,-220 384,4 -4,4"/>
<!-- localisation_languages -->
<g id="node1" class="node">
<title>localisation_languages</title>
<g id="a_node1"><a xlink:href="../../tables/localisation_languages.html" xlink:title="localisation_languages" target="_top">
<polygon fill="#ffffff" stroke="transparent" points="8,-4 8,-212 372,-212 372,-4 8,-4"/>
<polygon fill="#f5f5f5" stroke="transparent" points="10,-181 10,-210 370,-210 370,-181 10,-181"/>
<polygon fill="none" stroke="#000000" points="10,-181 10,-210 370,-210 370,-181 10,-181"/>
<text text-anchor="start" x="15" y="-188.1" font-family="Helvetica,sans-Serif" font-weight="bold" font-size="16.00" fill="#000000">localisation_languages</text>
<text text-anchor="start" x="321.4272" y="-190.6" font-family="Helvetica,sans-Serif" font-size="16.00" fill="#000000">[table]</text>
<polygon fill="none" stroke="#000000" points="10,-156 10,-181 241,-181 241,-156 10,-156"/>
<image xlink:href="../../images/primaryKeys.png" width="11px" height="12px" preserveAspectRatio="xMinYMin meet" x="15" y="-174.5"/>
<text text-anchor="start" x="30" y="-160.1" font-family="Helvetica,sans-Serif" font-size="16.00" fill="#000000">iso_639&#45;3_language_code</text>
<polygon fill="none" stroke="#000000" points="241,-156 241,-181 370,-181 370,-156 241,-156"/>
<text text-anchor="start" x="243.688" y="-163.6" font-family="Helvetica,sans-Serif" font-size="16.00" fill="#000000">text[2000000000]</text>
<polygon fill="#ffffff" stroke="transparent" points="10,-131 10,-156 241,-156 241,-131 10,-131"/>
<polygon fill="none" stroke="#000000" points="10,-131 10,-156 241,-156 241,-131 10,-131"/>
<text text-anchor="start" x="30" y="-135.1" font-family="Helvetica,sans-Serif" font-size="16.00" fill="#000000">iso_639&#45;2_language_code</text>
<polygon fill="none" stroke="#000000" points="241,-131 241,-156 370,-156 370,-131 241,-131"/>
<text text-anchor="start" x="243.688" y="-138.6" font-family="Helvetica,sans-Serif" font-size="16.00" fill="#000000">text[2000000000]</text>
<polygon fill="#ffffff" stroke="transparent" points="10,-106 10,-131 241,-131 241,-106 10,-106"/>
<polygon fill="none" stroke="#000000" points="10,-106 10,-131 241,-131 241,-106 10,-106"/>
<text text-anchor="start" x="30" y="-110.1" font-family="Helvetica,sans-Serif" font-size="16.00" fill="#000000">iso_639&#45;1_language_code</text>
<polygon fill="none" stroke="#000000" points="241,-106 241,-131 370,-131 370,-106 241,-106"/>
<text text-anchor="start" x="243.688" y="-113.6" font-family="Helvetica,sans-Serif" font-size="16.00" fill="#000000">text[2000000000]</text>
<polygon fill="#ffffff" stroke="transparent" points="10,-81 10,-106 241,-106 241,-81 10,-81"/>
<polygon fill="none" stroke="#000000" points="10,-81 10,-106 241,-106 241,-81 10,-81"/>
<text text-anchor="start" x="30" y="-85.1" font-family="Helvetica,sans-Serif" font-size="16.00" fill="#000000">language_name</text>
<polygon fill="none" stroke="#000000" points="241,-81 241,-106 370,-106 370,-81 241,-81"/>
<text text-anchor="start" x="243.688" y="-88.6" font-family="Helvetica,sans-Serif" font-size="16.00" fill="#000000">text[2000000000]</text>
<polygon fill="none" stroke="#000000" points="10,-56 10,-81 241,-81 241,-56 10,-56"/>
<text text-anchor="start" x="30" y="-60.1" font-family="Helvetica,sans-Serif" font-size="16.00" fill="#000000">inserted_at</text>
<polygon fill="none" stroke="#000000" points="241,-56 241,-81 370,-81 370,-56 241,-56"/>
<text text-anchor="start" x="243.688" y="-63.6" font-family="Helvetica,sans-Serif" font-size="16.00" fill="#000000">text[2000000000]</text>
<polygon fill="none" stroke="#000000" points="10,-31 10,-56 241,-56 241,-31 10,-31"/>
<text text-anchor="start" x="30" y="-35.1" font-family="Helvetica,sans-Serif" font-size="16.00" fill="#000000">updated_at</text>
<polygon fill="none" stroke="#000000" points="241,-31 241,-56 370,-56 370,-31 241,-31"/>
<text text-anchor="start" x="243.688" y="-38.6" font-family="Helvetica,sans-Serif" font-size="16.00" fill="#000000">text[2000000000]</text>
<polygon fill="#ffffff" stroke="transparent" points="10,-6 10,-31 97,-31 97,-6 10,-6"/>
<polygon fill="none" stroke="#000000" points="10,-6 10,-31 97,-31 97,-6 10,-6"/>
<text text-anchor="start" x="13" y="-13.6" font-family="Helvetica,sans-Serif" font-size="16.00" fill="#000000">&lt; 0</text>
<polygon fill="#ffffff" stroke="transparent" points="97,-6 97,-31 241,-31 241,-6 97,-6"/>
<polygon fill="none" stroke="#000000" points="97,-6 97,-31 241,-31 241,-6 97,-6"/>
<text text-anchor="start" x="159.7584" y="-13.6" font-family="Helvetica,sans-Serif" font-size="16.00" fill="#000000">7,852 rows</text>
<polygon fill="#ffffff" stroke="transparent" points="241,-6 241,-31 370,-31 370,-6 241,-6"/>
<polygon fill="none" stroke="#000000" points="241,-6 241,-31 370,-31 370,-6 241,-6"/>
<text text-anchor="start" x="344.3168" y="-13.6" font-family="Helvetica,sans-Serif" font-size="16.00" fill="#000000">0 &gt;</text>
<polygon fill="none" stroke="#000000" stroke-width="2" points="9,-5 9,-211 371,-211 371,-5 9,-5"/>
</a>
</g>
</g>
</g>
</svg>
