<?xml version="1.0" encoding="UTF-8" standalone="no"?>
<!DOCTYPE svg PUBLIC "-//W3C//DTD SVG 1.1//EN"
 "http://www.w3.org/Graphics/SVG/1.1/DTD/svg11.dtd">
<!-- Generated by graphviz version 2.40.1 (20161225.0304)
 -->
<!-- Title: orphans Pages: 1 -->
<svg width="329pt" height="299pt"
 viewBox="0.00 0.00 329.00 299.00" xmlns="http://www.w3.org/2000/svg" xmlns:xlink="http://www.w3.org/1999/xlink">
<g id="graph0" class="graph" transform="scale(1 1) rotate(0) translate(4 295)">
<title>orphans</title>
<polygon fill="#ffffff" stroke="transparent" points="-4,4 -4,-295 325,-295 325,4 -4,4"/>
<!-- users -->
<g id="node1" class="node">
<title>users</title>
<g id="a_node1"><a xlink:href="../../tables/users.html" xlink:title="users" target="_top">
<polygon fill="#ffffff" stroke="transparent" points="8,-4 8,-287 313,-287 313,-4 8,-4"/>
<polygon fill="#f5f5f5" stroke="transparent" points="10.5,-255.5 10.5,-284.5 311.5,-284.5 311.5,-255.5 10.5,-255.5"/>
<polygon fill="none" stroke="#000000" points="10.5,-255.5 10.5,-284.5 311.5,-284.5 311.5,-255.5 10.5,-255.5"/>
<text text-anchor="start" x="15.5" y="-262.6" font-family="Helvetica,sans-Serif" font-weight="bold" font-size="16.00" fill="#000000">users</text>
<text text-anchor="start" x="262.9272" y="-265.1" font-family="Helvetica,sans-Serif" font-size="16.00" fill="#000000">[table]</text>
<polygon fill="none" stroke="#000000" points="10.5,-230.5 10.5,-255.5 159.5,-255.5 159.5,-230.5 10.5,-230.5"/>
<image xlink:href="../../images/primaryKeys.png" width="11px" height="12px" preserveAspectRatio="xMinYMin meet" x="15.5" y="-249"/>
<text text-anchor="start" x="30.5" y="-234.6" font-family="Helvetica,sans-Serif" font-size="16.00" fill="#000000">id</text>
<polygon fill="none" stroke="#000000" points="159.5,-230.5 159.5,-255.5 311.5,-255.5 311.5,-230.5 159.5,-230.5"/>
<text text-anchor="start" x="162.5" y="-238.1" font-family="Helvetica,sans-Serif" font-size="16.00" fill="#000000">text[2000000000]</text>
<polygon fill="#ffffff" stroke="transparent" points="10.5,-205.5 10.5,-230.5 159.5,-230.5 159.5,-205.5 10.5,-205.5"/>
<polygon fill="none" stroke="#000000" points="10.5,-205.5 10.5,-230.5 159.5,-230.5 159.5,-205.5 10.5,-205.5"/>
<text text-anchor="start" x="30.5" y="-209.6" font-family="Helvetica,sans-Serif" font-size="16.00" fill="#000000">user_name</text>
<polygon fill="none" stroke="#000000" points="159.5,-205.5 159.5,-230.5 311.5,-230.5 311.5,-205.5 159.5,-205.5"/>
<text text-anchor="start" x="162.5" y="-213.1" font-family="Helvetica,sans-Serif" font-size="16.00" fill="#000000">text[2000000000]</text>
<polygon fill="#ffffff" stroke="transparent" points="10.5,-180.5 10.5,-205.5 159.5,-205.5 159.5,-180.5 10.5,-180.5"/>
<polygon fill="none" stroke="#000000" points="10.5,-180.5 10.5,-205.5 159.5,-205.5 159.5,-180.5 10.5,-180.5"/>
<text text-anchor="start" x="30.5" y="-184.6" font-family="Helvetica,sans-Serif" font-size="16.00" fill="#000000">login_email</text>
<polygon fill="none" stroke="#000000" points="159.5,-180.5 159.5,-205.5 311.5,-205.5 311.5,-180.5 159.5,-180.5"/>
<text text-anchor="start" x="162.5" y="-188.1" font-family="Helvetica,sans-Serif" font-size="16.00" fill="#000000">text[2000000000]</text>
<polygon fill="none" stroke="#000000" points="10.5,-155.5 10.5,-180.5 159.5,-180.5 159.5,-155.5 10.5,-155.5"/>
<text text-anchor="start" x="30.5" y="-159.6" font-family="Helvetica,sans-Serif" font-size="16.00" fill="#000000">password_hash</text>
<polygon fill="none" stroke="#000000" points="159.5,-155.5 159.5,-180.5 311.5,-180.5 311.5,-155.5 159.5,-155.5"/>
<text text-anchor="start" x="162.5" y="-163.1" font-family="Helvetica,sans-Serif" font-size="16.00" fill="#000000">text[2000000000]</text>
<polygon fill="none" stroke="#000000" points="10.5,-130.5 10.5,-155.5 159.5,-155.5 159.5,-130.5 10.5,-130.5"/>
<text text-anchor="start" x="30.5" y="-134.6" font-family="Helvetica,sans-Serif" font-size="16.00" fill="#000000">description</text>
<polygon fill="none" stroke="#000000" points="159.5,-130.5 159.5,-155.5 311.5,-155.5 311.5,-130.5 159.5,-130.5"/>
<text text-anchor="start" x="162.5" y="-138.1" font-family="Helvetica,sans-Serif" font-size="16.00" fill="#000000">text[2000000000]</text>
<polygon fill="#ffffff" stroke="transparent" points="10.5,-105.5 10.5,-130.5 159.5,-130.5 159.5,-105.5 10.5,-105.5"/>
<polygon fill="none" stroke="#000000" points="10.5,-105.5 10.5,-130.5 159.5,-130.5 159.5,-105.5 10.5,-105.5"/>
<text text-anchor="start" x="30.5" y="-109.6" font-family="Helvetica,sans-Serif" font-size="16.00" fill="#000000">frozen</text>
<polygon fill="none" stroke="#000000" points="159.5,-105.5 159.5,-130.5 311.5,-130.5 311.5,-105.5 159.5,-105.5"/>
<text text-anchor="start" x="162.1312" y="-113.1" font-family="Helvetica,sans-Serif" font-size="16.00" fill="#000000">integer[2000000000]</text>
<polygon fill="#ffffff" stroke="transparent" points="10.5,-80.5 10.5,-105.5 159.5,-105.5 159.5,-80.5 10.5,-80.5"/>
<polygon fill="none" stroke="#000000" points="10.5,-80.5 10.5,-105.5 159.5,-105.5 159.5,-80.5 10.5,-80.5"/>
<text text-anchor="start" x="30.5" y="-84.6" font-family="Helvetica,sans-Serif" font-size="16.00" fill="#000000">active</text>
<polygon fill="none" stroke="#000000" points="159.5,-80.5 159.5,-105.5 311.5,-105.5 311.5,-80.5 159.5,-80.5"/>
<text text-anchor="start" x="162.1312" y="-88.1" font-family="Helvetica,sans-Serif" font-size="16.00" fill="#000000">integer[2000000000]</text>
<polygon fill="none" stroke="#000000" points="10.5,-55.5 10.5,-80.5 159.5,-80.5 159.5,-55.5 10.5,-55.5"/>
<text text-anchor="start" x="30.5" y="-59.6" font-family="Helvetica,sans-Serif" font-size="16.00" fill="#000000">inserted_at</text>
<polygon fill="none" stroke="#000000" points="159.5,-55.5 159.5,-80.5 311.5,-80.5 311.5,-55.5 159.5,-55.5"/>
<text text-anchor="start" x="162.5" y="-63.1" font-family="Helvetica,sans-Serif" font-size="16.00" fill="#000000">text[2000000000]</text>
<polygon fill="none" stroke="#000000" points="10.5,-30.5 10.5,-55.5 159.5,-55.5 159.5,-30.5 10.5,-30.5"/>
<text text-anchor="start" x="30.5" y="-34.6" font-family="Helvetica,sans-Serif" font-size="16.00" fill="#000000">updated_at</text>
<polygon fill="none" stroke="#000000" points="159.5,-30.5 159.5,-55.5 311.5,-55.5 311.5,-30.5 159.5,-30.5"/>
<text text-anchor="start" x="162.5" y="-38.1" font-family="Helvetica,sans-Serif" font-size="16.00" fill="#000000">text[2000000000]</text>
<polygon fill="#ffffff" stroke="transparent" points="10.5,-5.5 10.5,-30.5 72.5,-30.5 72.5,-5.5 10.5,-5.5"/>
<polygon fill="none" stroke="#000000" points="10.5,-5.5 10.5,-30.5 72.5,-30.5 72.5,-5.5 10.5,-5.5"/>
<text text-anchor="start" x="13.5" y="-13.1" font-family="Helvetica,sans-Serif" font-size="16.00" fill="#000000">&lt; 0</text>
<polygon fill="#ffffff" stroke="transparent" points="72.5,-5.5 72.5,-30.5 159.5,-30.5 159.5,-5.5 72.5,-5.5"/>
<polygon fill="none" stroke="#000000" points="72.5,-5.5 72.5,-30.5 159.5,-30.5 159.5,-5.5 72.5,-5.5"/>
<text text-anchor="start" x="109.388" y="-13.1" font-family="Helvetica,sans-Serif" font-size="16.00" fill="#000000">0 rows</text>
<polygon fill="#ffffff" stroke="transparent" points="159.5,-5.5 159.5,-30.5 311.5,-30.5 311.5,-5.5 159.5,-5.5"/>
<polygon fill="none" stroke="#000000" points="159.5,-5.5 159.5,-30.5 311.5,-30.5 311.5,-5.5 159.5,-5.5"/>
<text text-anchor="start" x="285.8168" y="-13.1" font-family="Helvetica,sans-Serif" font-size="16.00" fill="#000000">0 &gt;</text>
<polygon fill="none" stroke="#000000" stroke-width="2" points="9,-5 9,-286 312,-286 312,-5 9,-5"/>
</a>
</g>
</g>
</g>
</svg>
