<?xml version="1.0" encoding="UTF-8" standalone="no"?>
<!DOCTYPE svg PUBLIC "-//W3C//DTD SVG 1.1//EN"
 "http://www.w3.org/Graphics/SVG/1.1/DTD/svg11.dtd">
<!-- Generated by graphviz version 2.40.1 (20161225.0304)
 -->
<!-- Title: orphans Pages: 1 -->
<svg width="360pt" height="124pt"
 viewBox="0.00 0.00 360.00 124.00" xmlns="http://www.w3.org/2000/svg" xmlns:xlink="http://www.w3.org/1999/xlink">
<g id="graph0" class="graph" transform="scale(1 1) rotate(0) translate(4 120)">
<title>orphans</title>
<polygon fill="#ffffff" stroke="transparent" points="-4,4 -4,-120 356,-120 356,4 -4,4"/>
<!-- schema_migrations -->
<g id="node1" class="node">
<title>schema_migrations</title>
<g id="a_node1"><a xlink:href="../../tables/schema_migrations.html" xlink:title="schema_migrations" target="_top">
<polygon fill="#ffffff" stroke="transparent" points="8,-4 8,-112 344,-112 344,-4 8,-4"/>
<polygon fill="#f5f5f5" stroke="transparent" points="10,-81 10,-110 342,-110 342,-81 10,-81"/>
<polygon fill="none" stroke="#000000" points="10,-81 10,-110 342,-110 342,-81 10,-81"/>
<text text-anchor="start" x="15" y="-88.1" font-family="Helvetica,sans-Serif" font-weight="bold" font-size="16.00" fill="#000000">schema_migrations</text>
<text text-anchor="start" x="293.4272" y="-90.6" font-family="Helvetica,sans-Serif" font-size="16.00" fill="#000000">[table]</text>
<polygon fill="none" stroke="#000000" points="10,-56 10,-81 190,-81 190,-56 10,-56"/>
<image xlink:href="../../images/primaryKeys.png" width="11px" height="12px" preserveAspectRatio="xMinYMin meet" x="15" y="-74.5"/>
<text text-anchor="start" x="30" y="-60.1" font-family="Helvetica,sans-Serif" font-size="16.00" fill="#000000">version</text>
<polygon fill="none" stroke="#000000" points="190,-56 190,-81 342,-81 342,-56 190,-56"/>
<text text-anchor="start" x="192.6312" y="-63.6" font-family="Helvetica,sans-Serif" font-size="16.00" fill="#000000">integer[2000000000]</text>
<polygon fill="none" stroke="#000000" points="10,-31 10,-56 190,-56 190,-31 10,-31"/>
<text text-anchor="start" x="30" y="-35.1" font-family="Helvetica,sans-Serif" font-size="16.00" fill="#000000">inserted_at</text>
<polygon fill="none" stroke="#000000" points="190,-31 190,-56 342,-56 342,-31 190,-31"/>
<text text-anchor="start" x="193" y="-38.6" font-family="Helvetica,sans-Serif" font-size="16.00" fill="#000000">text[2000000000]</text>
<polygon fill="#ffffff" stroke="transparent" points="10,-6 10,-31 83,-31 83,-6 10,-6"/>
<polygon fill="none" stroke="#000000" points="10,-6 10,-31 83,-31 83,-6 10,-6"/>
<text text-anchor="start" x="13" y="-13.6" font-family="Helvetica,sans-Serif" font-size="16.00" fill="#000000">&lt; 0</text>
<polygon fill="#ffffff" stroke="transparent" points="83,-6 83,-31 190,-31 190,-6 83,-6"/>
<polygon fill="none" stroke="#000000" points="83,-6 83,-31 190,-31 190,-6 83,-6"/>
<text text-anchor="start" x="130.9936" y="-13.6" font-family="Helvetica,sans-Serif" font-size="16.00" fill="#000000">10 rows</text>
<polygon fill="#ffffff" stroke="transparent" points="190,-6 190,-31 342,-31 342,-6 190,-6"/>
<polygon fill="none" stroke="#000000" points="190,-6 190,-31 342,-31 342,-6 190,-6"/>
<text text-anchor="start" x="316.3168" y="-13.6" font-family="Helvetica,sans-Serif" font-size="16.00" fill="#000000">0 &gt;</text>
<polygon fill="none" stroke="#000000" stroke-width="2" points="9,-5 9,-111 343,-111 343,-5 9,-5"/>
</a>
</g>
</g>
</g>
</svg>
